<svg xmlns="http://www.w3.org/2000/svg" xmlns:xlink="http://www.w3.org/1999/xlink" viewBox="0 0 412 125"><defs><style>.cls-1{isolation:isolate;}.cls-2{fill:snow;}.cls-3{fill:#0567aa;}.cls-4{fill:#146715;}.cls-5{fill:#15d3ff;}.cls-6{fill:none;}.cls-7{fill:#31d834;}.cls-10,.cls-11,.cls-12,.cls-8,.cls-9{mix-blend-mode:multiply;}.cls-8{fill:url(#linear-gradient);}.cls-9{fill:url(#linear-gradient-2);}.cls-10{fill:url(#linear-gradient-3);}.cls-11{fill:url(#linear-gradient-4);}.cls-12{fill:url(#linear-gradient-5);}</style><linearGradient id="linear-gradient" x1="368.28" y1="102.68" x2="128.23" y2="105.12" gradientUnits="userSpaceOnUse"><stop offset="0" stop-color="#fff"/><stop offset="0.1" stop-color="#f0f3f7"/><stop offset="0.28" stop-color="#cad3e0"/><stop offset="0.53" stop-color="#8ca0bd"/><stop offset="0.84" stop-color="#385b8c"/><stop offset="1" stop-color="#083370"/></linearGradient><linearGradient id="linear-gradient-2" x1="103.14" y1="107.99" x2="-27.35" y2="109.32" gradientUnits="userSpaceOnUse"><stop offset="0" stop-color="#fff"/><stop offset="0.59" stop-color="#b6fab7"/><stop offset="1" stop-color="#87f789"/></linearGradient><linearGradient id="linear-gradient-3" x1="391.72" y1="37.75" x2="278.86" y2="38.9" gradientUnits="userSpaceOnUse"><stop offset="0" stop-color="#fff"/><stop offset="0.17" stop-color="#f1fef1"/><stop offset="0.5" stop-color="#cafbcb"/><stop offset="0.96" stop-color="#8df78f"/><stop offset="1" stop-color="#87f789"/></linearGradient><linearGradient id="linear-gradient-4" x1="361.98" y1="13.86" x2="88.03" y2="16.64" gradientUnits="userSpaceOnUse"><stop offset="0" stop-color="#fff"/><stop offset="1" stop-color="#083370"/></linearGradient><linearGradient id="linear-gradient-5" x1="66.47" y1="14.66" x2="-67.24" y2="16.02" gradientUnits="userSpaceOnUse"><stop offset="0" stop-color="#fff"/><stop offset="0.09" stop-color="#f0f3f6"/><stop offset="0.27" stop-color="#cad3e0"/><stop offset="0.52" stop-color="#8c9fbb"/><stop offset="0.82" stop-color="#385989"/><stop offset="1" stop-color="#032c6a"/></linearGradient></defs><g class="cls-1"><g id="Layer_2" data-name="Layer 2"><g id="OBJECTS"><rect class="cls-2" width="412" height="125"/><path class="cls-3" d="M412,125v-6.75c-18.37-14-47.19-34.89-65.33-42.79-28.34-12.34-52.28,31.94-87,8.66-50.31-33.71-98.16,19.95-114.1,40.88Z"/><path class="cls-4" d="M53.4,109.41C30.38,114,13.49,108.17,0,103v22H157C148,104.74,130,94.2,53.4,109.41Z"/><path class="cls-5" d="M118,0c-1,5.15-7,12.29-14.25,16C73,32,67-10.33,32.07,22.25,18.83,34.61,8.21,36.51,0,34.07V0Z"/><path class="cls-5" d="M412,125V64.83c-20.08-1.37-40.71,9.65-58.07,21.9-26,18.35-59.31,18.46-90.47,12.08-20.69-4.23-54.58-5.59-56.38,26.19Z"/><rect class="cls-6" width="412" height="125"/><path class="cls-7" d="M412,0H299a69.05,69.05,0,0,0-5.2,13.26c-6.22,22.26-8.51,53,30.69,43.53C373,45.06,384.27,97.52,412,93.22Z"/><path class="cls-8" d="M412,125V79.48c-22.89,15-78.23,47.18-115.5,36.31-44.37-12.94-99-14.34-118,9.21Z"/><path class="cls-9" d="M51.83,102.16c-23.73,3.66-40.36-2-51.83-10.37V125H127.21C114.08,112,89.74,96.32,51.83,102.16Z"/><path class="cls-10" d="M331,46.79c39.07-5.06,65.78,19.53,81,29.33V0H310.43C301,20.18,292,51.84,331,46.79Z"/><path class="cls-3" d="M234.77,27.75c60.86-23.19,77,32.31,112.63-13A18.18,18.18,0,0,0,351.17,0H131.77C120.69,43.49,170.4,52.28,234.77,27.75Z"/><path class="cls-11" d="M199.5,26.29c64-22.5,116.5-24.5,139-3C356.85,40.83,394.82,20.11,412,4V0H144.94C145,14.89,151.12,43.3,199.5,26.29Z"/><path class="cls-12" d="M0,0V30.68A99.89,99.89,0,0,0,22.25,20.21c34.67-21.34,49.33-22.67,68.67-10C102.94,18.08,119.35,8.43,130,0Z"/></g></g></g></svg>