<svg xmlns="http://www.w3.org/2000/svg" xmlns:xlink="http://www.w3.org/1999/xlink" viewBox="0 0 412 125"><defs><style>.cls-1{isolation:isolate;}.cls-2{fill:snow;}.cls-3{fill:url(#linear-gradient);}.cls-4{fill:#840d0d;}.cls-5{fill:#f41c1c;}.cls-6{fill:url(#linear-gradient-2);}.cls-10,.cls-11,.cls-7,.cls-8,.cls-9{mix-blend-mode:multiply;}.cls-7{fill:url(#linear-gradient-3);}.cls-8{fill:url(#linear-gradient-4);}.cls-9{fill:url(#linear-gradient-5);}.cls-10{fill:url(#linear-gradient-6);}.cls-11{fill:url(#linear-gradient-7);}</style><linearGradient id="linear-gradient" x1="91.41" y1="85.65" x2="57.27" y2="-4.69" gradientUnits="userSpaceOnUse"><stop offset="0" stop-color="#ffaf00"/><stop offset="1" stop-color="#ffc500"/></linearGradient><linearGradient id="linear-gradient-2" x1="210.5" y1="107.49" x2="412" y2="107.49" xlink:href="#linear-gradient"/><linearGradient id="linear-gradient-3" y1="97.75" x2="172.99" y2="97.75" gradientUnits="userSpaceOnUse"><stop offset="0" stop-color="#fff"/><stop offset="1" stop-color="#840d0d"/></linearGradient><linearGradient id="linear-gradient-4" x1="-11.63" y1="46.62" x2="142.87" y2="-24.88" gradientUnits="userSpaceOnUse"><stop offset="0" stop-color="#fff"/><stop offset="0.18" stop-color="#ffddde"/><stop offset="0.75" stop-color="#ff787c"/><stop offset="1" stop-color="#ff5055"/></linearGradient><linearGradient id="linear-gradient-5" x1="275" y1="43.11" x2="424.25" y2="-25.96" xlink:href="#linear-gradient-3"/><linearGradient id="linear-gradient-6" x1="252.79" y1="155.37" x2="425.1" y2="75.63" gradientUnits="userSpaceOnUse"><stop offset="0" stop-color="#ff5055"/><stop offset="0.06" stop-color="#ff5f64"/><stop offset="0.3" stop-color="#ff989b"/><stop offset="0.52" stop-color="#ffc4c6"/><stop offset="0.72" stop-color="#ffe4e5"/><stop offset="0.89" stop-color="#fff8f8"/><stop offset="1" stop-color="#fff"/></linearGradient><linearGradient id="linear-gradient-7" x1="145.04" y1="11.43" x2="325.18" y2="11.43" gradientUnits="userSpaceOnUse"><stop offset="0" stop-color="#fff"/><stop offset="0.09" stop-color="#faf4f4"/><stop offset="0.25" stop-color="#ebd8d8"/><stop offset="0.45" stop-color="#d3a9a9"/><stop offset="0.69" stop-color="#b26868"/><stop offset="0.97" stop-color="#891717"/><stop offset="1" stop-color="#840d0d"/></linearGradient></defs><g class="cls-1"><g id="Layer_2" data-name="Layer 2"><g id="OBJECTS"><rect class="cls-2" width="412" height="125"/><path class="cls-3" d="M0,0V93.57C61.67,138.7,42.35,43.1,87.67,33.79c0,0,53.57-5.74,65.78-33.79Z"/><path class="cls-4" d="M368.3,19.46c22.61,0,29.37,27.23,43.7,35.79V0H272.74C277.42,53.69,341.23,19.46,368.3,19.46Z"/><path class="cls-4" d="M315.33,125H0V84.68c5.67-2.94,11-5.54,16.09-7.83,109-49.38,86.16,42.87,209.74,12.77C279.09,76.65,315.14,125,315.33,125Z"/><path class="cls-5" d="M94,101.53C34.6,92.23,23.57,61,7.15,45.41A22.79,22.79,0,0,0,0,41v84H139.91C132.24,115,118.61,105.39,94,101.53Z"/><path class="cls-5" d="M162.77,7.82c-16.45,60,62.38-11.89,104.32,16.53C297,44.62,316.61,31.87,298.5,0h-133A56,56,0,0,0,162.77,7.82Z"/><path class="cls-6" d="M412,125V91.37c-19.25-6.5-36.37,11.51-63.5,20.5C313.36,123.51,215,75.13,210.5,125Z"/><path class="cls-7" d="M173,125H0V70.49a75.13,75.13,0,0,1,16.09,6.36A72.07,72.07,0,0,1,36,92.62c32.5,36.5,107.5,5,126.5,23.5C163.56,117.15,167.84,120.63,173,125Z"/><path class="cls-8" d="M0,0V82.38c14.16-6,32.42-16.79,39-34.59,11.33-30.67,35.93-32.85,59.33-32,18.34.66,27.17-7,30.94-15.79Z"/><path class="cls-9" d="M326,20.12c49.92-14.91,74.4,0,86,14.13V0H250.29C258.07,11,280.46,33.72,326,20.12Z"/><path class="cls-10" d="M412,125V107.86c-13.93-7.62-29.78-14.64-38.5-12.91-26.83,5.34-31.5,32-91,20-30.09-6.07-43.42,1.29-49.26,10Z"/><path class="cls-11" d="M113.36,0c3.91,7.72,20,32.58,60.59,18.73C221.6,2.46,247.35.27,264.6,12.54c15.25,10.84,32.68-.63,28.18-12.54Z"/></g></g></g></svg>