<svg xmlns="http://www.w3.org/2000/svg" xmlns:xlink="http://www.w3.org/1999/xlink" viewBox="0 0 412.15 125.52"><defs><style>.cls-1{isolation:isolate;}.cls-2{fill:snow;}.cls-3{fill:#d529ff;}.cls-4{fill:#8517a0;}.cls-5{fill:url(#linear-gradient);}.cls-6{fill:url(#linear-gradient-2);}.cls-10,.cls-11,.cls-7,.cls-8,.cls-9{mix-blend-mode:multiply;}.cls-7{fill:url(#linear-gradient-3);}.cls-8{fill:url(#linear-gradient-4);}.cls-9{fill:url(#linear-gradient-5);}.cls-10{fill:url(#linear-gradient-6);}.cls-11{fill:url(#linear-gradient-7);}</style><linearGradient id="linear-gradient" x1="262.1" y1="25.29" x2="412.04" y2="25.29" gradientUnits="userSpaceOnUse"><stop offset="0" stop-color="#ffaf00"/><stop offset="1" stop-color="#ffc500"/></linearGradient><linearGradient id="linear-gradient-2" x1="182.79" y1="193.38" x2="62.6" y2="73.19" xlink:href="#linear-gradient"/><linearGradient id="linear-gradient-3" x1="0.09" y1="101.54" x2="106.39" y2="101.54" gradientUnits="userSpaceOnUse"><stop offset="0" stop-color="#73068e"/><stop offset="1" stop-color="#fff"/></linearGradient><linearGradient id="linear-gradient-4" x1="23.62" y1="107.52" x2="197.56" y2="107.52" gradientUnits="userSpaceOnUse"><stop offset="0" stop-color="#fff"/><stop offset="0.16" stop-color="#fffbfb"/><stop offset="0.31" stop-color="#fff0f0"/><stop offset="0.46" stop-color="#ffddde"/><stop offset="0.61" stop-color="#ffc3c4"/><stop offset="0.75" stop-color="#ffa0a3"/><stop offset="0.89" stop-color="#ff777b"/><stop offset="1" stop-color="#ff5055"/></linearGradient><linearGradient id="linear-gradient-5" x1="254.58" y1="20.69" x2="433.37" y2="20.69" gradientUnits="userSpaceOnUse"><stop offset="0" stop-color="#fff"/><stop offset="0.11" stop-color="#fff8f8"/><stop offset="0.28" stop-color="#ffe4e5"/><stop offset="0.48" stop-color="#ffc4c6"/><stop offset="0.7" stop-color="#ff989b"/><stop offset="0.94" stop-color="#ff5f64"/><stop offset="1" stop-color="#ff5055"/></linearGradient><linearGradient id="linear-gradient-6" x1="275.66" y1="99.92" x2="412.15" y2="99.92" xlink:href="#linear-gradient-3"/><linearGradient id="linear-gradient-7" y1="19.14" x2="209.81" y2="19.14" gradientUnits="userSpaceOnUse"><stop offset="0" stop-color="#fff"/><stop offset="1" stop-color="#73068e"/></linearGradient></defs><g class="cls-1"><g id="Layer_2" data-name="Layer 2"><g id="OBJECTS"><polygon class="cls-2" points="412.15 125 0.15 125.52 0.07 59.58 0.01 6.25 0 0.52 412 0 412.15 125"/><path class="cls-3" d="M412.15,125l0-44.62c-11.55-7.59-25.88-15.18-39.68-17.45-30.33-5-13.33,34-63,25-27-4.9-42.29,23.15-48.16,37.26Z"/><path class="cls-3" d="M31.51,20c25.85-17.84,62.77-1,92.79,8.25C145.51,34.76,171,42.77,182.5,7.53c.83-2.54,1.51-5,2.05-7.31L0,.46V5L0,31.89C8.11,32.09,18.69,28.85,31.51,20Z"/><path class="cls-4" d="M227.33,16.52C265.46,2.38,274,76.19,317.83,35.36,332.26,21.92,335.8,9.59,331.89.1L159.16.32C157.44,29.24,194.48,28.71,227.33,16.52Z"/><path class="cls-5" d="M412,0,262.1.19c.28.65.57,1.31.89,2,5,10.46,13.55,15.51,36.38,13C345,10.17,323.69,56.33,374.9,50A82.6,82.6,0,0,0,412,36Z"/><path class="cls-6" d="M95.9,85.59C53,52.67,19,73.81,16.77,103.2a93.62,93.62,0,0,0,.64,22.3l190-.24C185.83,78.24,153.56,129.86,95.9,85.59Z"/><path class="cls-3" d="M89.62,125.41c-11.41-33.25-48.06-10.2-62.11-41.27C21.54,70.94,9.66,64.79,0,61.93l.08,63.59Z"/><path class="cls-4" d="M368.13,68.07c-25.22,43.94-18.71,49.19-64.71,36.86-18.33-4.92-41.66,5-49,20.25l157.73-.2-.09-71.77C395.72,48.48,378.64,49.76,368.13,68.07Z"/><path class="cls-7" d="M106.39,125.39c-6.3-11.72-14.71-24.39-22.3-26-14.5-3-59,11.5-70-10a23.81,23.81,0,0,0-14-11.87l.06,48Z"/><path class="cls-8" d="M23.62,125.49l173.94-.22c-1.59-6.79-8.14-14-30-10.84-38.5,5.5-57-8-76-21C73.89,81.32,38.85,99.15,23.62,125.49Z"/><path class="cls-9" d="M412,0,233.25.23a10.05,10.05,0,0,0,2.09,3.2c13.5,14.75,48,12.4,63,7.75,18.5-5.75,30.25-2.5,61.25,22.75,18,14.67,38.46,5,52.44-5.76Z"/><path class="cls-10" d="M412.15,125l0-41.18c-11.57-9.39-27.24-15.2-42.51,1.11-27.51,29.37-79.35,10.5-93.93,40.24Z"/><path class="cls-11" d="M70.59,35.43c45-15,41.71-25.34,78-17,21.91,5,45.56-7.29,61.22-18.18L0,.52v12.6C15.51,26.88,42.48,44.8,70.59,35.43Z"/></g></g></g></svg>