<?xml version="1.0" encoding="utf-8"?>
<!-- Generator: Adobe Illustrator 25.2.2, SVG Export Plug-In . SVG Version: 6.00 Build 0)  -->
<svg version="1.1" id="Layer_1" xmlns="http://www.w3.org/2000/svg" xmlns:xlink="http://www.w3.org/1999/xlink" x="0px" y="0px"
	 viewBox="0 0 500 500" style="enable-background:new 0 0 500 500;" xml:space="preserve">
<style type="text/css">
	.st0{display:none;fill:#FCFCFD;}
	.st1{fill:#DC6226;}
	.st2{fill:#F17623;}
	.st3{fill:#FBB46D;}
	.st4{fill:#6F6F6F;}
	.st5{fill:#7BC252;}
	.st6{fill:#FEFFFE;}
</style>
<g>
	<g>
		<path class="st0" d="M11.7,253.4c0-77.5,0-154.9-0.1-232.4c0-3.4,0.7-4.1,4.1-4.1C171,17,326.2,17,481.5,16.9
			c3.4,0,4.1,0.7,4.1,4.1c-0.1,155.3-0.1,310.6,0,465.8c0,3.4-0.7,4.1-4.1,4.1c-155.3-0.1-310.6-0.1-465.8,0c-3.4,0-4.1-0.7-4.1-4.1
			C11.7,409,11.7,331.2,11.7,253.4z M48.1,255.6c0.1,47.4,14.8,90,44.7,126.6c40.4,49.5,93.2,74.5,157.1,75.7c0,7.5,0.3,15,0.1,22.4
			c-0.1,3.6,0.8,4.7,4.6,4.7c32.3-0.3,63.1-7.7,92.2-21.1c30.2-14,56.3-33.9,77.9-59.3c19.4-22.8,33.9-48.3,43.3-76.9
			c6.7-20.5,10.6-41.3,11.5-62.8c1.1-28.1-2.8-55.5-11.8-82.3c-9.1-27.2-22.9-51.6-41.3-73.6c-22.1-26.6-48.9-47.2-80.3-61.7
			c-10.4-4.8-20.7-9.5-32.1-11.6c-0.7-0.4-1.4-1-2.1-1.2c-17.8-4.8-36-7.8-54.4-8.3c-26.9-0.7-53.1,3.1-78.8,11.5
			C142.2,49.6,111.1,69.6,84.5,97c-9.9,10.2-18.5,21.5-26.3,33.3c-5.2,7.6-9.4,15.8-13.5,24c-8.5,17-14.4,34.9-18.6,53.4
			c-3.3,14.6-4.9,29.4-5.3,44.3c-0.1,2.6,0.9,3.4,3.5,3.4C32.1,255.4,40.1,255.5,48.1,255.6z"/>
		<path class="st1" d="M314,35.7c11.3,2,21.7,6.8,32.1,11.6c31.5,14.5,58.2,35,80.3,61.7c18.3,22,32.1,46.5,41.3,73.6
			c9,26.7,13,54.1,11.8,82.3c-0.9,21.5-4.8,42.3-11.5,62.8c-9.4,28.5-24,54-43.3,76.9c-21.6,25.5-47.7,45.4-77.9,59.3
			c-29.1,13.5-59.9,20.8-92.2,21.1c-3.8,0-4.7-1-4.6-4.7c0.2-7.5,0-14.9-0.1-22.4c0-4.6,0-9.2,0-13.8c0-7.6,0.2-15.3,0.1-22.9
			c-0.1-3.1,0.5-4.3,4-4.3c13.2,0.1,26-2.1,38.7-5.7c39.4-10.9,70.7-33.5,92.7-67.7c27.2-42.2,33.8-87.9,18.7-136.2
			c-11.8-37.4-34.5-66.5-67.3-87.9c-12.8-8.3-26.7-13.9-40.8-19.1c1.6-1.2,1.8-3,2.3-4.7c4.8-16.7,9.7-33.4,14.7-50
			C314,42.3,315.5,39.2,314,35.7z"/>
		<path class="st2" d="M314,35.7c1.6,3.5,0,6.6-1,9.9c-5,16.6-9.9,33.3-14.7,50c-0.5,1.8-0.7,3.5-2.3,4.7c-1.1-0.2-2.3-0.3-3.4-0.6
			c-28-7.7-55.9-7.7-83.9-0.1c-34,9.2-61.8,27.6-84.2,54.6c-4.2,5.1-7,11.1-11.9,15.6c-0.5-1.8-1.9-2.5-3.4-3.4
			c-16-10-32-20-48-30.1c-2.2-1.4-4-3-3-6C66,118.5,74.5,107.2,84.5,97c26.6-27.4,57.7-47.4,94.2-59.3c25.7-8.4,51.9-12.2,78.8-11.5
			c18.5,0.5,36.6,3.5,54.4,8.3C312.6,34.7,313.3,35.3,314,35.7z"/>
		<path class="st3" d="M58.1,130.3c-1,3,0.8,4.6,3,6c16,10,32,20.1,48,30.1c1.4,0.9,2.9,1.7,3.4,3.4c-0.2,0.8-0.3,1.6-0.7,2.3
			c-14.7,24.7-22.5,51.5-23.2,80.3c-0.1,3-1.5,3.1-3.7,3c-7.8,0-15.6,0.1-23.4,0.2c-4.5,0-9,0-13.4,0c-8-0.1-16-0.2-23.9-0.1
			c-2.6,0-3.5-0.8-3.5-3.4c0.4-14.9,2-29.7,5.3-44.3c4.2-18.5,10.1-36.4,18.6-53.4C48.7,146.1,52.9,138,58.1,130.3z"/>
		<path class="st4" d="M48.1,255.6c4.5,0,9,0,13.4,0c0.2,12.8,1.5,25.5,4,38.1c16.8,86.2,96.3,151.1,184.5,150.4c0,4.6,0,9.2,0,13.8
			c-63.9-1.2-116.7-26.2-157.1-75.7C62.8,345.5,48.2,303,48.1,255.6z"/>
	</g>
</g>
<g>
	<g>
		<path class="st5" d="M237.4,122.4c8.1,0,16.2,0,24.4,0c0.5,0.2,1,0.6,1.5,0.7c33,3.5,61.2,17.2,84.7,40.7
			c42.2,42.3,51.6,110.4,22.4,162.5c-29.2,52.1-85.2,79-144.2,69.4c-56.6-9.3-102.8-55.5-112.1-111.9c-0.6-3.8-1.4-7.6-2.1-11.4
			c0-8.4,0-16.7,0-25.1c0.8-4.3,1.5-8.5,2.3-12.8c10.7-55.2,53-97.9,108.1-109.2C227.4,124.1,232.4,123.3,237.4,122.4z M145,306.1
			c17.5,44.5,73.3,81.7,135.5,64.3c62.3-17.5,93.3-80.1,81.2-133.1c-25.8,0-51.7,0-77.9,0c0,11.2,0,22.2,0,32.8
			c-15-14.9-30.1-29.8-44.9-44.4c14.9-14.8,29.9-29.7,45-44.6c0,10.7,0,21.7,0,32.8c23.6,0,46.9,0,70.3,0
			c-20.4-49.3-80.4-83.2-141.6-62.4c-62.3,21.3-86.5,84.8-75.1,131.1c25.9,0,51.7,0,77.9,0c0-11.3,0-22.2,0-32.2
			c14.7,14.6,29.8,29.5,44.3,43.8c-14.8,14.7-29.8,29.5-44.7,44.3c0-10.4,0-21.4,0-32.5C191.5,306.1,168.3,306.1,145,306.1z"/>
		<path class="st6" d="M145,306.1c23.3,0,46.5,0,70.1,0c0,11.1,0,22.1,0,32.5c14.9-14.7,29.9-29.6,44.7-44.3
			c-14.5-14.3-29.5-29.2-44.3-43.8c0,9.9,0,20.9,0,32.2c-26.2,0-52.1,0-77.9,0c-11.4-46.3,12.8-109.9,75.1-131.1
			c61.1-20.9,121.2,13,141.6,62.4c-23.4,0-46.7,0-70.3,0c0-11.1,0-22.1,0-32.8c-15.1,14.9-30.1,29.8-45,44.6
			c14.8,14.6,29.8,29.5,44.9,44.4c0-10.6,0-21.6,0-32.8c26.2,0,52.1,0,77.9,0c12.1,53-18.8,115.6-81.2,133.1
			C218.3,387.8,162.5,350.5,145,306.1z"/>
	</g>
</g>
</svg>
