<svg width="220" height="248" fill="none" xmlns="http://www.w3.org/2000/svg"><circle cx="96" cy="121" r="96" fill="url(#a)"/><path fill-rule="evenodd" clip-rule="evenodd" d="M165.83 195.325c-4.595 6.134-17.127 17.478-30.491 13.777-4.193-2.212-12.7-5.37-13.183-.302-.201 2.783.342 10.238 4.126 17.8 2.985 5.866 6.018 18.222-5.736 20.715-4.394 1.174-12.921.061-11.875-13.776.369-6.269.503-18.021-1.912-14.884-6.541 5.029-19.824.604-12.68-18.603-5.131-1.241-14.49-8.367-10.867-26.951l-.195-.024c-6.394-.8-14.424-1.805-18.608-7.479-1.697-2.301-3.824-7.48-3.019-14.682 1.115 1.634 1.913 3.281 2.675 4.853 2.33 4.811 4.321 8.919 14.03 9.829h1.38c2.41 0 4.737-.871 6.554-2.452.906-1.743 3.563-5.511 6.944-6.637.704-.268 1.51-.403-.906 1.206-3.32 2.28-9.077 10.761-5.535 26.448.94 3.956 4.992 11.826 13.686 11.665-1.24-5.497-3.441-17.9-2.314-23.531.134-1.207.483-2.493.805 2.011.503 8.38 3.08 27.633 9.843 36.643 1.844 3.151 5.352 12.049 4.145 23.392-.168 2.615.06 7.804 2.314 7.643l.403-3.52 1.409 3.52c.503 1.173 1.69 2.816 2.415 0l.402-2.212.018.043c.586 1.432 1.953 4.115 2.693 2.756.299-.55.509-1.757.509-4.107l1.711 1.308c.604.201 1.55-.704.503-5.933-.838-3.956-2.918-12.531-4.528-15.186-2.918-7.374-4.69-20.494 11.573-13.977 4.327 2.782 17.127 4.806 33.711-9.353zm-68.978 5.535c-1.098 1.514-2.342 5.306-.86 11.863.503 1.709 1.57 4.243 1.811.704.134-1.073.604-2.575 1.409 0 .537 2.547 1.972 6.154 3.421.201.135-.503.483-1.207.805 0 .302 1.91 1.188 4.545 2.315-.201.168-.704.201-2.615-.604-4.526l-3.22-7.341a6.472 6.472 0 0 1-.07-.145c-.259-.551-.5-1.061-2.647-1.061h-1.234c-.437 0-.87.152-1.126.506z" fill="#C85F32"/><path d="m98.717 155.485 1.31-.504 4.362-4.635 29.198 19.945 23.783-3.928 12.733-17.024 2.519 3.828.57 6.347.504 12.187-.504 8.662-2.318 11.483-12.496 22.26c-4.112 7.735.168 8.662 2.822 8.158 8.949 1.451 10.649 6.514 10.38 8.864-5.966 12.812-18.006 2.786-23.28-3.828-1.29-2.739-1.411-14.571-1.31-20.144-4.112 2.498-11.993.168-15.419-1.31-13.303-5.56-11.925 5.271-9.574 11.382l5.039 16.116c1.209 8.058-3.46 11.146-5.946 11.684-7.417 2.981-9.607-4.734-9.775-8.965l-2.016-18.835c-1.31-3.525-3.85-10.455-3.527-9.972.322.484-3.695-7.99-5.745-12.288l-3.023-13.497v-22.159l1.713-3.827z" fill="#E17848"/><path d="M121.509 165.679c-6.752 5.385-4.159 29.335-.442 40.453l.704 1.005 2.411-1.909 7.435.904 7.335 2.211 8.942-.503v-1.708c3.617-2.712 9.852-10.25 11.856-15.773 2.713-7.473 4.594-23.775 6.867-28.031l-5.526 5.425-6.967 3.842-4.637 1.918-4.105 2.48-7.234-.402-5.426-1.407-11.213-8.505zM126.895 236.073c0 4.453-3.522 8.062-7.866 8.062-4.344 0-7.866-3.609-7.866-8.062 0-4.453 3.522-8.063 7.866-8.063 4.344 0 7.866 3.61 7.866 8.063zM170.943 229.386c0 4.453-3.543 8.062-7.914 8.062-4.371 0-13.324-5.038-13.324-9.491 0-4.453 8.953-6.634 13.324-6.634s7.914 3.61 7.914 8.063z" fill="#FEDDC3"/><path d="M93.866 200.117c-7.09 19.176 6.754 24.358 12.582 18.574 1.578-1.567 3.357-5.542 1.678-7.792-1.772-2.375-3.199-6.434-4.892-10.782-2.197 0-6.79-.965-9.368 0z" fill="#C85F32"/><path d="M135.364 209.124c13.353 3.698 25.874-7.638 30.466-13.768-16.57 14.15-29.36 12.127-33.684 9.347-16.249-6.513-14.479 6.599-11.563 13.968 1.609 2.653 3.687 11.223 4.525 15.176 1.045 5.226.1 6.13-.503 5.929l-1.709-1.306c0 2.348-.21 3.554-.51 4.104-.739 1.358-2.104-1.323-2.69-2.754l-.018-.044-.402 2.211c-.724 2.814-1.91 1.173-2.413 0l-1.408-3.517-.402 3.517c-2.252.161-2.48-5.024-2.313-7.637.604-5.673-.125-13.458-2.13-19.559-5.128-10.088-5.28-10.503-6.134-12.261 0 2.523 1.304 5.61 2.608 11.601.591 2.72 1.518 5.538 1.713 8.315.235 3.339.108 7.924-.079 11.099-1.045 13.829 7.474 14.941 11.865 13.768 11.744-2.492 8.714-14.84 5.731-20.702-3.78-7.558-4.323-15.008-4.122-17.788.483-5.066 8.982-1.91 13.172.301z" fill="#E17848"/><path d="M95.722 212.845c-1.493-6.56-.24-10.354.867-11.869.258-.354.694-.507 1.135-.507h1.243c2.353 0 2.434.604 2.738 1.208l3.245 7.345c.811 1.911.778 3.823.609 4.528-1.136 4.749-2.029 2.113-2.333.201-.324-1.208-.676-.503-.811 0-1.46 5.956-2.907 2.348-3.448-.201-.811-2.576-1.284-1.074-1.42 0-.243 3.541-1.318 1.006-1.825-.705z" fill="#E5B283"/><path d="M170.956 187.626c2.175-4.754 1.846-24.14 1.41-33.239-.107-2.579.425-.067.704 1.511 4.109 26.35-1.711 39.988-5.135 43.513-6.445 10.395-8.19 14.942-8.257 15.915-1.853 4.352-.437 5.104.503 4.936 9.989.886 12.755 7.42 12.889 10.576-.241 7.172-6.813 8.696-10.069 8.562-14.581-2.821-16.682-14.203-15.91-19.541 1.369 8.139 8.156 12.792 11.379 14.102 6.525 2.901 9.029 1.343 9.465.201.725-.725-.973-1.914-1.913-2.417-1.209-1.612.369-.94 1.309-.403 2.014 1.047 2.114-.437 1.913-1.31-.967-4.673-7.25-6.379-10.271-6.648-3.786-.403-3.625-1.813-3.625-2.518.08-5.479 6.277-16.586 9.365-21.455 1.933-1.853 4.967-8.628 6.243-11.785z" fill="#E17848"/><path d="M99.838 154.988c-4.427 8.545.033 32.28 2.767 43.13l.692 2.016c-4.348.887-10.494 0-13.341-2.116-11.662-8.666-7.116-27.545-3.657-35.674 4.349-7.256 10.772-7.86 13.54-7.356z" fill="#C85F32"/><path d="M99.46 146.119c-.347-1.669-.567-1.68-.53-2.049l-.435-7.358c.092-8.18 6.052-6.628 9.021-4.829 9.195 14.468 17.947 4.019 21.173-3.013l26.536-3.727c2.433-.046 7.4-.119 7.795-.043.396.075 9.305 4.379 13.711 6.521l.687 4.435-2.865 6.931-1.9 6.706-1.332 3.741-.93 2.179-1.868 3.331-2.498 3.414-3.658 4.115-3.195 2.77-6.114 3.029-8.471 1.963c-6.531.716-12.143-1.507-14.133-2.708l-7.358-4.382-8.979-7.151-10.915-9.879-3.743-3.996z" fill="#FEDDC3"/><path d="M125 155.863c1.457 2.185 7.894 5.728 21.98 2.424-6.624 3.117-20.292 6.995-21.98-2.424z" fill="#151815"/><path d="m69.067 87.62 2.772 13.34 2.937 4.457 5.583 4.554 6.906-.214 13.333-1.134 10.036-20.824.249-8.252-19.312-23.272L73.82 45.7l-8.76.268-1.949 20.325 5.955 21.327zM164.155 47.837l-5.284 15.484-2.046 10.675-.097 12.599 6.104 7.924 7.747 6.09 13.799-1.961c4.363-3.47 7.959-7.938 9.384-13.327a61.1 61.1 0 0 0 1.743-9.712l2.477-25.491-3.932-13.08-6.316-6.077-14.067 7.017-9.512 9.859z" fill="#FEDDC3"/><path d="M67.319 41.236c-19.592-5.557-7.565 26.011.597 45.444.639.942.988.19.9-.954-1.692-6.678-3.624-18.597-3.798-23.925-.882-13.367 4.368-13.272 10.125-12.2 14.96 2.785 24.088 17.424 26.782 24.396 6.217 21.029-3.405 24.008-8.993 22.869l3.614 3.498c1.967 2.466-2.51 5.257-3.387 5.909-11.437 7.071-17.8-.41-19.985-4.689-1.437-1.915-1.455-.962-1.285-.246 2.443 11.207 11.89 13.174 16.307 12.757 1.31.005 2.105.779 2.338 1.165 3.05 4.191 5.792 14.157 6.782 18.616l1.584 10.448c1.161 2.928 1.371 1.839 1.346.463l-.544-6.252c-1.002-2.897.138-4.106.834-4.349 1.839-1.041 3.729 1.569 4.445 3.004 10.502 17.915 21.438 5.406 25.593-3.088.699-1.506 3.126-1.519 4.253-1.337 2.94.481 3.169 1.461 2.916 1.891 9.366 6.098 13.127 2.515 19.669-1.047 1.203-.654-1.053-2.524-.914-3.249.103-.964 1.076-1.16 1.55-1.137 1.186.227 2 .793 2.259 1.047l4.161 4.486c4.242 5.24 8.884 3.547 10.674 2.046 1.301-1.226 1.935-.404 1.689.164-1.727 2.68-3.023 6.735-3.283 8.803-.105 1.62-1.446 2.171-.765 3.428 1.655-5.162 3.724-9.538 4.895-11.192 2.725-4.806 3.302-17.23 3.25-22.842-.66-9.389 3.937-15.196 6.318-16.926 4.229-3.454 4.793-5.327 4.543-6.16-13.003 8.176-20.541 1.224-25.824-6.086-1.793-2.482-3.24-5.223-4.06-8.172-6.265-22.54 10.288-36.987 19.545-42.377 12.17-8.325 13.569 22.41 12.747 38.818 5.859-19.453 4.505-37.767 3.096-44.492-2.107-8.683-9.971-5.36-13.64-2.614-19.914 13.234-29.955 36.544-32.487 46.545-.664 1.758-2.214 1.932-2.906 1.8-16.196-1.465-27.194 1.278-30.668 2.832-1.714.82-2.889-.075-3.262-.625-15.715-24.079-37.889-34.346-47.011-36.47z" fill="#E17848"/><path d="M173.409 146.153c-.845 2.446-4.24 7.85-18.304 9.241 5.105 1.122 17.319.876 18.304-9.241z" fill="#151815"/><path d="M74.689 104.273c-2.369-3.897-5.652-17.204-6.998-23.371L60.719 68.09c4.416 16.523 8.093 29.421 12.796 37.495l1.174-1.312zM189.371 93.461c2.512-3.699 4.767-16.676 4.945-23.132l4.091-21.349c-1.013 30.956-5.552 42.519-7.059 44.86l-1.031-.505-.946.126z" fill="#E17848"/><path d="M158.761 155.527c-4.382 4.899-11.517 4.488-14.537 3.67l2.124-.925 2.774-1.108 1.344-2.201.388-.951 1.194 1.254 1.779.341 4.934-.08z" fill="#151815"/><path d="M142.09 118.834c-8.182-4.355-7.987 7.995-11.423 15.226l5.85 5.835 23.924-4.535.776-4.049c-1.628-2.198-5.586-9.882-5.586-9.882-2.721-4.519-6.274-4.69-8.287-2.206-2.507 2.389-3.084 1.12-5.254-.389z" fill="#FEDDC3"/><mask id="b" style="mask-type:alpha" maskUnits="userSpaceOnUse" x="56" y="24" width="143" height="133"><path d="M67.319 41.239c-19.592-5.558-7.35 28.375 1.22 46.036 1.88 3.025 1.74.539.915-1.566-3.13-6.338-4.262-18.578-4.437-23.906-.881-13.366 4.369-13.271 10.126-12.2C90.103 52.388 99.23 67.028 101.925 74c6.217 21.03-3.405 24.008-8.993 22.87l2.226 4.422c1.968 2.466-1.123 4.333-1.999 4.984-11.438 7.072-17.8-.41-19.985-4.688-1.437-1.915-1.456-.962-1.285-.247 2.443 11.207 11.889 13.174 16.306 12.757 1.311.005 2.106.779 2.339 1.166 3.05 4.191 5.792 14.157 6.781 18.616l1.585 10.448c1.16 2.927 1.37 1.839 1.346.463l-.544-6.253c-1.003-2.897.138-4.106.833-4.348 1.839-1.042 3.73 1.568 4.445 3.003 10.503 17.916 21.439 5.406 25.594-3.088.698-1.505 3.126-1.518 4.252-1.337 2.941.482 3.251 2.541 2.998 2.971-1.028 2.16-.642 3.629-.606 4.865.49 3.865 2.774 2.103 3.855.739 1.881-1.689 3.662-1.108 4.318-.607 2.102 2.288-1.026 3.39-2.853 3.655-2.937-.072-2.038.912-1.329 1.589 7.415 7.077 13.6 2.543 16.052-.983.255-.368.254-.259.448-.734.654-1.606-.928-1.652-1.94-1.538-2.317.539-3.234-.415-3.403-.96-.368-.644.074-1.454.341-1.779.781-1.08 2.236-.084 2.866.549 1.862 1.833 3.039.719 3.394-.066 1.348-3.185-.338-6.077-1.418-7.035-1.065-.86-1.19-2.346-1.051-3.071.103-.963 1.076-1.159 1.55-1.137 1.186.227 2 .793 2.258 1.048l4.162 4.486c4.242 5.239 8.883 3.547 10.674 2.045 1.301-1.226 1.135-.397.889.171-1.908 2.257-2.904 6.957-3.164 9.025-.334-.392-1.024-.537-1.327-.561.448.659.499 1.496.469 1.831-.364 5.751-12.507 7.338-18.532 7.413 7.424 2.324 13.87 1.053 16.165.126 2.578-1.473 3.755-4.267 4.022-5.48.401-5.087 2.843-9.667 4.014-11.321 2.724-4.807 3.302-17.231 3.25-22.842-.66-9.39 3.937-15.197 6.318-16.926 5.365-2.333 6.206-4.584 5.956-5.417-13.042 8.202-21.617.64-27.204-6.854-1.83-2.455-3.273-5.198-4.093-8.148-6.265-22.54 10.288-36.987 19.545-42.377 12.17-8.324 13.569 22.41 12.747 38.819 5.859-19.453 4.505-37.767 3.096-44.493-2.107-8.683-9.971-5.36-13.64-2.614-19.914 13.234-29.956 36.544-32.487 46.545-.665 1.758-2.214 1.932-2.906 1.8-16.196-1.464-27.194 1.278-30.668 2.832-1.715.82-2.889-.075-3.262-.624-15.715-24.08-37.889-34.346-47.011-36.47z" fill="#E17848"/></mask><g mask="url(#b)"><path d="M160.209 143.516c-1.235 6.442-7.501 10.654-13.997 9.409-6.496-1.245-10.761-7.475-9.527-13.916 1.235-6.442 7.501-10.654 13.997-9.409 6.496 1.245 10.761 7.475 9.527 13.916z" fill="#151815"/></g><path fill-rule="evenodd" clip-rule="evenodd" d="M149.368 149.97c-.11-.47-.225-.881-.307-1.083l.83-.339c.112.275.24.748.35 1.218.112.478.213.989.265 1.357.043.298.103.6.166.918a59.127 59.127 0 0 1 .11.571c.091.359.196.67.325.941.271.568.648.957 1.252 1.214.627.267 1.523.401 2.844.387 1.315-.015 3.01-.176 5.214-.469l.118.888c-2.213.295-3.952.462-5.323.477-1.365.015-2.407-.119-3.204-.458-.47-.2-.846-.468-1.148-.801a3.724 3.724 0 0 1-.423 1.172c-.482.856-1.355 1.641-2.796 2.356-1.439.715-3.473 1.374-6.319 1.963l-.182-.878c2.809-.581 4.759-1.221 6.102-1.888 1.342-.666 2.049-1.345 2.414-1.993.362-.642.42-1.31.349-2.025a8.84 8.84 0 0 0-.1-.699 15.727 15.727 0 0 1-.286-1.549 16.463 16.463 0 0 0-.251-1.28z" fill="#151815"/><path d="m90.44 95.525 7.29 6.272 5.245-9.243-10.03-1 3.389 4.352-5.894-.38zM169.251 74.855 160.164 78l5.349 9.182 5.91-8.165-5.466.74 3.294-4.902z" fill="#E17848"/><path d="M178.518 115.405c-1.036 5.407-6.259 8.951-11.666 7.914-5.408-1.036-8.951-6.259-7.915-11.666 1.036-5.408 6.26-8.951 11.667-7.915 5.407 1.036 8.951 6.26 7.914 11.667z" fill="#151815"/><path fill-rule="evenodd" clip-rule="evenodd" d="M179.842 115.649c-1.176 6.137-7.105 10.158-13.241 8.982-6.137-1.176-10.159-7.104-8.983-13.24 1.176-6.137 7.105-10.159 13.241-8.983 6.137 1.176 10.159 7.104 8.983 13.241zm-12.988 7.662c5.407 1.036 10.631-2.508 11.667-7.915 1.036-5.407-2.508-10.631-7.915-11.667-5.407-1.036-10.63 2.507-11.667 7.915-1.036 5.407 2.508 10.63 7.915 11.667z" fill="#fff"/><path d="M169.005 112.933a3.64 3.64 0 1 1-7.149-1.371 3.64 3.64 0 0 1 7.149 1.371z" fill="#fff"/><path d="M126.894 122.729c-1.036 5.407-6.26 8.951-11.667 7.914-5.407-1.036-8.951-6.259-7.914-11.666 1.036-5.408 6.259-8.951 11.667-7.915 5.407 1.036 8.95 6.26 7.914 11.667z" fill="#151815"/><path fill-rule="evenodd" clip-rule="evenodd" d="M128.213 122.973c-1.176 6.137-7.104 10.158-13.241 8.982-6.137-1.176-10.158-7.104-8.982-13.24 1.176-6.137 7.104-10.159 13.241-8.983 6.136 1.176 10.158 7.104 8.982 13.241zm-12.988 7.662c5.407 1.036 10.631-2.508 11.667-7.915 1.036-5.407-2.507-10.631-7.914-11.667-5.408-1.036-10.631 2.507-11.667 7.915-1.036 5.407 2.507 10.63 7.914 11.667z" fill="#fff"/><path d="M117.376 120.257a3.638 3.638 0 1 1-7.148-1.37 3.638 3.638 0 1 1 7.148 1.37z" fill="#fff"/><path d="M191.557 87.925c-1.596 5.76-6.15 7.497-8.228 7.645l-.19.989 7.168-2.11 2.04-6.372-.79-.152z" fill="#E17848"/><path d="M112.554 157.048c-11.701-7.991-12.963-11.081-13.243-12.129-1.886 4.234 15.534 15.849 24.768 22.53 2.411 4.911 6.215 6.489 8.15 7.261 9.363 5.096 17.815.48 20.871-2.465 8.715-2.361 15.34-12.419 17.563-17.153 2.118-4.51 3.335-9.532 2.924-9.48-2.799 8.786-6.113 15.484-12.779 20.665-17.072 13.269-33.332 1.58-48.254-9.229zM153.131 183.904a3.203 3.203 0 0 0 1.262-3.133l-.057-.325a3.226 3.226 0 0 0-3.735-2.611 3.219 3.219 0 0 0-2.638 2.685c-.157 1.036-.16 2.005-1.293 2.201l-8.12.87c-1.171.203-1.54-.852-1.966-1.637a3.233 3.233 0 0 0-3.395-1.639 3.211 3.211 0 0 0-2.626 3.714l.057.324a3.214 3.214 0 0 0 2.253 2.524.55.55 0 0 1 .171.973 3.2 3.2 0 0 0-1.262 3.133l.056.324a3.228 3.228 0 0 0 3.735 2.612 3.22 3.22 0 0 0 2.638-2.685c.157-1.036.159-2.005 1.293-2.202l8.12-.87c1.17-.202 1.54.852 1.966 1.637a3.234 3.234 0 0 0 3.396 1.639 3.211 3.211 0 0 0 2.625-3.713l-.057-.325a3.216 3.216 0 0 0-2.253-2.524.55.55 0 0 1-.17-.972z" fill="#974420"/><path fill-rule="evenodd" clip-rule="evenodd" d="M142.024 180.349a3.22 3.22 0 1 0 .765-6.395 3.22 3.22 0 0 0-.765 6.395zm.167-1.399a1.812 1.812 0 1 0 .432-3.598 1.812 1.812 0 0 0-.432 3.598zM143.008 187.342a3.22 3.22 0 1 0 .765-6.395 3.22 3.22 0 0 0-.765 6.395zm.167-1.398a1.813 1.813 0 1 0 .43-3.6 1.813 1.813 0 0 0-.43 3.6z" fill="#974420"/><path d="m141.702 179.661 1.747-.298.371 2.183-1.747.297-.371-2.182z" fill="#974420"/><path d="M140.587 187.483c-.033-.06-.031-.111.005-.152a.394.394 0 0 1 .179-.107c.085-.03.187-.054.307-.071.121-.019.249-.036.385-.049.06-.164.114-.33.163-.498.05-.17.095-.335.135-.495.042-.16.081-.312.115-.456.034-.146.065-.275.094-.389a.4.4 0 0 0 .022-.106c.002-.03-.005-.053-.022-.068-.015-.015-.041-.023-.079-.025a.692.692 0 0 0-.149.017 3.054 3.054 0 0 0-.474.137c-.16.06-.314.127-.463.204a3.446 3.446 0 0 0-.413.248 2.22 2.22 0 0 0-.323.272.984.984 0 0 0-.195.266.3.3 0 0 0 .11.403c.07.041.153.071.249.092.095.02.199.03.31.033a3.247 3.247 0 0 0 .601-.048c.086-.017.151-.035.196-.053a.204.204 0 0 1-.069.112.533.533 0 0 1-.236.096l-.1.012c-.121.008-.25.008-.387.001a2.249 2.249 0 0 1-.395-.06 1.318 1.318 0 0 1-.326-.126.433.433 0 0 1-.189-.208.475.475 0 0 1 .004-.346c.046-.121.122-.24.229-.357.107-.116.237-.227.39-.332.153-.107.314-.203.484-.287.17-.087.342-.158.516-.215.173-.057.334-.094.482-.11a.66.66 0 0 1 .197.008.67.67 0 0 1 .208.072.542.542 0 0 1 .153.118c.043.044.077.09.103.14a1.153 1.153 0 0 1 .105.308c.017.088.028.185.033.293a7.622 7.622 0 0 1-.006.725l-.009.393-.004.141a2 2 0 0 0 .195-.036.307.307 0 0 0 .118-.05c.022.093.003.165-.057.214a.57.57 0 0 1-.255.105 2.745 2.745 0 0 0 .102.734c.033.111.073.209.12.295a.564.564 0 0 0 .174.197.484.484 0 0 1-.251-.003.655.655 0 0 1-.213-.102.792.792 0 0 1-.168-.169 1.156 1.156 0 0 1-.12-.197.534.534 0 0 1-.043-.13 3.026 3.026 0 0 1-.044-.587 4.92 4.92 0 0 1-.356.006 5.366 5.366 0 0 1-.235.526 2.602 2.602 0 0 1-.291.442c-.105.13-.223.237-.354.321a1.028 1.028 0 0 1-.429.16 1.61 1.61 0 0 1-.381.006 1.389 1.389 0 0 1-.375-.09 1.092 1.092 0 0 1-.319-.185.746.746 0 0 1-.212-.291.313.313 0 0 1-.026-.129.222.222 0 0 1 .026-.115.163.163 0 0 1 .09-.074.275.275 0 0 1 .157-.01.55.55 0 0 0 .006.182.64.64 0 0 0 .216.346.777.777 0 0 0 .208.128.935.935 0 0 0 .507.061.782.782 0 0 0 .33-.138c.104-.073.2-.166.289-.279.09-.115.172-.245.248-.39.075-.147.145-.302.209-.466a4.01 4.01 0 0 0-.254.014 2.31 2.31 0 0 0-.227.031c-.07.014-.132.032-.188.055a.396.396 0 0 0-.133.085zm1.648-1.882a11.02 11.02 0 0 0-.094.339 15.099 15.099 0 0 1-.211.75 7.243 7.243 0 0 1-.125.387 3.113 3.113 0 0 0 .279-.02l.012-.139c.007-.09.016-.191.028-.3l.038-.344.042-.35c.013-.115.023-.223.031-.323zM143.712 187.676a1.3 1.3 0 0 1-.021-.135 6.816 6.816 0 0 1-.016-.172l-.009-.178-.007-.159.001-.096-.001-.084c-.001-.037-.004-.061-.011-.072-.005-.012-.012-.016-.021-.011a.088.088 0 0 0-.03.031.33.33 0 0 0-.026.045 2.424 2.424 0 0 0-.126.326 1.814 1.814 0 0 0-.058.259 1.28 1.28 0 0 0-.011.284c.008.07.018.129.029.176.012.048.027.08.044.099a.358.358 0 0 1-.266-.096.347.347 0 0 1-.078-.118.426.426 0 0 1-.03-.145 12.993 12.993 0 0 1-.038-.764l-.012-.352c-.005-.117-.01-.231-.013-.341l-.01-.293-.007-.216a3.26 3.26 0 0 0-.012-.181.203.203 0 0 0-.024-.061c0-.002.017.007.051.028a1.838 1.838 0 0 1 .258.173.37.37 0 0 1 .089.091.365.365 0 0 1 .039.22.704.704 0 0 0-.023.151 9.255 9.255 0 0 0-.027.704c-.003.144-.002.285.002.423l.004-.02c.016-.054.029-.102.039-.144.013-.043.022-.081.03-.116l.02-.092c.008-.027.018-.053.028-.079a.6.6 0 0 1 .068-.139.166.166 0 0 1 .088-.069c.022-.006.052-.002.092.012a.492.492 0 0 1 .119.06.48.48 0 0 1 .108.094.225.225 0 0 1 .059.117c.009.051.012.11.008.176-.004.064-.01.132-.016.204-.008.07-.015.141-.021.215a1.268 1.268 0 0 0-.002.213c.002.032.007.05.015.055.01.004.02.002.03-.006a.4.4 0 0 0 .03-.037 1.157 1.157 0 0 0 .081-.225c.022-.076.044-.15.068-.224l.094-.341a.237.237 0 0 0 .011.049c.006.02.01.045.014.077a.801.801 0 0 1-.016.257l-.009.02-.022.104a5.472 5.472 0 0 0-.043.173.899.899 0 0 1-.12.3.19.19 0 0 1-.091.066.154.154 0 0 1-.079-.003.383.383 0 0 1-.177-.12.258.258 0 0 1-.046-.113z" fill="#fff"/><path d="M144.328 187.599c-.006-.05-.011-.107-.017-.172l-.019-.197-.017-.2a5.983 5.983 0 0 1-.017-.183 2.003 2.003 0 0 1-.013-.139 1.938 1.938 0 0 1-.009-.078l-.009-.083a.208.208 0 0 0-.024-.062 1.846 1.846 0 0 1 .283.173.276.276 0 0 1 .119.178.457.457 0 0 1 .003.131l-.005.079-.008.183-.01.206a1.623 1.623 0 0 0-.004.141c.002.032.006.05.014.055.01.002.02-.001.03-.009a.131.131 0 0 0 .03-.035.272.272 0 0 0 .019-.035c.022-.051.043-.115.063-.19.021-.075.044-.15.067-.223l.094-.342a.305.305 0 0 0 .011.049.774.774 0 0 1-.002.334l-.009.021-.022.104a8.952 8.952 0 0 0-.042.173 1.018 1.018 0 0 1-.049.162.518.518 0 0 1-.072.137.188.188 0 0 1-.091.067.154.154 0 0 1-.079-.003.36.36 0 0 1-.089-.046.356.356 0 0 1-.08-.084.243.243 0 0 1-.046-.112zm.923.168a.239.239 0 0 1-.19-.071.389.389 0 0 1-.063-.08.238.238 0 0 1-.029-.089 4.362 4.362 0 0 1-.022-.171l-.023-.2a11.87 11.87 0 0 1-.034-.38c-.004-.056-.009-.102-.013-.139a.96.96 0 0 0-.006-.078l-.009-.083a.138.138 0 0 0-.024-.062 1.077 1.077 0 0 1 .144.085c.039.025.077.054.114.085.037.03.064.058.08.084a.364.364 0 0 1 .05.221l-.002.082-.002.185-.005.206.002.143.008.069c.004.02.014.028.031.024a.256.256 0 0 0 .133-.09.808.808 0 0 0 .108-.189.669.669 0 0 1-.172-.256 1.15 1.15 0 0 1-.047-.166 1.154 1.154 0 0 1-.017-.177.658.658 0 0 1 .011-.128.64.64 0 0 1 .042-.128.302.302 0 0 1 .078-.098.194.194 0 0 1 .116-.047.337.337 0 0 1 .183.055c.03.017.057.04.081.067a.319.319 0 0 1 .06.083.905.905 0 0 1 .031.58 1.08 1.08 0 0 1-.069.19.197.197 0 0 0 .065-.021.229.229 0 0 0 .078-.082 1.04 1.04 0 0 0 .091-.195 3.86 3.86 0 0 0 .102-.363.485.485 0 0 0 .011.05.477.477 0 0 1 .016.189.803.803 0 0 1-.02.145l-.006.02a.858.858 0 0 1-.118.255.305.305 0 0 1-.205.127.35.35 0 0 1-.081.003.89.89 0 0 1-.214.24.48.48 0 0 1-.264.105zm.223-.922a.813.813 0 0 0 .082.31c.018-.06.031-.121.041-.184.012-.063.019-.123.022-.182a.977.977 0 0 0-.005-.165.397.397 0 0 0-.028-.131c-.024-.059-.045-.088-.063-.086-.017.002-.03.023-.041.064a.792.792 0 0 0-.018.162 1.41 1.41 0 0 0 .01.212z" fill="#fff"/><path d="M146.655 187.055a.993.993 0 0 1-.046.218 1.655 1.655 0 0 1-.113.273.414.414 0 0 1-.068.092c-.024.021-.046.029-.068.022a.98.98 0 0 1-.162-.066.197.197 0 0 1-.099-.112 1.024 1.024 0 0 1-.046-.304 1.775 1.775 0 0 1 .063-.545.778.778 0 0 1 .062-.173.492.492 0 0 1 .107-.144c.045-.04.1-.064.166-.072a.397.397 0 0 1 .23.047.34.34 0 0 1 .145.136.14.14 0 0 1 .018.065c.001.02-.009.032-.029.034-.025.003-.043-.003-.056-.016l-.036-.047a.195.195 0 0 0-.041-.045c-.017-.015-.042-.021-.075-.017-.034.004-.062.024-.086.06a.632.632 0 0 0-.059.13 1.282 1.282 0 0 0-.042.15l-.022.126-.008.057c-.005.036-.011.079-.016.128l-.017.151a1.029 1.029 0 0 0-.009.119c-.002.022.004.037.016.043.013.004.028-.002.045-.019a.942.942 0 0 0 .093-.179l.046-.134a1.6 1.6 0 0 0 .044-.134 1.719 1.719 0 0 0 .052-.216l.002-.177a.722.722 0 0 1 .138.071.88.88 0 0 1 .109.075.336.336 0 0 1 .08.081.116.116 0 0 1 .012.083l-.014.127-.004.043a7.976 7.976 0 0 0-.006.219c.001.041.003.076.006.103.005.033.013.052.023.057.01.004.019.002.027-.006a.294.294 0 0 0 .043-.075c.022-.051.043-.114.063-.189a7.32 7.32 0 0 1 .067-.224l.094-.341a.33.33 0 0 0 .011.049c.006.02.011.045.014.077.004.031.005.068.004.111a.722.722 0 0 1-.02.146l-.009.02-.022.104-.042.173a.987.987 0 0 1-.121.302.14.14 0 0 1-.091.064.185.185 0 0 1-.082-.011.296.296 0 0 1-.082-.052.405.405 0 0 1-.123-.194.53.53 0 0 1-.022-.073l-.02-.079-.014-.069a.414.414 0 0 0-.01-.043z" fill="#fff"/><defs><linearGradient id="a" x1="96" y1="25" x2="96" y2="217" gradientUnits="userSpaceOnUse"><stop stop-color="#EA7A8F"/><stop offset="1" stop-color="#E452C8"/></linearGradient></defs></svg>