<svg width="22" height="22" viewBox="0 0 22 22" fill="none" xmlns="http://www.w3.org/2000/svg">
<mask id="mask0_1299_6529" style="mask-type:alpha" maskUnits="userSpaceOnUse" x="0" y="0" width="22" height="22">
<rect width="22" height="22" fill="#C4C4C4"/>
</mask>
<g mask="url(#mask0_1299_6529)">
<path fill-rule="evenodd" clip-rule="evenodd" d="M7.50555 9.56338L11.0016 6.06887L14.4991 9.56623L16.5321 7.53179L11.0016 2L5.47105 7.53037L7.50555 9.56338ZM2 11.0003L4.03376 8.96662L6.06751 11.0003L4.03376 13.034L2 11.0003ZM11.0019 15.9326L7.50588 12.4366L5.46854 14.4682L5.47138 14.4711L11.0019 20L16.5325 14.4682L16.5339 14.4668L14.4994 12.4352L11.0019 15.9326ZM15.9325 11.0008L17.9663 8.96709L20.0001 11.0008L17.9663 13.0345L15.9325 11.0008ZM11.0016 8.93496L13.0645 10.9993H13.066L13.0645 11.0007L11.0016 13.065L8.93867 11.0035L8.93583 10.9993L8.93867 10.9964L9.29979 10.6353L9.47608 10.4604L11.0016 8.93496Z" fill="white"/>
</g>
</svg>
