<svg width="85" height="86" viewBox="0 0 85 86" fill="none" xmlns="http://www.w3.org/2000/svg">
<path d="M42.5 85.6107C65.9721 85.6107 85 66.5091 85 42.946C85 19.3829 65.9721 0.28125 42.5 0.28125C19.0279 0.28125 0 19.3829 0 42.946C0 66.5091 19.0279 85.6107 42.5 85.6107Z" fill="white"/>
<g filter="url(#filter0_i_1413_6827)">
<path d="M42.5528 79.2095C62.4735 79.2095 78.6223 62.9981 78.6223 43.0003C78.6223 23.0025 62.4735 6.79102 42.5528 6.79102C22.6322 6.79102 6.4834 23.0025 6.4834 43.0003C6.4834 62.9981 22.6322 79.2095 42.5528 79.2095Z" fill="#36287D"/>
</g>
<path d="M12.7482 46.2594C12.7482 28.6063 27.0028 14.2965 44.5877 14.2965C54.8667 14.2965 64.0052 19.1864 69.8267 26.7747C64.3291 17.1923 54.0247 10.7422 42.2184 10.7422C24.6335 10.7422 10.3789 25.052 10.3789 42.7051C10.3789 50.0394 12.8419 56.7959 16.9795 62.1898C14.2889 57.5 12.7482 52.0591 12.7482 46.2594Z" fill="#271D5A"/>
<g filter="url(#filter1_d_1413_6827)">
<path d="M24.1128 43.379C24.1128 39.6187 24.9232 36.2742 26.5439 33.3455C28.1647 30.3807 30.4158 28.0847 33.2971 26.4577C36.2145 24.7945 39.51 23.9629 43.1838 23.9629C47.6859 23.9629 51.5397 25.1561 54.7452 27.5424C57.9507 29.9287 60.0937 33.1828 61.1742 37.3047H51.0175C50.2611 35.7138 49.1806 34.5025 47.7759 33.6709C46.4073 32.8393 44.8406 32.4235 43.0757 32.4235C40.2304 32.4235 37.9253 33.4178 36.1605 35.4064C34.3956 37.3951 33.5132 40.0526 33.5132 43.379C33.5132 46.7054 34.3956 49.3629 36.1605 51.3515C37.9253 53.3401 40.2304 54.3344 43.0757 54.3344C44.8406 54.3344 46.4073 53.9186 47.7759 53.087C49.1806 52.2554 50.2611 51.0442 51.0175 49.4533H61.1742C60.0937 53.5751 57.9507 56.8292 54.7452 59.2155C51.5397 61.5657 47.6859 62.7408 43.1838 62.7408C39.51 62.7408 36.2145 61.9273 33.2971 60.3002C30.4158 58.637 28.1647 56.3411 26.5439 53.4124C24.9232 50.4837 24.1128 47.1392 24.1128 43.379Z" fill="white"/>
</g>
<defs>
<filter id="filter0_i_1413_6827" x="6.4834" y="6.79102" width="72.1387" height="74.418" filterUnits="userSpaceOnUse" color-interpolation-filters="sRGB">
<feFlood flood-opacity="0" result="BackgroundImageFix"/>
<feBlend mode="normal" in="SourceGraphic" in2="BackgroundImageFix" result="shape"/>
<feColorMatrix in="SourceAlpha" type="matrix" values="0 0 0 0 0 0 0 0 0 0 0 0 0 0 0 0 0 0 127 0" result="hardAlpha"/>
<feOffset dy="2"/>
<feGaussianBlur stdDeviation="2"/>
<feComposite in2="hardAlpha" operator="arithmetic" k2="-1" k3="1"/>
<feColorMatrix type="matrix" values="0 0 0 0 0 0 0 0 0 0 0 0 0 0 0 0 0 0 0.2 0"/>
<feBlend mode="normal" in2="shape" result="effect1_innerShadow_1413_6827"/>
</filter>
<filter id="filter1_d_1413_6827" x="22.1128" y="21.9629" width="45.0615" height="46.7773" filterUnits="userSpaceOnUse" color-interpolation-filters="sRGB">
<feFlood flood-opacity="0" result="BackgroundImageFix"/>
<feColorMatrix in="SourceAlpha" type="matrix" values="0 0 0 0 0 0 0 0 0 0 0 0 0 0 0 0 0 0 127 0" result="hardAlpha"/>
<feOffset dx="2" dy="2"/>
<feGaussianBlur stdDeviation="2"/>
<feComposite in2="hardAlpha" operator="out"/>
<feColorMatrix type="matrix" values="0 0 0 0 0 0 0 0 0 0 0 0 0 0 0 0 0 0 0.15 0"/>
<feBlend mode="normal" in2="BackgroundImageFix" result="effect1_dropShadow_1413_6827"/>
<feBlend mode="normal" in="SourceGraphic" in2="effect1_dropShadow_1413_6827" result="shape"/>
</filter>
</defs>
</svg>
