<svg width="33" height="38" fill="none" xmlns="http://www.w3.org/2000/svg"><path d="M32.674 10.539c-3.713 1.383-7.88 5.557-9.254 9.27a.501.501 0 0 1-.939 0c-1.38-3.719-5.547-7.894-9.253-9.27a.503.503 0 0 1 0-.941C16.94 8.215 21.108 4.04 22.48.327a.501.501 0 0 1 .94 0c1.38 3.72 5.546 7.894 9.253 9.27a.503.503 0 0 1 0 .942zM12.135 18.664c-2.275.845-4.83 3.407-5.68 5.692-.097.263-.48.263-.576 0-.843-2.279-3.4-4.84-5.681-5.692-.262-.096-.262-.48 0-.576 2.275-.845 4.831-3.406 5.681-5.692.096-.262.48-.262.575 0 .844 2.28 3.4 4.84 5.681 5.692.262.096.262.48 0 .576zM26.986 30.893c-2.748 1.024-5.834 4.117-6.857 6.87-.12.32-.581.32-.696 0-1.023-2.753-4.11-5.845-6.857-6.87-.32-.122-.32-.583 0-.698 2.748-1.024 5.834-4.117 6.857-6.87.121-.32.582-.32.697 0 1.022 2.753 4.108 5.846 6.856 6.87.32.115.32.576 0 .698z" fill="#F6DC24"/></svg>