<svg width="312" height="92" viewBox="0 0 312 92" fill="none" xmlns="http://www.w3.org/2000/svg">
<mask id="mask0_3128_7937" style="mask-type:alpha" maskUnits="userSpaceOnUse" x="0" y="0" width="312" height="92">
<rect width="311.773" height="91.0146" fill="#C4C4C4"/>
</mask>
<g mask="url(#mask0_3128_7937)">
<path fill-rule="evenodd" clip-rule="evenodd" d="M84.9793 21.9252C84.1694 21.8691 83.3567 21.9051 82.5527 22.0327L73.1252 23.5293L63.7753 22.8706L63.0825 24.0185L61.0778 28.8575L56.3366 18.8759L58.3974 15.4612C59.276 14.0053 60.7299 13.1855 62.244 13.2922L72.8258 14.0376L81.4799 12.6638C82.7957 12.4549 84.1254 12.396 85.4508 12.4878L96.8035 13.2742C97.3881 13.3147 97.9591 13.4985 98.4799 13.8139L101.617 15.7137C103.939 17.1198 104.37 20.2955 103.408 22.4404C102.06 25.4458 101.54 26.9276 101.214 27.9209C101.162 28.0801 101.111 28.2409 101.058 28.405L101.057 28.408C100.768 29.3143 100.445 30.3242 99.7742 31.726C98.3965 34.6043 95.2804 39.7195 85.8721 54.7285L74.7513 79.5859C74.0469 81.1602 72.66 82.1457 71.1488 82.1457L59.3951 82.1457C57.6778 82.1457 56.1044 81.0165 55.3174 79.2194L52.2327 72.1752L52.1597 71.9585C48.2275 60.2826 43.8151 54.5683 43.0082 53.5235L42.9728 53.4776C41.681 51.8016 41.5833 49.4457 42.4457 47.6831L47.43 37.4955L51.9944 47.1049L50.7422 49.6643C52.8868 52.878 56.3801 58.9121 59.549 68.2544L61.4923 72.692L68.7608 72.692L79.0518 49.6895L79.2322 49.4018C88.9791 33.8546 91.7048 29.3302 92.7797 27.0844C93.1343 26.3437 93.2484 25.9894 93.5111 25.1737C93.5725 24.9831 93.642 24.7672 93.7246 24.5154C93.9056 23.9635 94.1195 23.3401 94.4063 22.5782L84.9793 21.9252Z" fill="white"/>
<path fill-rule="evenodd" clip-rule="evenodd" d="M81.3503 11.8471C82.7276 11.6284 84.12 11.5667 85.5079 11.6628L96.8606 12.4492C97.5818 12.4992 98.2794 12.7257 98.9083 13.1065L102.045 15.0063C104.823 16.6881 105.244 20.3676 104.163 22.7787C102.826 25.7603 102.316 27.2152 102 28.1786C101.949 28.334 101.899 28.4915 101.846 28.6559C101.846 28.6558 101.846 28.6559 101.846 28.6559C101.846 28.6561 101.846 28.6565 101.846 28.6568L101.845 28.6588L101.844 28.6627C101.552 29.5767 101.216 30.6299 100.52 32.0831C99.1179 35.0125 95.9717 40.1733 86.6034 55.1188L75.5061 79.9236C74.6923 81.7427 73.0404 82.9727 71.1488 82.9727L59.3951 82.9727C57.2941 82.9727 55.4549 81.5949 54.5599 79.5511L51.4606 72.4736L51.376 72.2224C47.488 60.6778 43.1372 55.0434 42.3585 54.035L42.3182 53.9829L42.3179 53.9824C40.8151 52.0327 40.7164 49.3359 41.7029 47.3197L47.4411 35.5913L52.9124 47.1102L51.6928 49.603C53.8847 52.9531 57.255 58.927 60.3207 67.9551L62.0329 71.8651L68.2248 71.8651L78.3205 49.2992L78.5316 48.9625C88.2953 33.3884 90.985 28.9186 92.0338 26.7274C92.3636 26.0384 92.4641 25.727 92.724 24.9202C92.7854 24.7296 92.8555 24.5119 92.9389 24.2577C93.0332 23.97 93.1365 23.6628 93.254 23.3273L84.9222 22.7501C84.1748 22.6984 83.4248 22.7316 82.6823 22.8495L73.1615 24.3609L64.2218 23.7311L63.8227 24.3925L61.1294 30.8936L55.3989 18.8292L57.6894 15.0339C58.7046 13.3516 60.4347 12.3357 62.3021 12.4672L72.7896 13.2061L81.3503 11.8471ZM85.3937 13.3128C84.1309 13.2253 82.8637 13.2814 81.6096 13.4805L72.8621 14.8692L62.1859 14.1171C61.025 14.0353 59.8474 14.659 59.1054 15.8884L57.2743 18.9226L61.0262 26.8215L62.3424 23.6445L63.3287 22.0102L73.089 22.6978L82.423 21.216C83.2887 21.0786 84.164 21.0398 85.0364 21.1002L95.5716 21.83L95.1803 22.8695C94.8984 23.6183 94.6884 24.2303 94.5104 24.7731C94.4286 25.0226 94.3597 25.2365 94.2982 25.4272L94.2969 25.4314C94.0322 26.2531 93.9043 26.6503 93.5257 27.4414C92.4246 29.7418 89.6628 34.3208 79.9329 49.841L79.7831 50.0799L69.2968 73.519L60.9516 73.519L58.7772 68.5536L58.7659 68.52C55.6221 59.2518 52.1624 53.2822 50.0543 50.1233L49.7904 49.7279L51.0764 47.0996L47.419 39.3997L43.1885 48.0465C42.4503 49.5554 42.5469 51.5704 43.6278 52.9727L43.6628 53.0181C44.5109 54.1164 48.9749 59.9111 52.9434 71.6946L53.0048 71.8768L56.0749 78.8876C56.7538 80.4381 58.0616 81.3188 59.3951 81.3188L71.1488 81.3188C72.2797 81.3188 73.4016 80.5778 73.9964 79.2482L85.1408 54.3381L85.1715 54.2893C94.5959 39.2545 97.6766 34.1929 99.0283 31.369C99.6738 30.0203 99.9827 29.0546 100.27 28.1568C100.27 28.1567 100.27 28.1565 100.27 28.1563L100.27 28.1542L100.271 28.1533L100.271 28.1512C100.323 27.9883 100.376 27.8251 100.429 27.6632C100.764 26.6399 101.295 25.1312 102.653 22.102C103.496 20.2234 103.056 17.5516 101.189 16.421L98.0516 14.5212C97.6388 14.2713 97.1945 14.1302 96.7463 14.0991L85.3937 13.3128Z" fill="white"/>
<path fill-rule="evenodd" clip-rule="evenodd" d="M22.4863 21.9267C22.9359 21.8675 23.39 21.8712 23.8389 21.9377L32.7032 23.2524C34.352 23.497 36.0165 23.5612 37.6754 23.4444L44.2311 22.9827L58.5002 52.5005L57.7058 54.5656L62.3089 65.481L66.6068 54.3076C67.1615 52.8657 67.0961 51.1984 66.4311 49.8227L50.0835 16.005C49.2562 14.2936 47.6748 13.2842 46.0051 13.4018L37.1965 14.0222C36.0318 14.1042 34.8631 14.0591 33.7054 13.8874L24.8411 12.5727C23.7637 12.413 22.674 12.404 21.5948 12.5462L9.14981 14.1853C8.36083 14.2892 7.61304 14.6542 6.9931 15.2381L4.34065 17.7361C2.40517 19.559 2.197 23.0098 4.01672 25.1191L4.05271 25.1608C7.02675 28.6077 11.4656 33.7525 21.2937 62.0223L21.4137 62.3674L30.438 79.8452C31.1954 81.3121 32.562 82.1893 34.0198 82.1441L43.3714 81.8542C45.0958 81.8008 46.6485 80.6116 47.389 78.7775L49.3149 74.0067L44.7794 63.2514L41.0523 72.4838L36.0994 72.6373L28.5939 58.1012C21.3811 37.399 16.812 28.335 13.3107 23.1352L22.4863 21.9267Z" fill="white"/>
<path fill-rule="evenodd" clip-rule="evenodd" d="M24.7198 13.3907C23.7183 13.2422 22.7058 13.2339 21.7028 13.366L9.25779 15.0052C8.65322 15.0848 8.06303 15.3664 7.56006 15.8401L4.9076 18.3381C3.29739 19.8546 3.10963 22.8017 4.64285 24.5789L4.67883 24.6206C7.75109 28.1814 12.2318 33.4381 22.0748 61.7508L22.1754 62.0403L31.1728 79.4658C31.8081 80.6962 32.9041 81.3513 33.9942 81.3175L43.3457 81.0277C44.6859 80.9861 45.9818 80.0542 46.6221 78.468L48.4203 74.0136L44.796 65.4191L41.6172 73.2936L35.6038 73.48L27.8323 58.4286L27.813 58.3733C20.6065 37.6892 16.0652 28.7066 12.6247 23.5971L11.879 22.4897L22.3783 21.1068C22.9042 21.0375 23.4354 21.0419 23.9602 21.1197L32.8245 22.4344C34.4141 22.6702 36.0184 22.7321 37.6173 22.6195L44.7318 22.1184L59.4006 52.4631L58.5973 54.5514L62.2737 63.2693L65.835 54.0107C66.3086 52.7795 66.2509 51.3499 65.6866 50.1826L49.3389 16.3649C48.6332 14.9049 47.3401 14.1368 46.0632 14.2267L37.2546 14.8471C36.0299 14.9334 34.801 14.8859 33.5841 14.7054L24.7198 13.3907ZM21.4868 11.7263C22.6422 11.5741 23.8091 11.5837 24.9625 11.7547L33.8268 13.0694C34.9252 13.2323 36.0337 13.2751 37.1384 13.1973L45.947 12.5769C48.0094 12.4316 49.8792 13.6823 50.828 15.6451L67.1756 49.4628C67.9414 51.0468 68.0143 52.952 67.3786 54.6045L62.3441 67.6928L56.8143 54.5798L57.5998 52.5379L43.7304 23.8469L37.7335 24.2693C36.0146 24.3904 34.2899 24.3238 32.5819 24.0704L23.7176 22.7558C23.3446 22.7004 22.9677 22.6974 22.5943 22.7465L14.7222 23.7834C18.1791 29.2272 22.6278 38.4705 29.3555 57.7738L36.5949 71.7946L40.4874 71.674L44.7627 61.0836L50.2095 73.9998L48.1558 79.0871C47.3153 81.1691 45.5056 82.6154 43.397 82.6808L34.0454 82.9706C32.22 83.0272 30.5828 81.9279 29.7033 80.2246L20.6519 62.6946L20.5126 62.2939C10.736 34.1722 6.33527 29.072 3.45883 25.7383L3.3906 25.6593C1.28439 23.2179 1.51296 19.2633 3.77369 17.1341L6.42615 14.6361C7.16304 13.9421 8.06845 13.4936 9.04182 13.3654L21.4868 11.7263Z" fill="white"/>
<path d="M108.14 25.1117C108.14 23.6941 108.888 22.4733 110.385 21.4495C111.881 20.4257 113.22 19.9137 114.401 19.9137C116.528 19.9137 117.591 21.1345 117.591 23.5759C117.591 26.0174 116.961 28.1438 115.701 29.9552C114.441 31.6879 112.669 32.5542 110.385 32.5542C108.888 32.5542 108.14 30.0734 108.14 25.1117ZM111.566 83.4706C108.494 83.4706 106.171 82.8405 104.596 81.5804C104.045 81.0291 103.769 79.0602 103.769 75.6736C103.769 72.2871 104.005 66.656 104.478 58.7803C105.029 50.8258 105.502 46.5336 105.895 45.9035C106.289 45.2735 107.51 44.0921 109.558 42.3595C111.605 40.6268 113.18 39.7605 114.283 39.7605C115.464 39.7605 116.055 41.2569 116.055 44.2496C116.055 45.0372 115.819 46.573 115.346 48.8569C114.953 51.1409 114.48 52.7948 113.929 53.8186C112.905 56.4176 112.393 63.23 112.393 74.256C112.393 76.3825 112.629 77.4457 113.102 77.4457C114.441 77.3669 116.291 75.713 118.654 72.484C121.017 69.1762 123.34 64.9627 125.624 59.8435C127.987 54.7243 129.404 52.1647 129.877 52.1647C130.428 52.1647 130.704 52.4797 130.704 53.1098C130.704 55.315 129.562 58.8197 127.278 63.6238C121.056 76.855 115.819 83.4706 111.566 83.4706Z" fill="white"/>
<path d="M133.634 76.5006L133.752 80.1628C133.752 82.368 133.122 83.4706 131.862 83.4706C129.972 83.4706 128.161 83.2343 126.428 82.7618C124.695 82.2105 123.829 81.5017 123.829 80.6353C123.829 79.6902 124.026 76.5793 124.42 71.3026C124.892 65.9472 125.128 61.9306 125.128 59.2528V52.2828C125.128 48.5025 125.522 46.2186 126.31 45.431C127.097 44.6434 128.476 43.5014 130.445 42.0051C132.492 40.5087 133.949 39.7605 134.816 39.7605C135.761 39.7605 136.351 39.918 136.588 40.233C136.824 40.548 136.942 41.1387 136.942 42.0051C136.942 46.1792 136.154 50.117 134.579 53.8186C134.186 58.3077 133.989 61.4186 133.989 63.1513C134.304 62.6788 135.958 60.001 138.95 55.1181C141.943 50.2352 144.463 46.6517 146.511 44.3678C148.637 42.0838 150.528 40.9418 152.181 40.9418C153.835 40.9418 155.292 41.4931 156.552 42.5957C157.891 43.6983 158.561 45.0766 158.561 46.7305C158.561 50.1958 158.167 55.315 157.379 62.0881C156.671 68.7824 156.316 73.0353 156.316 74.8467C156.316 76.5793 156.552 77.4457 157.025 77.4457C158.364 77.3669 160.215 75.713 162.577 72.484C164.94 69.1762 167.263 64.9627 169.547 59.8435C171.91 54.7243 173.328 52.1647 173.8 52.1647C174.352 52.1647 174.627 52.4797 174.627 53.1098C174.627 55.315 173.485 58.8197 171.201 63.6238C164.979 76.855 159.742 83.4706 155.489 83.4706C152.418 83.4706 150.094 82.8405 148.519 81.5804C147.968 81.0291 147.692 79.6115 147.692 77.3275C147.692 74.9648 147.889 71.1845 148.283 65.9865C148.756 60.7098 148.992 56.772 148.992 54.173C148.992 51.574 148.519 50.2745 147.574 50.2745C146.708 50.2745 144.345 52.9916 140.486 58.4259C136.627 63.7813 134.579 67.2073 134.343 68.7037C133.87 71.4602 133.634 74.0591 133.634 76.5006Z" fill="white"/>
<path d="M185.743 46.7305L185.979 44.9584C185.979 43.5408 185.152 42.832 183.498 42.832C181.923 42.832 180.388 43.8952 178.891 46.0217C177.395 48.0693 176.647 49.7626 176.647 51.1015C176.647 52.4404 176.725 53.5036 176.883 54.2911C177.04 55.0787 177.198 55.7481 177.355 56.2994C177.592 56.772 177.946 57.3627 178.419 58.0715C178.891 58.7803 179.246 59.2922 179.482 59.6072L180.781 61.2611C181.333 62.0487 181.726 62.5606 181.963 62.7969C186.058 59.4103 190.941 55.63 196.611 51.4559C196.927 51.2196 197.281 51.1015 197.675 51.1015C198.462 51.1015 198.856 51.5346 198.856 52.401C198.856 53.2673 198.502 53.9367 197.793 54.4093C192.752 57.6383 187.988 61.143 183.498 64.9233C185.231 67.4435 186.097 70.2 186.097 73.1928C186.097 76.1856 184.955 78.7452 182.671 80.8716C180.388 82.998 177.474 84.0613 173.929 84.0613C170.385 84.0613 168.613 82.368 168.613 78.9814C168.613 76.54 171.212 72.799 176.41 67.7586C176.017 67.286 175.308 66.5378 174.284 65.514C173.26 64.4114 172.472 63.5451 171.921 62.915C171.449 62.285 170.858 61.458 170.149 60.4342C168.889 58.4653 168.259 56.3388 168.259 54.0549C168.259 49.4082 169.755 45.6673 172.748 42.832C175.741 39.918 178.931 38.461 182.317 38.461C184.444 38.461 186.097 39.0517 187.279 40.233C188.46 41.3356 189.051 42.4776 189.051 43.6589C189.051 46.3367 188.421 47.6756 187.161 47.6756C186.216 47.6756 185.743 47.3605 185.743 46.7305ZM178.182 70.0031C175.032 73.1534 173.457 75.713 173.457 77.6819C173.457 79.5721 174.441 80.5172 176.41 80.5172C177.592 80.5172 178.576 80.0447 179.364 79.0996C181.096 76.7369 180.703 73.7047 178.182 70.0031Z" fill="white"/>
<path d="M219.294 63.6238C213.073 76.855 207.796 83.4706 203.464 83.4706C199.211 83.4706 196.691 82.9587 195.904 81.9348C195.195 80.911 194.84 77.5244 194.84 71.7752C194.84 66.0259 195.392 57.7171 196.494 46.8486C192.556 46.061 190.469 44.4465 190.233 42.0051C190.233 40.7449 191.06 40.1149 192.714 40.1149C194.368 40.1149 195.825 40.4299 197.085 41.06C197.794 35.3895 198.621 29.6402 199.566 23.8122C199.802 22.3158 200.55 20.8982 201.81 19.5593C203.07 18.2205 204.291 17.551 205.473 17.551C206.496 17.551 207.008 19.1655 207.008 22.3946C207.008 23.891 206.457 30.7822 205.354 43.0683C207.481 42.6745 209.804 41.8869 212.324 40.7056C214.923 39.5242 216.459 38.9335 216.932 38.9335C218.349 38.9335 219.058 39.3667 219.058 40.233C219.137 41.0206 217.68 42.1232 214.687 43.5408C211.694 44.8797 208.465 45.9035 205 46.6123C204.055 58.1108 203.582 66.8135 203.582 72.7203C203.582 75.8705 204.055 77.4457 205 77.4457C206.418 77.3669 208.308 75.713 210.671 72.484C213.033 69.255 215.357 65.0808 217.641 59.9616C220.003 54.7637 221.421 52.1647 221.893 52.1647C222.445 52.1647 222.72 52.4797 222.72 53.1098C222.72 55.315 221.578 58.8197 219.294 63.6238Z" fill="white"/>
<path d="M253.574 57.2445C256.724 56.2207 258.89 55.3544 260.071 54.6455C261.332 53.858 262.277 53.2673 262.907 52.8735L264.324 52.0466C264.718 51.8103 265.033 51.6922 265.269 51.6922C265.899 51.6922 266.214 52.0466 266.214 52.7554C266.214 53.4642 264.994 54.7243 262.552 56.5357C260.111 58.2684 257.079 59.8435 253.456 61.2611C252.905 67.8767 250.817 73.2322 247.195 77.3275C243.572 81.4229 238.413 83.4706 231.719 83.4706C226.836 83.4706 223.095 81.541 220.496 77.6819C217.897 73.7441 216.598 69.1762 216.598 63.9782C216.598 58.7015 218.133 53.7398 221.205 49.0932C224.355 44.4465 228.372 42.1232 233.255 42.1232C235.46 40.5481 238.059 39.7605 241.052 39.7605C244.123 39.7605 246.958 41.375 249.557 44.604C252.156 47.8331 253.495 52.0466 253.574 57.2445ZM245.895 63.2694L241.642 63.5057C238.019 63.5057 234.948 62.4425 232.428 60.316C229.908 58.1109 228.647 55.7088 228.647 53.1098C228.647 50.5108 229.081 48.2662 229.947 46.3761C226.56 49.0538 224.867 54.3305 224.867 62.2062C224.867 65.9865 225.655 69.6094 227.23 73.0747C228.805 76.4612 231.286 78.1545 234.672 78.1545C238.059 78.1545 240.697 76.7369 242.587 73.9016C244.478 70.9876 245.58 67.4435 245.895 63.2694ZM238.571 43.6589C237.311 43.6589 236.326 44.2496 235.617 45.431C234.909 46.5336 234.554 47.7543 234.554 49.0932C234.554 52.0072 235.539 54.3699 237.508 56.1813C239.555 57.9927 241.918 58.8984 244.596 58.8984H246.013C245.856 55.0393 245.186 51.5346 244.005 48.3844C242.902 45.2341 241.091 43.6589 238.571 43.6589Z" fill="white"/>
<path d="M268.844 76.5006L268.962 80.1628C268.962 82.368 268.332 83.4706 267.072 83.4706C265.182 83.4706 263.37 83.2343 261.638 82.7618C259.905 82.2105 259.039 81.5017 259.039 80.6353C259.039 79.6902 259.236 76.5793 259.629 71.3026C260.102 65.9472 260.338 61.9306 260.338 59.2528V52.2828C260.338 48.5025 260.732 46.2186 261.52 45.431C262.307 44.6434 263.685 43.5014 265.654 42.0051C267.702 40.5087 269.159 39.7605 270.025 39.7605C270.97 39.7605 271.561 39.918 271.797 40.233C272.034 40.548 272.152 41.1387 272.152 42.0051C272.152 46.1792 271.364 50.117 269.789 53.8186C269.395 58.3077 269.198 61.4186 269.198 63.1513C269.513 62.6788 271.167 60.001 274.16 55.1181C277.153 50.2352 279.673 46.6517 281.721 44.3678C283.847 42.0838 285.737 40.9418 287.391 40.9418C289.045 40.9418 290.502 41.4931 291.762 42.5957C293.101 43.6983 293.77 45.0766 293.77 46.7305C293.77 50.1958 293.377 55.315 292.589 62.0881C291.88 68.7824 291.526 73.0353 291.526 74.8467C291.526 76.5793 291.762 77.4457 292.235 77.4457C293.574 77.3669 295.424 75.713 297.787 72.484C300.15 69.1762 302.473 64.9627 304.757 59.8435C307.12 54.7243 308.537 52.1647 309.01 52.1647C309.561 52.1647 309.837 52.4797 309.837 53.1098C309.837 55.315 308.695 58.8197 306.411 63.6238C300.189 76.855 294.952 83.4706 290.699 83.4706C287.627 83.4706 285.304 82.8405 283.729 81.5804C283.178 81.0291 282.902 79.6115 282.902 77.3275C282.902 74.9648 283.099 71.1845 283.493 65.9865C283.965 60.7098 284.201 56.772 284.201 54.173C284.201 51.574 283.729 50.2745 282.784 50.2745C281.918 50.2745 279.555 52.9916 275.696 58.4259C271.837 63.7813 269.789 67.2073 269.553 68.7037C269.08 71.4602 268.844 74.0591 268.844 76.5006Z" fill="white"/>
</g>
<path fill-rule="evenodd" clip-rule="evenodd" d="M83.9864 20.423C83.1673 20.3662 82.3454 20.4027 81.5322 20.5318L72.3887 21.9833L71.9977 22.0453L71.6038 22.0176L62.5415 21.3792L61.8409 22.5401L59.8133 27.4341L55.0183 17.3391L55.0286 17.322L57.1025 13.8855C57.9911 12.4131 59.4615 11.584 60.9928 11.6919L71.6949 12.4458L80.4473 11.0564C81.778 10.8451 83.1229 10.7855 84.4633 10.8784L95.9449 11.6737C96.5362 11.7146 97.1137 11.9005 97.6405 12.2195L100.813 14.1409C103.162 15.563 103.597 18.7748 102.625 20.944C101.262 23.9836 100.735 25.4822 100.406 26.4868C100.353 26.6478 100.301 26.8104 100.248 26.9765L100.247 26.9795C99.9543 27.8961 99.628 28.9174 98.9494 30.3352C97.556 33.2462 94.4046 38.4195 84.8894 53.599C80.4971 63.4167 78.0345 68.9211 73.6422 78.7388C72.9298 80.3311 71.5272 81.3278 69.9988 81.3278L58.1115 81.3278C56.3748 81.3278 54.7834 80.1857 53.9875 78.3681L50.9595 71.4534L50.8677 71.2439L50.7939 71.0248C46.817 59.2162 42.3545 53.437 41.5385 52.3803L41.5027 52.3339C40.1962 50.6388 40.0974 48.2562 40.9696 46.4735L46.0105 36.1702L50.6267 45.8888L49.3603 48.4773C51.5293 51.7274 55.0623 57.8302 58.2672 67.2785L60.2325 71.7666L67.5837 71.7666L77.8484 48.8228L77.9916 48.5028L78.174 48.2117C88.0316 32.4879 90.7883 27.9121 91.8755 25.6408C92.2341 24.8917 92.3495 24.5334 92.6152 23.7084C92.6773 23.5156 92.7476 23.2973 92.8311 23.0426C93.0142 22.4845 93.2305 21.854 93.5206 21.0834L83.9864 20.423Z" fill="#493799"/>
<path fill-rule="evenodd" clip-rule="evenodd" d="M80.3159 10.2308C81.7089 10.0097 83.1171 9.9472 84.5208 10.0444L96.0025 10.8397C96.7318 10.8903 97.4374 11.1194 98.0734 11.5045L101.246 13.4259C104.055 15.1268 104.481 18.8481 103.387 21.2866C102.035 24.3021 101.52 25.7735 101.2 26.7479C101.149 26.905 101.098 27.0643 101.045 27.2305C101.045 27.2306 101.045 27.2305 101.045 27.2305C101.045 27.2308 101.045 27.2312 101.045 27.2315L101.044 27.2335L101.043 27.2375C100.747 28.1619 100.407 29.2271 99.7035 30.6967C98.2854 33.6594 95.1035 38.8789 85.6287 53.9942L74.4053 79.0808C73.5823 80.9205 71.9115 82.1645 69.9985 82.1645L58.1112 82.1645C55.9864 82.1645 54.1263 80.7711 53.2211 78.704L50.0866 71.5461L50.001 71.2921C46.0688 59.6163 41.6686 53.9179 40.8811 52.8981L40.8763 52.8918L40.8403 52.8453L40.84 52.8449C39.3202 50.873 39.2204 48.1456 40.218 46.1064L46.0214 34.2448L51.5549 45.8945L50.3214 48.4157C52.5382 51.8039 55.9469 57.8456 59.0474 66.9763L60.779 70.9307L67.0413 70.9307L77.2517 48.1084L77.4652 47.7679C87.3399 32.0168 90.0601 27.4963 91.1208 25.2801C91.4544 24.5833 91.556 24.2684 91.8188 23.4524C91.8809 23.2596 91.9518 23.0394 92.0361 22.7824C92.1316 22.4914 92.236 22.1808 92.3549 21.8414L83.9284 21.2577C83.1725 21.2054 82.414 21.239 81.6631 21.3582L72.034 22.8867L62.9928 22.2498L62.5891 22.9187L59.8652 29.4937L54.0697 17.2922L54.3123 16.8903L56.3862 13.4538C57.4129 11.7524 59.1627 10.7249 61.0513 10.858L71.6579 11.6052L80.3159 10.2308ZM84.4052 11.7131C83.1281 11.6247 81.8465 11.6814 80.5781 11.8828L71.7312 13.2872L60.9337 12.5265C59.7597 12.4438 58.5687 13.0746 57.8183 14.318L55.9663 17.3867L59.7609 25.3753L61.092 22.1622L62.0895 20.5093L71.9608 21.2047L81.4008 19.7062C82.2763 19.5672 83.1615 19.5279 84.0439 19.589L94.6988 20.3271L94.303 21.3785C94.0179 22.1358 93.8056 22.7547 93.6255 23.3036C93.5428 23.556 93.4731 23.7724 93.411 23.9652L93.4096 23.9695C93.142 24.8005 93.0126 25.2022 92.6296 26.0023C91.516 28.3288 88.7229 32.9598 78.8824 48.6564L78.7309 48.898L78.6116 49.1648L68.1254 72.6034L59.6855 72.6034L57.4864 67.5816L57.4749 67.5476C54.2954 58.1741 50.7963 52.1367 48.6644 48.9419L48.3975 48.542L49.698 45.8838L45.9991 38.0965L41.7205 46.8415C40.9739 48.3676 41.0716 50.4054 42.1648 51.8237L42.2002 51.8695C43.0579 52.9803 47.5727 58.8409 51.5862 70.7582L51.6483 70.9425L51.7253 71.1183L54.7533 78.033C55.44 79.6011 56.7626 80.4918 58.1112 80.4918L69.9985 80.4918C71.1422 80.4918 72.2769 79.7424 72.8785 78.3977L84.1495 53.2046L84.1805 53.1552C93.712 37.9496 96.8277 32.8305 98.1947 29.9745C98.8476 28.6105 99.16 27.6338 99.4501 26.7258C99.4502 26.7257 99.4502 26.7255 99.4503 26.7253L99.4509 26.7232L99.4512 26.7223L99.4519 26.7201C99.5046 26.5553 99.5573 26.3904 99.611 26.2266C99.9504 25.1917 100.488 23.6658 101.861 20.6023C102.713 18.7023 102.268 16.0001 100.38 14.8567L97.207 12.9353C96.7895 12.6825 96.3401 12.5398 95.8869 12.5084L84.4052 11.7131Z" fill="#F69E16"/>
<path fill-rule="evenodd" clip-rule="evenodd" d="M20.7829 20.4245C21.2376 20.3646 21.6969 20.3684 22.1509 20.4357L31.1159 21.7653C32.7834 22.0126 34.4668 22.0776 36.1446 21.9594L42.7747 21.4925L57.206 51.3457L56.4026 53.4342L61.0579 64.4737L65.4047 53.1734C65.9656 51.7151 65.8996 50.0288 65.227 48.6374L48.6936 14.4355C47.8569 12.7047 46.2575 11.6838 44.5689 11.8028L35.6603 12.4302C34.4823 12.5132 33.3003 12.4676 32.1295 12.2939L23.1645 10.9643C22.0748 10.8027 20.9727 10.7937 19.8812 10.9374L7.29487 12.5951C6.49694 12.7002 5.74064 13.0694 5.11367 13.6599L2.43107 16.1863C0.47361 18.0299 0.263071 21.5199 2.10347 23.6531L2.13987 23.6953C5.14769 27.1815 9.63699 32.3847 19.5767 60.9757L19.6981 61.3247L19.8645 61.647L28.825 79.0011C29.591 80.4846 30.9731 81.3718 32.4474 81.3261L41.9053 81.0329C43.6493 80.9789 45.2197 79.7762 45.9685 77.9213L47.9163 73.0962L43.3292 62.2187L39.5598 71.556L34.5507 71.7113L26.9599 57.01C19.6652 36.0726 15.0441 26.9057 11.503 21.6467L20.7829 20.4245Z" fill="#F69E16"/>
<path fill-rule="evenodd" clip-rule="evenodd" d="M23.0422 11.792C22.0293 11.6418 21.0052 11.6334 19.9908 11.767L7.40445 13.4247C6.79302 13.5053 6.19611 13.7901 5.68743 14.2691L3.00484 16.7956C1.37633 18.3293 1.18643 21.3099 2.73708 23.1072L2.77346 23.1494C5.88063 26.7507 10.4122 32.0671 20.3671 60.7015L20.4689 60.9943L29.5685 78.6178C30.211 79.8621 31.3195 80.5247 32.4219 80.4905L41.8797 80.1974C43.2351 80.1554 44.5457 79.2129 45.1933 77.6086L47.012 73.1036L43.3465 64.4115L40.1315 72.3755L34.0498 72.564L26.19 57.3415L26.1705 57.2856C18.8821 36.3665 14.2892 27.2818 10.8096 22.1143L10.0555 20.9943L20.674 19.5957C21.2059 19.5257 21.7431 19.5301 22.274 19.6088L31.239 20.9384C32.8466 21.1769 34.4692 21.2395 36.0862 21.1256L43.2815 20.6188L58.117 51.3083L57.3046 53.4203L61.0227 62.2372L64.6245 52.8735C65.1035 51.6282 65.0451 50.1825 64.4744 49.0018L47.941 14.7999C47.2272 13.3233 45.9194 12.5465 44.628 12.6374L35.7194 13.2649C34.4807 13.3521 33.2379 13.3041 32.0072 13.1216L23.0422 11.792ZM19.7724 10.1086C20.9409 9.95472 22.1211 9.9644 23.2876 10.1374L32.2526 11.467C33.3635 11.6318 34.4846 11.675 35.6019 11.5963L44.5105 10.9689C46.5964 10.822 48.4874 12.0868 49.447 14.0719L65.9804 48.2738C66.7548 49.8759 66.8285 51.8027 66.1857 53.474L61.094 66.711L55.5013 53.449L56.2957 51.3839L42.2687 22.367L36.2037 22.7941C34.4653 22.9166 32.721 22.8492 30.9936 22.593L22.0286 21.2634C21.6513 21.2074 21.2702 21.2043 20.8924 21.2541L12.931 22.3027C16.4271 27.8084 20.9264 37.1567 27.7305 56.6793L35.0522 70.8594L38.9889 70.7374L43.3127 60.0267L48.8214 73.0897L46.7444 78.2348C45.8944 80.3404 44.0641 81.8032 41.9315 81.8693L32.4737 82.1624C30.6275 82.2196 28.9717 81.1079 28.0822 79.3852L18.928 61.656L18.7871 61.2508C8.89947 32.8095 4.44872 27.6514 1.53961 24.2799L1.50701 24.2421L1.4706 24.1999C-0.659545 21.7308 -0.428375 17.7312 1.85804 15.5779L4.54063 13.0515C5.2859 12.3496 6.20159 11.896 7.18603 11.7664L19.7724 10.1086Z" fill="#493799"/>
</svg>
