<svg width="247" height="73" viewBox="0 0 247 73" fill="none" xmlns="http://www.w3.org/2000/svg">
<mask id="mask0_2051_17181" style="mask-type:alpha" maskUnits="userSpaceOnUse" x="0" y="0" width="247" height="73">
<rect width="247" height="72.1056" fill="#C4C4C4"/>
</mask>
<g mask="url(#mask0_2051_17181)">
<path fill-rule="evenodd" clip-rule="evenodd" d="M67.3242 17.3701C66.6825 17.3257 66.0387 17.3542 65.4017 17.4554L57.9329 18.641L50.5254 18.1192L49.9766 19.0286L48.3884 22.8622L44.6322 14.9544L46.2649 12.2491C46.9609 11.0957 48.1128 10.4462 49.3123 10.5307L57.6957 11.1213L64.5518 10.0329C65.5942 9.86742 66.6477 9.82073 67.6977 9.89346L76.6918 10.5165C77.155 10.5485 77.6073 10.6942 78.0199 10.944L80.5054 12.4491C82.345 13.5632 82.686 16.079 81.9242 17.7783C80.8566 20.1593 80.4444 21.3332 80.1863 22.1202C80.1449 22.2463 80.1042 22.3737 80.0627 22.5038L80.0619 22.5061C79.8325 23.2241 79.5769 24.0242 79.0453 25.1348C77.9538 27.4151 75.4851 31.4676 68.0315 43.3583L59.2211 63.0514C58.6631 64.2987 57.5643 65.0794 56.3671 65.0794L47.0553 65.0794C45.6948 65.0794 44.4482 64.1848 43.8247 62.761L41.3809 57.1803L41.3231 57.0087C38.2078 47.7585 34.7121 43.2314 34.0729 42.4036L34.0449 42.3673C33.0214 41.0395 32.9441 39.173 33.6273 37.7766L37.5761 29.7056L41.1921 37.3186L40.2001 39.3463C41.8991 41.8923 44.6667 46.6728 47.1772 54.0741L48.7168 57.5898L54.4752 57.5898L62.6282 39.3662L62.7711 39.1383C70.493 26.8211 72.6524 23.2367 73.504 21.4575C73.7849 20.8707 73.8753 20.59 74.0834 19.9438C74.1321 19.7927 74.1872 19.6217 74.2526 19.4222C74.396 18.985 74.5654 18.4911 74.7927 17.8875L67.3242 17.3701Z" fill="white"/>
<path fill-rule="evenodd" clip-rule="evenodd" d="M64.4491 9.38586C65.5403 9.21264 66.6434 9.16372 67.743 9.23988L76.7371 9.86288C77.3084 9.90245 77.8611 10.0819 78.3593 10.3836L80.8447 11.8887C83.0449 13.2211 83.3784 16.1361 82.522 18.0463C81.4629 20.4085 81.0591 21.5611 80.8088 22.3244C80.7685 22.4475 80.7286 22.5722 80.687 22.7025C80.687 22.7024 80.6869 22.7025 80.687 22.7025C80.6869 22.7027 80.6868 22.703 80.6867 22.7032L80.6862 22.7048L80.6852 22.7079C80.4539 23.432 80.1873 24.2664 79.6362 25.4177C78.5254 27.7385 76.0329 31.8271 68.6109 43.6675L59.8191 63.3189C59.1744 64.7601 57.8656 65.7346 56.3671 65.7346L47.0553 65.7346C45.3908 65.7346 43.9337 64.643 43.2246 63.0238L40.7692 57.4167L40.7022 57.2178C37.622 48.0716 34.1751 43.6078 33.5582 42.8089L33.5263 42.7676L33.526 42.7672C32.3354 41.2226 32.2573 39.0861 33.0388 37.4887L37.5848 28.1971L41.9194 37.3228L40.9532 39.2977C42.6897 41.9518 45.3598 46.6845 47.7886 53.837L49.1451 56.9347L54.0506 56.9347L62.0488 39.057L62.216 38.7903C69.9513 26.4518 72.0821 22.9106 72.9131 21.1746C73.1744 20.6288 73.254 20.3821 73.4598 19.7429C73.5085 19.5919 73.564 19.4194 73.6301 19.2181C73.7048 18.9901 73.7866 18.7468 73.8798 18.481L67.2789 18.0237C66.6868 17.9827 66.0926 18.009 65.5044 18.1024L57.9616 19.2998L50.8792 18.8009L50.563 19.3249L48.4293 24.4753L43.8894 14.9174L45.704 11.9106C46.5083 10.5778 47.8789 9.77296 49.3583 9.87718L57.667 10.4625L64.4491 9.38586ZM67.6524 10.547C66.652 10.4777 65.6481 10.5222 64.6545 10.6799L57.7244 11.7801L49.2663 11.1842C48.3466 11.1194 47.4136 11.6136 46.8258 12.5876L45.3751 14.9914L48.3475 21.2492L49.3902 18.7323L50.1716 17.4375L57.9042 17.9822L65.299 16.8083C65.9848 16.6995 66.6782 16.6687 67.3695 16.7166L75.7159 17.2947L75.4058 18.1183C75.1825 18.7115 75.0161 19.1964 74.8751 19.6264C74.8103 19.8241 74.7557 19.9936 74.707 20.1446L74.706 20.148C74.4963 20.7989 74.3949 21.1136 74.095 21.7403C73.2226 23.5628 71.0346 27.1905 63.3262 39.4862L63.2075 39.6755L54.8998 58.2449L48.2884 58.2449L46.5658 54.3111L46.5568 54.2845C44.0662 46.9419 41.3252 42.2125 39.6551 39.7099L39.4461 39.3967L40.4648 37.3144L37.5673 31.2142L34.2158 38.0646C33.6309 39.26 33.7074 40.8563 34.5638 41.9673L34.5915 42.0032C35.2634 42.8734 38.8 47.4642 41.944 56.7996L41.9926 56.9439L44.4249 62.4982C44.9628 63.7266 45.9988 64.4243 47.0553 64.4243L56.3671 64.4243C57.263 64.4243 58.1518 63.8372 58.6231 62.7838L67.4522 43.049L67.4764 43.0103C74.9429 31.0992 77.3835 27.0892 78.4544 24.852C78.9658 23.7835 79.2105 23.0183 79.4377 22.3071C79.4378 22.307 79.4378 22.3069 79.4379 22.3067L79.4384 22.3051L79.4386 22.3044L79.4392 22.3027C79.4804 22.1736 79.5217 22.0444 79.5638 21.9161C79.8297 21.1054 80.2504 19.9101 81.3264 17.5103C81.9937 16.0219 81.6451 13.9052 80.166 13.0095L77.6806 11.5044C77.3536 11.3064 77.0015 11.1946 76.6465 11.17L67.6524 10.547Z" fill="white"/>
<path fill-rule="evenodd" clip-rule="evenodd" d="M17.8146 17.3713C18.1708 17.3244 18.5305 17.3274 18.8862 17.3801L25.9088 18.4217C27.2151 18.6154 28.5338 18.6663 29.848 18.5737L35.0417 18.2079L46.3463 41.5932L45.717 43.2293L49.3637 51.8769L52.7687 43.0249C53.2081 41.8826 53.1564 40.5616 52.6295 39.4717L39.6782 12.6799C39.0228 11.3241 37.7699 10.5244 36.4472 10.6176L29.4687 11.1091C28.5459 11.1741 27.62 11.1383 26.7029 11.0023L19.6802 9.96076C18.8266 9.83416 17.9633 9.8271 17.1083 9.93971L7.24885 11.2383C6.62379 11.3206 6.03135 11.6098 5.54022 12.0724L3.43883 14.0514C1.90546 15.4955 1.74054 18.2294 3.1822 19.9005L3.21071 19.9335C5.56687 22.6644 9.08352 26.7402 16.8697 49.1368L16.9648 49.4102L24.1143 63.2568C24.7143 64.4189 25.797 65.1139 26.9519 65.0781L34.3606 64.8485C35.7268 64.8061 36.9569 63.8641 37.5435 62.411L39.0693 58.6313L35.4761 50.1105L32.5233 57.4248L28.5994 57.5465L22.6533 46.0303C16.939 29.6292 13.3191 22.4483 10.5452 18.3288L17.8146 17.3713Z" fill="white"/>
<path fill-rule="evenodd" clip-rule="evenodd" d="M19.5841 10.6088C18.7906 10.4911 17.9885 10.4846 17.1938 10.5892L7.3344 11.8878C6.85543 11.9509 6.38786 12.174 5.98938 12.5493L3.888 14.5284C2.61231 15.7298 2.46356 18.0646 3.67825 19.4725L3.70675 19.5056C6.14072 22.3266 9.69053 26.4911 17.4886 48.9217L17.5683 49.1511L24.6964 62.9563C25.1997 63.931 26.068 64.45 26.9316 64.4233L34.3403 64.1936C35.4021 64.1607 36.4287 63.4224 36.936 62.1657L38.3606 58.6368L35.4893 51.8279L32.9709 58.0664L28.2068 58.2141L22.0499 46.2897L22.0346 46.2459C16.3253 29.8591 12.7275 22.7427 10.0018 18.6947L9.41107 17.8174L17.729 16.7218C18.1456 16.6669 18.5665 16.6704 18.9823 16.7321L26.005 17.7736C27.2643 17.9604 28.5353 18.0094 29.802 17.9202L35.4384 17.5232L47.0596 41.5636L46.4232 43.218L49.3358 50.1247L52.1573 42.7897C52.5325 41.8142 52.4868 40.6817 52.0397 39.7569L39.0884 12.9651C38.5292 11.8084 37.5048 11.1998 36.4932 11.2711L29.5147 11.7626C28.5444 11.831 27.5708 11.7933 26.6067 11.6504L19.5841 10.6088ZM17.0227 9.29017C17.9381 9.16961 18.8626 9.17719 19.7763 9.31271L26.799 10.3543C27.6692 10.4833 28.5474 10.5172 29.4226 10.4556L36.4011 9.96405C38.0351 9.84897 39.5164 10.8398 40.2681 12.3948L53.2194 39.1866C53.826 40.4415 53.8838 41.9509 53.3802 43.2601L49.3916 53.6292L45.0107 43.2405L45.633 41.6229L34.645 18.8926L29.8941 19.2273C28.5323 19.3232 27.1659 19.2704 25.8127 19.0697L18.7901 18.0282C18.4946 17.9843 18.196 17.9819 17.9001 18.0209L11.6636 18.8423C14.4022 23.1551 17.9267 30.4781 23.2567 45.7709L28.992 56.8788L32.0758 56.7832L35.4629 48.3931L39.778 58.6259L38.151 62.6562C37.4852 64.3057 36.0515 65.4515 34.3809 65.5033L26.9722 65.7329C25.526 65.7778 24.2289 64.9069 23.5322 63.5574L16.3613 49.6694L16.2509 49.3519C8.50551 27.0727 5.01905 23.0321 2.74022 20.3911L2.68616 20.3284C1.01753 18.3943 1.19862 15.2613 2.98966 13.5745L5.09105 11.5954C5.67485 11.0456 6.39215 10.6903 7.1633 10.5887L17.0227 9.29017Z" fill="white"/>
<path d="M85.6729 19.8947C85.6729 18.7716 86.2656 17.8044 87.4511 16.9933C88.6366 16.1822 89.6973 15.7766 90.6332 15.7766C92.3179 15.7766 93.1602 16.7437 93.1602 18.678C93.1602 20.6122 92.6611 22.2969 91.6627 23.7319C90.6644 25.1046 89.2605 25.791 87.4511 25.791C86.2656 25.791 85.6729 23.8255 85.6729 19.8947ZM88.387 66.129C85.9536 66.129 84.113 65.6299 82.8651 64.6316C82.4283 64.1948 82.21 62.635 82.21 59.952C82.21 57.269 82.3971 52.8078 82.7715 46.5683C83.2083 40.2665 83.5826 36.866 83.8946 36.3668C84.2066 35.8677 85.1737 34.9318 86.796 33.5591C88.4182 32.1864 89.6661 31.5001 90.5396 31.5001C91.4756 31.5001 91.9435 32.6856 91.9435 35.0565C91.9435 35.6805 91.7563 36.8972 91.382 38.7066C91.07 40.5161 90.6956 41.8264 90.2589 42.6375C89.4477 44.6965 89.0422 50.0936 89.0422 58.8289C89.0422 60.5135 89.2294 61.3559 89.6037 61.3559C90.6644 61.2935 92.1307 59.9832 94.0025 57.425C95.8744 54.8044 97.715 51.4663 99.5245 47.4107C101.396 43.355 102.519 41.3272 102.894 41.3272C103.331 41.3272 103.549 41.5768 103.549 42.0759C103.549 43.823 102.644 46.5995 100.835 50.4056C95.9056 60.8879 91.7563 66.129 88.387 66.129Z" fill="white"/>
<path d="M105.87 60.6071L105.964 63.5085C105.964 65.2555 105.465 66.129 104.467 66.129C102.969 66.129 101.534 65.9419 100.161 65.5675C98.7886 65.1307 98.1023 64.5692 98.1023 63.8828C98.1023 63.1341 98.2583 60.6695 98.5703 56.4891C98.9446 52.2463 99.1318 49.0641 99.1318 46.9427V41.4208C99.1318 38.4259 99.4438 36.6164 100.068 35.9925C100.692 35.3685 101.784 34.4638 103.343 33.2783C104.966 32.0928 106.12 31.5001 106.806 31.5001C107.555 31.5001 108.023 31.6248 108.21 31.8744C108.397 32.124 108.491 32.592 108.491 33.2783C108.491 36.5852 107.867 39.7049 106.619 42.6375C106.307 46.194 106.151 48.6586 106.151 50.0312C106.401 49.6569 107.711 47.5355 110.082 43.667C112.453 39.7985 114.45 36.9596 116.072 35.1501C117.757 33.3407 119.254 32.436 120.564 32.436C121.875 32.436 123.029 32.8727 124.027 33.7463C125.088 34.6198 125.618 35.7117 125.618 37.022C125.618 39.7673 125.306 43.823 124.682 49.1889C124.121 54.4925 123.84 57.8618 123.84 59.2968C123.84 60.6695 124.027 61.3559 124.402 61.3559C125.462 61.2935 126.929 59.9832 128.8 57.425C130.672 54.8044 132.513 51.4663 134.322 47.4107C136.194 43.355 137.317 41.3272 137.692 41.3272C138.128 41.3272 138.347 41.5768 138.347 42.0759C138.347 43.823 137.442 46.5995 135.633 50.4056C130.703 60.8879 126.554 66.129 123.185 66.129C120.752 66.129 118.911 65.6299 117.663 64.6316C117.226 64.1948 117.008 63.0717 117.008 61.2623C117.008 59.3904 117.164 56.3955 117.476 52.2775C117.85 48.097 118.037 44.9773 118.037 42.9183C118.037 40.8592 117.663 39.8297 116.914 39.8297C116.228 39.8297 114.356 41.9823 111.299 46.2876C108.241 50.5304 106.619 53.2446 106.432 54.4301C106.058 56.6139 105.87 58.6729 105.87 60.6071Z" fill="white"/>
<path d="M147.153 37.022L147.34 35.6181C147.34 34.495 146.685 33.9334 145.375 33.9334C144.127 33.9334 142.91 34.7758 141.725 36.4604C140.539 38.0827 139.947 39.4242 139.947 40.4849C139.947 41.5456 140.009 42.3879 140.134 43.0119C140.259 43.6358 140.383 44.1662 140.508 44.6029C140.695 44.9773 140.976 45.4452 141.351 46.0068C141.725 46.5683 142.006 46.9739 142.193 47.2235L143.222 48.5338C143.659 49.1577 143.971 49.5633 144.158 49.7505C147.403 47.0675 151.271 44.0726 155.764 40.7657C156.013 40.5785 156.294 40.4849 156.606 40.4849C157.23 40.4849 157.542 40.828 157.542 41.5144C157.542 42.2007 157.261 42.7311 156.7 43.1054C152.706 45.6636 148.931 48.4402 145.375 51.4351C146.748 53.4318 147.434 55.6156 147.434 57.9866C147.434 60.3575 146.529 62.3854 144.72 64.07C142.91 65.7547 140.602 66.597 137.794 66.597C134.986 66.597 133.582 65.2555 133.582 62.5726C133.582 60.6383 135.641 57.6746 139.759 53.6813C139.447 53.307 138.886 52.7142 138.075 51.9031C137.264 51.0296 136.64 50.3432 136.203 49.8441C135.829 49.3449 135.361 48.6898 134.799 47.8786C133.801 46.3188 133.302 44.6341 133.302 42.8247C133.302 39.1434 134.487 36.1796 136.858 33.9334C139.229 31.6248 141.756 30.4705 144.439 30.4705C146.124 30.4705 147.434 30.9385 148.37 31.8744C149.306 32.7479 149.774 33.6527 149.774 34.5886C149.774 36.71 149.275 37.7707 148.276 37.7707C147.528 37.7707 147.153 37.5211 147.153 37.022ZM141.163 55.4596C138.668 57.9554 137.42 59.9832 137.42 61.543C137.42 63.0405 138.2 63.7892 139.759 63.7892C140.695 63.7892 141.475 63.4149 142.099 62.6661C143.472 60.7943 143.16 58.3921 141.163 55.4596Z" fill="white"/>
<path d="M173.734 50.4056C168.805 60.8879 164.624 66.129 161.193 66.129C157.823 66.129 155.827 65.7235 155.203 64.9123C154.641 64.1012 154.361 61.4183 154.361 56.8635C154.361 52.3086 154.797 45.726 155.671 37.1156C152.551 36.4916 150.898 35.2125 150.71 33.2783C150.71 32.28 151.366 31.7808 152.676 31.7808C153.986 31.7808 155.14 32.0304 156.139 32.5296C156.7 28.0372 157.355 23.4824 158.104 18.8652C158.291 17.6797 158.884 16.5566 159.882 15.4958C160.881 14.4351 161.848 13.9048 162.784 13.9048C163.595 13.9048 164 15.1839 164 17.7421C164 18.9275 163.564 24.3871 162.69 34.1206C164.375 33.8087 166.215 33.1847 168.212 32.2488C170.271 31.3129 171.488 30.8449 171.862 30.8449C172.985 30.8449 173.547 31.1881 173.547 31.8744C173.609 32.4984 172.455 33.3719 170.084 34.495C167.713 35.5557 165.155 36.3668 162.409 36.9284C161.661 46.038 161.286 52.9326 161.286 57.6122C161.286 60.108 161.661 61.3559 162.409 61.3559C163.533 61.2935 165.03 59.9832 166.902 57.425C168.774 54.8668 170.614 51.5599 172.424 47.5043C174.296 43.3862 175.419 41.3272 175.793 41.3272C176.23 41.3272 176.448 41.5768 176.448 42.0759C176.448 43.823 175.543 46.5995 173.734 50.4056Z" fill="white"/>
<path d="M200.892 45.3517C203.388 44.5405 205.103 43.8542 206.039 43.2926C207.038 42.6687 207.786 42.2007 208.286 41.8888L209.409 41.2336C209.721 41.0464 209.97 40.9528 210.157 40.9528C210.657 40.9528 210.906 41.2336 210.906 41.7952C210.906 42.3567 209.939 43.355 208.005 44.7901C206.071 46.1628 203.668 47.4107 200.798 48.5338C200.361 53.7749 198.708 58.0177 195.838 61.2623C192.968 64.5068 188.881 66.129 183.577 66.129C179.709 66.129 176.745 64.6004 174.686 61.543C172.627 58.4233 171.598 54.8044 171.598 50.6864C171.598 46.506 172.814 42.5751 175.248 38.8938C177.743 35.2125 180.925 33.3719 184.794 33.3719C186.541 32.124 188.6 31.5001 190.971 31.5001C193.404 31.5001 195.651 32.7791 197.71 35.3373C199.769 37.8955 200.829 41.2336 200.892 45.3517ZM194.808 50.1248L191.439 50.312C188.569 50.312 186.135 49.4697 184.139 47.785C182.142 46.038 181.144 44.135 181.144 42.0759C181.144 40.0169 181.487 38.2387 182.173 36.7412C179.49 38.8626 178.149 43.0431 178.149 49.2825C178.149 52.2775 178.773 55.1476 180.021 57.893C181.269 60.5759 183.234 61.9174 185.917 61.9174C188.6 61.9174 190.69 60.7943 192.188 58.5481C193.685 56.2395 194.559 53.4318 194.808 50.1248ZM189.006 34.5886C188.007 34.5886 187.227 35.0565 186.666 35.9925C186.104 36.866 185.823 37.8331 185.823 38.8938C185.823 41.2024 186.603 43.0743 188.163 44.5093C189.786 45.9444 191.657 46.6619 193.779 46.6619H194.902C194.777 43.6046 194.247 40.828 193.311 38.3323C192.437 35.8365 191.002 34.5886 189.006 34.5886Z" fill="white"/>
<path d="M212.989 60.6071L213.083 63.5085C213.083 65.2555 212.584 66.129 211.585 66.129C210.088 66.129 208.653 65.9419 207.28 65.5675C205.907 65.1307 205.221 64.5692 205.221 63.8828C205.221 63.1341 205.377 60.6695 205.689 56.4891C206.063 52.2463 206.251 49.0641 206.251 46.9427V41.4208C206.251 38.4259 206.563 36.6164 207.187 35.9925C207.81 35.3685 208.902 34.4638 210.462 33.2783C212.085 32.0928 213.239 31.5001 213.925 31.5001C214.674 31.5001 215.142 31.6248 215.329 31.8744C215.516 32.124 215.61 32.592 215.61 33.2783C215.61 36.5852 214.986 39.7049 213.738 42.6375C213.426 46.194 213.27 48.6586 213.27 50.0312C213.52 49.6569 214.83 47.5355 217.201 43.667C219.572 39.7985 221.568 36.9596 223.191 35.1501C224.875 33.3407 226.373 32.436 227.683 32.436C228.993 32.436 230.148 32.8727 231.146 33.7463C232.207 34.6198 232.737 35.7117 232.737 37.022C232.737 39.7673 232.425 43.823 231.801 49.1889C231.24 54.4925 230.959 57.8618 230.959 59.2968C230.959 60.6695 231.146 61.3559 231.52 61.3559C232.581 61.2935 234.047 59.9832 235.919 57.425C237.791 54.8044 239.632 51.4663 241.441 47.4107C243.313 43.355 244.436 41.3272 244.81 41.3272C245.247 41.3272 245.466 41.5768 245.466 42.0759C245.466 43.823 244.561 46.5995 242.751 50.4056C237.822 60.8879 233.673 66.129 230.304 66.129C227.87 66.129 226.03 65.6299 224.782 64.6316C224.345 64.1948 224.127 63.0717 224.127 61.2623C224.127 59.3904 224.283 56.3955 224.595 52.2775C224.969 48.097 225.156 44.9773 225.156 42.9183C225.156 40.8592 224.782 39.8297 224.033 39.8297C223.347 39.8297 221.475 41.9823 218.418 46.2876C215.36 50.5304 213.738 53.2446 213.551 54.4301C213.176 56.6139 212.989 58.6729 212.989 60.6071Z" fill="white"/>
</g>
</svg>
