<svg width="120" height="36" viewBox="0 0 120 36" fill="none" xmlns="http://www.w3.org/2000/svg">
<mask id="mask0_2393_20551" style="mask-type:alpha" maskUnits="userSpaceOnUse" x="0" y="0" width="120" height="36">
<rect width="120" height="35.0311" fill="#C4C4C4"/>
</mask>
<g mask="url(#mask0_2393_20551)">
<path fill-rule="evenodd" clip-rule="evenodd" d="M32.7079 8.43949C32.3961 8.4179 32.0833 8.43176 31.7739 8.48089L28.1453 9.05691L24.5465 8.80339L24.2799 9.24521L23.5083 11.1077L21.6834 7.26585L22.4766 5.95152C22.8148 5.39117 23.3744 5.07563 23.9572 5.11668L28.0301 5.40361L31.361 4.87484C31.8674 4.79444 32.3792 4.77176 32.8893 4.80709L37.2589 5.10976C37.484 5.12535 37.7037 5.1961 37.9042 5.3175L39.1117 6.04872C40.0054 6.58994 40.1711 7.81223 39.801 8.63779C39.2823 9.79455 39.0821 10.3649 38.9567 10.7472C38.9366 10.8085 38.9168 10.8704 38.8966 10.9336L38.8962 10.9347C38.7848 11.2835 38.6606 11.6722 38.4023 12.2118C37.8721 13.3196 36.6727 15.2885 33.0515 21.0653L28.7711 30.6328C28.5001 31.2388 27.9662 31.6181 27.3846 31.6181L22.8606 31.6181C22.1997 31.6181 21.594 31.1835 21.2911 30.4917L20.1038 27.7805L20.0758 27.6971C18.5623 23.2031 16.864 21.0037 16.5534 20.6015L16.5398 20.5839C16.0426 19.9388 16.005 19.032 16.3369 18.3536L18.2553 14.4324L20.0121 18.131L19.5302 19.1161C20.3556 20.3531 21.7002 22.6756 22.9199 26.2714L23.6678 27.9794L26.4654 27.9794L30.4264 19.1258L30.4958 19.0151C34.2474 13.0311 35.2965 11.2896 35.7102 10.4252C35.8467 10.1401 35.8906 10.0038 35.9917 9.68983C36.0154 9.61646 36.0421 9.53338 36.0739 9.43645C36.1436 9.22405 36.2259 8.98409 36.3363 8.69082L32.7079 8.43949Z" fill="#2E2368"/>
<path fill-rule="evenodd" clip-rule="evenodd" d="M31.3111 4.56048C31.8412 4.47633 32.3771 4.45256 32.9113 4.48957L37.2809 4.79224C37.5585 4.81146 37.827 4.89866 38.0691 5.04524L39.2766 5.77646C40.3455 6.42376 40.5075 7.83997 40.0914 8.76801C39.5769 9.91562 39.3807 10.4756 39.2591 10.8464C39.2395 10.9062 39.2201 10.9668 39.1999 11.0301C39.1999 11.0301 39.1999 11.0301 39.1999 11.0301C39.1999 11.0302 39.1998 11.0303 39.1998 11.0304L39.1995 11.0312L39.1991 11.0327C39.0867 11.3845 38.9571 11.7899 38.6894 12.3492C38.1497 13.4767 36.9388 15.4631 33.333 21.2156L29.0617 30.7628C28.7485 31.4629 28.1126 31.9364 27.3846 31.9364L22.8606 31.9364C22.052 31.9364 21.3441 31.4061 20.9996 30.6194L19.8067 27.8953L19.7741 27.7987C18.2776 23.3552 16.603 21.1865 16.3033 20.7984L16.2878 20.7783L16.2877 20.7782C15.7093 20.0277 15.6713 18.9897 16.051 18.2137L18.2596 13.6995L20.3655 18.1331L19.8961 19.0925C20.7397 20.382 22.0369 22.6813 23.2169 26.1562L23.8759 27.6611L26.2592 27.6611L30.1449 18.9756L30.2262 18.846C33.9842 12.8516 35.0194 11.1312 35.4231 10.2878C35.5501 10.0226 35.5887 9.9028 35.6888 9.59225C35.7124 9.51889 35.7394 9.43509 35.7715 9.33726C35.8078 9.22653 35.8475 9.1083 35.8928 8.97915L32.6859 8.75702C32.3982 8.73709 32.1095 8.74988 31.8238 8.79524L28.1592 9.37697L24.7184 9.13458L24.5648 9.38916L23.5281 11.8914L21.3225 7.24787L22.2041 5.78706C22.5949 5.13957 23.2608 4.74855 23.9795 4.79918L28.0161 5.08355L31.3111 4.56048ZM32.8673 5.12462C32.3813 5.09095 31.8936 5.11256 31.4109 5.18919L28.044 5.72367L23.9348 5.43419C23.488 5.40271 23.0347 5.64277 22.7491 6.11598L22.0443 7.28382L23.4884 10.3241L23.995 9.10125L24.3746 8.47221L28.1313 8.73685L31.724 8.16654C32.0571 8.11365 32.394 8.0987 32.7299 8.12197L36.7848 8.40284L36.6342 8.80297C36.5257 9.09118 36.4449 9.32673 36.3763 9.53563C36.3448 9.63168 36.3183 9.71402 36.2947 9.7874L36.2942 9.78903C36.1923 10.1053 36.1431 10.2582 35.9973 10.5627C35.5735 11.4481 34.5105 13.2105 30.7655 19.1842L30.7079 19.2761L26.6717 28.2977L23.4597 28.2977L22.6228 26.3865L22.6184 26.3736C21.4084 22.8063 20.0768 20.5086 19.2654 19.2928L19.1638 19.1406L19.6588 18.129L18.2511 15.1654L16.6228 18.4935C16.3387 19.0742 16.3758 19.8498 16.7919 20.3895L16.8053 20.407C17.1318 20.8297 18.85 23.0601 20.3774 27.5955L20.401 27.6656L21.5827 30.3641C21.844 30.9608 22.3474 31.2998 22.8606 31.2998L27.3846 31.2998C27.8198 31.2998 28.2517 31.0146 28.4806 30.5028L32.77 20.9151L32.7818 20.8963C36.4093 15.1095 37.595 13.1613 38.1152 12.0744C38.3637 11.5553 38.4826 11.1836 38.593 10.838C38.593 10.838 38.593 10.8379 38.5931 10.8378L38.5933 10.837L38.5934 10.8367L38.5937 10.8359C38.6137 10.7731 38.6338 10.7104 38.6542 10.648C38.7834 10.2542 38.9878 9.67347 39.5105 8.50757C39.8347 7.78449 39.6654 6.75612 38.9468 6.32098L37.7393 5.58975C37.5805 5.49355 37.4094 5.43924 37.2369 5.42729L32.8673 5.12462Z" fill="#2E2368"/>
<path fill-rule="evenodd" clip-rule="evenodd" d="M8.65461 8.44007C8.82769 8.41727 9.00245 8.4187 9.17524 8.44433L12.5871 8.95035C13.2217 9.04447 13.8623 9.0692 14.5008 9.02423L17.0241 8.84651L22.5162 20.2078L22.2104 21.0026L23.9821 25.2039L25.6364 20.9033C25.8499 20.3484 25.8247 19.7066 25.5688 19.1771L19.2766 6.16084C18.9582 5.50214 18.3495 5.11363 17.7069 5.15889L14.3165 5.39768C13.8682 5.42926 13.4184 5.41189 12.9728 5.3458L9.56099 4.83979C9.14629 4.77828 8.72687 4.77485 8.31148 4.82956L3.52147 5.46045C3.2178 5.50044 2.92998 5.64095 2.69137 5.86566L1.67045 6.82716C0.925498 7.52875 0.845373 8.85696 1.54577 9.6688L1.55963 9.68486C2.70432 11.0116 4.41281 12.9918 8.19559 23.8727L8.24177 24.0055L11.7152 30.7326C12.0067 31.2972 12.5327 31.6348 13.0938 31.6174L16.6932 31.5059C17.3569 31.4853 17.9545 31.0276 18.2395 30.3217L18.9808 28.4854L17.2351 24.3457L15.8006 27.8993L13.8942 27.9583L11.0054 22.3635C8.22925 14.3953 6.4706 10.9066 5.12296 8.90522L8.65461 8.44007Z" fill="#2E2368"/>
<path fill-rule="evenodd" clip-rule="evenodd" d="M9.5143 5.15463C9.12882 5.09746 8.7391 5.09428 8.35304 5.14512L3.56304 5.77601C3.33034 5.80666 3.10318 5.91505 2.90959 6.09737L1.88867 7.05886C1.26891 7.64255 1.19664 8.77686 1.78677 9.46089L1.80062 9.47694C2.98311 10.8475 4.70772 12.8707 8.49623 23.7682L8.53497 23.8796L11.998 30.5866C12.2425 31.0602 12.6644 31.3123 13.0839 31.2993L16.6833 31.1877C17.1991 31.1718 17.6979 30.8131 17.9444 30.2025L18.6365 28.4881L17.2415 25.1801L16.018 28.211L13.7035 28.2827L10.7123 22.4895L10.7048 22.4682C7.93111 14.507 6.18317 11.0496 4.85895 9.08299L4.57194 8.65676L8.61305 8.12451C8.81546 8.09785 9.01992 8.09953 9.22194 8.12949L12.6338 8.6355C13.2456 8.72624 13.8631 8.75007 14.4785 8.70673L17.2168 8.51386L22.8627 20.1934L22.5536 20.9972L23.9686 24.3526L25.3393 20.7891C25.5216 20.3152 25.4994 19.7649 25.2822 19.3156L18.9901 6.29937C18.7184 5.73743 18.2207 5.44177 17.7292 5.47639L14.3389 5.71518C13.8675 5.74838 13.3945 5.73012 12.9261 5.66065L9.5143 5.15463ZM8.26992 4.514C8.71463 4.45543 9.16377 4.45911 9.60769 4.52495L13.0195 5.03096C13.4423 5.09366 13.869 5.11013 14.2942 5.08018L17.6845 4.84139C18.4783 4.78548 19.198 5.26685 19.5632 6.02232L25.8553 19.0386C26.1501 19.6483 26.1781 20.3816 25.9335 21.0176L23.9957 26.0552L21.8673 21.0081L22.1696 20.2222L16.8314 9.17916L14.5232 9.34173C13.8616 9.38833 13.1978 9.36269 12.5404 9.26519L9.12855 8.75918C8.98498 8.73788 8.83992 8.7367 8.69618 8.75563L5.66627 9.1547C6.9968 11.25 8.70909 14.8077 11.2986 22.2375L14.085 27.634L15.5832 27.5876L17.2287 23.5114L19.3251 28.4828L18.5347 30.4408C18.2112 31.2422 17.5147 31.7989 16.703 31.824L13.1037 31.9356C12.4011 31.9574 11.7709 31.5343 11.4324 30.8787L7.94857 24.1314L7.89496 23.9772C4.132 13.1533 2.43817 11.1903 1.33105 9.90716L1.30478 9.87672C0.494113 8.93706 0.58209 7.41494 1.45223 6.59545L2.47315 5.63396C2.75678 5.36684 3.10526 5.19423 3.47991 5.14489L8.26992 4.514Z" fill="#2E2368"/>
<path d="M41.6228 9.66788C41.6228 9.12224 41.9108 8.65238 42.4867 8.25831C43.0627 7.86424 43.578 7.66721 44.0327 7.66721C44.8512 7.66721 45.2604 8.13706 45.2604 9.07677C45.2604 10.0165 45.0179 10.8349 44.5329 11.5321C44.0479 12.199 43.3658 12.5325 42.4867 12.5325C41.9108 12.5325 41.6228 11.5776 41.6228 9.66788ZM42.9414 32.1299C41.7592 32.1299 40.865 31.8874 40.2587 31.4024C40.0465 31.1902 39.9404 30.4324 39.9404 29.1289C39.9404 27.8255 40.0314 25.6581 40.2132 22.6267C40.4254 19.5651 40.6073 17.9131 40.7589 17.6705C40.9105 17.428 41.3803 16.9733 42.1684 16.3065C42.9566 15.6396 43.5629 15.3061 43.9872 15.3061C44.4419 15.3061 44.6693 15.8821 44.6693 17.034C44.6693 17.3371 44.5783 17.9282 44.3965 18.8073C44.2449 19.6864 44.063 20.323 43.8508 20.717C43.4568 21.7174 43.2597 24.3394 43.2597 28.5833C43.2597 29.4017 43.3507 29.811 43.5325 29.811C44.0479 29.7807 44.7602 29.1441 45.6696 27.9012C46.579 26.6281 47.4732 25.0063 48.3523 23.036C49.2617 21.0656 49.8074 20.0804 49.9892 20.0804C50.2014 20.0804 50.3075 20.2017 50.3075 20.4442C50.3075 21.293 49.868 22.6419 48.9889 24.491C46.5942 29.5836 44.5783 32.1299 42.9414 32.1299Z" fill="#2E2368"/>
<path d="M51.4354 29.4472L51.4809 30.8568C51.4809 31.7055 51.2384 32.1299 50.7533 32.1299C50.0258 32.1299 49.3286 32.039 48.6617 31.8571C47.9948 31.6449 47.6614 31.3721 47.6614 31.0386C47.6614 30.6749 47.7372 29.4775 47.8888 27.4465C48.0706 25.3852 48.1616 23.8393 48.1616 22.8086V20.1259C48.1616 18.6709 48.3131 17.7918 48.6163 17.4887C48.9194 17.1855 49.4499 16.746 50.2077 16.17C50.9959 15.5941 51.5566 15.3061 51.8901 15.3061C52.2538 15.3061 52.4812 15.3667 52.5721 15.488C52.6631 15.6093 52.7085 15.8366 52.7085 16.17C52.7085 17.7766 52.4054 19.2923 51.7991 20.717C51.6476 22.4449 51.5718 23.6422 51.5718 24.3091C51.6931 24.1273 52.3296 23.0966 53.4815 21.2172C54.6334 19.3378 55.6034 17.9585 56.3916 17.0794C57.21 16.2004 57.9376 15.7608 58.5741 15.7608C59.2107 15.7608 59.7715 15.973 60.2565 16.3974C60.7718 16.8218 61.0295 17.3523 61.0295 17.9888C61.0295 19.3226 60.8779 21.293 60.5748 23.8999C60.302 26.4765 60.1656 28.1134 60.1656 28.8106C60.1656 29.4775 60.2565 29.811 60.4384 29.811C60.9537 29.7807 61.6661 29.1441 62.5755 27.9012C63.4849 26.6281 64.3791 25.0063 65.2582 23.036C66.1676 21.0656 66.7132 20.0804 66.8951 20.0804C67.1073 20.0804 67.2134 20.2017 67.2134 20.4442C67.2134 21.293 66.7738 22.6419 65.8948 24.491C63.5 29.5836 61.4842 32.1299 59.8473 32.1299C58.6651 32.1299 57.7708 31.8874 57.1646 31.4024C56.9524 31.1902 56.8463 30.6446 56.8463 29.7655C56.8463 28.8561 56.9221 27.4011 57.0736 25.4004C57.2555 23.3694 57.3465 21.8538 57.3465 20.8534C57.3465 19.8531 57.1646 19.3529 56.8008 19.3529C56.4674 19.3529 55.558 20.3987 54.0726 22.4903C52.5873 24.5516 51.7991 25.8703 51.7082 26.4462C51.5263 27.5072 51.4354 28.5075 51.4354 29.4472Z" fill="#2E2368"/>
<path d="M71.4918 17.9888L71.5827 17.3068C71.5827 16.7612 71.2645 16.4883 70.6279 16.4883C70.0216 16.4883 69.4305 16.8976 68.8546 17.716C68.2786 18.5042 67.9906 19.1559 67.9906 19.6712C67.9906 20.1865 68.0209 20.5958 68.0816 20.8989C68.1422 21.202 68.2028 21.4597 68.2635 21.6719C68.3544 21.8538 68.4908 22.0811 68.6727 22.3539C68.8546 22.6267 68.991 22.8238 69.0819 22.945L69.5821 23.5816C69.7943 23.8847 69.9458 24.0818 70.0368 24.1727C71.6131 22.8693 73.4925 21.4142 75.675 19.8076C75.7963 19.7167 75.9327 19.6712 76.0842 19.6712C76.3874 19.6712 76.5389 19.8379 76.5389 20.1714C76.5389 20.5048 76.4025 20.7625 76.1297 20.9444C74.1897 22.1872 72.3557 23.5361 70.6279 24.9912C71.2948 25.9612 71.6282 27.0222 71.6282 28.1741C71.6282 29.326 71.1887 30.3111 70.3096 31.1296C69.4305 31.948 68.3089 32.3573 66.9448 32.3573C65.5807 32.3573 64.8987 31.7055 64.8987 30.4021C64.8987 29.4624 65.899 28.0225 67.8997 26.0824C67.7481 25.9006 67.4753 25.6126 67.0812 25.2185C66.6872 24.7941 66.384 24.4607 66.1718 24.2182C65.99 23.9757 65.7626 23.6574 65.4898 23.2633C65.0048 22.5055 64.7623 21.687 64.7623 20.808C64.7623 19.0195 65.3382 17.5796 66.4901 16.4883C67.642 15.3667 68.8697 14.806 70.1732 14.806C70.9916 14.806 71.6282 15.0333 72.0829 15.488C72.5376 15.9124 72.765 16.3519 72.765 16.8066C72.765 17.8373 72.5225 18.3526 72.0374 18.3526C71.6737 18.3526 71.4918 18.2313 71.4918 17.9888ZM68.5817 26.9464C67.3692 28.1589 66.763 29.1441 66.763 29.9019C66.763 30.6294 67.1419 30.9932 67.8997 30.9932C68.3544 30.9932 68.7333 30.8113 69.0364 30.4475C69.7033 29.5381 69.5518 28.3711 68.5817 26.9464Z" fill="#2E2368"/>
<path d="M84.4056 24.491C82.0108 29.5836 79.9798 32.1299 78.3126 32.1299C76.6757 32.1299 75.7057 31.9329 75.4026 31.5388C75.1297 31.1447 74.9933 29.8413 74.9933 27.6284C74.9933 25.4156 75.2055 22.2175 75.6299 18.0343C74.1142 17.7312 73.311 17.1098 73.22 16.17C73.22 15.685 73.5383 15.4425 74.1749 15.4425C74.8115 15.4425 75.3722 15.5638 75.8573 15.8063C76.1301 13.6237 76.4484 11.4109 76.8121 9.16771C76.9031 8.59176 77.191 8.04612 77.676 7.5308C78.1611 7.01547 78.6309 6.75781 79.0856 6.75781C79.4797 6.75781 79.6767 7.37923 79.6767 8.62207C79.6767 9.19802 79.4645 11.8504 79.0401 16.5793C79.8586 16.4277 80.7528 16.1246 81.7229 15.6699C82.7232 15.2152 83.3143 14.9878 83.4962 14.9878C84.0418 14.9878 84.3146 15.1546 84.3146 15.488C84.3449 15.7911 83.7841 16.2155 82.6322 16.7612C81.4803 17.2765 80.2375 17.6705 78.9037 17.9434C78.54 22.3691 78.3581 25.7187 78.3581 27.9922C78.3581 29.2047 78.54 29.811 78.9037 29.811C79.4494 29.7807 80.1769 29.1441 81.0863 27.9012C81.9957 26.6584 82.8899 25.0518 83.769 23.0814C84.6784 21.0808 85.224 20.0804 85.4059 20.0804C85.6181 20.0804 85.7242 20.2017 85.7242 20.4442C85.7242 21.293 85.2846 22.6419 84.4056 24.491Z" fill="#2E2368"/>
<path d="M97.5996 22.0356C98.8121 21.6416 99.6457 21.3081 100.1 21.0353C100.585 20.7322 100.949 20.5048 101.192 20.3533L101.737 20.035C101.889 19.944 102.01 19.8986 102.101 19.8986C102.344 19.8986 102.465 20.035 102.465 20.3078C102.465 20.5806 101.995 21.0656 101.055 21.7628C100.116 22.4297 98.9485 23.036 97.5541 23.5816C97.3419 26.1279 96.5386 28.1892 95.1442 29.7655C93.7498 31.3418 91.7643 32.1299 89.1877 32.1299C87.3083 32.1299 85.8684 31.3873 84.8681 29.9019C83.8677 28.3862 83.3676 26.6281 83.3676 24.6274C83.3676 22.5964 83.9587 20.6867 85.1409 18.8982C86.3534 17.1098 87.8994 16.2155 89.7788 16.2155C90.6276 15.6093 91.6279 15.3061 92.7798 15.3061C93.962 15.3061 95.0533 15.9275 96.0536 17.1704C97.054 18.4132 97.5693 20.035 97.5996 22.0356ZM94.6441 24.3546L93.0072 24.4455C91.6128 24.4455 90.4305 24.0363 89.4605 23.2179C88.4905 22.3691 88.0055 21.4445 88.0055 20.4442C88.0055 19.4439 88.1722 18.5799 88.5057 17.8524C87.2022 18.8831 86.5505 20.9141 86.5505 23.9454C86.5505 25.4004 86.8536 26.7948 87.4599 28.1286C88.0661 29.4321 89.021 30.0838 90.3244 30.0838C91.6279 30.0838 92.6434 29.5381 93.3709 28.4469C94.0984 27.3253 94.5228 25.9612 94.6441 24.3546ZM91.8249 16.8066C91.3399 16.8066 90.961 17.034 90.6882 17.4887C90.4154 17.9131 90.279 18.3829 90.279 18.8982C90.279 20.0198 90.6579 20.9292 91.4157 21.6264C92.2039 22.3236 93.1133 22.6722 94.1439 22.6722H94.6895C94.6289 21.1869 94.3713 19.8379 93.9166 18.6254C93.4922 17.4129 92.795 16.8066 91.8249 16.8066Z" fill="#2E2368"/>
<path d="M103.477 29.4472L103.522 30.8568C103.522 31.7055 103.28 32.1299 102.795 32.1299C102.067 32.1299 101.37 32.039 100.703 31.8571C100.036 31.6449 99.7029 31.3721 99.7029 31.0386C99.7029 30.6749 99.7787 29.4775 99.9303 27.4465C100.112 25.3852 100.203 23.8393 100.203 22.8086V20.1259C100.203 18.6709 100.355 17.7918 100.658 17.4887C100.961 17.1855 101.491 16.746 102.249 16.17C103.037 15.5941 103.598 15.3061 103.932 15.3061C104.295 15.3061 104.523 15.3667 104.614 15.488C104.705 15.6093 104.75 15.8366 104.75 16.17C104.75 17.7766 104.447 19.2923 103.841 20.717C103.689 22.4449 103.613 23.6422 103.613 24.3091C103.735 24.1273 104.371 23.0966 105.523 21.2172C106.675 19.3378 107.645 17.9585 108.433 17.0794C109.252 16.2004 109.979 15.7608 110.616 15.7608C111.252 15.7608 111.813 15.973 112.298 16.3974C112.813 16.8218 113.071 17.3523 113.071 17.9888C113.071 19.3226 112.919 21.293 112.616 23.8999C112.344 26.4765 112.207 28.1134 112.207 28.8106C112.207 29.4775 112.298 29.811 112.48 29.811C112.995 29.7807 113.708 29.1441 114.617 27.9012C115.526 26.6281 116.421 25.0063 117.3 23.036C118.209 21.0656 118.755 20.0804 118.937 20.0804C119.149 20.0804 119.255 20.2017 119.255 20.4442C119.255 21.293 118.815 22.6419 117.936 24.491C115.542 29.5836 113.526 32.1299 111.889 32.1299C110.707 32.1299 109.812 31.8874 109.206 31.4024C108.994 31.1902 108.888 30.6446 108.888 29.7655C108.888 28.8561 108.964 27.4011 109.115 25.4004C109.297 23.3694 109.388 21.8538 109.388 20.8534C109.388 19.8531 109.206 19.3529 108.842 19.3529C108.509 19.3529 107.6 20.3987 106.114 22.4903C104.629 24.5516 103.841 25.8703 103.75 26.4462C103.568 27.5072 103.477 28.5075 103.477 29.4472Z" fill="#2E2368"/>
</g>
</svg>
