<svg width="113" height="113" viewBox="0 0 113 113" fill="none" xmlns="http://www.w3.org/2000/svg">
<path d="M52.1287 79.7772C51.6384 79.2869 51.0846 78.7149 50.4672 78.0611C49.8316 77.4256 49.196 76.7718 48.5604 76.0999C47.9067 75.4099 47.2711 74.738 46.6537 74.0842C46 73.4305 45.4098 72.8222 44.8832 72.2592C44.3384 71.7144 43.8935 71.2514 43.5485 70.87C43.1671 70.4887 42.9129 70.2345 42.7858 70.1073C42.4226 69.7442 42.1502 69.4718 41.9686 69.2902C41.7507 69.1086 41.4874 68.9542 41.1787 68.8271C41.1605 68.809 41.3966 68.7545 41.8869 68.6637C42.3772 68.5729 42.9674 68.4912 43.6574 68.4185C44.3293 68.3277 45.0194 68.2733 45.7276 68.2551C46.4358 68.2369 46.9806 68.3096 47.3619 68.473C47.7433 68.6001 48.1337 68.8271 48.5332 69.154C48.9145 69.4627 49.305 69.9258 49.7045 70.5432C49.7045 70.5432 49.9133 70.8428 50.331 71.4421C50.7668 72.0232 51.2662 72.7041 51.8291 73.485C52.3921 74.2658 52.9459 75.0376 53.4907 75.8003C54.0173 76.5448 54.4077 77.0624 54.662 77.3529C54.9525 77.6798 55.1614 77.8341 55.2885 77.816C55.4156 77.7615 55.4973 77.6435 55.5336 77.4619C55.5699 77.2803 55.579 77.0714 55.5609 76.8354C55.5245 76.5811 55.4882 76.3996 55.4519 76.2906C55.2521 75.5461 54.9344 74.6835 54.4985 73.7029C54.0809 72.7041 53.6814 71.7054 53.3 70.7066L51.3661 66.2122C51.475 66.3211 51.6566 66.4664 51.9108 66.648C52.1469 66.8114 52.4193 67.0475 52.728 67.3562C53.0367 67.6649 53.3727 68.0553 53.7358 68.5275C54.0809 68.9815 54.4259 69.5626 54.7709 70.2708L54.8526 70.5704L55.5064 71.8779C55.8332 72.6043 56.1783 73.3488 56.5415 74.1115C56.9046 74.8378 57.1952 75.5642 57.4131 76.2906C57.6673 77.0533 57.8035 77.7524 57.8217 78.388C57.8217 79.0054 57.6855 79.5048 57.4131 79.8861C57.2315 80.1404 56.941 80.3583 56.5415 80.5399C56.142 80.6851 55.688 80.7759 55.1795 80.8123C54.6529 80.8304 54.1263 80.7578 53.5996 80.5944C53.0549 80.4491 52.5646 80.1767 52.1287 79.7772ZM36.4936 62.7801C37.7466 62.2898 38.7998 62.0174 39.6533 61.9629C40.4886 61.8903 41.1787 61.9629 41.7235 62.1808C42.2864 62.3806 42.7404 62.6893 43.0854 63.1069C43.4304 63.5246 43.7301 63.9695 43.9843 64.4416C44.2567 64.8956 44.52 65.3405 44.7742 65.7764C45.0466 66.194 45.3735 66.5209 45.7548 66.757C44.6471 67.1746 43.7301 67.4016 43.0037 67.4379C42.2592 67.4561 41.6327 67.3562 41.1242 67.1383C40.6157 66.9204 40.189 66.6208 39.844 66.2394C39.4808 65.8399 39.1448 65.4313 38.8361 65.0137C38.5093 64.5778 38.1733 64.1511 37.8283 63.7334C37.4651 63.3339 37.0202 63.0161 36.4936 62.7801Z" fill="#4D4D4D"/>
<path d="M63.9981 68.0712C63.5986 67.7444 63.1356 67.3176 62.6089 66.791C62.0823 66.2281 61.5375 65.647 60.9746 65.0477C60.4298 64.4303 59.885 63.8129 59.3403 63.1955C58.7955 62.578 58.3143 62.0242 57.8966 61.5339C57.5879 61.1525 57.3064 60.8166 57.0522 60.526C56.798 60.1992 56.5619 59.8905 56.344 59.5999C56.0171 59.2004 55.772 58.9734 55.6085 58.9189C55.4269 58.8463 55.3089 58.8735 55.2544 59.0007C55.1999 59.1278 55.1909 59.3184 55.2272 59.5727C55.2453 59.8087 55.2817 60.0448 55.3361 60.2809C55.4088 60.6804 55.5813 61.3795 55.8537 62.3783C56.1442 63.3589 56.5619 64.4666 57.1067 65.7014C57.6696 66.9181 58.3687 68.162 59.2041 69.4332C60.0394 70.7043 61.0382 71.8121 62.2004 72.7563C62.8359 73.1014 63.4352 73.3011 63.9981 73.3556C63.6894 73.6643 63.3081 73.973 62.8541 74.2817C62.4001 74.5541 61.9098 74.7539 61.3832 74.881C60.8384 74.9899 60.2845 74.999 59.7216 74.9082C59.1405 74.7993 58.5685 74.5178 58.0056 74.0638C57.5879 73.7551 57.1157 73.3374 56.5891 72.8108C56.0443 72.266 55.4996 71.6849 54.9548 71.0675C54.3737 70.4501 53.8289 69.8327 53.3205 69.2153C52.7757 68.5979 52.2945 68.044 51.8768 67.5537L48.9895 64.0126C48.6263 63.6494 48.3085 63.4043 48.0361 63.2772C47.7455 63.1319 47.4459 62.9957 47.1372 62.8686C47.119 62.8504 47.3551 62.796 47.8454 62.7052C48.3176 62.6325 48.8987 62.5599 49.5887 62.4872C50.2424 62.4146 50.9143 62.3783 51.6044 62.3783C52.3126 62.3601 52.8574 62.4328 53.2387 62.5962C53.5293 62.7052 53.838 62.8504 54.1649 63.032C54.4736 63.1955 54.7732 63.4406 55.0637 63.7675C54.7006 63.0048 54.3919 62.3692 54.1376 61.8607C53.8834 61.316 53.6655 60.7893 53.4839 60.2809C53.2115 59.5 53.0571 58.8009 53.0208 58.1835C52.9845 57.5661 53.1116 57.0576 53.4022 56.6581C53.5838 56.4039 53.9469 56.186 54.4917 56.0044C55.0183 55.8046 55.6176 55.6775 56.2895 55.623C56.9432 55.5504 57.6061 55.5776 58.2779 55.7047C58.9317 55.8137 59.4765 56.0679 59.9123 56.4674C60.4571 56.9396 60.9928 57.5479 61.5194 58.2924C62.0278 59.0188 62.5545 59.7997 63.0992 60.635C63.6259 61.4522 64.1706 62.2875 64.7336 63.141C65.2965 63.9945 65.9049 64.7662 66.5586 65.4563C66.8491 65.7832 67.058 65.9375 67.1851 65.9194C67.3304 65.883 67.4212 65.7741 67.4575 65.5925C67.4756 65.3927 67.4756 65.1748 67.4575 64.9387C67.4212 64.6845 67.3848 64.5029 67.3485 64.394C67.1488 63.6494 66.831 62.7869 66.3952 61.8063C65.9775 60.8075 65.5689 59.8178 65.1694 58.8372L63.2627 54.3156C63.3716 54.4245 63.5532 54.5698 63.8075 54.7514C64.0435 54.9148 64.3159 55.1509 64.6246 55.4596C64.9333 55.7683 65.2602 56.1678 65.6052 56.6581C65.9503 57.1121 66.2953 57.6932 66.6403 58.4014L66.7493 58.6738L67.3758 60.0085C67.7026 60.7349 68.0477 61.4794 68.4108 62.2421C68.774 62.9685 69.0737 63.6858 69.3097 64.394C69.564 65.1567 69.7002 65.8558 69.7183 66.4914C69.7183 67.1088 69.5821 67.6082 69.3097 67.9895C69.1281 68.2437 68.8376 68.4617 68.4381 68.6433C68.0386 68.8248 67.5846 68.9338 67.0761 68.9701C66.5677 69.0064 66.0411 68.9701 65.4963 68.8612C64.9515 68.7159 64.4521 68.4526 63.9981 68.0712Z" fill="#4D4D4D"/>
<path d="M76.1325 51.9055C76.4775 52.6864 76.7499 53.5944 76.9496 54.6294C77.1494 55.6282 77.2311 56.636 77.1948 57.653C77.1585 58.6336 76.9587 59.5779 76.5955 60.4858C76.2505 61.3756 75.7057 62.102 74.9612 62.6649C74.0895 63.3187 73.1271 63.7 72.0738 63.809C70.9843 63.9179 69.8856 63.6365 68.7779 62.9646C69.3046 62.8011 69.7404 62.6377 70.0854 62.4743C70.4123 62.329 70.6937 62.1746 70.9298 62.0112C71.1477 61.8659 71.3293 61.7025 71.4746 61.5209C71.6017 61.3575 71.7197 61.185 71.8287 61.0034C72.1737 60.4404 72.1556 59.8412 71.7742 59.2056C71.411 58.5518 70.8481 57.8981 70.0854 57.2444C69.3409 56.5725 68.4692 55.9006 67.4705 55.2287C66.4717 54.5568 65.5093 53.9031 64.5831 53.2675L66.5988 58.1705L67.4705 60.3496C67.071 60.2043 66.7078 60.0772 66.3809 59.9683C66.0359 59.8412 65.6818 59.5415 65.3186 59.0694L65.0462 58.4157L61.5596 50.5708L61.2872 49.8081L61.2872 49.7537C61.033 49.1362 60.8514 48.4825 60.7424 47.7925C60.6516 47.0842 60.8695 46.3397 61.3962 45.5589C61.5596 45.3591 61.9046 45.1775 62.4312 45.0141C62.976 44.8325 63.548 44.6963 64.1473 44.6055C64.7647 44.4965 65.3186 44.4511 65.8089 44.4693C66.3173 44.4693 66.5988 44.551 66.6533 44.7145C66.2901 44.9324 66.0268 45.232 65.8634 45.6133C65.7181 45.9765 65.6454 46.376 65.6454 46.8119C65.6273 47.2295 65.6636 47.6472 65.7544 48.0648C65.8452 48.4462 65.9542 48.7549 66.0813 48.991C66.4989 49.7718 67.1527 50.5164 68.0425 51.2246C68.9323 51.8965 69.8584 52.5502 70.8209 53.1858C71.7651 53.8032 72.6459 54.3934 73.463 54.9563C74.2802 55.5192 74.825 56.0822 75.0974 56.6451C75.17 55.8461 75.0974 55.0108 74.8795 54.1391C74.6797 53.2493 74.5072 52.5684 74.3619 52.0962L73.7899 50.2167L71.8832 45.6951C71.9921 45.804 72.1646 45.9584 72.4007 46.1581C72.6368 46.3215 72.9092 46.5576 73.2179 46.8663C73.5448 47.1569 73.8807 47.5473 74.2257 48.0376C74.5708 48.4916 74.9158 49.0727 75.2608 49.7809L76.1325 51.9055Z" fill="#4D4D4D"/>
<path d="M78.7566 21.8246C77.6851 21.9517 76.5956 22.4057 75.4879 23.1865C74.3983 23.9492 73.3451 24.8572 72.3282 25.9104C71.3112 26.9273 70.3579 28.0078 69.4681 29.1518C68.5782 30.2596 67.8065 31.2129 67.1527 32.0119C67.2799 32.1754 67.5704 32.5567 68.0244 33.156C68.4602 33.7371 68.9959 34.4725 69.6315 35.3623C70.2671 36.2158 70.9844 37.1873 71.7834 38.2769C72.5642 39.3483 73.3632 40.4379 74.1804 41.5456C74.9794 42.6351 75.7693 43.7156 76.5502 44.787C77.331 45.8584 78.0393 46.8209 78.6748 47.6744C79.3104 48.5278 79.8461 49.2451 80.2819 49.8262C80.7178 50.4073 80.9901 50.7705 81.0991 50.9158C81.3715 51.2608 81.6166 51.4333 81.8346 51.4333C82.0525 51.397 82.2341 51.2881 82.3793 51.1065C82.5246 50.8885 82.6336 50.6162 82.7062 50.2893C82.7788 49.9261 82.797 49.5811 82.7607 49.2542C82.7425 48.8729 82.6699 48.437 82.5428 47.9467C82.4338 47.4383 82.2885 46.9117 82.1069 46.3669C81.9072 45.8039 81.6984 45.2501 81.4804 44.7053C81.2807 44.1424 81.0809 43.6157 80.8812 43.1254L78.9745 38.6038C79.0834 38.7127 79.265 38.858 79.5192 39.0396C79.7553 39.203 80.0277 39.4391 80.3364 39.7478C80.6451 40.0565 80.9811 40.4469 81.3443 40.9191C81.6893 41.3731 82.0343 41.9542 82.3793 42.6624L83.0875 44.2967C83.3055 44.7689 83.5688 45.4135 83.8775 46.2307C84.1862 47.0115 84.4313 47.8559 84.6129 48.7639C84.7945 49.6356 84.849 50.5072 84.7764 51.3789C84.7037 52.2142 84.3859 52.9133 83.823 53.4763C82.8969 54.4024 82.0161 54.811 81.1808 54.702C80.3092 54.5931 79.4284 54.1481 78.5386 53.3673C78.1754 53.0041 77.6851 52.4775 77.0677 51.7874C76.4322 51.0792 75.7239 50.2621 74.9431 49.3359C74.1441 48.428 73.2815 47.4383 72.3554 46.3669C71.4111 45.2773 70.4668 44.1696 69.5225 43.0437C68.5419 41.9178 67.5704 40.801 66.608 39.6933C65.6455 38.5856 64.7376 37.5324 63.8841 36.5336C63.4301 36.9876 62.9489 37.2509 62.4404 37.3235C61.9138 37.378 61.1329 37.1419 60.0978 36.6153C60.8424 36.5972 61.3781 36.4065 61.7049 36.0433C61.9955 35.6801 62.2043 35.2534 62.3314 34.7631C62.0046 34.3999 61.6505 33.9913 61.2691 33.5373C60.8696 33.0652 60.4974 32.6384 60.1523 32.2571C59.7891 31.8576 59.4804 31.5126 59.2262 31.222C58.972 30.9315 58.8267 30.768 58.7904 30.7317C58.4635 30.3685 58.1911 30.0961 57.9732 29.9145C57.7553 29.7329 57.492 29.5786 57.1833 29.4515C57.1651 29.4333 57.4375 29.3788 58.0004 29.288C58.5271 29.1972 59.1808 29.1246 59.9617 29.0701C60.7243 28.9975 61.487 28.9612 62.2497 28.9612C63.0306 28.943 63.6208 29.0066 64.0203 29.1518C64.0929 29.1882 64.2109 29.2699 64.3744 29.397C64.5196 29.506 64.6831 29.6331 64.8647 29.7783C65.0281 29.9055 65.2006 30.0417 65.3822 30.1869C65.5456 30.314 65.6818 30.4139 65.7908 30.4866C66.3356 29.7602 66.9076 28.9703 67.5068 28.1168C68.1061 27.2633 68.7326 26.437 69.3863 25.638C70.0582 24.8208 70.7483 24.0763 71.4565 23.4044C72.1647 22.6962 72.9092 22.1514 73.6901 21.7701C74.4709 21.3524 75.2881 21.1345 76.1416 21.1163C76.9769 21.08 77.8486 21.3161 78.7566 21.8246Z" fill="#4D4D4D"/>
<path d="M86.4582 46.7008C85.532 46.3921 84.6876 45.9472 83.9249 45.3661C83.1441 44.7668 82.454 44.1131 81.8548 43.4049C81.2373 42.6785 80.7289 41.9158 80.3294 41.1168C79.9117 40.2996 79.603 39.5006 79.4033 38.7198C78.8766 38.1568 78.4499 37.5485 78.123 36.8947C77.7598 36.241 77.5328 35.5963 77.4421 34.9608C77.3331 34.307 77.3694 33.6715 77.551 33.054C77.7326 32.4366 78.0867 31.8828 78.6133 31.3925C79.6666 30.4119 80.8197 29.9125 82.0727 29.8943C83.3257 29.8762 84.5333 30.1939 85.6955 30.8477C87.3116 31.7375 88.6827 32.818 89.8085 34.0891C90.9344 35.324 91.797 36.6042 92.3963 37.9298C92.6686 37.4032 92.823 36.7222 92.8593 35.8869C92.9138 35.0334 92.714 33.9438 92.2601 32.6182L90.1354 27.4428C90.2444 27.5518 90.426 27.697 90.6802 27.8786C90.9163 28.0421 91.1887 28.2781 91.4974 28.5868C91.8061 28.8956 92.1329 29.2951 92.478 29.7854C92.823 30.2393 93.168 30.8204 93.5131 31.5287L93.622 31.801C93.8762 32.4548 94.1214 33.1539 94.3575 33.8984C94.5935 34.643 94.7388 35.3875 94.7933 36.132C94.8478 36.8766 94.8024 37.5939 94.6571 38.2839C94.4937 38.9558 94.1577 39.546 93.6492 40.0545C93.5584 40.1453 93.4767 40.227 93.4041 40.2996C93.3496 40.3541 93.2679 40.4176 93.1589 40.4903C93.3587 41.5617 93.3405 42.5423 93.1045 43.4321C92.8684 44.3219 92.4144 45.0664 91.7425 45.6657C91.1069 46.2286 90.3624 46.6463 89.5089 46.9187C88.6373 47.1729 87.6204 47.1003 86.4582 46.7008ZM84.5514 38.8015C85.2596 39.1102 85.986 39.3644 86.7305 39.5642C87.4751 39.7276 88.1833 39.8002 88.8552 39.7821C88.4194 39.092 87.9291 38.3838 87.3843 37.6574C86.8395 36.9311 86.2856 36.2501 85.7227 35.6145C85.1598 34.9426 84.6059 34.3524 84.0611 33.844C83.5345 33.3174 83.0714 32.9088 82.6719 32.6182C82.0545 32.1824 81.5007 31.9372 81.0104 31.8828C80.5201 31.792 80.175 31.8464 79.9753 32.0462C79.4123 32.6091 79.1672 33.2175 79.2398 33.8712C79.3306 34.5068 79.6393 35.1424 80.166 35.7779C80.4202 35.4511 80.738 35.1878 81.1193 34.988C81.5007 34.7883 81.9092 34.7065 82.3451 34.7429C82.6538 34.761 82.8989 34.8064 83.0805 34.8791C83.0805 34.988 83.0805 35.097 83.0805 35.2059C83.0805 35.3149 83.0896 35.4329 83.1078 35.56C83.1804 36.0322 83.3438 36.5588 83.5981 37.1399C83.8523 37.6847 84.1701 38.2385 84.5514 38.8015ZM89.9992 42.0157C89.5634 42.0883 89.1003 42.1519 88.61 42.2063C88.1379 42.2427 87.6385 42.2517 87.1119 42.2336L87.5749 42.6422C87.7929 42.8601 88.0289 43.078 88.2832 43.2959C88.5192 43.4956 88.7553 43.6591 88.9914 43.7862C89.2456 43.8952 89.4726 43.9587 89.6724 43.9769C89.8721 43.995 90.0265 43.9315 90.1354 43.7862C90.4078 43.4412 90.3624 42.851 89.9992 42.0157Z" fill="#4D4D4D"/>
<path d="M102.729 29.3408C102.329 29.0139 101.866 28.5872 101.339 28.0606C100.813 27.4976 100.268 26.9165 99.705 26.3173C99.1602 25.6999 98.6155 25.0825 98.0707 24.465C97.5259 23.8476 97.0447 23.2938 96.627 22.8035C96.3183 22.4221 96.0368 22.0862 95.7826 21.7956C95.5284 21.4688 95.2923 21.16 95.0744 20.8695C94.7475 20.47 94.5024 20.243 94.3389 20.1885C94.1574 20.1159 94.0393 20.1431 93.9848 20.2702C93.9304 20.3974 93.9213 20.588 93.9576 20.8423C93.9758 21.0783 94.0121 21.3144 94.0666 21.5505C94.1392 21.95 94.3117 22.6491 94.5841 23.6479C94.8746 24.6285 95.2923 25.7362 95.8371 26.971C96.4 28.1877 97.0992 29.4316 97.9345 30.7028C98.7698 31.9739 99.7686 33.0816 100.931 34.0259C101.566 34.371 102.166 34.5707 102.729 34.6252C102.42 34.9339 102.038 35.2426 101.585 35.5513C101.131 35.8237 100.64 36.0234 100.114 36.1506C99.5688 36.2595 99.015 36.2686 98.452 36.1778C97.8709 36.0688 97.2989 35.7874 96.736 35.3334C96.3183 35.0247 95.8462 34.607 95.3195 34.0804C94.7748 33.5356 94.23 32.9545 93.6852 32.3371C93.1041 31.7197 92.5593 31.1023 92.0509 30.4849C91.5061 29.8674 91.0249 29.3136 90.6072 28.8233L87.7199 25.2822C87.3567 24.919 87.0389 24.6739 86.7665 24.5468C86.476 24.4015 86.1763 24.2653 85.8676 24.1382C85.8495 24.12 86.0855 24.0655 86.5758 23.9747C87.048 23.9021 87.6291 23.8295 88.3191 23.7568C88.9729 23.6842 89.6448 23.6479 90.3348 23.6479C91.043 23.6297 91.5878 23.7023 91.9691 23.8658C92.2597 23.9747 92.5684 24.12 92.8953 24.3016C93.204 24.465 93.5036 24.7102 93.7942 25.0371C93.431 24.2744 93.1223 23.6388 92.868 23.1303C92.6138 22.5855 92.3959 22.0589 92.2143 21.5505C91.9419 20.7696 91.7876 20.0705 91.7512 19.4531C91.7149 18.8357 91.842 18.3272 92.1326 17.9277C92.3142 17.6735 92.6774 17.4555 93.2221 17.2739C93.7488 17.0742 94.348 16.9471 95.0199 16.8926C95.6737 16.82 96.3365 16.8472 97.0084 16.9743C97.6621 17.0833 98.2069 17.3375 98.6427 17.737C99.1875 18.2092 99.7232 18.8175 100.25 19.562C100.758 20.2884 101.285 21.0692 101.83 21.9046C102.356 22.7217 102.901 23.5571 103.464 24.4106C104.027 25.2641 104.635 26.0358 105.289 26.7259C105.58 27.0527 105.788 27.2071 105.916 27.1889C106.061 27.1526 106.152 27.0437 106.188 26.8621C106.206 26.6623 106.206 26.4444 106.188 26.2083C106.152 25.9541 106.115 25.7725 106.079 25.6636C105.879 24.919 105.561 24.0565 105.126 23.0759C104.708 22.0771 104.299 21.0874 103.9 20.1068L101.993 15.5851C102.102 15.6941 102.284 15.8394 102.538 16.021C102.774 16.1844 103.046 16.4205 103.355 16.7292C103.664 17.0379 103.991 17.4374 104.336 17.9277C104.681 18.3817 105.026 18.9628 105.371 19.671L105.48 19.9434L106.106 21.2781C106.433 22.0045 106.778 22.749 107.141 23.5117C107.504 24.238 107.804 24.9553 108.04 25.6636C108.294 26.4262 108.431 27.1254 108.449 27.761C108.449 28.3784 108.313 28.8778 108.04 29.2591C107.859 29.5133 107.568 29.7312 107.169 29.9128C106.769 30.0944 106.315 30.2034 105.807 30.2397C105.298 30.276 104.771 30.2397 104.227 30.1307C103.682 29.9855 103.183 29.7222 102.729 29.3408Z" fill="#4D4D4D"/>
<path d="M37.5462 65.8023C37.3116 64.9029 36.3923 64.3638 35.4928 64.5984L33.9241 65.0075C33.0246 65.242 32.4856 66.1614 32.7202 67.0608L33.401 69.4153C34.0563 71.6816 34.5039 74.0027 34.7381 76.3502C35.0634 79.609 35.7993 82.8136 36.9284 85.8878L39.3468 92.4722C39.5814 93.3717 40.5007 93.9107 41.4001 93.6762L42.9689 93.2671C43.8684 93.0325 44.4074 92.1132 44.1728 91.2137L42.2891 85.4018C41.356 82.5226 40.6724 79.5685 40.2461 76.5721L40.0814 75.4145C39.6131 72.1227 38.7623 68.8968 37.5462 65.8023Z" fill="#4D4D4D"/>
<path d="M27.2766 75.9607C27.042 75.0612 26.1227 74.5222 25.2232 74.7568L23.6545 75.1659C22.755 75.4004 22.216 76.3197 22.4505 77.2192C22.5107 78.2773 22.7922 79.3111 23.2767 80.2537L23.4597 80.6098L28.9823 82.0226L28.9475 81.9549C27.9881 80.0915 27.4195 78.0517 27.2766 75.9607Z" fill="#4D4D4D"/>
<path d="M26.1478 91.3971L24.9735 86.8941L30.4428 88.7406L30.9738 90.1386C31.2084 91.0381 30.6693 91.9574 29.7699 92.192L28.2011 92.6011C27.3017 92.8356 26.3823 92.2966 26.1478 91.3971Z" fill="#4D4D4D"/>
<path d="M26.6899 78.8279C26.0326 79.4852 24.9669 79.4852 24.3096 78.8279L23.1535 77.6718C22.4962 77.0145 22.4962 75.9488 23.1535 75.2915L24.4756 74.1645C25.7884 73.0454 26.9742 71.7855 28.0118 70.4073C29.1416 68.9067 30.4469 67.5466 31.8998 66.3561L32.9465 65.4985C33.6038 64.8412 34.6695 64.8412 35.3268 65.4985L36.4829 66.6546C37.1402 67.3119 37.1402 68.3776 36.4829 69.0349L35.8226 69.5644C34.0912 70.9528 32.5181 72.5278 31.1317 74.2608C30.1869 75.4417 29.1548 76.5501 28.0441 77.5765L26.6899 78.8279Z" fill="#4D4D4D"/>
<path d="M40.3229 94.2605L42.8699 91.7135L43.8496 92.6931L41.3025 95.2401L40.3229 94.2605Z" fill="#4D4D4D"/>
<path d="M27.3872 92.66C26.4877 92.4255 25.9487 91.5061 26.1833 90.6067L24.9735 86.8941C29.1 87.69 32.4603 89.2846 33.8018 89.4709L40.8057 91.014C41.7051 91.2486 42.2442 92.1679 42.0096 93.0674L41.6027 94.6277C41.3682 95.5271 40.4488 96.0661 39.5494 95.8316C37.8632 95.4864 36.2122 94.9873 34.6172 94.3406L33.3301 93.8188C32.1896 93.3565 30.9906 93.0541 29.7673 92.9203L27.3872 92.66Z" fill="#4D4D4D"/>
<path d="M39.671 88.9613C39.7714 89.2968 39.7854 89.6466 39.7117 89.9772C39.6381 90.3077 39.4793 90.6078 39.2505 90.8488C39.0217 91.0898 38.7307 91.2636 38.4052 91.3534C38.0798 91.4433 37.7309 91.4463 37.392 91.3621L37.5991 90.229C37.741 90.2643 37.887 90.263 38.0233 90.2254C38.1595 90.1878 38.2814 90.115 38.3771 90.0141C38.4729 89.9133 38.5394 89.7876 38.5702 89.6492C38.6011 89.5109 38.5952 89.3644 38.5532 89.224L39.671 88.9613Z" fill="#4D4D4D"/>
<path d="M8.44788 94.7519C7.56392 94.5214 7.02809 93.6296 7.23251 92.7451C7.23967 92.7141 7.24496 92.6826 7.24695 92.6509C7.32278 91.4449 7.47704 90.1079 8.51118 89.483C8.95463 89.2149 9.44788 89.0743 9.85005 89.1791L13.9143 90.1061C16.7482 90.7524 19.5145 91.6654 22.1763 92.8329C25.0507 94.0936 28.0464 95.0573 31.1167 95.709L35.2356 96.5833C36.1351 96.8178 36.6741 97.7372 36.4395 98.6366L36.0304 100.205C35.7959 101.105 34.8766 101.644 33.9771 101.409L26.061 99.5483L25.0779 99.1678C19.713 97.0911 14.1362 95.6102 8.44788 94.7519Z" fill="#4D4D4D"/>
<path d="M18.4572 84.7962C17.5578 84.5616 17.0187 83.6423 17.2533 82.7428L17.6624 81.1741C17.8969 80.2746 18.8163 79.7356 19.7157 79.9702L34.4438 83.9797C35.1985 84.2136 35.7317 84.6201 36.2953 86.0331L35.8862 87.6018C35.6516 88.5013 34.7323 89.0403 33.8329 88.8057L18.4572 84.7962Z" fill="#4D4D4D"/>
<path d="M11.6437 93.8741C10.9864 94.5314 9.92071 94.5314 9.26342 93.8741L8.1073 92.718C7.45001 92.0607 7.73231 90.1285 8.3896 89.4712L10.1421 87.7187L14.7192 84.1172L18.0364 80.4086C18.6937 79.7514 19.7593 79.7514 20.4166 80.4086L21.5728 81.5648C22.2301 82.2221 22.2301 83.2877 21.5728 83.945L18.0599 87.4579L14.2314 90.6396L11.6437 93.8741Z" fill="#4D4D4D"/>
<path d="M34.5962 100.029L37.8605 96.7644L38.8126 97.7165L35.5483 100.981L34.5962 100.029Z" fill="#4D4D4D"/>
<path d="M34.066 94.9833C34.2605 95.0062 34.4732 95.1943 34.6665 95.1624C34.7903 95.1421 34.8322 95.2369 34.8707 95.3563C34.9049 95.4626 34.9325 95.5318 34.8955 95.6978C34.8219 96.0283 34.663 96.3285 34.4343 96.5695C34.2055 96.8105 33.9144 96.9842 33.589 97.0741C33.2636 97.164 32.9147 97.1669 32.5758 97.0827L32.7829 95.9497C32.9247 95.9849 33.0708 95.9837 33.207 95.9461C33.3433 95.9084 33.4651 95.8357 33.5609 95.7348C33.6567 95.6339 33.7232 95.5083 33.754 95.3699C33.7848 95.2315 33.7789 95.0851 33.7369 94.9446L34.066 94.9833Z" fill="#4D4D4D"/>
<path d="M33.8302 84.5829C34.9252 84.4523 35.9659 85.0934 36.3419 86.1302L37.6675 89.7852L32.0243 88.3417L31.8148 87.538C31.4517 86.1457 32.4014 84.7531 33.8302 84.5829Z" fill="#4D4D4D"/>
<path d="M39.6323 95.6874L39.6417 95.7156L39.6416 95.6898L39.6323 95.6874Z" fill="#4D4D4D"/>
<path d="M33.5682 94.2618L33.5695 94.267L34.648 94.5428L33.5682 94.2618Z" fill="#4D4D4D"/>
<path d="M33.6754 94.6729L39.5971 96.2142C39.4098 97.2474 38.6459 98.1396 37.5495 98.4264C36.0529 98.8178 34.5225 97.9213 34.1321 96.4244L33.6754 94.6729Z" fill="#4D4D4D"/>
</svg>
