<svg width="86" height="85" viewBox="0 0 86 85" fill="none" xmlns="http://www.w3.org/2000/svg">
<path fill-rule="evenodd" clip-rule="evenodd" d="M45.4653 12.2973C44.144 11.4164 33.3118 4.89665 28.0861 1.76092C26.7951 0.908134 24.2178 0.236158 21.4218 1.63423C19.4153 2.63756 8.87282 8.59448 3.68877 11.5391C2.58258 11.94 1.75666 12.8865 1.22976 13.8828C0.574009 15.1227 0.157802 16.8071 0.0789073 19.0163C-0.0638201 23.0128 0.0194194 33.2851 0.0775149 37.8748L0.0818667 38.2186L0.17888 38.5485C0.601602 39.9859 2.08527 42.913 5.07152 44.8454C7.54458 46.4457 16.8791 51.6713 21.1531 54.0394L21.3726 54.161L21.6119 54.2366C22.3231 54.4612 23.4326 54.7171 24.5949 54.7938C25.635 54.8624 27.3018 54.8347 28.6546 53.9327C28.6546 53.9327 28.6572 53.9311 28.6627 53.9274L28.6853 53.9129C28.7048 53.9005 28.7303 53.8844 28.7625 53.8643C28.8273 53.824 28.9114 53.7722 29.0159 53.7086C29.2247 53.5816 29.5014 53.4153 29.8413 53.2126C30.5204 52.8077 31.4366 52.2663 32.5353 51.6202C34.7318 50.3285 37.6455 48.6254 40.8248 46.772C47.164 43.0767 54.5505 38.7895 59.3935 35.9885L59.3972 35.994C59.3652 36.0154 59.3466 36.0235 59.3467 36.0237C59.3467 36.0238 59.3473 36.0235 59.3485 36.0231C59.3589 36.0193 59.4146 35.9992 59.5342 35.9808C59.7339 35.9499 60.0111 35.9393 60.3544 35.962C60.9375 36.0004 61.5311 36.1218 61.9423 36.234C66.3935 38.7024 75.2417 43.6639 77.4904 45.119C79.0413 46.1226 79.9047 47.6314 80.2062 48.3627C80.2642 53.1587 80.3361 62.8324 80.2025 66.5718C80.1413 68.2853 79.8279 69.1693 79.6285 69.5463C79.6157 69.5706 79.6036 69.5923 79.5923 69.6116L79.3645 69.741C74.1803 72.6867 63.504 78.7184 61.6203 79.6603C61.0853 79.9278 60.6559 79.9577 60.3633 79.9291C60.1348 79.9068 59.9955 79.85 59.9549 79.8335C59.9469 79.8302 59.9428 79.8285 59.9425 79.829C59.9424 79.8292 59.9429 79.8296 59.944 79.8305L59.8974 79.7978L59.822 79.7526C54.5188 76.5705 43.782 70.1061 42.5865 69.3091C42.4186 69.1972 42.2138 68.9693 42.026 68.608C41.8954 68.3565 41.8154 68.1216 41.7735 67.9705V60.8821H36.7735V68.2371V68.444L36.8075 68.6481C36.9088 69.2555 37.1582 70.0839 37.5892 70.9133C38.0202 71.7427 38.72 72.7407 39.8129 73.4693C41.1343 74.3502 51.9664 80.8699 57.1921 84.0057C58.4831 84.8585 61.0604 85.5304 63.8564 84.1324C65.863 83.129 76.4054 77.1721 81.5895 74.2275C82.6957 73.8266 83.5216 72.8801 84.0485 71.8838C84.7042 70.6439 85.1204 68.9595 85.1993 66.7503C85.3421 62.7537 85.2588 52.4815 85.2007 47.8918L85.1964 47.5479L85.0994 47.2181C84.6767 45.7807 83.193 42.8536 80.2067 40.9212C77.7337 39.3209 68.3991 34.0953 64.1251 31.7272L63.9056 31.6056L63.6664 31.53C62.9551 31.3054 61.8457 31.0494 60.6834 30.9728C59.7224 30.9094 58.2267 30.9283 56.9378 31.6426L56.9335 31.6353C47.4001 37.1488 27.5774 48.6713 25.9204 49.7467C25.8985 49.754 25.8432 49.7705 25.7441 49.7858C25.5443 49.8167 25.2672 49.8273 24.9239 49.8046C24.3408 49.7662 23.7472 49.6448 23.3359 49.5326C18.8847 47.0642 10.0366 42.1027 7.78786 40.6476C6.23691 39.644 5.37353 38.1352 5.07207 37.4039C5.01409 32.6079 4.94217 22.9342 5.07572 19.1947C5.13692 17.4813 5.45034 16.5973 5.64971 16.2203C5.66257 16.196 5.67468 16.1743 5.6859 16.155L5.9137 16.0256C11.0979 13.0799 21.7743 7.04823 23.658 6.10632C24.193 5.83883 24.6224 5.80891 24.9149 5.83747C25.1434 5.85977 25.2827 5.91655 25.3233 5.93309C25.3313 5.93635 25.3355 5.93805 25.3357 5.9376C25.3358 5.93743 25.3353 5.93695 25.3343 5.93611L25.3809 5.96874L25.4563 6.01398C30.7595 9.19604 41.4963 15.6605 42.6917 16.4575C42.8596 16.5694 43.0645 16.7973 43.2522 17.1586C43.3829 17.41 43.4629 17.645 43.5047 17.7961V24.8845H48.5047V17.5295V17.3226L48.4707 17.1185C48.3695 16.511 48.12 15.6827 47.6891 14.8533C47.2581 14.0238 46.5582 13.0259 45.4653 12.2973Z" fill="white"/>
</svg>
