<svg width="343" height="229" viewBox="0 0 343 229" fill="none" xmlns="http://www.w3.org/2000/svg">
<ellipse cx="29.9993" cy="102.5" rx="12" ry="3.5" fill="white"/>
<path d="M41.9993 107C34.1447 111.146 22.7265 108.727 17.9993 107V111.711C28.0356 115.857 38.1811 113.438 41.9993 111.711V107Z" fill="white"/>
<path d="M41.9993 115C34.1447 119.738 22.7265 116.974 17.9993 115V120.384C28.0356 125.122 38.1811 122.358 41.9993 120.384V115Z" fill="white"/>
<circle cx="30" cy="112" r="28.5" stroke="white" stroke-width="3"/>
<ellipse cx="156.393" cy="126.93" rx="47.7718" ry="14.07" fill="#2387FF"/>
<path d="M108.62 99.0097H204.164V127.37H156.392H108.62V99.0097Z" fill="#2387FF"/>
<ellipse cx="156.393" cy="99.6692" rx="47.7718" ry="14.07" fill="#57A3FF"/>
<path d="M108.62 71.749H204.164V100.109H156.392H108.62V71.749Z" fill="#57A3FF"/>
<ellipse cx="156.393" cy="70.2101" rx="47.7718" ry="14.07" fill="#99C7FF"/>
<path d="M108.62 42.2899H204.164V70.6498H156.392H108.62V42.2899Z" fill="#99C7FF"/>
<ellipse cx="156.392" cy="43.2101" rx="47.7718" ry="14.07" fill="#C1DDFF"/>
<path d="M108.619 15.2899H204.163V43.6498H156.391H108.619V15.2899Z" fill="#C1DDFF"/>
<ellipse cx="156.391" cy="14.07" rx="47.7718" ry="14.07" fill="#D7E8FF"/>
<ellipse cx="117.774" cy="181.93" rx="47.7718" ry="14.07" fill="#2387FF"/>
<path d="M70.001 154.01H165.545V182.37H117.773H70.001V154.01Z" fill="#2387FF"/>
<ellipse cx="117.774" cy="154.669" rx="47.7718" ry="14.07" fill="#57A3FF"/>
<path d="M70.001 126.749H165.545V155.109H117.773H70.001V126.749Z" fill="#57A3FF"/>
<ellipse cx="117.774" cy="125.21" rx="47.7718" ry="14.07" fill="#99C7FF"/>
<path d="M70.001 97.2899H165.545V125.65H117.773H70.001V97.2899Z" fill="#99C7FF"/>
<ellipse cx="117.772" cy="97.07" rx="47.7718" ry="14.07" fill="#BDD9FF"/>
<ellipse cx="295.229" cy="181.93" rx="47.7718" ry="14.07" fill="#2387FF"/>
<path d="M247.456 154.01H343V182.37H295.228H247.456V154.01Z" fill="#2387FF"/>
<ellipse cx="295.229" cy="154.669" rx="47.7718" ry="14.07" fill="#57A3FF"/>
<path d="M247.456 126.749H343V155.109H295.228H247.456V126.749Z" fill="#57A3FF"/>
<ellipse cx="295.229" cy="125.21" rx="47.7718" ry="14.07" fill="#99C7FF"/>
<path d="M247.456 97.2899H343V125.65H295.228H247.456V97.2899Z" fill="#99C7FF"/>
<ellipse cx="295.227" cy="97.07" rx="47.7718" ry="14.07" fill="#BDD9FF"/>
<ellipse cx="153.416" cy="214.93" rx="47.7718" ry="14.07" fill="#2387FF"/>
<path d="M105.644 187.01H201.187V215.37H153.415H105.644V187.01Z" fill="#2387FF"/>
<ellipse cx="153.416" cy="187.669" rx="47.7718" ry="14.07" fill="#57A3FF"/>
<path d="M105.644 159.749H201.187V188.109H153.415H105.644V159.749Z" fill="#57A3FF"/>
<ellipse cx="153.414" cy="159.07" rx="47.7718" ry="14.07" fill="#BDD9FF"/>
<path d="M239.737 152.24V159.594H210.499V152.24H239.737ZM229.132 140.668V171.723H221.134V140.668H229.132Z" fill="white"/>
</svg>
