<svg width="329" height="415" viewBox="0 0 329 415" fill="none" xmlns="http://www.w3.org/2000/svg">
<ellipse cx="163.208" cy="20.5262" rx="12.0153" ry="3.50447" fill="white"/>
<path d="M175.224 25.032C167.359 29.1829 155.926 26.7615 151.193 25.032V29.749C161.242 33.8999 171.4 31.4785 175.224 29.749V25.032Z" fill="white"/>
<path d="M175.224 33.0421C167.359 37.7861 155.926 35.0188 151.193 33.0421V38.433C161.242 43.1769 171.4 40.4096 175.224 38.433V33.0421Z" fill="white"/>
<circle cx="163.208" cy="30.0383" r="28.5383" stroke="white" stroke-width="3"/>
<path d="M179.196 381.62C179.196 381.62 181.72 386.333 183.54 387.154C187.329 388.857 198.252 392.119 199.269 392.492C199.937 392.73 201.057 393.561 201.024 394.788C201.054 395.224 200.934 395.657 200.683 396.015C199.605 397.578 197.356 398.161 195.308 398.656C189.709 400.004 173.34 396.421 172.827 396.024C172.827 396.024 171.152 395.665 170.746 396.491C170.596 396.79 170.685 397.942 170.652 397.956L164.745 396.01C164.451 395.866 163.849 393.033 163.695 391.783L163.928 383.645L179.196 381.62Z" fill="#4C2925"/>
<path d="M200.712 395.339C199.312 397.116 197.189 397.774 195.113 398.19C188.38 399.552 172.632 395.73 172.632 395.73C171.283 395.553 170.723 396.029 170.635 396.832V397.952C170.695 397.952 172.501 396.715 172.501 396.71C172.501 396.706 187.293 400.49 193.923 399.767C196.009 399.524 199.522 398.278 200.764 396.351C200.919 396.091 201.018 395.802 201.054 395.501C201.091 395.2 201.063 394.895 200.974 394.606C200.9 394.855 200.813 395.099 200.712 395.339Z" fill="#261412"/>
<path d="M190.271 227.937L191.624 225.728L190.908 223.567C190.766 223.139 190.693 222.691 190.692 222.24C190.692 222.24 191.09 220.552 190.731 218.974C190.574 218.285 190.887 217.6 190.997 217.091C191.121 216.525 191.17 215.945 191.145 215.365L191.077 213.79C191.063 213.465 191.342 213.204 191.666 213.24C192.334 213.315 192.913 213.737 193.187 214.351C193.601 215.274 193.836 216.265 193.884 217.275L193.905 217.72C193.925 218.161 194.272 218.519 194.714 218.551L196.562 215.463C197.979 212.528 200.932 212.95 199.561 215.82C199.526 215.894 199.563 215.981 199.64 216.007C199.696 216.025 199.758 216.006 199.792 215.959C201.75 213.24 203.041 215.959 202.203 217.402C202.169 217.456 202.177 217.527 202.223 217.571L202.307 217.652C205.874 214.351 204.306 219.277 204.084 219.782C204.054 219.825 204.052 219.881 204.078 219.926L204.152 220.053C207.942 217.275 205.993 221.808 205.182 222.502L200.408 229.029C200.055 229.435 199.601 229.74 199.09 229.909L198.484 230.11L197.156 232.181C196.866 232.763 196.186 233.034 195.577 232.81C193.931 232.21 192.92 230.869 191.624 229.69L190.692 228.822C190.235 228.406 189.948 228.459 190.271 227.937Z" fill="url(#paint0_linear_4091_24339)"/>
<path d="M193.248 227.795C192.021 226.96 191.625 225.728 191.625 225.728L190.927 226.866C191.425 226.753 192.571 227.465 193.248 227.795Z" fill="#F9B489"/>
<path d="M196.354 229.737C196.938 230.163 198.164 230.413 198.021 230.828L198.482 230.108C198.482 230.108 197.668 230.312 196.354 229.737Z" fill="#F9B489"/>
<path d="M197.673 224.709C197.644 225.254 199.565 222.257 198.053 219.807C197.556 219.003 195.959 217.625 195.891 216.583L194.714 218.551C194.551 218.539 194.401 218.482 194.275 218.393C194.897 218.684 197.875 220.908 197.673 224.709Z" fill="#F9B489"/>
<path d="M205.231 222.439C205.393 222.249 205.649 221.941 205.959 221.563C204.657 222.517 204.235 220.312 204.429 219.756L204.148 220.051L204.075 219.924C204.048 219.879 204.05 219.823 204.08 219.78C204.147 219.683 204.281 219.49 204.462 219.226C203.451 219.949 202.262 218.225 202.651 217.197L202.303 217.651L202.219 217.57C202.173 217.526 202.165 217.455 202.199 217.401L202.442 217.017C202.442 217.017 202.12 217.274 201.669 217.214C200.992 217.123 199.995 216.573 200.035 215.62L199.789 215.957C199.754 216.005 199.693 216.024 199.638 216.006C199.56 215.98 199.522 215.893 199.558 215.819L199.749 215.416C199.203 216.012 197.296 215.206 197.082 214.568L196.896 214.885C198.377 215.458 200.616 216.59 202.044 217.98C204.167 220.044 205.227 222.434 205.231 222.439Z" fill="#F9B489"/>
<path d="M160.615 230.15L146.784 216.152C146.784 216.152 142.384 210.24 144.918 201.627C146.784 195.323 159.826 199.219 163.386 204.426C165.197 207.072 174.193 220.641 174.193 220.641C174.193 220.641 170.805 216.768 163.134 223.371C158.786 227.103 160.615 230.15 160.615 230.15Z" fill="#EA7424"/>
<path d="M180.726 235.806C177.715 230.18 175.593 221.108 172.093 217.608L156.229 225.774C159.65 230.906 167.847 242.665 173.26 248.638C178.673 254.61 183.914 251.748 185.858 249.571L197.057 233.939C196.31 229.833 191.302 227.407 188.891 226.707L180.726 235.806Z" fill="#EA7424"/>
<path d="M155.443 252.342L138.543 255.081V264.46C138.543 264.46 138.286 267.26 142.331 266.793C146.377 266.326 151.771 265.197 153.637 264.46C155.504 263.723 155.443 261.105 155.443 261.105V252.342Z" fill="#414042"/>
<path d="M87.9694 168.847L93.1908 165.814C94.2686 179.024 98.7901 193.055 105.696 205.994L100.475 209.027C93.5827 196.088 89.0473 182.057 87.9694 168.847Z" fill="#BCBEC0"/>
<path d="M89.7898 166.859L95.0111 163.826C95.0111 164.708 94.6985 165.329 94.1946 165.618L88.9779 168.651C89.4771 168.362 89.7898 167.718 89.7898 166.859Z" fill="#6F7071"/>
<path d="M80.7554 153.393L85.9768 150.36C86.4854 150.062 87.19 150.104 87.9692 150.552L82.7478 153.589C81.9686 153.123 81.264 153.095 80.7554 153.393Z" fill="#BCBEC0"/>
<path d="M89.8064 160.887L95.0277 157.854L95.009 163.826L89.7877 166.859L89.8064 160.887Z" fill="#6F7071"/>
<path d="M88.0071 156.832L93.2284 153.799C94.308 154.883 94.9493 156.327 95.0295 157.854L89.8082 160.887C89.7271 159.36 89.0859 157.916 88.0071 156.832Z" fill="#6F7071"/>
<path d="M100.709 131.196L105.93 128.163C98.9918 133.114 94.3864 141.872 93.2432 153.799L88.0218 156.832C89.165 144.905 93.7658 136.147 100.709 131.196Z" fill="#BCBEC0"/>
<path d="M94.2874 133.553L99.5088 130.52C101.494 129.38 103.661 128.59 105.915 128.187L100.703 131.197C98.4502 131.603 96.2833 132.392 94.2968 133.53L94.2874 133.553Z" fill="#BCBEC0"/>
<path d="M89.7898 166.86C89.7898 168.236 89.0293 168.973 87.97 168.824C89.0479 182.034 93.5694 196.065 100.475 209.004C90.9704 196.223 84.3118 180.583 82.772 166.038C81.9439 165.51 81.2534 164.793 80.7577 163.945C80.2619 163.097 79.9751 162.143 79.9211 161.162V155.19C79.9211 153.412 81.1902 152.693 82.7207 153.589C84.3958 140.897 91.1197 132.984 100.666 131.192C93.7233 136.143 89.1226 144.901 87.9794 156.827C89.0582 157.911 89.6994 159.355 89.7805 160.882L89.7898 166.86Z" fill="#A5A6A8"/>
<path d="M90.8435 159.613L94.2125 157.653L222.735 231.979L219.362 233.939L90.8435 159.613Z" fill="#C49A6C"/>
<path d="M219.361 233.939L222.734 231.979C223.446 232.442 224.039 233.066 224.463 233.802C224.887 234.537 225.131 235.363 225.175 236.211C225.204 236.513 225.154 236.817 225.028 237.093C224.903 237.369 224.707 237.607 224.461 237.784L221.087 239.743C221.335 239.567 221.531 239.328 221.657 239.051C221.782 238.774 221.832 238.469 221.801 238.166C221.756 237.319 221.512 236.495 221.088 235.76C220.664 235.025 220.072 234.401 219.361 233.939Z" fill="#C49A6C"/>
<path d="M219.359 233.939L90.8412 159.613V165.254L219.345 239.571C220.698 240.355 221.8 239.72 221.8 238.171C221.756 237.323 221.512 236.498 221.087 235.762C220.663 235.027 220.071 234.402 219.359 233.939Z" fill="#AC875F"/>
<path d="M139.691 287.096C144.04 281.148 161.934 276.251 162.243 276.657C168.754 285.686 172.913 292.541 177.238 301.618C179.163 305.631 180.493 309.859 181.8 314.086C183.274 318.816 187.337 326.125 188.193 330.974C188.811 334.509 188.182 336.031 185.858 347.092C182.479 359.14 182.143 366.509 180.184 367.495C179.709 367.758 172.366 371.532 168.659 370.098C164.405 368.45 162.338 366.754 160.151 362.288C156.682 355.265 160.722 346.189 161.34 338.45C161.482 336.611 163.859 335.034 163.977 334.533C162.504 334.342 160.27 334.055 159.462 332.67C158.583 331.141 159.843 330.185 158.179 329.063C156.777 328.107 154.092 326.77 152.808 325.671C146.915 320.679 142.328 315.042 139.667 308.019C137.291 301.69 135.318 293.067 139.691 287.096Z" fill="#EA7424"/>
<path d="M157.629 354.323C159.496 359.176 162.762 376.098 164.162 383.952C169.917 386.285 181.146 389.318 180.027 382.786C178.907 376.253 182.671 359.533 184.693 351.99C177.974 357.029 163.851 355.645 157.629 354.323Z" fill="#4C2925"/>
<path d="M178.943 305.563C167.133 302.724 161.815 309.805 150.395 310.696V315.362C162.672 313.82 168.741 306.671 180.491 310.23L178.943 305.563Z" fill="#FFA93A"/>
<path d="M181.424 313.263C168.791 310.477 162.844 317.377 150.628 318.252V322.828C163.761 321.316 170.487 314.205 183.057 317.695L181.424 313.263Z" fill="#FFA93A"/>
<path d="M128.75 353.473C126.121 350.547 128.558 348.284 130.422 347.286C129.161 344.845 128.749 343.384 127.448 339.563C125.721 334.469 127.173 329.908 128.046 324.742C125.81 317.693 121.928 311.54 121.777 304.105C121.684 299.986 119.314 288.27 120.941 278.003C121.598 273.794 145.307 270.265 146.195 272.901C147.564 276.896 151.02 284.672 152.008 289.232C153.267 295.021 152.331 299.02 151.094 304.864C150.725 306.628 151.81 327.098 152.008 330.646C152.307 336.119 153.387 347.869 149.973 351.526C151.071 352.33 152.114 353.326 152.112 354.573C152.116 355.865 151.245 356.136 150.683 357.052C149.328 359.313 150.791 362.947 150.984 365.757C151.288 369.867 151.729 374.646 148.761 375.788C149.021 379.605 139.37 389.52 128.954 379.324C123.928 374.729 127.909 356.325 128.75 353.473Z" fill="#F48337"/>
<path d="M136.316 398.88C136.316 398.88 135.126 401.568 136.736 405.641C136.736 405.641 138.677 407.153 138.985 407.461C140.795 409.271 147.328 414.74 152.726 414.983C158.62 415.258 161.545 412.234 160.892 409.383C160.575 407.914 150.627 394.83 150.627 394.83L136.316 398.88Z" fill="#4C2925"/>
<path d="M134.763 395.618L127.297 375.321C138.309 378.68 147.906 372.521 151.327 369.022C151.405 375.787 149.461 389.552 149.461 391.652C149.461 393.49 150.316 394.452 150.628 394.918C146.506 396.396 137.594 399.839 136.163 398.885C134.763 397.951 134.763 397.018 134.763 395.618Z" fill="#4C2925"/>
<path d="M111.129 225.512C109.538 215.401 112.921 208.439 119.785 206.134C121.394 205.593 125.893 202.966 131.683 201.612C139.937 199.685 149.624 199.555 149.624 199.555C154.012 203.76 157.332 208.953 159.306 214.701C162.613 219.753 169.26 234.329 162.549 276.097C162.391 280.833 153.894 282.233 142.863 281.846C133.76 281.552 122.225 280.171 121.866 277.11C120.695 267.302 113.327 239.487 111.129 225.512Z" fill="#F48337"/>
<path d="M134.659 189.668C132.091 189.664 127.521 189.783 127.082 192.832C126.614 195.876 130.118 199.798 130.118 199.798C130.118 199.798 134.532 192.896 134.659 189.668Z" fill="#E5650E"/>
<path d="M144.893 194.749C144.893 194.749 146.637 197.24 147.15 199.427C147.704 201.825 146.969 203.961 146.544 204.994C144.845 209.1 140.852 210.162 140.852 210.162C140.852 210.162 141.9 208.77 142.09 206.519C142.236 205.005 141.52 202.657 141.679 201.683C142.133 198.603 140.482 194.768 140.482 194.768L144.893 194.749Z" fill="#E5650E"/>
<path d="M139.115 200.848C139.115 200.848 140.642 200.909 141.141 200.761C141.624 200.616 141.977 199.456 141.977 199.456C141.977 199.456 147.088 198.869 147.326 196.984C147.564 195.098 147.631 193.218 147.939 192.218C149.323 187.491 147.803 182.301 149.163 177.602C149.718 175.759 148.744 158.15 132.872 160.707C117.001 163.264 123.952 180.146 123.952 180.146C123.952 180.146 122.842 180.82 123.806 182.98C124.771 185.14 124.952 185.365 125.433 186.429C125.915 187.509 126.181 188.203 127.299 188.968L127.797 191.007C127.797 191.007 128.315 193.588 129.726 197.115C132.066 199.974 139.115 200.848 139.115 200.848Z" fill="#E7C796"/>
<path d="M147.829 168.823C147.829 168.823 143.776 166.303 138.086 165.021C132.396 163.739 133.99 170.304 132.412 171.801C131.214 172.934 131.613 175.896 131.877 177.252C131.96 177.705 131.906 178.192 131.703 178.6L130.371 181.306C130.218 181.607 130.148 181.948 130.171 182.292L130.689 187.932C130.708 188.376 130.424 188.761 130.012 188.848L129.645 188.912C129.233 188.998 128.828 188.736 128.701 188.306L127.552 181.92C127.552 181.92 125.867 178.645 123.298 180.353C123.298 180.353 121.187 177.994 121.155 172.368C121.123 166.742 122.822 160.676 132.964 158.416C143.109 156.171 147.829 168.823 147.829 168.823Z" fill="#551400"/>
<path d="M128.81 188.579C130.167 200.498 142.424 199.662 142.424 199.662C142.424 199.662 141.88 202.569 141.016 203.005C140.92 203.04 140.798 203.083 140.66 203.132C139.062 203.699 137.488 204.368 135.833 204.722C134.01 205.111 131.608 205.216 130.278 203.607C128.797 193.907 127.794 191.378 127.794 191.378L127.407 189.186C128.879 189.492 128.81 188.579 128.81 188.579Z" fill="#CBA57B"/>
<path d="M126.311 200.565C126.549 200.062 126.846 197.175 127.268 194.602C130.229 199.176 134.326 200.458 137.583 202.822C140.266 204.775 143.672 208.79 143.339 211.897C139.467 211.262 134.948 208.917 131.16 206.691C128.057 204.872 125.808 201.612 126.311 200.565Z" fill="#E5650E"/>
<path d="M128.574 187.52L128.249 184.666L128.095 183.314C128.011 183.081 127.732 182.268 127.137 181.838C125.257 180.482 124.984 182.499 125.307 183.448C125.709 183.944 126.037 186.071 126.151 187.073C126.578 188.298 127.945 187.882 128.574 187.52Z" fill="#CBA57B"/>
<path d="M120.437 168.482C121.041 166.639 122.384 165.16 123.892 164.043L123.936 163.959L123.894 163.932C123.142 164.002 122.379 164.106 121.689 164.433C120.998 164.759 121.303 165.192 121.086 165.959C121.208 164.548 121.474 163.616 122.743 163.168C124.012 162.72 125.378 162.761 126.712 162.666C126.712 162.666 126.733 162.604 126.768 162.512C126.412 162.498 126.048 162.349 125.702 162.231C124.914 161.963 124.078 161.85 123.251 161.904C123.974 161.79 124.536 161.183 125.225 160.921C125.962 160.641 126.831 160.8 127.436 161.327C127.328 160.206 127.862 159.04 128.764 158.44C128.152 159.18 127.972 160.292 128.311 161.206C128.385 160.642 128.675 160.118 129.049 159.701C129.475 159.225 130.003 158.868 130.528 158.517C131.415 157.921 132.303 157.324 133.19 156.728C132.824 157.176 132.455 157.629 132.211 158.16C131.971 158.684 131.868 159.301 132.041 159.852C132.535 158.639 133.48 157.632 134.634 157.128C135.656 156.682 136.82 156.611 137.771 156.014C138.553 155.523 139.135 154.683 139.342 153.742C139.474 154.766 139.266 155.836 138.768 156.722C138.808 156.701 138.85 156.682 138.893 156.662C143.25 154.294 150.016 158.494 146.777 159.578L146.32 159.548C148.241 159.966 148.535 161.292 149.783 162.926C151.441 165.094 150.109 166.227 150.483 168.992C149.797 167.684 152.385 168.152 151.142 167.441L151.155 167.474C151.6 168.369 151.709 169.421 151.626 170.431C151.546 171.441 151.284 172.423 151.024 173.401C150.865 174.002 150.698 174.62 150.347 175.121C150.33 174.262 150.161 173.407 149.855 172.611C149.71 173.774 149.402 174.926 149.047 176.04C149.06 175.447 148.992 174.85 148.853 174.277L148.909 174.769C148.578 175.565 148.383 176.424 148.341 177.292C148.167 176.721 147.992 176.138 147.989 175.535C147.989 175.229 148.032 174.924 148.076 174.622C148.144 174.154 148.21 173.688 148.279 173.221C148.279 173.221 148.299 173.052 148.333 172.838C148.209 172.59 148.071 172.35 147.919 172.121C146.682 170.26 144.607 169.18 143.329 167.359C143.463 168.548 143.216 169.8 142.75 170.906C142.1 172.443 141.059 173.755 140.026 175.036C140.443 173.478 139.908 171.805 139.142 170.405C138.377 169.006 137.378 167.747 136.744 166.275L137.142 167.239C137.373 168.275 137.435 169.386 137.107 170.393C136.778 171.4 136.002 172.286 135.019 172.504C135.316 172.327 135.5 171.997 135.629 171.662C135.898 170.969 135.984 170.2 135.88 169.461L135.718 169.853C135.079 173.49 131.022 175.633 130.45 179.283L130.587 179.634C130.463 180.845 130.742 182.096 131.362 183.118C131.504 183.353 131.673 183.582 131.909 183.705C131.112 183.71 130.324 183.289 129.853 182.607L129.857 182.565L129.851 182.568L129.854 182.609L129.827 182.58L129.812 182.587C129.74 182.965 129.568 183.321 129.312 183.596C129.263 182.895 128.852 182.279 128.371 181.793C127.89 181.31 127.331 180.92 126.855 180.431C126.67 180.243 126.499 180.033 126.353 179.806C125.758 179.671 125.136 179.662 124.538 179.786C124.39 179.149 124.159 178.532 123.859 177.958L123.812 177.66L123.748 177.729C123.04 177.404 122.508 176.734 122.184 175.991C121.861 175.248 121.724 174.43 121.627 173.616C121.519 172.706 121.458 171.791 121.441 170.875C120.89 171.777 120.875 173.013 121.402 173.928C120.091 172.558 119.83 170.322 120.437 168.482Z" fill="#734130"/>
<path d="M128.197 158.934C128.362 158.743 128.552 158.575 128.757 158.436C128.144 159.176 127.965 160.288 128.304 161.202C128.378 160.638 128.668 160.114 129.042 159.697C129.053 159.684 129.065 159.674 129.077 159.661C128.645 160.691 128.44 161.829 128.241 162.944C127.502 161.769 127.509 160.136 128.197 158.934ZM132.206 158.156C131.966 158.68 131.862 159.297 132.036 159.847C132.263 159.286 132.589 158.772 132.983 158.329C132.791 158.755 132.626 159.193 132.433 159.619C131.935 160.733 131.269 161.766 130.472 162.664C130.436 161.641 130.404 160.584 130.754 159.629C131.194 158.426 132.172 157.557 133.135 156.758C133.151 156.746 133.167 156.735 133.185 156.724C132.819 157.169 132.449 157.625 132.206 158.156ZM126.44 162.683C126.528 162.678 126.617 162.671 126.707 162.664C126.707 162.664 126.728 162.602 126.763 162.51C126.408 162.496 126.043 162.347 125.698 162.229C125.11 162.029 124.498 161.915 123.881 161.894C124.045 161.826 124.209 161.757 124.372 161.689C124.619 161.586 124.87 161.482 125.132 161.441C126.092 161.291 126.966 161.984 127.714 162.637C127.29 162.713 126.865 162.717 126.44 162.683ZM138.886 156.658C138.938 156.635 138.99 156.615 139.041 156.592C137.89 157.506 137.024 158.839 136.21 160.123C135.848 159.15 136.102 157.954 136.821 157.235C137.233 156.824 137.762 156.574 138.197 156.193C138.842 155.626 139.248 154.767 139.302 153.883C139.314 153.835 139.327 153.785 139.337 153.738C139.469 154.761 139.261 155.831 138.762 156.718C138.801 156.697 138.845 156.677 138.886 156.658ZM146.313 159.544C148.192 159.954 148.304 160.88 149.548 162.46C148.479 161.5 148.868 161.024 147.543 160.545C145.149 159.679 142.475 159.706 140.093 160.618C140.758 159.406 141.481 158.133 142.656 157.488C143.68 156.925 144.919 156.932 146.024 157.279C147.215 157.56 147.681 158.727 146.313 159.544ZM120.699 170.632C120.751 170.464 120.815 170.302 120.884 170.141C121.235 168.709 122.121 167.447 123.245 166.563C124.452 165.612 125.915 165.076 127.403 164.849C126.915 165.276 126.534 165.839 126.306 166.465C126.914 165.891 127.746 165.594 128.555 165.664C129.441 165.74 130.259 166.228 131.145 166.322C132.431 166.459 133.753 165.655 134.309 164.42C134.487 163.738 134.421 162.943 133.973 162.421C134.246 162.475 134.517 162.544 134.786 162.622L134.814 162.505C134.835 162.553 134.855 162.599 134.871 162.647C137.524 163.438 139.875 165.288 141.415 167.711C141.344 167.282 141.24 166.861 141.096 166.453C140.461 164.657 139.101 163.257 137.641 162.122C139.51 162.082 141.385 162.799 142.8 164.091C144.017 165.204 144.878 166.697 146.039 167.875C146.616 168.461 147.264 168.964 147.839 169.55C148.352 170.073 148.808 170.66 149.193 171.297C149.146 171.054 149.094 170.814 149.034 170.573C148.321 167.721 146.567 165.283 144.608 163.189C148.59 163.657 148.627 163.168 150.338 167.003C150.168 166.707 149.979 166.425 149.772 166.155C149.77 166.153 149.77 166.151 149.767 166.149C149.719 166.084 149.668 166.021 149.616 165.959C149.613 165.955 149.61 165.95 149.605 165.946C149.555 165.884 149.502 165.824 149.45 165.764C149.447 165.76 149.443 165.756 149.44 165.751C149.387 165.692 149.333 165.632 149.279 165.574C149.276 165.572 149.274 165.568 149.269 165.566C149.212 165.507 149.156 165.448 149.099 165.39C149.099 165.39 149.099 165.388 149.097 165.389C148.979 165.273 148.86 165.159 148.735 165.051C148.732 165.049 148.728 165.045 148.725 165.043C148.667 164.993 148.607 164.941 148.547 164.893C148.54 164.887 148.535 164.883 148.528 164.877C148.471 164.83 148.411 164.784 151.979 168.004C151.97 167.998 151.962 167.99 151.953 167.984C151.894 167.939 151.834 167.896 151.775 167.853C151.766 167.847 151.756 167.84 151.749 167.834C151.69 167.791 151.629 167.748 151.568 167.707C151.558 167.702 151.551 167.696 151.542 167.692C151.479 167.65 151.415 167.61 151.352 167.57C151.347 167.566 151.34 167.562 151.336 167.558C151.268 167.516 151.2 167.477 151.133 167.437L151.145 167.47C151.59 168.365 151.699 169.417 151.617 170.427C151.536 171.437 151.275 172.419 151.015 173.397C150.855 173.998 150.689 174.616 150.338 175.117C150.32 174.258 150.151 173.403 149.846 172.607C149.7 173.77 149.393 174.922 149.038 176.037C149.051 175.443 148.983 174.846 148.843 174.273L148.899 174.765C148.569 175.561 148.374 176.42 148.331 177.289C148.158 176.717 147.983 176.134 147.979 175.532C147.979 175.225 148.023 174.92 148.066 174.618C148.135 174.151 148.201 173.684 148.269 173.217C148.269 173.217 148.289 173.049 148.324 172.835C148.2 172.586 148.062 172.346 147.91 172.117C146.673 170.256 144.598 169.176 143.32 167.355C143.453 168.544 143.207 169.796 142.74 170.902C142.09 172.44 141.05 173.751 140.017 175.032C140.434 173.474 139.898 171.801 139.133 170.401C138.368 169.002 137.369 167.743 136.735 166.271L137.133 167.235C137.364 168.271 137.425 169.382 137.097 170.389C136.769 171.397 135.993 172.282 135.01 172.5C135.307 172.323 135.491 171.993 135.62 171.659C135.888 170.965 135.974 170.197 135.871 169.457L135.709 169.849C135.07 173.487 131.013 175.629 130.44 179.279L130.578 179.63C130.453 180.841 130.733 182.092 131.353 183.114C131.495 183.349 131.664 183.578 131.899 183.702C131.103 183.706 130.315 183.286 129.844 182.603L129.848 182.561L129.842 182.564L129.844 182.605L129.817 182.577L129.803 182.583C129.731 182.961 129.558 183.317 129.303 183.592C129.254 182.892 128.843 182.275 128.362 181.789C127.881 181.306 127.322 180.916 126.845 180.427C126.661 180.24 126.489 180.029 126.344 179.802C125.749 179.667 125.127 179.658 124.529 179.782C124.38 179.145 124.149 178.528 123.849 177.954L123.802 177.657L123.739 177.725C123.031 177.4 122.498 176.73 122.175 175.987C121.851 175.244 121.715 174.426 121.618 173.612C121.51 172.703 121.449 171.787 121.432 170.871C120.881 171.773 120.865 173.01 121.393 173.924C121.356 173.885 121.321 173.848 121.286 173.809C121.276 173.799 121.266 173.786 121.256 173.776C121.229 173.745 121.204 173.712 121.176 173.681C121.168 173.67 121.161 173.662 121.153 173.651C121.123 173.612 121.092 173.572 121.061 173.532C121.051 173.52 121.041 173.505 121.033 173.492C121.012 173.462 120.992 173.435 120.973 173.405C120.963 173.388 120.952 173.374 120.939 173.357C120.916 173.321 120.892 173.282 120.868 173.246C120.855 173.225 120.844 173.203 120.831 173.184C120.815 173.159 120.801 173.135 120.788 173.109C120.774 173.086 120.761 173.065 120.749 173.041C120.738 173.019 120.727 173 120.716 172.978C120.691 172.931 120.666 172.883 120.643 172.836C120.637 172.82 120.629 172.808 120.624 172.795C120.609 172.764 120.595 172.734 120.583 172.703C120.577 172.69 120.571 172.677 120.565 172.664C120.521 172.561 120.479 172.456 120.44 172.349C120.437 172.34 120.434 172.333 120.431 172.325C120.418 172.287 120.405 172.252 120.395 172.214C120.448 171.673 120.535 171.144 120.699 170.632ZM121.351 167.396C120.961 167.906 120.618 168.455 120.284 169.01C120.324 168.832 120.374 168.655 120.432 168.482C121.037 166.64 122.379 165.16 123.887 164.043L123.932 163.959L123.89 163.932C123.138 164.002 122.374 164.106 121.684 164.433C121.161 164.68 121.38 164.98 121.085 165.493C121.413 164.58 121.481 163.943 122.355 163.591C123.455 163.148 124.685 163.228 125.828 163.522C124.202 164.638 122.567 165.801 121.351 167.396Z" fill="#734130"/>
<path d="M141.343 156.44C141.222 156.451 141.1 156.463 140.978 156.476C141.097 156.456 141.219 156.445 141.343 156.44ZM136.483 160.023C136.379 160.14 136.267 160.246 136.141 160.341L136.483 160.023ZM137.261 159.3L136.483 160.023C137.115 159.317 137.401 158.264 138.071 157.569C138.822 156.79 139.917 156.586 140.978 156.476C140.021 156.639 139.183 157.342 138.536 158.128C138.16 158.585 137.798 159.099 137.261 159.3ZM147.035 161.234C149.683 162.025 147.916 163.64 148.442 166.503C147.643 164.843 150.501 164.162 149.261 162.842L147.035 161.234ZM133.937 158.792C133.654 159.246 133.413 159.758 132.984 160.051L131.392 162.072C131.714 161.275 132.036 160.478 132.36 159.681C132.526 159.27 132.697 158.849 132.981 158.516C133.27 158.177 133.656 157.949 134.046 157.751C134.516 157.513 135.003 157.307 135.501 157.139C134.88 157.574 134.345 158.138 133.937 158.792ZM125.655 163.15C125.697 163.196 125.698 163.287 125.642 163.311L125.992 163.351C125.597 163.407 125.184 163.324 124.833 163.121C125.048 163.084 125.268 163.074 125.485 163.092C125.546 163.095 125.61 163.105 125.655 163.15ZM128.183 162.778L127.527 163.347C127.693 162.939 127.86 162.53 128.026 162.122C128.433 161.123 128.867 160.086 129.656 159.389C129.206 159.993 128.873 160.697 128.686 161.44C128.571 161.911 128.499 162.424 128.183 162.778ZM125.258 161.12C125.794 160.959 126.418 161.389 126.495 161.973L126.372 161.747C125.999 161.54 125.63 161.33 125.258 161.12ZM131.429 164.167C131.421 164.17 131.412 164.174 131.402 164.179C131.766 163.805 132.127 163.432 132.49 163.055L131.429 164.167ZM131.402 164.179C131.181 164.409 130.961 164.635 130.74 164.864C130.557 165.054 130.368 165.246 130.13 165.346C129.851 165.465 129.539 165.441 129.241 165.415C128.645 165.366 128.051 165.314 127.454 165.265C128.813 165.123 130.15 164.754 131.402 164.179ZM139.102 165.02L139.397 165.423C138.291 164.439 137.184 163.454 136.08 162.47C137.326 162.906 138.419 163.828 139.102 165.02ZM128.872 162.387C129.115 162.842 129.416 163.33 129.893 163.454C130.341 163.571 130.811 163.321 131.134 162.973C131.46 162.625 131.681 162.186 131.958 161.796C132.525 160.999 133.341 160.405 134.246 160.129C134.292 160.864 135.211 161.189 135.871 160.961C136.531 160.73 137.038 160.172 137.647 159.812C137.862 159.685 138.122 159.582 138.351 159.681C138.673 159.821 138.738 160.26 138.835 160.615C138.932 160.971 139.258 161.362 139.566 161.186L141.938 160.698C141.19 161.447 140.019 161.364 139 161.225C137.978 161.086 136.814 160.986 136.051 161.718C135.914 161.849 135.786 162.008 135.611 162.068C135.383 162.143 135.142 162.029 134.915 161.948C134.069 161.646 133.116 161.82 132.318 162.246C131.517 162.673 130.849 163.33 130.24 164.024C130.109 164.172 129.973 164.33 129.792 164.402C129.394 164.562 128.979 164.259 128.586 164.087C127.967 163.815 127.228 163.872 126.651 164.237C126.981 163.832 127.518 163.726 127.987 163.534C128.455 163.339 128.944 162.917 128.872 162.387ZM143.078 160.695C143.642 160.537 144.24 160.621 144.807 160.759C147.152 161.329 149.272 162.866 150.626 164.972C149.339 163.47 147.505 162.582 145.624 162.195C143.743 161.811 141.805 161.892 139.897 162.085L141.363 161.846C141.876 161.372 142.417 160.88 143.078 160.695ZM147.162 168.93L148.037 170.09C145.803 167.716 143.667 165.235 141.639 162.662C143.982 164.154 145.919 166.35 147.162 168.93ZM150.101 165.148L151.532 166.673C149.686 164.99 147.51 163.714 145.183 162.953C146.966 163.297 148.87 163.74 150.101 165.148ZM123.884 164.916C124.098 164.732 124.322 164.55 124.582 164.443C124.839 164.336 125.137 164.309 125.39 164.428L126.199 164.19C125.755 164.374 125.313 164.558 124.87 164.742C124.229 165.009 123.576 165.28 123.035 165.731C123.304 165.445 123.588 165.173 123.884 164.916Z" fill="url(#paint1_radial_4091_24339)"/>
<path d="M137.274 160.963C137.679 160.627 138.081 160.291 138.486 159.956C138.53 159.92 138.58 159.881 138.633 159.891C138.693 159.901 138.728 159.964 138.758 160.017C138.858 160.207 138.955 160.397 139.055 160.586L139.167 160.692C138.528 160.664 137.884 160.755 137.274 160.963ZM136.421 161.216L136.797 160.889C136.66 161.102 136.505 161.302 136.333 161.485C136.267 161.556 136.195 161.628 136.108 161.667C135.932 161.747 135.722 161.689 135.567 161.569C135.412 161.448 135.301 161.279 135.195 161.11C135.555 161.349 136.026 161.389 136.421 161.216ZM134.532 160.543C134.62 160.554 134.711 160.593 134.757 160.672C134.792 160.73 134.796 160.803 134.806 160.871C134.834 161.065 134.914 161.251 135.031 161.403L135.055 161.458C134.366 161.317 133.628 161.454 133.024 161.837C133.201 161.613 133.377 161.39 133.556 161.167C133.812 160.843 134.139 160.49 134.532 160.543ZM133.716 158.51C134.062 158.133 134.565 157.976 134.988 157.702C134.083 158.266 133.807 159.516 133.087 160.325L132.47 161.655C132.691 160.952 132.924 160.254 133.171 159.561C133.304 159.182 133.451 158.797 133.716 158.51ZM129.889 163.309C130.026 163.368 130.141 163.475 130.272 163.543C130.487 163.653 130.746 163.659 130.964 163.555L131.121 163.387C130.813 163.811 130.246 163.998 129.767 163.834C129.439 163.722 129.119 163.462 128.787 163.561C129.127 163.36 129.529 163.154 129.889 163.309ZM131.253 164.417C131.017 164.991 130.327 165.304 129.773 165.086C130.193 165.02 130.602 164.877 130.977 164.66L131.253 164.417ZM125.709 164.409L124.69 164.979C124.955 164.65 125.319 164.285 125.709 164.409ZM144.966 160.991C145.641 161.062 146.293 161.279 146.939 161.502C147.818 161.804 148.72 162.134 149.421 162.775L149.109 162.707C147.233 161.694 145.096 161.221 142.992 161.353C143.586 161.004 144.291 160.922 144.966 160.991ZM148.575 162.579L149.612 163.505C148.02 162.202 145.906 161.921 143.903 161.689C145.497 161.597 147.111 161.903 148.575 162.579ZM150.798 165.412C149.831 164.702 148.823 164.052 147.782 163.469C148.657 163.733 149.493 164.138 150.257 164.663L150.798 165.412ZM150.124 164.573L150.715 165.026C150.131 164.135 150.466 163.245 149.719 162.499C150.508 163.037 149.515 163.817 150.124 164.573ZM147.806 169.035C146.27 167.448 144.877 165.704 143.653 163.837C144.968 164.933 146.097 166.273 146.977 167.78L147.806 169.035ZM139.358 164.618L137.209 162.778C138.051 163.194 138.795 163.832 139.358 164.618ZM139.9 156.834L138.037 158.872C138.521 158.07 139.16 157.372 139.9 156.834ZM128.521 162.928C128.655 162.266 128.861 161.622 129.139 161.012L128.521 162.928Z" fill="#3E2E29"/>
<path d="M121.357 167.395C120.968 167.906 120.624 168.455 120.29 169.009C120.331 168.831 120.38 168.655 120.439 168.481C121.043 166.639 122.386 165.159 123.894 164.043L123.938 163.959L123.896 163.932C123.144 164.002 122.381 164.106 121.691 164.432C121.167 164.68 121.145 164.98 120.85 165.492C121.178 164.579 121.487 163.943 122.361 163.59C123.462 163.148 124.691 163.228 125.834 163.522C124.209 164.637 122.574 165.8 121.357 167.395Z" fill="#734130"/>
<path d="M120.704 170.631C120.757 170.463 120.821 170.301 120.889 170.14C121.241 168.708 122.126 167.447 123.25 166.562C124.458 165.611 125.921 165.075 127.409 164.848C126.921 165.275 126.54 165.838 126.312 166.464C126.919 165.89 127.752 165.593 128.561 165.663C129.447 165.739 130.265 166.227 131.15 166.321C132.436 166.458 133.758 165.654 134.314 164.419C134.493 163.737 134.426 162.942 133.978 162.42C134.252 162.475 134.522 162.543 134.792 162.621L134.82 162.504C134.84 162.552 134.861 162.598 134.877 162.647C137.529 163.437 139.881 165.287 141.42 167.71C141.35 167.281 141.245 166.86 141.101 166.453C140.467 164.656 139.107 163.256 137.646 162.121C139.516 162.081 141.391 162.798 142.806 164.09C144.023 165.203 144.883 166.696 146.045 167.874C146.622 168.46 147.269 168.963 147.844 169.549C148.358 170.072 148.813 170.66 149.198 171.296C149.151 171.053 149.1 170.814 149.04 170.573C148.326 167.721 146.572 165.282 144.614 163.188C147.286 163.504 149.816 164.856 151.706 166.872C150.193 166.051 148.565 165.465 146.893 165.141C148.5 166.197 149.63 168.03 149.897 170.017C150.02 170.927 149.969 171.845 149.913 172.766C149.894 172.714 149.875 172.658 149.853 172.606C149.776 173.222 149.654 173.831 149.504 174.436C149.035 172.625 148.11 170.949 146.844 169.635C146.111 168.874 145.269 168.235 144.58 167.429C143.646 166.336 142.99 164.939 141.816 164.15C142.31 165.227 142.75 166.358 142.862 167.553C143.037 169.432 142.389 171.242 141.596 172.966C141.378 173.285 141.151 173.597 140.916 173.904C141.072 172.275 140.45 170.548 139.572 169.152C138.44 167.351 136.904 165.858 135.83 164.017C135.981 166.049 137.331 167.934 137.007 169.945C136.919 170.493 136.708 171.006 136.5 171.521C136.356 171.703 136.192 171.87 136.015 172.01C136.24 171.357 136.308 170.634 136.248 169.938C136.152 168.826 135.755 167.766 135.286 166.768C135.533 168.67 135.138 170.66 134.184 172.294C133.463 173.532 132.443 174.562 131.647 175.736C130.818 176.725 130.105 177.824 129.53 178.999C129.442 177.648 129.678 176.275 130.213 175.042C129.484 175.943 129.052 177.109 129.007 178.293C128.963 179.503 129.306 180.73 129.434 181.929C129.322 181.724 129.195 181.529 129.059 181.344C128.518 180.597 127.849 179.968 127.283 179.245C126.052 177.668 125.344 175.642 125.31 173.593C124.904 174.944 125.044 176.4 125.217 177.809C124.809 177.006 124.468 176.168 124.267 175.282C123.931 173.797 124.035 172.14 124.83 170.865C124.134 171.579 123.568 172.438 123.173 173.375C123.167 171.262 123.989 169.162 125.405 167.673C123.824 168.718 122.914 170.662 122.67 172.621C122.601 173.173 122.579 173.729 122.595 174.284C121.921 172.393 121.931 170.228 122.653 168.352C121.427 169.506 120.872 171.323 120.963 173.057C120.971 173.18 120.98 173.303 120.992 173.426C120.987 173.417 120.982 173.411 120.976 173.403C120.966 173.385 120.955 173.371 120.943 173.354C120.919 173.318 120.895 173.28 120.871 173.243C120.858 173.222 120.847 173.201 120.834 173.182C120.818 173.156 120.805 173.132 120.791 173.107C120.777 173.083 120.764 173.062 120.752 173.038C120.741 173.016 120.73 172.997 120.719 172.975C120.694 172.928 120.669 172.881 120.647 172.833C120.641 172.818 120.633 172.805 120.627 172.792C120.612 172.761 120.598 172.731 120.586 172.7C120.58 172.687 120.574 172.674 120.568 172.661C120.524 172.559 120.482 172.454 120.444 172.346C120.44 172.337 120.437 172.33 120.434 172.322C120.421 172.284 120.409 172.249 120.398 172.211C120.454 171.672 120.541 171.143 120.704 170.631Z" fill="#734130"/>
<path d="M126.446 162.682C126.534 162.677 126.623 162.67 126.713 162.663C126.713 162.663 126.734 162.601 126.769 162.509C126.414 162.495 126.049 162.347 125.704 162.228C125.116 162.028 124.504 161.914 123.887 161.893C124.051 161.825 124.215 161.756 124.379 161.689C124.625 161.585 124.876 161.481 125.139 161.44C126.099 161.29 126.972 161.983 127.72 162.636C127.296 162.712 126.871 162.717 126.446 162.682Z" fill="#734130"/>
<path d="M128.202 158.933C128.367 158.742 128.557 158.574 128.762 158.435C128.15 159.175 127.97 160.287 128.309 161.201C128.383 160.637 128.673 160.113 129.047 159.696C129.059 159.683 129.07 159.673 129.082 159.66C128.65 160.69 128.445 161.828 128.246 162.943C127.507 161.768 127.514 160.135 128.202 158.933Z" fill="#734130"/>
<path d="M132.209 158.154C131.969 158.678 131.866 159.295 132.039 159.846C132.266 159.284 132.592 158.77 132.987 158.328C132.794 158.753 132.629 159.191 132.437 159.617C131.938 160.731 131.272 161.764 130.475 162.662C130.439 161.64 130.408 160.582 130.757 159.628C131.198 158.424 132.176 157.556 133.138 156.756C133.154 156.745 133.17 156.733 133.188 156.722C132.822 157.168 132.453 157.623 132.209 158.154Z" fill="#734130"/>
<path d="M138.891 156.657C138.943 156.634 138.995 156.614 139.046 156.591C137.896 157.505 137.029 158.837 136.216 160.122C135.853 159.149 136.107 157.953 136.827 157.234C137.238 156.823 137.768 156.573 138.202 156.192C138.847 155.624 139.253 154.766 139.307 153.882C139.319 153.834 139.333 153.784 139.342 153.737C139.474 154.76 139.266 155.83 138.768 156.717C138.807 156.696 138.85 156.676 138.891 156.657Z" fill="#734130"/>
<path d="M149.899 170.017C149.632 168.033 148.502 166.197 146.894 165.142C148.568 165.465 150.194 166.051 151.708 166.872C151.343 166.872 150.59 165.422 151.152 166.684C150.982 166.388 150.794 166.107 150.587 165.836C150.584 165.834 150.584 165.832 150.582 165.83C150.533 165.765 150.483 165.703 150.43 165.64C150.427 165.636 150.425 165.632 150.42 165.628C150.369 165.565 150.317 165.505 150.264 165.445C150.262 165.441 150.257 165.437 150.254 165.433C150.202 165.373 150.147 165.313 150.093 165.256C150.091 165.254 150.088 165.25 150.083 165.248C150.027 165.188 149.97 165.129 149.914 165.072C149.914 165.072 149.913 165.07 149.911 165.07C149.794 164.954 149.674 164.841 149.549 164.732C149.547 164.73 149.542 164.726 149.54 164.724C149.482 164.674 149.422 164.622 149.362 164.575C149.355 164.569 149.35 164.565 149.343 164.559C149.285 164.511 152.046 168.051 151.986 168.003C151.977 167.998 151.97 167.989 151.96 167.984C151.901 167.938 151.842 167.896 151.782 167.853C151.773 167.847 151.764 167.839 151.756 167.833C151.697 167.79 151.636 167.747 151.575 167.707C151.565 167.701 151.558 167.695 151.549 167.692C151.486 167.649 151.423 167.609 151.359 167.569C151.355 167.565 151.348 167.561 151.343 167.557C151.275 167.515 151.208 167.476 151.14 167.436L151.153 167.469C151.598 168.365 151.707 169.416 151.624 170.426C151.544 171.436 151.282 172.419 151.022 173.396C150.862 173.997 150.696 174.615 150.345 175.117C150.328 174.315 150.18 173.517 149.912 172.767C149.97 171.845 150.02 170.927 149.899 170.017Z" fill="#601900"/>
<path d="M141.819 164.148C142.992 164.937 143.651 166.335 144.583 167.427C145.272 168.233 146.113 168.872 146.847 169.633C148.113 170.947 149.037 172.623 149.506 174.434C149.372 174.974 149.214 175.508 149.046 176.036C149.059 175.443 148.991 174.846 148.852 174.273L148.908 174.765C148.577 175.561 148.382 176.42 148.34 177.288C148.166 176.717 147.991 176.134 147.988 175.531C147.987 175.225 148.031 174.92 148.075 174.618C148.143 174.15 148.209 173.684 148.278 173.217C148.278 173.217 148.298 173.048 148.332 172.834C148.208 172.586 148.07 172.346 147.918 172.117C146.681 170.256 144.606 169.176 143.328 167.355C143.461 168.544 143.215 169.796 142.749 170.902C142.439 171.633 142.041 172.313 141.598 172.965C142.392 171.241 143.039 169.43 142.864 167.551C142.752 166.359 142.313 165.228 141.819 164.148Z" fill="#601900"/>
<path d="M135.831 164.016C136.905 165.857 138.44 167.35 139.573 169.151C140.45 170.547 141.073 172.276 140.917 173.903C140.627 174.286 140.324 174.662 140.023 175.032C140.441 173.475 139.905 171.801 139.14 170.402C138.375 169.002 137.376 167.744 136.741 166.272L137.14 167.235C137.371 168.271 137.432 169.382 137.104 170.39C136.97 170.799 136.765 171.187 136.501 171.518C136.709 171.003 136.918 170.49 137.007 169.942C137.332 167.933 135.982 166.048 135.831 164.016Z" fill="#601900"/>
<path d="M120.968 173.058C120.877 171.324 121.432 169.505 122.658 168.353C121.937 170.229 121.928 172.394 122.599 174.285C122.584 173.73 122.605 173.175 122.675 172.622C122.918 170.663 123.828 168.72 125.409 167.674C123.994 169.161 123.171 171.264 123.178 173.377C123.572 172.439 124.139 171.58 124.835 170.866C124.038 172.141 123.936 173.798 124.272 175.284C124.473 176.169 124.813 177.007 125.222 177.81C125.05 176.398 124.909 174.945 125.315 173.594C125.348 175.641 126.057 177.67 127.288 179.246C127.854 179.971 128.523 180.601 129.064 181.345C129.198 181.531 129.325 181.728 129.439 181.93C129.313 180.731 128.969 179.504 129.012 178.295C129.055 177.11 129.487 175.944 130.218 175.044C129.683 176.273 129.446 177.649 129.535 179C130.109 177.825 130.822 176.727 131.652 175.737C132.447 174.563 133.468 173.531 134.189 172.295C135.141 170.661 135.537 168.671 135.29 166.769C135.76 167.767 136.156 168.828 136.253 169.939C136.312 170.636 136.245 171.356 136.02 172.011C135.723 172.25 135.387 172.423 135.021 172.505C135.317 172.328 135.501 171.998 135.63 171.663C135.899 170.97 135.985 170.201 135.881 169.462L135.72 169.854C135.393 171.715 134.171 173.186 132.978 174.667C131.934 175.963 130.914 177.267 130.537 178.852C130.503 178.994 130.474 179.139 130.449 179.285L130.587 179.635C130.462 180.846 130.741 182.097 131.361 183.119C131.503 183.354 131.673 183.583 131.908 183.707C131.732 183.709 131.554 183.688 131.382 183.648C131.36 183.644 131.338 183.638 131.315 183.632C130.736 183.484 130.204 183.118 129.853 182.608L129.826 182.58L129.811 182.586C129.803 182.626 129.794 182.667 129.784 182.707C129.716 182.974 129.6 183.228 129.438 183.445C129.398 183.498 129.356 183.548 129.312 183.597C129.262 182.897 128.851 182.28 128.37 181.795C127.89 181.311 127.331 180.921 126.854 180.433C126.67 180.245 126.498 180.035 126.353 179.807C126.333 179.803 126.31 179.799 126.29 179.794C126.019 179.738 125.742 179.704 125.463 179.701C125.152 179.696 124.841 179.725 124.538 179.789C124.402 179.206 124.196 178.641 123.934 178.111C123.909 178.061 123.886 178.011 123.858 177.962L123.831 177.8L123.791 177.681L123.743 177.731C123.445 177.594 123.179 177.396 122.946 177.157C122.624 176.828 122.367 176.422 122.179 175.99C121.855 175.247 121.719 174.429 121.622 173.615C121.514 172.706 121.453 171.791 121.436 170.874C120.885 171.777 120.869 173.013 121.397 173.928C121.36 173.889 121.325 173.852 121.29 173.813C121.28 173.802 121.27 173.79 121.261 173.78C121.233 173.749 121.208 173.715 121.18 173.684C121.172 173.674 121.165 173.665 121.157 173.655C121.127 173.615 121.096 173.575 121.066 173.536C121.055 173.523 121.045 173.508 121.037 173.495C121.022 173.474 121.006 173.453 120.993 173.43C120.983 173.305 120.973 173.181 120.968 173.058Z" fill="#601900"/>
<path d="M129.107 173.796C129.151 172.652 129.195 171.5 129.464 170.392C129.733 169.284 130.252 168.211 131.092 167.492C130.515 168.561 130.11 169.735 129.905 170.947C130.864 169.221 132.243 167.759 133.871 166.744L134.613 164.148C134.316 165.98 134.003 167.825 133.358 169.555C132.712 171.285 131.705 172.913 130.263 173.972C130.245 173.323 130.228 172.672 130.208 172.023C129.819 173.164 129.432 174.306 129.043 175.448C129.066 174.899 129.087 174.346 129.107 173.796Z" fill="#9D6D48"/>
<path d="M126.323 174.183C125.928 172.832 125.981 171.257 126.786 170.128C127.676 168.882 129.353 168.319 129.898 166.867L129.282 168.996C128.471 171.288 128.041 173.73 128.013 176.176C128.007 176.752 128.027 177.348 128.271 177.862C127.499 176.71 126.718 175.531 126.323 174.183Z" fill="#9D6D48"/>
<path d="M125.071 170.858C125.198 170.598 125.376 170.37 125.552 170.144C126.066 169.486 126.579 168.828 127.093 168.169L125.75 170.676C125.282 171.777 124.921 172.929 124.673 174.106C124.622 173.334 124.663 172.558 124.798 171.796C124.855 171.471 124.928 171.149 125.071 170.858Z" fill="#9D6D48"/>
<path d="M124.697 168.753C124.971 168.414 125.317 168.173 125.643 167.947C126.435 167.395 127.134 166.911 127.753 166.48L126.793 167.678C126.138 168.847 125.139 170.137 123.711 171.538C123.933 170.441 124.151 169.43 124.697 168.753Z" fill="#9D6D48"/>
<path d="M125.78 165.654L125.756 166.129C125.318 167.102 124.541 167.85 123.859 168.652C123.177 169.454 122.55 170.413 122.53 171.491C122.34 170.281 122.566 169.002 123.153 167.945C123.743 166.89 124.689 166.062 125.78 165.654Z" fill="#9D6D48"/>
<path d="M121.8 169C121.971 168.294 122.365 167.652 122.906 167.199C123.106 167.03 123.329 166.886 123.501 166.687L121.8 169Z" fill="#9D6D48"/>
<path d="M134.902 164.816C134.528 167.1 134.827 169.534 133.973 171.669C133.309 173.332 132.022 174.609 130.769 175.835C132.296 173.678 133.426 171.208 134.078 168.602L134.902 164.816Z" fill="#9D6D48"/>
<path d="M136.76 164.083C137.741 165.148 138.984 165.919 139.911 167.038C141.038 168.397 141.629 170.243 141.517 172.051C140.403 168.572 137.985 165.766 135.631 163.072L136.76 164.083Z" fill="#9D6D48"/>
<path d="M141.088 165.197L139.297 162.915C140.229 163.582 141.187 164.274 141.794 165.278C142.404 166.281 142.605 167.519 142.526 168.71C142.447 169.901 142.105 171.056 141.695 172.17C141.961 169.833 141.751 167.438 141.088 165.197Z" fill="#9D6D48"/>
<path d="M149.553 172.099C149.248 170.281 148.693 168.511 147.904 166.866L146.766 165.135C148.674 166.8 149.748 169.484 149.553 172.099Z" fill="#9D6D48"/>
<path d="M149.438 165.501C148.497 165.169 147.554 164.838 146.613 164.509C146.225 164.373 145.809 164.215 145.575 163.859L146.35 164.043C147.473 164.243 148.547 164.748 149.438 165.501Z" fill="#9D6D48"/>
<path d="M144.403 158.052C143.322 158.365 142.436 159.256 141.333 159.466L140.857 159.899C141.478 158.816 142.39 157.878 143.52 157.469C144.65 157.058 146.007 157.25 146.865 158.131C146.057 157.92 145.203 157.819 144.403 158.052Z" fill="#9D6D48"/>
<path d="M145.767 158.121C146.39 158.135 147.001 158.318 147.566 158.59C145.984 158.383 144.391 158.793 142.842 159.201L143.996 158.641C144.512 158.271 145.145 158.108 145.767 158.121Z" fill="#9D6D48"/>
<path d="M136.292 159.249C136.277 158.217 136.84 157.198 137.698 156.709L139.052 155.265C138.329 156.735 136.827 157.695 136.292 159.249Z" fill="#9D6D48"/>
<path d="M132.06 157.548C132.09 157.489 132.121 157.429 132.155 157.372L132.06 157.548Z" fill="#9D6D48"/>
<path d="M130.926 161.696C130.98 161.067 131.048 160.442 131.129 159.816C131.182 159.407 131.247 158.984 131.459 158.636L132.054 157.546C131.62 158.431 131.751 159.538 131.49 160.511C131.376 160.94 131.184 161.345 130.926 161.696Z" fill="#9D6D48"/>
<path d="M125.088 161.63C125.679 161.505 126.326 161.755 126.7 162.254L126.659 162.218C126.092 162.216 125.53 162.006 125.088 161.63Z" fill="#9D6D48"/>
<path d="M124.621 164.038L122.775 165.64C123.162 164.881 123.84 164.291 124.621 164.038Z" fill="#9D6D48"/>
<path d="M130.351 166.317L130.287 166.325C130.308 166.32 130.33 166.317 130.351 166.317Z" fill="#9D6D48"/>
<path d="M127.367 168.734C127.546 168.041 127.764 167.359 128.023 166.695C128.083 166.537 128.149 166.377 128.261 166.254C128.373 166.131 128.54 166.05 128.695 166.094C128.852 166.138 128.992 166.299 129.147 166.252C128.837 166.354 128.581 166.624 128.482 166.953C128.804 166.715 129.161 166.531 129.536 166.411L130.284 166.325C130.127 166.355 129.987 166.458 129.855 166.56C128.992 167.236 128.161 167.964 127.367 168.734Z" fill="#9D6D48"/>
<path d="M132.274 167.278C131.913 167.604 131.51 167.875 131.187 168.241C131.376 167.763 131.566 167.285 131.755 166.807L131.093 166.483C131.857 166.824 132.821 166.572 133.349 165.893C133.072 166.417 132.705 166.888 132.274 167.278Z" fill="#9D6D48"/>
<path d="M125.857 173.142C126.313 175.846 127.293 178.449 128.721 180.744C128.064 179.97 127.455 179.146 126.906 178.285C126.235 177.237 125.627 176.02 125.797 174.766L125.857 173.142Z" fill="#9D6D48"/>
<path d="M136.611 168.47C136.101 167.5 135.581 166.495 135.474 165.387L135.105 163.16C135.68 164.905 136.183 166.677 136.611 168.47Z" fill="#9D6D48"/>
<path d="M139.958 166.45L136.017 163.283C137.531 164.035 139.094 164.93 139.958 166.45Z" fill="#9D6D48"/>
<path d="M142.576 164.209L139.276 162.512C140.496 162.736 141.656 163.331 142.576 164.209Z" fill="#9D6D48"/>
<path d="M127.411 166.063L128.11 165.572C127.505 166.166 126.835 166.686 126.115 167.113C126.486 166.69 126.927 166.331 127.411 166.063Z" fill="#9D6D48"/>
<path d="M136.75 166.267C137.795 168.579 139.845 170.396 140.218 173.037C140.264 173.372 140.279 173.709 140.256 174.045C140.238 174.34 140.178 174.613 140.103 174.89C140.704 174.181 141.26 173.399 141.744 172.6C142.25 171.763 142.694 170.892 142.97 169.938C143.22 169.065 143.316 168.136 143.221 167.23C143.216 167.219 143.208 167.209 143.203 167.198C143.195 167.185 143.204 167.17 143.214 167.169C143.21 167.13 143.205 167.089 143.201 167.051C143.079 166.127 142.646 165.288 142.042 164.618C141.391 163.897 140.573 163.406 139.694 163.067C139.656 163.051 139.682 162.995 139.72 163.006C141.326 163.516 142.753 164.816 143.247 166.543C143.331 166.836 143.388 167.13 143.424 167.425C144.239 168.442 145.267 169.232 146.227 170.091C147.281 171.036 148.214 172.115 148.701 173.511C148.952 174.231 149.089 174.999 149.092 175.767C149.283 175.082 149.441 174.384 149.582 173.684C149.735 172.93 149.841 172.161 149.864 171.389C149.908 170 149.635 168.582 148.954 167.384C148.587 166.738 148.104 166.17 147.518 165.738C147.494 165.72 147.523 165.684 147.544 165.702C149.705 167.213 150.257 170.152 149.939 172.733C150.2 173.464 150.341 174.221 150.38 175.002C150.665 174.479 150.807 173.894 150.952 173.313C151.111 172.671 151.279 172.03 151.402 171.376C151.645 170.083 151.675 168.721 151.156 167.499C150.661 167.199 150.139 166.958 149.604 166.784C149.595 166.78 149.6 166.766 149.609 166.767C150.582 167.02 148.119 165.773 148.91 166.426C149.629 167.019 150.216 167.751 150.681 168.572C150.361 166.387 149.76 164.218 148.651 162.334C147.603 160.554 149.444 160.765 147.594 159.983C146.577 159.553 145.496 159.367 144.403 159.433C144.375 159.434 144.367 159.389 144.397 159.385C146.32 159.182 148.252 159.978 149.758 161.21C151.44 162.597 149.234 162.88 149.943 164.991C150.363 166.237 150.639 167.534 150.819 168.844C150.828 168.91 150.747 168.923 150.72 168.871C150.061 167.628 152.392 168.266 151.21 167.54C151.81 168.708 151.818 170.095 151.604 171.378C151.488 172.074 151.305 172.759 151.111 173.435C150.938 174.036 150.754 174.647 150.373 175.138C150.358 175.159 150.316 175.152 150.317 175.12C150.306 174.355 150.162 173.588 149.917 172.87C149.891 173.057 149.862 173.243 149.827 173.427C149.658 174.328 149.374 175.19 149.079 176.052C149.068 176.086 149.011 176.079 149.011 176.043C149.007 175.649 148.973 175.258 148.91 174.874C148.858 175.045 148.82 175.222 148.765 175.393C148.696 175.607 148.638 175.824 148.583 176.043C148.48 176.455 148.41 176.871 148.374 177.295C148.371 177.33 148.318 177.339 148.308 177.303C148.113 176.647 147.913 175.996 147.953 175.298C147.972 174.95 148.035 174.606 148.087 174.263C148.138 173.925 148.154 173.536 148.272 173.217C148.274 173.212 148.282 173.213 148.283 173.218C148.304 173.537 148.216 173.887 148.174 174.203C148.128 174.527 148.078 174.851 148.048 175.178C147.988 175.832 148.129 176.463 148.315 177.081C148.333 176.704 148.374 176.325 148.449 175.957C148.488 175.763 148.54 175.572 148.599 175.385C148.671 175.157 148.775 174.963 148.879 174.752C148.883 174.747 148.884 174.742 148.888 174.739C148.687 173.653 148.24 172.631 147.559 171.776C146.7 170.702 145.603 169.895 144.635 168.944C144.2 168.517 143.786 168.071 143.436 167.566C143.592 169.222 143.021 170.864 142.153 172.266C141.534 173.269 140.754 174.126 140.052 175.057C140.032 175.083 139.984 175.066 139.991 175.031C140.262 173.83 139.951 172.503 139.497 171.402C139.019 170.237 138.305 169.21 137.673 168.139C137.318 167.54 137.005 166.925 136.734 166.279C136.73 166.265 136.745 166.259 136.75 166.267Z" fill="#480D00"/>
<path d="M146.769 159.604C146.732 159.602 146.74 159.544 146.777 159.543C151.393 159.638 143.947 157.56 146.577 157.444C144.731 156.429 142.622 155.867 140.541 156.225C139.962 156.325 139.375 156.489 138.84 156.747C138.809 156.763 138.778 156.778 138.747 156.794C138.74 156.804 138.735 156.816 138.727 156.826C138.72 156.839 138.704 156.834 138.696 156.823C138.242 157.085 137.885 157.495 137.638 157.976C137.624 158.006 137.58 157.986 137.592 157.957C137.773 157.503 138.077 157.109 138.468 156.837C138.564 156.769 138.668 156.71 138.773 156.655C139.18 155.81 139.4 154.916 139.326 153.965C139.166 154.541 138.899 155.073 138.501 155.511C138.011 156.049 137.392 156.369 136.724 156.587C136.01 156.818 135.267 156.948 134.577 157.257C133.965 157.53 133.4 157.946 132.944 158.459C132.574 158.873 132.277 159.349 132.06 159.867C132.06 159.87 132.06 159.872 132.061 159.874C132.064 159.883 132.056 159.891 132.05 159.892C131.963 160.101 131.89 160.318 131.832 160.539C131.828 160.558 131.797 160.555 131.801 160.534C131.859 160.299 131.935 160.066 132.024 159.838C131.679 158.731 132.332 157.735 132.985 156.913C132.042 157.551 131.101 158.201 130.174 158.862C129.336 159.459 128.551 160.189 128.346 161.268C128.349 161.281 128.353 161.295 128.359 161.308C128.362 161.319 128.35 161.323 128.345 161.314C128.342 161.312 128.342 161.308 128.339 161.306C128.33 161.355 128.322 161.405 128.317 161.454C128.314 161.484 128.268 161.483 128.265 161.454C128.259 161.348 128.261 161.245 128.269 161.145C127.953 160.334 128.094 159.385 128.55 158.661C127.822 159.296 127.402 160.325 127.472 161.322C127.474 161.356 127.436 161.384 127.41 161.36C126.823 160.844 125.981 160.693 125.261 160.952C124.669 161.165 124.18 161.618 123.594 161.837C123.642 161.83 123.689 161.827 123.736 161.825C123.888 161.819 124.04 161.822 124.189 161.833C124.53 161.853 124.869 161.913 125.202 161.996C125.832 162.154 126.515 162.597 127.173 162.394C127.243 162.374 127.287 162.481 127.217 162.506C126.593 162.732 125.956 162.382 125.357 162.216C125.025 162.123 124.69 162.058 124.351 162.017C124.186 161.997 124.023 161.979 123.857 161.968C123.66 161.955 123.446 161.923 123.25 161.934C123.217 161.936 123.211 161.886 123.243 161.88C124.057 161.737 124.641 161.012 125.436 160.81C126.116 160.637 126.826 160.814 127.385 161.241C127.3 160.11 127.824 159.015 128.732 158.405C128.77 158.379 128.826 158.427 128.791 158.468C128.207 159.175 128.054 160.157 128.277 161.045C128.406 160.098 129.172 159.356 129.889 158.841C130.951 158.08 132.076 157.418 133.16 156.692C133.196 156.669 133.247 156.713 133.214 156.752C132.538 157.579 131.734 158.63 132.033 159.8C132.427 158.821 133.097 157.955 133.947 157.394C134.539 157.004 135.191 156.799 135.861 156.618C136.6 156.419 137.358 156.226 137.987 155.744C138.614 155.264 139.109 154.537 139.294 153.737C139.304 153.694 139.364 153.688 139.37 153.738C139.486 154.702 139.327 155.768 138.848 156.613C139.169 156.458 139.515 156.351 139.85 156.259C140.88 155.978 141.962 155.928 143.015 156.065C145.173 156.342 146.047 157.094 148.147 158.727C146.747 158.96 149.313 159.893 146.769 159.604Z" fill="#480D00"/>
<path d="M125.706 162.586C126.42 162.523 127.135 162.524 127.85 162.494C127.852 162.494 127.852 162.498 127.85 162.498C125.804 162.699 123.336 162.557 121.925 164.462C121.674 164.799 121.492 165.182 121.398 165.592C122.023 164.199 123.676 163.788 125.026 163.705C125.095 163.701 125.11 163.81 125.039 163.819C124.234 163.923 123.423 164.003 122.688 164.398C122.074 164.726 121.546 165.251 121.337 165.959C121.325 166.002 121.266 165.98 121.27 165.938C121.357 164.971 121.927 164.158 122.656 163.603C123.543 162.926 124.634 162.681 125.706 162.586Z" fill="#480D00"/>
<path d="M120.078 169.864C120.202 168.303 120.964 166.871 121.953 165.738C122.526 165.084 123.188 164.533 123.883 164.037C123.891 164.032 123.901 164.044 123.893 164.05C122.744 164.94 121.679 166.055 120.983 167.382C120.301 168.679 120.01 170.206 120.303 171.669C120.455 172.428 120.768 173.158 121.261 173.732C120.83 172.826 120.885 171.707 121.396 170.841C121.418 170.804 121.483 170.823 121.484 170.867C121.498 171.546 121.563 172.226 121.627 172.902C121.69 173.552 121.765 174.21 121.905 174.848C122.16 176.005 122.724 177.123 123.756 177.682C123.809 177.709 123.776 177.794 123.719 177.772C122.655 177.339 122.059 176.2 121.782 175.087C121.457 173.778 121.41 172.405 121.387 171.059C120.929 171.94 120.95 173.04 121.421 173.914C121.44 173.948 121.39 173.969 121.37 173.946C120.384 172.856 119.959 171.359 120.078 169.864Z" fill="#480D00"/>
<path d="M123.856 177.953C124.023 178.221 124.157 178.503 124.274 178.799C124.39 179.095 124.456 179.411 124.568 179.705C124.859 179.61 125.174 179.596 125.474 179.599C125.72 179.601 125.98 179.614 126.221 179.677C126.039 179.353 125.924 178.995 125.937 178.609C125.936 178.604 125.943 178.605 125.943 178.608C126.006 179.009 126.139 179.377 126.338 179.712C126.372 179.724 126.404 179.736 126.436 179.75C126.493 179.775 126.484 179.845 126.441 179.874C126.486 179.942 126.535 180.007 126.585 180.069C126.922 180.493 127.341 180.83 127.749 181.173C128.121 181.486 128.488 181.812 128.787 182.206C128.932 182.396 129.061 182.605 129.16 182.827C129.241 183.01 129.287 183.2 129.337 183.394C129.479 183.168 129.607 182.944 129.679 182.675C129.765 182.35 129.774 182.029 129.7 181.7C129.674 181.584 129.847 181.564 129.873 181.678C129.945 181.979 129.956 182.328 129.896 182.656C130.358 183.229 131.033 183.609 131.744 183.654C131.523 183.499 131.364 183.266 131.221 183.027C131.023 182.694 130.864 182.334 130.746 181.958C130.508 181.209 130.465 180.406 130.558 179.625C130.563 179.59 130.609 179.6 130.607 179.632C130.55 180.377 130.657 181.125 130.877 181.833C130.98 182.163 131.105 182.48 131.259 182.787C131.422 183.111 131.613 183.471 131.921 183.664C131.961 183.688 131.946 183.746 131.9 183.745C131.11 183.732 130.363 183.35 129.896 182.676C129.823 183.063 129.649 183.424 129.358 183.658C129.301 183.704 129.225 183.65 129.232 183.578C129.283 183.034 128.899 182.46 128.575 182.077C128.226 181.664 127.802 181.332 127.397 180.984C127.041 180.678 126.643 180.31 126.353 179.883C126.067 179.863 125.784 179.8 125.496 179.792C125.176 179.782 124.865 179.832 124.544 179.844C124.514 179.845 124.481 179.824 124.48 179.79C124.452 179.471 124.317 179.127 124.207 178.828C124.1 178.534 123.976 178.244 123.854 177.956C123.847 177.952 123.853 177.949 123.856 177.953Z" fill="#480D00"/>
<path d="M134.999 172.482C135.432 172.204 135.625 171.631 135.732 171.136C135.849 170.587 135.879 170.028 135.802 169.469C135.789 169.374 135.931 169.356 135.944 169.451C136.022 170.046 135.989 170.654 135.818 171.229C135.686 171.672 135.504 172.147 135.148 172.437C136.005 172.16 136.675 171.428 137.012 170.553C137.418 169.504 137.342 168.326 137.136 167.238C137.135 167.233 137.141 167.23 137.144 167.237C137.418 168.348 137.48 169.576 137.043 170.655C136.676 171.557 135.949 172.335 135.02 172.53C134.994 172.531 134.979 172.493 134.999 172.482Z" fill="#480D00"/>
<path d="M130.418 179.278C130.581 177.875 131.366 176.62 132.174 175.536C133.033 174.386 134.006 173.325 134.763 172.09C135.18 171.405 135.545 170.651 135.708 169.849C135.709 169.84 135.725 169.842 135.721 169.852C135.613 170.543 135.411 171.207 135.093 171.824C134.769 172.453 134.373 173.036 133.948 173.593C133.079 174.73 132.096 175.786 131.356 177.029C130.938 177.73 130.644 178.477 130.475 179.286C130.469 179.326 130.411 179.318 130.418 179.278Z" fill="#480D00"/>
<path fill-rule="evenodd" clip-rule="evenodd" d="M148.323 175.979C148.639 176.429 148.623 177.013 148.526 177.221C146.629 176.563 144.98 177.25 144.186 177.398C144.101 177.398 143.961 177.323 144.082 176.865C144.31 175.973 147.526 175.703 148.323 175.979Z" fill="#734130"/>
<path fill-rule="evenodd" clip-rule="evenodd" d="M138.99 181.871C139.219 183.822 138.22 184.666 136.776 184.846C135.331 185.027 134.373 184.175 134.267 182.493C133.998 179.433 138.24 178.271 138.99 181.871Z" fill="white"/>
<path fill-rule="evenodd" clip-rule="evenodd" d="M134.462 180.412C135.124 179.748 136.058 179.206 137.225 179.15C136.932 178.78 136.193 178.655 135.769 178.851C134.707 179.31 134.545 179.833 134.462 180.412Z" fill="#BF8C60"/>
<path fill-rule="evenodd" clip-rule="evenodd" d="M134.387 175.706C134.028 176.189 134.062 176.875 134.18 177.133C136.387 176.622 138.337 177.653 139.271 177.936C139.37 177.947 139.533 177.879 139.379 177.325C139.089 176.248 135.314 175.491 134.387 175.706Z" fill="#734130"/>
<path fill-rule="evenodd" clip-rule="evenodd" d="M136.539 180.886C137.19 180.804 137.795 181.421 137.888 182.264C137.983 183.106 137.53 183.855 136.878 183.936C136.225 184.018 135.621 183.401 135.527 182.559C135.433 181.716 135.886 180.967 136.539 180.886Z" fill="#240A45" stroke="#0C050D" stroke-width="0.0784519" stroke-miterlimit="22.926"/>
<path fill-rule="evenodd" clip-rule="evenodd" d="M136.181 181.592C136.243 181.584 136.303 181.67 136.316 181.783C136.329 181.896 136.289 181.994 136.227 182.002C136.165 182.01 136.105 181.924 136.092 181.811C136.08 181.698 136.119 181.6 136.181 181.592Z" fill="white"/>
<path d="M138.937 183.645C137.955 184.125 136.087 184.027 134.861 184.27C135.52 185.62 137.076 185.526 137.461 185.244C137.806 184.991 138.551 184.925 138.937 183.645Z" fill="#EFC791"/>
<path fill-rule="evenodd" clip-rule="evenodd" d="M144.061 181.94C144.266 183.894 145.423 184.469 146.868 184.288C148.312 184.108 149.058 183.043 148.791 181.38C148.381 178.338 144.001 178.255 144.061 181.94Z" fill="white"/>
<path fill-rule="evenodd" clip-rule="evenodd" d="M148.249 179.216C147.386 178.736 146.237 178.445 145.009 178.757C145.217 178.279 145.865 177.777 146.478 177.822C147.703 177.964 148.01 178.64 148.249 179.216Z" fill="#BF8C60"/>
<path fill-rule="evenodd" clip-rule="evenodd" d="M146.141 180.251C145.487 180.333 145.032 181.085 145.126 181.93C145.22 182.776 145.828 183.396 146.482 183.314C147.137 183.232 147.592 182.48 147.498 181.634C147.403 180.788 146.796 180.169 146.141 180.251Z" fill="#240A45" stroke="#0C050D" stroke-width="0.0784519" stroke-miterlimit="22.926"/>
<path fill-rule="evenodd" clip-rule="evenodd" d="M148.71 182.943C148.035 183.372 144.294 183.167 144.368 183.285C144.983 183.952 144.733 184.356 146.021 184.586C146.986 184.758 148.58 184.28 148.71 182.943Z" fill="#EFC791"/>
<path fill-rule="evenodd" clip-rule="evenodd" d="M145.998 180.707C146.06 180.699 146.121 180.785 146.133 180.898C146.146 181.011 146.106 181.109 146.044 181.117C145.982 181.125 145.922 181.039 145.909 180.926C145.897 180.813 145.936 180.715 145.998 180.707Z" fill="white"/>
<path fill-rule="evenodd" clip-rule="evenodd" d="M144.579 188.652C144.579 188.712 144.564 190.727 145.308 190.281C147.112 189.199 147.537 192.035 147.061 193.357C146.256 195.595 139.223 196.73 137.778 195.183C137.116 194.473 134.425 193.08 135.836 190.857C136.241 190.218 137.385 190.348 138.325 190.271C138.592 190.249 138.715 188.788 138.277 188.763C136.264 188.652 134.801 189.481 134.138 191.679C133.435 194.012 135.709 197.296 135.932 197.709C136.764 199.255 139.113 200.24 142.002 199.759C143.961 199.432 147.101 199.247 148.168 197.516C149.438 195.455 149.539 193.36 148.768 190.932C147.908 188.224 145.697 188.266 144.579 188.652Z" fill="#6D4526"/>
<path fill-rule="evenodd" clip-rule="evenodd" d="M144.147 196.099C143.762 195.709 143.272 195.672 143.578 194.992C143.767 194.57 143.742 194.526 142.206 194.886C141.693 195.006 141.155 194.777 140.634 194.834C140.393 194.982 141.185 195.381 140.88 196.111C140.683 196.586 144.191 196.145 144.147 196.099Z" fill="#6D4526"/>
<path fill-rule="evenodd" clip-rule="evenodd" d="M137.396 191.407C137.286 191.326 137.13 191.352 137.049 191.465C136.967 191.577 136.99 191.735 137.1 191.816C138.125 192.576 139.954 193.006 141.733 192.973C143.352 192.943 144.946 192.532 145.889 191.641C145.99 191.545 145.997 191.386 145.905 191.285C145.812 191.184 145.655 191.179 145.554 191.274C144.71 192.072 143.239 192.44 141.731 192.468C140.049 192.499 138.337 192.105 137.396 191.407Z" fill="#B68C67"/>
<path fill-rule="evenodd" clip-rule="evenodd" d="M143.323 193.526C143.307 193.476 142.716 193.787 142.127 193.851C141.575 193.911 141.021 193.723 141.023 193.757C141.203 194.25 141.733 194.458 142.19 194.402C143.002 194.302 143.337 193.789 143.323 193.526Z" fill="#B68C67"/>
<path fill-rule="evenodd" clip-rule="evenodd" d="M136.797 192.498C136.96 191.695 137.322 191.347 138.072 191.164C137.165 190.557 136.119 191.643 136.797 192.498Z" fill="#B68C67"/>
<path fill-rule="evenodd" clip-rule="evenodd" d="M144.955 191.019C145.752 191.136 146.107 191.481 146.314 192.228C146.881 191.274 145.775 190.28 144.955 191.019Z" fill="#B68C67"/>
<path fill-rule="evenodd" clip-rule="evenodd" d="M143.455 185.592C142.88 183.937 141.849 182.579 141.905 182.631C142.049 182.761 142.527 183.756 143.143 185.077C143.423 185.678 143.712 186.594 143.744 186.847C143.797 187.259 143.665 187.836 143.616 187.965C143.462 188.371 142.402 188.417 141.979 188.019C141.916 187.959 141.872 188.109 141.851 188.136C141.83 188.163 141.865 188.365 141.975 188.364C142.458 188.36 142.839 188.498 143.232 188.371C143.59 188.255 143.765 188.161 143.866 187.724C143.871 187.709 144.227 187.447 143.455 185.592Z" fill="#B68C67"/>
<path d="M136.259 173.2C136.259 173.2 152.352 171.567 152.517 170.1C152.709 168.373 159.059 173.546 152.028 174.366C144.998 175.186 131.911 174.471 136.259 173.2Z" fill="#D3AB05"/>
<path d="M152.107 166.255C152.283 167.121 152.43 167.948 152.543 168.776C153.596 176.299 141.442 171.262 136.273 173.184C131.263 175.065 121.332 178.161 120.23 172.808C119.392 168.594 120.254 164.219 122.629 160.638C125.005 157.058 128.7 154.561 132.908 153.695C137.117 152.828 141.497 153.661 145.094 156.012C148.691 158.363 151.212 162.041 152.107 166.244L152.107 166.255Z" fill="#FFD400"/>
<path d="M136.958 172.921C136.958 172.921 152.381 171.123 152.562 169.659C152.754 167.925 159.111 173.098 152.073 173.91C145.035 174.723 130.383 174.23 136.958 172.921Z" fill="#FFF35A"/>
<g opacity="0.44">
<path opacity="0.44" d="M123.643 169.253C123.635 169.399 123.596 169.542 123.53 169.672C123.464 169.802 123.372 169.918 123.259 170.011C123.147 170.104 123.016 170.173 122.876 170.214C122.736 170.254 122.588 170.265 122.443 170.246C122.141 170.207 121.866 170.052 121.674 169.815C121.483 169.577 121.391 169.275 121.417 168.971C122.504 159.067 131.25 155.26 131.648 155.079L131.712 155.196C131.637 155.245 124.591 158.852 123.643 169.253Z" fill="white"/>
</g>
<path d="M77.9725 247.652C79.3723 242.053 104.877 214.289 104.877 214.289C105.694 213.534 115.427 205.587 119.725 210.841C123.537 215.507 122.1 227.415 119.463 229.324C118.119 230.289 99.4925 241.306 94.7704 247.652C94.2221 248.383 92.8978 248.818 89.8939 250.82C86.389 252.322 89.8939 251.321 85.8888 252.823C82.3827 252.823 79.3805 252.322 77.9725 247.652Z" fill="#FBD2BB"/>
<path d="M94.635 224.579L106.459 211.748C111.648 207.413 118.726 204.664 123.023 209.918C126.831 214.585 126.677 221.313 120.886 228.335C120.117 229.269 108.167 239.585 108.167 239.585C108.167 239.585 105.936 240.556 102.647 237.798C93.6738 230.272 94.635 224.579 94.635 224.579Z" fill="#EA7424"/>
<path d="M125.265 270.795C125.431 270.796 125.6 270.778 125.903 270.65C126.12 270.557 126.378 270.422 126.522 270.358L126.572 270.421C126.43 270.592 126.194 270.75 125.979 270.834C125.751 270.928 125.477 270.972 125.248 270.873L125.265 270.795Z" fill="#E18B5A"/>
<path d="M125.758 269.223C125.815 269.222 125.905 269.22 126.105 269.153C126.232 269.112 126.377 269.051 126.501 269C126.602 268.959 126.748 268.901 126.857 268.87L126.9 268.938C126.813 269.029 126.692 269.113 126.583 269.172C126.435 269.252 126.276 269.307 126.15 269.33C126.014 269.356 125.868 269.361 125.741 269.302L125.758 269.223Z" fill="#E18B5A"/>
<path d="M126.396 267.27C126.455 267.246 126.63 267.198 126.928 267.11C126.984 267.093 127.397 266.968 127.457 266.958L127.5 267.027C127.364 267.165 127.168 267.248 126.983 267.302C126.948 267.312 126.912 267.32 126.877 267.328C126.725 267.358 126.553 267.372 126.405 267.35L126.396 267.27Z" fill="#E18B5A"/>
<path d="M164.856 232.539C148.245 230.673 123.484 238.638 114.696 243.071C115.193 245.476 116.096 248.67 116.096 248.67C134.293 237.472 157.857 235.806 165.323 238.838L164.856 232.539Z" fill="#FFC273"/>
<path d="M165.324 246.107C149.766 244.248 126.193 252.445 117.963 256.861C118.429 259.257 119.274 262.439 119.274 262.439C138.012 252.498 159.248 250.195 165.076 252.382L165.324 246.107Z" fill="#FFC273"/>
<path d="M141.06 212.942C140.687 210.889 138.261 209.753 137.094 209.442C139.972 207.809 144.793 206.176 144.793 206.176C144.793 206.176 144.482 211.231 144.793 212.942C150.192 234.86 150.263 250.94 150.859 281.767H147.36C149.535 259.145 145.38 214.562 141.06 212.942Z" fill="#E5650E"/>
<path d="M101.63 217.141C108.574 223.365 113.877 230.195 116.329 232.306L113.996 234.639C108.274 227.699 104.904 224.485 99.2973 219.474L101.63 217.141Z" fill="#FFC273"/>
<path d="M166.489 208.975C162.569 208.789 159.412 211.075 158.323 212.242L159.49 215.508C161.965 212.588 164.023 211.692 167.889 211.075L166.489 208.975Z" fill="#FFC273"/>
<path d="M151.222 314.429C141.403 312.556 135.196 313.154 124.068 314.429L125.937 319.095C136.254 317.224 141.966 316.514 151.431 319.095L151.222 314.429Z" fill="#FFC273"/>
<path d="M151.092 306.03C139.519 304.78 133.217 305.467 122.019 306.963C122.31 308.802 122.579 309.837 123.095 311.629C133.971 310.068 140.089 309.528 151.092 310.696V306.03Z" fill="#FFC273"/>
<ellipse cx="128.689" cy="269.988" rx="0.746764" ry="5.06188" transform="rotate(16.3973 128.689 269.988)" fill="#E5650E"/>
<path d="M85.0662 234.457L95.7982 223.492L109.418 238.304C99.3863 249.269 88.8732 257.61 83.6663 255.974C78.4595 254.338 65.0727 233.408 63.8072 216.535C63.7746 216.101 64.1321 216.5 64.6509 216.535C65.2554 216.576 66.2264 216.38 66.76 216.113C67.6036 215.691 70.1346 215.27 70.1346 214.426C73.8674 218.936 82.9198 233.897 83.6663 234.457C84.4129 235.017 84.9106 234.69 85.0662 234.457Z" fill="#EA7424"/>
<path d="M91.9946 228.041C94.3647 228.575 99.053 230.77 98.8453 235.28C98.2396 233.755 96.0215 230.173 91.9946 228.041Z" fill="#C44F01"/>
<path d="M78.831 233.883C79.049 236.281 78.4058 241.372 74.0887 242.55C75.3424 241.514 78.046 238.331 78.831 233.883Z" fill="#C44F01"/>
<path d="M84.8327 234.923C84.8652 234.97 84.8986 235.02 84.9326 235.073C86.1281 237.103 84.1683 243.023 85.5326 240.522C86.6004 238.564 85.6318 236.168 84.9326 235.073C84.9015 235.021 84.8682 234.97 84.8327 234.923Z" fill="#C34F01"/>
<path d="M56.2546 197.131C56.6151 196.756 57.2189 196.773 57.5574 197.167L60.0248 203.652C60.1147 203.762 60.2594 203.82 60.3985 203.787C60.6055 203.739 60.7246 203.527 60.6657 203.329L58.087 195.769C58.0082 195.51 58.022 195.232 58.1264 194.983C58.2018 194.802 58.3384 194.667 58.5015 194.59C58.9039 194.4 59.26 194.826 59.4293 195.237L62.0447 201.589C62.0901 201.699 62.1975 201.771 62.3166 201.771L62.3311 201.771C62.4473 201.771 62.5415 201.677 62.5415 201.561C62.5415 201.421 62.5157 201.283 62.4653 201.152L59.466 193.392C59.3845 193.087 59.45 192.763 59.643 192.514L59.6916 192.452C59.8584 192.237 60.1021 192.086 60.3723 192.052C60.8241 191.996 61.2417 192.243 61.4188 192.639L62.9922 196.143L65.04 201.123C65.1302 201.342 65.3669 201.475 65.5959 201.417C65.8378 201.355 65.9858 201.121 65.9463 200.883L63.5727 192.8C63.4921 192.369 63.7368 191.923 64.1967 191.78C64.3825 191.722 64.5816 191.735 64.7641 191.803C65.131 191.944 65.4047 192.257 65.4943 192.639L68.5898 201.648L69.386 204.91C69.7879 205.003 70.1959 204.779 70.3364 204.391L70.7192 203.331C70.8794 202.886 71.1212 202.477 71.4335 202.122L71.9037 201.588C72.3174 201.116 72.9508 200.9 73.5667 201.018L73.7002 201.042C73.9984 201.1 74.1754 201.409 74.0728 201.694L73.5782 203.08C73.3959 203.59 73.2807 204.12 73.2341 204.659C73.1926 205.143 73.2829 205.84 72.953 206.412C72.1978 207.72 71.9542 209.309 71.9542 209.309C71.8293 209.711 71.6409 210.09 71.3963 210.432L70.1624 212.161L70.7176 214.311C70.806 214.654 70.6396 215.01 70.321 215.163L69.2169 215.691C67.9415 216.3 66.5614 216.662 65.1514 216.756L64.1576 216.822C63.8043 216.845 63.483 216.615 63.3932 216.271L63.3646 216.16L62.8438 214.173L62.3599 213.827C61.9522 213.534 61.6295 213.138 61.4284 212.678L58.8399 206.784C58.3233 205.146 58.1363 204.707 57.7764 203.329C57.7293 203.149 57.6843 202.97 57.6406 202.793C57.2545 201.239 56.6625 199.738 56.1551 198.219C55.9287 197.878 55.9708 197.427 56.2546 197.131Z" fill="#FEC7A8"/>
<path d="M72.5831 203.242C72.4812 203.053 72.6278 202.74 72.7299 202.582C72.9537 202.236 73.3603 201.925 73.7903 202.148C73.7996 202.153 73.8087 202.156 73.8175 202.158C73.8134 202.191 73.8071 202.224 73.7948 202.256L73.3638 203.462C73.3401 203.53 73.3189 203.599 73.2977 203.667C73.2285 203.639 73.1598 203.609 73.093 203.577C72.9525 203.509 72.6616 203.387 72.5831 203.242Z" fill="#FCDAC7"/>
<path d="M60.4048 194.064C60.2074 194.083 60.0229 193.964 59.962 193.775L59.7813 193.218C59.7246 193.007 59.7712 192.777 59.9051 192.603L59.95 192.545C60.0311 192.439 60.1365 192.35 60.2595 192.301C60.3752 192.255 60.4968 192.24 60.6177 192.256C60.8623 192.287 61.0678 192.442 61.1686 192.666L61.4192 193.25C61.5033 193.446 61.4289 193.677 61.2424 193.78C60.9879 193.921 60.6803 194.037 60.4048 194.064Z" fill="#FCDAC7"/>
<path d="M56.8346 198.661C56.6625 198.684 56.4964 198.587 56.436 198.424L56.2588 197.942C56.2019 197.758 56.234 197.555 56.3452 197.398L56.3829 197.346C56.4511 197.251 56.5391 197.169 56.6459 197.121C56.746 197.077 56.8509 197.059 56.9584 197.069C57.1733 197.089 57.359 197.216 57.4558 197.41L57.6961 197.913C57.777 198.082 57.7202 198.287 57.5598 198.384C57.3415 198.515 57.076 198.627 56.8346 198.661Z" fill="#FCDAC7"/>
<path d="M64.3629 193.658C64.1767 193.657 64.0152 193.528 63.9759 193.347L63.86 192.81C63.8265 192.607 63.8912 192.397 64.033 192.248L64.0801 192.198C64.1664 192.108 64.2713 192.034 64.3923 191.999C64.5047 191.967 64.6192 191.964 64.7309 191.99C64.9556 192.043 65.1332 192.206 65.207 192.425L65.3873 192.993C65.4477 193.184 65.3569 193.392 65.173 193.471C64.9215 193.579 64.6229 193.659 64.3629 193.658Z" fill="#FCDAC7"/>
<path d="M67.9265 213.693C69.3115 213.28 70.0157 212.52 70.0157 212.52L70.4691 214.277C70.0768 213.282 68.4179 213.672 67.9265 213.693Z" fill="#F9B489"/>
<path d="M65.1818 213.526C63.6157 214.002 63.1228 214.53 63.142 215.301L62.6942 213.595C62.6952 213.594 63.8559 213.834 65.1818 213.526Z" fill="#F9B489"/>
<path d="M69.6901 207.006C69.2922 205.743 69.1723 205.291 69.1723 205.291C69.5742 205.384 69.9822 205.16 70.1227 204.772L70.438 203.899C70.029 205.43 70.1547 208.488 69.6901 207.006Z" fill="#F9B489"/>
<path d="M59.3282 194.552C59.5183 194.649 59.6643 194.816 59.7334 195.017C60.0926 196.058 61.2347 199.378 61.4701 200.257C61.6042 200.757 59.2847 194.529 58.5762 194.543C58.788 194.426 59.0512 194.409 59.2847 194.529L59.3282 194.552Z" fill="#F9B489"/>
<path opacity="0.55" d="M58.8889 196.356C58.7211 196.381 58.5575 196.287 58.4962 196.128L58.3171 195.659C58.2587 195.481 58.2889 195.28 58.3957 195.127L58.4319 195.076C58.4974 194.981 58.583 194.901 58.6864 194.853C58.7838 194.808 58.8871 194.79 58.9917 194.798C59.2023 194.815 59.3851 194.937 59.4821 195.125L59.7235 195.613C59.8048 195.777 59.7515 195.978 59.5957 196.074C59.3822 196.207 59.124 196.321 58.8889 196.356Z" fill="#FCDAC7"/>
<path d="M202.867 224.404C202.536 224.277 202.237 223.997 202.102 223.717C202.016 223.539 202.083 223.339 202.191 223.173L204.101 220.233C204.103 220.137 204.039 220.015 203.929 219.92C203.765 219.779 203.569 219.745 203.498 219.84L200.644 223.618C200.552 223.744 200.388 223.805 200.18 223.792C199.842 223.771 199.427 223.461 199.279 223.118L199.254 222.658L198.754 223.297C198.639 223.436 198.415 223.471 198.149 223.392L198.082 223.372C197.852 223.304 197.607 223.161 197.409 222.969C197.08 222.648 196.941 222.275 197.045 222.041L197.957 219.968L199.378 217.161C199.44 217.038 199.357 216.828 199.174 216.673C198.98 216.509 198.751 216.459 198.645 216.55L196.004 220.168C195.817 220.339 195.407 220.272 195.023 219.968C194.868 219.845 194.744 219.694 194.661 219.54C194.497 219.232 194.49 218.948 194.644 218.782L197.324 214.39L197.534 214.157C198.164 213.456 199.201 213.293 200.02 213.76C202.856 215.379 203.409 215.678 206.097 217.585C206.89 218.148 207.16 219.204 206.737 220.08L206.629 220.304C206.348 220.919 205.99 220.965 205.568 221.809C205.146 222.231 204.502 222.555 204.397 222.969L203.539 224.196C203.499 224.453 203.219 224.538 202.867 224.404Z" fill="#FEC7A8"/>
<path d="M198.578 222.42C198.719 222.562 198.774 222.73 198.71 222.824L198.519 223.102C198.438 223.198 198.279 223.223 198.094 223.168L198.032 223.15C197.919 223.117 197.8 223.062 197.692 222.983C197.59 222.909 197.501 222.823 197.43 222.729C197.286 222.539 197.236 222.347 197.294 222.214L197.454 221.877C197.507 221.764 197.685 221.76 197.866 221.872C198.112 222.024 198.38 222.223 198.578 222.42Z" fill="#FCDAC7"/>
<path d="M203.524 223.342C203.652 223.484 203.7 223.673 203.636 223.797L203.447 224.164C203.368 224.294 203.218 224.354 203.046 224.324L202.987 224.314C202.883 224.295 202.772 224.253 202.672 224.18C202.578 224.111 202.498 224.026 202.433 223.927C202.305 223.728 202.263 223.509 202.322 223.339L202.483 222.908C202.537 222.763 202.704 222.724 202.871 222.823C203.098 222.959 203.344 223.144 203.524 223.342Z" fill="#FCDAC7"/>
<path d="M196.095 219.214C196.218 219.353 196.253 219.506 196.178 219.582L195.955 219.807C195.864 219.884 195.704 219.89 195.528 219.823L195.469 219.801C195.361 219.761 195.251 219.702 195.152 219.621C195.06 219.546 194.982 219.461 194.923 219.372C194.804 219.191 194.777 219.017 194.85 218.906L195.048 218.625C195.114 218.531 195.29 218.545 195.456 218.661C195.682 218.82 195.924 219.021 196.095 219.214Z" fill="#FCDAC7"/>
<path d="M199.263 223.081C199.192 222.915 199.188 222.763 199.255 222.66C199.597 222.125 200.692 220.419 201.025 220.018C201.216 219.789 199.279 223.119 199.755 223.642C199.55 223.515 199.366 223.324 199.279 223.119L199.263 223.081Z" fill="#F9C3A1"/>
<path opacity="0.55" d="M200.433 222.899C200.558 223.017 200.614 223.163 200.566 223.25L200.423 223.504C200.362 223.593 200.231 223.623 200.075 223.583L200.022 223.569C199.926 223.545 199.825 223.502 199.73 223.438C199.64 223.377 199.562 223.305 199.497 223.225C199.367 223.065 199.315 222.897 199.355 222.777L199.468 222.471C199.506 222.369 199.653 222.356 199.809 222.447C200.024 222.571 200.258 222.734 200.433 222.899Z" fill="#FCDAC7"/>
<path d="M263.848 244.839L266.008 241.191L264.227 237.346C264.024 236.908 264.413 236.427 264.885 236.535L269.02 237.46L272.127 234.578C272.482 234.251 273.059 234.47 273.102 234.952L273.5 239.17L277.2 241.234C277.623 241.469 277.592 242.086 277.148 242.277L273.26 243.959L272.439 248.116C272.346 248.588 271.751 248.752 271.43 248.387L268.628 245.209L264.422 245.715C263.94 245.771 263.604 245.252 263.848 244.839Z" fill="#466EB6"/>
<path d="M132.053 123.28L134.778 118.679L132.531 113.828C132.275 113.275 132.766 112.667 133.358 112.803L138.576 113.973L142.495 110.338C142.943 109.924 143.668 110.202 143.726 110.807L144.226 116.13L148.895 118.734C149.426 119.03 149.389 119.808 148.827 120.052L143.921 122.172L142.887 127.418C142.77 128.016 142.017 128.217 141.616 127.76L138.082 123.749L132.775 124.384C132.167 124.455 131.741 123.804 132.053 123.28Z" fill="#F79C8D"/>
<path d="M197.57 116.149L190.377 120.947L194.401 127.93L187.523 132.973L190.544 140.12L186.017 144.733L188.35 147.026L194.407 140.854L191.547 134.081L198.7 128.838L194.744 121.969L201.261 117.621L197.57 116.149Z" fill="#F48C7F"/>
<path d="M266.497 206.99L261.408 199.998L254.595 204.3L249.278 197.634L242.261 200.942L237.468 196.607L235.271 199.032L241.684 204.833L248.334 201.698L253.863 208.632L260.566 204.401L265.176 210.737L266.497 206.99Z" fill="#F48C7F"/>
<path d="M20.8116 131.43L24.1042 137.573L31.2048 137.179L34.4048 144.328L41.8355 141.573L45.8132 149.5L52.9693 147.809L58.0455 154.811L55.3948 156.73L51.5992 151.494L44.0481 153.28L40.2247 145.662L32.6706 148.463L29.1372 140.57L22.2033 140.959L19.1545 135.262L14.6553 136.469L13.8067 133.309L20.8116 131.43Z" fill="#F7CC7F"/>
<path d="M52.8568 274.496L50.8973 279.384L42.6827 277.097L38.9334 283.889L32.5087 283.183L32.1507 286.438L40.7448 287.382L44.2997 280.942L52.8445 283.321L55.7945 275.968L52.8568 274.496Z" fill="#50BFA5"/>
<path d="M20.1427 194.483L13.9371 196.39L11.9899 202.587C11.8325 203.087 11.1691 203.192 10.8667 202.76L7.1328 197.446L0.640161 197.507C0.115566 197.514 -0.186849 196.915 0.127908 196.495L4.02843 191.302L1.96399 185.146C1.79736 184.649 2.27258 184.177 2.7694 184.346L8.91333 186.451L14.1315 182.584C14.5543 182.273 15.1498 182.578 15.1406 183.103L15.0326 189.595L20.3217 193.36C20.7507 193.666 20.6427 194.329 20.1427 194.483Z" fill="#FED333"/>
<path d="M249.944 163.674L252.493 167.911C252.768 168.371 253.453 168.312 253.647 167.815L255.459 163.214L260.276 162.097C260.797 161.977 260.955 161.311 260.541 160.968L256.724 157.824L257.15 152.898C257.196 152.365 256.61 152.01 256.159 152.297L251.99 154.954L247.436 153.025C246.942 152.815 246.424 153.263 246.559 153.781L247.8 158.567L244.56 162.301C244.208 162.705 244.473 163.338 245.007 163.369L249.944 163.674Z" fill="#F47458"/>
<path d="M240.992 260.709C240.992 262.342 239.668 263.665 238.036 263.665C236.403 263.665 235.08 262.342 235.08 260.709C235.08 259.077 236.403 257.753 238.036 257.753C239.671 257.756 240.992 259.077 240.992 260.709Z" fill="#50BFA5"/>
<path d="M27.2093 233.251C27.2093 234.883 25.7744 236.207 24.0093 236.207C22.2411 236.207 20.8062 234.883 20.8062 233.251C20.8062 231.618 22.238 230.294 24.0093 230.294C25.7744 230.294 27.2093 231.618 27.2093 233.251Z" fill="#50BFA5"/>
<ellipse cx="280.505" cy="400.441" rx="48.2074" ry="14.088" fill="#2387FF"/>
<path d="M232.297 372.485H328.712V400.881H280.504H232.297V372.485Z" fill="#2387FF"/>
<ellipse cx="280.505" cy="373.145" rx="48.2074" ry="14.088" fill="#57A3FF"/>
<path d="M232.297 345.189H328.712V373.586H280.504H232.297V345.189Z" fill="#57A3FF"/>
<ellipse cx="280.505" cy="343.649" rx="48.2074" ry="14.088" fill="#99C7FF"/>
<path d="M232.297 315.693H328.712V344.089H280.504H232.297V315.693Z" fill="#99C7FF"/>
<ellipse cx="280.504" cy="315.473" rx="48.2074" ry="14.088" fill="#BDD9FF"/>
<defs>
<linearGradient id="paint0_linear_4091_24339" x1="200.617" y1="214.17" x2="190.723" y2="229.893" gradientUnits="userSpaceOnUse">
<stop stop-color="#E39B72"/>
<stop offset="1" stop-color="#FEC8A9"/>
</linearGradient>
<radialGradient id="paint1_radial_4091_24339" cx="0" cy="0" r="1" gradientUnits="userSpaceOnUse" gradientTransform="translate(137.088 163.184) rotate(172.604) scale(16.9553 17.942)">
<stop offset="0.00141166" stop-color="#2B2B2B"/>
<stop offset="0.5125" stop-color="#3D3734"/>
<stop offset="1" stop-color="#352F2B"/>
</radialGradient>
</defs>
</svg>
