<svg width="61" height="82" viewBox="0 0 61 82" fill="none" xmlns="http://www.w3.org/2000/svg">
<g clip-path="url(#clip0_1413_6907)">
<path d="M35.5833 21.8822V0.283203H3.8125C1.69974 0.283203 0 1.98254 0 4.09479V77.7856C0 79.8978 1.69974 81.5972 3.8125 81.5972H57.1875C59.3003 81.5972 61 79.8978 61 77.7856V25.6938H39.3958C37.299 25.6938 35.5833 23.9786 35.5833 21.8822ZM10.1667 11.718C10.1667 11.016 10.7354 10.4474 11.4375 10.4474H24.1458C24.848 10.4474 25.4167 11.016 25.4167 11.718V14.259C25.4167 14.961 24.848 15.5296 24.1458 15.5296H11.4375C10.7354 15.5296 10.1667 14.961 10.1667 14.259V11.718ZM10.1667 21.8822C10.1667 21.1803 10.7354 20.6117 11.4375 20.6117H24.1458C24.848 20.6117 25.4167 21.1803 25.4167 21.8822V24.4233C25.4167 25.1253 24.848 25.6938 24.1458 25.6938H11.4375C10.7354 25.6938 10.1667 25.1253 10.1667 24.4233V21.8822ZM40.7953 61.2687H48.2917C49.6959 61.2687 50.8333 62.4058 50.8333 63.8097C50.8333 65.2137 49.6959 66.3508 48.2917 66.3508H40.7953C38.1822 66.3508 35.828 64.8992 34.6572 62.5614C34.1886 61.6212 33.3721 61.526 33.0417 61.526C32.7113 61.526 31.8947 61.6197 31.4499 62.509L30.2315 64.9453C30.0206 65.3674 29.6961 65.7223 29.2946 65.9703C28.893 66.2183 28.4303 66.3495 27.9583 66.3492C27.898 66.3492 27.8392 66.346 27.7772 66.3413C26.7526 66.2698 25.871 65.5869 25.5485 64.6118L22.875 56.5979L21.1896 61.6609C20.2539 64.4656 17.6344 66.3508 14.6765 66.3508H12.7083C11.3041 66.3508 10.1667 65.2137 10.1667 63.8097C10.1667 62.4058 11.3041 61.2687 12.7083 61.2687H14.6765C15.4438 61.2687 16.1237 60.7795 16.3667 60.0521L19.2563 51.3744C19.7805 49.8164 21.2324 48.7682 22.875 48.7682C24.5176 48.7682 25.9695 49.8148 26.4921 51.3744L28.697 57.9875C31.8376 55.4163 37.2831 56.447 39.1814 60.2364C39.5023 60.8812 40.1282 61.2687 40.7953 61.2687ZM59.888 16.9589L44.3362 1.39492C43.6214 0.680244 42.6523 0.283203 41.6357 0.283203H40.6667V20.6117H61V19.6429C61 18.6424 60.6029 17.6736 59.888 16.9589Z" fill="white"/>
</g>
<defs>
<clipPath id="clip0_1413_6907">
<rect width="61" height="81.314" fill="white" transform="translate(0 0.283203)"/>
</clipPath>
</defs>
</svg>
