<svg width="16" height="16" viewBox="0 0 16 16" fill="none" xmlns="http://www.w3.org/2000/svg">
<g clip-path="url(#clip0_1299_6315)">
<path d="M14.2497 11.3333H2.99967V3.41667C2.99967 3.18646 2.81322 3 2.58301 3H1.74967C1.51947 3 1.33301 3.18646 1.33301 3.41667V12.1667C1.33301 12.6268 1.70618 13 2.16634 13H14.2497C14.4799 13 14.6663 12.8135 14.6663 12.5833V11.75C14.6663 11.5198 14.4799 11.3333 14.2497 11.3333ZM13.4163 3.83333H10.3419C9.78509 3.83333 9.50619 4.50651 9.89994 4.90026L10.7437 5.74401L8.83301 7.65495L6.92233 5.74427C6.59681 5.41875 6.06921 5.41875 5.74395 5.74427L3.95514 7.53307C3.79238 7.69583 3.79238 7.95964 3.95514 8.1224L4.54421 8.71146C4.70697 8.87422 4.97077 8.87422 5.13353 8.71146L6.33301 7.51172L8.24369 9.4224C8.56921 9.74792 9.09681 9.74792 9.42207 9.4224L11.9221 6.9224L12.7658 7.76615C13.1596 8.1599 13.8327 7.88099 13.8327 7.32422V4.25C13.833 4.01979 13.6466 3.83333 13.4163 3.83333Z" fill="#99D98C"/>
</g>
<defs>
<clipPath id="clip0_1299_6315">
<rect width="16" height="16" fill="white"/>
</clipPath>
</defs>
</svg>
