<svg width="43" height="43" viewBox="0 0 43 43" fill="none" xmlns="http://www.w3.org/2000/svg">
<mask id="mask0_4288_26513" style="mask-type:alpha" maskUnits="userSpaceOnUse" x="0" y="0" width="43" height="43">
<rect width="43" height="43" fill="#C4C4C4"/>
</mask>
<g mask="url(#mask0_4288_26513)">
</g>
<path d="M37.7855 13.1492C37.8115 13.5134 37.8115 13.8776 37.8115 14.2418C37.8115 25.3503 29.3566 38.1498 13.9035 38.1498C9.14274 38.1498 4.72019 36.7709 1 34.3776C1.67642 34.4556 2.32673 34.4816 3.02918 34.4816C6.95741 34.4816 10.5736 33.1549 13.4613 30.8916C9.76711 30.8135 6.67129 28.3941 5.60465 25.0641C6.125 25.1421 6.64527 25.1942 7.19164 25.1942C7.94606 25.1942 8.70055 25.0901 9.40292 24.9081C5.55268 24.1275 2.6649 20.7456 2.6649 16.6612V16.5572C3.78352 17.1816 5.08438 17.5718 6.46309 17.6238C4.19976 16.1148 2.71696 13.5394 2.71696 10.6257C2.71696 9.06477 3.13312 7.63394 3.86159 6.3852C7.99803 11.4842 14.2157 14.8141 21.1877 15.1783C21.0576 14.554 20.9796 13.9037 20.9796 13.2533C20.9796 8.6225 24.7258 4.85034 29.3825 4.85034C31.8019 4.85034 33.9871 5.86493 35.5221 7.50389C37.4211 7.1397 39.2422 6.43725 40.8552 5.47471C40.2308 7.42589 38.904 9.06485 37.161 10.1054C38.852 9.92337 40.491 9.45499 41.9998 8.80468C40.8554 10.4696 39.4244 11.9524 37.7855 13.1492V13.1492Z" fill="white"/>
</svg>
