<svg width="80" height="80" fill="none" xmlns="http://www.w3.org/2000/svg"><mask id="a" style="mask-type:alpha" maskUnits="userSpaceOnUse" x="0" y="0" width="80" height="80"><path fill="#C4C4C4" d="M0 0h80v80H0z"/></mask><g mask="url(#a)"><path d="M17.559 26.183c12.394-12.244 32.488-12.244 44.882 0l1.492 1.474c.62.612.62 1.604 0 2.216l-5.103 5.041a.8.8 0 0 1-1.122 0l-2.052-2.027c-8.647-8.542-22.665-8.542-31.312 0l-2.198 2.171a.8.8 0 0 1-1.122 0l-5.102-5.04a1.554 1.554 0 0 1 0-2.218l1.637-1.617zm55.435 10.425 4.541 4.486c.62.613.62 1.605 0 2.217l-20.477 20.23a1.6 1.6 0 0 1-2.244 0L40.281 49.183a.4.4 0 0 0-.561 0L25.187 63.541a1.6 1.6 0 0 1-2.245 0L2.465 43.31a1.554 1.554 0 0 1 0-2.217l4.541-4.486a1.6 1.6 0 0 1 2.244 0l14.534 14.357a.4.4 0 0 0 .56 0l14.534-14.357a1.6 1.6 0 0 1 2.244 0l14.533 14.357a.4.4 0 0 0 .562 0L70.75 36.608a1.6 1.6 0 0 1 2.244 0z" fill="#419BF9"/></g></svg>