<svg width="85" height="86" viewBox="0 0 85 86" fill="none" xmlns="http://www.w3.org/2000/svg">
<path d="M42.5 85.0077C65.9721 85.0077 85 65.9789 85 42.5058C85 19.0327 65.9721 0.00390625 42.5 0.00390625C19.0279 0.00390625 0 19.0327 0 42.5058C0 65.9789 19.0279 85.0077 42.5 85.0077Z" fill="white"/>
<g filter="url(#filter0_i_1413_7246)">
<path d="M42.0695 78.1441C61.9901 78.1441 78.1389 61.9945 78.1389 42.073C78.1389 22.1515 61.9901 6.00195 42.0695 6.00195C22.1488 6.00195 6 22.1515 6 42.073C6 61.9945 22.1488 78.1441 42.0695 78.1441Z" fill="#36287D"/>
</g>
<path d="M12.7482 45.8055C12.7482 28.2197 27.0028 13.9645 44.5877 13.9645C54.8667 13.9645 64.0052 18.8359 69.8267 26.3952C64.3291 16.8493 54.0247 10.4238 42.2184 10.4238C24.6335 10.4238 10.3789 24.679 10.3789 42.2648C10.3789 49.5711 12.8419 56.3018 16.9795 61.6751C14.2889 57.0032 12.7482 51.5831 12.7482 45.8055Z" fill="#271D5A"/>
<rect x="26" y="25.0039" width="13.7838" height="6.89189" fill="white"/>
<rect x="46.2168" y="25.0039" width="13.7838" height="6.89189" fill="white"/>
<path fill-rule="evenodd" clip-rule="evenodd" d="M59.999 52.1136L59.999 45.2207L53.1071 45.2207L53.1071 52.1136H46.2158V59.0055H59.9996V52.1136H59.999Z" fill="white"/>
<path fill-rule="evenodd" clip-rule="evenodd" d="M26.001 52.1136L26.001 45.2207L32.8929 45.2207L32.8929 52.1136H39.7842V59.0055H26.0004V52.1136H26.001Z" fill="white"/>
<defs>
<filter id="filter0_i_1413_7246" x="6" y="6.00195" width="72.1387" height="74.1426" filterUnits="userSpaceOnUse" color-interpolation-filters="sRGB">
<feFlood flood-opacity="0" result="BackgroundImageFix"/>
<feBlend mode="normal" in="SourceGraphic" in2="BackgroundImageFix" result="shape"/>
<feColorMatrix in="SourceAlpha" type="matrix" values="0 0 0 0 0 0 0 0 0 0 0 0 0 0 0 0 0 0 127 0" result="hardAlpha"/>
<feOffset dy="2"/>
<feGaussianBlur stdDeviation="2"/>
<feComposite in2="hardAlpha" operator="arithmetic" k2="-1" k3="1"/>
<feColorMatrix type="matrix" values="0 0 0 0 0 0 0 0 0 0 0 0 0 0 0 0 0 0 0.2 0"/>
<feBlend mode="normal" in2="shape" result="effect1_innerShadow_1413_7246"/>
</filter>
</defs>
</svg>
