<svg width="74" height="74" viewBox="0 0 74 74" fill="none"
    xmlns="http://www.w3.org/2000/svg">
    <path opacity="1" d="M37 74C57.4345 74 74 57.4345 74 37C74 16.5655 57.4345 0 37 0C16.5655 0 0 16.5655 0 37C0 57.4345 16.5655 74 37 74Z" fill="#58435f"/>
    <path d="M36.9988 17L41.9539 22.0595L29.4766 34.5L24.5215 29.5595L36.9988 17Z" fill="#F0B90B" stroke="#F0B90B"/>
    <path d="M44.521 24.5L49.4761 29.5595L29.4766 49.5L24.5215 44.5596L44.521 24.5Z" fill="#F0B90B" stroke="#F0B90B"/>
    <path d="M21.9551 32L26.9102 37.0595L21.9551 42L17 37.0595L21.9551 32Z" fill="#F0B90B" stroke="#F0B90B"/>
    <path d="M52.0445 32L56.9996 37.0595L37 57.0001L32.0449 52.0596L52.0445 32Z" fill="#F0B90B" stroke="#F0B90B"/>
</svg>
