<svg width="74" height="74" viewBox="0 0 74 74" fill="none"
    xmlns="http://www.w3.org/2000/svg">
    <path opacity="1" d="M37 74C57.4345 74 74 57.4345 74 37C74 16.5655 57.4345 0 37 0C16.5655 0 0 16.5655 0 37C0 57.4345 16.5655 74 37 74Z" fill="#58435f"/>
    <path d="M37 57C48.0457 57 57 48.0457 57 37C57 25.9543 48.0457 17 37 17C25.9543 17 17 25.9543 17 37C17 48.0457 25.9543 57 37 57Z" stroke="#F3BA2F" stroke-width="2" stroke-miterlimit="10"/>
    <path d="M42.665 47.4781H40.2422C40.1541 47.4781 40.0219 47.382 40.0219 47.2859L37.2026 38.4438C37.1145 38.4918 36.9824 38.5399 36.8943 38.5879C36.7181 38.636 36.5859 38.7321 36.4538 38.7802L36.0573 38.9243C35.837 39.0204 35.6609 39.0685 35.4847 39.2127C35.3525 39.3088 35.2203 39.4049 35.1322 39.549C35.0441 39.6932 35.0001 39.8854 34.956 40.0776V47.2378C34.956 47.382 34.8239 47.5262 34.6917 47.5262H32.4011C32.2689 47.5262 32.1367 47.382 32.1367 47.2378V29.2172C32.1367 28.977 32.1808 28.6406 32.2689 28.2561C32.357 27.8236 32.5773 27.3431 32.8856 26.9586C33.194 26.5262 33.7226 26.1898 34.3393 25.8534C35.0001 25.5651 35.8811 25.4209 36.9824 25.4209C38.0836 25.4209 38.9647 25.5651 39.6254 25.8534C40.2862 26.1417 40.7708 26.5262 41.0791 26.9586C41.4316 27.3911 41.6078 27.8236 41.6959 28.2561C41.784 28.6886 41.828 29.025 41.828 29.2172V34.1188C41.828 34.7916 41.6518 35.4644 41.2994 36.041C40.991 36.6177 40.4624 37.0502 39.8017 37.3866L42.9293 47.0937C42.9733 47.1898 42.9293 47.2859 42.8852 47.3339C42.7971 47.4301 42.7531 47.4781 42.665 47.4781ZM40.4184 46.9014H42.3126L39.229 37.3385C39.185 37.1943 39.229 37.0502 39.3611 37.0021C40.066 36.7138 40.5505 36.2813 40.8589 35.7527C41.1673 35.2241 41.2994 34.6955 41.2994 34.1188V29.2172C41.2994 29.025 41.2554 28.7367 41.2113 28.3523C41.1673 28.0159 40.991 27.6314 40.6827 27.295C40.4184 26.9587 39.9778 26.6223 39.4052 26.3339C38.8325 26.0456 37.9955 25.9495 36.9824 25.9495C35.9251 25.9495 35.1322 26.0937 34.5595 26.3339C33.9869 26.6223 33.5464 26.9106 33.2821 27.295C33.0178 27.6314 32.8415 28.0159 32.7534 28.3523C32.6653 28.7367 32.6654 29.025 32.6654 29.2172V46.9495H34.4715V40.0296C34.4715 39.6932 34.6036 39.4049 34.7358 39.1646C34.8679 38.9724 35.0441 38.7802 35.2644 38.6841C35.4847 38.5399 35.7049 38.4438 35.9252 38.3477L36.3216 38.2035C36.4537 38.1555 36.5859 38.1074 36.7621 38.0593C36.9383 38.0113 37.1145 37.9152 37.2908 37.8191C37.3348 37.771 37.4229 37.8191 37.467 37.8191C37.511 37.8671 37.555 37.9152 37.5991 37.9632L40.4184 46.9014ZM35.2644 36.6177C35.1763 36.6177 35.0882 36.5696 35.0441 36.4255C35.0001 36.2813 35.0441 36.1371 35.1763 36.0891C35.4406 35.993 35.6609 35.8969 35.9692 35.8008C36.2335 35.7047 36.4978 35.6085 36.7621 35.5124C37.0264 35.4163 37.2908 35.3202 37.511 35.2241L37.8193 35.128C37.9074 35.0799 37.9955 35.0319 38.0836 35.0319C38.4801 34.8877 38.7444 34.6955 38.8325 34.4552C38.9647 34.1669 39.0088 33.9266 39.0088 33.7344V29.6978C39.0088 29.5536 38.9647 29.3614 38.9206 29.2172C38.8766 29.0731 38.7885 28.9289 38.6563 28.7847C38.5242 28.6406 38.3039 28.4964 38.0396 28.4003C37.7753 28.3042 37.3788 28.2081 36.8943 28.2081C36.4538 28.2081 36.0573 28.2561 35.793 28.4003C35.5287 28.4964 35.3525 28.6406 35.2203 28.8328C35.0882 28.977 35.0001 29.1692 34.956 29.3133C34.912 29.5056 34.912 29.6497 34.912 29.8419V30.1303C34.912 30.2744 34.7798 30.4186 34.6477 30.4186C34.5155 30.4186 34.3834 30.2744 34.3834 30.1303V29.8419C34.3834 29.6497 34.4274 29.4095 34.4715 29.2172C34.5155 28.977 34.6477 28.7367 34.8239 28.4964C35.0001 28.2561 35.2644 28.0639 35.6168 27.9197C35.9251 27.7756 36.3657 27.7275 36.8943 27.7275C37.4669 27.7275 37.9075 27.7756 38.2158 27.9197C38.5682 28.0639 38.8326 28.2561 39.0088 28.4484C39.229 28.6406 39.3611 28.8808 39.4052 29.1211C39.4492 29.3614 39.4933 29.5536 39.4933 29.7458V33.7825C39.4933 34.0708 39.4052 34.3591 39.2731 34.7435C39.0969 35.128 38.7885 35.4163 38.2599 35.6085C38.1718 35.6566 38.0837 35.7046 37.9515 35.7046L37.6431 35.8008C37.4229 35.8969 37.2026 35.993 36.9383 36.0891C36.674 36.1852 36.4097 36.2813 36.1013 36.3774C35.837 36.4735 35.5727 36.5696 35.3525 36.6657C35.3525 36.6177 35.3085 36.6177 35.2644 36.6177Z" fill="#F3BA2F" stroke="#F3BA2F" stroke-miterlimit="10"/>
    <path d="M35.377 52.7896C35.377 52.7896 35.377 52.6393 35.377 52.4889V48.8799C35.377 48.7295 35.377 48.5791 35.377 48.5791C35.377 48.5791 35.377 48.7295 35.377 48.8799V52.4889C35.377 52.6894 35.377 52.7896 35.377 52.7896Z" fill="#F3BA2F" stroke="#F3BA2F" stroke-miterlimit="10"/>
    <path d="M39.7051 52.7896C39.7051 52.7896 39.7051 52.6393 39.7051 52.4889V48.8799C39.7051 48.7295 39.7051 48.5791 39.7051 48.5791C39.7051 48.5791 39.7051 48.7295 39.7051 48.8799V52.4889C39.7051 52.6894 39.7051 52.7896 39.7051 52.7896Z" fill="#F3BA2F" stroke="#F3BA2F" stroke-miterlimit="10"/>
    <path d="M35.377 24.3683C35.377 24.3683 35.377 24.2556 35.377 24.1428V21.436C35.377 21.3232 35.377 21.2104 35.377 21.2104C35.377 21.2104 35.377 21.3232 35.377 21.436V24.1428C35.377 24.2932 35.377 24.3683 35.377 24.3683Z" fill="#F3BA2F" stroke="#F3BA2F" stroke-miterlimit="10"/>
    <path d="M39.7051 24.3683C39.7051 24.3683 39.7051 24.2556 39.7051 24.1428V21.436C39.7051 21.3232 39.7051 21.2104 39.7051 21.2104C39.7051 21.2104 39.7051 21.3232 39.7051 21.436V24.1428C39.7051 24.2932 39.7051 24.3683 39.7051 24.3683Z" fill="#F3BA2F" stroke="#F3BA2F" stroke-miterlimit="10"/>
</svg>
