<svg width="74" height="74" viewBox="0 0 74 74" fill="none"
    xmlns="http://www.w3.org/2000/svg">
    <path opacity="1" d="M37 74C57.4345 74 74 57.4345 74 37C74 16.5655 57.4345 0 37 0C16.5655 0 0 16.5655 0 37C0 57.4345 16.5655 74 37 74Z" fill="#58435f"/>
    <path fill-rule="evenodd" clip-rule="evenodd" d="M29.234 33.8075L37.0028 26.0419L44.7749 33.8139L49.2928 29.2929L37.0028 17L24.7129 29.2897L29.234 33.8075ZM17 37.0008L21.5194 32.4814L26.0388 37.0008L21.5194 41.5201L17 37.0008ZM37.0053 47.9613L29.2364 40.1925L24.709 44.7072L24.7153 44.7135L37.0053 57L49.2952 44.7072L49.2984 44.704L44.7773 40.1894L37.0053 47.9613ZM47.9609 37.0018L52.4803 32.4824L56.9998 37.0018L52.4803 41.5211L47.9609 37.0018ZM37.0027 32.4112L41.5869 36.9985H41.5901L41.5869 37.0016L37.0027 41.589L32.4184 37.008L32.4121 36.9985L32.4184 36.9922L33.2209 36.1897L33.6127 35.8011L37.0027 32.4112Z" fill="#F3BA2F"/>
</svg>
