<svg width="74" height="74" viewBox="0 0 74 74" fill="none"
    xmlns="http://www.w3.org/2000/svg">
    <path opacity="1" d="M37 74C57.4345 74 74 57.4345 74 37C74 16.5655 57.4345 0 37 0C16.5655 0 0 16.5655 0 37C0 57.4345 16.5655 74 37 74Z" fill="#58435f"/>
    <path fill-rule="evenodd" clip-rule="evenodd" d="M37 17C25.9538 17 17 25.9538 17 37C17 48.0462 25.9538 57 37 57C48.0462 57 57 48.0462 57 37C56.998 25.9538 48.0441 17 37 17ZM32.9532 27.5178C33.4616 27.2033 34.6039 28.5832 35.4813 29.6433C35.9814 30.2475 36.3955 30.7478 36.5573 30.7712C36.9035 30.8211 37.6695 30.1447 38.3374 29.555C38.5328 29.3824 38.7198 29.2173 38.8854 29.08C39.6171 28.4733 42.8262 26.4636 42.9673 26.6712C43.0527 26.7952 42.2344 27.3401 41.2792 27.9762C40.6344 28.4056 39.9271 28.8766 39.3934 29.2876C38.9198 29.6523 38.4963 30.0856 38.0992 30.4918L38.0992 30.4918C37.3859 31.2215 36.7581 31.8637 36.0795 31.8637C35.1893 31.8637 33.6918 29.7557 33.0815 28.8966L33.0814 28.8965C32.9677 28.7364 32.8847 28.6196 32.8423 28.568C32.5782 28.2858 32.5944 27.8423 32.8766 27.5783C32.9008 27.5561 32.927 27.536 32.9532 27.5178ZM41.2767 36.1877L43.2763 44.4804L46.9348 44.4723L43.1896 28.5703L36.9953 36.3489L30.6437 28.5703L26.8663 44.4763H30.6417L32.6413 36.1837L36.9953 41.3338L41.2767 36.1877Z" fill="#F3BA2F"/>
</svg>
    