<svg width="509" height="397" viewBox="0 0 509 397" fill="none" xmlns="http://www.w3.org/2000/svg">
<path d="M371.517 312.928L359.193 311.513L355.09 316.467L371.517 312.928Z" fill="#0A6C8E"/>
<path d="M323.378 21.1378L323.299 80.5161C323.299 80.5161 253.449 85.8771 238.294 81.0797C223.139 76.2822 230.258 56.2536 230.271 46.6849C230.284 37.1162 230.52 13.8237 232.958 8.33154C235.397 2.85249 246.921 5.70998 261.079 7.46642C275.238 9.23597 323.378 21.1378 323.378 21.1378Z" fill="#EEE6DE"/>
<path d="M230.271 46.6834C230.284 37.1147 230.52 13.8222 232.959 8.33007C235.397 2.85102 246.921 5.70852 261.08 7.46496C275.238 9.23451 323.378 21.1233 323.378 21.1233L323.365 31.0721C310.412 27.9262 276.772 21.4641 265.511 20.0615C251.352 18.292 241.362 16.4307 238.924 21.9097C236.485 27.3888 235.659 48.3743 235.646 57.943C235.633 63.2123 233.483 71.6406 234.073 78.9679C224.634 71.9945 230.258 55.1904 230.271 46.6834Z" fill="#EFD5BF"/>
<g opacity="0.58">
<g opacity="0.58">
<path opacity="0.58" d="M230.678 9.16968L322.683 25.9476C322.696 25.9476 248.861 9.7071 230.678 9.16968Z" fill="#E8D3C1"/>
<path opacity="0.58" d="M228.238 43.2371L321.07 50.4726C321.07 50.4726 246.317 42.0181 228.238 43.2371Z" fill="#E8D3C1"/>
<path opacity="0.58" d="M228.238 39.4497L321.017 49.0577C321.03 49.0577 246.356 38.5715 228.238 39.4497Z" fill="#E8D3C1"/>
<path opacity="0.58" d="M228.251 37.1548L321.031 46.7628C321.031 46.7628 246.356 36.2766 228.251 37.1548Z" fill="#E8D3C1"/>
<path opacity="0.58" d="M228.279 34.1259L320.992 44.6515C321.005 44.6646 246.41 33.4312 228.279 34.1259Z" fill="#E8D3C1"/>
<path opacity="0.58" d="M228.37 30.1158L320.913 42.5944C320.913 42.5944 246.527 29.8012 228.37 30.1158Z" fill="#E8D3C1"/>
<path opacity="0.58" d="M228.384 27.2325L320.927 39.6849C320.927 39.698 246.528 26.9179 228.384 27.2325Z" fill="#E8D3C1"/>
<path opacity="0.58" d="M228.434 23.6928L320.885 37.0496C320.872 37.0627 246.591 23.5486 228.434 23.6928Z" fill="#E8D3C1"/>
<path opacity="0.58" d="M228.434 20.4045L320.885 33.7613C320.885 33.7613 246.591 20.2603 228.434 20.4045Z" fill="#E8D3C1"/>
<path opacity="0.58" d="M228.502 17.0208L320.835 31.3738C320.835 31.3738 246.659 17.0732 228.502 17.0208Z" fill="#E8D3C1"/>
<path opacity="0.58" d="M228.094 13.2603L320.428 27.6133C320.428 27.6133 246.265 13.3127 228.094 13.2603Z" fill="#E8D3C1"/>
</g>
<g opacity="0.58">
<path opacity="0.58" d="M230.899 74.6971L320.44 74.5791C320.44 74.5791 248.938 77.2662 230.899 74.6971Z" fill="#E8D3C1"/>
<path opacity="0.58" d="M228.603 46.082L320.7 52.2951C320.7 52.3082 246.747 49.4114 228.603 46.082Z" fill="#E8D3C1"/>
<path opacity="0.58" d="M228.63 49.1355L320.662 54.4179C320.662 54.4179 246.604 52.9367 228.63 49.1355Z" fill="#E8D3C1"/>
<path opacity="0.58" d="M228.694 53.1863L320.569 56.4763C320.569 56.4894 246.694 56.6205 228.694 53.1863Z" fill="#E8D3C1"/>
<path opacity="0.58" d="M228.681 56.0967L320.555 59.413C320.555 59.413 246.694 59.5309 228.681 56.0967Z" fill="#E8D3C1"/>
<path opacity="0.58" d="M228.721 59.6746L320.504 62.0602C320.504 62.0471 246.734 62.9253 228.721 59.6746Z" fill="#E8D3C1"/>
<path opacity="0.58" d="M228.708 62.9912L320.491 65.3768C320.504 65.3768 246.721 66.2419 228.708 62.9912Z" fill="#E8D3C1"/>
<path opacity="0.58" d="M228.76 66.3989L320.438 67.7621C320.438 67.7752 246.786 69.4662 228.76 66.3989Z" fill="#E8D3C1"/>
<path opacity="0.58" d="M228.341 70.1216L320.019 71.4848C320.019 71.4979 246.367 73.1757 228.341 70.1216Z" fill="#E8D3C1"/>
</g>
<path opacity="0.58" d="M230.151 77.4602L322.248 78.5219C322.261 78.535 248.229 80.1211 230.151 77.4602Z" fill="#E8D3C1"/>
</g>
<path d="M239.815 0.0856934C239.815 0.0856934 87.5427 16.4835 75.1276 20.1799C62.7125 23.8763 65.5311 60.7354 67.6549 72.1654C69.7788 83.5953 78.156 86.9378 87.0577 87.2917C95.9593 87.6456 252.964 87.0033 252.964 87.0033C252.964 87.0033 231.791 83.1235 229.55 67.0402C227.308 50.957 230.992 18.9871 231.713 13.5474C232.421 8.12076 239.815 0.0856934 239.815 0.0856934Z" fill="#9E6718"/>
<path d="M172.64 69.9762C170.555 54.2862 173.977 23.0897 174.645 17.7942C175.104 14.1633 178.487 9.32657 180.558 6.65259H180.545C176.966 7.07204 173.321 7.5177 169.651 7.95026C167.566 10.6898 164.564 15.1464 164.144 18.5676C163.476 23.8631 160.054 55.0596 162.139 70.7496C163.358 79.9119 167.54 84.8011 170.817 87.2785C174.685 87.2654 178.552 87.2523 182.38 87.2392C178.998 85.0633 173.99 80.1479 172.64 69.9762Z" fill="#FFD773"/>
<path d="M154.389 70.5005C152.304 55.2037 155.726 24.8068 156.394 19.6555C156.853 16.1295 160.209 11.45 162.281 8.84155C158.623 9.28722 154.965 9.73288 151.308 10.1785C149.236 12.8525 146.3 17.1257 145.88 20.4157C145.212 25.5802 141.79 55.9771 143.874 71.2608C145.081 80.1347 149.223 84.8929 152.501 87.344C156.316 87.3309 160.17 87.3309 164.051 87.3178C160.681 85.1419 155.726 80.3576 154.389 70.5005Z" fill="#FFD773"/>
<path d="M225.601 42.7515C225.719 40.3265 225.836 37.9803 225.915 35.7913C225.968 34.3363 226.007 32.8551 226.046 31.3739C226.335 19.8784 226.649 8.00277 233.375 2.66791C236.416 0.256079 240.349 -0.517279 245.056 0.334726C258.611 2.79899 315.889 15.0154 328.238 17.6501L328.225 25.7376C320.149 24.0074 257.772 10.6899 243.889 8.17317C240.756 7.60954 239.353 8.35668 238.579 8.95964C234.633 12.0924 234.358 22.6048 234.122 31.8851C234.083 33.3925 234.043 34.8999 233.991 36.368C233.912 38.5963 233.702 42.4893 233.663 43.4462C233.598 45.491 232.536 74.2626 237.386 77.4609C242.775 80.0955 287.519 82.3763 328.133 80.3839L328.12 88.3796C312.336 89.1399 275.969 87.9209 252.948 86.9902C243.482 86.6101 236.272 85.8105 233.676 84.3818C223.778 78.9289 224.709 60.5387 225.601 42.7515Z" fill="#87510A"/>
<path d="M238.489 53.5522C238.489 53.5522 239.905 73.2794 239.747 85.9547C247.312 86.7805 255.453 87.095 255.453 87.095C255.453 87.095 252.058 54.4567 238.489 53.5522Z" fill="#EFD5BF"/>
<path opacity="0.46" d="M77.2885 22.3419C77.2885 22.3419 180.293 10.3221 197.166 8.73604C214.038 7.15 219.754 5.64261 222.062 7.25487C224.369 8.86712 223.373 23.7707 222.062 25.9466C220.751 28.1355 210.42 28.0307 199.067 28.3322C187.727 28.6336 77.0787 33.667 73.8668 33.7588C70.6548 33.8505 71.2579 28.6992 72.3985 26.6282C73.539 24.544 74.9549 22.6172 77.2885 22.3419Z" fill="white"/>
<path d="M328.241 147.115C328.241 147.115 335.949 167.812 335.687 184.865C338.519 180.867 341.338 175.467 341.338 175.467L350.515 183.685C350.515 183.685 344.851 145.673 337.575 134.112C330.299 122.564 328.241 147.115 328.241 147.115Z" fill="#EE6D4A"/>
<path d="M52.2354 147.757L79.9236 165.57H311.917L337.573 147.757C337.573 147.757 225.562 143.929 188.841 141.216C152.12 138.502 52.2354 147.757 52.2354 147.757Z" fill="#007F7C"/>
<path d="M52.2329 85.8365C52.2329 85.8365 326.585 86.99 336.614 88.1434C342.776 90.0703 342.395 105.865 342.776 119.353C343.156 132.841 343.549 145.713 337.571 147.745C331.593 149.789 56.7297 147.889 52.2329 147.745C47.7362 147.6 44.6554 138.871 44.1441 124.74C43.6197 110.623 42.0858 85.7971 52.2329 85.8365Z" fill="#00AAAC"/>
<path d="M81.0246 85.9677C77.4194 85.9546 74.0764 85.9415 71.0611 85.9153C69.9729 87.3834 68.8062 89.9394 68.8062 94.1732C68.8062 102.13 68.8062 126.274 68.8062 133.405C68.8062 138.53 71.297 144.52 73.198 147.915C76.8688 147.941 80.9591 147.967 85.4033 147.994C83.0567 145.372 79.4514 140.457 78.6648 134.27C77.4718 124.911 77.6685 101.225 78.1535 95.6412C78.5206 91.2895 79.7005 87.6324 81.0246 85.9677Z" fill="#4CEDE5"/>
<path d="M98.4845 86.06C95.0103 86.0469 91.6935 86.0207 88.5209 86.0076C87.4459 87.4887 86.3315 90.0317 86.3315 94.1868C86.3315 102.143 86.3315 126.288 86.3315 133.418C86.3315 138.609 88.8749 144.678 90.7889 148.06C94.6564 148.086 98.7467 148.112 103.034 148.138C100.687 145.543 96.9899 140.575 96.1902 134.297C94.9972 124.938 95.1939 101.252 95.6789 95.668C96.046 91.3686 97.1997 87.7509 98.4845 86.06Z" fill="#4CEDE5"/>
<path d="M303.762 148.57C308.154 148.543 312.205 148.504 315.875 148.465C317.75 145.017 320.084 139.276 320.084 134.308C320.084 127.178 320.084 103.033 320.084 95.0768C320.084 91.5639 319.284 89.2176 318.392 87.684C315.351 87.6316 311.982 87.5922 308.337 87.5398C309.465 89.4011 310.422 92.7043 310.749 96.5579C311.234 102.142 311.418 125.841 310.238 135.187C309.451 141.124 306.108 145.882 303.762 148.57Z" fill="#4CEDE5"/>
<path d="M286.154 148.648C290.389 148.635 294.427 148.622 298.255 148.596C300.143 145.162 302.529 139.329 302.529 134.295C302.529 127.165 302.529 103.02 302.529 95.0637C302.529 91.3804 301.65 88.9686 300.706 87.4349C297.508 87.3956 294.151 87.3563 290.638 87.3301C291.818 89.1521 292.84 92.5339 293.194 96.5449C293.679 102.129 293.863 125.828 292.683 135.173C291.91 141.19 288.501 145.974 286.154 148.648Z" fill="#4CEDE5"/>
<path d="M52.233 90.083C52.233 90.083 201.883 90.083 249.013 90.083C296.144 90.083 323.766 90.083 330.177 90.083C336.601 90.083 338.777 92.9667 339.302 98.0918C339.813 103.217 337.755 104.095 324.92 103.938C312.072 103.781 60.7152 103.938 52.233 103.938C43.7509 103.938 45.8747 90.083 52.233 90.083Z" fill="#00C1BC"/>
<path d="M204.472 363.369C204.472 363.369 25.325 327.781 11.9659 323.718C-1.3931 319.654 -5.45718 280.174 9.64548 275.232C24.7481 270.29 195.492 259.844 195.492 259.844L394.252 271.247L204.472 363.369Z" fill="#167BA8"/>
<path d="M11.9679 323.705C25.3269 327.768 204.474 363.356 204.474 363.356L306.798 311.213L4.03635 279.663C-3.98693 291.394 0.653986 320.271 11.9679 323.705Z" fill="#3989B4"/>
<path d="M389.456 276.004C352.591 279.045 220.98 290.514 203.032 300.489C182.122 312.103 189.097 357.98 206.52 359.133C220.639 360.077 343.348 333.966 389.456 324.005V276.004Z" fill="#EEE6DE"/>
<path d="M212.695 314.856C229.319 305.628 343.388 295.103 389.457 291.184V276.005C352.592 279.046 220.981 290.515 203.033 300.49C184.05 311.029 188.049 349.815 201.985 357.732C197.435 342.973 199.559 322.144 212.695 314.856Z" fill="#EFD5BF"/>
<path d="M394.253 318.514C338.103 330.691 223.588 354.809 207.554 354.796C207.279 354.796 207.03 354.783 206.82 354.77C202.192 354.455 197.709 348.072 195.637 338.857C192.74 325.906 195.074 309.876 205.155 304.279C221.071 295.431 342.416 284.119 394.253 279.964V271.221C362.933 273.724 220.835 285.6 200.921 296.663C186.46 304.698 183.642 325.159 187.129 340.757C190.131 354.167 196.437 362.818 205.208 363.408C205.483 363.421 206.82 363.486 207.174 363.486C226.184 363.486 350.4 336.917 394.24 327.414V318.514H394.253Z" fill="#0A759B"/>
<path d="M206.521 307.752L387.137 283.07C387.137 283.07 241.079 299.049 206.521 307.752Z" fill="#E8D3C1"/>
<path d="M204.346 312.786L384.961 288.104C384.961 288.117 238.904 304.082 204.346 312.786Z" fill="#E8D3C1"/>
<path d="M199.704 318.447L383.505 292.638C383.505 292.638 234.261 309.744 199.704 318.447Z" fill="#E8D3C1"/>
<path d="M199.494 324.15L383.216 296.493C383.216 296.493 234.051 315.433 199.494 324.15Z" fill="#E8D3C1"/>
<path d="M199.494 329.262L383.216 300.451C383.216 300.451 234.051 320.546 199.494 329.262Z" fill="#E8D3C1"/>
<path d="M199.494 334.059L383.216 303.754C383.216 303.754 234.051 325.343 199.494 334.059Z" fill="#E8D3C1"/>
<path d="M200.896 337.467L383.504 307.45C383.504 307.45 235.454 328.751 200.896 337.467Z" fill="#E8D3C1"/>
<path d="M200.896 341.596L383.216 311.226C383.216 311.226 235.454 332.893 200.896 341.596Z" fill="#E8D3C1"/>
<path d="M203.491 346.393L383.937 313.768C383.937 313.768 238.049 337.677 203.491 346.393Z" fill="#E8D3C1"/>
<path d="M206.521 350.614L384.96 316.927C384.96 316.927 241.079 341.911 206.521 350.614Z" fill="#E8D3C1"/>
<path d="M6.38454 282.19C6.38454 282.19 127.691 300.043 152.954 303.753C178.217 307.449 184.313 306.361 183.448 316.926C182.582 327.491 179.095 327.451 143.161 322.457C107.226 317.463 13.1493 299.178 6.39765 298.09C-0.367088 297.002 2.63509 281.64 6.38454 282.19Z" fill="#3C9CC6"/>
<path d="M120.571 342.827C120.335 342.827 120.112 342.814 119.876 342.774C87.4292 337.518 48.3878 329.286 37.1919 326.888C35.0418 326.429 33.3376 324.764 32.8263 322.641C31.2924 316.244 28.5524 300.253 36.1955 289.911C37.2837 288.443 39.1322 287.682 41.02 287.905L123.272 297.985C124.53 298.142 125.658 298.824 126.379 299.86C127.087 300.895 127.336 302.18 127.034 303.399C125.566 309.402 123.337 321.894 124.832 338.095C124.95 339.445 124.465 340.743 123.482 341.66C122.669 342.42 121.646 342.827 120.571 342.827ZM40.3514 288.901C39.0273 288.901 37.7949 289.491 37.0346 290.527C29.6537 300.515 32.3412 316.139 33.8488 322.392C34.2684 324.135 35.6711 325.498 37.4279 325.865C48.6106 328.264 87.639 336.483 120.06 341.739C121.069 341.909 122.053 341.595 122.787 340.913C123.534 340.218 123.914 339.222 123.822 338.187C122.315 321.841 124.57 309.218 126.051 303.15C126.274 302.219 126.09 301.236 125.553 300.449C125.002 299.65 124.137 299.125 123.167 299.008L40.9151 288.928C40.7053 288.915 40.5218 288.901 40.3514 288.901Z" fill="#B6E2FF"/>
<path d="M152.734 341.595C158.027 341.595 162.318 335.609 162.318 328.225C162.318 320.841 158.027 314.855 152.734 314.855C147.441 314.855 143.151 320.841 143.151 328.225C143.151 335.609 147.441 341.595 152.734 341.595Z" fill="#003E60"/>
<path d="M145.549 328.657C145.549 321.278 149.836 315.288 155.119 315.288C154.359 315.012 153.559 314.855 152.733 314.855C147.437 314.855 143.15 320.845 143.15 328.225C143.15 335.605 147.437 341.595 152.733 341.595C148.604 340.114 145.549 334.897 145.549 328.657Z" fill="#0A759B"/>
<path d="M21.9207 314.175C25.9681 314.175 29.2492 309.592 29.2492 303.938C29.2492 298.284 25.9681 293.701 21.9207 293.701C17.8733 293.701 14.5923 298.284 14.5923 303.938C14.5923 309.592 17.8733 314.175 21.9207 314.175Z" fill="#003E60"/>
<path d="M16.4141 304.278C16.4141 298.629 19.6916 294.054 23.7425 294.041C23.1526 293.832 22.5495 293.714 21.9203 293.714C17.8693 293.714 14.5918 298.288 14.5918 303.951C14.5918 309.6 17.8693 314.188 21.9203 314.188C18.7608 313.034 16.4141 309.05 16.4141 304.278Z" fill="#0A759B"/>
<path d="M208.308 327.373C208.308 327.373 209.868 349.512 209.71 363.367C213.748 363.066 226.19 361.244 226.19 361.244C226.19 361.244 222.925 327.767 208.308 327.373Z" fill="#EFD5BF"/>
<path d="M208.308 327.282C208.308 327.282 223.201 336.732 224.079 381.325C231.053 374.089 235.839 369.489 235.839 369.489L248.424 376.842C248.424 376.842 240.152 329.654 230.385 323.048C216.069 324.621 208.308 327.282 208.308 327.282Z" fill="#EE6D4A"/>
<path d="M182.848 292.665C182.848 292.665 339.263 273.711 350.786 269.53C362.323 265.348 365.823 231.058 352.792 227.559C339.761 224.059 192.366 216.378 192.366 216.378L20.7827 222.25L182.848 292.665Z" fill="#E0512F"/>
<path d="M350.785 269.53C339.249 273.711 182.847 292.665 182.847 292.665L106.77 247.823L183.201 232.907L357.642 231.111C364.564 240.824 360.552 265.978 350.785 269.53Z" fill="#EE6D4A"/>
<path d="M24.9258 226.117C56.7567 226.89 170.354 230.141 185.85 237.848C203.903 246.814 197.885 286.766 182.848 288.654C170.669 290.174 64.7407 273.829 24.9258 267.563V226.117Z" fill="#EEE6DE"/>
<path d="M177.512 250.745C163.17 243.615 64.6883 240.285 24.9258 239.224V226.116C56.7567 226.889 170.354 230.14 185.85 237.847C202.238 245.987 198.79 279.674 186.755 287.211C190.688 274.248 188.853 256.382 177.512 250.745Z" fill="#EFD5BF"/>
<path d="M20.7974 263.066C69.2648 270.747 168.114 285.782 181.958 284.969C182.194 284.956 182.404 284.943 182.6 284.917C186.586 284.418 190.466 278.677 192.249 270.616C194.753 259.291 192.734 245.567 184.029 241.241C170.29 234.412 65.5416 230.755 20.7974 229.785V222.248C47.8301 222.825 170.487 225.905 187.687 234.452C200.168 240.652 202.606 258.177 199.591 271.822C196.995 283.553 190.676 291.431 183.112 292.375C182.876 292.401 182.6 292.427 182.299 292.454C165.885 293.41 58.6589 276.75 20.8105 270.747V263.066H20.7974Z" fill="#F48369"/>
<g opacity="0.58">
<path opacity="0.58" d="M182.846 244.297L26.9292 232.106C26.9292 232.106 153.008 238.529 182.846 244.297Z" fill="#E8D3C1"/>
<path opacity="0.58" d="M184.72 248.544L28.8037 236.354C28.8037 236.354 154.882 242.763 184.72 248.544Z" fill="#E8D3C1"/>
<path opacity="0.58" d="M188.719 253.197L30.0625 240.194C30.0625 240.194 158.894 247.417 188.719 253.197Z" fill="#E8D3C1"/>
<path opacity="0.58" d="M188.904 258.098L30.313 243.496C30.313 243.496 159.079 252.318 188.904 258.098Z" fill="#E8D3C1"/>
<path opacity="0.58" d="M188.904 262.517L30.313 246.919C30.313 246.906 159.079 256.736 188.904 262.517Z" fill="#E8D3C1"/>
<path opacity="0.58" d="M188.904 266.659L30.313 249.763C30.313 249.763 159.079 260.879 188.904 266.659Z" fill="#E8D3C1"/>
<path opacity="0.58" d="M187.697 269.673L30.0625 252.974C30.0625 252.974 157.871 263.893 187.697 269.673Z" fill="#E8D3C1"/>
<path opacity="0.58" d="M187.698 273.238L30.313 256.211C30.313 256.211 157.873 267.457 187.698 273.238Z" fill="#E8D3C1"/>
<path opacity="0.58" d="M185.454 277.512L29.6816 258.44C29.6816 258.44 155.629 271.731 185.454 277.512Z" fill="#E8D3C1"/>
<path opacity="0.58" d="M182.846 281.299L28.8037 261.218C28.8037 261.218 153.007 275.532 182.846 281.299Z" fill="#E8D3C1"/>
</g>
<path d="M355.783 234.676C355.783 234.676 257.576 242.318 231.854 244.874C209.698 247.076 203.432 245.556 204.192 254.626C204.939 263.697 217.617 261.783 249.054 258.428C283.966 254.692 349.778 248.387 355.612 247.116C361.446 245.844 359.021 234.021 355.783 234.676Z" fill="#F48369"/>
<path d="M340.496 271.64C340.274 271.626 340.064 271.456 339.998 271.233C339.92 270.958 340.077 270.683 340.352 270.617C342.03 270.25 347.418 266.79 348.258 263.067C349.123 259.2 350.224 250.352 350.762 242.92C351.26 235.895 346.448 233.063 346.239 232.945C345.99 232.801 345.885 232.487 346.003 232.238C346.134 231.988 346.435 231.897 346.697 232.054C346.75 232.08 352.335 235.318 351.784 243.065C351.247 250.536 350.145 259.449 349.267 263.355C348.362 267.406 342.686 271.194 340.641 271.64C340.588 271.64 340.536 271.64 340.496 271.64Z" fill="#F9A0A0"/>
<path d="M333.759 272.349C333.536 272.336 333.326 272.165 333.26 271.942C333.182 271.667 333.339 271.392 333.614 271.326C335.293 270.959 340.681 267.499 341.52 263.776C342.385 259.909 343.486 251.062 344.024 243.63C344.522 236.604 339.711 233.773 339.501 233.655C339.252 233.51 339.147 233.196 339.265 232.947C339.396 232.698 339.697 232.606 339.96 232.763C340.012 232.789 345.597 236.027 345.046 243.774C344.509 251.245 343.408 260.158 342.529 264.065C341.625 268.115 335.948 271.903 333.903 272.349C333.85 272.349 333.811 272.362 333.759 272.349Z" fill="#F9A0A0"/>
<path d="M225.914 254.718C226.517 267.288 224.708 276.411 219.451 288.142C223.646 287.618 228.078 287.068 232.666 286.478C233.164 285.272 237.936 273.357 238.094 256.671C238.172 248.583 235.865 243.039 233.348 239.382L221.09 240.194C223.358 243.72 225.626 248.662 225.914 254.718Z" fill="#CC3A1D"/>
<path d="M245.198 253.446C245.788 265.571 244.084 274.51 239.259 285.639C243.559 285.088 247.964 284.524 252.435 283.961C253.785 280.304 257.246 269.568 257.377 255.399C257.456 247.298 255.148 241.754 252.631 238.097L240.374 238.909C242.642 242.435 244.91 247.39 245.198 253.446Z" fill="#CC3A1D"/>
<path d="M176.66 256.211C176.66 256.211 175.217 279.36 175.349 292.284C171.586 291.995 159.59 290.855 159.59 290.855C159.59 290.855 163.038 256.578 176.66 256.211Z" fill="#EFD5BF"/>
<path d="M176.659 256.212C176.659 256.212 162.776 266.607 161.963 308.171C155.46 301.421 151.003 297.135 151.003 297.135L139.27 303.99C139.27 303.99 146.991 260.013 156.076 253.84C169.422 255.321 176.659 256.212 176.659 256.212Z" fill="#FFBC00"/>
<path d="M72.9902 154.284V213.846C72.9902 213.846 141.988 222.039 156.959 217.844C171.931 213.65 164.93 193.267 164.93 183.672C164.93 174.077 164.734 150.693 162.335 145.096C159.935 139.499 148.543 141.898 134.555 143.104C120.566 144.296 72.9902 154.284 72.9902 154.284Z" fill="#EEE6DE"/>
<path d="M164.943 183.673C164.943 174.078 164.747 150.693 162.348 145.096C159.949 139.499 148.556 141.898 134.568 143.104C120.579 144.297 73.0034 154.298 73.0034 154.298V164.273C85.7987 161.638 119.046 156.513 130.176 155.556C144.164 154.364 154.036 152.882 156.435 158.479C158.834 164.076 159.621 185.154 159.621 194.749C159.621 200.031 161.732 208.577 161.142 215.905C170.463 209.285 164.943 192.206 164.943 183.673Z" fill="#EFD5BF"/>
<g opacity="0.58">
<g opacity="0.58">
<path opacity="0.58" d="M164.578 146.014L73.6606 159.135C73.6606 159.148 146.618 145.83 164.578 146.014Z" fill="#E8D3C1"/>
<path opacity="0.58" d="M166.951 180.291L75.2202 183.804C75.2202 183.804 149.095 178.338 166.951 180.291Z" fill="#E8D3C1"/>
<path opacity="0.58" d="M166.952 176.489L75.2744 182.387C75.2744 182.387 149.057 174.877 166.952 176.489Z" fill="#E8D3C1"/>
<path opacity="0.58" d="M166.952 174.196L75.2744 180.094C75.2744 180.094 149.057 172.584 166.952 174.196Z" fill="#E8D3C1"/>
<path opacity="0.58" d="M166.91 171.154L75.2979 177.983C75.311 177.983 149.015 169.725 166.91 171.154Z" fill="#E8D3C1"/>
<path opacity="0.58" d="M166.831 167.131L75.3892 175.913C75.3892 175.913 148.91 166.082 166.831 167.131Z" fill="#E8D3C1"/>
<path opacity="0.58" d="M166.831 164.247L75.3892 173.003C75.3892 173.003 148.91 163.186 166.831 164.247Z" fill="#E8D3C1"/>
<path opacity="0.58" d="M166.792 160.681L75.4419 170.355C75.4288 170.355 148.844 159.816 166.792 160.681Z" fill="#E8D3C1"/>
<path opacity="0.58" d="M166.792 157.378L75.4419 167.052C75.4288 167.052 148.844 156.5 166.792 157.378Z" fill="#E8D3C1"/>
<path opacity="0.58" d="M166.728 153.983L75.4824 164.653C75.4955 164.666 148.78 153.315 166.728 153.983Z" fill="#E8D3C1"/>
<path opacity="0.58" d="M167.134 150.235L75.8887 160.905C75.8887 160.905 149.186 149.553 167.134 150.235Z" fill="#E8D3C1"/>
</g>
<g opacity="0.58">
<path opacity="0.58" d="M164.273 211.738L74.0112 206.914C74.0112 206.914 146.457 213.586 164.273 211.738Z" fill="#E8D3C1"/>
<path opacity="0.58" d="M166.581 183.136L75.5845 185.653C75.5845 185.666 148.646 185.731 166.581 183.136Z" fill="#E8D3C1"/>
<path opacity="0.58" d="M166.556 186.189L75.6255 187.775C75.6255 187.775 148.792 189.296 166.556 186.189Z" fill="#E8D3C1"/>
<path opacity="0.58" d="M166.476 190.266L75.7031 189.873C75.7031 189.86 148.686 192.98 166.476 190.266Z" fill="#E8D3C1"/>
<path opacity="0.58" d="M166.488 193.176L75.7148 192.796C75.7148 192.796 148.685 195.89 166.488 193.176Z" fill="#E8D3C1"/>
<path opacity="0.58" d="M166.437 196.755L75.7554 195.445C75.7554 195.445 148.647 199.298 166.437 196.755Z" fill="#E8D3C1"/>
<path opacity="0.58" d="M166.451 200.097L75.769 198.786C75.769 198.786 148.647 202.627 166.451 200.097Z" fill="#E8D3C1"/>
<path opacity="0.58" d="M166.398 203.505L75.8213 201.185C75.8213 201.185 148.582 205.852 166.398 203.505Z" fill="#E8D3C1"/>
<path opacity="0.58" d="M166.804 207.255L76.2275 204.935C76.2275 204.935 148.988 209.601 166.804 207.255Z" fill="#E8D3C1"/>
</g>
<path opacity="0.58" d="M164.996 214.554L73.2266 210.307C73.2397 210.307 147.154 216.481 164.996 214.554Z" fill="#E8D3C1"/>
</g>
<path d="M155.572 136.549C155.572 136.549 305.982 159.134 318.24 163.341C330.498 167.549 328.886 199.073 326.775 210.451C324.664 221.828 316.379 224.843 307.582 224.843C298.785 224.843 151.875 222.969 151.875 222.969C151.875 222.969 163.386 220.164 165.627 204.12C167.869 188.076 164.277 155.857 163.569 150.378C162.861 144.899 155.572 136.549 155.572 136.549Z" fill="#FFBC00"/>
<path d="M219.928 156.408C220.583 161.494 223.926 191.445 221.842 206.362C220.059 219.181 211.917 222.904 209.649 223.704C213.779 223.756 217.987 223.808 222.235 223.861C225.552 222 230.822 217.556 232.225 207.542C234.309 192.625 230.966 162.674 230.311 157.588C229.891 154.311 226.928 149.92 224.883 147.22C221.252 146.643 217.646 146.092 214.107 145.529C216.152 148.15 219.482 152.908 219.928 156.408Z" fill="#FFD773"/>
<path d="M237.967 158.925C238.622 163.892 241.965 193.07 239.881 207.607C238.36 218.237 232.237 222.445 229.052 223.939C233.129 223.992 237.206 224.044 241.244 224.083C244.535 221.999 249.005 217.595 250.264 208.734C252.348 194.198 249.005 165.02 248.35 160.052C247.93 156.893 245.046 152.698 243.001 150.051C239.396 149.474 235.777 148.897 232.159 148.333C234.217 150.929 237.521 155.53 237.967 158.925Z" fill="#FFD773"/>
<path d="M169.559 179.91C169.441 177.472 169.323 175.113 169.257 172.91C169.205 171.442 169.179 169.961 169.139 168.48C168.864 156.945 168.576 145.004 161.942 139.394C158.94 136.851 155.059 135.907 150.405 136.576C137.007 138.503 80.4113 148.438 68.206 150.588V158.702C76.1768 157.299 137.833 146.459 151.546 144.48C154.653 144.034 156.016 144.847 156.79 145.489C160.684 148.779 160.933 159.344 161.156 168.664C161.195 170.171 161.221 171.691 161.273 173.173C161.352 175.414 161.549 179.32 161.575 180.29C161.641 182.348 162.65 211.251 157.839 214.252C152.503 216.677 108.309 214.397 68.1929 210.766V218.788C83.7937 220.19 119.715 223.192 142.461 223.192C151.808 223.192 158.94 222.681 161.509 221.357C171.303 216.271 170.411 197.789 169.559 179.91Z" fill="#F7A500"/>
<path d="M156.813 190.227C156.813 190.227 155.384 209.954 155.529 222.682C148.056 223.193 140.02 223.193 140.02 223.193C140.02 223.193 143.389 190.594 156.813 190.227Z" fill="#EFD5BF"/>
<path d="M156.812 190.213C156.812 190.213 142.26 202.181 141.474 243.274C135.089 237.585 130.697 234.033 130.697 234.033L119.161 242.553C119.161 242.553 127.289 197.567 136.243 190.122C149.353 189.584 156.812 190.213 156.812 190.213Z" fill="#3989B4"/>
<path opacity="0.37" d="M171.06 143.287C171.06 143.287 307.378 164.679 312.307 165.57C317.223 166.449 318.089 171.364 319.111 175.087C320.134 178.809 316.161 177.276 307.941 176.502C299.721 175.729 185.914 161.271 179.752 160.406C173.591 159.541 172.686 157.286 171.663 153.918C170.641 150.549 169.159 145.542 169.356 144.519C169.54 143.497 170.012 143.13 171.06 143.287Z" fill="white"/>
<path d="M179.824 222.943C179.601 222.943 179.378 222.839 179.247 222.629C179.037 222.314 179.116 221.869 179.444 221.659C180.637 220.859 185.252 213.178 185.606 204.894C185.946 196.833 185.946 178.534 185.606 163.251C185.265 148.386 180.427 142.96 180.375 142.907C180.112 142.619 180.126 142.186 180.414 141.924C180.689 141.662 181.135 141.675 181.397 141.964C181.607 142.2 186.654 147.757 187.008 163.224C187.362 178.534 187.362 196.872 187.008 204.96C186.654 213.217 182.013 221.633 180.23 222.826C180.099 222.904 179.968 222.943 179.824 222.943Z" fill="#CC8200"/>
<path d="M187.595 223.742C187.372 223.742 187.149 223.637 187.018 223.428C186.808 223.113 186.887 222.667 187.215 222.458C188.408 221.658 193.023 213.977 193.377 205.693C193.717 197.632 193.717 179.333 193.377 164.049C193.036 149.185 188.198 143.759 188.146 143.706C187.883 143.418 187.897 142.985 188.185 142.723C188.46 142.461 188.906 142.474 189.168 142.762C189.378 142.998 194.425 148.556 194.779 164.023C195.133 179.333 195.133 197.671 194.779 205.758C194.425 214.016 189.784 222.432 188.001 223.624C187.857 223.703 187.726 223.742 187.595 223.742Z" fill="#CC8200"/>
<path d="M238.49 53.5377C238.49 53.5377 253.2 66.0557 253.947 107.057C260.423 101.656 264.867 98.2877 264.867 98.2877L276.535 107.253C276.535 107.253 268.368 62.0709 259.322 54.2849C246.028 53.21 238.49 53.5377 238.49 53.5377Z" fill="#FFBC00"/>
<path d="M200.481 255.321C200.481 255.321 237.91 279.741 258.742 344.926C254.153 355.53 260.787 369.175 275.365 363.578C285.46 361.061 341.465 346.184 380.336 396.649C437.902 373.474 503.583 351.676 503.583 351.676C503.583 351.676 506.008 344.952 505.602 344.65C503.819 343.379 496.071 348.032 492.164 346.263C469.799 336.17 419.732 316.049 389.094 322.787C377.124 325.329 370.779 323.494 370.779 316.927C370.779 310.374 350.459 255.019 334.884 240.732C296.354 241.112 235.471 252.909 211.52 253.276C210.667 253.289 205.056 247.784 203.496 248.046C202.474 248.216 200.481 255.321 200.481 255.321Z" fill="#87510A"/>
<path d="M203.496 248.045C203.496 248.045 244.307 277.21 265.139 342.395C260.55 352.999 265.073 362.502 279.651 356.905C289.746 354.389 345.149 343.85 383.233 390.12C440.799 366.946 505.614 344.65 505.614 344.65C505.614 344.65 434.939 307.935 394.56 316.822C382.591 319.365 376.245 317.53 376.245 310.963C376.245 304.409 355.925 249.055 340.35 234.767C292.106 235.252 203.496 248.045 203.496 248.045Z" fill="#6D3E06"/>
<path d="M341.652 224.845L223.714 232.683C219.178 247.036 271.094 316.861 271.094 316.861C271.094 316.861 273.808 326.26 280.913 340.495L383.171 310.91C372.211 264.784 341.652 224.845 341.652 224.845Z" fill="#EADBCE"/>
<path d="M383.222 311.225C383.195 311.12 383.169 311.015 383.143 310.91L280.885 340.495C281.069 340.862 281.239 341.215 281.436 341.596C336.681 331.28 387.141 369.135 387.141 369.135C387.141 369.135 412.509 360.982 508.998 324.136C484.299 312.011 404.106 306.218 383.222 311.225Z" fill="#E5D1C3"/>
<path d="M389.516 360.733L389.464 360.746C389.464 360.746 346.607 325.578 283.837 339.419C276.495 307.961 243.615 241.74 223.701 232.683C217.409 237.69 209.647 243.274 209.647 243.274C209.647 243.274 254.693 285.153 267.987 341.595C278.016 341.176 282.906 352.173 282.906 352.173C282.906 352.173 316.874 345.003 343.277 353.222C369.681 361.441 386.278 383.816 386.278 383.816L386.619 383.698L507.597 340.127L509 324.149L389.516 360.733Z" fill="#D6B8A1"/>
<path d="M389.464 360.746C389.464 360.746 346.607 325.578 283.837 339.419C276.495 307.961 243.615 241.74 223.701 232.683C217.409 237.69 209.647 243.274 209.647 243.274C209.647 243.274 254.693 285.153 267.987 341.595C278.016 341.176 282.906 352.173 282.906 352.173C282.906 352.173 316.874 345.003 343.277 353.222C369.681 361.441 386.278 383.816 386.278 383.816L386.619 383.698L389.516 360.733L389.464 360.746Z" fill="#DBC2AD"/>
<path d="M283.834 340.494C283.834 340.494 329.116 321.501 389.514 350.614C453.753 332.787 504.108 316.861 504.108 316.861C504.108 316.861 436.107 298.405 383.221 311.225C330.335 324.044 289.078 337.008 283.834 340.494Z" fill="#EADBCE"/>
<path d="M283.836 339.432C283.836 339.432 287.573 276.908 241.229 224.097C271.251 220.584 357.252 219.05 357.252 219.05C357.252 219.05 385.399 269.751 383.21 311.237C336.656 323.047 283.836 339.432 283.836 339.432Z" fill="#EEE6DE"/>
<path d="M391.863 309.429C391.863 309.429 311.066 331.043 293.722 337.623C276.377 344.204 277.544 385.454 277.544 385.454L270.084 374.732L263.097 381.325C263.097 381.325 266.099 347.074 282.775 335.277C299.464 323.467 376.354 309.363 391.863 309.429Z" fill="#FFBC00"/>
<path d="M429.993 262.38C429.993 300.796 399.953 331.016 361.56 329.837C321.605 328.61 288 294.103 288 252.808C288 211.513 321.605 181.537 361.56 185.697C399.954 189.694 429.993 223.965 429.993 262.38Z" fill="url(#paint0_linear_1299_22098)"/>
<path d="M440.367 259.068C440.367 297.485 410.328 327.704 371.935 326.525C331.979 325.298 298.375 290.791 298.375 249.496C298.375 208.202 331.979 178.225 371.935 182.386C410.329 186.381 440.367 220.652 440.367 259.068Z" fill="url(#paint1_linear_1299_22098)"/>
<path d="M437.353 258.865C437.353 295.589 408.612 324.429 371.935 323.241C333.835 322.008 301.846 289.075 301.846 249.729C301.846 210.383 333.835 181.763 371.935 185.667C408.612 189.425 437.353 222.14 437.353 258.865Z" fill="url(#paint2_linear_1299_22098)"/>
<path d="M435.197 258.719C435.197 294.232 407.386 322.087 371.937 320.896C335.16 319.661 304.319 287.854 304.319 249.895C304.319 211.936 335.16 184.287 371.937 188.011C407.385 191.601 435.197 223.206 435.197 258.719Z" fill="url(#paint3_linear_1299_22098)"/>
<path d="M418.933 236.968C420.142 235.128 419.631 232.655 417.791 231.445L414.581 229.335C412.741 228.125 410.268 228.637 409.058 230.477L405.997 235.412C403.051 240.162 399.679 244.634 395.922 248.773C390.706 254.518 386.237 260.899 382.622 267.765L374.88 282.471C373.67 284.312 374.181 286.785 376.022 287.994L379.231 290.104C381.072 291.314 383.544 290.803 384.754 288.962L391.987 276.423C395.57 270.211 399.681 264.32 404.275 258.813L406.05 256.686C411.097 250.637 415.42 244.019 418.933 236.968Z" fill="url(#paint4_linear_1299_22098)"/>
<path d="M384.762 235.03C385.972 233.189 385.461 230.717 383.621 229.507L380.411 227.397C378.57 226.187 376.098 226.698 374.888 228.539C373.122 230.324 371.751 232.46 370.862 234.809L370.526 235.696L376.808 247.653L376.871 247.484C378.626 242.839 381.311 238.6 384.762 235.03Z" fill="url(#paint5_linear_1299_22098)"/>
<path d="M355.818 257.548L361.875 248.334L367.309 260.886L365.693 264.039C364.483 265.88 362.011 266.391 360.17 265.181L356.96 263.071C355.12 261.861 354.609 259.389 355.818 257.548Z" fill="url(#paint6_linear_1299_22098)"/>
<path d="M378.788 238.549C376.588 238.436 374.896 236.562 375.009 234.362L375.208 230.494C375.32 228.294 377.195 226.602 379.394 226.715L383.475 227.252C387.528 227.784 391.626 227.87 395.698 227.507C400.131 227.113 404.595 227.249 408.995 227.915L412.166 228.395C414.365 228.508 416.057 230.382 415.944 232.582L415.746 236.451C415.633 238.65 413.759 240.342 411.559 240.229L409.579 239.908C404.389 239.067 399.121 238.8 393.872 239.112C390.295 239.325 386.707 239.269 383.139 238.945L378.788 238.549Z" fill="url(#paint7_linear_1299_22098)"/>
<path d="M373.284 287.027L381.807 287.464L381.639 290.742L373.116 290.305L373.284 287.027Z" fill="url(#paint8_linear_1299_22098)"/>
<path d="M355.565 261.733C354.549 259.779 355.311 257.371 357.265 256.356L361.875 248.334C367.026 256.856 369.555 265.298 371.357 267.954L379.76 282.723C380.776 284.677 380.014 287.085 378.06 288.1L374.669 289.861C372.715 290.876 370.308 290.115 369.292 288.16C367.223 284.647 365.48 280.95 364.085 277.118L362.96 274.026C361.963 271.286 360.592 268.697 358.885 266.333L355.565 261.733Z" fill="url(#paint9_linear_1299_22098)"/>
<path d="M381.57 277.468C381.139 278.178 380.546 278.758 379.848 279.153C379.15 279.548 378.369 279.745 377.582 279.725C376.795 279.705 376.028 279.469 375.353 279.039C374.678 278.61 374.119 278.001 373.729 277.271L376.051 275.836C376.214 276.142 376.448 276.397 376.731 276.577C377.013 276.757 377.335 276.856 377.664 276.864C377.994 276.872 378.32 276.79 378.613 276.624C378.905 276.459 379.153 276.216 379.333 275.919L381.57 277.468Z" fill="url(#paint10_linear_1299_22098)"/>
<path d="M321.82 231.74C320.822 229.819 321.541 227.461 323.421 226.417C323.487 226.38 323.55 226.339 323.609 226.293C325.851 224.512 328.448 222.661 331.189 223.488C332.364 223.842 333.394 224.486 333.848 225.36L338.67 233.981C342.031 239.991 344.817 246.306 346.988 252.842C349.334 259.899 352.394 266.698 356.122 273.133L361.122 281.766C362.137 283.72 361.376 286.128 359.422 287.143L356.013 288.914C354.058 289.929 351.651 289.168 350.636 287.213L341.343 270.335L340.452 268.001C335.588 255.268 329.34 243.108 321.82 231.74Z" fill="url(#paint11_linear_1299_22098)"/>
<path d="M355.221 233.542C354.206 231.588 354.967 229.18 356.922 228.165L360.33 226.394C362.285 225.379 364.692 226.141 365.707 228.095L382.034 260.366C382.821 262.065 382.952 263.648 381.362 266.882L377.953 268.653C375.998 269.668 373.591 268.907 372.576 266.952L355.221 233.542Z" fill="url(#paint12_linear_1299_22098)"/>
<path d="M328.437 235.968C326.238 235.855 324.546 233.981 324.659 231.781L324.857 227.912C324.97 225.713 328.817 223.142 331.016 223.255L336.881 223.556L350.481 225.89L362.27 225.837C364.47 225.95 366.162 227.825 366.049 230.024L365.851 233.893C365.738 236.092 363.863 237.784 361.664 237.671L349.908 237.069L338.234 235.385L328.437 235.968Z" fill="url(#paint13_linear_1299_22098)"/>
<path d="M354.047 286.111L364.97 286.671L364.807 289.857L353.883 289.297L354.047 286.111Z" fill="url(#paint14_linear_1299_22098)"/>
<path d="M362.08 277.169C362.348 277.547 362.355 278.22 362.718 278.51C362.95 278.695 362.85 278.919 362.701 279.176C362.569 279.405 362.491 279.564 362.14 279.762C361.442 280.157 360.661 280.354 359.874 280.334C359.087 280.315 358.32 280.079 357.645 279.649C356.97 279.219 356.411 278.61 356.021 277.88L358.343 276.446C358.506 276.751 358.74 277.006 359.023 277.186C359.305 277.366 359.627 277.465 359.956 277.473C360.286 277.482 360.612 277.399 360.905 277.234C361.197 277.068 361.445 276.825 361.625 276.529L362.08 277.169Z" fill="url(#paint15_linear_1299_22098)"/>
<path d="M379.999 260.244C381.967 261.963 382.492 264.811 381.265 267.118L376.94 275.252L370.521 263.035L371.602 261.39C373.475 258.541 377.432 258.001 379.999 260.244Z" fill="url(#paint16_linear_1299_22098)"/>
<path d="M369.677 288.077L369.643 288.139L369.688 288.097L369.677 288.077Z" fill="url(#paint17_linear_1299_22098)"/>
<path d="M362.559 275.148L362.552 275.158L363.778 277.493L362.559 275.148Z" fill="url(#paint18_linear_1299_22098)"/>
<path d="M362.006 275.989L368.695 288.852C366.58 290.162 363.798 290.235 361.553 288.762C358.489 286.751 357.637 282.635 359.65 279.573L362.006 275.989Z" fill="url(#paint19_linear_1299_22098)"/>
<path opacity="0.3" d="M360.488 267.414C362.625 246.305 382.026 237.369 379.495 217.95C377.935 205.982 368.864 195.896 358.745 188.021C328.052 191.24 304.319 216.655 304.319 249.894C304.319 287.853 335.16 319.66 371.937 320.895C375.507 321.015 378.995 320.83 382.387 320.385C367.78 305.851 358.653 285.551 360.488 267.414Z" fill="url(#paint20_linear_1299_22098)"/>
<defs>
<linearGradient id="paint0_linear_1299_22098" x1="334.663" y1="265.385" x2="251.854" y2="291.961" gradientUnits="userSpaceOnUse">
<stop stop-color="#FCB148"/>
<stop offset="0.0521" stop-color="#FDBA46"/>
<stop offset="0.1424" stop-color="#FFC244"/>
<stop offset="0.3183" stop-color="#FFC444"/>
<stop offset="0.4849" stop-color="#FDB946"/>
<stop offset="0.7754" stop-color="#F99C4D"/>
<stop offset="0.8658" stop-color="#F8924F"/>
<stop offset="1" stop-color="#F8924F"/>
</linearGradient>
<linearGradient id="paint1_linear_1299_22098" x1="401.65" y1="182.957" x2="327.723" y2="346.053" gradientUnits="userSpaceOnUse">
<stop stop-color="#FFDB44"/>
<stop offset="1" stop-color="#FEEF06"/>
</linearGradient>
<linearGradient id="paint2_linear_1299_22098" x1="388.05" y1="355.168" x2="373.786" y2="277.243" gradientUnits="userSpaceOnUse">
<stop stop-color="#FCB148"/>
<stop offset="0.0521" stop-color="#FDBA46"/>
<stop offset="0.1424" stop-color="#FFC244"/>
<stop offset="0.3183" stop-color="#FFC444"/>
<stop offset="0.4849" stop-color="#FDB946"/>
<stop offset="0.7754" stop-color="#F99C4D"/>
<stop offset="0.8658" stop-color="#F8924F"/>
<stop offset="1" stop-color="#F8924F"/>
</linearGradient>
<linearGradient id="paint3_linear_1299_22098" x1="357.809" y1="229.038" x2="416.594" y2="353.827" gradientUnits="userSpaceOnUse">
<stop stop-color="#FCB148"/>
<stop offset="0.0521" stop-color="#FDBA46"/>
<stop offset="0.1424" stop-color="#FFC244"/>
<stop offset="0.3183" stop-color="#FFC444"/>
<stop offset="0.4849" stop-color="#FDB946"/>
<stop offset="0.7754" stop-color="#F99C4D"/>
<stop offset="0.8658" stop-color="#F8924F"/>
<stop offset="1" stop-color="#F8924F"/>
</linearGradient>
<linearGradient id="paint4_linear_1299_22098" x1="388.435" y1="226.199" x2="385.116" y2="290.955" gradientUnits="userSpaceOnUse">
<stop stop-color="#FFDB44"/>
<stop offset="1" stop-color="#FEEE09"/>
</linearGradient>
<linearGradient id="paint5_linear_1299_22098" x1="388.435" y1="226.199" x2="385.116" y2="290.955" gradientUnits="userSpaceOnUse">
<stop stop-color="#FFDB44"/>
<stop offset="1" stop-color="#FEEE09"/>
</linearGradient>
<linearGradient id="paint6_linear_1299_22098" x1="388.435" y1="226.199" x2="385.116" y2="290.955" gradientUnits="userSpaceOnUse">
<stop stop-color="#FFDB44"/>
<stop offset="1" stop-color="#FEEE09"/>
</linearGradient>
<linearGradient id="paint7_linear_1299_22098" x1="388.435" y1="226.199" x2="385.116" y2="290.955" gradientUnits="userSpaceOnUse">
<stop stop-color="#FFDB44"/>
<stop offset="1" stop-color="#FEEE09"/>
</linearGradient>
<linearGradient id="paint8_linear_1299_22098" x1="388.435" y1="226.199" x2="385.116" y2="290.955" gradientUnits="userSpaceOnUse">
<stop stop-color="#FFDB44"/>
<stop offset="1" stop-color="#FEEE09"/>
</linearGradient>
<linearGradient id="paint9_linear_1299_22098" x1="388.435" y1="226.199" x2="385.116" y2="290.955" gradientUnits="userSpaceOnUse">
<stop stop-color="#FFDB44"/>
<stop offset="1" stop-color="#FEEE09"/>
</linearGradient>
<linearGradient id="paint10_linear_1299_22098" x1="388.435" y1="226.199" x2="385.116" y2="290.955" gradientUnits="userSpaceOnUse">
<stop stop-color="#FFDB44"/>
<stop offset="1" stop-color="#FEEE09"/>
</linearGradient>
<linearGradient id="paint11_linear_1299_22098" x1="353.11" y1="224.388" x2="349.79" y2="289.144" gradientUnits="userSpaceOnUse">
<stop stop-color="#FFDB44"/>
<stop offset="1" stop-color="#FEEE09"/>
</linearGradient>
<linearGradient id="paint12_linear_1299_22098" x1="353.11" y1="224.388" x2="349.79" y2="289.144" gradientUnits="userSpaceOnUse">
<stop stop-color="#FFDB44"/>
<stop offset="1" stop-color="#FEEE09"/>
</linearGradient>
<linearGradient id="paint13_linear_1299_22098" x1="353.11" y1="224.388" x2="349.79" y2="289.144" gradientUnits="userSpaceOnUse">
<stop stop-color="#FFDB44"/>
<stop offset="1" stop-color="#FEEE09"/>
</linearGradient>
<linearGradient id="paint14_linear_1299_22098" x1="353.11" y1="224.388" x2="349.79" y2="289.144" gradientUnits="userSpaceOnUse">
<stop stop-color="#FFDB44"/>
<stop offset="1" stop-color="#FEEE09"/>
</linearGradient>
<linearGradient id="paint15_linear_1299_22098" x1="353.11" y1="224.388" x2="349.79" y2="289.144" gradientUnits="userSpaceOnUse">
<stop stop-color="#FFDB44"/>
<stop offset="1" stop-color="#FEEE09"/>
</linearGradient>
<linearGradient id="paint16_linear_1299_22098" x1="353.11" y1="224.388" x2="349.79" y2="289.144" gradientUnits="userSpaceOnUse">
<stop stop-color="#FFDB44"/>
<stop offset="1" stop-color="#FEEE09"/>
</linearGradient>
<linearGradient id="paint17_linear_1299_22098" x1="353.11" y1="224.388" x2="349.79" y2="289.144" gradientUnits="userSpaceOnUse">
<stop stop-color="#FFDB44"/>
<stop offset="1" stop-color="#FEEE09"/>
</linearGradient>
<linearGradient id="paint18_linear_1299_22098" x1="353.11" y1="224.388" x2="349.79" y2="289.144" gradientUnits="userSpaceOnUse">
<stop stop-color="#FFDB44"/>
<stop offset="1" stop-color="#FEEE09"/>
</linearGradient>
<linearGradient id="paint19_linear_1299_22098" x1="353.11" y1="224.388" x2="349.79" y2="289.144" gradientUnits="userSpaceOnUse">
<stop stop-color="#FFDB44"/>
<stop offset="1" stop-color="#FEEE09"/>
</linearGradient>
<linearGradient id="paint20_linear_1299_22098" x1="340.515" y1="237.113" x2="399.181" y2="361.65" gradientUnits="userSpaceOnUse">
<stop stop-color="#FCB148"/>
<stop offset="0.0521" stop-color="#FDBA46"/>
<stop offset="0.1424" stop-color="#FFC244"/>
<stop offset="0.3183" stop-color="#FFC444"/>
<stop offset="0.4849" stop-color="#FDB946"/>
<stop offset="0.7754" stop-color="#F99C4D"/>
<stop offset="0.8658" stop-color="#F8924F"/>
<stop offset="1" stop-color="#F8924F"/>
</linearGradient>
</defs>
</svg>
