<svg width="583" height="421" viewBox="0 0 583 421" fill="none" xmlns="http://www.w3.org/2000/svg">
<path d="M137.735 23.1319L395.946 0.143954C412.253 -1.30625 425.11 8.36497 424.966 21.737L424.882 29.4683C424.737 42.8346 411.449 54.3695 395.159 55.2347L137.241 68.9307C126.19 69.5176 117.939 61.2623 118.023 50.5296L118.07 44.321C118.154 33.5845 126.676 24.1172 137.735 23.1319Z" fill="url(#paint0_linear_2516_17310)"/>
<path d="M0.0305023 159.523C0.087677 150.861 6.4507 143.65 14.5288 143.41L196.077 138.01C207.058 137.684 216.003 145.767 215.913 156.069L215.864 161.779C215.774 172.077 206.61 180.41 195.637 180.388L14.3134 180.033C6.23914 180.018 -0.0571442 172.982 3.05176e-05 164.323L0.0305023 159.523Z" fill="url(#paint1_linear_2516_17310)"/>
<path d="M61.0352 366.883C61.0962 357.966 68.1281 351.323 76.7226 352.055L270.959 368.61C282.763 369.616 292.474 379.091 292.375 389.757L292.319 395.668C292.22 406.328 282.41 413.835 270.616 412.455L76.4654 389.772C67.8766 388.768 60.9381 380.739 61.0009 371.826L61.0352 366.883Z" fill="url(#paint2_linear_2516_17310)"/>
<path d="M174.335 182.009L540.932 189.843C564.289 190.342 583.211 202.203 582.998 216.318L582.876 224.477C582.664 238.584 563.493 249.064 540.158 247.914L173.678 229.848C158.165 229.084 145.881 219.393 146.001 208.189L146.069 201.71C146.187 190.502 158.808 181.678 174.335 182.009Z" fill="url(#paint3_linear_2516_17310)"/>
<path d="M67.7212 112.774C67.7212 101.615 75.1342 92.1492 84.4453 91.6252L452.745 70.9526C453.187 70.9278 453.612 70.9144 454.05 70.9106C462.353 70.8611 469.516 74.7677 473.932 80.9211C476.72 84.8067 478.208 89.5899 478.208 94.8362V113.007V398.173C478.208 399.923 478.166 401.607 477.819 403.216C477.733 403.618 477.705 404.014 477.6 404.407C477.173 405.975 476.622 407.462 475.896 408.853C472.805 414.762 467.176 418.934 460.333 420.222C457.918 420.677 455.363 420.811 452.708 420.496L163.951 386.412H163.953L84.4453 376.971C75.1361 375.872 67.7231 365.903 67.7231 354.743V127.269V112.774H67.7212Z" fill="#271D5A"/>
<path d="M74.955 91.6262L443.281 70.9517C457.431 70.1571 469.049 80.8459 469.049 94.8354V398.175C469.049 412.164 457.431 422.133 443.281 420.459L74.9531 376.934C65.6439 375.834 58.1738 365.904 58.1738 354.745V112.773C58.1738 101.614 65.6439 92.1484 74.955 91.6262Z" fill="#4C3C9C"/>
<path d="M443.281 412.473C452.876 413.568 460.75 406.763 460.75 397.296V95.1955C460.75 85.7263 452.876 78.4333 443.281 78.9345L74.9529 98.1436C68.6147 98.4733 63.4942 104.932 63.4942 112.541V355.307C63.4942 362.916 68.6147 369.691 74.9529 370.415L443.281 412.473Z" fill="#2D2169"/>
<path d="M74.955 91.6262L443.281 70.9517C457.431 70.1571 469.049 80.8459 469.049 94.8354V113.006L58.1738 127.268V112.773C58.1738 101.614 65.6439 92.1484 74.955 91.6262Z" fill="#4F409A"/>
<path d="M111 108.75C111 111.772 113.669 114.121 116.976 113.995C120.297 113.869 123 111.297 123 108.251C123 105.204 120.297 102.856 116.976 103.007C113.67 103.157 111 105.728 111 108.75Z" fill="white"/>
<path d="M91.0005 109.746C91.0005 112.767 93.4471 115.118 96.4782 114.995C99.5224 114.871 102 112.301 102 109.254C102 106.207 99.5224 103.858 96.4782 104.007C93.4471 104.154 91.0005 106.724 91.0005 109.746Z" fill="white"/>
<path d="M71.0005 110.742C71.0005 113.765 73.4475 116.117 76.4782 115.995C79.5225 115.874 82.0005 113.304 82.0005 110.257C82.0005 107.211 79.5225 104.86 76.4782 105.007C73.4488 105.152 71.0005 107.719 71.0005 110.742Z" fill="white"/>
<path d="M77.7812 302.432L439.056 328.637V162.246L77.7812 166.084V302.432Z" fill="url(#paint4_linear_2516_17310)"/>
<path d="M77.7812 325.96L439.056 357.349V344.598L77.7812 315.512V325.96Z" fill="#D8DEE8"/>
<path d="M77.7812 351.593L439.056 388.628V375.877L77.7812 341.145V351.593Z" fill="#D8DEE8"/>
<path d="M233.083 139.677L439.056 134.648V147.399L233.083 151.115V139.677Z" fill="#D8DEE8"/>
<path d="M95.9951 143.027V153.59L77.7809 153.92V143.471L95.9951 143.027Z" fill="#D8DEE8"/>
<g opacity="0.3">
<path opacity="0.3" d="M211.301 231.027C253.552 167.039 329.824 189.055 380.257 114.405C389.542 100.663 395.874 86.6509 400.234 73.7095L447.763 71.0416C461.913 70.2469 473.532 80.9358 473.532 94.9252V398.264C473.532 412.254 461.913 422.222 447.763 420.549L159.001 386.426C166.82 374.958 174.078 361.935 180.253 347.147C204.19 289.804 186.421 268.706 211.301 231.027Z" fill="white"/>
</g>
<circle opacity="0.2" cx="240" cy="239" r="45" fill="white"/>
<path d="M224 256.154V221.985C224 219.792 225.78 218.351 227.311 219.294L253.799 235.587C255.401 236.573 255.401 239.639 253.799 240.722L227.311 258.642C225.78 259.678 224 258.347 224 256.154Z" fill="white"/>
<defs>
<linearGradient id="paint0_linear_2516_17310" x1="135.396" y1="9.33837" x2="401.942" y2="90.455" gradientUnits="userSpaceOnUse">
<stop stop-color="#E452C8"/>
<stop offset="1" stop-color="#EA7A8F"/>
</linearGradient>
<linearGradient id="paint1_linear_2516_17310" x1="12.2212" y1="143.74" x2="194.922" y2="207.37" gradientUnits="userSpaceOnUse">
<stop stop-color="#E452C8"/>
<stop offset="1" stop-color="#EA7A8F"/>
</linearGradient>
<linearGradient id="paint2_linear_2516_17310" x1="74.0972" y1="360.209" x2="279.63" y2="413.846" gradientUnits="userSpaceOnUse">
<stop stop-color="#E452C8"/>
<stop offset="1" stop-color="#EA7A8F"/>
</linearGradient>
<linearGradient id="paint3_linear_2516_17310" x1="364.5" y1="182" x2="364.5" y2="248" gradientUnits="userSpaceOnUse">
<stop stop-color="#EA7A8F"/>
<stop offset="1" stop-color="#E452C8"/>
</linearGradient>
<linearGradient id="paint4_linear_2516_17310" x1="427.677" y1="199.465" x2="73.7225" y2="232.182" gradientUnits="userSpaceOnUse">
<stop stop-color="#EA7A8F"/>
<stop offset="1" stop-color="#E452C8"/>
</linearGradient>
</defs>
</svg>
