<svg width="583" height="421" viewBox="0 0 583 421" fill="none" xmlns="http://www.w3.org/2000/svg">
<path d="M445.265 23.1319L187.054 0.143954C170.747 -1.30625 157.89 8.36497 158.034 21.737L158.118 29.4683C158.263 42.8346 171.551 54.3695 187.841 55.2347L445.759 68.9307C456.81 69.5176 465.061 61.2623 464.977 50.5296L464.93 44.321C464.846 33.5845 456.324 24.1172 445.265 23.1319Z" fill="url(#paint0_linear_2595_21565)"/>
<path d="M582.969 159.523C582.912 150.861 576.549 143.65 568.471 143.41L386.923 138.01C375.942 137.684 366.997 145.767 367.087 156.069L367.136 161.779C367.226 172.077 376.39 180.41 387.363 180.388L568.687 180.033C576.761 180.018 583.057 172.982 583 164.323L582.969 159.523Z" fill="url(#paint1_linear_2595_21565)"/>
<path d="M521.965 366.883C521.904 357.966 514.872 351.323 506.277 352.055L312.041 368.61C300.237 369.616 290.526 379.091 290.625 389.757L290.681 395.668C290.78 406.328 300.59 413.835 312.384 412.455L506.535 389.772C515.123 388.768 522.062 380.739 521.999 371.826L521.965 366.883Z" fill="url(#paint2_linear_2595_21565)"/>
<path d="M408.665 182.009L42.0679 189.843C18.7111 190.342 -0.210696 202.203 0.00177196 216.318L0.12388 224.477C0.336348 238.584 19.5073 249.064 42.8421 247.914L409.322 229.848C424.835 229.084 437.119 219.393 436.999 208.189L436.931 201.71C436.813 190.502 424.192 181.678 408.665 182.009Z" fill="url(#paint3_linear_2595_21565)"/>
<path d="M515.279 112.774C515.279 101.615 507.866 92.1492 498.555 91.6252L130.255 70.9526C129.813 70.9278 129.388 70.9144 128.95 70.9106C120.647 70.8611 113.484 74.7677 109.068 80.9211C106.28 84.8067 104.792 89.5899 104.792 94.8362V113.007V398.173C104.792 399.923 104.834 401.607 105.181 403.216C105.267 403.618 105.295 404.014 105.4 404.407C105.827 405.975 106.378 407.462 107.104 408.853C110.195 414.762 115.824 418.934 122.667 420.222C125.082 420.677 127.637 420.811 130.292 420.496L419.049 386.412H419.047L498.555 376.971C507.864 375.872 515.277 365.903 515.277 354.743V127.269V112.774H515.279Z" fill="#271D5A"/>
<path d="M508.045 91.6262L139.719 70.9517C125.569 70.1571 113.951 80.8459 113.951 94.8354V398.175C113.951 412.164 125.569 422.133 139.719 420.459L508.047 376.934C517.356 375.834 524.826 365.904 524.826 354.745V112.773C524.826 101.614 517.356 92.1484 508.045 91.6262Z" fill="#4C3C9C"/>
<path d="M139.719 412.473C130.124 413.568 122.25 406.763 122.25 397.296V95.1955C122.25 85.7263 130.124 78.4333 139.719 78.9345L508.047 98.1436C514.385 98.4733 519.506 104.932 519.506 112.541V355.307C519.506 362.916 514.385 369.691 508.047 370.415L139.719 412.473Z" fill="#2D2169"/>
<path d="M508.045 91.6262L139.719 70.9517C125.569 70.1571 113.951 80.8459 113.951 94.8354V113.006L524.826 127.268V112.773C524.826 101.614 517.356 92.1484 508.045 91.6262Z" fill="#4F409A"/>
<path d="M472 108.75C472 111.772 469.331 114.121 466.024 113.995C462.703 113.869 460 111.297 460 108.251C460 105.204 462.703 102.856 466.024 103.007C469.33 103.157 472 105.728 472 108.75Z" fill="white"/>
<path d="M492 109.746C492 112.767 489.553 115.118 486.522 114.995C483.478 114.871 481 112.301 481 109.254C481 106.207 483.478 103.858 486.522 104.007C489.553 104.154 492 106.724 492 109.746Z" fill="white"/>
<path d="M512 110.742C512 113.765 509.553 116.117 506.522 115.995C503.478 115.874 501 113.304 501 110.257C501 107.211 503.478 104.86 506.522 105.007C509.551 105.152 512 107.719 512 110.742Z" fill="white"/>
<path d="M505.219 302.432L143.944 328.637V162.246L505.219 166.084V302.432Z" fill="url(#paint4_linear_2595_21565)"/>
<path d="M505.219 325.96L143.944 357.349V344.598L505.219 315.512V325.96Z" fill="#D8DEE8"/>
<path d="M505.219 351.593L143.944 388.628V375.877L505.219 341.145V351.593Z" fill="#D8DEE8"/>
<path d="M349.917 139.677L143.944 134.648V147.399L349.917 151.115V139.677Z" fill="#D8DEE8"/>
<path d="M487.005 143.027V153.59L505.219 153.92V143.471L487.005 143.027Z" fill="#D8DEE8"/>
<g opacity="0.3">
<path opacity="0.3" d="M371.699 231.027C329.448 167.039 253.176 189.055 202.743 114.405C193.458 100.663 187.126 86.6509 182.766 73.7095L135.237 71.0416C121.087 70.2469 109.468 80.9358 109.468 94.9252V398.264C109.468 412.254 121.087 422.222 135.237 420.549L423.999 386.426C416.18 374.958 408.922 361.935 402.747 347.147C378.81 289.804 396.579 268.706 371.699 231.027Z" fill="white"/>
</g>
<circle opacity="0.2" r="45" transform="matrix(-1 0 0 1 343 239)" fill="white"/>
<path d="M328 256.154V221.985C328 219.792 329.779 218.351 331.31 219.294L357.798 235.587C359.4 236.573 359.4 239.639 357.798 240.722L331.31 258.642C329.779 259.678 328 258.347 328 256.154Z" fill="white"/>
<defs>
<linearGradient id="paint0_linear_2595_21565" x1="447.604" y1="9.33837" x2="181.058" y2="90.455" gradientUnits="userSpaceOnUse">
<stop stop-color="#E452C8"/>
<stop offset="1" stop-color="#EA7A8F"/>
</linearGradient>
<linearGradient id="paint1_linear_2595_21565" x1="570.779" y1="143.74" x2="388.078" y2="207.37" gradientUnits="userSpaceOnUse">
<stop stop-color="#E452C8"/>
<stop offset="1" stop-color="#EA7A8F"/>
</linearGradient>
<linearGradient id="paint2_linear_2595_21565" x1="508.903" y1="360.209" x2="303.37" y2="413.846" gradientUnits="userSpaceOnUse">
<stop stop-color="#E452C8"/>
<stop offset="1" stop-color="#EA7A8F"/>
</linearGradient>
<linearGradient id="paint3_linear_2595_21565" x1="218.5" y1="182" x2="218.5" y2="248" gradientUnits="userSpaceOnUse">
<stop stop-color="#EA7A8F"/>
<stop offset="1" stop-color="#E452C8"/>
</linearGradient>
<linearGradient id="paint4_linear_2595_21565" x1="155.323" y1="199.465" x2="509.278" y2="232.182" gradientUnits="userSpaceOnUse">
<stop stop-color="#EA7A8F"/>
<stop offset="1" stop-color="#E452C8"/>
</linearGradient>
</defs>
</svg>
