<svg width="210" height="288" fill="none" xmlns="http://www.w3.org/2000/svg"><path fill-rule="evenodd" clip-rule="evenodd" d="M146.845 227.108c-5.343 7.133-19.914 20.322-35.453 16.019-4.875-2.572-14.766-6.244-15.328-.351-.234 3.235.398 11.903 4.797 20.696 3.472 6.82 6.997 21.187-6.669 24.086-5.11 1.365-15.024.071-13.807-16.018.43-7.289.585-20.953-2.223-17.305-7.605 5.846-23.05.701-14.743-21.631-5.967-1.442-16.849-9.728-12.636-31.336l-.227-.028c-7.434-.931-16.77-2.099-21.635-8.696-1.973-2.676-4.447-8.698-3.51-17.071 1.296 1.9 2.224 3.815 3.11 5.642 2.71 5.594 5.024 10.371 16.312 11.429h1.605c2.801 0 5.508-1.013 7.62-2.852 1.054-2.026 4.143-6.407 8.074-7.717.82-.311 1.755-.467-1.053 1.404-3.861 2.65-10.554 12.511-6.435 30.751 1.092 4.599 5.803 13.75 15.913 13.563-1.444-6.392-4.002-20.813-2.692-27.36.156-1.403.562-2.899.937 2.338.584 9.744 3.581 32.129 11.444 42.606 2.145 3.663 6.224 14.009 4.82 27.199-.196 3.04.07 9.073 2.69 8.886l.469-4.093 1.638 4.093c.585 1.364 1.965 3.274 2.808 0l.468-2.573.02.051c.682 1.665 2.271 4.784 3.131 3.205.349-.641.593-2.044.593-4.776l1.99 1.52c.701.234 1.801-.818.584-6.898-.975-4.599-3.393-14.57-5.265-17.656-3.393-8.574-5.452-23.829 13.456-16.252 5.031 3.234 19.914 5.588 39.197-10.875zm-80.203 6.436c-1.276 1.761-2.722 6.169-1 13.793.585 1.987 1.826 4.934 2.106.818.156-1.247.703-2.993 1.638 0 .625 2.962 2.294 7.156 3.979.234.156-.585.561-1.403.936 0 .35 2.221 1.38 5.285 2.691-.234.195-.818.234-3.04-.702-5.262l-3.744-8.535c-.028-.056-.055-.113-.081-.169-.302-.641-.582-1.234-3.079-1.234h-1.434c-.508 0-1.012.178-1.31.589z" fill="#C85F32"/><path d="m68.811 180.786 1.524-.585 5.07-5.389 33.95 23.19 27.653-4.567 14.805-19.794 2.929 4.45.663 7.38.586 14.171-.586 10.071-2.695 13.351-14.53 25.882c-4.781 8.994.195 10.072 3.281 9.486 10.405 1.687 12.382 7.573 12.069 10.306-6.937 14.897-20.935 3.24-27.068-4.45-1.499-3.186-1.64-16.943-1.523-23.423-4.781 2.905-13.944.195-17.928-1.522-15.467-6.465-13.866 6.129-11.132 13.234l5.859 18.738c1.406 9.369-4.023 12.96-6.913 13.585-8.624 3.466-11.171-5.505-11.366-10.423l-2.344-21.9c-1.523-4.099-4.476-12.157-4.101-11.595.375.562-4.297-9.291-6.68-14.287l-3.514-15.694v-25.764l1.992-4.451z" fill="#E17848"/><path d="M95.312 192.64c-7.85 6.261-4.836 34.108-.514 47.035l.818 1.168 2.804-2.219 8.645 1.051 8.528 2.57 10.397-.584v-1.986c4.206-3.154 11.455-11.919 13.786-18.34 3.154-8.69 5.341-27.644 7.984-32.593l-6.426 6.308-8.101 4.467-5.39 2.231-4.773 2.883-8.412-.467-6.308-1.636-13.038-9.888zM101.574 274.488c0 5.177-4.095 9.374-9.146 9.374-5.051 0-9.146-4.197-9.146-9.374 0-5.178 4.095-9.375 9.146-9.375 5.051 0 9.146 4.197 9.146 9.375zM152.79 266.71c0 5.178-4.12 9.375-9.202 9.375s-15.492-5.859-15.492-11.036 10.41-7.713 15.492-7.713c5.082 0 9.202 4.197 9.202 9.374z" fill="#FEDDC3"/><path d="M63.17 232.682c-8.242 22.297 7.854 28.321 14.63 21.596 1.835-1.822 3.903-6.443 1.951-9.059-2.06-2.762-3.72-7.481-5.689-12.537-2.554 0-7.894-1.122-10.891 0z" fill="#C85F32"/><path d="M111.421 243.153c15.526 4.3 30.085-8.881 35.424-16.008-19.267 16.452-34.138 14.1-39.165 10.867-18.893-7.572-16.835 7.673-13.445 16.242 1.87 3.085 4.287 13.049 5.261 17.645 1.216 6.076.117 7.128-.584 6.894l-1.988-1.519c0 2.73-.244 4.133-.592 4.772-.86 1.579-2.447-1.539-3.128-3.202l-.021-.051-.468 2.571c-.841 3.272-2.22 1.363-2.806 0l-1.636-4.09-.468 4.09c-2.619.187-2.884-5.842-2.689-8.881.702-6.595-.146-15.647-2.477-22.74-5.962-11.731-6.138-12.213-7.132-14.256 0 2.933 1.516 6.522 3.032 13.488.688 3.162 1.765 6.44 1.992 9.667.273 3.884.126 9.214-.091 12.906-1.216 16.079 8.69 17.372 13.795 16.009 13.655-2.898 10.132-17.255 6.664-24.072-4.396-8.787-5.027-17.449-4.793-20.682.561-5.89 10.444-2.221 15.315.35z" fill="#E17848"/><path d="M65.329 247.48c-1.736-7.628-.279-12.039 1.008-13.801.3-.411.807-.589 1.319-.589h1.446c2.735 0 2.83.702 3.183 1.404l3.773 8.54c.944 2.223.904 4.446.708 5.265-1.32 5.522-2.358 2.457-2.712.234-.377-1.404-.786-.585-.943 0-1.698 6.926-3.38 2.73-4.01-.234-.942-2.995-1.493-1.248-1.65 0-.283 4.118-1.533 1.17-2.122-.819z" fill="#E5B283"/><path d="M152.805 218.158c2.529-5.528 2.146-28.069 1.639-38.649-.124-2.998.495-.078.819 1.757 4.777 30.638-1.99 46.496-5.971 50.595-7.493 12.086-9.522 17.372-9.6 18.504-2.155 5.06-.508 5.934.585 5.739 11.614 1.03 14.83 8.627 14.986 12.297-.281 8.339-7.922 10.111-11.708 9.955-16.953-3.279-19.396-16.513-18.499-22.721 1.593 9.463 9.484 14.874 13.231 16.397 7.586 3.373 10.498 1.561 11.005.234.843-.843-1.132-2.225-2.224-2.811-1.405-1.874.429-1.093 1.522-.468 2.341 1.218 2.458-.508 2.224-1.523-1.124-5.434-8.43-7.417-11.942-7.73-4.402-.468-4.215-2.108-4.215-2.928.094-6.371 7.298-19.285 10.889-24.945 2.248-2.155 5.776-10.033 7.259-13.703z" fill="#E17848"/><path d="M70.115 180.207c-5.148 9.936.038 37.533 3.217 50.149l.805 2.343c-5.056 1.031-12.202.001-15.513-2.46-13.559-10.077-8.273-32.027-4.251-41.479 5.056-8.436 12.524-9.139 15.742-8.553z" fill="#C85F32"/><path d="M69.674 169.896c-.403-1.941-.658-1.953-.616-2.382l-.505-8.556c.107-9.51 7.037-7.706 10.488-5.615 10.692 16.823 20.868 4.674 24.619-3.503l30.854-4.333c2.83-.054 8.604-.138 9.064-.05.46.088 10.819 5.091 15.941 7.582l.799 5.157-3.331 8.059-2.209 7.797-1.549 4.35-1.081 2.533-2.172 3.873-2.905 3.97-4.253 4.785-3.714 3.22-7.109 3.522-9.85 2.283c-7.593.832-14.119-1.753-16.433-3.15l-8.555-5.094-10.44-8.315-12.691-11.487-4.352-4.646z" fill="#FEDDC3"/><path d="M99.37 181.227c1.695 2.54 9.179 6.66 25.557 2.818-7.701 3.624-23.594 8.134-25.556-2.818z" fill="#151815"/><path d="m34.336 101.879 3.223 15.51 3.415 5.182 6.492 5.294 8.03-.248 15.502-1.318 11.67-24.213.29-9.595-22.456-27.059-20.638-12.294-10.187.311-2.265 23.632 6.924 24.798zM144.897 55.622l-6.144 18.004-2.378 12.412-.114 14.649 7.098 9.213 9.008 7.081 16.044-2.28c5.073-4.035 9.254-9.229 10.911-15.495a71.149 71.149 0 0 0 2.027-11.292l2.879-29.64-4.571-15.208L172.313 36l-16.356 8.16-11.06 11.462z" fill="#FEDDC3"/><path d="M32.304 47.947c-22.78-6.463-8.797 30.243.694 52.838.743 1.095 1.15.22 1.047-1.11-1.968-7.764-4.214-21.623-4.417-27.818-1.025-15.541 5.08-15.43 11.773-14.185 17.394 3.238 28.008 20.26 31.14 28.366 7.229 24.451-3.959 27.914-10.456 26.59l4.202 4.068c2.287 2.866-2.919 6.112-3.938 6.87-13.299 8.222-20.696-.477-23.237-5.452-1.67-2.226-1.692-1.118-1.495-.286 2.841 13.03 13.824 15.317 18.961 14.832 1.524.006 2.447.906 2.719 1.355 3.546 4.874 6.734 16.461 7.885 21.646l1.842 12.148c1.35 3.404 1.593 2.138 1.565.538l-.632-7.27c-1.166-3.368.16-4.774.969-5.056 2.138-1.211 4.336 1.824 5.168 3.492 12.211 20.831 24.927 6.286 29.758-3.59.812-1.751 3.635-1.766 4.945-1.554 3.419.56 3.685 1.699 3.391 2.198 10.89 7.091 15.263 2.925 22.87-1.217 1.397-.761-1.225-2.935-1.064-3.778.12-1.121 1.252-1.348 1.803-1.322 1.379.264 2.325.922 2.626 1.218l4.838 5.216c4.933 6.092 10.329 4.124 12.411 2.378 1.513-1.425 2.25-.469 1.964.192-2.008 3.116-3.515 7.83-3.817 10.234-.122 1.884-1.682 2.525-.89 3.987 1.925-6.002 4.331-11.09 5.692-13.014 3.168-5.588 3.839-20.034 3.779-26.558-.767-10.918 4.577-17.669 7.346-19.68 4.917-4.016 5.572-6.194 5.281-7.163-15.117 9.507-23.883 1.423-30.025-7.077-2.085-2.885-3.767-6.072-4.721-9.502-7.284-26.207 11.962-43.005 22.726-49.272 14.15-9.68 15.777 26.057 14.821 45.135 6.813-22.618 5.238-43.912 3.599-51.732-2.449-10.097-11.593-6.233-15.859-3.04-23.155 15.388-34.83 42.49-37.773 54.119-.773 2.044-2.575 2.247-3.379 2.093-18.832-1.703-31.619 1.486-35.659 3.293-1.993.953-3.358-.087-3.792-.727-18.272-27.996-44.054-39.934-54.661-42.403z" fill="#E17848"/><path d="M155.657 169.935c-.983 2.845-4.93 9.128-21.283 10.745 5.936 1.305 20.138 1.019 21.283-10.745z" fill="#151815"/><path d="M40.873 121.239c-2.754-4.53-6.572-20.004-8.137-27.174L24.63 79.168c5.135 19.212 9.41 34.209 14.878 43.597l1.365-1.526zM174.216 108.669c2.921-4.301 5.543-19.39 5.75-26.896l4.757-24.823c-1.179 35.993-6.455 49.437-8.208 52.159l-1.198-.587-1.101.147z" fill="#E17848"/><path d="M138.625 180.836c-5.095 5.696-13.391 5.218-16.902 4.267l2.47-1.075 3.225-1.288 1.563-2.56.45-1.105 1.389 1.457 2.069.396 5.736-.092z" fill="#151815"/><path d="M119.242 138.172c-9.514-5.064-9.287 9.296-13.281 17.704l6.801 6.784 27.817-5.273.902-4.708c-1.893-2.555-6.495-11.49-6.495-11.49-3.163-5.254-7.295-5.453-9.636-2.565-2.915 2.778-3.585 1.302-6.108-.452z" fill="#FEDDC3"/><mask id="a" style="mask-type:alpha" maskUnits="userSpaceOnUse" x="20" y="28" width="165" height="154"><path d="M32.304 47.95c-22.78-6.463-8.547 32.992 1.418 53.527 2.185 3.516 2.024.626 1.064-1.822-3.64-7.37-4.955-21.6-5.158-27.795C28.603 56.32 34.708 56.43 41.4 57.675c17.393 3.238 28.007 20.26 31.14 28.366 7.228 24.45-3.96 27.914-10.457 26.59l2.589 5.142c2.288 2.867-1.305 5.038-2.324 5.796-13.3 8.221-20.696-.478-23.238-5.452-1.67-2.227-1.692-1.119-1.494-.287 2.84 13.031 13.824 15.318 18.96 14.833 1.524.006 2.448.906 2.72 1.355 3.545 4.873 6.734 16.461 7.884 21.646l1.842 12.148c1.35 3.404 1.594 2.138 1.565.538l-.632-7.27c-1.165-3.368.16-4.774.969-5.056 2.138-1.211 4.337 1.824 5.169 3.492 12.21 20.831 24.926 6.286 29.758-3.59.812-1.751 3.634-1.766 4.944-1.555 3.419.56 3.78 2.955 3.486 3.454-1.196 2.511-.747 4.22-.704 5.657.568 4.494 3.224 2.445 4.481.859 2.188-1.963 4.258-1.288 5.02-.706 2.445 2.661-1.192 3.942-3.316 4.25-3.415-.083-2.37 1.061-1.545 1.848 8.621 8.229 15.812 2.957 18.663-1.144.297-.427.296-.3.521-.853.761-1.867-1.079-1.92-2.256-1.788-2.694.627-3.76-.482-3.956-1.116-.428-.749.086-1.691.396-2.068.908-1.256 2.6-.098 3.333.638 2.165 2.131 3.533.836 3.946-.077 1.568-3.703-.393-7.065-1.649-8.18-1.238-1-1.383-2.727-1.222-3.57.12-1.121 1.251-1.349 1.802-1.322 1.379.264 2.326.922 2.626 1.218l4.839 5.216c4.932 6.092 10.329 4.124 12.411 2.378 1.512-1.426 1.32-.462 1.034.198-2.218 2.625-3.377 8.09-3.679 10.495-.389-.456-1.191-.626-1.543-.653.521.766.58 1.739.545 2.129-.423 6.686-14.541 8.532-21.548 8.619 8.632 2.703 16.128 1.224 18.796.147 2.997-1.713 4.366-4.962 4.676-6.372.467-5.915 3.306-11.24 4.668-13.164 3.167-5.588 3.839-20.034 3.779-26.559-.768-10.917 4.577-17.669 7.345-19.68 6.239-2.712 7.217-5.329 6.926-6.298-15.165 9.536-25.134.744-31.631-7.97-2.128-2.853-3.806-6.043-4.759-9.473-7.285-26.207 11.962-43.005 22.725-49.273 14.151-9.679 15.777 26.058 14.822 45.135 6.812-22.618 5.238-43.912 3.599-51.732-2.45-10.096-11.593-6.233-15.859-3.039-23.155 15.388-34.83 42.49-37.773 54.119-.773 2.044-2.575 2.246-3.38 2.092-18.831-1.702-31.618 1.487-35.658 3.294-1.994.952-3.359-.088-3.792-.727C68.692 62.356 42.91 50.42 32.304 47.95z" fill="#E17848"/></mask><g mask="url(#a)"><path d="M140.309 166.868c-1.436 7.49-8.722 12.388-16.275 10.94-7.552-1.447-12.512-8.692-11.076-16.181 1.435-7.489 8.721-12.387 16.274-10.94 7.553 1.447 12.512 8.692 11.077 16.181z" fill="#151815"/></g><path fill-rule="evenodd" clip-rule="evenodd" d="M127.704 174.372c-.128-.547-.261-1.024-.357-1.26l.965-.393c.131.32.28.87.407 1.416.13.555.247 1.15.309 1.578.049.346.119.697.193 1.067l.041.212c.03.148.059.298.086.451.105.418.228.78.378 1.095.315.661.754 1.113 1.456 1.411.729.311 1.77.467 3.306.45 1.529-.017 3.501-.204 6.063-.545l.137 1.033c-2.573.343-4.594.537-6.189.555-1.587.017-2.799-.139-3.725-.533a3.747 3.747 0 0 1-1.336-.932c-.082.453-.235.91-.491 1.364-.56.994-1.576 1.907-3.251 2.739-1.673.831-4.038 1.597-7.347 2.282l-.212-1.021c3.266-.676 5.534-1.419 7.096-2.195 1.56-.774 2.382-1.564 2.806-2.317.421-.747.488-1.524.406-2.354a10.291 10.291 0 0 0-.117-.814 18.323 18.323 0 0 1-.332-1.801 19.53 19.53 0 0 0-.292-1.488z" fill="#151815"/><path d="m59.188 111.07 8.475 7.292 6.098-10.746-11.661-1.163 3.94 5.06-6.852-.443zM150.822 87.036l-10.566 3.657 6.22 10.676 6.872-9.494-6.356.86 3.83-5.7z" fill="#E17848"/><path d="M161.598 134.184c-1.205 6.287-7.278 10.407-13.565 9.203-6.288-1.205-10.408-7.279-9.203-13.566 1.205-6.287 7.278-10.407 13.566-9.202 6.287 1.205 10.407 7.278 9.202 13.565z" fill="#151815"/><path fill-rule="evenodd" clip-rule="evenodd" d="M163.136 134.469c-1.367 7.135-8.26 11.811-15.395 10.444-7.135-1.367-11.811-8.26-10.444-15.396 1.367-7.135 8.26-11.811 15.396-10.444 7.135 1.368 11.811 8.261 10.443 15.396zm-15.101 8.908c6.287 1.205 12.361-2.915 13.566-9.202 1.204-6.287-2.916-12.361-9.203-13.566-6.287-1.204-12.36 2.916-13.565 9.203-1.205 6.287 2.915 12.36 9.202 13.565z" fill="#fff"/><path d="M150.537 131.311a4.232 4.232 0 1 1-8.313-1.593 4.232 4.232 0 0 1 8.313 1.593z" fill="#fff"/><path d="M101.573 142.7c-1.205 6.287-7.278 10.407-13.565 9.202s-10.407-7.278-9.203-13.565c1.205-6.287 7.278-10.407 13.566-9.202 6.287 1.204 10.407 7.278 9.202 13.565z" fill="#151815"/><path fill-rule="evenodd" clip-rule="evenodd" d="M103.107 142.985c-1.368 7.135-8.26 11.811-15.396 10.444-7.135-1.368-11.811-8.261-10.444-15.396 1.368-7.135 8.26-11.811 15.396-10.444 7.135 1.367 11.811 8.26 10.444 15.396zm-15.102 8.908c6.288 1.204 12.361-2.916 13.566-9.203 1.205-6.287-2.915-12.36-9.203-13.565-6.287-1.205-12.36 2.915-13.565 9.202s2.915 12.361 9.202 13.566z" fill="#fff"/><path d="M90.507 139.827a4.233 4.233 0 0 1-8.312-1.593 4.231 4.231 0 0 1 8.312 1.593z" fill="#fff"/><path d="M176.758 102.231c-1.856 6.697-7.151 8.717-9.567 8.889l-.22 1.149 8.333-2.453 2.373-7.409-.919-.176z" fill="#E17848"/><path d="M84.9 182.602c-13.605-9.291-15.072-12.884-15.398-14.102-2.192 4.922 18.062 18.428 28.797 26.196 2.804 5.71 7.228 7.544 9.477 8.443 10.886 5.924 20.714.557 24.267-2.867 10.134-2.745 17.836-14.44 20.421-19.944 2.462-5.244 3.878-11.084 3.4-11.023-3.255 10.216-7.108 18.004-14.858 24.028-19.85 15.428-38.756 1.837-56.106-10.731zM131.684 214.404a3.74 3.74 0 0 0 1.464-3.652l-.066-.379a3.742 3.742 0 0 0-7.388.086c-.182 1.208-.185 2.338-1.499 2.567l-9.413 1.014c-1.357.236-1.785-.993-2.278-1.908a3.741 3.741 0 0 0-6.981 2.418l.066.379a3.742 3.742 0 0 0 2.613 2.942.643.643 0 0 1 .197 1.134 3.742 3.742 0 0 0-1.463 3.652l.066.379a3.742 3.742 0 0 0 7.387-.086c.182-1.208.185-2.337 1.499-2.566l9.413-1.014c1.357-.237 1.786.993 2.279 1.907a3.743 3.743 0 0 0 6.98-2.418l-.066-.378a3.743 3.743 0 0 0-2.612-2.943.644.644 0 0 1-.198-1.134z" fill="#974420"/><path fill-rule="evenodd" clip-rule="evenodd" d="M119.165 209.694a3.744 3.744 0 1 0 .89-7.435 3.744 3.744 0 0 0-.89 7.435zm.195-1.626a2.107 2.107 0 1 0 .5-4.185 2.107 2.107 0 0 0-.5 4.185zM120.309 217.826a3.744 3.744 0 1 0 .89-7.435 3.744 3.744 0 0 0-.89 7.435zm.195-1.626a2.106 2.106 0 1 0 .502-4.181 2.106 2.106 0 0 0-.502 4.181z" fill="#974420"/><path d="m118.79 208.895 2.032-.346.432 2.538-2.032.345-.432-2.537z" fill="#974420"/><path d="M117.494 217.989c-.039-.069-.036-.128.006-.177a.456.456 0 0 1 .208-.124c.099-.035.217-.063.357-.083.141-.022.29-.041.447-.056a8.51 8.51 0 0 0 .19-.579 29.441 29.441 0 0 0 .291-1.106c.04-.169.076-.32.109-.452a.43.43 0 0 0 .025-.124c.003-.035-.005-.061-.025-.079-.017-.017-.047-.027-.091-.028a.747.747 0 0 0-.174.019 3.427 3.427 0 0 0-.551.16 4.71 4.71 0 0 0-.538.236 4.082 4.082 0 0 0-.481.289 2.617 2.617 0 0 0-.376.316 1.143 1.143 0 0 0-.226.309.35.35 0 0 0 .128.469.993.993 0 0 0 .289.107c.112.023.232.035.36.038.129.001.253-.003.371-.012.121-.011.23-.026.329-.043.1-.02.176-.041.228-.062a.24.24 0 0 1-.08.13.53.53 0 0 1-.132.073.704.704 0 0 1-.143.039l-.116.013c-.141.009-.291.01-.451.002a2.656 2.656 0 0 1-.458-.07 1.497 1.497 0 0 1-.379-.146.502.502 0 0 1-.22-.243.55.55 0 0 1 .004-.401c.054-.141.143-.28.267-.415.124-.136.275-.265.453-.387.178-.124.365-.236.563-.334.198-.1.398-.184.599-.25.202-.066.389-.109.561-.128a.784.784 0 0 1 .23.01c.079.013.16.041.241.084a.607.607 0 0 1 .178.137.868.868 0 0 1 .196.343c.02.061.035.12.046.177.02.102.033.216.038.342a8.543 8.543 0 0 1-.007.842c-.004.153-.008.305-.01.458l-.005.163c.09-.012.166-.026.227-.042a.35.35 0 0 0 .137-.057c.026.108.003.191-.066.249a.684.684 0 0 1-.297.121 3.274 3.274 0 0 0 .119.854c.038.128.085.243.139.343.057.1.125.176.202.229a.562.562 0 0 1-.291-.004.758.758 0 0 1-.248-.119.906.906 0 0 1-.195-.196 1.41 1.41 0 0 1-.14-.229.65.65 0 0 1-.05-.151 3.059 3.059 0 0 1-.029-.202 5.22 5.22 0 0 1-.02-.236 3.976 3.976 0 0 1-.001-.244 6.814 6.814 0 0 1-.414.007 6.422 6.422 0 0 1-.274.611 2.969 2.969 0 0 1-.338.514c-.122.151-.26.275-.412.372-.15.1-.316.162-.499.187a1.813 1.813 0 0 1-.879-.097 1.298 1.298 0 0 1-.371-.216.863.863 0 0 1-.246-.338.365.365 0 0 1-.03-.15.242.242 0 0 1 .03-.134.194.194 0 0 1 .105-.086.316.316 0 0 1 .182-.011.642.642 0 0 0 .007.211.748.748 0 0 0 .069.178.865.865 0 0 0 .424.374 1.083 1.083 0 0 0 .589.07.898.898 0 0 0 .384-.16c.121-.085.233-.194.336-.325a2.86 2.86 0 0 0 .289-.453c.087-.171.168-.351.242-.542-.102.002-.2.008-.295.016a2.667 2.667 0 0 0-.264.037 1.076 1.076 0 0 0-.218.063.481.481 0 0 0-.155.099zm1.916-2.188c-.036.124-.072.255-.109.394a17.907 17.907 0 0 1-.245.872 8.13 8.13 0 0 1-.146.45 4.266 4.266 0 0 0 .324-.023l.015-.162c.008-.105.019-.221.033-.349.013-.13.028-.263.043-.399.017-.137.034-.273.049-.407.015-.134.028-.26.036-.376zM121.128 218.214a1.633 1.633 0 0 1-.025-.157 9.16 9.16 0 0 1-.019-.2l-.01-.208-.008-.185.001-.111-.001-.097c-.001-.044-.005-.072-.013-.084-.006-.014-.014-.019-.024-.013a.108.108 0 0 0-.035.036.454.454 0 0 0-.03.053 2.444 2.444 0 0 0-.215.679c-.016.109-.02.219-.012.331.01.081.02.15.033.205a.288.288 0 0 0 .052.115.418.418 0 0 1-.309-.112.396.396 0 0 1-.091-.137.49.49 0 0 1-.035-.169 3.186 3.186 0 0 1-.013-.197c-.005-.091-.011-.195-.015-.312a16.853 16.853 0 0 1-.016-.379l-.014-.41a30.863 30.863 0 0 1-.015-.396 38.126 38.126 0 0 1-.012-.341l-.008-.25a1.646 1.646 0 0 0-.007-.114l-.007-.097a.26.26 0 0 0-.028-.072c0-.002.02.009.059.033a2.148 2.148 0 0 1 .301.201.45.45 0 0 1 .103.106.433.433 0 0 1 .045.256.842.842 0 0 0-.026.175 7.388 7.388 0 0 0-.022.358l-.01.461c-.003.168-.002.332.003.493l.004-.024c.019-.063.034-.119.046-.168.014-.049.025-.094.034-.134a.907.907 0 0 1 .056-.199.643.643 0 0 1 .08-.162.19.19 0 0 1 .102-.08c.025-.007.061-.003.106.014a.593.593 0 0 1 .138.069c.047.03.089.066.127.11a.26.26 0 0 1 .067.136.83.83 0 0 1 .01.204 5.625 5.625 0 0 1-.019.237l-.024.251a1.471 1.471 0 0 0-.002.248c.002.037.008.058.017.063.012.005.024.003.035-.007a.227.227 0 0 0 .056-.085c.026-.059.051-.132.074-.22.025-.087.051-.174.078-.26l.109-.397a.561.561 0 0 0 .013.058.486.486 0 0 1 .017.089c.004.036.005.08.004.13a.912.912 0 0 1-.023.169l-.01.024-.026.12a7.434 7.434 0 0 0-.049.201c-.015.067-.034.13-.058.189a.614.614 0 0 1-.083.16.216.216 0 0 1-.106.077.178.178 0 0 1-.091-.003.334.334 0 0 1-.107-.05.46.46 0 0 1-.098-.09.277.277 0 0 1-.054-.131z" fill="#fff"/><path d="M121.844 218.124a5.148 5.148 0 0 1-.019-.2 8.063 8.063 0 0 1-.023-.229l-.019-.233a5.437 5.437 0 0 1-.021-.213 4.242 4.242 0 0 1-.015-.161l-.01-.09-.011-.097a.26.26 0 0 0-.028-.072 1.748 1.748 0 0 1 .185.103c.049.03.097.062.145.098.048.036.08.07.096.1a.307.307 0 0 1 .041.107c.009.04.011.091.005.153l-.006.091a12.185 12.185 0 0 1-.022.453 1.734 1.734 0 0 0-.004.163c.002.037.008.058.017.064.011.003.023-.001.035-.011a.19.19 0 0 0 .034-.039.463.463 0 0 0 .022-.042c.026-.059.05-.133.073-.22.025-.088.051-.174.079-.26l.109-.397a.267.267 0 0 0 .013.057 1.006 1.006 0 0 1 .021.22.834.834 0 0 1-.024.168l-.01.024-.026.121-.049.201c-.014.067-.033.13-.057.189a.607.607 0 0 1-.083.159.208.208 0 0 1-.106.077.17.17 0 0 1-.092-.002.471.471 0 0 1-.104-.054.406.406 0 0 1-.092-.097.277.277 0 0 1-.054-.131zm1.073.196a.284.284 0 0 1-.221-.083.42.42 0 0 1-.073-.093.282.282 0 0 1-.034-.104 5.007 5.007 0 0 1-.026-.199l-.026-.232a7.294 7.294 0 0 0-.023-.232l-.017-.21a4.306 4.306 0 0 0-.015-.162l-.006-.09-.011-.097a.176.176 0 0 0-.028-.072c0-.002.016.007.049.028a1.514 1.514 0 0 1 .251.17.387.387 0 0 1 .092.098.412.412 0 0 1 .059.257l-.003.095c.001.061 0 .133-.002.215-.002.081-.003.161-.006.239.001.078.001.134.003.166l.009.081c.005.023.017.033.036.028a.282.282 0 0 0 .154-.105.901.901 0 0 0 .126-.22.686.686 0 0 1-.113-.13.879.879 0 0 1-.087-.167 1.36 1.36 0 0 1-.054-.193 1.295 1.295 0 0 1-.02-.206.712.712 0 0 1 .061-.297.337.337 0 0 1 .092-.115.229.229 0 0 1 .134-.054.374.374 0 0 1 .213.064c.035.02.066.046.094.078a.354.354 0 0 1 .069.096c.03.069.05.141.061.218a1.125 1.125 0 0 1-.024.456c-.02.077-.046.15-.08.221a.222.222 0 0 0 .076-.024.259.259 0 0 0 .09-.095c.034-.052.069-.128.106-.227.036-.102.076-.243.119-.421a.401.401 0 0 0 .013.057.78.78 0 0 1 .018.219.834.834 0 0 1-.024.169l-.007.024a.985.985 0 0 1-.136.296.356.356 0 0 1-.239.147.317.317 0 0 1-.094.004 1.02 1.02 0 0 1-.249.279.555.555 0 0 1-.307.123zm.259-1.073a.945.945 0 0 0 .096.361c.02-.069.036-.141.048-.214a1.32 1.32 0 0 0 .02-.403.481.481 0 0 0-.034-.153c-.027-.069-.051-.102-.073-.099-.019.002-.035.026-.047.073a.943.943 0 0 0-.022.189c-.002.078.002.16.012.246z" fill="#fff"/><path d="M124.549 217.491a1.054 1.054 0 0 1-.053.254 1.597 1.597 0 0 1-.06.166 1.028 1.028 0 0 1-.071.152.503.503 0 0 1-.079.107c-.028.024-.054.033-.079.025a1.102 1.102 0 0 1-.188-.077.227.227 0 0 1-.116-.13 1.162 1.162 0 0 1-.053-.353 2.382 2.382 0 0 1 .031-.451 1.98 1.98 0 0 1 .042-.184.902.902 0 0 1 .072-.2.546.546 0 0 1 .125-.167.332.332 0 0 1 .193-.084.446.446 0 0 1 .267.055.384.384 0 0 1 .168.157.18.18 0 0 1 .022.076c0 .024-.011.037-.035.04-.028.003-.049-.004-.064-.019a1.775 1.775 0 0 1-.042-.054.209.209 0 0 0-.049-.054c-.019-.017-.048-.023-.087-.019-.038.004-.072.028-.1.07a.791.791 0 0 0-.068.151 1.673 1.673 0 0 0-.083.388 3.518 3.518 0 0 0-.02.149l-.019.175c-.007.057-.01.103-.011.138-.001.026.005.043.019.05.016.005.033-.003.053-.022a.373.373 0 0 0 .05-.081 1.19 1.19 0 0 0 .057-.127c.019-.05.037-.102.055-.156a2.337 2.337 0 0 0 .09-.301c.01-.044.017-.08.021-.106l.003-.206a.224.224 0 0 1 .048.021.651.651 0 0 1 .111.062c.044.026.087.055.128.087a.366.366 0 0 1 .092.094.137.137 0 0 1 .014.096c-.005.035-.01.085-.016.149l-.004.049-.004.115-.004.14c.001.048.004.088.007.12.007.039.016.06.027.066.012.005.022.003.032-.007a.176.176 0 0 0 .031-.046 1.57 1.57 0 0 0 .091-.261c.025-.088.052-.175.079-.26l.109-.397a.373.373 0 0 0 .013.057.515.515 0 0 1 .016.089.9.9 0 0 1-.018.299l-.011.024-.025.12a6.644 6.644 0 0 0-.05.202 1.095 1.095 0 0 1-.14.351.162.162 0 0 1-.106.074.205.205 0 0 1-.096-.012.372.372 0 0 1-.095-.061.516.516 0 0 1-.086-.098.405.405 0 0 1-.057-.127.97.97 0 0 1-.026-.085l-.023-.092-.016-.08a.298.298 0 0 0-.012-.051z" fill="#fff"/></svg>