<svg width="86" height="85" viewBox="0 0 86 85" fill="none" xmlns="http://www.w3.org/2000/svg">
<path fill-rule="evenodd" clip-rule="evenodd" d="M45.4653 12.2948C44.1439 11.4139 33.3118 4.8945 28.0861 1.75891C26.7951 0.90617 24.2179 0.234243 21.4219 1.63223C19.4153 2.63551 8.87286 8.59217 3.68881 11.5366C2.58263 11.9375 1.7567 12.884 1.22978 13.8803C0.574015 15.1202 0.157803 16.8046 0.0789073 19.0136C-0.0638203 23.01 0.0194193 33.2818 0.0775147 37.8713L0.0818671 38.2152L0.178889 38.5451C0.601623 39.9825 2.08532 42.9094 5.07156 44.8417C7.54462 46.4419 16.8792 51.6673 21.1532 54.0353L21.3726 54.1569L21.6119 54.2325C22.3232 54.4571 23.4326 54.713 24.5949 54.7896C25.635 54.8582 27.3018 54.8305 28.6546 53.9287C28.6546 53.9287 28.6571 53.927 28.6627 53.9234L28.6853 53.9088C28.7047 53.8964 28.7302 53.8803 28.7625 53.8602C28.8272 53.8199 28.9114 53.7681 29.0159 53.7046C29.2247 53.5775 29.5014 53.4113 29.8413 53.2086C30.5204 52.8036 31.4365 52.2623 32.5352 51.6163C34.7318 50.3246 37.6454 48.6215 40.8247 46.7683C47.164 43.073 54.5507 38.7859 59.3938 35.985L59.3968 35.9896C59.3648 36.0109 59.3462 36.0191 59.3463 36.0193C59.3465 36.0196 59.4003 35.9969 59.5338 35.9763C59.7336 35.9454 60.0107 35.9349 60.354 35.9575C60.9371 35.9959 61.5307 36.1173 61.942 36.2295C66.3932 38.6978 75.2414 43.6591 77.4901 45.1141C79.041 46.1177 79.9044 47.6264 80.2058 48.3577C80.2638 53.1534 80.3357 62.8266 80.2022 66.5659C80.141 68.2793 79.8276 69.1632 79.6282 69.5401C79.6153 69.5644 79.6032 69.5861 79.592 69.6054L79.3642 69.7348C74.18 72.6804 63.5037 78.7118 61.6199 79.6536C61.085 79.9211 60.6555 79.951 60.3629 79.9225C60.1344 79.9002 59.9951 79.8434 59.9545 79.8269C59.9465 79.8236 59.9424 79.8219 59.9421 79.8223C59.942 79.8225 59.9425 79.823 59.9436 79.8238L59.8969 79.7912L59.8216 79.746C54.5184 76.564 43.7816 70.0999 42.5861 69.3029C42.4182 69.191 42.2134 68.9631 42.0257 68.6018C41.895 68.3505 41.815 68.1155 41.7732 67.9645V60.8764L36.7732 60.8764V68.2311V68.438L36.8072 68.6421C36.9084 69.2495 37.1579 70.0779 37.5889 70.9072C38.0198 71.7367 38.7197 72.7346 39.8126 73.4632C41.1339 74.3441 51.9661 80.8635 57.1918 83.9991C58.4828 84.8518 61.06 85.5237 63.856 84.1258C65.8626 83.1225 76.405 77.1658 81.5891 74.2214C82.6953 73.8205 83.5212 72.874 84.0481 71.8777C84.7039 70.6378 85.1201 68.9534 85.199 66.7444C85.3417 62.748 85.2585 52.4762 85.2004 47.8867L85.196 47.5428L85.099 47.2129C84.6763 45.7755 83.1926 42.8486 80.2063 40.9163C77.7333 39.3161 68.3987 34.0907 64.1247 31.7227L63.9053 31.6011L63.666 31.5255C62.9547 31.3009 61.8453 31.045 60.683 30.9683C59.722 30.905 58.2262 30.9238 56.9372 31.6383L56.9335 31.6319C47.4001 37.1452 27.5774 48.6672 25.9204 49.7426C25.8985 49.7499 25.8433 49.7664 25.7441 49.7817C25.5443 49.8126 25.2671 49.8231 24.9239 49.8005C24.3407 49.762 23.7472 49.6407 23.3359 49.5285C18.8847 47.0602 10.0365 42.0989 7.78782 40.6439C6.23689 39.6403 5.37353 38.1316 5.07207 37.4003C5.01409 32.6046 4.94217 22.9314 5.07572 19.1921C5.13691 17.4787 5.45033 16.5948 5.64969 16.2179C5.66254 16.1936 5.67464 16.1719 5.68587 16.1526L5.91366 16.0232C11.0979 13.0776 21.7742 7.04623 23.6579 6.10436C24.1929 5.83688 24.6224 5.80696 24.9149 5.83552C25.1434 5.85782 25.2828 5.9146 25.3234 5.93114C25.3314 5.9344 25.3355 5.9361 25.3358 5.93566C25.3359 5.93548 25.3354 5.935 25.3343 5.93417L25.3809 5.96679L25.4563 6.01203C30.7595 9.19395 41.4963 15.6581 42.6918 16.4551C42.8596 16.567 43.0645 16.7949 43.2522 17.1562C43.3829 17.4075 43.4629 17.6425 43.5047 17.7935V24.8816H48.5047V17.5269V17.32L48.4707 17.1159C48.3695 16.5084 48.12 15.6801 47.689 14.8508C47.258 14.0213 46.5582 13.0234 45.4653 12.2948Z" fill="white"/>
</svg>
