<svg width="85" height="86" viewBox="0 0 85 86" fill="none" xmlns="http://www.w3.org/2000/svg">
<path d="M42.5 85.0077C65.9721 85.0077 85 65.9789 85 42.5058C85 19.0327 65.9721 0.00390625 42.5 0.00390625C19.0279 0.00390625 0 19.0327 0 42.5058C0 65.9789 19.0279 85.0077 42.5 85.0077Z" fill="white"/>
<g filter="url(#filter0_i_1413_7131)">
<path d="M42.5528 78.6284C62.4735 78.6284 78.6223 62.4789 78.6223 42.5574C78.6223 22.6359 62.4735 6.48633 42.5528 6.48633C22.6322 6.48633 6.4834 22.6359 6.4834 42.5574C6.4834 62.4789 22.6322 78.6284 42.5528 78.6284Z" fill="#36287D"/>
</g>
<path fill-rule="evenodd" clip-rule="evenodd" d="M43.1894 25.0225L43.1711 25.0039L32 35.997L36.2082 40.2737L43.1894 33.4038L50.1706 40.2737L54.3788 35.997L43.2077 25.0039L43.1894 25.0225Z" fill="white"/>
<path fill-rule="evenodd" clip-rule="evenodd" d="M43.1894 60.2549L43.1711 60.2734L32 49.2804L36.2082 45.0036L43.1894 51.8735L50.1706 45.0036L54.3788 49.2804L43.2077 60.2734L43.1894 60.2549Z" fill="white"/>
<rect width="5.65633" height="5.65633" transform="matrix(0.707091 0.707123 -0.707091 0.707123 42.9995 39.0039)" fill="white"/>
<rect width="5.65633" height="5.65633" transform="matrix(0.707091 0.707123 -0.707091 0.707123 27.9995 39.0039)" fill="white"/>
<rect width="5.65633" height="5.65633" transform="matrix(0.707091 0.707123 -0.707091 0.707123 56.9995 39.0039)" fill="white"/>
<path d="M12.7482 45.8055C12.7482 28.2197 27.0028 13.9645 44.5877 13.9645C54.8667 13.9645 64.0052 18.8359 69.8267 26.3952C64.3291 16.8493 54.0247 10.4238 42.2184 10.4238C24.6335 10.4238 10.3789 24.679 10.3789 42.2648C10.3789 49.5711 12.8419 56.3018 16.9795 61.6751C14.2889 57.0032 12.7482 51.5831 12.7482 45.8055Z" fill="#271D5A"/>
<defs>
<filter id="filter0_i_1413_7131" x="6.4834" y="6.48633" width="72.1387" height="74.1426" filterUnits="userSpaceOnUse" color-interpolation-filters="sRGB">
<feFlood flood-opacity="0" result="BackgroundImageFix"/>
<feBlend mode="normal" in="SourceGraphic" in2="BackgroundImageFix" result="shape"/>
<feColorMatrix in="SourceAlpha" type="matrix" values="0 0 0 0 0 0 0 0 0 0 0 0 0 0 0 0 0 0 127 0" result="hardAlpha"/>
<feOffset dy="2"/>
<feGaussianBlur stdDeviation="2"/>
<feComposite in2="hardAlpha" operator="arithmetic" k2="-1" k3="1"/>
<feColorMatrix type="matrix" values="0 0 0 0 0 0 0 0 0 0 0 0 0 0 0 0 0 0 0.2 0"/>
<feBlend mode="normal" in2="shape" result="effect1_innerShadow_1413_7131"/>
</filter>
</defs>
</svg>
