<svg width="18" height="18" viewBox="0 0 18 18" fill="none" xmlns="http://www.w3.org/2000/svg">
<path d="M9 18C13.9706 18 18 13.9706 18 9C18 4.02944 13.9706 0 9 0C4.02944 0 0 4.02944 0 9C0 13.9706 4.02944 18 9 18Z" fill="#F7931A"/>
<path fill-rule="evenodd" clip-rule="evenodd" d="M9.00015 16.6136C13.206 16.6136 16.6155 13.2041 16.6155 8.9982C16.6155 4.79234 13.206 1.38281 9.00015 1.38281C4.79429 1.38281 1.38477 4.79234 1.38477 8.9982C1.38477 13.2041 4.79429 16.6136 9.00015 16.6136Z" fill="#F7931A"/>
<path fill-rule="evenodd" clip-rule="evenodd" d="M11.6103 9.2216C11.41 8.95123 11.1077 8.76552 10.7034 8.66458C11.2182 8.39051 11.4445 7.92536 11.3823 7.26903C11.3616 7.03103 11.2986 6.82477 11.1931 6.64993C11.0877 6.47506 10.9453 6.33447 10.7655 6.22812C10.5859 6.12163 10.3906 6.04057 10.1799 5.98468C9.96925 5.9288 9.72736 5.88822 9.45443 5.863L9.45443 4.5H8.65646L8.65646 5.82513C8.51829 5.82513 8.30756 5.82873 8.0243 5.83595L8.0243 4.5H7.22623L7.22623 5.863C7.11219 5.86662 6.94466 5.86846 6.72357 5.86846L5.625 5.863L5.625 6.75005H6.20017C6.46273 6.75005 6.61647 6.87268 6.66137 7.11784L6.66137 8.67017C6.69597 8.67017 6.72357 8.67203 6.74432 8.67563H6.66137L6.66137 10.8498C6.63376 11.0337 6.53359 11.1257 6.36084 11.1257H5.7857L5.62504 12.1155H6.66146C6.72711 12.1155 6.82206 12.1164 6.94648 12.1181C7.07083 12.1199 7.16406 12.1208 7.22627 12.1208L7.22627 13.5H8.02447L8.02447 12.137C8.16953 12.1407 8.38025 12.1425 8.65663 12.1425L8.65663 13.5H9.45461L9.45461 12.1208C9.73796 12.1064 9.98927 12.0795 10.2085 12.0397C10.4279 11.9999 10.6379 11.9378 10.8382 11.853C11.0385 11.7683 11.206 11.6628 11.3407 11.5366C11.4755 11.4105 11.5868 11.2499 11.6751 11.0552C11.763 10.8605 11.8192 10.6351 11.8434 10.379C11.8885 9.87795 11.8107 9.49209 11.6103 9.2216ZM8.03982 6.80939H8.03988L8.03988 8.46983C8.05719 8.46983 8.11671 8.47078 8.21868 8.47256C8.32063 8.47434 8.40092 8.47434 8.45968 8.47256C8.51838 8.47078 8.60477 8.46711 8.71881 8.46173C8.83283 8.45635 8.92781 8.4464 9.00383 8.43196C9.07979 8.41757 9.16874 8.39773 9.2706 8.37248C9.37248 8.34726 9.45633 8.31388 9.52191 8.27245C9.58756 8.23102 9.6516 8.1823 9.71373 8.12639C9.77584 8.07051 9.82259 8.00108 9.85359 7.91816C9.88465 7.83518 9.90017 7.74321 9.90017 7.64223C9.90017 7.52326 9.87857 7.4178 9.83533 7.32586C9.79223 7.23391 9.73955 7.15815 9.67732 7.09867C9.61521 7.03918 9.53235 6.98867 9.42862 6.94724C9.32507 6.90577 9.22998 6.87601 9.14364 6.85802C9.0573 6.84002 8.95108 6.82556 8.82499 6.81475C8.69884 6.80393 8.59865 6.79942 8.52437 6.8012C8.45009 6.80302 8.35685 6.8048 8.24452 6.80666C8.13233 6.80848 8.06412 6.80938 8.03988 6.80939L8.03988 6.80937H8.03982L8.03982 6.80939ZM10.092 10.7091C10.1438 10.6478 10.1861 10.5756 10.219 10.4927C10.2518 10.4097 10.2682 10.3179 10.2682 10.2168C10.2682 10.087 10.2423 9.97155 10.1904 9.87061C10.1386 9.76962 10.0747 9.68682 9.99872 9.6218C9.92269 9.5569 9.82332 9.50192 9.70071 9.45687C9.57798 9.41175 9.46492 9.37844 9.36132 9.35677C9.25759 9.33513 9.12975 9.31897 8.97784 9.30823C8.82577 9.29734 8.70654 9.29202 8.62018 9.29202C8.5338 9.29202 8.42245 9.2937 8.28594 9.29734C8.14945 9.30102 8.06739 9.30278 8.03979 9.30278L8.03979 11.131C8.06745 11.131 8.1313 11.1319 8.23155 11.1336C8.33174 11.1354 8.41466 11.1363 8.48032 11.1363C8.54593 11.1363 8.63753 11.1336 8.75495 11.1283C8.87245 11.1228 8.97346 11.1157 9.05806 11.1066C9.14279 11.0975 9.24118 11.0823 9.3536 11.0607C9.46577 11.0389 9.56168 11.0138 9.64118 10.9849C9.72057 10.956 9.8027 10.9182 9.88728 10.8713C9.97188 10.8245 10.0401 10.7703 10.092 10.7091Z" fill="#2E2368"/>
</svg>
