<svg width="80" height="80" fill="none" xmlns="http://www.w3.org/2000/svg"><mask id="a" style="mask-type:alpha" maskUnits="userSpaceOnUse" x="0" y="0" width="80" height="80"><path fill="#C4C4C4" d="M0 0h80v80H0z"/></mask><g mask="url(#a)"><path d="M39.882 22.241c6.139 4.788 13.178 4.493 15.19 4.493-.44 27.228-3.793 23.6-15.19 31.236-11.398-7.635-14.73-4.008-15.17-31.236 1.991 0 9.031.295 15.17-4.493z" stroke="#fff" stroke-width="9.365" stroke-miterlimit="10" stroke-linecap="round" stroke-linejoin="round"/><path d="M40.607 24.51c5.345 4.15 11.475 3.895 13.226 3.895-.383 23.609-3.302 20.463-13.226 27.083-9.925-6.62-12.825-3.474-13.209-27.083 1.734 0 7.863.256 13.209-3.895z" stroke="#fff" stroke-width="9.365" stroke-miterlimit="10" stroke-linecap="round" stroke-linejoin="round"/><mask id="b" style="mask-type:alpha" maskUnits="userSpaceOnUse" x="2" y="2" width="76" height="76"><path d="M40 78c20.987 0 38-17.013 38-38S60.987 2 40 2 2 19.013 2 40s17.013 38 38 38z" fill="#C4C4C4"/></mask><g mask="url(#b)"><g filter="url(#c)"><path d="M40 78c20.987 0 38-17.013 38-38S60.987 2 40 2 2 19.013 2 40s17.013 38 38 38z" fill="url(#d)"/></g><path d="M39.981 19.635c7.303 5.624 15.677 5.277 18.07 5.277-.523 31.988-4.511 27.726-18.07 36.695-13.559-8.97-17.522-4.707-18.046-36.695 2.368 0 10.743.347 18.046-5.277z" fill="#2A81DE" stroke="#fff" stroke-width="2.5" stroke-miterlimit="10" stroke-linecap="round" stroke-linejoin="round"/><path d="M45.337 39.525c.909.318 1.62.818 2.135 1.5.515.666.772 1.475.772 2.43 0 1.393-.56 2.468-1.68 3.225-1.12.757-2.741 1.136-4.861 1.136h-8.586v-15.9h8.132c2.029 0 3.573.379 4.633 1.135 1.06.743 1.59 1.75 1.59 3.022 0 .757-.19 1.438-.568 2.044-.363.59-.886 1.06-1.567 1.408zm-7.768-4.361v3.066h3.09c1.513 0 2.27-.515 2.27-1.544 0-1.015-.757-1.522-2.27-1.522h-3.09zm3.77 9.404c1.575 0 2.363-.538 2.363-1.613s-.788-1.613-2.363-1.613h-3.77v3.226h3.77z" fill="#fff"/></g></g><defs><linearGradient id="d" x1="78" y1="83.473" x2="14.248" y2="9.645" gradientUnits="userSpaceOnUse"><stop stop-color="#0E65C1"/><stop offset="1" stop-color="#439BF8"/></linearGradient><filter id="c" x="2" y="2" width="76" height="83.284" filterUnits="userSpaceOnUse" color-interpolation-filters="sRGB"><feFlood flood-opacity="0" result="BackgroundImageFix"/><feBlend in="SourceGraphic" in2="BackgroundImageFix" result="shape"/><feColorMatrix in="SourceAlpha" values="0 0 0 0 0 0 0 0 0 0 0 0 0 0 0 0 0 0 127 0" result="hardAlpha"/><feOffset dy="7.284"/><feGaussianBlur stdDeviation="8.845"/><feComposite in2="hardAlpha" operator="arithmetic" k2="-1" k3="1"/><feColorMatrix values="0 0 0 0 0.0703457 0 0 0 0 0.496071 0 0 0 0 0.947598 0 0 0 0.4 0"/><feBlend in2="shape" result="effect1_innerShadow_4267_21068"/></filter></defs></svg>