<svg width="18" height="18" viewBox="0 0 18 18" fill="none" xmlns="http://www.w3.org/2000/svg">
<path d="M8.24007 0.888456C8.63923 0.421791 9.36078 0.421792 9.75993 0.888456L10.7216 2.01273C10.9657 2.29809 11.349 2.42266 11.7142 2.33527L13.153 1.99095C13.7503 1.84803 14.334 2.27214 14.3826 2.8843L14.4998 4.35909C14.5295 4.73343 14.7665 5.05955 15.1133 5.20351L16.4797 5.77066C17.0469 6.00607 17.2698 6.69231 16.9494 7.21613L16.1773 8.47812C15.9813 8.79844 15.9813 9.20156 16.1773 9.52188L16.9494 10.7839C17.2698 11.3077 17.0469 11.9939 16.4797 12.2293L15.1133 12.7965C14.7665 12.9405 14.5295 13.2666 14.4998 13.6409L14.3826 15.1157C14.334 15.7279 13.7503 16.152 13.153 16.0091L11.7142 15.6647C11.349 15.5773 10.9657 15.7019 10.7216 15.9873L9.75993 17.1115C9.36077 17.5782 8.63922 17.5782 8.24007 17.1115L7.27843 15.9873C7.03435 15.7019 6.65097 15.5773 6.28576 15.6647L4.84695 16.0091C4.24973 16.152 3.66598 15.7279 3.61736 15.1157L3.50021 13.6409C3.47047 13.2666 3.23353 12.9405 2.8867 12.7965L1.5203 12.2293C0.953124 11.9939 0.730153 11.3077 1.05063 10.7839L1.82272 9.52188C2.01869 9.20156 2.01869 8.79844 1.82272 8.47812L1.05063 7.21613C0.730153 6.69231 0.953125 6.00607 1.5203 5.77066L2.8867 5.20351C3.23353 5.05955 3.47047 4.73343 3.50021 4.35909L3.61736 2.8843C3.66598 2.27214 4.24973 1.84803 4.84695 1.99095L6.28576 2.33527C6.65097 2.42266 7.03435 2.29809 7.27843 2.01273L8.24007 0.888456Z" fill="#3D96FF"/>
<path d="M12.8326 6.65801C13.0558 6.86836 13.0558 7.20828 12.8326 7.41863L8.2609 11.7266C8.03767 11.9369 7.67693 11.9369 7.45371 11.7266L5.16737 9.5726C4.94421 9.36225 4.94421 9.02233 5.16737 8.81198C5.39056 8.60163 5.75236 8.60163 5.97559 8.81198L7.84123 10.584L12.0254 6.65801C12.2486 6.44733 12.6094 6.44733 12.8326 6.65801Z" fill="#271D5A"/>
</svg>
