<svg width="63" height="63" viewBox="0 0 63 63" fill="none" xmlns="http://www.w3.org/2000/svg">
<path fill-rule="evenodd" clip-rule="evenodd" d="M19.2699 26.4718L31.506 14.2411L43.7472 26.4818L50.8629 19.3613L31.506 0L12.1491 19.3563L19.2699 26.4718ZM0 31.5011L7.11815 24.3831L14.2363 31.5011L7.11815 38.619L0 31.5011ZM31.506 48.7639L19.2699 36.5282L12.1392 43.6387L12.1491 43.6487L31.506 63L50.8629 43.6387L50.8679 43.6338L43.7472 36.5232L31.506 48.7639ZM48.7637 31.5028L55.8819 24.3849L63 31.5028L55.8819 38.6207L48.7637 31.5028ZM31.506 24.2725L38.7263 31.4975H38.7313L38.7263 31.5025L31.506 38.7275L24.2858 31.5124L24.2758 31.4975L24.2858 31.4876L25.5497 30.2237L26.1667 29.6116L31.506 24.2725Z" fill="#F3BA2F"/>
</svg>
