<svg width="36" height="36" fill="none" xmlns="http://www.w3.org/2000/svg"><path d="M12.425.27s12.436 2.087 12.23 17.57c0 0 3.35-2.295 2.121-8.692 0 0 12.704 26.283-9.5 26.099C-.788 35.097 3.01 19.595 9.61 13.505c-1.838 3.856-1.324 5.65-.16 9.24-.297-3.244.777-5.654 2.123-8.304 2.736-5.397 3.71-9.066.374-10.981 3.923 1.29 5.695 7.208 5.632 11.03-.045.049 2.927-10.33-5.154-14.22z" fill="url(#a)"/><path d="M10.155 12.017c1.208-1.155 2.056-2.07 1.773-3.966-.331-2.187-2.54-2.497-1.924-4.531-1.83 2.169-.874 3.585.217 5.1.637.976.334 2.624-.066 3.397z" fill="url(#b)"/><g filter="url(#c)"><path d="M11.46 26.66c.072.042.147.08.222.119.013.004.027.015.04.02l.211.103.033.015.232.103c.02.01.042.017.065.03l.104.044c.025.01.05.019.074.032.038.014.07.029.11.043l.076.028a53.433 53.433 0 0 0 .183.069c.047.016.092.029.137.049.016.007.032.008.048.016.099.034.197.063.298.094l.039.014.29.083.051.012c.085.024.173.044.261.064.016.002.032.009.047.01.082.021.166.038.25.056.01.002.023.007.035.005l.25.05.062.01c.078.012.153.028.23.04.01.002.02.004.031.002a3.278 3.278 0 0 0 .31.041c.068.01.139.017.207.027.015 0 .034.005.05.006l.24.025c.019.004.036.001.055.005.065.007.133.011.2.015l.067.003c.083.005.166.01.245.012.01.002.015 0 .027 0l.22.008c.021 0 .046.003.07 0l.217.006c.012-.002.02 0 .036.001.082-.002.167 0 .25-.002l.063.001.212-.003c.018-.003.034-.002.052-.004l.25-.012c.018-.002.036-.005.055-.001.078-.004.153-.012.232-.016a.226.226 0 0 0 .045-.003l.26-.026c.018-.002.036-.005.058-.005.098-.01.191-.02.287-.033h.006c.095-.014.19-.027.283-.043l.047-.006c.108-.015.214-.036.32-.057.019-.003.033-.008.049-.007a9.837 9.837 0 0 0 .378-.077c.047-.013.094-.02.141-.033.024-.003.044-.009.07-.016l.19-.045c.005 0 .011-.002.02-.006.067-.02.138-.035.205-.054l.061-.018c.047-.013.096-.03.143-.043l.062-.018.265-.084c.008-.005.017-.01.026-.007.084-.028.171-.06.252-.09l.037-.015c.087-.03.17-.065.254-.099a6.146 6.146 0 0 0 .299-.125l.038-.015.24-.11c.008-.005.014-.005.023-.01.082-.04.159-.08.238-.123l.045-.026c.077-.04.152-.085.23-.125.01-.008.027-.016.038-.024.076-.046.158-.093.23-.142l.179-.114c.017-.01.033-.024.05-.033l.13-.092c.014-.012.03-.02.044-.032.056-.04.111-.08.163-.123.01-.008.016-.015.024-.02.045-.031.088-.07.129-.104a.303.303 0 0 1 .05-.039l.086-.076c.016-.016.03-.027.046-.042l.092-.084c.013-.011.021-.022.035-.034l.12-.116c.005-.008.016-.015.022-.023.032-.03.063-.066.092-.1.019-.018.034-.04.053-.058.016-.015.026-.03.039-.048.021-.022.037-.043.055-.062.01-.014.024-.026.034-.04.021-.023.042-.051.06-.076.007-.01.015-.022.026-.03.026-.035.057-.072.083-.108.04-.057.078-.11.113-.167l.023-.032.102-.166c.008-.01.012-.024.017-.031.027-.046.048-.09.073-.133.005-.007.01-.02.014-.028.027-.052.053-.104.073-.155.004-.013.012-.024.016-.038.019-.04.038-.082.053-.126.004-.014.01-.02.013-.034.02-.052.035-.102.055-.153.005-.014.006-.024.01-.037l.038-.121.013-.04c.015-.051.023-.1.037-.151.003-.004.002-.01.004-.014.012-.047.018-.093.024-.139.004-.013.005-.03.01-.043.006-.04.01-.082.012-.124l.006-.03a3.18 3.18 0 0 0 .01-.15c-.002-.012.002-.026 0-.038 0-.04.004-.082.001-.123 0-.023 0-.045-.002-.064l.074 2.82c.002.012.004.025 0 .038 0 .007-.002.016 0 .023-.001.039.001.08-.002.123.002.012-.002.026 0 .038-.003.05-.008.101-.01.15v.007c.001.006 0 .016-.003.02-.003.042-.01.081-.013.124-.001.016-.005.03-.01.043-.005.046-.017.093-.023.139-.003.003 0 .006-.002.01-.008.05-.022.1-.037.15l-.012.04-.038.122c-.002.01-.005.013-.006.023-.003.004-.005.007-.002.01-.014.05-.035.102-.055.153-.004.013-.01.02-.014.034a1.455 1.455 0 0 1-.052.127c-.005.007-.007.017-.012.024-.003.003-.005.007-.004.013a2.322 2.322 0 0 1-.073.156c-.005.007-.01.02-.014.027-.022.045-.049.09-.073.133-.006.007-.007.017-.012.024l-.008.011-.102.166-.023.032c-.035.056-.075.113-.113.167a1.464 1.464 0 0 1-.083.108c-.008.011-.015.022-.026.03-.018.025-.042.05-.06.076-.01.014-.023.026-.034.04-.018.018-.036.044-.057.066-.013.018-.027.03-.04.047-.016.015-.026.03-.042.045-.002.003-.008.01-.014.011-.028.033-.06.064-.092.1-.005.007-.016.015-.021.022-.04.041-.078.079-.121.117-.014.011-.021.022-.035.034l-.092.083c-.016.016-.03.027-.046.042a4.26 4.26 0 0 0-.086.077c-.012.008-.017.015-.028.023-.008.004-.013.011-.022.016-.04.034-.087.07-.128.105-.009.004-.017.015-.027.023-.052.042-.108.082-.163.122-.014.012-.03.02-.044.032l-.13.092c-.017.009-.034.024-.05.033-.06.037-.117.08-.18.115-.075.046-.153.095-.23.14-.01.009-.027.018-.038.026a5.674 5.674 0 0 1-.23.125l-.044.025c-.08.043-.16.08-.239.123-.008.005-.014.006-.023.01-.08.037-.156.076-.24.11l-.037.015c-.08.037-.164.071-.247.105a6.438 6.438 0 0 1-.306.12c-.014.005-.023.01-.037.014a6.65 6.65 0 0 1-.544.182c-.008.004-.02.006-.029.01l-.032.008c-.047.013-.096.03-.143.042l-.062.018c-.067.019-.134.038-.205.054a1.981 1.981 0 0 1-.209.051c-.023.004-.044.01-.07.017-.047.012-.095.019-.142.032a.173.173 0 0 0-.038.008c-.008.005-.018.003-.026.007-.104.024-.21.045-.314.063-.018.002-.032.007-.048.006-.106.021-.213.036-.32.057l-.018.003a2.135 2.135 0 0 0-.03.004c-.095.013-.187.029-.286.04h-.006a8.494 8.494 0 0 1-.287.033c-.012.002-.022 0-.03.004-.006 0-.015-.001-.024.003l-.26.027c-.019.002-.034 0-.046.003-.078.004-.153.01-.232.015-.012.002-.024.003-.033.002l-.018.002c-.084.005-.169.01-.25.012-.018.002-.034.001-.052.004a4.224 4.224 0 0 1-.212.003c-.012.002-.027 0-.04.002h-.02a7.304 7.304 0 0 1-.25.002 5.774 5.774 0 0 1-.253-.007c-.012.001-.02 0-.036-.002-.012.002-.021 0-.033.002l-.22-.009a.068.068 0 0 0-.028 0c-.082-.004-.162-.006-.242-.015-.01-.002-.015 0-.025-.003-.015 0-.024-.003-.04-.004-.067-.003-.132-.01-.197-.018-.018-.004-.036-.001-.055-.005l-.24-.025c-.006 0-.01-.002-.016-.001l-.034-.005c-.068-.01-.139-.017-.207-.027-.021 0-.044-.007-.065-.007l-.245-.034c-.005.007-.008.004-.008.004-.01-.002-.016 0-.025-.003-.078-.012-.153-.027-.23-.04l-.063-.01-.25-.05c-.003-.002-.006.001-.009-.001-.01-.002-.015-.002-.022-.007a5.425 5.425 0 0 1-.25-.056c-.016-.001-.032-.008-.048-.01-.088-.02-.173-.044-.26-.064-.01-.002-.016 0-.023-.006a2.323 2.323 0 0 1-.028-.006c-.098-.029-.199-.053-.291-.083l-.038-.014c-.102-.031-.2-.06-.3-.094l-.003-.003c-.012-.005-.029-.012-.044-.013-.048-.016-.092-.03-.137-.05a.406.406 0 0 1-.068-.026l-.115-.042a1.309 1.309 0 0 0-.073-.025c-.039-.014-.071-.03-.11-.043-.025-.01-.05-.019-.074-.032-.035-.011-.07-.029-.103-.044l-.042-.017c-.01-.002-.016-.007-.026-.01a533.73 533.73 0 0 1-.232-.103c-.013-.004-.02-.01-.033-.014l-.212-.104c-.013-.004-.026-.015-.039-.02a4.77 4.77 0 0 1-.223-.118.08.08 0 0 1-.051-.019c-.073-.041-.149-.086-.221-.128-1.602-.954-2.423-2.219-2.456-3.496l-.074-2.82c.035 1.274.856 2.539 2.455 3.497l.222.127c.01.009.026.016.042.024z" fill="url(#d)"/><path d="M22.75 26.39c3.149-1.987 3.09-5.16-.131-7.084-3.225-1.925-8.394-1.876-11.545.115-3.148 1.988-3.09 5.162.132 7.085 3.224 1.925 8.396 1.873 11.544-.115z" fill="url(#e)"/><path d="M21.372 25.567c2.405-1.518 2.361-3.942-.102-5.41-2.462-1.47-6.408-1.43-8.813.088-2.405 1.518-2.36 3.941.102 5.41 2.457 1.47 6.406 1.433 8.813-.088z" fill="url(#f)"/><path fill-rule="evenodd" clip-rule="evenodd" d="M19.516 21.3c.126-.011.253-.014.38-.007l1.034.054c.066.003.13.017.187.04l.287.11c.254.1.294.311.197.449-.12.17-.167.253-.195.308l-.014.028a1.119 1.119 0 0 1-.12.195c-.126.168-.41.462-1.258 1.313l-1 1.416c-.074.104-.224.174-.396.172l-1.071-.01c-.192 0-.36-.081-.443-.2l-.285-.408-.008-.015c-.36-.666-.759-.993-.83-1.052l-.004-.003c-.138-.113-.148-.268-.059-.383l.518-.669.504.666-.11.142c.2.194.51.54.794 1.061l.158.226.564.005.91-1.289.02-.019c.883-.887 1.126-1.142 1.22-1.267a.537.537 0 0 0 .063-.103 4.142 4.142 0 0 1 .047-.091l-.76-.04a1.42 1.42 0 0 0-.203.004l-.868.08-.815-.043-.036.037-.242.372-.528-.698.207-.216a.547.547 0 0 1 .42-.144l.956.05.78-.07z" fill="#FED91E"/><path fill-rule="evenodd" clip-rule="evenodd" d="M14.06 21.247c.105-.008.211-.006.316.004l.809.083c.1.01.201.013.302.01l.803-.03c.188-.006.358.067.446.18l1.505 1.956c.07.092.078.201.02.296l-.452.748-.51-.758.07-.117-1.276-1.659-.547.02c-.157.006-.314 0-.47-.015l-.808-.083a.584.584 0 0 0-.103-.001l-.717.053c.318.316.727.85 1.35 1.964l.665.811.355-.004.385-.605.502.746-.185.291c-.075.119-.24.2-.432.203l-.852.01a.51.51 0 0 1-.397-.162l-.833-1.014-.013-.023c-.904-1.623-1.307-1.92-1.57-2.113l-.007-.005c-.193-.142-.174-.369.031-.49l.241-.14a.553.553 0 0 1 .238-.072l1.133-.084z" fill="#FED91E"/><path opacity=".25" d="M20.544 20.153c2.464 1.47 2.508 3.894.102 5.413-1.094.69-2.503 1.074-3.952 1.15 1.691.03 3.399-.357 4.677-1.163 2.406-1.518 2.362-3.943-.102-5.412-1.345-.803-3.129-1.155-4.868-1.065 1.5.026 2.987.387 4.143 1.077z" fill="#60042E"/></g><defs><linearGradient id="a" x1="14.973" y1="9.641" x2="19.197" y2="35.909" gradientUnits="userSpaceOnUse"><stop stop-color="#FF1F00"/><stop offset="1" stop-color="#FE0"/></linearGradient><linearGradient id="b" x1="10.257" y1="5.798" x2="11.267" y2="11.992" gradientUnits="userSpaceOnUse"><stop stop-color="#FF1F00"/><stop offset="1" stop-color="#FE0"/></linearGradient><linearGradient id="d" x1="11.943" y1="16.06" x2="21.157" y2="30.527" gradientUnits="userSpaceOnUse"><stop stop-color="#F91C76"/><stop offset="1" stop-color="#FFD215"/></linearGradient><linearGradient id="e" x1="14.078" y1="17.613" x2="19.133" y2="26.184" gradientUnits="userSpaceOnUse"><stop stop-color="#FEAB2A"/><stop offset="1" stop-color="#FFFF15"/></linearGradient><linearGradient id="f" x1="15.377" y1="17.369" x2="18.19" y2="26.879" gradientUnits="userSpaceOnUse"><stop stop-color="#F91C76"/><stop offset="1" stop-color="#FFD215"/></linearGradient><filter id="c" x=".74" y="9.894" width="52.4" height="48.846" filterUnits="userSpaceOnUse" color-interpolation-filters="sRGB"><feFlood flood-opacity="0" result="BackgroundImageFix"/><feColorMatrix in="SourceAlpha" values="0 0 0 0 0 0 0 0 0 0 0 0 0 0 0 0 0 0 127 0" result="hardAlpha"/><feOffset dx="10" dy="10"/><feGaussianBlur stdDeviation="9"/><feComposite in2="hardAlpha" operator="out"/><feColorMatrix values="0 0 0 0 0 0 0 0 0 0 0 0 0 0 0 0 0 0 0.2 0"/><feBlend in2="BackgroundImageFix" result="effect1_dropShadow_4784_34084"/><feBlend in="SourceGraphic" in2="effect1_dropShadow_4784_34084" result="shape"/></filter></defs></svg>