<svg width="780" height="684" fill="none" xmlns="http://www.w3.org/2000/svg"><mask id="a" style="mask-type:alpha" maskUnits="userSpaceOnUse" x="0" y="0" width="780" height="684"><path fill="#C4C4C4" d="M0 0h780v683.687H0z"/></mask><g mask="url(#a)"><path d="M470.652 220.635h-89.713v384.728h89.713V220.635z" fill="#7742CA"/><path d="M380.939 503.902c31.797-9.835 61.588-27.442 89.713-46.378v147.838h-89.713v-101.46z" fill="#5C17B2"/><path d="M345.344 327.546h-89.713V605.36h89.713V327.546z" fill="#7742CA"/><path d="M328.74 510.397c5.591.82 11.126 1.3 16.604 1.526v93.434h-89.713v-92.558c15.87-5.228 39.11-7.376 73.109-2.402z" fill="#5C17B2"/><path d="M220.037 429.869h-89.713v175.492h89.713V429.869z" fill="#7742CA"/><path d="M220.497 518.927v86.685h-90.172l-.001-69.467c25.509 2.375 61.697-6.53 90.173-17.218z" fill="#5C17B2"/><path d="M595.959 105.691h-89.713V605.36h89.713V105.691z" fill="#7742CA"/><path d="M595.986 379.548v225.84h-89.713V417.9c31.881-21.705 61.588-38.493 89.713-38.352z" fill="#5C17B2"/><path d="m779.536 178.132-132.563 43.722 26.614 22.117h-.005L558.875 363.713l-100.547-86.091L56.973 605.566l3.536.053h99.979l296.858-242.55 106 90.76 160.785-167.85 28.727 23.873 26.678-131.72z" fill="#DCD8F2"/><g filter="url(#b)"><rect x="617.963" y="72.947" width="126.953" height="127.059" rx="10" fill="#E09F3E"/></g><path d="M652.774 139.72h-15.828v37.962h15.828V139.72zM677.228 121.141H661.4v56.538h15.828v-56.538zM701.694 95.51h-15.828v82.172h15.828V95.51zM726.148 131.45h-15.827v46.233h15.827V131.45z" fill="#fff"/><g filter="url(#c)"><rect x="215.75" y="154.378" width="121.02" height="121.121" rx="10" fill="#CF53E4"/></g><path d="m294.238 216.735 23.32 2.326c1.504-15.173-5.428-30.616-19.21-39.288l-12.464 19.837c6.009 3.78 9.008 10.51 8.354 17.125z" fill="#392B83"/><path d="M291.571 224.579c-5.314 8.464-16.481 11.009-24.939 5.691a18.045 18.045 0 0 1-4.981-4.673l-18.94 13.802a41.445 41.445 0 0 0 11.457 10.707c19.407 12.203 45.031 6.356 57.225-13.064a41.357 41.357 0 0 0 6.165-17.988l-23.32-2.326a17.843 17.843 0 0 1-2.667 7.851z" fill="#312470"/><path d="m242.711 239.4 18.93-13.802a18.09 18.09 0 0 1-3.155-7.384l-23.04 4.237a41.556 41.556 0 0 0 7.265 16.949z" fill="#423197"/><path d="M260.945 205.312c3.964-6.314 11.177-9.326 18.099-8.256l3.612-23.16c-15.879-2.471-32.442 4.456-41.533 18.943-5.76 9.171-7.493 19.733-5.677 29.609l23.039-4.237c-.788-4.3-.052-8.9 2.46-12.899z" fill="#4A37AA"/><path d="M279.043 197.053a18.013 18.013 0 0 1 6.839 2.555l12.464-19.836a41.315 41.315 0 0 0-15.691-5.878l-3.612 23.159z" fill="#533EBE"/><path d="M776.289 598.972v6.059c0 .487-.175.932-.476 1.307-.315.392-.77.7-1.305.872a2.782 2.782 0 0 1-.508.119 2.846 2.846 0 0 1-.493.038H658.638c-1.387 0-2.549-.865-2.752-1.985a1.614 1.614 0 0 1-.024-.232v-6.3a1.49 1.49 0 0 1 .024-.224c.203-1.121 1.365-1.986 2.752-1.986h114.869a3.206 3.206 0 0 1 1.001.154c.535.172.987.48 1.305.876.298.371.476.819.476 1.302z" fill="#FFB93E"/><path d="M719.877 607.367H658.34c-1.145 0-2.104-.739-2.387-1.73a1.614 1.614 0 0 1-.091-.487v-6.3a1.606 1.606 0 0 1 .091-.48c.283-.995 1.246-1.73 2.387-1.73h53.983c.858 3.155 2.871 7.526 7.554 10.727zM762.308 596.637h-1.307v10.731h1.307v-10.731zM757.887 596.637h-1.307v10.731h1.307v-10.731zM752.59 596.637h-1.306v10.731h1.306v-10.731zM744.469 596.637h-1.306v10.731h1.306v-10.731zM735.876 596.637h-1.307v10.731h1.307v-10.731zM722.707 596.637H721.4v10.731h1.307v-10.731z" fill="#FFA412"/><path d="M710.378 596.637h-1.307v10.731h1.307v-10.731zM699.368 596.637h-1.306v10.731h1.306v-10.731zM766.515 596.637h-1.307v10.731h1.307v-10.731zM769.296 596.637h-1.307v10.731h1.307v-10.731zM771.977 596.637h-1.307v10.731h1.307v-10.731zM773.998 596.676v10.654a3.295 3.295 0 0 1-.49.038h-.817v-10.731h.817c.168 0 .333.014.49.039zM775.811 597.671v8.668a2.773 2.773 0 0 1-1.307.876v-10.416c.536.172.991.48 1.307.872z" fill="#FFA412"/><path d="M764.004 588.25v6.059c0 .48-.171.928-.472 1.299-.319.396-.77.704-1.306.876a3.192 3.192 0 0 1-.511.119c-.08.01-.157.017-.241.028a2.96 2.96 0 0 1-.249.01H646.356c-1.386 0-2.548-.868-2.751-1.989-.014-.074-.021-.151-.028-.224 0-.042-.004-.084-.004-.119v-6.059c0-.042.004-.084.004-.119.003-.074.01-.154.028-.224.203-1.125 1.365-1.99 2.751-1.99h114.869c.074 0 .151.004.221.007.028 0 .052.004.08.007h.011l.105.011.07.01a3.112 3.112 0 0 1 .651.168l.052.021c.028.011.06.021.088.035.024.011.052.028.077.039l.021.01.049.021c.045.021.087.046.133.071.115.066.224.143.325.22.049.039.095.074.137.112.101.091.196.189.276.291.312.375.483.823.483 1.31z" fill="#FFB93E"/><path d="M707.599 596.645h-61.537c-1.145 0-2.107-.743-2.391-1.737a2.046 2.046 0 0 1-.066-.256c-.014-.074-.021-.151-.028-.224 0-.042-.004-.084-.004-.119v-6.059c0-.042.004-.084.004-.119.003-.074.01-.154.028-.224.014-.088.038-.172.066-.256.284-.995 1.246-1.734 2.388-1.734h53.979c.028.088.049.175.074.263a19.596 19.596 0 0 0 2.499 5.435 18.436 18.436 0 0 0 4.988 5.03zM750.025 585.916h-1.306v10.731h1.306v-10.731zM745.609 585.916h-1.306v10.731h1.306v-10.731zM740.31 585.916h-1.307v10.731h1.307v-10.731zM732.187 585.916h-1.307v10.731h1.307v-10.731zM723.593 585.916h-1.306v10.731h1.306v-10.731zM710.425 585.916h-1.307v10.731h1.307v-10.731z" fill="#FFA412"/><path d="M698.097 585.916h-1.306v10.731h1.306v-10.731zM687.086 585.916h-1.307v10.731h1.307v-10.731zM754.233 585.916h-1.307v10.731h1.307v-10.731zM757.014 585.916h-1.307v10.731h1.307v-10.731zM759.699 585.916h-1.307v10.731h1.307v-10.731zM761.716 585.951v10.654a3.169 3.169 0 0 1-.491.039h-.816v-10.731h.816c.169.003.333.014.491.038zM763.528 586.947v8.668c-.315.392-.77.7-1.306.875v-10.416c.536.172.991.48 1.306.873z" fill="#FFA412"/><path d="M769.94 577.777v6.059c0 .483-.171.932-.472 1.306a2.769 2.769 0 0 1-1.306.872 2.732 2.732 0 0 1-.511.119 2.803 2.803 0 0 1-.49.039H652.292c-.462 0-.9-.095-1.281-.263-.812-.357-1.393-1.047-1.484-1.845a.512.512 0 0 1-.011-.105l-.003-.12v-6.058l.003-.12c.004-.073.011-.15.028-.224.203-1.12 1.365-1.989 2.752-1.989h114.865a3.423 3.423 0 0 1 1.001.158c.529.171.984.483 1.306.875.297.368.472.816.472 1.296z" fill="#FFB93E"/><path d="M713.532 586.169h-61.541a2.61 2.61 0 0 1-1.145-.263c-.724-.357-1.242-1.047-1.323-1.845a.522.522 0 0 1-.01-.106c0-.038-.004-.08-.004-.119v-6.059c0-.038.004-.08.004-.119.003-.073.01-.15.028-.224a1.62 1.62 0 0 1 .066-.255c.284-.995 1.246-1.738 2.384-1.738h53.987a19.758 19.758 0 0 0 1.666 4.189 18.367 18.367 0 0 0 5.51 6.276c.126.091.252.175.378.263zM755.962 575.442h-1.307v10.731h1.307v-10.731zM751.541 575.442h-1.307v10.731h1.307v-10.731zM746.244 575.442h-1.306v10.731h1.306v-10.731zM738.123 575.442h-1.307v10.731h1.307v-10.731zM729.529 575.442h-1.306v10.731h1.306v-10.731zM716.361 575.442h-1.307v10.731h1.307v-10.731z" fill="#FFA412"/><path d="M704.032 575.442h-1.307v10.731h1.307v-10.731zM693.022 575.442h-1.307v10.731h1.307v-10.731zM760.169 575.442h-1.307v10.731h1.307v-10.731zM762.95 575.442h-1.307v10.731h1.307v-10.731zM765.63 575.442h-1.307v10.731h1.307v-10.731zM767.652 575.48v10.654a3.169 3.169 0 0 1-.491.039h-.816v-10.731h.816c.169.003.33.014.491.038zM769.464 576.476v8.668c-.315.392-.77.7-1.306.876v-10.416c.536.171.988.48 1.306.872z" fill="#FFA412"/><path d="M772.696 567.055v6.059c0 .483-.172.928-.476 1.303a2.83 2.83 0 0 1-1.299.875 2.99 2.99 0 0 1-.511.119c-.08.011-.161.018-.241.028a5.174 5.174 0 0 1-.249.007H655.047c-1.386 0-2.548-.865-2.751-1.985-.014-.071-.021-.151-.028-.225 0-.042-.003-.084-.003-.119v-6.059c0-.042.003-.084.003-.119a2.37 2.37 0 0 1 .021-.21c.175-1.04 1.18-1.863 2.426-1.989.108-.011.217-.014.332-.014h114.87c.164 0 .332.01.49.038.175.028.346.063.511.119.528.169.983.48 1.302.873.301.367.476.816.476 1.299z" fill="#FFB93E"/><path d="M716.287 575.446h-61.541c-1.141 0-2.1-.739-2.383-1.73a2.223 2.223 0 0 1-.067-.255c-.014-.071-.021-.151-.028-.225 0-.042-.003-.084-.003-.119v-6.059c0-.042.003-.084.003-.119a2.37 2.37 0 0 1 .021-.21c.158-1.037 1.054-1.863 2.16-1.989a2.63 2.63 0 0 1 .294-.014h53.987a19.928 19.928 0 0 0 1.365 3.597 18.447 18.447 0 0 0 6.192 7.123zM758.717 564.715h-1.307v10.731h1.307v-10.731zM754.296 564.715h-1.307v10.731h1.307v-10.731zM749 564.715h-1.307v10.731H749v-10.731zM740.879 564.715h-1.307v10.731h1.307v-10.731zM732.285 564.715h-1.307v10.731h1.307v-10.731zM719.116 564.715h-1.306v10.731h1.306v-10.731z" fill="#FFA412"/><path d="M706.787 564.715h-1.307v10.731h1.307v-10.731zM695.777 564.715h-1.306v10.731h1.306v-10.731zM762.924 564.715h-1.306v10.731h1.306v-10.731zM765.705 564.715h-1.307v10.731h1.307v-10.731zM768.385 564.715h-1.306v10.731h1.306v-10.731zM770.407 564.754v10.654a3.295 3.295 0 0 1-.49.038h-.816v-10.731h.816c.168.004.329.018.49.039zM772.22 565.749v8.668a2.788 2.788 0 0 1-1.307.876v-10.416c.536.172.988.48 1.307.872z" fill="#FFA412"/><path d="M764.249 556.331v6.059c0 .483-.175.931-.476 1.306-.315.392-.77.7-1.306.872a2.71 2.71 0 0 1-.507.119 16.98 16.98 0 0 0-.161.021h-.021a1.199 1.199 0 0 1-.158.011c-.049.003-.098.003-.15.003H646.597c-1.386 0-2.548-.865-2.751-1.986-.014-.073-.021-.154-.028-.231v-6.3c.003-.032.007-.063.007-.098.112-.988.966-1.801 2.086-2.042l.084-.018c.196-.035.396-.052.602-.052h114.869c.088 0 .168.003.249.007.038.003.073.003.108.01h.004c.045.004.087.007.133.014.171.028.346.067.507.119a2.75 2.75 0 0 1 1.306.876c.298.382.476.83.476 1.31z" fill="#FFB93E"/><path d="M707.837 564.729H646.3c-1.145 0-2.108-.739-2.391-1.73a2.24 2.24 0 0 1-.067-.256c-.014-.074-.021-.154-.028-.231v-6.301a.753.753 0 0 0 .007-.098c.102-1.009.897-1.839 1.929-2.056l.105-.021c.144-.021.291-.035.441-.035h53.983c.007.021.014.049.021.074.868 3.148 2.881 7.46 7.512 10.636a.067.067 0 0 1 .025.018zM750.271 554.001h-1.307v10.731h1.307v-10.731zM745.855 554.001h-1.307v10.731h1.307v-10.731zM740.555 554.001h-1.306v10.731h1.306v-10.731zM732.432 554.001h-1.307v10.731h1.307v-10.731zM723.838 554.001h-1.306v10.731h1.306v-10.731zM710.67 554.001h-1.307v10.731h1.307v-10.731z" fill="#FFA412"/><path d="M698.342 554.001h-1.306v10.731h1.306v-10.731zM687.331 554.001h-1.307v10.731h1.307v-10.731zM754.478 554.001h-1.307v10.731h1.307v-10.731zM757.259 554.001h-1.307v10.731h1.307v-10.731zM759.944 554.001h-1.307v10.731h1.307v-10.731zM761.961 554.04v10.654a3.295 3.295 0 0 1-.49.038h-.817v-10.731h.817c.168 0 .332.014.49.039zM763.774 555.035v8.669c-.316.392-.771.7-1.307.875v-10.416c.536.168.991.477 1.307.872z" fill="#FFA412"/><path d="M764.003 545.677v6.059c0 .483-.171.928-.472 1.306-.319.393-.77.701-1.306.873a3.638 3.638 0 0 1-.399.101h-.003c-.035.007-.07.011-.109.018a3.646 3.646 0 0 1-.49.038H646.355c-.119 0-.245-.007-.361-.021a.903.903 0 0 1-.136-.017c-1.169-.176-2.093-.978-2.258-1.976a2.238 2.238 0 0 1-.021-.199c0-.042-.003-.081-.003-.119v-6.059c0-.042.003-.081.003-.119.004-.074.011-.155.028-.225.203-1.124 1.365-1.989 2.751-1.989h114.87c.073 0 .147.004.22.007.007 0 .018 0 .028.004.021 0 .042 0 .063.003l.105.011.07.01c.175.025.347.067.511.119l.07.021c.021.011.049.018.07.028l.053.021c.028.011.059.021.087.035.004 0 .004.004.007.004l.063.031c.196.095.375.203.539.333.049.039.095.074.137.112.042.039.084.074.119.116l.052.056c.039.038.07.08.105.115.305.372.476.823.476 1.303z" fill="#FFB93E"/><path d="M707.598 554.072h-61.537c-.053 0-.102-.003-.147-.003-.056-.004-.109-.007-.158-.014-1.113-.13-2.002-.96-2.152-1.997a1.68 1.68 0 0 1-.021-.199c0-.042-.004-.081-.004-.119v-6.059c0-.042.004-.081.004-.119.003-.074.01-.155.028-.225a1.62 1.62 0 0 1 .066-.255c.284-.995 1.246-1.734 2.387-1.734h53.98c.028.088.049.175.074.263.896 3.11 2.894 7.281 7.375 10.391.031.018.066.046.105.07zM750.03 543.343h-1.307v10.731h1.307v-10.731zM745.614 543.343h-1.307v10.731h1.307v-10.731zM740.315 543.343h-1.307v10.731h1.307v-10.731zM732.192 543.343h-1.307v10.731h1.307v-10.731zM723.598 543.343h-1.307v10.731h1.307v-10.731zM710.429 543.343h-1.306v10.731h1.306v-10.731z" fill="#FFA412"/><path d="M698.102 543.343h-1.307v10.731h1.307v-10.731zM687.09 543.343h-1.306v10.731h1.306v-10.731zM754.237 543.343h-1.306v10.731h1.306v-10.731zM757.018 543.343h-1.307v10.731h1.307v-10.731zM759.703 543.343h-1.307v10.731h1.307v-10.731zM761.72 543.382v10.653a3.166 3.166 0 0 1-.49.039h-.816v-10.731h.816c.168 0 .333.014.49.039zM763.533 544.377v8.668a2.775 2.775 0 0 1-1.307.876v-10.416c.536.171.992.48 1.307.872z" fill="#FFA412"/><path d="M769.941 535.217v6.059c0 .483-.172.928-.473 1.303a2.753 2.753 0 0 1-1.305.876 2.825 2.825 0 0 1-.511.115c-.081.014-.161.021-.242.032-.084.003-.164.007-.248.007H652.293c-.463 0-.9-.095-1.282-.263-.812-.357-1.393-1.047-1.484-1.846a.506.506 0 0 1-.01-.105c0-.038-.004-.08-.004-.115v-6.059c0-.042.004-.084.004-.119.003-.074.01-.154.028-.225.203-1.124 1.365-1.989 2.751-1.989h114.866c.164 0 .332.011.49.039.175.028.346.063.511.119.528.171.983.48 1.305.872.298.368.473.816.473 1.299z" fill="#FFB93E"/><path d="M713.532 543.609h-61.54c-.41 0-.802-.095-1.145-.263-.725-.357-1.243-1.047-1.323-1.846a.505.505 0 0 1-.011-.105l-.003-.115v-6.059c0-.042.003-.084.003-.119.004-.074.011-.154.028-.225.014-.087.039-.171.067-.255.283-.995 1.246-1.734 2.384-1.734h53.986c.837 3.072 2.759 7.288 7.176 10.465.126.084.252.172.378.256zM755.962 532.882h-1.307v10.731h1.307v-10.731zM751.542 532.882h-1.307v10.731h1.307v-10.731zM746.245 532.882h-1.307v10.731h1.307v-10.731zM738.124 532.882h-1.307v10.731h1.307v-10.731zM729.53 532.882h-1.307v10.731h1.307v-10.731zM716.361 532.882h-1.306v10.731h1.306v-10.731z" fill="#FFA412"/><path d="M704.032 532.882h-1.306v10.731h1.306v-10.731zM693.023 532.882h-1.307v10.731h1.307v-10.731zM760.17 532.882h-1.307v10.731h1.307v-10.731zM762.95 532.882h-1.306v10.731h1.306v-10.731zM765.63 532.882h-1.306v10.731h1.306v-10.731zM767.652 532.92v10.654a3.166 3.166 0 0 1-.49.039h-.816v-10.731h.816c.168 0 .329.014.49.038zM769.465 533.916v8.668c-.315.392-.771.7-1.307.875v-10.416c.536.172.988.48 1.307.873z" fill="#FFA412"/><path d="M779.328 524.498v6.059c0 .48-.172.928-.473 1.303-.042.049-.084.098-.129.144a2.793 2.793 0 0 1-1.177.732 3.144 3.144 0 0 1-.507.119 3.76 3.76 0 0 1-.494.038H661.683c-1.386 0-2.549-.865-2.752-1.989-.014-.07-.021-.151-.028-.224 0-.042-.003-.081-.003-.119v-6.059c0-.042.003-.077.003-.119.07-1.135 1.121-2.067 2.447-2.2.109-.01.217-.014.333-.014h114.869c.168 0 .332.011.493.039.175.028.343.063.508.119a2.808 2.808 0 0 1 1.306.872c.297.368.469.819.469 1.299z" fill="#FFB93E"/><path d="M722.922 532.893h-61.54c-1.141 0-2.101-.739-2.384-1.733a2.295 2.295 0 0 1-.067-.256c-.014-.07-.021-.151-.028-.224 0-.042-.003-.081-.003-.119v-6.059c0-.042.003-.077.003-.119.007-.105.025-.211.049-.312.203-.988 1.065-1.765 2.136-1.888.098-.01.196-.014.294-.014h53.986c0 .004.004.011.004.014.861 3.152 2.874 7.513 7.55 10.71zM765.353 522.155h-1.307v10.731h1.307v-10.731zM760.932 522.155h-1.307v10.731h1.307v-10.731zM755.635 522.155h-1.306v10.731h1.306v-10.731zM747.514 522.155h-1.306v10.731h1.306v-10.731zM738.92 522.155h-1.306v10.731h1.306v-10.731zM725.75 522.155h-1.307v10.731h1.307v-10.731z" fill="#FFA412"/><path d="M713.423 522.155h-1.307v10.731h1.307v-10.731zM702.413 522.155h-1.307v10.731h1.307v-10.731zM769.559 522.155h-1.307v10.731h1.307v-10.731zM772.337 522.155h-1.307v10.731h1.307v-10.731zM775.022 522.155h-1.307v10.731h1.307v-10.731zM777.043 522.194v10.653a3.166 3.166 0 0 1-.49.039h-.817v-10.731h.817c.168.004.329.014.49.039zM778.856 523.189v8.668a2.78 2.78 0 0 1-1.307.876v-10.416c.532.172.988.48 1.307.872z" fill="#FFA412"/><path d="M764.249 513.78v6.059c0 .483-.175.928-.476 1.303-.315.395-.77.703-1.306.875a2.968 2.968 0 0 1-.507.119c-.053.007-.105.014-.161.018h-.011c-.028.003-.052.003-.08.007l-.042.003c-.018 0-.042 0-.063.004H646.597c-1.386 0-2.548-.865-2.751-1.986-.014-.07-.021-.151-.028-.224v-6.301c.003-.073.01-.154.028-.231.203-1.121 1.365-1.986 2.751-1.986h114.869c.053 0 .102 0 .151.004h.014c.045.003.087.003.129.01a3.065 3.065 0 0 1 .903.21.161.161 0 0 1 .042.018h.004c.43.182.798.452 1.064.781.298.385.476.83.476 1.317z" fill="#FFB93E"/><path d="M707.837 522.168H646.3c-1.145 0-2.108-.739-2.391-1.73a2.295 2.295 0 0 1-.067-.256c-.014-.07-.021-.151-.028-.224v-6.301c.004-.073.011-.154.028-.231.014-.088.039-.172.067-.256.283-.994 1.246-1.73 2.391-1.73h53.983c.021.081.045.161.07.249.896 3.127 2.912 7.344 7.463 10.465.007.003.014.01.021.014zM750.271 511.443h-1.307v10.731h1.307v-10.731zM745.855 511.443h-1.307v10.731h1.307v-10.731zM740.555 511.443h-1.306v10.731h1.306v-10.731zM732.432 511.443h-1.307v10.731h1.307v-10.731zM723.838 511.443h-1.306v10.731h1.306v-10.731zM710.67 511.443h-1.307v10.731h1.307v-10.731z" fill="#FFA412"/><path d="M698.342 511.443h-1.306v10.731h1.306v-10.731zM687.331 511.443h-1.307v10.731h1.307v-10.731zM754.478 511.443h-1.307v10.731h1.307v-10.731zM757.259 511.443h-1.307v10.731h1.307v-10.731zM759.944 511.443h-1.307v10.731h1.307v-10.731zM761.961 511.481v10.654a3.166 3.166 0 0 1-.49.039h-.817v-10.731h.817c.168 0 .332.014.49.038zM763.774 512.47v8.668a2.773 2.773 0 0 1-1.307.876v-10.416c.536.172.991.48 1.307.872z" fill="#FFA412"/><path d="M772.695 503.3v6.059c0 .483-.171.928-.476 1.303-.315.395-.77.704-1.302.875a2.99 2.99 0 0 1-.511.119 3.71 3.71 0 0 1-.49.039H655.047c-.448 0-.868-.091-1.243-.249-.78-.333-1.361-.967-1.505-1.723a1.194 1.194 0 0 1-.021-.151c-.003-.031-.007-.063-.007-.094 0-.042-.003-.084-.003-.119V503.3c0-.042.003-.081.003-.119.004-.07.011-.144.021-.21.175-1.037 1.18-1.864 2.426-1.99a3.58 3.58 0 0 1 .332-.014h114.869a3.16 3.16 0 0 1 .491.035c.175.028.346.063.511.119.528.172.983.48 1.302.872.297.375.472.82.472 1.307z" fill="#FFB93E"/><path d="M716.286 511.695h-61.54c-.399 0-.774-.091-1.106-.249-.704-.333-1.215-.967-1.341-1.723a1.194 1.194 0 0 1-.021-.151c-.003-.031-.007-.063-.007-.094 0-.042-.003-.084-.003-.119V503.3c0-.042.003-.081.003-.119.004-.07.011-.144.021-.21.158-1.037 1.054-1.864 2.16-1.99.098-.01.196-.014.294-.014h53.986c0 .004 0 .011.004.014.844 3.079 2.772 7.296 7.2 10.469l.35.245zM758.718 500.959h-1.307v10.731h1.307v-10.731zM754.297 500.959h-1.307v10.731h1.307v-10.731zM749.001 500.959h-1.307v10.731h1.307v-10.731zM740.876 500.959h-1.307v10.731h1.307v-10.731zM732.286 500.959h-1.307v10.731h1.307v-10.731zM719.117 500.959h-1.306v10.731h1.306v-10.731z" fill="#FFA412"/><path d="M706.788 500.959h-1.307v10.731h1.307v-10.731zM695.778 500.959h-1.306v10.731h1.306v-10.731zM762.925 500.959h-1.306v10.731h1.306v-10.731zM765.706 500.959h-1.307v10.731h1.307v-10.731zM768.385 500.959h-1.306v10.731h1.306v-10.731zM770.407 500.998v10.654a3.298 3.298 0 0 1-.491.038h-.816v-10.731h.816c.169 0 .33.014.491.039zM772.221 501.987v8.668a2.795 2.795 0 0 1-1.307.876v-10.416c.536.172.988.48 1.307.872z" fill="#FFA412"/><path d="M776.289 492.581v6.059c0 .479-.175.928-.476 1.302-.08.099-.164.193-.262.277a2.88 2.88 0 0 1-1.547.715c-.056.01-.109.017-.161.021-.021.003-.046.003-.067.003a3.202 3.202 0 0 1-.262.011H658.638c-.102 0-.203-.004-.305-.014-1.253-.116-2.258-.932-2.447-1.976a1.49 1.49 0 0 1-.024-.224v-6.297c.003-.073.01-.154.024-.224.203-1.124 1.365-1.989 2.752-1.989h114.869c.168 0 .332.01.493.038.175.028.347.063.508.119a2.76 2.76 0 0 1 1.305.872c.298.375.476.823.476 1.307z" fill="#FFB93E"/><path d="M719.877 500.972H658.34c-.091 0-.185-.003-.269-.014-1.121-.112-2.02-.932-2.185-1.975a1.505 1.505 0 0 1-.024-.224v-6.298a1.623 1.623 0 0 1 .091-.479c.283-.995 1.246-1.734 2.387-1.734h53.983c.861 3.152 2.864 7.512 7.533 10.71.007.004.014.011.021.014zM762.308 490.245h-1.307v10.731h1.307v-10.731zM757.887 490.245h-1.307v10.731h1.307v-10.731zM752.59 490.245h-1.306v10.731h1.306v-10.731zM744.469 490.245h-1.306v10.731h1.306v-10.731zM735.876 490.245h-1.307v10.731h1.307v-10.731zM722.707 490.245H721.4v10.731h1.307v-10.731z" fill="#FFA412"/><path d="M710.378 490.245h-1.307v10.731h1.307v-10.731zM699.368 490.245h-1.306v10.731h1.306v-10.731zM766.516 490.245h-1.307v10.731h1.307v-10.731zM769.296 490.245h-1.307v10.731h1.307v-10.731zM771.977 490.245h-1.307v10.731h1.307v-10.731zM773.998 490.283v10.654a3.166 3.166 0 0 1-.49.039h-.817v-10.731h.817c.168 0 .333.014.49.038zM775.811 491.279v8.668c-.316.392-.771.7-1.307.875v-10.416c.536.169.991.48 1.307.873z" fill="#FFA412"/><path d="M643.484 607.713c31.644 0 57.298-25.667 57.298-57.329s-25.654-57.329-57.298-57.329c-31.645 0-57.298 25.667-57.298 57.329s25.653 57.329 57.298 57.329z" fill="#E2810E"/><path opacity=".5" d="M710.669 559.372c0 1.8-.067 3.583-.203 5.348v.014a71.09 71.09 0 0 1-.372 3.583 66.65 66.65 0 0 1-1.309 7.127 65.505 65.505 0 0 1-3.43 10.465c-.035.087-.07.175-.112.263a63.764 63.764 0 0 1-2.629 5.435 63.594 63.594 0 0 1-3.035 5.033c-.066.105-.14.207-.21.312-.42.627-.857 1.243-1.305 1.852a60.771 60.771 0 0 1-7.561 8.56h-32.165c-1.145 0-2.104-.739-2.388-1.73a1.737 1.737 0 0 1-.091-.487v-6.301a1.65 1.65 0 0 1 .091-.479c.284-.995 1.246-1.731 2.388-1.731h-12.28c-1.144 0-2.107-.742-2.391-1.737a2.03 2.03 0 0 1-.066-.255c-.014-.074-.021-.151-.028-.225 0-.042-.004-.084-.004-.119v-6.059c0-.042.004-.084.004-.119.003-.073.01-.154.028-.224a1.62 1.62 0 0 1 .066-.255c.284-.995 1.247-1.734 2.388-1.734h4.788c-.724-.357-1.242-1.047-1.323-1.846a.506.506 0 0 1-.01-.105c0-.038-.004-.08-.004-.119v-6.059c0-.038.004-.08.004-.119.003-.073.01-.151.028-.224.014-.088.038-.172.066-.256.284-.994 1.246-1.737 2.384-1.737h2.751c-1.141 0-2.1-.739-2.384-1.73a2.002 2.002 0 0 1-.066-.256c-.014-.07-.021-.15-.028-.224 0-.042-.004-.084-.004-.119v-6.059c0-.042.004-.084.004-.119.003-.07.01-.144.021-.21.157-1.037 1.054-1.863 2.16-1.989h-8.149c-1.145 0-2.108-.739-2.391-1.73a2.295 2.295 0 0 1-.067-.256c-.014-.074-.021-.154-.028-.231v-6.301a.753.753 0 0 0 .007-.098c.102-1.009.897-1.839 1.929-2.056-1.113-.129-2.002-.959-2.153-1.996a2.26 2.26 0 0 1-.021-.2c0-.042-.003-.08-.003-.119v-6.059c0-.042.003-.08.003-.119.004-.073.011-.154.028-.224.014-.088.039-.172.067-.256.283-.994 1.246-1.733 2.387-1.733h4.789c-.725-.358-1.243-1.047-1.323-1.846a.512.512 0 0 1-.011-.105c0-.039-.003-.081-.003-.116v-6.059c0-.042.003-.084.003-.119.004-.073.011-.154.028-.224.014-.087.039-.171.067-.255.283-.995 1.246-1.734 2.383-1.734h9.388c-1.141 0-2.1-.739-2.383-1.734a2.223 2.223 0 0 1-.067-.255c-.014-.07-.021-.151-.028-.225 0-.042-.003-.08-.003-.119v-6.059c0-.042.003-.077.003-.119a1.9 1.9 0 0 1 .049-.311c.203-.988 1.064-1.765 2.135-1.888h-14.785c-1.145 0-2.108-.739-2.391-1.73a2.186 2.186 0 0 1-.067-.256c-.014-.07-.021-.15-.028-.224v-6.301c.004-.073.011-.154.028-.231.014-.087.039-.171.067-.255.283-.995 1.246-1.731 2.391-1.731h7.337c-.704-.332-1.215-.966-1.341-1.723a.919.919 0 0 1-.021-.15.759.759 0 0 1-.007-.095c0-.042-.004-.084-.004-.119v-6.059c0-.042.004-.08.004-.119a1.8 1.8 0 0 1 .021-.21c.157-1.037 1.054-1.863 2.16-1.989a2.63 2.63 0 0 1 .294-.014h3.325c-1.12-.112-2.02-.932-2.184-1.976a1.633 1.633 0 0 1-.025-.224v-2.357c6.725.315 13.144 1.909 19.074 4.56.01.004.021.007.035.014 5.727 2.56 10.988 6.115 15.615 10.468l.266.249a61.338 61.338 0 0 1 6.185 6.865 60.993 60.993 0 0 1 2.598 3.61c.504.76.997 1.534 1.473 2.326a64.033 64.033 0 0 1 4.274 8.388 66.104 66.104 0 0 1 3.42 10.465l.063.262c.091.379.172.76.256 1.142.619 2.862 1.06 5.8 1.309 8.798.011.15.028.301.039.452 0 .028.003.049.003.073.14 1.727.207 3.492.207 5.271z" fill="#E2810E"/><path d="M638.484 607.713c31.645 0 57.298-25.667 57.298-57.329s-25.653-57.329-57.298-57.329c-31.645 0-57.298 25.667-57.298 57.329s25.653 57.329 57.298 57.329z" fill="#FFB93E"/><path d="M638.483 603.301c-13.945 0-27.054-5.432-36.915-15.298s-15.29-22.982-15.29-36.935c0-13.953 5.429-27.069 15.29-36.935 9.861-9.866 22.97-15.298 36.915-15.298 13.946 0 27.055 5.432 36.915 15.298 9.861 9.866 15.29 22.982 15.29 36.935 0 13.953-5.429 27.069-15.29 36.935-9.86 9.866-22.969 15.298-36.915 15.298zm0-101.352c-27.068 0-49.089 22.033-49.089 49.116s22.021 49.116 49.089 49.116c27.069 0 49.09-22.033 49.09-49.116.003-27.08-22.021-49.116-49.09-49.116z" fill="#FFA412"/><path d="M645.672 566.223c.133-1.128.091-2.137-.123-3.033-.217-.897-.644-1.738-1.281-2.519-.64-.784-1.494-1.537-2.562-2.262-1.071-.725-2.394-1.467-3.973-2.224-2.709-1.327-5.156-2.672-7.333-4.031-2.181-1.362-4.008-2.847-5.485-4.465-1.478-1.619-2.556-3.433-3.238-5.443-.683-2.014-.868-4.332-.557-6.963.27-2.28.921-4.311 1.953-6.09a14.557 14.557 0 0 1 4.047-4.497c1.666-1.215 3.595-2.136 5.793-2.76 2.195-.623 4.607-.9 7.232-.833l1.022-8.609 6.927.823-1.036 8.731c2.443.617 4.617 1.541 6.518 2.774 1.901 1.233 3.465 2.725 4.694 4.473 1.225 1.751 2.093 3.751 2.601 5.999.507 2.248.605 4.718.287 7.397l-12.511-1.485c.382-3.219-.045-5.709-1.284-7.478-1.239-1.765-3.056-2.791-5.45-3.075-1.299-.154-2.44-.105-3.42.148-.98.248-1.814.654-2.493 1.211a5.946 5.946 0 0 0-1.606 2.074c-.392.823-.644 1.733-.763 2.724-.119.992-.081 1.909.112 2.746.192.841.602 1.643 1.228 2.41.627.767 1.488 1.523 2.584 2.266 1.095.742 2.474 1.537 4.127 2.388 2.674 1.38 5.093 2.753 7.259 4.126 2.164 1.373 3.984 2.872 5.457 4.504 1.474 1.632 2.552 3.453 3.238 5.464.683 2.013.872 4.318.56 6.92-.28 2.361-.941 4.43-1.988 6.21a14.406 14.406 0 0 1-4.06 4.454c-1.663 1.191-3.606 2.074-5.825 2.655-2.219.578-4.641.834-7.267.771l-.948 8.006-6.882-.816.945-7.968a29.35 29.35 0 0 1-6.763-2.392c-2.142-1.072-3.987-2.465-5.537-4.185-1.551-1.72-2.71-3.797-3.476-6.227-.767-2.431-.959-5.254-.574-8.472l12.51 1.485c-.228 1.905-.147 3.527.235 4.861.381 1.338.976 2.441 1.778 3.313a7.823 7.823 0 0 0 2.86 1.972c1.102.445 2.247.735 3.43.875 1.355.162 2.566.13 3.633-.098 1.064-.227 1.982-.609 2.748-1.141a5.934 5.934 0 0 0 1.817-2.007 7.44 7.44 0 0 0 .84-2.707z" fill="#FFA412"/><path d="M746.654 428.418s-6.087 8.573-11.667 8.692c-5.579.12-14.071-3.975-14.071-3.975s-5.121-11.421-1.649-15.893c0 0 3.486-1.53 7.13 1.173.627.466 1.26 1.055 1.887 1.808.886 1.064 1.876 1.67 2.93 1.985 3.983 1.212 8.709-1.639 10.477 1.114a18.723 18.723 0 0 0 3.076 3.646c1.093.974 1.887 1.45 1.887 1.45zM667.3 490.263s21.514-52.156 60.239-53.151c0 0 35.746 3.975 37.73 53.151H667.3z" fill="#FFEDDC"/><path d="M716.934 438.701s15.521 3.453 20.313 1.426c0 0 .724-6.494-5.815-5.583-4.473.623-7.389-1.527-9.101-2.403-2.429-1.236-6.045 3.846-5.397 6.56z" fill="#DB6A1D"/><path d="M730.442 428.916c-.994.746-4.043-10.499-4.043-10.499a10.906 10.906 0 0 1 1.887 1.807c.886 1.064 1.876 1.67 2.93 1.985.01.33.189 5.982-.774 6.707zM744.768 426.971c-.217.13-7.397 4.43-8.37 4.43-.994 0 5.293-8.076 5.293-8.076a18.55 18.55 0 0 0 3.077 3.646z" fill="#E5C1A1"/><path d="M688.32 475.691c-.4-.34 15.226-23.017 19.528-23.182 4.302-.164 13.97 4.966 20.971 5.628 6.997.662 13.785-1.323 15.108 2.816 1.323 4.14 4.963 18.814 2.73 21.165-2.237 2.35-49.748.917-58.337-6.427z" fill="#F9DDBF"/><g filter="url(#d)"><rect x="35.267" y="478.854" width="126.953" height="127.059" rx="10" fill="#1EA213"/></g><path d="M138.263 528.494c.544 1.336.082 2.843-1.038 3.822l-7.132 6.123c.181 1.289.28 2.61.28 3.946 0 1.337-.099 2.658-.28 3.947l7.132 6.123c1.12.979 1.582 2.486 1.038 3.822a38.394 38.394 0 0 1-2.586 5.33l-.774 1.259a41.236 41.236 0 0 1-3.641 4.864c-.988 1.103-2.586 1.491-4.036 1.056l-9.175-2.766c-2.207 1.601-4.793 2.937-7.248 3.963l-2.059 8.873c-.329 1.398-1.483 2.393-2.998 2.766a45.614 45.614 0 0 1-7.15.544c-2.24 0-4.579-.187-6.852-.544-1.515-.373-2.668-1.368-2.998-2.766l-2.059-8.873a32.894 32.894 0 0 1-7.248-3.963l-9.168 2.766c-1.457.435-3.063.047-4.038-1.056a40.94 40.94 0 0 1-3.642-4.864l-.77-1.259c-1-1.693-1.87-3.48-2.6-5.33-.534-1.336-.084-2.843 1.046-3.822l7.126-6.123a28.378 28.378 0 0 1 0-7.893l-7.126-6.123c-1.13-.979-1.58-2.471-1.046-3.822a37.841 37.841 0 0 1 2.6-5.33l.768-1.259a40.408 40.408 0 0 1 3.644-4.856c.975-1.111 2.581-1.496 4.038-1.058l9.168 2.76a32.152 32.152 0 0 1 7.248-3.958l2.06-8.873a3.643 3.643 0 0 1 2.997-2.769 44.866 44.866 0 0 1 7.001-.546c2.389 0 4.728.187 7.001.546a3.644 3.644 0 0 1 2.998 2.769l2.059 8.873c2.455 1.014 5.041 2.351 7.248 3.958l9.175-2.76c1.45-.438 3.048-.053 4.036 1.058a40.502 40.502 0 0 1 3.641 4.856l.774 1.259a38.394 38.394 0 0 1 2.586 5.33zm-39.518 26.323c7.281 0 13.178-5.563 13.178-12.571 0-6.729-5.897-12.432-13.178-12.432-7.28 0-13.178 5.703-13.178 12.432 0 7.008 5.897 12.571 13.178 12.571z" stroke="#fff" stroke-width="5"/></g><defs><filter id="b" x="607.963" y="62.947" width="166.953" height="167.059" filterUnits="userSpaceOnUse" color-interpolation-filters="sRGB"><feFlood flood-opacity="0" result="BackgroundImageFix"/><feColorMatrix in="SourceAlpha" values="0 0 0 0 0 0 0 0 0 0 0 0 0 0 0 0 0 0 127 0" result="hardAlpha"/><feOffset dx="10" dy="10"/><feGaussianBlur stdDeviation="10"/><feComposite in2="hardAlpha" operator="out"/><feColorMatrix values="0 0 0 0 0 0 0 0 0 0 0 0 0 0 0 0 0 0 0.25 0"/><feBlend in2="BackgroundImageFix" result="effect1_dropShadow_4510_31133"/><feBlend in="SourceGraphic" in2="effect1_dropShadow_4510_31133" result="shape"/></filter><filter id="c" x="205.75" y="144.378" width="161.021" height="161.121" filterUnits="userSpaceOnUse" color-interpolation-filters="sRGB"><feFlood flood-opacity="0" result="BackgroundImageFix"/><feColorMatrix in="SourceAlpha" values="0 0 0 0 0 0 0 0 0 0 0 0 0 0 0 0 0 0 127 0" result="hardAlpha"/><feOffset dx="10" dy="10"/><feGaussianBlur stdDeviation="10"/><feComposite in2="hardAlpha" operator="out"/><feColorMatrix values="0 0 0 0 0 0 0 0 0 0 0 0 0 0 0 0 0 0 0.25 0"/><feBlend in2="BackgroundImageFix" result="effect1_dropShadow_4510_31133"/><feBlend in="SourceGraphic" in2="effect1_dropShadow_4510_31133" result="shape"/></filter><filter id="d" x="25.267" y="468.854" width="166.953" height="167.059" filterUnits="userSpaceOnUse" color-interpolation-filters="sRGB"><feFlood flood-opacity="0" result="BackgroundImageFix"/><feColorMatrix in="SourceAlpha" values="0 0 0 0 0 0 0 0 0 0 0 0 0 0 0 0 0 0 127 0" result="hardAlpha"/><feOffset dx="10" dy="10"/><feGaussianBlur stdDeviation="10"/><feComposite in2="hardAlpha" operator="out"/><feColorMatrix values="0 0 0 0 0 0 0 0 0 0 0 0 0 0 0 0 0 0 0.25 0"/><feBlend in2="BackgroundImageFix" result="effect1_dropShadow_4510_31133"/><feBlend in="SourceGraphic" in2="effect1_dropShadow_4510_31133" result="shape"/></filter></defs></svg>