<svg width="14" height="10" viewBox="0 0 14 10" fill="none" xmlns="http://www.w3.org/2000/svg">
<path d="M13.2497 8.33333H1.99967V0.416667C1.99967 0.186458 1.81322 0 1.58301 0H0.749674C0.519466 0 0.333008 0.186458 0.333008 0.416667V9.16667C0.333008 9.62682 0.706185 10 1.16634 10H13.2497C13.4799 10 13.6663 9.81354 13.6663 9.58333V8.75C13.6663 8.51979 13.4799 8.33333 13.2497 8.33333ZM12.4163 0.833333H9.34186C8.78509 0.833333 8.50619 1.50651 8.89994 1.90026L9.74368 2.74401L7.83301 4.65495L5.92233 2.74427C5.59681 2.41875 5.06921 2.41875 4.74395 2.74427L2.95514 4.53307C2.79238 4.69583 2.79238 4.95964 2.95514 5.1224L3.54421 5.71146C3.70697 5.87422 3.97077 5.87422 4.13353 5.71146L5.33301 4.51172L7.24369 6.4224C7.56921 6.74792 8.09681 6.74792 8.42207 6.4224L10.9221 3.9224L11.7658 4.76615C12.1596 5.1599 12.8327 4.88099 12.8327 4.32422V1.25C12.833 1.01979 12.6466 0.833333 12.4163 0.833333Z" fill="#99D98C"/>
</svg>
