<svg width="85" height="85" viewBox="0 0 85 85" fill="none" xmlns="http://www.w3.org/2000/svg">
<path d="M42.5 85C65.9721 85 85 65.9721 85 42.5C85 19.0279 65.9721 0 42.5 0C19.0279 0 0 19.0279 0 42.5C0 65.9721 19.0279 85 42.5 85Z" fill="white"/>
<g filter="url(#filter0_i_1580_10783)">
<path d="M42.5528 78.6223C62.4735 78.6223 78.6223 62.4735 78.6223 42.5528C78.6223 22.6322 62.4735 6.4834 42.5528 6.4834C22.6322 6.4834 6.4834 22.6322 6.4834 42.5528C6.4834 62.4735 22.6322 78.6223 42.5528 78.6223Z" fill="#36287D"/>
</g>
<path d="M12.7482 45.801C12.7482 28.216 27.0028 13.9615 44.5877 13.9615C54.8667 13.9615 64.0052 18.8326 69.8267 26.3915C64.3291 16.8461 54.0247 10.4209 42.2184 10.4209C24.6335 10.4209 10.3789 24.6755 10.3789 42.2604C10.3789 49.5664 12.8419 56.2968 16.9795 61.6699C14.2889 56.9982 12.7482 51.5783 12.7482 45.801Z" fill="#271D5A"/>
<g filter="url(#filter1_d_1580_10783)">
<path d="M24.1128 42.9319C24.1128 39.1862 24.9232 35.8546 26.5439 32.9372C28.1647 29.9838 30.4158 27.6968 33.2971 26.076C36.2145 24.4192 39.51 23.5908 43.1838 23.5908C47.6859 23.5908 51.5397 24.7794 54.7452 27.1565C57.9507 29.5336 60.0937 32.7751 61.1742 36.8811H51.0175C50.2611 35.2963 49.1806 34.0898 47.7759 33.2614C46.4073 32.433 44.8406 32.0188 43.0757 32.0188C40.2304 32.0188 37.9253 33.0093 36.1605 34.9902C34.3956 36.9711 33.5132 39.6184 33.5132 42.9319C33.5132 46.2455 34.3956 48.8927 36.1605 50.8737C37.9253 52.8546 40.2304 53.8451 43.0757 53.8451C44.8406 53.8451 46.4073 53.4309 47.7759 52.6025C49.1806 51.7741 50.2611 50.5675 51.0175 48.9828H61.1742C60.0937 53.0887 57.9507 56.3302 54.7452 58.7073C51.5397 61.0485 47.6859 62.219 43.1838 62.219C39.51 62.219 36.2145 61.4086 33.2971 59.7879C30.4158 58.1311 28.1647 55.844 26.5439 52.9266C24.9232 50.0093 24.1128 46.6777 24.1128 42.9319Z" fill="white"/>
</g>
<defs>
<filter id="filter0_i_1580_10783" x="6.4834" y="6.4834" width="72.1387" height="74.1387" filterUnits="userSpaceOnUse" color-interpolation-filters="sRGB">
<feFlood flood-opacity="0" result="BackgroundImageFix"/>
<feBlend mode="normal" in="SourceGraphic" in2="BackgroundImageFix" result="shape"/>
<feColorMatrix in="SourceAlpha" type="matrix" values="0 0 0 0 0 0 0 0 0 0 0 0 0 0 0 0 0 0 127 0" result="hardAlpha"/>
<feOffset dy="2"/>
<feGaussianBlur stdDeviation="2"/>
<feComposite in2="hardAlpha" operator="arithmetic" k2="-1" k3="1"/>
<feColorMatrix type="matrix" values="0 0 0 0 0 0 0 0 0 0 0 0 0 0 0 0 0 0 0.2 0"/>
<feBlend mode="normal" in2="shape" result="effect1_innerShadow_1580_10783"/>
</filter>
<filter id="filter1_d_1580_10783" x="22.1128" y="21.5908" width="45.0615" height="46.6279" filterUnits="userSpaceOnUse" color-interpolation-filters="sRGB">
<feFlood flood-opacity="0" result="BackgroundImageFix"/>
<feColorMatrix in="SourceAlpha" type="matrix" values="0 0 0 0 0 0 0 0 0 0 0 0 0 0 0 0 0 0 127 0" result="hardAlpha"/>
<feOffset dx="2" dy="2"/>
<feGaussianBlur stdDeviation="2"/>
<feComposite in2="hardAlpha" operator="out"/>
<feColorMatrix type="matrix" values="0 0 0 0 0 0 0 0 0 0 0 0 0 0 0 0 0 0 0.15 0"/>
<feBlend mode="normal" in2="BackgroundImageFix" result="effect1_dropShadow_1580_10783"/>
<feBlend mode="normal" in="SourceGraphic" in2="effect1_dropShadow_1580_10783" result="shape"/>
</filter>
</defs>
</svg>
