<svg width="730" height="241" viewBox="0 0 730 241" fill="none" xmlns="http://www.w3.org/2000/svg">
<path d="M82.044 154.152C82.876 154.152 83.292 154.776 83.292 156.024C83.292 157.584 80.848 159.976 75.96 163.2C71.176 166.424 64.936 169.388 57.24 172.092C49.648 174.9 42.68 176.304 36.336 176.304C20.112 176.304 12 167.308 12 149.316C12 140.164 14.028 130.96 18.084 121.704C22.244 112.448 27.548 104.232 33.996 97.056C40.548 89.776 47.62 83.276 55.212 77.556C62.908 71.836 70.5 67.468 77.988 64.452C85.58 61.332 92.236 59.772 97.956 59.772C109.812 59.772 115.74 64.348 115.74 73.5C115.74 80.364 112.568 88.528 106.224 97.992C99.88 107.456 92.132 115.672 82.98 122.64C73.828 129.608 65.612 133.092 58.332 133.092C52.716 133.092 49.908 130.44 49.908 125.136C49.908 118.376 54.276 110.056 63.012 100.176C71.852 90.192 79.392 85.2 85.632 85.2C86.464 85.2 86.88 85.512 86.88 86.136L86.1 88.164C82.356 88.164 77.936 90.296 72.84 94.56C67.744 98.824 63.428 103.764 59.892 109.38C56.356 114.996 54.588 119.676 54.588 123.42C54.588 127.58 56.72 129.66 60.984 129.66C66.288 129.66 72.788 126.436 80.484 119.988C88.284 113.54 94.992 105.948 100.608 97.212C106.328 88.372 109.188 80.936 109.188 74.904C109.188 67.312 104.404 63.516 94.836 63.516C89.844 63.516 83.968 64.972 77.208 67.884C70.448 70.692 63.636 74.8 56.772 80.208C49.908 85.616 43.512 91.7 37.584 98.46C31.76 105.22 26.976 112.968 23.232 121.704C19.592 130.336 17.772 138.968 17.772 147.6C17.772 164.032 25.052 172.248 39.612 172.248C47.204 172.248 55.42 170.22 64.26 166.164C73.1 162.004 79.028 158 82.044 154.152ZM121.042 160.08C117.818 162.056 114.074 163.044 109.81 163.044H107.938C105.13 166.268 102.114 168.92 98.8896 171C95.7696 172.976 93.0656 173.964 90.7776 173.964C87.5536 173.964 85.9416 171.884 85.9416 167.724C85.9416 163.564 88.1776 158.728 92.6496 153.216C92.2336 152.072 92.0256 150.668 92.0256 149.004C92.0256 145.364 93.5856 142.244 96.7056 139.644C99.9296 136.94 103.05 135.588 106.066 135.588C112.41 135.588 115.582 139.02 115.582 145.884C115.582 150.46 113.606 155.452 109.654 160.86H111.526C114.854 160.86 117.714 160.08 120.106 158.52C120.418 158.208 120.834 158.052 121.354 158.052C121.874 158.052 122.134 158.26 122.134 158.676C122.134 158.988 121.77 159.456 121.042 160.08ZM106.066 142.14C106.586 141.932 107.002 141.828 107.314 141.828C107.626 141.828 107.782 142.088 107.782 142.608C107.782 143.024 107.21 143.648 106.066 144.48C101.906 147.704 98.7856 150.616 96.7056 153.216C98.9936 156.856 102.478 159.248 107.158 160.392C111.214 155.608 113.242 151.136 113.242 146.976C113.242 144.584 112.462 142.764 110.902 141.516C109.342 140.268 107.314 139.644 104.818 139.644C102.426 139.644 100.19 140.372 98.1096 141.828C96.0296 143.18 94.9896 144.688 94.9896 146.352C94.9896 147.912 95.1456 149.16 95.4576 150.096C98.6816 146.768 102.218 144.116 106.066 142.14ZM94.5216 156.648C92.8576 159.456 92.0256 162.576 92.0256 166.008C92.0256 167.88 92.8576 168.816 94.5216 168.816C97.3296 168.816 100.814 166.736 104.974 162.576C100.294 161.744 96.8096 159.768 94.5216 156.648ZM122.138 159.144C124.114 158 126.714 156.18 129.938 153.684C137.842 147.444 142.054 144.324 142.574 144.324C144.134 144.324 144.914 145 144.914 146.352C144.914 147.704 144.082 149.784 142.418 152.592C140.858 155.4 139.038 158.312 136.958 161.328C134.982 164.344 133.838 166.164 133.526 166.788C133.63 166.892 133.838 166.944 134.15 166.944C134.566 166.944 136.646 165.592 140.39 162.888C144.134 160.08 148.034 157.168 152.09 154.152C156.146 151.032 158.538 149.264 159.266 148.848C159.994 148.328 160.67 148.068 161.294 148.068C162.542 148.172 163.166 148.9 163.166 150.252C163.166 150.772 161.398 153.424 157.862 158.208C154.326 162.888 152.558 165.904 152.558 167.256C152.558 168.192 153.65 168.66 155.834 168.66C158.122 168.66 161.45 167.672 165.818 165.696C170.186 163.616 174.034 161.536 177.362 159.456L182.354 156.336C182.458 156.544 182.51 156.96 182.51 157.584C182.51 158.208 182.042 158.728 181.106 159.144C167.066 168.712 157.29 173.496 151.778 173.496C148.554 173.496 146.942 172.248 146.942 169.752C146.942 167.36 147.618 165.072 148.97 162.888C150.426 160.704 151.674 158.884 152.714 157.428C153.754 155.868 154.274 155.036 154.274 154.932C149.49 158.364 143.822 162.472 137.27 167.256C130.718 172.04 127.026 174.432 126.194 174.432C125.57 174.432 125.258 173.704 125.258 172.248C125.258 170.792 127.286 166.996 131.342 160.86C135.502 154.724 137.582 151.448 137.582 151.032C137.582 150.616 137.478 150.408 137.27 150.408L135.71 151.188L127.91 157.428C127.39 157.844 126.402 158.52 124.946 159.456C123.49 160.392 122.554 160.86 122.138 160.86C121.826 160.86 121.67 160.652 121.67 160.236C121.67 159.716 121.826 159.352 122.138 159.144ZM220.64 139.8C220.64 141.88 219.288 144.116 216.584 146.508C213.88 148.9 211.904 150.096 210.656 150.096C209.512 150.096 208.94 149.784 208.94 149.16L210.032 147.756C212.632 145.364 213.932 143.596 213.932 142.452C213.932 140.996 213.152 140.268 211.592 140.268C207.848 140.372 202.648 143.7 195.992 150.252C189.336 156.804 186.008 161.64 186.008 164.76C186.008 166.112 186.736 166.788 188.192 166.788C189.752 166.788 191.884 166.112 194.588 164.76C197.292 163.304 199.632 161.848 201.608 160.392L204.728 158.208C205.04 158 205.612 157.376 206.444 156.336C208.732 153.528 210.24 152.124 210.968 152.124C212.632 152.332 213.464 153.06 213.464 154.308C210.76 158.26 205.716 166.424 198.332 178.8C200.516 178.488 202.648 178.332 204.728 178.332C209.72 178.332 212.216 179.632 212.216 182.232C212.216 183.688 211.228 185.508 209.252 187.692C207.38 189.98 205.924 191.124 204.884 191.124C203.844 191.124 203.324 190.76 203.324 190.032C203.324 189.616 203.896 188.94 205.04 188.004C206.184 187.172 206.756 186.132 206.756 184.884C206.756 183.22 205.664 182.388 203.48 182.388C201.296 182.388 198.748 182.648 195.836 183.168C191.26 191.072 187.62 197.208 184.916 201.576C182.316 206.048 179.04 211.04 175.088 216.552C167.6 227.056 160.996 232.308 155.276 232.308C151.74 232.308 149.972 230.488 149.972 226.848C149.972 220.4 154.392 211.976 163.232 201.576C171.968 191.176 181.692 184.156 192.404 180.516L201.14 163.98C199.892 164.812 197.76 165.956 194.744 167.412C188.92 170.22 184.864 171.624 182.576 171.624C179.768 171.624 178.364 170.168 178.364 167.256C178.364 164.344 180.6 160.392 185.072 155.4C189.544 150.408 194.848 145.988 200.984 142.14C207.12 138.188 212.216 136.212 216.272 136.212C217.52 136.212 218.508 136.524 219.236 137.148C219.964 137.668 220.432 138.552 220.64 139.8ZM155.276 224.508C155.276 226.692 156.108 227.784 157.772 227.784C163.076 227.784 173.788 213.484 189.908 184.884C180.444 188.42 172.332 194.608 165.572 203.448C158.708 212.288 155.276 219.308 155.276 224.508ZM224.838 160.548C224.422 160.756 224.058 160.86 223.746 160.86C223.33 160.86 223.122 160.652 223.122 160.236C223.122 159.82 223.278 159.456 223.59 159.144C227.854 156.752 232.534 152.852 237.63 147.444C232.95 145.988 230.61 143.96 230.61 141.36C230.61 138.656 232.378 135.692 235.914 132.468C239.45 129.14 242.778 127.476 245.898 127.476C247.978 127.476 249.018 128.724 249.018 131.22C249.018 135.068 247.094 139.176 243.246 143.544C248.238 144.376 250.734 145.572 250.734 147.132C250.734 149.212 249.798 150.824 247.926 151.968C246.158 153.008 244.078 154.932 241.686 157.74C239.294 160.548 238.098 163.356 238.098 166.164C238.098 166.788 238.306 167.36 238.722 167.88C239.138 168.4 240.022 168.66 241.374 168.66C242.726 168.66 245.586 167.672 249.954 165.696C254.322 163.616 258.17 161.536 261.498 159.456L266.49 156.336C266.594 156.544 266.646 156.96 266.646 157.584C266.646 158.208 266.178 158.728 265.242 159.144C251.202 168.712 241.426 173.496 235.914 173.496C233.21 173.496 231.858 172.144 231.858 169.44C231.858 167.256 232.586 164.968 234.042 162.576C235.602 160.184 237.266 158.208 239.034 156.648C240.906 155.088 242.57 153.632 244.026 152.28C245.586 150.824 246.366 149.888 246.366 149.472C246.366 149.056 245.69 148.796 244.338 148.692C243.09 148.588 241.426 148.328 239.346 147.912C233.626 154.048 228.79 158.26 224.838 160.548ZM234.51 138.864C234.51 140.944 236.798 142.4 241.374 143.232C244.078 139.904 245.43 137.044 245.43 134.652C245.43 132.156 244.65 130.908 243.09 130.908C241.53 130.908 239.71 131.844 237.63 133.716C235.55 135.484 234.51 137.2 234.51 138.864ZM294.588 152.436C293.964 152.436 293.652 152.072 293.652 151.344L294.12 150.252C295.992 148.484 296.928 146.976 296.928 145.728C296.928 144.168 296.096 143.388 294.432 143.388C290.792 143.388 285.852 145.936 279.612 151.032C273.476 156.024 270.408 160.496 270.408 164.448C270.408 166.112 271.5 166.944 273.684 166.944C275.868 166.944 278.364 166.06 281.172 164.292C284.084 162.42 286.528 160.6 288.504 158.832C290.584 156.96 291.728 156.024 291.936 156.024C292.976 156.128 293.496 156.648 293.496 157.584C293.496 158 292.664 159.352 291 161.64C289.44 163.928 288.66 165.748 288.66 167.1C288.66 168.14 289.492 168.66 291.156 168.66C292.924 168.66 295.992 167.672 300.36 165.696C304.728 163.616 308.576 161.536 311.904 159.456L316.896 156.336C317 156.544 317.052 156.96 317.052 157.584C317.052 158.208 316.584 158.728 315.648 159.144C301.608 168.712 291.832 173.496 286.32 173.496C283.616 173.496 282.264 172.144 282.264 169.44C282.264 168.296 282.472 167.1 282.888 165.852C282.16 166.684 279.976 167.984 276.336 169.752C272.8 171.416 269.628 172.248 266.82 172.248C264.012 172.248 262.608 170.948 262.608 168.348C262.608 162.212 266.872 155.972 275.4 149.628C283.928 143.18 291.104 139.956 296.928 139.956C300.36 139.956 302.076 141.412 302.076 144.324C302.076 145.988 301.036 147.756 298.956 149.628C296.876 151.5 295.42 152.436 294.588 152.436ZM318.882 119.52C325.954 119.52 332.922 119.468 339.786 119.364C350.914 105.116 358.506 97.992 362.562 97.992C364.018 97.992 364.746 98.772 364.746 100.332C364.746 105.324 361.106 111.564 353.826 119.052L365.682 118.896C373.586 118.584 378.422 118.428 380.19 118.428C381.958 118.428 382.842 118.636 382.842 119.052C382.842 121.028 381.49 122.068 378.786 122.172L349.458 123.42C344.362 128.204 338.07 133.248 330.582 138.552C322.678 151.552 318.726 160.392 318.726 165.072C318.726 167.464 320.234 168.66 323.25 168.66C326.37 168.66 331.258 166.996 337.914 163.668L350.55 156.336C350.654 156.544 350.706 156.96 350.706 157.584C350.706 158.208 350.238 158.728 349.302 159.144C345.974 161.432 342.334 163.72 338.382 166.008C329.958 170.272 323.51 172.404 319.038 172.404C316.958 172.404 315.346 171.988 314.202 171.156C313.058 170.324 312.434 169.492 312.33 168.66L312.018 167.412C312.018 163.876 314.41 157.948 319.194 149.628C323.978 141.204 329.646 132.624 336.198 123.888C331.206 124.096 326.474 124.2 322.002 124.2C317.53 124.2 315.294 123.68 315.294 122.64C315.294 120.664 316.49 119.624 318.882 119.52ZM359.91 103.608C359.91 103.088 359.702 102.828 359.286 102.828C356.894 102.828 351.59 108.288 343.374 119.208H351.174C356.998 112.864 359.91 107.664 359.91 103.608ZM346.806 123.576C343.478 123.576 341.242 123.628 340.098 123.732C339.162 125.084 337.862 127.06 336.198 129.66C334.534 132.26 333.39 134.028 332.766 134.964C338.174 131.012 342.854 127.216 346.806 123.576ZM368.387 169.44C368.387 168.296 369.219 166.372 370.883 163.668C372.651 160.964 373.795 159.248 374.315 158.52C374.939 157.792 375.823 156.648 376.967 155.088C364.591 166.32 356.063 171.936 351.383 171.936C348.783 171.936 347.483 170.844 347.483 168.66C347.483 165.54 352.735 156.752 363.239 142.296C363.759 141.464 364.435 141.048 365.267 141.048C367.659 141.776 368.855 142.296 368.855 142.608C368.855 142.92 368.543 143.544 367.919 144.48C358.975 156.544 354.503 163.356 354.503 164.916C354.503 166.372 355.023 167.1 356.063 167.1C358.975 167.1 364.123 163.772 371.507 157.116C378.995 150.356 384.403 144.792 387.731 140.424C388.147 139.696 388.823 139.332 389.759 139.332C391.839 139.748 392.879 140.164 392.879 140.58C391.735 142.244 390.175 144.428 388.199 147.132C386.223 149.836 384.611 152.072 383.363 153.84C382.115 155.504 380.815 157.324 379.463 159.3C376.863 162.836 375.303 165.436 374.783 167.1C374.783 168.14 375.615 168.66 377.279 168.66C379.047 168.66 382.115 167.672 386.483 165.696C390.851 163.616 394.699 161.536 398.027 159.456L403.019 156.336C403.123 156.544 403.175 156.96 403.175 157.584C403.175 158.208 402.707 158.728 401.771 159.144C387.731 168.712 377.955 173.496 372.443 173.496C369.739 173.496 368.387 172.144 368.387 169.44ZM405.883 173.496C401.203 173.496 398.863 170.948 398.863 165.852C398.863 159.092 402.503 149.42 409.783 136.836C417.167 124.148 425.539 112.812 434.899 102.828C444.363 92.74 451.799 87.696 457.207 87.696C459.183 87.696 460.171 89.1 460.171 91.908C460.171 96.276 456.479 103.4 449.095 113.28C441.815 123.16 433.963 132.416 425.539 141.048C417.115 149.68 410.615 155.608 406.039 158.832C405.831 160.496 405.727 161.64 405.727 162.264C405.727 162.784 405.779 163.408 405.883 164.136C405.987 164.864 406.403 165.8 407.131 166.944C407.859 168.088 409.055 168.66 410.719 168.66C412.487 168.66 415.555 167.672 419.923 165.696C424.291 163.616 428.139 161.536 431.467 159.456L436.459 156.336C436.563 156.544 436.615 156.96 436.615 157.584C436.615 158.208 436.147 158.728 435.211 159.144C421.171 168.712 411.395 173.496 405.883 173.496ZM454.555 95.652C454.451 93.364 453.775 92.22 452.527 92.22C449.303 92.22 444.415 95.86 437.863 103.14C431.311 110.42 424.967 119.156 418.831 129.348C412.695 139.436 408.691 148.12 406.819 155.4C411.187 151.864 416.803 146.664 423.667 139.8C430.531 132.936 437.291 125.084 443.947 116.244C450.603 107.404 454.139 100.54 454.555 95.652ZM464.439 152.436C463.815 152.436 463.503 152.072 463.503 151.344L463.971 150.252C465.843 148.484 466.779 146.976 466.779 145.728C466.779 144.168 465.947 143.388 464.283 143.388C460.643 143.388 455.703 145.936 449.463 151.032C443.327 156.024 440.259 160.496 440.259 164.448C440.259 166.112 441.351 166.944 443.535 166.944C445.719 166.944 448.215 166.06 451.023 164.292C453.935 162.42 456.379 160.6 458.355 158.832C460.435 156.96 461.579 156.024 461.787 156.024C462.827 156.128 463.347 156.648 463.347 157.584C463.347 158 462.515 159.352 460.851 161.64C459.291 163.928 458.511 165.748 458.511 167.1C458.511 168.14 459.343 168.66 461.007 168.66C462.775 168.66 465.843 167.672 470.211 165.696C474.579 163.616 478.427 161.536 481.755 159.456L486.747 156.336C486.851 156.544 486.903 156.96 486.903 157.584C486.903 158.208 486.435 158.728 485.499 159.144C471.459 168.712 461.683 173.496 456.171 173.496C453.467 173.496 452.115 172.144 452.115 169.44C452.115 168.296 452.323 167.1 452.739 165.852C452.011 166.684 449.827 167.984 446.187 169.752C442.651 171.416 439.479 172.248 436.671 172.248C433.863 172.248 432.459 170.948 432.459 168.348C432.459 162.212 436.723 155.972 445.251 149.628C453.779 143.18 460.955 139.956 466.779 139.956C470.211 139.956 471.927 141.412 471.927 144.324C471.927 145.988 470.887 147.756 468.807 149.628C466.727 151.5 465.271 152.436 464.439 152.436ZM488.734 119.52C495.806 119.52 502.774 119.468 509.638 119.364C520.766 105.116 528.358 97.992 532.414 97.992C533.87 97.992 534.598 98.772 534.598 100.332C534.598 105.324 530.958 111.564 523.678 119.052L535.534 118.896C543.438 118.584 548.274 118.428 550.042 118.428C551.81 118.428 552.694 118.636 552.694 119.052C552.694 121.028 551.342 122.068 548.638 122.172L519.31 123.42C514.214 128.204 507.922 133.248 500.434 138.552C492.53 151.552 488.578 160.392 488.578 165.072C488.578 167.464 490.086 168.66 493.102 168.66C496.222 168.66 501.11 166.996 507.766 163.668L520.402 156.336C520.506 156.544 520.558 156.96 520.558 157.584C520.558 158.208 520.09 158.728 519.154 159.144C515.826 161.432 512.186 163.72 508.234 166.008C499.81 170.272 493.362 172.404 488.89 172.404C486.81 172.404 485.198 171.988 484.054 171.156C482.91 170.324 482.286 169.492 482.182 168.66L481.87 167.412C481.87 163.876 484.262 157.948 489.046 149.628C493.83 141.204 499.498 132.624 506.05 123.888C501.058 124.096 496.326 124.2 491.854 124.2C487.382 124.2 485.146 123.68 485.146 122.64C485.146 120.664 486.342 119.624 488.734 119.52ZM529.762 103.608C529.762 103.088 529.554 102.828 529.138 102.828C526.746 102.828 521.442 108.288 513.226 119.208H521.026C526.85 112.864 529.762 107.664 529.762 103.608ZM516.658 123.576C513.33 123.576 511.094 123.628 509.95 123.732C509.014 125.084 507.714 127.06 506.05 129.66C504.386 132.26 503.242 134.028 502.618 134.964C508.026 131.012 512.706 127.216 516.658 123.576ZM547.424 123.42C548.984 123.42 549.764 124.2 549.764 125.76C549.764 127.32 549.036 128.932 547.58 130.596C546.124 132.156 544.512 132.936 542.744 132.936C541.288 132.936 540.56 131.948 540.56 129.972C540.56 127.892 541.392 126.28 543.056 125.136C544.72 123.992 546.176 123.42 547.424 123.42ZM532.76 144.012C533.28 143.18 534.008 142.764 534.944 142.764C535.88 142.764 536.816 143.232 537.752 144.168C537.752 144.584 537.076 145.52 535.724 146.976C534.372 148.432 532.084 151.708 528.86 156.804C525.636 161.796 524.024 165.124 524.024 166.788C524.024 167.828 524.804 168.452 526.364 168.66C528.444 168.66 531.668 167.672 536.036 165.696C540.404 163.616 544.252 161.536 547.58 159.456L552.572 156.336C552.676 156.544 552.728 156.96 552.728 157.584C552.728 158.208 552.26 158.728 551.324 159.144C537.284 168.712 527.508 173.496 521.996 173.496C519.292 173.496 517.94 172.144 517.94 169.44C517.94 166.736 519.396 162.992 522.308 158.208C525.324 153.32 528.808 148.588 532.76 144.012ZM585.428 160.08C582.204 162.056 578.46 163.044 574.196 163.044H572.324C569.516 166.268 566.5 168.92 563.276 171C560.156 172.976 557.452 173.964 555.164 173.964C551.94 173.964 550.328 171.884 550.328 167.724C550.328 163.564 552.564 158.728 557.036 153.216C556.62 152.072 556.412 150.668 556.412 149.004C556.412 145.364 557.972 142.244 561.092 139.644C564.316 136.94 567.436 135.588 570.452 135.588C576.796 135.588 579.968 139.02 579.968 145.884C579.968 150.46 577.992 155.452 574.04 160.86H575.912C579.24 160.86 582.1 160.08 584.492 158.52C584.804 158.208 585.22 158.052 585.74 158.052C586.26 158.052 586.52 158.26 586.52 158.676C586.52 158.988 586.156 159.456 585.428 160.08ZM570.452 142.14C570.972 141.932 571.388 141.828 571.7 141.828C572.012 141.828 572.168 142.088 572.168 142.608C572.168 143.024 571.596 143.648 570.452 144.48C566.292 147.704 563.172 150.616 561.092 153.216C563.38 156.856 566.864 159.248 571.544 160.392C575.6 155.608 577.628 151.136 577.628 146.976C577.628 144.584 576.848 142.764 575.288 141.516C573.728 140.268 571.7 139.644 569.204 139.644C566.812 139.644 564.576 140.372 562.496 141.828C560.416 143.18 559.376 144.688 559.376 146.352C559.376 147.912 559.532 149.16 559.844 150.096C563.068 146.768 566.604 144.116 570.452 142.14ZM558.908 156.648C557.244 159.456 556.412 162.576 556.412 166.008C556.412 167.88 557.244 168.816 558.908 168.816C561.716 168.816 565.2 166.736 569.36 162.576C564.68 161.744 561.196 159.768 558.908 156.648ZM586.525 159.144C588.501 158 591.101 156.18 594.325 153.684C602.229 147.444 606.441 144.324 606.961 144.324C608.521 144.324 609.301 145 609.301 146.352C609.301 147.704 608.469 149.784 606.805 152.592C605.245 155.4 603.425 158.312 601.345 161.328C599.369 164.344 598.225 166.164 597.913 166.788C598.017 166.892 598.225 166.944 598.537 166.944C598.953 166.944 601.033 165.592 604.777 162.888C608.521 160.08 612.421 157.168 616.477 154.152C620.533 151.032 622.925 149.264 623.653 148.848C624.381 148.328 625.057 148.068 625.681 148.068C626.929 148.172 627.553 148.9 627.553 150.252C627.553 150.772 625.785 153.424 622.249 158.208C618.713 162.888 616.945 165.904 616.945 167.256C616.945 168.192 618.037 168.66 620.221 168.66C622.509 168.66 625.837 167.672 630.205 165.696C634.573 163.616 638.421 161.536 641.749 159.456L646.741 156.336C646.845 156.544 646.897 156.96 646.897 157.584C646.897 158.208 646.429 158.728 645.493 159.144C631.453 168.712 621.677 173.496 616.165 173.496C612.941 173.496 611.329 172.248 611.329 169.752C611.329 167.36 612.005 165.072 613.357 162.888C614.813 160.704 616.061 158.884 617.101 157.428C618.141 155.868 618.661 155.036 618.661 154.932C613.877 158.364 608.209 162.472 601.657 167.256C595.105 172.04 591.413 174.432 590.581 174.432C589.957 174.432 589.645 173.704 589.645 172.248C589.645 170.792 591.673 166.996 595.729 160.86C599.889 154.724 601.969 151.448 601.969 151.032C601.969 150.616 601.865 150.408 601.657 150.408L600.097 151.188L592.297 157.428C591.777 157.844 590.789 158.52 589.333 159.456C587.877 160.392 586.941 160.86 586.525 160.86C586.213 160.86 586.057 160.652 586.057 160.236C586.057 159.716 586.213 159.352 586.525 159.144Z" fill="white"/>
<path d="M89.3811 90.7229L43.3476 43.584L90.7234 89.3807L129.605 129.13L89.3811 90.7229Z" fill="white"/>
<path d="M90.7249 83.4489L43.586 129.482L89.3827 82.1067L129.132 43.2254L90.7249 83.4489Z" fill="white"/>
<path d="M643.348 161.716L676.966 105.051L644.992 162.665L616.659 210.51L643.348 161.716Z" fill="white"/>
<path d="M650.718 161.133L594.053 127.515L651.667 159.489L699.512 187.821L650.718 161.133Z" fill="white"/>
</svg>
