<svg width="80" height="80" viewBox="0 0 80 80" fill="none" xmlns="http://www.w3.org/2000/svg">
<path opacity="0.2" d="M78.7951 49.677C73.4526 71.1057 51.7476 84.1457 30.3163 78.8032C8.89509 73.4607 -4.14616 51.7557 1.19759 30.3282C6.53759 8.897 28.2413 -4.1455 49.6663 1.19699C71.0963 6.53949 84.1363 28.247 78.7938 49.677H78.7951Z" fill="#F7931A"/>
<path fill-rule="evenodd" clip-rule="evenodd" d="M53.8931 35.8144C54.4324 32.2036 51.6833 30.2626 47.9242 28.9677L49.1436 24.0766L46.1655 23.3346L44.9783 28.0969C44.1965 27.9018 43.3926 27.7178 42.5938 27.5355L43.7894 22.7419L40.8139 21.9999L39.5936 26.8893C38.9458 26.7418 38.3098 26.5959 37.6924 26.4425L37.6958 26.4272L33.5899 25.402L32.7979 28.5819C32.7979 28.5819 35.0069 29.0882 34.9602 29.1195C36.1661 29.4206 36.3848 30.2185 36.3475 30.8511L34.9585 36.4232C35.0416 36.4444 35.1493 36.4749 35.2681 36.5224L34.9543 36.4444L33.0065 44.2501C32.8589 44.6164 32.485 45.1659 31.6421 44.9573C31.6718 45.0005 29.478 44.4171 29.478 44.4171L28 47.826L31.8753 48.7919C32.3128 48.9015 32.745 49.0142 33.1724 49.1258L33.1725 49.1258C33.4493 49.198 33.724 49.2697 33.9969 49.3397L32.7648 54.2876L35.7387 55.0296L36.9598 50.1351C37.7713 50.3555 38.5599 50.5591 39.3316 50.7507L38.1156 55.6224L41.0928 56.3643L42.325 51.4265C47.4018 52.3873 51.2203 51.9998 52.8255 47.4088C54.1204 43.7116 52.7619 41.5789 50.0908 40.1874C52.036 39.7371 53.5014 38.4575 53.8923 35.8144H53.8931ZM47.0898 45.3533C46.2446 48.7466 40.932 47.3426 38.5034 46.7008L38.5031 46.7007C38.2858 46.6432 38.0915 46.5919 37.9256 46.5506L39.5605 39.9966C39.7634 40.0472 40.0112 40.1028 40.2919 40.1658C42.8044 40.7296 47.9533 41.885 47.0906 45.3533H47.0898ZM40.7969 37.1245C42.8233 37.6651 47.2404 38.8435 48.0098 35.7609C48.7965 32.6073 44.5014 31.6569 42.4037 31.1926C42.1679 31.1405 41.9598 31.0944 41.7899 31.0521L40.3076 36.9964C40.4479 37.0314 40.6125 37.0753 40.7969 37.1245Z" fill="#F7931A"/>
</svg>
