<svg width="85" height="85" viewBox="0 0 85 85" fill="none" xmlns="http://www.w3.org/2000/svg">
<g clip-path="url(#clip0_1580_11185)">
<path d="M48 23.5156V2H16.75C14.6719 2 13 3.69277 13 5.79688V79.2031C13 81.3072 14.6719 83 16.75 83H69.25C71.3281 83 73 81.3072 73 79.2031V27.3125H51.75C49.6875 27.3125 48 25.6039 48 23.5156ZM23 13.3906C23 12.6914 23.5594 12.125 24.25 12.125H36.75C37.4406 12.125 38 12.6914 38 13.3906V15.9219C38 16.6211 37.4406 17.1875 36.75 17.1875H24.25C23.5594 17.1875 23 16.6211 23 15.9219V13.3906ZM23 23.5156C23 22.8164 23.5594 22.25 24.25 22.25H36.75C37.4406 22.25 38 22.8164 38 23.5156V26.0469C38 26.7461 37.4406 27.3125 36.75 27.3125H24.25C23.5594 27.3125 23 26.7461 23 26.0469V23.5156ZM53.1266 62.75H60.5C61.8812 62.75 63 63.8827 63 65.2812C63 66.6798 61.8812 67.8125 60.5 67.8125H53.1266C50.5562 67.8125 48.2406 66.3665 47.0891 64.0378C46.6281 63.1012 45.825 63.0063 45.5 63.0063C45.175 63.0063 44.3719 63.0996 43.9344 63.9856L42.7359 66.4124C42.5284 66.8329 42.2093 67.1865 41.8143 67.4335C41.4194 67.6805 40.9642 67.8112 40.5 67.8109C40.4406 67.8109 40.3828 67.8078 40.3219 67.803C39.3141 67.7318 38.4469 67.0515 38.1297 66.0802L35.5 58.0972L33.8422 63.1408C32.9219 65.9346 30.3453 67.8125 27.4359 67.8125H25.5C24.1187 67.8125 23 66.6798 23 65.2812C23 63.8827 24.1187 62.75 25.5 62.75H27.4359C28.1906 62.75 28.8594 62.2627 29.0984 61.5382L31.9406 52.8939C32.4562 51.342 33.8844 50.2978 35.5 50.2978C37.1156 50.2978 38.5438 51.3404 39.0578 52.8939L41.2266 59.4815C44.3156 56.9202 49.6719 57.947 51.5391 61.7217C51.8547 62.364 52.4703 62.75 53.1266 62.75ZM71.9062 18.6113L56.6094 3.10742C55.9062 2.39551 54.9531 2 53.9531 2H53V22.25H73V21.285C73 20.2883 72.6094 19.3232 71.9062 18.6113Z" fill="white"/>
<rect x="20.7144" y="9.75488" width="19.7143" height="18.0957" fill="white"/>
<rect x="20.7144" y="47.6699" width="44.5714" height="23.266" fill="white"/>
</g>
<g filter="url(#filter0_d_1580_11185)">
<path d="M27.1064 48.7438C27.1064 45.9544 27.7099 43.4734 28.9169 41.3009C30.1238 39.1016 31.8001 37.3984 33.9458 36.1915C36.1183 34.9577 38.5725 34.3408 41.3082 34.3408C44.6609 34.3408 47.5307 35.2259 49.9178 36.9961C52.3049 38.7663 53.9008 41.1802 54.7054 44.2378H47.1418C46.5786 43.0577 45.774 42.1592 44.7279 41.5423C43.7087 40.9254 42.542 40.617 41.2278 40.617C39.1089 40.617 37.3924 41.3545 36.0781 42.8297C34.7639 44.3049 34.1068 46.2762 34.1068 48.7438C34.1068 51.2113 34.7639 53.1827 36.0781 54.6578C37.3924 56.133 39.1089 56.8706 41.2278 56.8706C42.542 56.8706 43.7087 56.5621 44.7279 55.9452C45.774 55.3284 46.5786 54.4299 47.1418 53.2497H54.7054C53.9008 56.3073 52.3049 58.7212 49.9178 60.4914C47.5307 62.2348 44.6609 63.1065 41.3082 63.1065C38.5725 63.1065 36.1183 62.503 33.9458 61.2961C31.8001 60.0623 30.1238 58.3591 28.9169 56.1866C27.7099 54.0141 27.1064 51.5332 27.1064 48.7438Z" fill="#36287D"/>
</g>
<defs>
<filter id="filter0_d_1580_11185" x="25.1064" y="32.3408" width="35.5991" height="36.7656" filterUnits="userSpaceOnUse" color-interpolation-filters="sRGB">
<feFlood flood-opacity="0" result="BackgroundImageFix"/>
<feColorMatrix in="SourceAlpha" type="matrix" values="0 0 0 0 0 0 0 0 0 0 0 0 0 0 0 0 0 0 127 0" result="hardAlpha"/>
<feOffset dx="2" dy="2"/>
<feGaussianBlur stdDeviation="2"/>
<feComposite in2="hardAlpha" operator="out"/>
<feColorMatrix type="matrix" values="0 0 0 0 0 0 0 0 0 0 0 0 0 0 0 0 0 0 0.15 0"/>
<feBlend mode="normal" in2="BackgroundImageFix" result="effect1_dropShadow_1580_11185"/>
<feBlend mode="normal" in="SourceGraphic" in2="effect1_dropShadow_1580_11185" result="shape"/>
</filter>
<clipPath id="clip0_1580_11185">
<rect width="60" height="81" fill="white" transform="translate(13 2)"/>
</clipPath>
</defs>
</svg>
