<svg width="85" height="86" viewBox="0 0 85 86" fill="none" xmlns="http://www.w3.org/2000/svg">
<g clip-path="url(#clip0_1413_6913)">
<path d="M48 23.8822V2.2832H16.75C14.6719 2.2832 13 3.98254 13 6.09479V79.7856C13 81.8978 14.6719 83.5972 16.75 83.5972H69.25C71.3281 83.5972 73 81.8978 73 79.7856V27.6938H51.75C49.6875 27.6938 48 25.9786 48 23.8822ZM23 13.718C23 13.016 23.5594 12.4474 24.25 12.4474H36.75C37.4406 12.4474 38 13.016 38 13.718V16.259C38 16.961 37.4406 17.5296 36.75 17.5296H24.25C23.5594 17.5296 23 16.961 23 16.259V13.718ZM23 23.8822C23 23.1803 23.5594 22.6117 24.25 22.6117H36.75C37.4406 22.6117 38 23.1803 38 23.8822V26.4233C38 27.1253 37.4406 27.6938 36.75 27.6938H24.25C23.5594 27.6938 23 27.1253 23 26.4233V23.8822ZM53.1266 63.2687H60.5C61.8812 63.2687 63 64.4058 63 65.8097C63 67.2137 61.8812 68.3508 60.5 68.3508H53.1266C50.5562 68.3508 48.2406 66.8992 47.0891 64.5614C46.6281 63.6212 45.825 63.526 45.5 63.526C45.175 63.526 44.3719 63.6197 43.9344 64.509L42.7359 66.9453C42.5284 67.3674 42.2093 67.7223 41.8143 67.9703C41.4194 68.2183 40.9642 68.3495 40.5 68.3492C40.4406 68.3492 40.3828 68.346 40.3219 68.3413C39.3141 68.2698 38.4469 67.5869 38.1297 66.6118L35.5 58.5979L33.8422 63.6609C32.9219 66.4656 30.3453 68.3508 27.4359 68.3508H25.5C24.1187 68.3508 23 67.2137 23 65.8097C23 64.4058 24.1187 63.2687 25.5 63.2687H27.4359C28.1906 63.2687 28.8594 62.7795 29.0984 62.0521L31.9406 53.3744C32.4562 51.8164 33.8844 50.7682 35.5 50.7682C37.1156 50.7682 38.5438 51.8148 39.0578 53.3744L41.2266 59.9875C44.3156 57.4163 49.6719 58.447 51.5391 62.2364C51.8547 62.8812 52.4703 63.2687 53.1266 63.2687ZM71.9062 18.9589L56.6094 3.39492C55.9062 2.68024 54.9531 2.2832 53.9531 2.2832H53V22.6117H73V21.6429C73 20.6424 72.6094 19.6736 71.9062 18.9589Z" fill="white"/>
<rect x="20.7144" y="10.0684" width="19.7143" height="18.1659" fill="white"/>
<rect x="20.7144" y="48.1309" width="44.5714" height="23.3561" fill="white"/>
</g>
<g filter="url(#filter0_d_1413_6913)">
<path d="M27.1064 49.2068C27.1064 46.4066 27.7099 43.916 28.9169 41.7351C30.1238 39.5273 31.8001 37.8175 33.9458 36.6059C36.1183 35.3673 38.5725 34.748 41.3082 34.748C44.6609 34.748 47.5307 35.6366 49.9178 37.4136C52.3049 39.1907 53.9008 41.6139 54.7054 44.6834H47.1418C46.5786 43.4987 45.774 42.5967 44.7279 41.9774C43.7087 41.3582 42.542 41.0485 41.2278 41.0485C39.1089 41.0485 37.3924 41.789 36.0781 43.2698C34.7639 44.7507 34.1068 46.7297 34.1068 49.2068C34.1068 51.6839 34.7639 53.6629 36.0781 55.1438C37.3924 56.6247 39.1089 57.3651 41.2278 57.3651C42.542 57.3651 43.7087 57.0555 44.7279 56.4362C45.774 55.8169 46.5786 54.9149 47.1418 53.7302H54.7054C53.9008 56.7997 52.3049 59.223 49.9178 61C47.5307 62.7501 44.6609 63.6252 41.3082 63.6252C38.5725 63.6252 36.1183 63.0194 33.9458 61.8078C31.8001 60.5692 30.1238 58.8595 28.9169 56.6785C27.7099 54.4976 27.1064 52.007 27.1064 49.2068Z" fill="#36287D"/>
</g>
<defs>
<filter id="filter0_d_1413_6913" x="25.1064" y="32.748" width="35.5991" height="36.877" filterUnits="userSpaceOnUse" color-interpolation-filters="sRGB">
<feFlood flood-opacity="0" result="BackgroundImageFix"/>
<feColorMatrix in="SourceAlpha" type="matrix" values="0 0 0 0 0 0 0 0 0 0 0 0 0 0 0 0 0 0 127 0" result="hardAlpha"/>
<feOffset dx="2" dy="2"/>
<feGaussianBlur stdDeviation="2"/>
<feComposite in2="hardAlpha" operator="out"/>
<feColorMatrix type="matrix" values="0 0 0 0 0 0 0 0 0 0 0 0 0 0 0 0 0 0 0.15 0"/>
<feBlend mode="normal" in2="BackgroundImageFix" result="effect1_dropShadow_1413_6913"/>
<feBlend mode="normal" in="SourceGraphic" in2="effect1_dropShadow_1413_6913" result="shape"/>
</filter>
<clipPath id="clip0_1413_6913">
<rect width="60" height="81.314" fill="white" transform="translate(13 2.2832)"/>
</clipPath>
</defs>
</svg>
