<svg width="29" height="23" viewBox="0 0 29 23" fill="none" xmlns="http://www.w3.org/2000/svg">
<path d="M23.3092 3.09133C23.3019 3.07731 23.2899 3.06633 23.2752 3.06035C21.5811 2.2861 19.7933 1.73399 17.9566 1.41786C17.9399 1.41477 17.9226 1.417 17.9073 1.42423C17.8919 1.43146 17.8793 1.44333 17.8711 1.45814C17.6277 1.89826 17.4067 2.35033 17.209 2.81264C15.2291 2.51327 13.2152 2.51327 11.2353 2.81264C11.0363 2.34916 10.8118 1.89697 10.5627 1.45814C10.5542 1.44365 10.5415 1.43206 10.5262 1.42487C10.511 1.41769 10.4939 1.41524 10.4772 1.41786C8.64032 1.73333 6.85241 2.28547 5.15849 3.06039C5.14399 3.06651 5.13176 3.07697 5.12348 3.09031C1.73599 8.12933 0.808026 13.0444 1.26325 17.8987C1.26453 17.9106 1.2682 17.9221 1.27404 17.9326C1.27988 17.943 1.28777 17.9522 1.29725 17.9596C3.26975 19.4143 5.47602 20.5248 7.82191 21.2435C7.83843 21.2484 7.85607 21.2482 7.87246 21.2429C7.88885 21.2375 7.9032 21.2273 7.91358 21.2136C8.41743 20.5307 8.86387 19.8076 9.24838 19.0516C9.25366 19.0412 9.25668 19.0299 9.25723 19.0182C9.25778 19.0066 9.25585 18.995 9.25157 18.9842C9.24729 18.9734 9.24076 18.9636 9.23241 18.9555C9.22405 18.9473 9.21406 18.9411 9.20309 18.9371C8.49908 18.6687 7.81752 18.3453 7.1648 17.9697C7.15294 17.9628 7.14298 17.953 7.1358 17.9414C7.12862 17.9297 7.12444 17.9164 7.12363 17.9027C7.12282 17.8891 7.1254 17.8754 7.13114 17.8629C7.13689 17.8505 7.14562 17.8397 7.15658 17.8314C7.29353 17.7292 7.43058 17.6228 7.56136 17.5154C7.57298 17.5059 7.58704 17.4998 7.60196 17.4978C7.61688 17.4958 7.63206 17.498 7.6458 17.5041C11.9221 19.4481 16.5517 19.4481 20.7773 17.5041C20.7911 17.4976 20.8064 17.4951 20.8216 17.4969C20.8367 17.4988 20.851 17.5048 20.8628 17.5144C20.9937 17.6218 21.1307 17.7292 21.2686 17.8314C21.2796 17.8396 21.2885 17.8503 21.2943 17.8627C21.3001 17.8751 21.3028 17.8888 21.3021 17.9025C21.3014 17.9161 21.2973 17.9294 21.2902 17.9412C21.2831 17.9529 21.2732 17.9627 21.2614 17.9697C20.6102 18.3484 19.928 18.6717 19.2222 18.936C19.2112 18.9402 19.2012 18.9466 19.1929 18.9549C19.1846 18.9631 19.1782 18.973 19.174 18.9839C19.1698 18.9948 19.168 19.0065 19.1686 19.0182C19.1692 19.0298 19.1724 19.0412 19.1777 19.0516C19.5687 19.8034 20.0145 20.5256 20.5115 21.2124C20.5216 21.2265 20.5359 21.2371 20.5523 21.2426C20.5688 21.2482 20.5866 21.2484 20.6032 21.2434C22.9533 20.5271 25.1634 19.4165 27.1384 17.9596C27.148 17.9526 27.156 17.9436 27.1618 17.9333C27.1677 17.923 27.1713 17.9115 27.1724 17.8997C27.7174 12.2877 26.2599 7.41286 23.3092 3.09133ZM9.887 14.943C8.59953 14.943 7.5387 13.7661 7.5387 12.3208C7.5387 10.8754 8.57896 9.69847 9.887 9.69847C11.2053 9.69847 12.2558 10.8856 12.2353 12.3207C12.2353 13.7661 11.195 14.943 9.887 14.943ZM18.5694 14.943C17.2819 14.943 16.2211 13.7661 16.2211 12.3208C16.2211 10.8754 17.2614 9.69847 18.5694 9.69847C19.8877 9.69847 20.9382 10.8856 20.9177 12.3207C20.9177 13.7661 19.8877 14.943 18.5694 14.943Z" fill="white"/>
</svg>
