<svg width="27" height="21" viewBox="0 0 27 21" fill="none" xmlns="http://www.w3.org/2000/svg">
<path d="M22.3092 2.09133C22.3019 2.07731 22.2899 2.06633 22.2752 2.06035C20.5811 1.2861 18.7933 0.733994 16.9566 0.417858C16.9399 0.414768 16.9226 0.416997 16.9073 0.424229C16.8919 0.431461 16.8793 0.443326 16.8711 0.458139C16.6277 0.898259 16.4067 1.35033 16.209 1.81264C14.2291 1.51327 12.2152 1.51327 10.2353 1.81264C10.0363 1.34916 9.81176 0.896972 9.56273 0.458139C9.55419 0.443648 9.54146 0.432056 9.52621 0.424871C9.51096 0.417686 9.49389 0.415243 9.47723 0.417858C7.64032 0.73333 5.85241 1.28547 4.15849 2.06039C4.14399 2.06651 4.13176 2.07697 4.12348 2.09031C0.735988 7.12933 -0.191974 12.0444 0.263252 16.8987C0.264533 16.9106 0.268203 16.9221 0.274043 16.9326C0.279883 16.943 0.287774 16.9522 0.297248 16.9596C2.26975 18.4143 4.47602 19.5248 6.82191 20.2435C6.83843 20.2484 6.85607 20.2482 6.87246 20.2429C6.88885 20.2375 6.9032 20.2273 6.91358 20.2136C7.41743 19.5307 7.86387 18.8076 8.24838 18.0516C8.25366 18.0412 8.25668 18.0299 8.25723 18.0182C8.25778 18.0066 8.25585 17.995 8.25157 17.9842C8.24729 17.9734 8.24076 17.9636 8.23241 17.9555C8.22405 17.9473 8.21406 17.9411 8.20309 17.9371C7.49908 17.6687 6.81752 17.3453 6.1648 16.9697C6.15294 16.9628 6.14298 16.953 6.1358 16.9414C6.12862 16.9297 6.12444 16.9164 6.12363 16.9027C6.12282 16.8891 6.1254 16.8754 6.13114 16.8629C6.13689 16.8505 6.14562 16.8397 6.15658 16.8314C6.29353 16.7292 6.43058 16.6228 6.56136 16.5154C6.57298 16.5059 6.58704 16.4998 6.60196 16.4978C6.61688 16.4958 6.63206 16.498 6.6458 16.5041C10.9221 18.4481 15.5517 18.4481 19.7773 16.5041C19.7911 16.4976 19.8064 16.4951 19.8216 16.4969C19.8367 16.4988 19.851 16.5048 19.8628 16.5144C19.9937 16.6218 20.1307 16.7292 20.2686 16.8314C20.2796 16.8396 20.2885 16.8503 20.2943 16.8627C20.3001 16.8751 20.3028 16.8888 20.3021 16.9025C20.3014 16.9161 20.2973 16.9294 20.2902 16.9412C20.2831 16.9529 20.2732 16.9627 20.2614 16.9697C19.6102 17.3484 18.928 17.6717 18.2222 17.936C18.2112 17.9402 18.2012 17.9466 18.1929 17.9549C18.1846 17.9631 18.1782 17.973 18.174 17.9839C18.1698 17.9948 18.168 18.0065 18.1686 18.0182C18.1692 18.0298 18.1724 18.0412 18.1777 18.0516C18.5687 18.8034 19.0145 19.5256 19.5115 20.2124C19.5216 20.2265 19.5359 20.2371 19.5523 20.2426C19.5688 20.2482 19.5866 20.2484 19.6032 20.2434C21.9533 19.5271 24.1634 18.4165 26.1384 16.9596C26.148 16.9526 26.156 16.9436 26.1618 16.9333C26.1677 16.923 26.1713 16.9115 26.1724 16.8997C26.7174 11.2877 25.2599 6.41286 22.3092 2.09133ZM8.887 13.943C7.59953 13.943 6.5387 12.7661 6.5387 11.3208C6.5387 9.87542 7.57896 8.69847 8.887 8.69847C10.2053 8.69847 11.2558 9.88565 11.2353 11.3207C11.2353 12.7661 10.195 13.943 8.887 13.943ZM17.5694 13.943C16.2819 13.943 15.2211 12.7661 15.2211 11.3208C15.2211 9.87542 16.2614 8.69847 17.5694 8.69847C18.8877 8.69847 19.9382 9.88565 19.9177 11.3207C19.9177 12.7661 18.8877 13.943 17.5694 13.943Z" fill="inherit"/>
</svg>
