<svg version="1.1" id="Layer_1" xmlns="http://www.w3.org/2000/svg" xmlns:xlink="http://www.w3.org/1999/xlink" x="0px" y="0px"
	 viewBox="0 0 507 550" xml:space="preserve">
<g class="lines">

	<line class="l_st0 linee l7" x1="231.4" y1="503.9" x2="284" y2="534.2"/>
	<polyline class="l_st0 linee l1" points="313.4,436.9 366,467.2 410,492.7 "/>
	<polyline class="l_st1 linee l2" points="319.5,453 339.7,464.3 223,531.2 "/>
	<polyline class="l_st1 linee l3" points="294.8,464.6 336.4,488.8 289,516 335.5,543 "/>
	<polyline class="l_st2 linee l4" points="341.2,433.6 392.6,463.6 477.4,414.7 "/>
	<polyline class="l_st2 linee l5" points="349.4,424.5 386.3,446.1 431.5,419.8 497.2,457.2 "/>
	<polyline class="l_st2 linee l6" points="363.5,407.5 391.8,423.9 476,375.3 "/>

	<path class="st0 dot_4" d="M408.7,492.1c2.8-1.7,7.4-1.7,10.3-0.1c2.9,1.6,2.9,4.3,0,5.9c-2.8,1.7-7.4,1.7-10.3,0.1
		C405.9,496.4,405.9,493.8,408.7,492.1z"/>
	<path class="st0 dot_1" d="M277.7,530.3c2.8-1.7,7.4-1.7,10.3-0.1c2.9,1.6,2.9,4.3,0.1,5.9c-2.8,1.7-7.4,1.7-10.3,0.1
		C274.9,534.6,274.9,531.9,277.7,530.3z"/>
	<path class="st0 dot_2" d="M214.5,531c2.8-1.7,7.4-1.7,10.3-0.1c2.9,1.6,2.9,4.3,0.1,5.9c-2.8,1.7-7.4,1.7-10.3,0.1
		C211.7,535.4,211.7,532.7,214.5,531z"/>
	<path class="st0 dot_7" d="M472.9,411.3c2.8-1.7,7.4-1.7,10.3-0.1c2.9,1.6,2.9,4.3,0.1,5.9c-2.8,1.7-7.4,1.7-10.3,0.1
		C470.1,415.6,470.1,412.9,472.9,411.3z"/>
	<path class="st0 dot_5" d="M471.9,371.7c2.8-1.7,7.4-1.7,10.3-0.1c2.9,1.6,2.9,4.3,0.1,5.9c-2.8,1.7-7.4,1.7-10.3,0.1
		C469.1,376,469.1,373.3,471.9,371.7z"/>
	<path class="st0 dot_6" d="M494.6,455.8c2.8-1.7,7.4-1.7,10.3-0.1c2.9,1.6,2.9,4.3,0.1,5.9c-2.8,1.7-7.4,1.7-10.3,0.1
		C491.8,460.1,491.8,457.5,494.6,455.8z"/>
	<path class="st0 dot_3" d="M334.5,542.8c2.8-1.7,7.4-1.7,10.3-0.1c2.9,1.6,2.9,4.3,0,5.9c-2.8,1.7-7.4,1.7-10.3,0.1
		C331.7,547.1,331.7,544.4,334.5,542.8z"/>
</g>
<g>
	<path class="st1" d="M283.7,57.6l-7.8-4.6c-1.6-0.9-3.7-0.8-6.1,0.6l7.8,4.6C280,56.8,282.2,56.7,283.7,57.6z"/>
	<path class="st1" d="M35.5,207.8l-7.8-4.6l0.5,205.3l7.8,4.6L35.5,207.8z"/>
	<path class="st1" d="M277.6,58.2l-7.8-4.6L36.2,188.5l7.8,4.5L277.6,58.2z"/>
	<path class="st1" d="M44,193.1l-7.8-4.6c-4.7,2.7-8.5,9.3-8.5,14.8l7.8,4.6C35.4,202.4,39.3,195.8,44,193.1z"/>
	<path class="st2" d="M44,193.1c-4.7,2.7-8.5,9.3-8.5,14.8L36,413.1l250.7-144.8L286.2,63c0-5.4-3.9-7.6-8.6-4.9L44,193.1z"/>
	<path class="st1" d="M240.9,286.4l0,7.6l10.4,6l0-7.5L240.9,286.4z"/>
	<path class="st3" d="M240.3,287.9L74.9,383.3c1-0.6,2.5-0.5,4,0.4l165.4-95.3C242.7,287.4,241.3,287.3,240.3,287.9z"/>
	<path class="st3" d="M78.9,383.6l165.4-95.3c-1.2-0.7-2.4-0.9-3.3-0.7L75.6,383C76.5,382.7,77.6,382.9,78.9,383.6z"/>
	<path class="st3" d="M75.6,383L241,287.6c-0.3,0.1-0.5,0.2-0.7,0.3L74.9,383.2C75.1,383.1,75.3,383,75.6,383z"/>
	<path class="st4" d="M82.8,397l165.4-95.3c1-0.6,1.6-1.8,1.7-3.6c0-3.6-2.5-7.9-5.6-9.7L78.9,383.6c3.1,1.8,5.6,6.2,5.6,9.7
		C84.5,395.2,83.9,396.4,82.8,397z"/>
	<path class="st3" d="M82.8,397l165.4-95.3c1-0.6,1.6-1.8,1.7-3.6c0-1.7-0.6-3.6-1.5-5.3L83,388.1c0.9,1.7,1.5,3.6,1.5,5.3
		C84.5,395.2,83.9,396.4,82.8,397z"/>
	<path class="st4" d="M83,388.1l165.4-95.3c-1-1.9-2.5-3.5-4.1-4.5L78.9,383.6C80.5,384.6,82,386.2,83,388.1z"/>
	<path class="st4" d="M78.9,383.6c-3.1-1.8-5.7-0.4-5.7,3.2c0,3.6,2.5,7.9,5.6,9.7c3.1,1.8,5.7,0.3,5.7-3.2
		C84.5,389.8,82,385.4,78.9,383.6z"/>
	<path class="st1" d="M461.1,371.3l0-7.5c0,1.2-0.8,2.4-2.4,3.3l0,7.5C460.3,373.7,461.1,372.5,461.1,371.3z"/>
	<path class="st1" d="M458.7,367.1l0,7.5c1.6-0.9,2.4-2.1,2.4-3.3l0-7.5C461.1,364.9,460.3,366.1,458.7,367.1z"/>
	<path class="st1" d="M35.7,406.9l0,7.5c0,1.2,0.8,2.4,2.4,3.3l0-7.5C36.4,409.3,35.7,408.1,35.7,406.9z"/>
	<path class="st1" d="M35.7,406.9l0,7.5c0,1.2,0.8,2.4,2.4,3.3l0-7.5C36.4,409.3,35.7,408.1,35.7,406.9z"/>
	<path class="st1" d="M38,410.2l0,7.6l40,23.2l83.7,48.6l43.1,25l0-7.5L38,410.2z"/>
	<path class="st1" d="M216.3,507l0,7.5l242.4-139.9l0-7.6L216.3,507z"/>
	<path class="st1" d="M204.8,507l0,7.5c3.1,1.8,8.2,1.8,11.4,0l0-7.5C213.1,508.8,208,508.8,204.8,507z"/>
	<path class="st1" d="M204.8,507l0,7.5c3.1,1.8,8.2,1.8,11.4,0l0-7.5C213.1,508.8,208,508.8,204.8,507z"/>
	<path class="st5" d="M38,403.6c-3.2,1.8-3.2,4.8,0,6.6L204.8,507c3.1,1.8,8.2,1.8,11.4,0l242.4-140c3.2-1.8,3.2-4.8,0-6.6
		l-166.8-96.8c-3.1-1.8-8.3-1.8-11.4,0L241,286.4l10.4,6L87.9,386.8l-10.4-6L38,403.6z"/>
	<path class="st6" d="M78,436.3v4.6l83.7,48.6v-4.6L78,436.3z"/>
	<path class="st7" d="M67.9,408c0.5,1.9,2,3.8,4.7,5.4l84.8,49.1c5.9,3.4,14.7,3.8,19.8,0.8l203.5-117.5c1.8-1.1,2.9-2.4,3.3-3.9
		c0.6-2.6-1-5.4-4.7-7.6l-84.8-49.1c-5.9-3.4-14.7-3.8-19.8-0.8L71.2,401.9C68.5,403.5,67.4,405.7,67.9,408z"/>
	<path class="st8" d="M291.6,292.5v-1.3c0,0.4-0.2,0.7-0.7,1v1.3C291.4,293.2,291.6,292.9,291.6,292.5z"/>
	<path class="st8" d="M273.1,294.7v1.3c0,0.4,0.2,0.7,0.7,1v-1.3C273.4,295.4,273.1,295,273.1,294.7z"/>
	<path class="st1" d="M68,408c0.5,1.9,2,3.8,4.7,5.4l84.8,49.1c5.9,3.4,14.7,3.8,19.8,0.8l203.5-117.5c1.8-1.1,2.9-2.4,3.3-3.9
		c-0.4-1.9-2-3.8-4.7-5.4l-84.9-49.1c-5.9-3.4-14.7-3.7-19.8-0.8L71.2,404.1C69.4,405.2,68.3,406.5,68,408z"/>
	<path class="st8" d="M290.9,292.2v1.3c0.5-0.3,0.7-0.6,0.7-1v-1.3C291.6,291.5,291.4,291.9,290.9,292.2z"/>
	<path class="st8" d="M273.1,294.7v1.3c0,0.2,0.1,0.4,0.3,0.6v-1.3C273.2,295.1,273.1,294.9,273.1,294.7z"/>
	<path class="st8" d="M273.4,295.3v1.3c0.1,0.1,0.3,0.3,0.5,0.4v-1.3C273.7,295.5,273.5,295.4,273.4,295.3z"/>
	<path class="st8" d="M273.8,295.7v1.3l3.8,2.2v-1.3L273.8,295.7z"/>
	<path class="st8" d="M281.1,297.9v1.3l9.9-5.7v-1.3L281.1,297.9z"/>
	<path class="st8" d="M277.6,297.9v1.3c0.4,0.2,0.8,0.3,1.2,0.4v-1.3C278.4,298.2,278,298.1,277.6,297.9z"/>
	<path class="st8" d="M278.8,298.2v1.3c0.8,0.1,1.6,0,2.2-0.4v-1.3C280.5,298.2,279.6,298.3,278.8,298.2z"/>
	<path class="st8" d="M277.6,297.9v1.3c1,0.5,2.5,0.5,3.5,0v-1.3C280.1,298.4,278.6,298.4,277.6,297.9z"/>
	<path class="st8" d="M286.8,303.3v1.3l9.8,5.7l0-1.3L286.8,303.3z"/>
	<path class="st8" d="M300.1,308.9v1.3l9.8-5.7v-1.3L300.1,308.9z"/>
	<path class="st8" d="M296.6,308.9v1.3c1,0.6,2.5,0.6,3.5,0v-1.3C299.1,309.5,297.6,309.5,296.6,308.9z"/>
	<path class="st8" d="M296.6,308.9v1.3c0.4,0.2,0.8,0.3,1.2,0.4v-1.3C297.4,309.3,297,309.1,296.6,308.9z"/>
	<path class="st8" d="M297.8,309.3v1.3c0.8,0.1,1.6,0,2.3-0.4v-1.3C299.5,309.3,298.6,309.4,297.8,309.3z"/>
	<path class="st8" d="M286.1,302.3v1.3c0,0.2,0.1,0.4,0.3,0.6v-1.3C286.2,302.7,286.1,302.5,286.1,302.3z"/>
	<path class="st8" d="M286.1,302.3v1.3c0,0.4,0.2,0.7,0.7,1v-1.3C286.3,303,286.1,302.6,286.1,302.3z"/>
	<path class="st8" d="M286.4,302.9v1.3c0.1,0.1,0.3,0.3,0.4,0.4v-1.3C286.6,303.1,286.5,303,286.4,302.9z"/>
	<path class="st8" d="M310.6,303.6v-1.3c0,0.4-0.2,0.7-0.7,1v1.3C310.4,304.3,310.6,303.9,310.6,303.6z"/>
	<path class="st8" d="M309.9,303.3v1.3c0.5-0.3,0.7-0.6,0.7-1v-1.3C310.6,302.6,310.4,303,309.9,303.3z"/>
	<path class="st8" d="M253.8,305.8v1.3c0,0.4,0.2,0.7,0.7,1v-1.3C254,306.6,253.8,306.2,253.8,305.8z"/>
	<path class="st8" d="M253.8,305.8v1.3c0,0.2,0.1,0.4,0.3,0.6v-1.3C253.9,306.3,253.8,306.1,253.8,305.8z"/>
	<path class="st8" d="M254.1,306.5v1.3c0.1,0.1,0.3,0.3,0.5,0.4v-1.3C254.3,306.7,254.2,306.6,254.1,306.5z"/>
	<path class="st8" d="M254.5,306.8v1.3l3.8,2.2l0-1.3L254.5,306.8z"/>
	<path class="st8" d="M261.8,309v1.3l9.9-5.7l0-1.3L261.8,309z"/>
	<path class="st8" d="M258.3,309v1.3c1,0.5,2.5,0.5,3.5,0V309C260.8,309.6,259.2,309.6,258.3,309z"/>
	<path class="st8" d="M258.3,309v1.3c0.4,0.2,0.8,0.3,1.2,0.4v-1.3C259.1,309.4,258.6,309.2,258.3,309z"/>
	<path class="st8" d="M259.5,309.4v1.3c0.8,0.1,1.6,0,2.2-0.4V309C261.1,309.4,260.3,309.5,259.5,309.4z"/>
	<path class="st8" d="M272.3,303.7v-1.3c0,0.4-0.2,0.7-0.7,1v1.3C272.1,304.4,272.3,304,272.3,303.7z"/>
	<path class="st8" d="M271.6,303.3v1.3c0.5-0.3,0.7-0.6,0.7-1v-1.3C272.3,302.7,272.1,303.1,271.6,303.3z"/>
	<path class="st8" d="M270,311.6v1.3c0,0.4,0.2,0.7,0.7,1v-1.3C270.2,312.3,270,311.9,270,311.6z"/>
	<path class="st8" d="M270,311.6v1.3c0,0.2,0.1,0.4,0.3,0.6v-1.3C270.1,312,270,311.8,270,311.6z"/>
	<path class="st8" d="M270.2,312.2v1.3c0.1,0.1,0.3,0.3,0.5,0.4v-1.3C270.5,312.5,270.3,312.3,270.2,312.2z"/>
	<path class="st8" d="M294.5,312.9v-1.3c0,0.4-0.2,0.7-0.7,1v1.3C294.3,313.6,294.5,313.3,294.5,312.9z"/>
	<path class="st8" d="M293.8,312.6v1.3c0.5-0.3,0.7-0.7,0.7-1v-1.3C294.5,311.9,294.2,312.3,293.8,312.6z"/>
	<path class="st8" d="M270.7,312.6v1.3l9.8,5.7l0-1.3L270.7,312.6z"/>
	<path class="st8" d="M283.9,318.3v1.3l9.8-5.7v-1.3L283.9,318.3z"/>
	<path class="st8" d="M280.5,318.3v1.3c1,0.5,2.5,0.5,3.5,0v-1.3C283,318.8,281.4,318.8,280.5,318.3z"/>
	<path class="st8" d="M280.5,318.3v1.3c0.4,0.2,0.8,0.3,1.2,0.4v-1.3C281.2,318.6,280.8,318.5,280.5,318.3z"/>
	<path class="st8" d="M281.7,318.6v1.3c0.8,0.1,1.6,0,2.3-0.4v-1.3C283.3,318.6,282.5,318.7,281.7,318.6z"/>
	<path class="st8" d="M253,314.8v-1.3c0,0.4-0.2,0.7-0.7,1v1.3C252.7,315.5,253,315.2,253,314.8z"/>
	<path class="st8" d="M252.3,314.5v1.3c0.5-0.3,0.7-0.6,0.7-1v-1.3C253,313.8,252.7,314.2,252.3,314.5z"/>
	<path class="st8" d="M234.5,317v1.3c0,0.4,0.2,0.7,0.7,1V318C234.7,317.7,234.5,317.3,234.5,317z"/>
	<path class="st8" d="M234.5,317v1.3c0,0.2,0.1,0.4,0.3,0.6v-1.3C234.6,317.4,234.5,317.2,234.5,317z"/>
	<path class="st8" d="M234.7,317.6v1.3c0.1,0.1,0.3,0.3,0.4,0.4V318C235,317.9,234.8,317.8,234.7,317.6z"/>
	<path class="st8" d="M235.2,318l0,1.3l3.8,2.2l0-1.3L235.2,318z"/>
	<path class="st8" d="M242.4,320.2l0,1.3l9.8-5.7v-1.3L242.4,320.2z"/>
	<path class="st8" d="M238.9,320.2v1.3c1,0.5,2.5,0.5,3.5,0v-1.3C241.5,320.7,239.9,320.7,238.9,320.2z"/>
	<path class="st8" d="M239,320.2v1.3c0.3,0.2,0.8,0.3,1.2,0.4v-1.3C239.7,320.5,239.3,320.4,239,320.2z"/>
	<path class="st8" d="M240.2,320.6v1.3c0.8,0.1,1.6,0,2.2-0.4v-1.3C241.8,320.5,241,320.7,240.2,320.6z"/>
	<path class="st8" d="M254.4,320.5v1.3c0,0.4,0.2,0.7,0.7,1v-1.3C254.7,321.3,254.4,320.9,254.4,320.5z"/>
	<path class="st8" d="M254.4,320.5v1.3c0,0.2,0.1,0.4,0.3,0.6v-1.3C254.5,321,254.4,320.8,254.4,320.5z"/>
	<path class="st8" d="M254.7,321.2v1.3c0.1,0.1,0.3,0.3,0.4,0.4v-1.3C254.9,321.4,254.8,321.3,254.7,321.2z"/>
	<path class="st8" d="M278.9,321.9v-1.3c0,0.4-0.2,0.7-0.7,1v1.3C278.7,322.6,278.9,322.2,278.9,321.9z"/>
	<path class="st8" d="M278.2,321.5v1.3c0.5-0.3,0.7-0.7,0.7-1v-1.3C278.9,320.9,278.7,321.3,278.2,321.5z"/>
	<path class="st8" d="M255.1,321.5v1.3l9.8,5.7v-1.3L255.1,321.5z"/>
	<path class="st8" d="M268.4,327.2l0,1.3l9.8-5.7v-1.3L268.4,327.2z"/>
	<path class="st8" d="M264.9,327.2v1.3c0.9,0.6,2.5,0.6,3.5,0v-1.3C267.4,327.8,265.9,327.8,264.9,327.2z"/>
	<path class="st8" d="M264.9,327.2v1.3c0.4,0.2,0.8,0.3,1.2,0.4v-1.3C265.7,327.6,265.3,327.4,264.9,327.2z"/>
	<path class="st8" d="M266.1,327.6v1.3c0.8,0.1,1.6,0,2.3-0.4v-1.3C267.8,327.6,266.9,327.7,266.1,327.6z"/>
	<path class="st8" d="M238.3,329.9v1.3c0,0.4,0.2,0.7,0.7,1v-1.3C238.5,330.6,238.3,330.2,238.3,329.9z"/>
	<path class="st8" d="M238.3,329.9v1.3c0,0.2,0.1,0.4,0.3,0.6v-1.3C238.4,330.3,238.3,330.1,238.3,329.9z"/>
	<path class="st8" d="M238.5,330.5v1.3c0.1,0.1,0.3,0.3,0.5,0.4v-1.3C238.8,330.8,238.7,330.6,238.5,330.5z"/>
	<path class="st8" d="M262.8,331.2v-1.3c0,0.4-0.2,0.7-0.7,1v1.3C262.6,331.9,262.8,331.6,262.8,331.2z"/>
	<path class="st8" d="M262.1,330.9v1.3c0.5-0.3,0.7-0.6,0.7-1v-1.3C262.8,330.2,262.6,330.6,262.1,330.9z"/>
	<path class="st8" d="M239,330.9v1.3l9.8,5.7v-1.3L239,330.9z"/>
	<path class="st8" d="M252.2,336.6v1.3l9.9-5.7v-1.3L252.2,336.6z"/>
	<path class="st8" d="M248.8,336.6v1.3c1,0.6,2.5,0.6,3.5,0v-1.3C251.3,337.1,249.7,337.1,248.8,336.6z"/>
	<path class="st8" d="M248.8,336.6v1.3c0.4,0.2,0.8,0.3,1.2,0.4v-1.3C249.5,336.9,249.1,336.8,248.8,336.6z"/>
	<path class="st8" d="M250,336.9v1.3c0.8,0.1,1.6,0,2.2-0.4v-1.3C251.6,336.9,250.8,337,250,336.9z"/>
	<path class="st8" d="M233.7,326v-1.3c0,0.4-0.2,0.7-0.7,1v1.3C233.4,326.7,233.7,326.3,233.7,326z"/>
	<path class="st8" d="M232.9,325.7v1.3c0.5-0.3,0.7-0.7,0.7-1v-1.3C233.7,325,233.4,325.4,232.9,325.7z"/>
	<path class="st8" d="M215.1,328.1v1.3c0,0.4,0.2,0.7,0.7,1v-1.3C215.4,328.9,215.1,328.5,215.1,328.1z"/>
	<path class="st8" d="M215.1,328.2v1.3c0,0.2,0.1,0.4,0.3,0.6v-1.3C215.2,328.6,215.1,328.4,215.1,328.2z"/>
	<path class="st8" d="M215.4,328.8v1.3c0.1,0.1,0.3,0.3,0.4,0.4v-1.3C215.7,329,215.5,328.9,215.4,328.8z"/>
	<path class="st8" d="M215.8,329.1v1.3l3.8,2.2v-1.3L215.8,329.1z"/>
	<path class="st8" d="M223.1,331.3v1.3l9.9-5.7v-1.3L223.1,331.3z"/>
	<path class="st8" d="M219.6,331.3v1.3c0.9,0.5,2.5,0.5,3.5,0v-1.3C222.1,331.9,220.6,331.9,219.6,331.3z"/>
	<path class="st8" d="M219.6,331.3v1.3c0.4,0.2,0.8,0.3,1.2,0.4v-1.3C220.4,331.7,220,331.5,219.6,331.3z"/>
	<path class="st8" d="M220.9,331.7v1.3c0.8,0.1,1.6,0,2.2-0.4v-1.3C222.5,331.7,221.6,331.8,220.9,331.7z"/>
	<path class="st8" d="M222.1,339.2v1.3c0,0.4,0.2,0.7,0.7,1v-1.3C222.4,339.9,222.1,339.6,222.1,339.2z"/>
	<path class="st8" d="M222.1,339.2v1.3c0,0.2,0.1,0.4,0.3,0.6v-1.3C222.2,339.6,222.1,339.4,222.1,339.2z"/>
	<path class="st8" d="M222.4,339.8v1.3c0.1,0.1,0.3,0.3,0.4,0.4v-1.3C222.7,340.1,222.5,340,222.4,339.8z"/>
	<path class="st8" d="M246.7,340.5v-1.3c0,0.4-0.2,0.7-0.7,1v1.3C246.4,341.2,246.7,340.9,246.7,340.5z"/>
	<path class="st8" d="M245.9,340.2v1.3c0.5-0.3,0.7-0.7,0.7-1v-1.3C246.7,339.5,246.4,339.9,245.9,340.2z"/>
	<path class="st8" d="M222.8,340.2v1.3l9.8,5.7v-1.3L222.8,340.2z"/>
	<path class="st8" d="M236.1,345.9v1.3l9.9-5.7v-1.3L236.1,345.9z"/>
	<path class="st8" d="M232.6,345.9v1.3c1,0.6,2.5,0.6,3.5,0v-1.3C235.1,346.4,233.6,346.4,232.6,345.9z"/>
	<path class="st8" d="M232.6,345.9v1.3c0.3,0.2,0.8,0.3,1.2,0.4v-1.3C233.4,346.2,233,346.1,232.6,345.9z"/>
	<path class="st8" d="M233.9,346.3v1.3c0.8,0.1,1.6,0,2.2-0.4v-1.3C235.5,346.2,234.6,346.4,233.9,346.3z"/>
	<path class="st8" d="M214.3,337.1v-1.3c0,0.4-0.3,0.7-0.7,1v1.3C214.1,337.9,214.3,337.5,214.3,337.1z"/>
	<path class="st8" d="M213.6,336.8v1.3c0.5-0.3,0.7-0.6,0.7-1v-1.3C214.3,336.2,214.1,336.5,213.6,336.8z"/>
	<path class="st8" d="M195.8,339.3v1.3c0,0.4,0.2,0.7,0.7,1v-1.3C196,340,195.8,339.7,195.8,339.3z"/>
	<path class="st8" d="M195.8,339.3v1.3c0,0.2,0.1,0.4,0.3,0.6V340C195.9,339.8,195.8,339.5,195.8,339.3z"/>
	<path class="st8" d="M196.1,340v1.3c0.1,0.1,0.3,0.3,0.4,0.4v-1.3C196.3,340.2,196.2,340.1,196.1,340z"/>
	<path class="st8" d="M196.5,340.3v1.3l3.8,2.2v-1.3L196.5,340.3z"/>
	<path class="st8" d="M203.7,342.5v1.3l9.9-5.7l0-1.3L203.7,342.5z"/>
	<path class="st8" d="M200.3,342.5v1.3c1,0.5,2.5,0.5,3.5,0v-1.3C202.8,343.1,201.2,343.1,200.3,342.5z"/>
	<path class="st8" d="M200.3,342.5v1.3c0.4,0.2,0.8,0.3,1.2,0.4v-1.3C201.1,342.8,200.6,342.7,200.3,342.5z"/>
	<path class="st8" d="M201.5,342.9v1.3c0.8,0.1,1.6,0,2.3-0.4v-1.3C203.1,342.9,202.3,343,201.5,342.9z"/>
	<path class="st8" d="M206,348.5v1.3c0,0.4,0.2,0.7,0.7,1v-1.3C206.2,349.2,206,348.9,206,348.5z"/>
	<path class="st8" d="M206,348.5v1.3c0,0.2,0.1,0.4,0.3,0.6v-1.3C206.1,348.9,206,348.7,206,348.5z"/>
	<path class="st8" d="M206.3,349.1v1.3c0.1,0.1,0.3,0.3,0.4,0.4v-1.3C206.5,349.4,206.4,349.3,206.3,349.1z"/>
	<path class="st8" d="M230.5,349.8v-1.3c0,0.4-0.2,0.7-0.7,1v1.3C230.3,350.6,230.5,350.2,230.5,349.8z"/>
	<path class="st8" d="M229.8,349.5v1.3c0.5-0.3,0.7-0.7,0.7-1v-1.3C230.5,348.9,230.3,349.2,229.8,349.5z"/>
	<path class="st8" d="M206.7,349.5l0,1.3l9.8,5.7v-1.3L206.7,349.5z"/>
	<path class="st8" d="M219.9,355.2v1.3l9.9-5.7v-1.3L219.9,355.2z"/>
	<path class="st8" d="M216.5,355.2v1.3c1,0.6,2.5,0.6,3.5,0v-1.3C219,355.7,217.4,355.7,216.5,355.2z"/>
	<path class="st8" d="M216.5,355.2v1.3c0.3,0.2,0.8,0.3,1.2,0.4v-1.3C217.3,355.5,216.8,355.4,216.5,355.2z"/>
	<path class="st8" d="M217.7,355.6v1.3c0.8,0.1,1.6,0,2.2-0.4v-1.3C219.3,355.5,218.5,355.7,217.7,355.6z"/>
	<path class="st8" d="M195,348.3V347c0,0.4-0.2,0.7-0.7,1v1.3C194.8,349,195,348.7,195,348.3z"/>
	<path class="st8" d="M194.3,348v1.3c0.5-0.3,0.7-0.7,0.7-1V347C195,347.3,194.7,347.7,194.3,348z"/>
	<path class="st8" d="M176.5,350.5v1.3c0,0.4,0.2,0.7,0.7,1v-1.3C176.7,351.2,176.5,350.8,176.5,350.5z"/>
	<path class="st8" d="M176.5,350.5v1.3c0,0.2,0.1,0.4,0.3,0.6v-1.3C176.5,350.9,176.5,350.7,176.5,350.5z"/>
	<path class="st8" d="M176.7,351.1v1.3c0.1,0.1,0.3,0.3,0.5,0.4v-1.3C177,351.4,176.8,351.3,176.7,351.1z"/>
	<path class="st8" d="M177.2,351.5l0,1.3l3.8,2.2l0-1.3L177.2,351.5z"/>
	<path class="st8" d="M184.4,353.7v1.3l9.8-5.7V348L184.4,353.7z"/>
	<path class="st8" d="M181,353.7v1.3c1,0.6,2.5,0.6,3.5,0v-1.3C183.5,354.2,181.9,354.2,181,353.7z"/>
	<path class="st8" d="M181,353.7v1.3c0.4,0.2,0.8,0.3,1.2,0.4v-1.3C181.7,354,181.3,353.9,181,353.7z"/>
	<path class="st8" d="M182.2,354.1v1.3c0.8,0.1,1.6,0,2.3-0.4v-1.3C183.8,354,183,354.2,182.2,354.1z"/>
	<path class="st8" d="M189.8,357.8v1.3c0,0.4,0.2,0.7,0.7,1v-1.3C190.1,358.5,189.9,358.2,189.8,357.8z"/>
	<path class="st8" d="M189.8,357.8v1.3c0,0.2,0.1,0.4,0.3,0.6v-1.3C189.9,358.3,189.9,358,189.8,357.8z"/>
	<path class="st8" d="M190.1,358.5v1.3c0.1,0.1,0.3,0.3,0.4,0.4v-1.3C190.4,358.7,190.2,358.6,190.1,358.5z"/>
	<path class="st8" d="M214.4,359.1v-1.3c0,0.4-0.2,0.7-0.7,1v1.3C214.1,359.9,214.4,359.5,214.4,359.1z"/>
	<path class="st8" d="M213.7,358.8v1.3c0.5-0.3,0.7-0.6,0.7-1v-1.3C214.4,358.2,214.1,358.5,213.7,358.8z"/>
	<path class="st8" d="M190.6,358.8l0,1.3l9.8,5.7v-1.3L190.6,358.8z"/>
	<path class="st8" d="M203.8,364.5v1.3l9.9-5.7v-1.3L203.8,364.5z"/>
	<path class="st8" d="M200.3,364.5v1.3c0.9,0.5,2.5,0.5,3.5,0v-1.3C202.8,365.1,201.3,365.1,200.3,364.5z"/>
	<path class="st8" d="M200.3,364.5v1.3c0.4,0.2,0.8,0.3,1.2,0.4v-1.3C201.1,364.8,200.7,364.7,200.3,364.5z"/>
	<path class="st8" d="M201.6,364.9v1.3c0.8,0.1,1.6,0,2.2-0.4v-1.3C203.2,364.9,202.3,365,201.6,364.9z"/>
	<path class="st8" d="M175.7,359.5v-1.3c0,0.4-0.2,0.7-0.7,1v1.3C175.4,360.2,175.7,359.8,175.7,359.5z"/>
	<path class="st8" d="M174.9,359.1v1.3c0.5-0.3,0.7-0.7,0.7-1v-1.3C175.7,358.5,175.4,358.9,174.9,359.1z"/>
	<path class="st8" d="M157.1,361.6v1.3c0,0.4,0.2,0.7,0.7,1v-1.3C157.4,362.4,157.1,362,157.1,361.6z"/>
	<path class="st8" d="M157.1,361.6v1.3c0,0.2,0.1,0.4,0.3,0.6v-1.3C157.2,362.1,157.1,361.9,157.1,361.6z"/>
	<path class="st8" d="M157.4,362.3v1.3c0.1,0.1,0.3,0.3,0.4,0.4v-1.3C157.7,362.5,157.5,362.4,157.4,362.3z"/>
	<path class="st8" d="M157.8,362.6v1.3l3.8,2.2v-1.3L157.8,362.6z"/>
	<path class="st8" d="M165.1,364.8v1.3l9.8-5.7v-1.3L165.1,364.8z"/>
	<path class="st8" d="M161.6,364.8v1.3c1,0.6,2.5,0.6,3.5,0v-1.3C164.1,365.4,162.6,365.4,161.6,364.8z"/>
	<path class="st8" d="M161.6,364.8v1.3c0.4,0.2,0.8,0.3,1.2,0.4v-1.3C162.4,365.2,162,365,161.6,364.8z"/>
	<path class="st8" d="M162.8,365.2v1.3c0.8,0.1,1.6,0,2.3-0.4v-1.3C164.5,365.2,163.6,365.3,162.8,365.2z"/>
	<path class="st8" d="M173.7,367.2v1.3c0,0.4,0.2,0.7,0.7,1v-1.3C174,367.9,173.7,367.5,173.7,367.2z"/>
	<path class="st8" d="M173.7,367.2v1.3c0,0.2,0.1,0.4,0.3,0.6v-1.3C173.8,367.6,173.7,367.4,173.7,367.2z"/>
	<path class="st8" d="M174,367.8v1.3c0.1,0.1,0.3,0.3,0.4,0.4v-1.3C174.2,368,174.1,367.9,174,367.8z"/>
	<path class="st8" d="M198.2,368.5v-1.3c0,0.4-0.2,0.7-0.7,1v1.3C198,369.2,198.2,368.8,198.2,368.5z"/>
	<path class="st8" d="M197.5,368.1v1.3c0.5-0.3,0.7-0.6,0.7-1v-1.3C198.2,367.5,198,367.9,197.5,368.1z"/>
	<path class="st8" d="M174.4,368.1l0,1.3l9.8,5.7v-1.3L174.4,368.1z"/>
	<path class="st8" d="M187.7,373.8v1.3l9.9-5.7v-1.3L187.7,373.8z"/>
	<path class="st8" d="M184.2,373.8v1.3c1,0.6,2.5,0.6,3.5,0v-1.3C186.7,374.4,185.2,374.4,184.2,373.8z"/>
	<path class="st8" d="M184.2,373.8v1.3c0.3,0.2,0.8,0.3,1.2,0.4v-1.3C185,374.2,184.6,374,184.2,373.8z"/>
	<path class="st8" d="M185.4,374.2v1.3c0.8,0.1,1.6,0,2.2-0.4v-1.3C187.1,374.2,186.2,374.3,185.4,374.2z"/>
	<path class="st8" d="M156.3,370.6v-1.3c0,0.4-0.2,0.7-0.7,1v1.3C156.1,371.4,156.3,371,156.3,370.6z"/>
	<path class="st8" d="M155.6,370.3v1.3c0.5-0.3,0.7-0.7,0.7-1v-1.3C156.3,369.7,156.1,370,155.6,370.3z"/>
	<path class="st8" d="M137.8,372.8v1.3c0,0.4,0.2,0.7,0.7,1v-1.3C138,373.5,137.8,373.2,137.8,372.8z"/>
	<path class="st8" d="M137.8,372.8v1.3c0,0.2,0.1,0.4,0.3,0.6v-1.3C137.9,373.2,137.8,373,137.8,372.8z"/>
	<path class="st8" d="M138.1,373.4v1.3c0.1,0.1,0.3,0.3,0.4,0.4v-1.3C138.3,373.7,138.2,373.6,138.1,373.4z"/>
	<path class="st8" d="M138.5,373.8v1.3l3.8,2.2V376L138.5,373.8z"/>
	<path class="st8" d="M145.7,376l0,1.3l9.8-5.7v-1.3L145.7,376z"/>
	<path class="st8" d="M142.3,376v1.3c0.9,0.6,2.5,0.6,3.5,0V376C144.8,376.5,143.2,376.5,142.3,376z"/>
	<path class="st8" d="M142.3,376v1.3c0.3,0.2,0.8,0.3,1.2,0.4v-1.3C143.1,376.3,142.6,376.2,142.3,376z"/>
	<path class="st8" d="M143.5,376.4v1.3c0.8,0.1,1.6,0,2.3-0.4V376C145.2,376.3,144.3,376.5,143.5,376.4z"/>
	<path class="st8" d="M157.6,376.5v1.3c0,0.4,0.2,0.7,0.7,1v-1.3C157.8,377.2,157.6,376.8,157.6,376.5z"/>
	<path class="st8" d="M157.6,376.5v1.3c0,0.2,0.1,0.4,0.3,0.6v-1.3C157.7,376.9,157.6,376.7,157.6,376.5z"/>
	<path class="st8" d="M157.8,377.1v1.3c0.1,0.1,0.3,0.3,0.4,0.4v-1.3C158.1,377.4,157.9,377.2,157.8,377.1z"/>
	<path class="st8" d="M182.1,377.8v-1.3c0,0.4-0.2,0.7-0.7,1v1.3C181.9,378.5,182.1,378.1,182.1,377.8z"/>
	<path class="st8" d="M181.4,377.5v1.3c0.5-0.3,0.7-0.7,0.7-1v-1.3C182.1,376.8,181.9,377.2,181.4,377.5z"/>
	<path class="st8" d="M158.3,377.5l0,1.3l9.8,5.7v-1.3L158.3,377.5z"/>
	<path class="st8" d="M171.5,383.1v1.3l9.9-5.7v-1.3L171.5,383.1z"/>
	<path class="st8" d="M168.1,383.1v1.3c1,0.5,2.5,0.5,3.5,0v-1.3C170.6,383.7,169,383.7,168.1,383.1z"/>
	<path class="st8" d="M168.1,383.1v1.3c0.4,0.2,0.8,0.3,1.2,0.4v-1.3C168.8,383.5,168.4,383.3,168.1,383.1z"/>
	<path class="st8" d="M169.3,383.5v1.3c0.8,0.1,1.6,0,2.2-0.4v-1.3C170.9,383.5,170.1,383.6,169.3,383.5z"/>
	<path class="st8" d="M141.4,385.8v1.3c0,0.4,0.2,0.7,0.7,1v-1.3C141.7,386.5,141.4,386.2,141.4,385.8z"/>
	<path class="st8" d="M141.4,385.8v1.3c0,0.2,0.1,0.4,0.3,0.6v-1.3C141.5,386.2,141.4,386,141.4,385.8z"/>
	<path class="st8" d="M141.7,386.4v1.3c0.1,0.1,0.3,0.3,0.4,0.4v-1.3C141.9,386.7,141.8,386.6,141.7,386.4z"/>
	<path class="st8" d="M165.9,387.1v-1.3c0,0.4-0.2,0.7-0.7,1v1.3C165.7,387.8,166,387.5,165.9,387.1z"/>
	<path class="st8" d="M165.2,386.8v1.3c0.5-0.3,0.7-0.6,0.7-1v-1.3C165.9,386.1,165.7,386.5,165.2,386.8z"/>
	<path class="st8" d="M142.1,386.8l0,1.3l9.8,5.7v-1.3L142.1,386.8z"/>
	<path class="st8" d="M155.4,392.5v1.3l9.9-5.7v-1.3L155.4,392.5z"/>
	<path class="st8" d="M151.9,392.5v1.3c1,0.5,2.5,0.5,3.5,0v-1.3C154.4,393,152.9,393,151.9,392.5z"/>
	<path class="st8" d="M151.9,392.5v1.3c0.4,0.2,0.8,0.3,1.2,0.4v-1.3C152.7,392.8,152.3,392.7,151.9,392.5z"/>
	<path class="st8" d="M153.1,392.9v1.3c0.8,0.1,1.6,0,2.2-0.4v-1.3C154.8,392.8,153.9,393,153.1,392.9z"/>
	<path class="st8" d="M137,381.8v-1.3c0,0.4-0.2,0.7-0.7,1v1.3C136.8,382.5,137,382.1,137,381.8z"/>
	<path class="st8" d="M136.3,381.5v1.3c0.5-0.3,0.7-0.7,0.7-1v-1.3C137,380.8,136.8,381.2,136.3,381.5z"/>
	<path class="st8" d="M118.5,384v1.3c0,0.4,0.2,0.7,0.7,1V385C118.7,384.7,118.5,384.3,118.5,384z"/>
	<path class="st8" d="M118.5,384v1.3c0,0.2,0.1,0.4,0.3,0.6v-1.3C118.6,384.4,118.5,384.2,118.5,384z"/>
	<path class="st8" d="M118.7,384.6v1.3c0.1,0.1,0.3,0.3,0.5,0.4V385C119,384.8,118.8,384.7,118.7,384.6z"/>
	<path class="st8" d="M119.2,384.9v1.3l3.8,2.2v-1.3L119.2,384.9z"/>
	<path class="st8" d="M126.4,387.1v1.3l9.9-5.7v-1.3L126.4,387.1z"/>
	<path class="st8" d="M123,387.1v1.3c0.9,0.6,2.5,0.6,3.5,0v-1.3C125.5,387.7,123.9,387.7,123,387.1z"/>
	<path class="st8" d="M123,387.1v1.3c0.3,0.2,0.8,0.3,1.2,0.4v-1.3C123.7,387.5,123.3,387.4,123,387.1z"/>
	<path class="st8" d="M124.2,387.5v1.3c0.8,0.1,1.6,0,2.3-0.4v-1.3C125.8,387.5,125,387.6,124.2,387.5z"/>
	<path class="st8" d="M125.3,395.1v1.3c0,0.4,0.2,0.7,0.7,1v-1.3C125.5,395.8,125.3,395.5,125.3,395.1z"/>
	<path class="st8" d="M125.3,395.1v1.3c0,0.2,0.1,0.4,0.3,0.6v-1.3C125.4,395.5,125.3,395.3,125.3,395.1z"/>
	<path class="st8" d="M125.5,395.7v1.3c0.1,0.1,0.3,0.3,0.5,0.4v-1.3C125.8,396,125.7,395.9,125.5,395.7z"/>
	<path class="st8" d="M149.8,396.4v-1.3c0,0.4-0.2,0.7-0.7,1v1.3C149.6,397.2,149.8,396.8,149.8,396.4z"/>
	<path class="st8" d="M149.1,396.1v1.3c0.5-0.3,0.7-0.7,0.7-1v-1.3C149.8,395.5,149.6,395.8,149.1,396.1z"/>
	<path class="st8" d="M126,396.1l0,1.3l9.8,5.7v-1.3L126,396.1z"/>
	<path class="st8" d="M139.2,401.8v1.3l9.9-5.7v-1.3L139.2,401.8z"/>
	<path class="st8" d="M135.8,401.8v1.3c1,0.6,2.5,0.6,3.5,0v-1.3C138.3,402.3,136.7,402.3,135.8,401.8z"/>
	<path class="st8" d="M135.8,401.8v1.3c0.4,0.2,0.8,0.3,1.2,0.4v-1.3C136.5,402.1,136.1,402,135.8,401.8z"/>
	<path class="st8" d="M137,402.2v1.3c0.8,0.1,1.6,0,2.2-0.4v-1.3C138.6,402.1,137.8,402.3,137,402.2z"/>
	<path class="st8" d="M117.7,392.9v-1.3c0,0.4-0.2,0.7-0.7,1v1.3C117.4,393.7,117.7,393.3,117.7,392.9z"/>
	<path class="st8" d="M116.9,392.6v1.3c0.5-0.3,0.7-0.7,0.7-1v-1.3C117.7,392,117.4,392.3,116.9,392.6z"/>
	<path class="st8" d="M99.1,395.1v1.3c0,0.4,0.2,0.7,0.7,1v-1.3C99.4,395.8,99.1,395.5,99.1,395.1z"/>
	<path class="st8" d="M99.1,395.1v1.3c0,0.2,0.1,0.4,0.3,0.6v-1.3C99.2,395.6,99.1,395.3,99.1,395.1z"/>
	<path class="st8" d="M99.4,395.8v1.3c0.1,0.1,0.3,0.3,0.5,0.4v-1.3C99.7,396,99.5,395.9,99.4,395.8z"/>
	<path class="st8" d="M99.9,396.1v1.3l3.8,2.2v-1.3L99.9,396.1z"/>
	<path class="st8" d="M107.1,398.3v1.3l9.9-5.7l0-1.3L107.1,398.3z"/>
	<path class="st8" d="M103.6,398.3v1.3c0.9,0.5,2.5,0.5,3.5,0v-1.3C106.1,398.9,104.6,398.9,103.6,398.3z"/>
	<path class="st8" d="M103.6,398.3v1.3c0.3,0.2,0.8,0.3,1.2,0.4v-1.3C104.4,398.6,104,398.5,103.6,398.3z"/>
	<path class="st8" d="M104.8,398.7v1.3c0.8,0.1,1.6,0,2.3-0.4v-1.3C106.5,398.7,105.6,398.8,104.8,398.7z"/>
	<path class="st8" d="M109.1,404.4v1.3c0,0.4,0.2,0.7,0.7,1v-1.3C109.4,405.1,109.1,404.8,109.1,404.4z"/>
	<path class="st8" d="M109.1,404.4v1.3c0,0.2,0.1,0.4,0.3,0.6v-1.3C109.2,404.9,109.1,404.6,109.1,404.4z"/>
	<path class="st8" d="M109.4,405.1v1.3c0.1,0.1,0.3,0.3,0.4,0.4v-1.3C109.7,405.3,109.5,405.2,109.4,405.1z"/>
	<path class="st8" d="M133.7,405.7v-1.3c0,0.4-0.2,0.7-0.7,1v1.3C133.4,406.5,133.7,406.1,133.7,405.7z"/>
	<path class="st8" d="M132.9,405.4v1.3c0.5-0.3,0.7-0.7,0.7-1v-1.3C133.7,404.8,133.4,405.1,132.9,405.4z"/>
	<path class="st8" d="M109.8,405.4l0,1.3l9.8,5.7v-1.3L109.8,405.4z"/>
	<path class="st8" d="M123.1,411.1v1.3l9.9-5.7v-1.3L123.1,411.1z"/>
	<path class="st8" d="M119.6,411.1v1.3c0.9,0.6,2.5,0.6,3.5,0v-1.3C122.1,411.7,120.6,411.7,119.6,411.1z"/>
	<path class="st8" d="M119.6,411.1v1.3c0.3,0.2,0.8,0.3,1.2,0.4v-1.3C120.4,411.5,120,411.3,119.6,411.1z"/>
	<path class="st8" d="M120.9,411.5v1.3c0.8,0.1,1.6,0,2.2-0.4v-1.3C122.5,411.5,121.6,411.6,120.9,411.5z"/>
	<path class="st8" d="M98.3,404.1v-1.3c0,0.4-0.2,0.7-0.7,1v1.3C98.1,404.8,98.3,404.5,98.3,404.1z"/>
	<path class="st8" d="M97.6,403.8v1.3c0.5-0.3,0.7-0.7,0.7-1v-1.3C98.3,403.1,98.1,403.5,97.6,403.8z"/>
	<path class="st8" d="M79.8,406.3v1.3c0,0.4,0.2,0.7,0.7,1v-1.3C80,407,79.8,406.6,79.8,406.3z"/>
	<path class="st8" d="M79.8,406.3v1.3c0,0.2,0.1,0.4,0.3,0.6v-1.3C79.9,406.7,79.8,406.5,79.8,406.3z"/>
	<path class="st8" d="M80.1,406.9v1.3c0.1,0.1,0.3,0.3,0.5,0.4v-1.3C80.3,407.2,80.2,407,80.1,406.9z"/>
	<path class="st8" d="M80.5,407.3l0,1.3l3.8,2.2l0-1.3L80.5,407.3z"/>
	<path class="st8" d="M87.8,409.5v1.3l9.8-5.7v-1.3L87.8,409.5z"/>
	<path class="st8" d="M84.3,409.5v1.3c1,0.5,2.5,0.5,3.5,0v-1.3C86.8,410,85.2,410,84.3,409.5z"/>
	<path class="st8" d="M84.3,409.5v1.3c0.4,0.2,0.8,0.3,1.2,0.4v-1.3C85.1,409.8,84.6,409.7,84.3,409.5z"/>
	<path class="st8" d="M85.5,409.8v1.3c0.8,0.1,1.6,0,2.3-0.4v-1.3C87.1,409.8,86.3,409.9,85.5,409.8z"/>
	<path class="st8" d="M93,413.8v1.3c0,0.4,0.2,0.7,0.7,1v-1.3C93.2,414.5,93,414.1,93,413.8z"/>
	<path class="st8" d="M93,413.8v1.3c0,0.2,0.1,0.4,0.3,0.6v-1.3C93.1,414.2,93,414,93,413.8z"/>
	<path class="st8" d="M93.3,414.4v1.3c0.1,0.1,0.3,0.3,0.5,0.4v-1.3C93.5,414.6,93.4,414.5,93.3,414.4z"/>
	<path class="st8" d="M117.5,415.1v-1.3c0,0.4-0.2,0.7-0.7,1v1.3C117.3,415.8,117.5,415.4,117.5,415.1z"/>
	<path class="st8" d="M116.8,414.8v1.3c0.5-0.3,0.7-0.7,0.7-1v-1.3C117.5,414.1,117.3,414.5,116.8,414.8z"/>
	<path class="st8" d="M93.7,414.8l0,1.3l9.8,5.7v-1.3L93.7,414.8z"/>
	<path class="st8" d="M106.9,420.4v1.3l9.9-5.7v-1.3L106.9,420.4z"/>
	<path class="st8" d="M103.5,420.4v1.3c1,0.6,2.5,0.6,3.5,0v-1.3C106,421,104.4,421,103.5,420.4z"/>
	<path class="st8" d="M103.5,420.4v1.3c0.4,0.2,0.8,0.3,1.2,0.4v-1.3C104.3,420.8,103.8,420.6,103.5,420.4z"/>
	<path class="st8" d="M104.7,420.8v1.3c0.8,0.1,1.6,0,2.2-0.4v-1.3C106.3,420.8,105.5,420.9,104.7,420.8z"/>
	<path class="st8" d="M326.4,312.7v-1.3c0,0.4-0.2,0.7-0.7,1v1.3C326.2,313.5,326.4,313.1,326.4,312.7z"/>
	<path class="st8" d="M325.7,312.4v1.3c0.5-0.3,0.7-0.7,0.7-1v-1.3C326.4,311.8,326.2,312.1,325.7,312.4z"/>
	<path class="st8" d="M277.7,325.4v1.3c0,0.4,0.2,0.7,0.7,1v-1.3C277.9,326.1,277.7,325.8,277.7,325.4z"/>
	<path class="st8" d="M277.7,325.4v1.3c0,0.2,0.1,0.4,0.3,0.6V326C277.8,325.8,277.7,325.6,277.7,325.4z"/>
	<path class="st8" d="M277.9,326v1.3c0.1,0.1,0.3,0.3,0.5,0.4v-1.3C278.2,326.3,278.1,326.2,277.9,326z"/>
	<path class="st8" d="M278.4,326.4l0,1.3l9.8,5.7v-1.3L278.4,326.4z"/>
	<path class="st8" d="M291.6,332.1l0,1.3l34.1-19.7v-1.3L291.6,332.1z"/>
	<path class="st8" d="M288.2,332.1v1.3c1,0.6,2.5,0.6,3.5,0v-1.3C290.7,332.6,289.1,332.6,288.2,332.1z"/>
	<path class="st8" d="M288.2,332.1v1.3c0.4,0.2,0.8,0.3,1.2,0.4v-1.3C288.9,332.4,288.5,332.3,288.2,332.1z"/>
	<path class="st8" d="M289.4,332.5v1.3c0.8,0.1,1.6,0,2.2-0.4v-1.3C291,332.4,290.2,332.6,289.4,332.5z"/>
	<path class="st8" d="M262.1,334.4v1.3c0,0.4,0.2,0.7,0.7,1v-1.3C262.4,335.1,262.1,334.7,262.1,334.4z"/>
	<path class="st8" d="M262.1,334.4v1.3c0,0.2,0.1,0.4,0.3,0.6V335C262.2,334.8,262.1,334.6,262.1,334.4z"/>
	<path class="st8" d="M262.4,335v1.3c0.1,0.1,0.3,0.3,0.4,0.4v-1.3C262.7,335.3,262.5,335.2,262.4,335z"/>
	<path class="st8" d="M286.7,335.7v-1.3c0,0.4-0.2,0.7-0.7,1v1.3C286.4,336.4,286.7,336.1,286.7,335.7z"/>
	<path class="st8" d="M286,335.4v1.3c0.5-0.3,0.7-0.6,0.7-1v-1.3C286.7,334.7,286.4,335.1,286,335.4z"/>
	<path class="st8" d="M262.9,335.4v1.3l9.8,5.7v-1.3L262.9,335.4z"/>
	<path class="st8" d="M276.1,341.1v1.3l9.9-5.7v-1.3L276.1,341.1z"/>
	<path class="st8" d="M272.6,341.1v1.3c1,0.5,2.5,0.5,3.5,0v-1.3C275.1,341.6,273.6,341.6,272.6,341.1z"/>
	<path class="st8" d="M272.6,341.1v1.3c0.4,0.2,0.8,0.3,1.2,0.4v-1.3C273.4,341.4,273,341.3,272.6,341.1z"/>
	<path class="st8" d="M273.9,341.5v1.3c0.8,0.1,1.6,0,2.2-0.4v-1.3C275.5,341.4,274.6,341.5,273.9,341.5z"/>
	<path class="st8" d="M342.2,321.9v-1.3c0,0.4-0.2,0.7-0.7,1v1.3C342,322.6,342.2,322.3,342.2,321.9z"/>
	<path class="st8" d="M341.5,321.6v1.3c0.5-0.3,0.7-0.7,0.7-1v-1.3C342.2,320.9,342,321.3,341.5,321.6z"/>
	<path class="st8" d="M301.5,329.9v1.3c0,0.4,0.2,0.7,0.7,1v-1.3C301.8,330.6,301.5,330.3,301.5,329.9z"/>
	<path class="st8" d="M301.5,329.9v1.3c0,0.2,0.1,0.4,0.3,0.6v-1.3C301.6,330.4,301.5,330.1,301.5,329.9z"/>
	<path class="st8" d="M301.8,330.6v1.3c0.1,0.1,0.3,0.3,0.5,0.4v-1.3C302.1,330.8,301.9,330.7,301.8,330.6z"/>
	<path class="st8" d="M302.3,330.9v1.3l9.8,5.7v-1.3L302.3,330.9z"/>
	<path class="st8" d="M315.5,336.6v1.3l26-15v-1.3L315.5,336.6z"/>
	<path class="st8" d="M312.1,336.6v1.3c0.9,0.6,2.5,0.6,3.5,0v-1.3C314.6,337.2,313,337.2,312.1,336.6z"/>
	<path class="st8" d="M312.1,336.6v1.3c0.4,0.2,0.8,0.3,1.2,0.4V337C312.8,336.9,312.4,336.8,312.1,336.6z"/>
	<path class="st8" d="M313.3,337v1.3c0.8,0.1,1.6,0,2.3-0.4v-1.3C314.9,337,314,337.1,313.3,337z"/>
	<path class="st8" d="M286,338.9v1.3c0,0.4,0.2,0.7,0.7,1v-1.3C286.2,339.6,286,339.3,286,338.9z"/>
	<path class="st8" d="M286,338.9v1.3c0,0.2,0.1,0.4,0.3,0.6v-1.3C286.1,339.3,286,339.1,286,338.9z"/>
	<path class="st8" d="M286.2,339.5v1.3c0.1,0.1,0.3,0.3,0.5,0.4v-1.3C286.5,339.8,286.4,339.7,286.2,339.5z"/>
	<path class="st8" d="M310.5,340.2v-1.3c0,0.4-0.2,0.7-0.7,1v1.3C310.3,340.9,310.5,340.6,310.5,340.2z"/>
	<path class="st8" d="M309.8,339.9v1.3c0.5-0.3,0.7-0.6,0.7-1v-1.3C310.5,339.3,310.3,339.6,309.8,339.9z"/>
	<path class="st8" d="M286.7,339.9v1.3l9.8,5.7v-1.3L286.7,339.9z"/>
	<path class="st8" d="M300,345.6v1.3l9.8-5.7v-1.3L300,345.6z"/>
	<path class="st8" d="M296.5,345.6v1.3c1,0.5,2.5,0.5,3.5,0v-1.3C299,346.1,297.4,346.1,296.5,345.6z"/>
	<path class="st8" d="M296.5,345.6v1.3c0.4,0.2,0.8,0.3,1.2,0.4V346C297.3,345.9,296.8,345.8,296.5,345.6z"/>
	<path class="st8" d="M297.7,346v1.3c0.8,0.1,1.6,0,2.3-0.4v-1.3C299.3,345.9,298.5,346.1,297.7,346z"/>
	<path class="st8" d="M246,343.7v1.3c0,0.4,0.2,0.7,0.7,1v-1.3C246.2,344.4,246,344.1,246,343.7z"/>
	<path class="st8" d="M246,343.7v1.3c0,0.2,0.1,0.4,0.3,0.6v-1.3C246.1,344.1,246,343.9,246,343.7z"/>
	<path class="st8" d="M246.3,344.3v1.3c0.1,0.1,0.3,0.3,0.4,0.4v-1.3C246.5,344.6,246.4,344.5,246.3,344.3z"/>
	<path class="st8" d="M270.5,345v-1.3c0,0.4-0.2,0.7-0.7,1v1.3C270.3,345.7,270.5,345.4,270.5,345z"/>
	<path class="st8" d="M269.8,344.7v1.3c0.5-0.3,0.7-0.6,0.7-1v-1.3C270.5,344.1,270.3,344.4,269.8,344.7z"/>
	<path class="st8" d="M246.7,344.7v1.3l9.8,5.7l0-1.3L246.7,344.7z"/>
	<path class="st8" d="M259.9,350.4v1.3l9.9-5.7v-1.3L259.9,350.4z"/>
	<path class="st8" d="M256.5,350.4v1.3c1,0.6,2.5,0.6,3.5,0v-1.3C259,350.9,257.4,350.9,256.5,350.4z"/>
	<path class="st8" d="M256.5,350.4v1.3c0.3,0.2,0.8,0.3,1.2,0.4v-1.3C257.3,350.7,256.8,350.6,256.5,350.4z"/>
	<path class="st8" d="M257.7,350.8v1.3c0.8,0.1,1.6,0,2.3-0.4v-1.3C259.3,350.7,258.5,350.9,257.7,350.8z"/>
	<path class="st8" d="M269.8,348.2v1.3c0,0.4,0.2,0.7,0.7,1v-1.3C270.1,348.9,269.8,348.6,269.8,348.2z"/>
	<path class="st8" d="M269.8,348.2v1.3c0,0.2,0.1,0.4,0.3,0.6v-1.3C269.9,348.7,269.8,348.4,269.8,348.2z"/>
	<path class="st8" d="M270.1,348.8v1.3c0.1,0.1,0.3,0.3,0.5,0.4v-1.3C270.4,349.1,270.2,349,270.1,348.8z"/>
	<path class="st8" d="M294.4,349.5v-1.3c0,0.4-0.2,0.7-0.7,1v1.3C294.1,350.3,294.4,349.9,294.4,349.5z"/>
	<path class="st8" d="M293.7,349.2v1.3c0.5-0.3,0.7-0.7,0.7-1v-1.3C294.4,348.6,294.1,348.9,293.7,349.2z"/>
	<path class="st8" d="M270.5,349.2v1.3l9.8,5.7v-1.3L270.5,349.2z"/>
	<path class="st8" d="M283.8,354.9l0,1.3l9.8-5.7v-1.3L283.8,354.9z"/>
	<path class="st8" d="M280.3,354.9v1.3c1,0.6,2.5,0.6,3.5,0v-1.3C282.8,355.4,281.3,355.4,280.3,354.9z"/>
	<path class="st8" d="M280.3,354.9v1.3c0.4,0.2,0.8,0.3,1.2,0.4v-1.3C281.1,355.2,280.7,355.1,280.3,354.9z"/>
	<path class="st8" d="M281.6,355.3v1.3c0.8,0.1,1.6,0,2.2-0.4v-1.3C283.2,355.2,282.3,355.4,281.6,355.3z"/>
	<path class="st8" d="M229.8,353v1.3c0,0.4,0.2,0.7,0.7,1V354C230.1,353.7,229.8,353.4,229.8,353z"/>
	<path class="st8" d="M229.8,353v1.3c0,0.2,0.1,0.4,0.3,0.6v-1.3C229.9,353.5,229.8,353.2,229.8,353z"/>
	<path class="st8" d="M230.1,353.7v1.3c0.1,0.1,0.3,0.3,0.5,0.4V354C230.4,353.9,230.2,353.8,230.1,353.7z"/>
	<path class="st8" d="M254.4,354.3V353c0,0.4-0.2,0.7-0.7,1v1.3C254.1,355.1,254.4,354.7,254.4,354.3z"/>
	<path class="st8" d="M253.7,354v1.3c0.5-0.3,0.7-0.6,0.7-1V353C254.4,353.4,254.1,353.8,253.7,354z"/>
	<path class="st8" d="M230.6,354v1.3l9.8,5.7l0-1.3L230.6,354z"/>
	<path class="st8" d="M243.8,359.7v1.3l9.9-5.7V354L243.8,359.7z"/>
	<path class="st8" d="M240.3,359.7v1.3c0.9,0.6,2.5,0.6,3.5,0v-1.3C242.9,360.3,241.3,360.3,240.3,359.7z"/>
	<path class="st8" d="M240.3,359.7v1.3c0.4,0.2,0.8,0.3,1.2,0.4v-1.3C241.1,360,240.7,359.9,240.3,359.7z"/>
	<path class="st8" d="M241.6,360.1v1.3c0.8,0.1,1.6,0,2.3-0.4v-1.3C243.2,360.1,242.3,360.2,241.6,360.1z"/>
	<path class="st8" d="M253.7,357.5v1.3c0,0.4,0.2,0.7,0.7,1v-1.3C253.9,358.3,253.7,357.9,253.7,357.5z"/>
	<path class="st8" d="M253.7,357.5v1.3c0,0.2,0.1,0.4,0.3,0.6v-1.3C253.8,358,253.7,357.8,253.7,357.5z"/>
	<path class="st8" d="M254,358.2v1.3c0.1,0.1,0.3,0.3,0.4,0.4v-1.3C254.2,358.4,254.1,358.3,254,358.2z"/>
	<path class="st8" d="M278.2,358.9v-1.3c0,0.4-0.2,0.7-0.7,1v1.3C278,359.6,278.2,359.2,278.2,358.9z"/>
	<path class="st8" d="M277.5,358.5v1.3c0.5-0.3,0.7-0.6,0.7-1v-1.3C278.2,357.9,278,358.3,277.5,358.5z"/>
	<path class="st8" d="M254.4,358.5v1.3l9.8,5.7v-1.3L254.4,358.5z"/>
	<path class="st8" d="M267.7,364.2l0,1.3l9.8-5.7v-1.3L267.7,364.2z"/>
	<path class="st8" d="M264.2,364.2v1.3c1,0.6,2.5,0.6,3.5,0v-1.3C266.7,364.8,265.2,364.8,264.2,364.2z"/>
	<path class="st8" d="M264.2,364.2v1.3c0.4,0.2,0.8,0.3,1.2,0.4v-1.3C265,364.6,264.6,364.4,264.2,364.2z"/>
	<path class="st8" d="M265.4,364.6v1.3c0.8,0.1,1.6,0,2.2-0.4v-1.3C267.1,364.6,266.2,364.7,265.4,364.6z"/>
	<path class="st8" d="M213.7,362.4v1.3c0,0.4,0.2,0.7,0.7,1v-1.3C213.9,363.1,213.7,362.7,213.7,362.4z"/>
	<path class="st8" d="M213.7,362.4v1.3c0,0.2,0.1,0.4,0.3,0.6V363C213.8,362.8,213.7,362.6,213.7,362.4z"/>
	<path class="st8" d="M214,363v1.3c0.1,0.1,0.3,0.3,0.4,0.4v-1.3C214.2,363.2,214.1,363.1,214,363z"/>
	<path class="st8" d="M238.2,363.7v-1.3c0,0.4-0.2,0.7-0.7,1v1.3C238,364.4,238.2,364,238.2,363.7z"/>
	<path class="st8" d="M237.5,363.3v1.3c0.5-0.3,0.7-0.7,0.7-1v-1.3C238.2,362.7,238,363.1,237.5,363.3z"/>
	<path class="st8" d="M214.4,363.3v1.3l9.8,5.7l0-1.3L214.4,363.3z"/>
	<path class="st8" d="M227.7,369v1.3l9.9-5.7v-1.3L227.7,369z"/>
	<path class="st8" d="M224.2,369v1.3c1,0.6,2.5,0.6,3.5,0V369C226.7,369.6,225.2,369.6,224.2,369z"/>
	<path class="st8" d="M224.2,369v1.3c0.4,0.2,0.8,0.3,1.2,0.4v-1.3C225,369.4,224.5,369.2,224.2,369z"/>
	<path class="st8" d="M225.4,369.4v1.3c0.8,0.1,1.6,0,2.3-0.4V369C227,369.4,226.2,369.5,225.4,369.4z"/>
	<path class="st8" d="M237.6,366.9v1.3c0,0.4,0.2,0.7,0.7,1v-1.3C237.8,367.6,237.6,367.2,237.6,366.9z"/>
	<path class="st8" d="M237.6,366.9v1.3c0,0.2,0.1,0.4,0.3,0.6v-1.3C237.6,367.3,237.6,367.1,237.6,366.9z"/>
	<path class="st8" d="M237.8,367.5v1.3c0.1,0.1,0.3,0.3,0.5,0.4v-1.3C238.1,367.7,237.9,367.6,237.8,367.5z"/>
	<path class="st8" d="M262.1,368.2v-1.3c0,0.4-0.2,0.7-0.7,1v1.3C261.8,368.9,262.1,368.5,262.1,368.2z"/>
	<path class="st8" d="M261.4,367.9v1.3c0.5-0.3,0.7-0.6,0.7-1v-1.3C262.1,367.2,261.8,367.6,261.4,367.9z"/>
	<path class="st8" d="M238.3,367.9l0,1.3l9.8,5.7l0-1.3L238.3,367.9z"/>
	<path class="st8" d="M251.5,373.5l0,1.3l9.8-5.7v-1.3L251.5,373.5z"/>
	<path class="st8" d="M248.1,373.5v1.3c0.9,0.5,2.5,0.5,3.5,0v-1.3C250.6,374.1,249,374.1,248.1,373.5z"/>
	<path class="st8" d="M248.1,373.5v1.3c0.3,0.2,0.8,0.3,1.2,0.4v-1.3C248.8,373.9,248.4,373.7,248.1,373.5z"/>
	<path class="st8" d="M249.3,373.9v1.3c0.8,0.1,1.6,0,2.2-0.4v-1.3C250.9,373.9,250.1,374,249.3,373.9z"/>
	<path class="st8" d="M197.6,371.7v1.3c0,0.4,0.2,0.7,0.7,1v-1.3C197.8,372.4,197.6,372,197.6,371.7z"/>
	<path class="st8" d="M197.6,371.7v1.3c0,0.2,0.1,0.4,0.3,0.6v-1.3C197.6,372.1,197.6,371.9,197.6,371.7z"/>
	<path class="st8" d="M197.8,372.3v1.3c0.1,0.1,0.3,0.3,0.4,0.4v-1.3C198.1,372.6,197.9,372.4,197.8,372.3z"/>
	<path class="st8" d="M222.1,373v-1.3c0,0.4-0.2,0.7-0.7,1v1.3C221.9,373.7,222.1,373.3,222.1,373z"/>
	<path class="st8" d="M221.4,372.7v1.3c0.5-0.3,0.7-0.6,0.7-1v-1.3C222.1,372,221.9,372.4,221.4,372.7z"/>
	<path class="st8" d="M198.3,372.7v1.3l9.8,5.7l0-1.3L198.3,372.7z"/>
	<path class="st8" d="M211.5,378.3v1.3l9.9-5.7v-1.3L211.5,378.3z"/>
	<path class="st8" d="M208,378.3v1.3c0.9,0.6,2.5,0.6,3.5,0v-1.3C210.6,378.9,209,378.9,208,378.3z"/>
	<path class="st8" d="M208,378.3v1.3c0.4,0.2,0.8,0.3,1.2,0.4v-1.3C208.8,378.7,208.4,378.5,208,378.3z"/>
	<path class="st8" d="M209.3,378.7v1.3c0.8,0.1,1.6,0,2.3-0.4v-1.3C210.9,378.7,210,378.8,209.3,378.7z"/>
	<path class="st8" d="M221.4,376.2v1.3c0,0.4,0.2,0.7,0.7,1v-1.3C221.7,376.9,221.4,376.5,221.4,376.2z"/>
	<path class="st8" d="M221.4,376.2v1.3c0,0.2,0.1,0.4,0.3,0.6v-1.3C221.5,376.6,221.4,376.4,221.4,376.2z"/>
	<path class="st8" d="M221.7,376.8v1.3c0.1,0.1,0.3,0.3,0.4,0.4v-1.3C221.9,377.1,221.8,376.9,221.7,376.8z"/>
	<path class="st8" d="M246,377.5v-1.3c0,0.4-0.2,0.7-0.7,1v1.3C245.7,378.2,246,377.9,246,377.5z"/>
	<path class="st8" d="M245.2,377.2v1.3c0.5-0.3,0.7-0.6,0.7-1v-1.3C246,376.5,245.7,376.9,245.2,377.2z"/>
	<path class="st8" d="M222.1,377.2l0,1.3l9.8,5.7l0-1.3L222.1,377.2z"/>
	<path class="st8" d="M235.4,382.9l0,1.3l9.8-5.7v-1.3L235.4,382.9z"/>
	<path class="st8" d="M231.9,382.9v1.3c1,0.6,2.5,0.6,3.5,0v-1.3C234.4,383.4,232.9,383.4,231.9,382.9z"/>
	<path class="st8" d="M231.9,382.9v1.3c0.4,0.2,0.8,0.3,1.2,0.4v-1.3C232.7,383.2,232.3,383.1,231.9,382.9z"/>
	<path class="st8" d="M233.1,383.3v1.3c0.8,0.1,1.6,0,2.2-0.4v-1.3C234.8,383.2,233.9,383.4,233.1,383.3z"/>
	<path class="st8" d="M181.4,381v1.3c0,0.4,0.2,0.7,0.7,1V382C181.6,381.7,181.4,381.3,181.4,381z"/>
	<path class="st8" d="M181.4,381v1.3c0,0.2,0.1,0.4,0.3,0.6v-1.3C181.5,381.4,181.4,381.2,181.4,381z"/>
	<path class="st8" d="M181.7,381.6v1.3c0.1,0.1,0.3,0.3,0.4,0.4V382C181.9,381.9,181.8,381.7,181.7,381.6z"/>
	<path class="st8" d="M205.9,382.3V381c0,0.4-0.2,0.7-0.7,1v1.3C205.7,383,205.9,382.7,205.9,382.3z"/>
	<path class="st8" d="M205.2,382v1.3c0.5-0.3,0.7-0.6,0.7-1V381C205.9,381.3,205.7,381.7,205.2,382z"/>
	<path class="st8" d="M182.1,382v1.3l9.8,5.7l0-1.3L182.1,382z"/>
	<path class="st8" d="M195.4,387.7v1.3l9.9-5.7V382L195.4,387.7z"/>
	<path class="st8" d="M191.9,387.7v1.3c1,0.5,2.5,0.5,3.5,0v-1.3C194.4,388.2,192.9,388.2,191.9,387.7z"/>
	<path class="st8" d="M191.9,387.7v1.3c0.4,0.2,0.8,0.3,1.2,0.4V388C192.7,388,192.3,387.9,191.9,387.7z"/>
	<path class="st8" d="M193.1,388v1.3c0.8,0.1,1.6,0,2.3-0.4v-1.3C194.8,388,193.9,388.1,193.1,388z"/>
	<path class="st8" d="M205.3,385.5v1.3c0,0.4,0.2,0.7,0.7,1v-1.3C205.5,386.2,205.3,385.9,205.3,385.5z"/>
	<path class="st8" d="M205.3,385.5v1.3c0,0.2,0.1,0.4,0.3,0.6v-1.3C205.4,385.9,205.3,385.7,205.3,385.5z"/>
	<path class="st8" d="M205.5,386.1v1.3c0.1,0.1,0.3,0.3,0.4,0.4v-1.3C205.8,386.4,205.6,386.3,205.5,386.1z"/>
	<path class="st8" d="M229.8,386.8v-1.3c0,0.4-0.2,0.7-0.7,1v1.3C229.6,387.6,229.8,387.2,229.8,386.8z"/>
	<path class="st8" d="M229.1,386.5v1.3c0.5-0.3,0.7-0.6,0.7-1v-1.3C229.8,385.9,229.6,386.2,229.1,386.5z"/>
	<path class="st8" d="M206,386.5l0,1.3l9.8,5.7l0-1.3L206,386.5z"/>
	<path class="st8" d="M219.2,392.2l0,1.3l9.8-5.7v-1.3L219.2,392.2z"/>
	<path class="st8" d="M215.8,392.2v1.3c1,0.6,2.5,0.6,3.5,0v-1.3C218.3,392.7,216.7,392.7,215.8,392.2z"/>
	<path class="st8" d="M215.8,392.2v1.3c0.4,0.2,0.8,0.3,1.2,0.4v-1.3C216.5,392.5,216.1,392.4,215.8,392.2z"/>
	<path class="st8" d="M217,392.6v1.3c0.8,0.1,1.6,0,2.2-0.4v-1.3C218.6,392.5,217.8,392.7,217,392.6z"/>
	<path class="st8" d="M165.3,390.3v1.3c0,0.4,0.2,0.7,0.7,1v-1.3C165.5,391,165.3,390.7,165.3,390.3z"/>
	<path class="st8" d="M165.3,390.3v1.3c0,0.2,0.1,0.4,0.3,0.6v-1.3C165.4,390.7,165.3,390.5,165.3,390.3z"/>
	<path class="st8" d="M165.5,390.9v1.3c0.1,0.1,0.3,0.3,0.4,0.4v-1.3C165.8,391.2,165.7,391.1,165.5,390.9z"/>
	<path class="st8" d="M189.8,391.6v-1.3c0,0.4-0.2,0.7-0.7,1v1.3C189.6,392.4,189.8,392,189.8,391.6z"/>
	<path class="st8" d="M189.1,391.3v1.3c0.5-0.3,0.7-0.6,0.7-1v-1.3C189.8,390.7,189.6,391,189.1,391.3z"/>
	<path class="st8" d="M166,391.3v1.3l9.8,5.7l0-1.3L166,391.3z"/>
	<path class="st8" d="M179.2,397v1.3l9.9-5.7v-1.3L179.2,397z"/>
	<path class="st8" d="M175.8,397v1.3c0.9,0.5,2.5,0.5,3.5,0V397C178.3,397.5,176.7,397.5,175.8,397z"/>
	<path class="st8" d="M175.8,397v1.3c0.3,0.2,0.8,0.3,1.2,0.4v-1.3C176.6,397.3,176.1,397.2,175.8,397z"/>
	<path class="st8" d="M177,397.4v1.3c0.8,0.1,1.6,0,2.3-0.4V397C178.6,397.3,177.8,397.5,177,397.4z"/>
	<path class="st8" d="M189.1,394.8v1.3c0,0.4,0.2,0.7,0.7,1v-1.3C189.4,395.5,189.1,395.2,189.1,394.8z"/>
	<path class="st8" d="M189.1,394.8v1.3c0,0.2,0.1,0.4,0.3,0.6v-1.3C189.2,395.3,189.1,395,189.1,394.8z"/>
	<path class="st8" d="M189.4,395.5v1.3c0.1,0.1,0.3,0.3,0.4,0.4v-1.3C189.7,395.7,189.5,395.6,189.4,395.5z"/>
	<path class="st8" d="M213.7,396.1v-1.3c0,0.4-0.2,0.7-0.7,1v1.3C213.4,396.9,213.7,396.5,213.7,396.1z"/>
	<path class="st8" d="M212.9,395.8v1.3c0.5-0.3,0.7-0.6,0.7-1v-1.3C213.7,395.2,213.4,395.5,212.9,395.8z"/>
	<path class="st8" d="M189.8,395.8l0,1.3l9.8,5.7l0-1.3L189.8,395.8z"/>
	<path class="st8" d="M203.1,401.5l0,1.3l9.9-5.7l0-1.3L203.1,401.5z"/>
	<path class="st8" d="M199.6,401.5v1.3c0.9,0.5,2.5,0.5,3.5,0v-1.3C202.1,402.1,200.6,402.1,199.6,401.5z"/>
	<path class="st8" d="M199.6,401.5v1.3c0.4,0.2,0.8,0.3,1.2,0.4v-1.3C200.4,401.8,200,401.7,199.6,401.5z"/>
	<path class="st8" d="M200.9,401.9v1.3c0.8,0.1,1.6,0,2.2-0.4v-1.3C202.5,401.9,201.6,402,200.9,401.9z"/>
	<path class="st8" d="M149.1,399.6v1.3c0,0.4,0.2,0.7,0.7,1v-1.3C149.4,400.3,149.1,400,149.1,399.6z"/>
	<path class="st8" d="M149.1,399.6v1.3c0,0.2,0.1,0.4,0.3,0.6v-1.3C149.2,400.1,149.1,399.8,149.1,399.6z"/>
	<path class="st8" d="M149.4,400.3v1.3c0.1,0.1,0.3,0.3,0.5,0.4v-1.3C149.7,400.5,149.5,400.4,149.4,400.3z"/>
	<path class="st8" d="M173.7,400.9v-1.3c0,0.4-0.2,0.7-0.7,1v1.3C173.4,401.7,173.7,401.3,173.7,400.9z"/>
	<path class="st8" d="M172.9,400.6v1.3c0.5-0.3,0.7-0.6,0.7-1v-1.3C173.7,400,173.4,400.3,172.9,400.6z"/>
	<path class="st8" d="M149.9,400.6v1.3l9.8,5.7l0-1.3L149.9,400.6z"/>
	<path class="st8" d="M163.1,406.3v1.3l9.9-5.7v-1.3L163.1,406.3z"/>
	<path class="st8" d="M159.6,406.3v1.3c1,0.6,2.5,0.6,3.5,0v-1.3C162.1,406.9,160.6,406.9,159.6,406.3z"/>
	<path class="st8" d="M159.6,406.3v1.3c0.4,0.2,0.8,0.3,1.2,0.4v-1.3C160.4,406.6,160,406.5,159.6,406.3z"/>
	<path class="st8" d="M160.9,406.7v1.3c0.8,0.1,1.6,0,2.3-0.4v-1.3C162.5,406.7,161.6,406.8,160.9,406.7z"/>
	<path class="st8" d="M133,408.9v1.3c0,0.4,0.2,0.7,0.7,1v-1.3C133.2,409.7,133,409.3,133,408.9z"/>
	<path class="st8" d="M133,408.9v1.3c0,0.2,0.1,0.4,0.3,0.6v-1.3C133.1,409.4,133,409.2,133,408.9z"/>
	<path class="st8" d="M133.3,409.6v1.3c0.1,0.1,0.3,0.3,0.4,0.4v-1.3C133.5,409.8,133.4,409.7,133.3,409.6z"/>
	<path class="st8" d="M157.5,410.3v-1.3c0,0.4-0.2,0.7-0.7,1v1.3C157.3,411,157.5,410.6,157.5,410.3z"/>
	<path class="st8" d="M156.8,409.9v1.3c0.5-0.3,0.7-0.6,0.7-1v-1.3C157.5,409.3,157.3,409.7,156.8,409.9z"/>
	<path class="st8" d="M133.7,409.9v1.3l9.8,5.7l0-1.3L133.7,409.9z"/>
	<path class="st8" d="M147,415.6v1.3l9.9-5.7v-1.3L147,415.6z"/>
	<path class="st8" d="M143.5,415.6v1.3c1,0.5,2.5,0.5,3.5,0v-1.3C146,416.2,144.5,416.2,143.5,415.6z"/>
	<path class="st8" d="M143.5,415.6v1.3c0.4,0.2,0.8,0.3,1.2,0.4V416C144.3,416,143.8,415.8,143.5,415.6z"/>
	<path class="st8" d="M144.7,416v1.3c0.8,0.1,1.6,0,2.3-0.4v-1.3C146.3,416,145.5,416.1,144.7,416z"/>
	<path class="st8" d="M141.4,419.6v-1.3c0,0.4-0.2,0.7-0.7,1v1.3C141.1,420.3,141.4,420,141.4,419.6z"/>
	<path class="st8" d="M140.7,419.3v1.3c0.5-0.3,0.7-0.6,0.7-1v-1.3C141.4,418.6,141.1,419,140.7,419.3z"/>
	<path class="st8" d="M108.8,422.9v1.3c0,0.4,0.2,0.7,0.7,1v-1.3C109,423.6,108.8,423.3,108.8,422.9z"/>
	<path class="st8" d="M108.8,422.9v1.3c0,0.2,0.1,0.4,0.3,0.6v-1.3C108.9,423.4,108.8,423.1,108.8,422.9z"/>
	<path class="st8" d="M109,423.6v1.3c0.1,0.1,0.3,0.3,0.5,0.4v-1.3C109.3,423.8,109.2,423.7,109,423.6z"/>
	<path class="st8" d="M109.5,423.9v1.3l9.8,5.7v-1.3L109.5,423.9z"/>
	<path class="st8" d="M122.7,429.6v1.3l17.9-10.4v-1.3L122.7,429.6z"/>
	<path class="st8" d="M119.3,429.6v1.3c1,0.6,2.5,0.6,3.5,0v-1.3C121.8,430.2,120.2,430.2,119.3,429.6z"/>
	<path class="st8" d="M119.3,429.6v1.3c0.3,0.2,0.8,0.3,1.2,0.4V430C120,429.9,119.6,429.8,119.3,429.6z"/>
	<path class="st8" d="M120.5,430v1.3c0.8,0.1,1.6,0,2.2-0.4v-1.3C122.1,430,121.3,430.1,120.5,430z"/>
	<path class="st8" d="M173,404.1v1.3c0,0.4,0.2,0.7,0.7,1v-1.3C173.2,404.9,173,404.5,173,404.1z"/>
	<path class="st8" d="M173,404.1v1.3c0,0.2,0.1,0.4,0.3,0.6v-1.3C173.1,404.6,173,404.4,173,404.1z"/>
	<path class="st8" d="M173.2,404.8v1.3c0.1,0.1,0.3,0.3,0.5,0.4v-1.3C173.5,405,173.4,404.9,173.2,404.8z"/>
	<path class="st8" d="M197.5,405.5v-1.3c0,0.4-0.2,0.7-0.7,1v1.3C197.3,406.2,197.5,405.8,197.5,405.5z"/>
	<path class="st8" d="M196.8,405.1v1.3c0.5-0.3,0.7-0.7,0.7-1v-1.3C197.5,404.5,197.3,404.9,196.8,405.1z"/>
	<path class="st8" d="M173.7,405.1l0,1.3l9.8,5.7l0-1.3L173.7,405.1z"/>
	<path class="st8" d="M186.9,410.8l0,1.3l9.9-5.7l0-1.3L186.9,410.8z"/>
	<path class="st8" d="M183.5,410.8v1.3c1,0.5,2.5,0.5,3.5,0v-1.3C186,411.4,184.4,411.4,183.5,410.8z"/>
	<path class="st8" d="M183.5,410.8v1.3c0.3,0.2,0.8,0.3,1.2,0.4v-1.3C184.3,411.2,183.8,411,183.5,410.8z"/>
	<path class="st8" d="M184.7,411.2v1.3c0.8,0.1,1.6,0,2.2-0.4v-1.3C186.3,411.2,185.5,411.3,184.7,411.2z"/>
	<path class="st8" d="M156.8,413.5v1.3c0,0.4,0.2,0.7,0.7,1v-1.3C157.1,414.2,156.8,413.8,156.8,413.5z"/>
	<path class="st8" d="M156.8,413.5v1.3c0,0.2,0.1,0.4,0.3,0.6v-1.3C156.9,413.9,156.8,413.7,156.8,413.5z"/>
	<path class="st8" d="M157.1,414.1v1.3c0.1,0.1,0.3,0.3,0.4,0.4v-1.3C157.4,414.3,157.2,414.2,157.1,414.1z"/>
	<path class="st8" d="M181.4,414.8v-1.3c0,0.4-0.2,0.7-0.7,1v1.3C181.1,415.5,181.4,415.1,181.4,414.8z"/>
	<path class="st8" d="M180.7,414.5v1.3c0.5-0.3,0.7-0.6,0.7-1v-1.3C181.4,413.8,181.1,414.2,180.7,414.5z"/>
	<path class="st8" d="M157.6,414.5l0,1.3l9.8,5.7l0-1.3L157.6,414.5z"/>
	<path class="st8" d="M170.8,420.1l0,1.3l9.9-5.7l0-1.3L170.8,420.1z"/>
	<path class="st8" d="M167.3,420.1v1.3c0.9,0.6,2.5,0.6,3.5,0v-1.3C169.8,420.7,168.3,420.7,167.3,420.1z"/>
	<path class="st8" d="M167.3,420.1v1.3c0.4,0.2,0.8,0.3,1.2,0.4v-1.3C168.1,420.5,167.7,420.3,167.3,420.1z"/>
	<path class="st8" d="M168.6,420.5v1.3c0.8,0.1,1.6,0,2.2-0.4v-1.3C170.2,420.5,169.3,420.6,168.6,420.5z"/>
	<path class="st8" d="M165.2,424.1v-1.3c0,0.4-0.2,0.7-0.7,1v1.3C165,424.8,165.2,424.5,165.2,424.1z"/>
	<path class="st8" d="M164.5,423.8v1.3c0.5-0.3,0.7-0.7,0.7-1v-1.3C165.2,423.1,165,423.5,164.5,423.8z"/>
	<path class="st8" d="M124.6,432.1v1.3c0,0.4,0.2,0.7,0.7,1v-1.3C124.8,432.8,124.6,432.5,124.6,432.1z"/>
	<path class="st8" d="M124.6,432.1v1.3c0,0.2,0.1,0.4,0.3,0.6v-1.3C124.6,432.5,124.6,432.3,124.6,432.1z"/>
	<path class="st8" d="M124.8,432.7v1.3c0.1,0.1,0.3,0.3,0.5,0.4v-1.3C125.1,433,124.9,432.9,124.8,432.7z"/>
	<path class="st8" d="M125.3,433.1l0,1.3l9.8,5.7l0-1.3L125.3,433.1z"/>
	<path class="st8" d="M138.5,438.8v1.3l26-15l0-1.3L138.5,438.8z"/>
	<path class="st8" d="M135.1,438.8v1.3c0.9,0.6,2.5,0.6,3.5,0v-1.3C137.6,439.3,136,439.3,135.1,438.8z"/>
	<path class="st8" d="M135.1,438.8v1.3c0.3,0.2,0.8,0.3,1.2,0.4v-1.3C135.8,439.1,135.4,439,135.1,438.8z"/>
	<path class="st8" d="M136.3,439.2v1.3c0.8,0.1,1.6,0,2.2-0.4v-1.3C137.9,439.1,137.1,439.3,136.3,439.2z"/>
	<path class="st8" d="M358,331.1v-1.3c0,0.4-0.2,0.7-0.7,1v1.3C357.8,331.8,358,331.5,358,331.1z"/>
	<path class="st8" d="M357.3,330.8v1.3c0.5-0.3,0.7-0.6,0.7-1v-1.3C358,330.1,357.8,330.5,357.3,330.8z"/>
	<path class="st8" d="M309.8,343.4v1.3c0,0.4,0.2,0.7,0.7,1v-1.3C310.1,344.1,309.8,343.8,309.8,343.4z"/>
	<path class="st8" d="M309.8,343.4v1.3c0,0.2,0.1,0.4,0.3,0.6V344C309.9,343.8,309.8,343.6,309.8,343.4z"/>
	<path class="st8" d="M310.1,344v1.3c0.1,0.1,0.3,0.3,0.5,0.4v-1.3C310.4,344.3,310.2,344.2,310.1,344z"/>
	<path class="st8" d="M310.6,344.4v1.3l9.8,5.7v-1.3L310.6,344.4z"/>
	<path class="st8" d="M323.8,350.1v1.3l33.5-19.3v-1.3L323.8,350.1z"/>
	<path class="st8" d="M320.4,350.1v1.3c1,0.6,2.5,0.6,3.5,0v-1.3C322.9,350.6,321.3,350.6,320.4,350.1z"/>
	<path class="st8" d="M320.4,350.1v1.3c0.4,0.2,0.8,0.3,1.2,0.4v-1.3C321.1,350.4,320.7,350.3,320.4,350.1z"/>
	<path class="st8" d="M321.6,350.5v1.3c0.8,0.1,1.6,0,2.2-0.4v-1.3C323.2,350.4,322.3,350.6,321.6,350.5z"/>
	<path class="st8" d="M293.7,352.7v1.3c0,0.4,0.2,0.7,0.7,1v-1.3C294,353.4,293.7,353.1,293.7,352.7z"/>
	<path class="st8" d="M293.7,352.7v1.3c0,0.2,0.1,0.4,0.3,0.6v-1.3C293.8,353.2,293.7,352.9,293.7,352.7z"/>
	<path class="st8" d="M294,353.4v1.3c0.1,0.1,0.3,0.3,0.5,0.4v-1.3C294.2,353.6,294.1,353.5,294,353.4z"/>
	<path class="st8" d="M318.2,354v-1.3c0,0.4-0.2,0.7-0.7,1v1.3C318,354.8,318.2,354.4,318.2,354z"/>
	<path class="st8" d="M317.5,353.7v1.3c0.5-0.3,0.7-0.7,0.7-1v-1.3C318.2,353.1,318,353.4,317.5,353.7z"/>
	<path class="st8" d="M294.4,353.7v1.3l9.8,5.7v-1.3L294.4,353.7z"/>
	<path class="st8" d="M307.7,359.4v1.3l9.9-5.7v-1.3L307.7,359.4z"/>
	<path class="st8" d="M304.2,359.4v1.3c1,0.6,2.5,0.6,3.5,0v-1.3C306.7,360,305.2,360,304.2,359.4z"/>
	<path class="st8" d="M304.2,359.4v1.3c0.4,0.2,0.8,0.3,1.2,0.4v-1.3C305,359.7,304.6,359.6,304.2,359.4z"/>
	<path class="st8" d="M305.4,359.8v1.3c0.8,0.1,1.6,0,2.2-0.4v-1.3C307,359.8,306.2,359.9,305.4,359.8z"/>
	<path class="st8" d="M349.2,339v1.3c0,0.4,0.2,0.7,0.7,1V340C349.5,339.7,349.2,339.3,349.2,339z"/>
	<path class="st8" d="M349.2,339v1.3c0,0.2,0.1,0.4,0.3,0.6v-1.3C349.3,339.4,349.2,339.2,349.2,339z"/>
	<path class="st8" d="M349.5,339.6v1.3c0.1,0.1,0.3,0.3,0.5,0.4V340C349.8,339.8,349.6,339.7,349.5,339.6z"/>
	<path class="st8" d="M373.8,340.3v-1.3c0,0.4-0.2,0.7-0.7,1v1.3C373.5,341,373.8,340.6,373.8,340.3z"/>
	<path class="st8" d="M373.1,339.9v1.3c0.5-0.3,0.7-0.6,0.7-1v-1.3C373.8,339.3,373.5,339.7,373.1,339.9z"/>
	<path class="st8" d="M350,339.9v1.3l9.8,5.7v-1.3L350,339.9z"/>
	<path class="st8" d="M363.2,345.6l0,1.3l9.8-5.7v-1.3L363.2,345.6z"/>
	<path class="st8" d="M359.8,345.6v1.3c1,0.6,2.5,0.6,3.5,0v-1.3C362.3,346.2,360.7,346.2,359.8,345.6z"/>
	<path class="st8" d="M359.8,345.6v1.3c0.4,0.2,0.8,0.3,1.2,0.4V346C360.5,346,360.1,345.8,359.8,345.6z"/>
	<path class="st8" d="M360.9,346v1.3c0.8,0.1,1.6,0,2.3-0.4v-1.3C362.6,346,361.8,346.1,360.9,346z"/>
	<path class="st8" d="M333.1,348.3v1.3c0,0.4,0.2,0.7,0.7,1v-1.3C333.4,349,333.1,348.6,333.1,348.3z"/>
	<path class="st8" d="M333.1,348.3v1.3c0,0.2,0.1,0.4,0.3,0.6v-1.3C333.2,348.7,333.1,348.5,333.1,348.3z"/>
	<path class="st8" d="M333.4,348.9v1.3c0.1,0.1,0.3,0.3,0.4,0.4v-1.3C333.6,349.2,333.5,349,333.4,348.9z"/>
	<path class="st8" d="M357.6,349.6v-1.3c0,0.4-0.2,0.7-0.7,1v1.3C357.4,350.3,357.6,349.9,357.6,349.6z"/>
	<path class="st8" d="M356.9,349.3v1.3c0.5-0.3,0.7-0.6,0.7-1v-1.3C357.6,348.6,357.4,349,356.9,349.3z"/>
	<path class="st8" d="M333.8,349.3v1.3l9.8,5.7v-1.3L333.8,349.3z"/>
	<path class="st8" d="M347.1,354.9l0,1.3l9.8-5.7v-1.3L347.1,354.9z"/>
	<path class="st8" d="M343.6,354.9v1.3c1,0.6,2.5,0.6,3.5,0v-1.3C346.1,355.5,344.6,355.5,343.6,354.9z"/>
	<path class="st8" d="M343.6,354.9v1.3c0.4,0.2,0.8,0.3,1.2,0.4v-1.3C344.4,355.3,343.9,355.1,343.6,354.9z"/>
	<path class="st8" d="M344.8,355.3v1.3c0.8,0.1,1.6,0,2.3-0.4v-1.3C346.5,355.3,345.6,355.4,344.8,355.3z"/>
	<path class="st8" d="M317.6,357.2v1.3c0,0.4,0.2,0.7,0.7,1v-1.3C317.8,358,317.6,357.6,317.6,357.2z"/>
	<path class="st8" d="M317.6,357.2v1.3c0,0.2,0.1,0.4,0.3,0.6v-1.3C317.7,357.7,317.6,357.5,317.6,357.2z"/>
	<path class="st8" d="M317.8,357.9v1.3c0.1,0.1,0.3,0.3,0.5,0.4v-1.3C318.1,358.1,317.9,358,317.8,357.9z"/>
	<path class="st8" d="M342.1,358.6v-1.3c0,0.4-0.2,0.7-0.7,1v1.3C341.8,359.3,342.1,358.9,342.1,358.6z"/>
	<path class="st8" d="M341.4,358.2v1.3c0.5-0.3,0.7-0.6,0.7-1v-1.3C342.1,357.6,341.8,358,341.4,358.2z"/>
	<path class="st8" d="M318.3,358.2v1.3l9.8,5.7v-1.3L318.3,358.2z"/>
	<path class="st8" d="M331.5,363.9v1.3l9.9-5.7l0-1.3L331.5,363.9z"/>
	<path class="st8" d="M328.1,363.9v1.3c0.9,0.6,2.5,0.6,3.5,0v-1.3C330.6,364.5,329,364.5,328.1,363.9z"/>
	<path class="st8" d="M328.1,363.9v1.3c0.4,0.2,0.8,0.3,1.2,0.4v-1.3C328.8,364.3,328.4,364.1,328.1,363.9z"/>
	<path class="st8" d="M329.3,364.3v1.3c0.8,0.1,1.6,0,2.3-0.4v-1.3C330.9,364.3,330.1,364.4,329.3,364.3z"/>
	<path class="st8" d="M277.6,362.1v1.3c0,0.4,0.2,0.7,0.7,1v-1.3C277.8,362.8,277.6,362.4,277.6,362.1z"/>
	<path class="st8" d="M277.6,362.1v1.3c0,0.2,0.1,0.4,0.3,0.6v-1.3C277.7,362.5,277.6,362.3,277.6,362.1z"/>
	<path class="st8" d="M277.8,362.7v1.3c0.1,0.1,0.3,0.3,0.5,0.4v-1.3C278.1,362.9,277.9,362.8,277.8,362.7z"/>
	<path class="st8" d="M302.1,363.4V362c0,0.4-0.3,0.7-0.7,1v1.3C301.9,364.1,302.1,363.7,302.1,363.4z"/>
	<path class="st8" d="M301.4,363.1v1.3c0.5-0.3,0.7-0.6,0.7-1V362C302.1,362.4,301.9,362.8,301.4,363.1z"/>
	<path class="st8" d="M278.3,363v1.3l9.8,5.7v-1.3L278.3,363z"/>
	<path class="st8" d="M291.5,368.7v1.3l9.9-5.7l0-1.3L291.5,368.7z"/>
	<path class="st8" d="M288.1,368.7v1.3c1,0.6,2.5,0.6,3.5,0v-1.3C290.6,369.3,289,369.3,288.1,368.7z"/>
	<path class="st8" d="M288.1,368.7v1.3c0.4,0.2,0.8,0.3,1.2,0.4v-1.3C288.8,369.1,288.4,368.9,288.1,368.7z"/>
	<path class="st8" d="M289.3,369.1v1.3c0.8,0.1,1.6,0,2.2-0.4v-1.3C290.9,369.1,290.1,369.2,289.3,369.1z"/>
	<path class="st8" d="M261.4,371.4v1.3c0,0.4,0.2,0.7,0.7,1v-1.3C261.7,372.1,261.4,371.7,261.4,371.4z"/>
	<path class="st8" d="M261.4,371.4v1.3c0,0.2,0.1,0.4,0.3,0.6V372C261.5,371.8,261.4,371.6,261.4,371.4z"/>
	<path class="st8" d="M261.7,372v1.3c0.1,0.1,0.3,0.3,0.4,0.4v-1.3C262,372.3,261.8,372.1,261.7,372z"/>
	<path class="st8" d="M286,372.7v-1.3c0,0.4-0.2,0.7-0.7,1v1.3C285.7,373.4,286,373,286,372.7z"/>
	<path class="st8" d="M285.2,372.4v1.3c0.5-0.3,0.7-0.7,0.7-1v-1.3C286,371.7,285.7,372.1,285.2,372.4z"/>
	<path class="st8" d="M262.1,372.4v1.3l9.8,5.7V378L262.1,372.4z"/>
	<path class="st8" d="M275.4,378v1.3l9.9-5.7v-1.3L275.4,378z"/>
	<path class="st8" d="M271.9,378v1.3c1,0.6,2.5,0.6,3.5,0V378C274.4,378.6,272.9,378.6,271.9,378z"/>
	<path class="st8" d="M271.9,378v1.3c0.3,0.2,0.8,0.3,1.2,0.4v-1.3C272.7,378.4,272.3,378.2,271.9,378z"/>
	<path class="st8" d="M273.1,378.4v1.3c0.8,0.1,1.6,0,2.2-0.4V378C274.8,378.4,273.9,378.5,273.1,378.4z"/>
	<path class="st8" d="M245.3,380.7v1.3c0,0.4,0.2,0.7,0.7,1v-1.3C245.5,381.4,245.3,381,245.3,380.7z"/>
	<path class="st8" d="M245.3,380.7v1.3c0,0.2,0.1,0.4,0.3,0.6v-1.3C245.4,381.1,245.3,380.9,245.3,380.7z"/>
	<path class="st8" d="M245.5,381.3v1.3c0.1,0.1,0.3,0.3,0.4,0.4v-1.3C245.8,381.6,245.7,381.5,245.5,381.3z"/>
	<path class="st8" d="M269.8,382v-1.3c0,0.4-0.2,0.7-0.7,1v1.3C269.6,382.7,269.8,382.4,269.8,382z"/>
	<path class="st8" d="M269.1,381.7v1.3c0.5-0.3,0.7-0.6,0.7-1v-1.3C269.8,381,269.6,381.4,269.1,381.7z"/>
	<path class="st8" d="M246,381.7v1.3l9.8,5.7v-1.3L246,381.7z"/>
	<path class="st8" d="M259.2,387.4v1.3l9.9-5.7v-1.3L259.2,387.4z"/>
	<path class="st8" d="M255.8,387.4v1.3c1,0.6,2.5,0.6,3.5,0v-1.3C258.3,387.9,256.7,387.9,255.8,387.4z"/>
	<path class="st8" d="M255.8,387.4v1.3c0.4,0.2,0.8,0.3,1.2,0.4v-1.3C256.5,387.7,256.1,387.6,255.8,387.4z"/>
	<path class="st8" d="M257,387.7v1.3c0.8,0.1,1.6,0,2.3-0.4v-1.3C258.6,387.7,257.8,387.8,257,387.7z"/>
	<path class="st8" d="M229.1,390v1.3c0,0.4,0.2,0.7,0.7,1V391C229.4,390.7,229.1,390.4,229.1,390z"/>
	<path class="st8" d="M229.1,390v1.3c0,0.2,0.1,0.4,0.3,0.6v-1.3C229.2,390.5,229.1,390.2,229.1,390z"/>
	<path class="st8" d="M229.4,390.7v1.3c0.1,0.1,0.3,0.3,0.5,0.4V391C229.7,390.9,229.5,390.8,229.4,390.7z"/>
	<path class="st8" d="M253.7,391.3V390c0,0.4-0.2,0.7-0.7,1v1.3C253.4,392.1,253.7,391.7,253.7,391.3z"/>
	<path class="st8" d="M252.9,391v1.3c0.5-0.3,0.7-0.7,0.7-1V390C253.7,390.4,253.4,390.7,252.9,391z"/>
	<path class="st8" d="M229.8,391v1.3l9.8,5.7v-1.3L229.8,391z"/>
	<path class="st8" d="M243.1,396.7v1.3l9.9-5.7V391L243.1,396.7z"/>
	<path class="st8" d="M239.6,396.7v1.3c1,0.6,2.5,0.6,3.5,0v-1.3C242.1,397.2,240.6,397.2,239.6,396.7z"/>
	<path class="st8" d="M239.6,396.7v1.3c0.3,0.2,0.8,0.3,1.2,0.4v-1.3C240.4,397,240,396.9,239.6,396.7z"/>
	<path class="st8" d="M240.8,397.1v1.3c0.8,0.1,1.6,0,2.3-0.4v-1.3C242.5,397,241.6,397.2,240.8,397.1z"/>
	<path class="st8" d="M213,399.3v1.3c0,0.4,0.2,0.7,0.7,1v-1.3C213.2,400.1,213,399.7,213,399.3z"/>
	<path class="st8" d="M213,399.3v1.3c0,0.2,0.1,0.4,0.3,0.6V400C213.1,399.8,213,399.6,213,399.3z"/>
	<path class="st8" d="M213.3,400v1.3c0.1,0.1,0.3,0.3,0.4,0.4v-1.3C213.5,400.2,213.4,400.1,213.3,400z"/>
	<path class="st8" d="M237.5,400.6v-1.3c0,0.4-0.2,0.7-0.7,1v1.3C237.3,401.4,237.5,401,237.5,400.6z"/>
	<path class="st8" d="M236.8,400.3v1.3c0.5-0.3,0.7-0.6,0.7-1v-1.3C237.5,399.7,237.3,400,236.8,400.3z"/>
	<path class="st8" d="M213.7,400.3v1.3l9.8,5.7V406L213.7,400.3z"/>
	<path class="st8" d="M226.9,406v1.3l9.9-5.7v-1.3L226.9,406z"/>
	<path class="st8" d="M223.5,406v1.3c1,0.5,2.5,0.5,3.5,0V406C226,406.6,224.4,406.6,223.5,406z"/>
	<path class="st8" d="M223.5,406v1.3c0.4,0.2,0.8,0.3,1.2,0.4v-1.3C224.3,406.3,223.8,406.2,223.5,406z"/>
	<path class="st8" d="M224.7,406.4v1.3c0.8,0.1,1.6,0,2.3-0.4V406C226.3,406.4,225.5,406.5,224.7,406.4z"/>
	<path class="st8" d="M196.8,408.6v1.3c0,0.4,0.2,0.7,0.7,1v-1.3C197.1,409.4,196.8,409,196.8,408.6z"/>
	<path class="st8" d="M196.8,408.6v1.3c0,0.2,0.1,0.4,0.3,0.6v-1.3C196.9,409.1,196.8,408.9,196.8,408.6z"/>
	<path class="st8" d="M197.1,409.3v1.3c0.1,0.1,0.3,0.3,0.5,0.4v-1.3C197.4,409.5,197.2,409.4,197.1,409.3z"/>
	<path class="st8" d="M221.4,410v-1.3c0,0.4-0.2,0.7-0.7,1v1.3C221.1,410.7,221.4,410.3,221.4,410z"/>
	<path class="st8" d="M220.7,409.6v1.3c0.5-0.3,0.7-0.7,0.7-1v-1.3C221.4,409,221.1,409.4,220.7,409.6z"/>
	<path class="st8" d="M197.6,409.6v1.3l9.8,5.7v-1.3L197.6,409.6z"/>
	<path class="st8" d="M210.8,415.3v1.3l9.9-5.7v-1.3L210.8,415.3z"/>
	<path class="st8" d="M207.4,415.3v1.3c0.9,0.6,2.5,0.6,3.5,0v-1.3C209.9,415.9,208.3,415.9,207.4,415.3z"/>
	<path class="st8" d="M207.4,415.3v1.3c0.4,0.2,0.8,0.3,1.2,0.4v-1.3C208.1,415.7,207.7,415.5,207.4,415.3z"/>
	<path class="st8" d="M208.6,415.7v1.3c0.8,0.1,1.6,0,2.3-0.4v-1.3C210.2,415.7,209.3,415.8,208.6,415.7z"/>
	<path class="st8" d="M180.7,418v1.3c0,0.4,0.2,0.7,0.7,1V419C180.9,418.7,180.7,418.3,180.7,418z"/>
	<path class="st8" d="M180.7,418v1.3c0,0.2,0.1,0.4,0.3,0.6v-1.3C180.8,418.4,180.7,418.2,180.7,418z"/>
	<path class="st8" d="M181,418.6v1.3c0.1,0.1,0.3,0.3,0.4,0.4V419C181.2,418.9,181.1,418.7,181,418.6z"/>
	<path class="st8" d="M205.2,419.3V418c0,0.4-0.2,0.7-0.7,1v1.3C205,420,205.2,419.7,205.2,419.3z"/>
	<path class="st8" d="M204.5,419v1.3c0.5-0.3,0.7-0.7,0.7-1V418C205.2,418.3,205,418.7,204.5,419z"/>
	<path class="st8" d="M181.4,419v1.3l9.8,5.7v-1.3L181.4,419z"/>
	<path class="st8" d="M194.7,424.7v1.3l9.9-5.7V419L194.7,424.7z"/>
	<path class="st8" d="M191.2,424.7v1.3c1,0.6,2.5,0.6,3.5,0v-1.3C193.7,425.2,192.2,425.2,191.2,424.7z"/>
	<path class="st8" d="M191.2,424.7v1.3c0.4,0.2,0.8,0.3,1.2,0.4V425C192,425,191.5,424.9,191.2,424.7z"/>
	<path class="st8" d="M192.4,425v1.3c0.8,0.1,1.6,0,2.3-0.4v-1.3C194,425,193.2,425.1,192.4,425z"/>
	<path class="st8" d="M164.6,427.3v1.3c0,0.4,0.2,0.7,0.7,1v-1.3C164.8,428,164.6,427.7,164.6,427.3z"/>
	<path class="st8" d="M164.6,427.3v1.3c0,0.2,0.1,0.4,0.3,0.6v-1.3C164.6,427.7,164.6,427.5,164.6,427.3z"/>
	<path class="st8" d="M164.8,427.9v1.3c0.1,0.1,0.3,0.3,0.4,0.4v-1.3C165.1,428.2,164.9,428.1,164.8,427.9z"/>
	<path class="st8" d="M189.1,428.6v-1.3c0,0.4-0.2,0.7-0.7,1v1.3C188.9,429.3,189.1,429,189.1,428.6z"/>
	<path class="st8" d="M188.4,428.3v1.3c0.5-0.3,0.7-0.6,0.7-1v-1.3C189.1,427.6,188.9,428,188.4,428.3z"/>
	<path class="st8" d="M165.3,428.3v1.3l9.8,5.7V434L165.3,428.3z"/>
	<path class="st8" d="M178.5,434v1.3l9.9-5.7v-1.3L178.5,434z"/>
	<path class="st8" d="M175.1,434v1.3c1,0.6,2.5,0.6,3.5,0V434C177.6,434.5,176,434.5,175.1,434z"/>
	<path class="st8" d="M175.1,434v1.3c0.4,0.2,0.8,0.3,1.2,0.4v-1.3C175.8,434.3,175.4,434.2,175.1,434z"/>
	<path class="st8" d="M176.3,434.4v1.3c0.8,0.1,1.6,0,2.3-0.4V434C177.9,434.3,177.1,434.5,176.3,434.4z"/>
	<path class="st8" d="M301.4,366.6v1.3c0,0.4,0.2,0.7,0.7,1v-1.3C301.7,367.3,301.4,366.9,301.4,366.6z"/>
	<path class="st8" d="M301.4,366.6v1.3c0,0.2,0.1,0.4,0.3,0.6v-1.3C301.5,367,301.4,366.8,301.4,366.6z"/>
	<path class="st8" d="M301.7,367.2v1.3c0.1,0.1,0.3,0.3,0.4,0.4v-1.3C301.9,367.5,301.8,367.3,301.7,367.2z"/>
	<path class="st8" d="M326,367.9v-1.3c0,0.4-0.2,0.7-0.7,1v1.3C325.7,368.6,326,368.3,326,367.9z"/>
	<path class="st8" d="M325.2,367.6v1.3c0.5-0.3,0.7-0.6,0.7-1v-1.3C326,366.9,325.7,367.3,325.2,367.6z"/>
	<path class="st8" d="M302.1,367.6v1.3l9.8,5.7v-1.3L302.1,367.6z"/>
	<path class="st8" d="M315.4,373.3v1.3l9.9-5.7l0-1.3L315.4,373.3z"/>
	<path class="st8" d="M311.9,373.2v1.3c1,0.5,2.5,0.5,3.5,0v-1.3C314.4,373.8,312.9,373.8,311.9,373.2z"/>
	<path class="st8" d="M311.9,373.2v1.3c0.3,0.2,0.8,0.3,1.2,0.4v-1.3C312.7,373.6,312.3,373.4,311.9,373.2z"/>
	<path class="st8" d="M313.1,373.6v1.3c0.8,0.1,1.6,0,2.2-0.4v-1.3C314.8,373.6,313.9,373.7,313.1,373.6z"/>
	<path class="st8" d="M309.8,377.2v-1.3c0,0.4-0.2,0.7-0.7,1v1.3C309.6,377.9,309.8,377.6,309.8,377.2z"/>
	<path class="st8" d="M309.1,376.9v1.3c0.5-0.3,0.7-0.6,0.7-1v-1.3C309.8,376.2,309.6,376.6,309.1,376.9z"/>
	<path class="st8" d="M269.1,385.2v1.3c0,0.4,0.2,0.7,0.7,1v-1.3C269.4,385.9,269.1,385.6,269.1,385.2z"/>
	<path class="st8" d="M269.1,385.2v1.3c0,0.2,0.1,0.4,0.3,0.6v-1.3C269.2,385.6,269.1,385.4,269.1,385.2z"/>
	<path class="st8" d="M269.4,385.8v1.3c0.1,0.1,0.3,0.3,0.4,0.4v-1.3C269.7,386.1,269.5,386,269.4,385.8z"/>
	<path class="st8" d="M269.9,386.2v1.3l9.8,5.7l0-1.3L269.9,386.2z"/>
	<path class="st8" d="M283.1,391.9v1.3l26-15l0-1.3L283.1,391.9z"/>
	<path class="st8" d="M279.6,391.9v1.3c1,0.5,2.5,0.5,3.5,0v-1.3C282.1,392.4,280.6,392.4,279.6,391.9z"/>
	<path class="st8" d="M279.6,391.9v1.3c0.4,0.2,0.8,0.3,1.2,0.4v-1.3C280.4,392.2,280,392.1,279.6,391.9z"/>
	<path class="st8" d="M280.9,392.3v1.3c0.8,0.1,1.6,0,2.2-0.4v-1.3C282.5,392.2,281.6,392.4,280.9,392.3z"/>
	<path class="st8" d="M277.5,395.8v-1.3c0,0.4-0.2,0.7-0.7,1v1.3C277.3,396.6,277.5,396.2,277.5,395.8z"/>
	<path class="st8" d="M276.8,395.5v1.3c0.5-0.3,0.7-0.6,0.7-1v-1.3C277.5,394.9,277.3,395.2,276.8,395.5z"/>
	<path class="st8" d="M204.6,422.5v1.3c0,0.4,0.2,0.7,0.7,1v-1.3C204.8,423.2,204.6,422.8,204.6,422.5z"/>
	<path class="st8" d="M204.6,422.5v1.3c0,0.2,0.1,0.4,0.3,0.6v-1.3C204.7,422.9,204.6,422.7,204.6,422.5z"/>
	<path class="st8" d="M204.8,423.1v1.3c0.1,0.1,0.3,0.3,0.5,0.4v-1.3C205.1,423.4,204.9,423.3,204.8,423.1z"/>
	<path class="st8" d="M205.3,423.5v1.3l9.8,5.7l0-1.3L205.3,423.5z"/>
	<path class="st8" d="M218.5,429.2v1.3l58.3-33.6v-1.3L218.5,429.2z"/>
	<path class="st8" d="M215.1,429.2v1.3c0.9,0.6,2.5,0.6,3.5,0v-1.3C217.6,429.7,216,429.7,215.1,429.2z"/>
	<path class="st8" d="M215.1,429.2v1.3c0.3,0.2,0.8,0.3,1.2,0.4v-1.3C215.8,429.5,215.4,429.4,215.1,429.2z"/>
	<path class="st8" d="M216.3,429.6v1.3c0.8,0.1,1.6,0,2.2-0.4v-1.3C217.9,429.5,217.1,429.6,216.3,429.6z"/>
	<path class="st8" d="M188.4,431.8v1.3c0,0.4,0.2,0.7,0.7,1v-1.3C188.7,432.5,188.4,432.2,188.4,431.8z"/>
	<path class="st8" d="M188.4,431.8v1.3c0,0.2,0.1,0.4,0.3,0.6v-1.3C188.5,432.2,188.4,432,188.4,431.8z"/>
	<path class="st8" d="M188.7,432.4v1.3c0.1,0.1,0.3,0.3,0.5,0.4v-1.3C188.9,432.7,188.8,432.6,188.7,432.4z"/>
	<path class="st8" d="M213,433.1v-1.3c0,0.4-0.2,0.7-0.7,1v1.3C212.7,433.8,213,433.5,213,433.1z"/>
	<path class="st8" d="M212.2,432.8v1.3c0.5-0.3,0.7-0.6,0.7-1v-1.3C213,432.2,212.7,432.5,212.2,432.8z"/>
	<path class="st8" d="M189.1,432.8v1.3l9.8,5.7l0-1.3L189.1,432.8z"/>
	<path class="st8" d="M202.4,438.5v1.3l9.9-5.7v-1.3L202.4,438.5z"/>
	<path class="st8" d="M198.9,438.5v1.3c1,0.6,2.5,0.6,3.5,0v-1.3C201.4,439.1,199.9,439,198.9,438.5z"/>
	<path class="st8" d="M198.9,438.5v1.3c0.3,0.2,0.8,0.3,1.2,0.4v-1.3C199.7,438.8,199.3,438.7,198.9,438.5z"/>
	<path class="st8" d="M200.2,438.9v1.3c0.8,0.1,1.6,0,2.2-0.4v-1.3C201.8,438.9,200.9,439,200.2,438.9z"/>
	<path class="st8" d="M172.9,437.9v-1.3c0,0.4-0.2,0.7-0.7,1v1.3C172.7,438.6,172.9,438.3,172.9,437.9z"/>
	<path class="st8" d="M172.2,437.6v1.3c0.5-0.3,0.7-0.6,0.7-1v-1.3C172.9,437,172.7,437.3,172.2,437.6z"/>
	<path class="st8" d="M140.4,441.3v1.3c0,0.4,0.2,0.7,0.7,1v-1.3C140.6,442,140.4,441.6,140.4,441.3z"/>
	<path class="st8" d="M140.4,441.3v1.3c0,0.2,0.1,0.4,0.3,0.6v-1.3C140.5,441.7,140.4,441.5,140.4,441.3z"/>
	<path class="st8" d="M140.6,441.9v1.3c0.1,0.1,0.3,0.3,0.4,0.4v-1.3C140.9,442.1,140.7,442,140.6,441.9z"/>
	<path class="st8" d="M141.1,442.3v1.3l9.8,5.7V448L141.1,442.3z"/>
	<path class="st8" d="M154.3,448v1.3l17.9-10.4v-1.3L154.3,448z"/>
	<path class="st8" d="M150.9,448v1.3c1,0.6,2.5,0.6,3.5,0V448C153.4,448.5,151.8,448.5,150.9,448z"/>
	<path class="st8" d="M150.9,448v1.3c0.3,0.2,0.8,0.3,1.2,0.4v-1.3C151.6,448.3,151.2,448.2,150.9,448z"/>
	<path class="st8" d="M152.1,448.3v1.3c0.8,0.1,1.6,0,2.2-0.4V448C153.7,448.3,152.9,448.4,152.1,448.3z"/>
	<path class="st8" d="M196.8,442.5v-1.3c0,0.4-0.2,0.7-0.7,1v1.3C196.6,443.2,196.8,442.8,196.8,442.5z"/>
	<path class="st8" d="M196.1,442.1v1.3c0.5-0.3,0.7-0.6,0.7-1v-1.3C196.8,441.5,196.6,441.9,196.1,442.1z"/>
	<path class="st8" d="M156.1,450.4v1.3c0,0.4,0.2,0.7,0.7,1v-1.3C156.4,451.2,156.1,450.8,156.1,450.4z"/>
	<path class="st8" d="M156.1,450.4v1.3c0,0.2,0.1,0.4,0.3,0.6v-1.3C156.2,450.9,156.1,450.7,156.1,450.4z"/>
	<path class="st8" d="M156.4,451.1v1.3c0.1,0.1,0.3,0.3,0.5,0.4v-1.3C156.7,451.3,156.5,451.2,156.4,451.1z"/>
	<path class="st8" d="M156.9,451.4v1.3l9.8,5.7l0-1.3L156.9,451.4z"/>
	<path class="st8" d="M170.1,457.1v1.3l26-15v-1.3L170.1,457.1z"/>
	<path class="st8" d="M166.6,457.1v1.3c1,0.6,2.5,0.6,3.5,0v-1.3C169.1,457.7,167.6,457.7,166.6,457.1z"/>
	<path class="st8" d="M166.6,457.1v1.3c0.4,0.2,0.8,0.3,1.2,0.4v-1.3C167.4,457.5,167,457.3,166.6,457.1z"/>
	<path class="st8" d="M167.9,457.5v1.3c0.8,0.1,1.6,0,2.2-0.4v-1.3C169.5,457.5,168.6,457.6,167.9,457.5z"/>
	<g class="st10">
		
			<image style="display:inline;overflow:visible;" width="397" height="273" xlink:href="65EB5E35.png"  transform="matrix(1 0 0 1 28 236)">
		</image>
	</g>

	<g>
		<g>
			<path class="st4" d="M273.8,293.7c-1,0.6-1,1.5,0,2l3.8,2.2c1,0.5,2.5,0.5,3.5,0l9.9-5.7c1-0.5,1-1.5,0-2l-3.8-2.2
				c-1-0.6-2.5-0.6-3.5,0L273.8,293.7z"/>
			<path class="st4" d="M286.8,301.3c-1,0.5-1,1.5,0,2l9.8,5.7c1,0.5,2.5,0.5,3.5,0l9.9-5.7c1-0.5,1-1.5,0-2l-9.8-5.7
				c-1-0.5-2.5-0.5-3.5,0L286.8,301.3z"/>
			<path class="st4" d="M254.5,304.8c-0.9,0.5-1,1.5,0,2l3.8,2.2c1,0.5,2.5,0.5,3.5,0l9.9-5.7c1-0.6,1-1.5,0-2l-3.8-2.2
				c-1-0.5-2.5-0.5-3.5,0L254.5,304.8z"/>
			<path class="st4" d="M270.7,310.6c-1,0.6-1,1.5,0,2l9.8,5.7c1,0.6,2.5,0.6,3.5,0l9.8-5.7c0.9-0.6,1-1.5,0-2l-9.8-5.7
				c-0.9-0.5-2.5-0.5-3.5,0L270.7,310.6z"/>
			<path class="st4" d="M235.2,316c-0.9,0.5-1,1.5,0,2l3.8,2.2c1,0.5,2.5,0.5,3.5,0l9.9-5.7c1-0.6,1-1.5,0-2l-3.8-2.2
				c-1-0.5-2.5-0.5-3.5,0L235.2,316z"/>
			<path class="st4" d="M255.1,319.5c-1,0.5-1,1.5,0,2l9.8,5.7c1,0.6,2.5,0.6,3.5,0l9.8-5.7c1-0.6,1-1.5,0-2l-9.8-5.7
				c-1-0.5-2.5-0.5-3.5,0L255.1,319.5z"/>
			<path class="st4" d="M239,328.9c-0.9,0.6-1,1.5,0,2l9.8,5.7c1,0.6,2.5,0.6,3.5,0l9.9-5.7c1-0.6,1-1.5,0-2l-9.8-5.7
				c-1-0.6-2.5-0.6-3.5,0L239,328.9z"/>
			<path class="st4" d="M215.9,327.1c-1,0.5-1,1.4,0,2l3.8,2.2c0.9,0.5,2.5,0.5,3.5,0l9.9-5.7c1-0.5,1-1.5,0-2l-3.8-2.2
				c-1-0.5-2.5-0.5-3.5,0L215.9,327.1z"/>
			<path class="st4" d="M222.9,338.2c-1,0.6-1,1.5,0,2l9.8,5.7c0.9,0.6,2.5,0.6,3.5,0l9.9-5.7c0.9-0.6,1-1.5,0-2l-9.8-5.7
				c-1-0.6-2.5-0.6-3.5,0L222.9,338.2z"/>
			<path class="st4" d="M196.5,338.3c-1,0.6-1,1.5,0,2l3.8,2.2c0.9,0.5,2.5,0.5,3.5,0l9.9-5.7c1-0.5,1-1.5,0-2l-3.8-2.2
				c-1-0.6-2.5-0.6-3.5,0L196.5,338.3z"/>
			<path class="st4" d="M206.7,347.5c-0.9,0.6-1,1.5,0,2l9.8,5.7c1,0.6,2.5,0.6,3.5,0l9.9-5.7c1-0.6,1-1.5,0-2l-9.8-5.7
				c-1-0.6-2.5-0.6-3.5,0L206.7,347.5z"/>
			<path class="st4" d="M177.2,349.5c-1,0.6-1,1.5,0,2l3.8,2.2c1,0.6,2.5,0.6,3.5,0l9.8-5.7c1-0.6,1-1.5,0-2l-3.8-2.2
				c-1-0.6-2.5-0.6-3.5,0L177.2,349.5z"/>
			<path class="st4" d="M190.6,356.8c-1,0.6-1,1.5,0,2l9.8,5.7c0.9,0.6,2.5,0.6,3.5,0l9.9-5.7c0.9-0.6,1-1.5,0-2l-9.8-5.7
				c-0.9-0.6-2.5-0.6-3.5,0L190.6,356.8z"/>
			<path class="st4" d="M157.9,360.6c-1,0.6-1,1.5,0,2l3.8,2.2c1,0.6,2.5,0.6,3.5,0l9.8-5.7c1-0.6,1-1.5,0-2l-3.8-2.2
				c-1-0.6-2.5-0.6-3.5,0L157.9,360.6z"/>
			<path class="st4" d="M174.4,366.1c-0.9,0.5-1,1.5,0,2l9.8,5.7c1,0.6,2.5,0.6,3.5,0l9.9-5.7c1-0.6,1-1.5,0-2l-9.8-5.7
				c-1-0.5-2.5-0.5-3.5,0L174.4,366.1z"/>
			<path class="st4" d="M138.5,371.8c-1,0.6-1,1.5,0,2l3.8,2.2c0.9,0.5,2.5,0.5,3.5,0l9.9-5.7c0.9-0.5,1-1.5,0-2l-3.8-2.2
				c-1-0.5-2.5-0.5-3.5,0L138.5,371.8z"/>
			<path class="st4" d="M158.3,375.5c-1,0.6-1,1.5,0,2l9.8,5.7c0.9,0.6,2.5,0.6,3.5,0l9.9-5.7c1-0.6,1-1.5,0-2l-9.8-5.7
				c-1-0.6-2.5-0.6-3.5,0L158.3,375.5z"/>
			<path class="st4" d="M142.1,384.8c-1,0.5-1,1.4,0,2l9.8,5.7c1,0.5,2.5,0.5,3.5,0l9.9-5.7c1-0.6,1-1.5,0-2l-9.8-5.7
				c-1-0.5-2.5-0.5-3.5,0L142.1,384.8z"/>
			<path class="st4" d="M119.2,382.9c-1,0.5-1,1.5,0,2l3.8,2.2c0.9,0.6,2.5,0.6,3.5,0l9.9-5.7c1-0.6,1-1.5,0-2l-3.8-2.2
				c-1-0.5-2.5-0.5-3.5,0L119.2,382.9z"/>
			<path class="st4" d="M126,394.1c-0.9,0.6-1,1.5,0,2l9.8,5.7c1,0.5,2.5,0.5,3.5,0l9.9-5.7c1-0.5,1-1.5,0-2l-9.8-5.7
				c-1-0.6-2.5-0.6-3.5,0L126,394.1z"/>
			<path class="st4" d="M99.9,394.1c-1,0.6-1,1.5,0,2l3.8,2.2c0.9,0.6,2.5,0.6,3.5,0l9.9-5.7c1-0.5,1-1.5,0-2l-3.8-2.2
				c-1-0.6-2.5-0.6-3.5,0L99.9,394.1z"/>
			<path class="st4" d="M109.9,403.4c-1,0.6-1,1.5,0,2l9.8,5.7c0.9,0.5,2.5,0.5,3.5,0l9.9-5.7c1-0.5,1-1.5,0-2l-9.8-5.7
				c-0.9-0.6-2.5-0.6-3.5,0L109.9,403.4z"/>
			<path class="st4" d="M80.5,405.3c-1,0.5-1,1.5,0,2l3.8,2.2c1,0.5,2.5,0.5,3.5,0l9.9-5.7c1-0.5,1-1.5,0-2l-3.8-2.2
				c-1-0.5-2.5-0.5-3.5,0L80.5,405.3z"/>
			<path class="st4" d="M93.7,412.8c-1,0.5-1,1.5,0,2l9.8,5.7c1,0.6,2.5,0.6,3.5,0l9.9-5.7c1-0.6,1-1.5,0-2l-9.8-5.7
				c-1-0.5-2.5-0.5-3.5,0L93.7,412.8z"/>
			<path class="st4" d="M278.4,324.4c-0.9,0.5-0.9,1.5,0,2l9.8,5.7c1,0.6,2.5,0.6,3.5,0l34.1-19.7c0.9-0.6,1-1.5,0-2l-9.8-5.7
				c-1-0.5-2.5-0.5-3.5,0L278.4,324.4z"/>
			<path class="st4" d="M262.9,333.4c-1,0.6-1,1.5,0,2l9.8,5.7c1,0.5,2.5,0.5,3.5,0l9.9-5.7c1-0.5,1-1.5,0-2l-9.8-5.7
				c-0.9-0.6-2.5-0.6-3.5,0L262.9,333.4z"/>
			<path class="st4" d="M302.3,328.9c-1,0.6-1,1.5,0,2l9.8,5.7c1,0.6,2.5,0.6,3.5,0l26-15c1-0.6,1-1.5,0-2l-9.8-5.7
				c-0.9-0.5-2.5-0.5-3.5,0L302.3,328.9z"/>
			<path class="st4" d="M286.7,337.9c-1,0.6-1,1.5,0,2l9.8,5.7c1,0.5,2.5,0.5,3.5,0l9.9-5.7c1-0.5,1-1.5,0-2l-9.8-5.7
				c-1-0.6-2.5-0.6-3.5,0L286.7,337.9z"/>
			<path class="st4" d="M246.7,342.7c-1,0.6-1,1.5,0,2l9.8,5.7c1,0.5,2.5,0.5,3.5,0l9.9-5.7c1-0.5,1-1.5,0-2L260,337
				c-1-0.6-2.5-0.6-3.5,0L246.7,342.7z"/>
			<path class="st4" d="M270.6,347.2c-1,0.6-1,1.5,0,2l9.8,5.7c0.9,0.5,2.5,0.5,3.5,0l9.9-5.7c1-0.5,1-1.5,0-2l-9.8-5.7
				c-1-0.6-2.5-0.6-3.5,0L270.6,347.2z"/>
			<path class="st4" d="M230.6,352c-1,0.6-1,1.5,0,2l9.8,5.7c0.9,0.6,2.5,0.6,3.5,0l9.8-5.7c0.9-0.6,1-1.5,0-2l-9.8-5.7
				c-1-0.6-2.5-0.6-3.5,0L230.6,352z"/>
			<path class="st4" d="M254.4,356.5c-0.9,0.5-1,1.5,0,2l9.8,5.7c1,0.6,2.5,0.6,3.5,0l9.9-5.7c0.9-0.6,1-1.5,0-2l-9.8-5.7
				c-0.9-0.5-2.5-0.5-3.5,0L254.4,356.5z"/>
			<path class="st4" d="M214.4,361.3c-1,0.5-1,1.4,0,2l9.8,5.7c1,0.6,2.5,0.6,3.5,0l9.9-5.7c0.9-0.6,1-1.5,0-2l-9.8-5.7
				c-0.9-0.5-2.5-0.5-3.5,0L214.4,361.3z"/>
			<path class="st4" d="M238.3,365.9c-1,0.5-1,1.4,0,2l9.8,5.7c1,0.6,2.5,0.6,3.5,0l9.9-5.7c1-0.6,1-1.5,0-2l-9.8-5.7
				c-1-0.5-2.5-0.5-3.5,0L238.3,365.9z"/>
			<path class="st4" d="M198.3,370.7c-1,0.6-1,1.5,0,2l9.8,5.7c1,0.6,2.5,0.6,3.5,0l9.9-5.7c1-0.6,1-1.5,0-2l-9.8-5.7
				c-1-0.6-2.5-0.6-3.5,0L198.3,370.7z"/>
			<path class="st4" d="M222.1,375.2c-1,0.5-1,1.4,0,2l9.8,5.7c0.9,0.6,2.5,0.6,3.5,0l9.9-5.7c0.9-0.6,1-1.5,0-2l-9.8-5.7
				c-0.9-0.6-2.5-0.6-3.5,0L222.1,375.2z"/>
			<path class="st4" d="M182.1,380c-0.9,0.6-1,1.5,0,2l9.8,5.7c0.9,0.6,2.5,0.6,3.5,0l9.9-5.7c1-0.6,1-1.5,0-2l-9.8-5.7
				c-1-0.6-2.5-0.6-3.5,0L182.1,380z"/>
			<path class="st4" d="M206,384.5c-1,0.6-1,1.5,0,2l9.8,5.7c1,0.5,2.5,0.5,3.5,0l9.9-5.7c0.9-0.5,1-1.5,0-2l-9.8-5.7
				c-1-0.6-2.5-0.6-3.5,0L206,384.5z"/>
			<path class="st4" d="M166,389.3c-1,0.6-1,1.5,0,2l9.8,5.7c1,0.5,2.5,0.5,3.5,0l9.9-5.7c0.9-0.5,1-1.5,0-2l-9.8-5.7
				c-1-0.6-2.5-0.6-3.5,0L166,389.3z"/>
			<path class="st4" d="M189.9,393.8c-1,0.6-1,1.5,0,2l9.8,5.7c1,0.6,2.5,0.6,3.5,0l9.9-5.7c1-0.6,1-1.5,0-2l-9.8-5.7
				c-1-0.6-2.5-0.6-3.5,0L189.9,393.8z"/>
			<path class="st4" d="M149.9,398.6c-1,0.6-1,1.5,0,2l9.8,5.7c1,0.6,2.5,0.6,3.5,0l9.9-5.7c0.9-0.6,1-1.5,0-2l-9.8-5.7
				c-0.9-0.6-2.5-0.6-3.5,0L149.9,398.6z"/>
			<path class="st4" d="M133.7,407.9c-1,0.5-1,1.5,0,2l9.8,5.7c1,0.6,2.5,0.6,3.5,0l9.9-5.7c0.9-0.6,1-1.5,0-2l-9.8-5.7
				c-1-0.5-2.5-0.5-3.5,0L133.7,407.9z"/>
			<path class="st4" d="M109.5,421.9c-0.9,0.5-0.9,1.5,0,2l9.8,5.7c1,0.6,2.5,0.6,3.5,0l17.9-10.3c0.9-0.5,1-1.5,0-2l-9.8-5.7
				c-1-0.6-2.5-0.6-3.5,0L109.5,421.9z"/>
			<path class="st4" d="M173.7,403.1c-0.9,0.5-1,1.4,0,2l9.8,5.7c0.9,0.5,2.5,0.5,3.5,0l9.9-5.7c0.9-0.6,1-1.5,0-2l-9.8-5.7
				c-0.9-0.5-2.5-0.5-3.5,0L173.7,403.1z"/>
			<path class="st4" d="M157.6,412.4c-1,0.5-1,1.5,0,2l9.8,5.7c1,0.6,2.5,0.6,3.5,0l9.9-5.7c1-0.6,1-1.5,0-2l-9.8-5.7
				c-1-0.5-2.5-0.5-3.5,0L157.6,412.4z"/>
			<path class="st4" d="M125.3,431.1c-1,0.6-1,1.5,0,2l9.8,5.7c1,0.6,2.5,0.6,3.5,0l26-15c1-0.6,1-1.5,0-2l-9.8-5.7
				c-1-0.6-2.5-0.6-3.5,0L125.3,431.1z"/>
			<path class="st4" d="M310.6,342.4c-1,0.5-1,1.5,0,2l9.8,5.7c1,0.6,2.5,0.6,3.5,0l33.5-19.3c1-0.6,1-1.5,0-2l-9.8-5.7
				c-1-0.6-2.5-0.6-3.5,0L310.6,342.4z"/>
			<path class="st4" d="M294.4,351.7c-1,0.5-1,1.5,0,2l9.8,5.7c1,0.6,2.5,0.6,3.5,0l9.9-5.7c1-0.6,1-1.5,0-2l-9.8-5.7
				c-1-0.6-2.5-0.6-3.5,0L294.4,351.7z"/>
			<path class="st4" d="M350,337.9c-1,0.6-1,1.5,0,2l9.8,5.7c1,0.6,2.5,0.6,3.5,0l9.9-5.7c1-0.6,1-1.5,0-2l-9.8-5.7
				c-1-0.6-2.5-0.6-3.5,0L350,337.9z"/>
			<path class="st4" d="M333.8,347.3c-1,0.6-1,1.5,0,2l9.8,5.7c1,0.6,2.5,0.6,3.5,0l9.9-5.7c1-0.6,1-1.5,0-2l-9.8-5.7
				c-1-0.6-2.5-0.6-3.5,0L333.8,347.3z"/>
			<path class="st4" d="M318.3,356.2c-1,0.6-1,1.5,0,2l9.8,5.7c1,0.6,2.5,0.6,3.5,0l9.8-5.7c1-0.6,1-1.5,0-2l-9.8-5.7
				c-1-0.6-2.5-0.6-3.5,0L318.3,356.2z"/>
			<path class="st4" d="M278.3,361.1c-1,0.5-1,1.5,0,2l9.8,5.7c0.9,0.6,2.5,0.6,3.5,0l9.8-5.7c1-0.6,1-1.5,0-2l-9.8-5.7
				c-1-0.5-2.5-0.5-3.5,0L278.3,361.1z"/>
			<path class="st4" d="M262.2,370.4c-1,0.6-1,1.5,0,2l9.8,5.7c1,0.6,2.5,0.6,3.5,0l9.9-5.7c1-0.6,1-1.5,0-2l-9.8-5.7
				c-1-0.6-2.5-0.6-3.5,0L262.2,370.4z"/>
			<path class="st4" d="M246,379.7c-0.9,0.6-1,1.5,0,2l9.8,5.7c0.9,0.6,2.5,0.6,3.5,0l9.9-5.7c1-0.6,1-1.5,0-2l-9.8-5.7
				c-0.9-0.6-2.5-0.6-3.5,0L246,379.7z"/>
			<path class="st4" d="M229.9,389c-1,0.6-1,1.5,0,2l9.8,5.7c1,0.5,2.5,0.5,3.5,0l9.8-5.7c1-0.5,1-1.5,0-2l-9.8-5.7
				c-0.9-0.6-2.5-0.6-3.5,0L229.9,389z"/>
			<path class="st4" d="M213.7,398.3c-0.9,0.5-1,1.5,0,2l9.8,5.7c0.9,0.6,2.5,0.6,3.5,0l9.8-5.7c1-0.6,1-1.5,0-2l-9.8-5.7
				c-1-0.5-2.5-0.5-3.5,0L213.7,398.3z"/>
			<path class="st4" d="M197.6,407.6c-1,0.5-1,1.4,0,2l9.8,5.7c1,0.6,2.5,0.6,3.5,0l9.9-5.7c1-0.6,1-1.5,0-2l-9.8-5.7
				c-1-0.5-2.5-0.5-3.5,0L197.6,407.6z"/>
			<path class="st4" d="M181.4,417c-0.9,0.5-1,1.5,0,2l9.8,5.7c1,0.6,2.5,0.6,3.5,0l9.9-5.7c0.9-0.6,1-1.5,0-2l-9.8-5.7
				c-0.9-0.5-2.5-0.5-3.5,0L181.4,417z"/>
			<path class="st4" d="M165.3,426.3c-1,0.5-1,1.5,0,2l9.8,5.7c1,0.6,2.5,0.6,3.5,0l9.9-5.7c1-0.5,1-1.5,0-2l-9.8-5.7
				c-1-0.5-2.5-0.5-3.5,0L165.3,426.3z"/>
			<path class="st4" d="M302.1,365.6c-1,0.6-1,1.5,0,2l9.8,5.7c1,0.5,2.5,0.5,3.5,0l9.9-5.7c1-0.5,1-1.4,0-2l-9.8-5.7
				c-1-0.5-2.5-0.5-3.5,0L302.1,365.6z"/>
			<path class="st4" d="M269.9,384.2c-1,0.5-1,1.5,0,2l9.8,5.7c1,0.5,2.5,0.5,3.5,0l26-15c0.9-0.5,0.9-1.5,0-2l-9.8-5.7
				c-1-0.6-2.5-0.6-3.5,0L269.9,384.2z"/>
			<path class="st4" d="M205.3,421.5c-1,0.6-1,1.5,0,2l9.8,5.7c0.9,0.5,2.5,0.5,3.5,0l58.3-33.7c1-0.6,1-1.5,0-2l-9.8-5.7
				c-0.9-0.6-2.5-0.6-3.5,0L205.3,421.5z"/>
			<path class="st4" d="M189.1,430.8c-1,0.6-1,1.5,0,2l9.8,5.7c1,0.6,2.5,0.6,3.5,0l9.9-5.7c1-0.6,1-1.5,0-2l-9.8-5.7
				c-1-0.6-2.5-0.6-3.5,0L189.1,430.8z"/>
			<path class="st4" d="M141.1,440.3c-1,0.6-1,1.5,0,2l9.8,5.7c1,0.6,2.5,0.6,3.5,0l17.9-10.3c1-0.6,1-1.5,0-2l-9.8-5.7
				c-1-0.5-2.5-0.5-3.5,0L141.1,440.3z"/>
			<path class="st4" d="M156.9,449.4c-1,0.6-1,1.5,0,2l9.8,5.7c1,0.5,2.5,0.5,3.5,0l26-15c1-0.6,1-1.5,0-2l-9.8-5.7
				c-1-0.5-2.5-0.5-3.5,0L156.9,449.4z"/>
		</g>
	</g>
	<path class="st7" d="M259.5,427.9c0.1,0.3,0.3,0.7,0.5,1c0.4,0.6,1,1.1,1.8,1.6l30,17.3c3.2,1.8,8.4,1.8,11.5,0l54.5-31.7
		c0.8-0.5,1.4-1,1.8-1.6c0.2-0.3,0.4-0.6,0.5-1c0.4-1.4-0.4-2.9-2.3-4.1l-30.1-17.3c-3.2-1.8-8.3-1.8-11.5,0l-54.5,31.7
		C259.8,425,259.1,426.5,259.5,427.9z"/>
	<path class="st1" d="M259.5,427.9c0.1,0.3,0.3,0.7,0.5,1c0.4,0.6,1,1.1,1.8,1.6l30,17.3c3.2,1.8,8.4,1.8,11.5,0l54.5-31.7
		c0.8-0.5,1.4-1,1.8-1.6c0.2-0.3,0.4-0.7,0.5-1c-0.3-1-1-1.9-2.3-2.6l-30.1-17.3c-3.2-1.8-8.3-1.8-11.5,0l-54.5,31.7
		C260.5,426,259.7,427,259.5,427.9z"/>
	<path class="st12" d="M267.4,279.5c2,1.1,5.2,1.1,7.2,0c0.4-0.3,0.8-0.5,1-0.8c0.9-1.1,0.5-2.4-1-3.3c-2-1.2-5.2-1.2-7.2,0
		c-0.7,0.4-1.1,0.9-1.3,1.3C265.6,277.7,266.1,278.8,267.4,279.5z"/>
	<path class="st4" d="M267.4,279.5c2,1.1,5.2,1.1,7.2,0c0.4-0.3,0.8-0.5,1-0.8c0.4-1,0-2.1-1.3-2.8c-2-1.1-5.2-1.1-7.2,0
		c-0.4,0.3-0.8,0.5-1,0.9C265.6,277.7,266.1,278.8,267.4,279.5z"/>
	<path class="st4" d="M188.9,503.9l-8.6-5v-5l8.6,5V503.9z"/>
	<path class="st6" d="M182.2,497.9V495l-1.8-1.1v5l8.6,5v-2.1L182.2,497.9z"/>
	<path class="st7" d="M181.3,498.4v-3.8l-1-0.6v5l8.6,5v-1.1L181.3,498.4z"/>
	<path class="st7" d="M180.3,499l1-0.6v-3.8l-1-0.6V499z"/>
	<path class="st4" d="M177,497l-8.6-5v-5l8.6,5V497z"/>
	<path class="st6" d="M170.2,491v-2.9l-1.8-1.1v5l8.6,5v-2.1L170.2,491z"/>
	<path class="st7" d="M169.4,491.4v-3.8l-1-0.6v5l8.6,5v-1.1L169.4,491.4z"/>
	<path class="st7" d="M168.4,492l1-0.6v-3.8l-1-0.6V492z"/>
	<path class="st4" d="M40.7,211.4l0.5,175l0,3l239.9-138.5l-0.5-178l-2.8,1.6L40.7,211.4z"/>
	
		<linearGradient id="SVGID_1_" gradientUnits="userSpaceOnUse" x1="38.252" y1="432.4662" x2="198.4202" y2="285.8502" gradientTransform="matrix(1 0 0 -1 0 552)">
		<stop  offset="0" style="stop-color:#4BAAE3"/>
		<stop  offset="0.1911" style="stop-color:#46A1E2"/>
		<stop  offset="0.4999" style="stop-color:#3789E1"/>
		<stop  offset="0.8858" style="stop-color:#2063DE"/>
		<stop  offset="1" style="stop-color:#1856DD"/>
	</linearGradient>
	<path class="st13" d="M40.7,211.4l0.5,175l237-136.8l-0.5-175L40.7,211.4z"/>
</g>
<g>
	<path class="st1" d="M44,193.1l-7.8-4.6c-4.7,2.7-8.5,9.3-8.5,14.8l7.8,4.6C35.5,202.4,39.3,195.8,44,193.1z"/>
	<path class="st1" d="M283.7,57.6l-7.8-4.6c-1.6-0.9-3.7-0.8-6.1,0.6l7.8,4.6C280,56.8,282.2,56.7,283.7,57.6z"/>
</g>
<g class="float_element delay_file_float">
    <g class="float_ultimate delay_file_ult">
        <path class="st8" d="M168.3,129.8c0,2.8,2,4,4.4,2.5c2.4-1.4,4.4-4.8,4.4-7.6c0-2.8-2-4-4.4-2.5C170.3,123.6,168.3,127,168.3,129.8
            z"/>
        <path class="st8" d="M161.9,134.5c0,1.5,1.1,2.1,2.3,1.4c1.3-0.8,2.3-2.6,2.3-4.1c0-1.5-1.1-2.1-2.3-1.4
            C162.9,131.2,161.9,133,161.9,134.5z"/>
        <path class="st14" d="M190.2,39.7l-3-1.8L252.8,0l3,1.8L190.2,39.7z"/>
        <path class="st15" d="M149.3,152.4l-3-1.8L146,51.8l3,1.8L149.3,152.4z"/>
        <path class="st14" d="M149,53.6l-3-1.8l36.9-21.3l3,1.7L149,53.6z"/>
        <path class="st16" d="M185.9,32.3l4.3,7.4l65.7-37.9l0.2,89l-106.8,61.7L149,53.6L185.9,32.3z"/>
        <path class="st17" d="M159.3,153.8l-8-4.7l-0.2-81.6l8,4.7L159.3,153.8z"/>
        <path class="st18" d="M159.1,72.2l-8-4.7L253.2,8.6l8,4.7L159.1,72.2z"/>
        <path class="st19" d="M261.2,13.3l0.2,81.6l-102.1,58.9l-0.2-81.6L261.2,13.3z"/>
        <path class="st16" d="M149.2,142.1v3.1h0v1.3h-2.9v1.9l12.9,7.5l0-7.7L149.2,142.1z"/>
        <path class="st15" d="M159.2,158.1l-3-1.8L156,73.5l3,1.8L159.2,158.1z"/>
        <path class="st14" d="M159,75.2l-3-1.8l106.8-61.7l3,1.8L159,75.2z"/>
        <path class="st16" d="M265.8,13.6l0.2,82.9l-106.8,61.7L159,75.2L265.8,13.6z"/>
        <path class="st15" d="M159.2,158.1l-12.9-7.5v-8l13,7.8L159.2,158.1z"/>
    </g>
</g>
<g class="float_element">
    <g class="float_ultimate">
        <path class="st20" d="M94.4,134.3l0.5,1.2l8.2,18.7l-26.2-8.3l-1.6-0.5L94.4,134.3z"/>
        <path class="st21" d="M101.4,81.6l-4.2-2.4c2.3-1.3,4.3-1.4,5.8-0.6l4.2,2.4C105.7,80.2,103.7,80.3,101.4,81.6z"/>
        <path class="st21" d="M6.7,183.6l-4.2-2.4c-1.5-0.9-2.4-2.7-2.4-5.2l4.2,2.4C4.3,180.9,5.2,182.8,6.7,183.6z"/>
        <path class="st21" d="M4.3,178.4l-4.2-2.4L0,144.7l4.2,2.4L4.3,178.4z"/>
        <path class="st21" d="M12.3,133l-4.2-2.4l89.1-51.4l4.2,2.4L12.3,133z"/>
        <path class="st20" d="M101.4,81.6c4.5-2.6,8.2-0.5,8.2,4.7l0.1,31.2c0,5.2-3.7,11.5-8.2,14.1l-6.7,3.9l-0.5-1.2l-19.2,11.1l1.6,0.5
            l-64.3,37.1c-4.5,2.6-8.2,0.5-8.2-4.7l-0.1-31.2c0-5.2,3.7-11.5,8.2-14.1L101.4,81.6z"/>
        <path class="st21" d="M4.2,147.2L0,144.7c0-5.2,3.7-11.5,8.2-14.1l4.2,2.4C7.8,135.6,4.2,142,4.2,147.2z"/>
    </g>
</g>
<g class="float_element robot_movement">
    <g class="float_ultimate robot_ultimate">
        <g>
            <path class="st14" d="M251.7,187.6l45.3-26.1v-52.2l-45.3,26.1V187.6z"/>
        </g>
        <path class="st5" d="M212.1,156.1l-8.6,5c1.1-0.6,2.6-0.6,4.3,0.4l8.6-5C214.7,155.6,213.2,155.5,212.1,156.1z"/>
        <path class="st5" d="M207.8,161.5l8.6-5c-1.7-1-3.2-1.1-4.3-0.4l-8.6,5C204.6,160.5,206.1,160.6,207.8,161.5z"/>
        <path class="st22" d="M198.5,97.6l7.2-43.2L198.5,97.6z"/>
        <path class="st22" d="M141.5,128.4L112,95L141.5,128.4z"/>
        <path class="st23" d="M254.8,214.1c-0.8,0-1.5,0-2.3-0.1c-13.5-1-26-11.2-29.6-24.2c-0.5-1.7,0.5-3.4,2.2-3.9
            c1.7-0.5,3.4,0.5,3.9,2.2c3,10.6,13.1,18.8,24,19.7c11,0.8,22.2-5.9,26.7-15.9c0.7-1.6,2.6-2.3,4.2-1.6c1.6,0.7,2.3,2.6,1.6,4.2
            C280.2,206.1,267.6,214.1,254.8,214.1z"/>
        <path class="st2" d="M296.9,188.9c0-6.8-5.5-12.2-12.2-12.2s-12.2,5.5-12.2,12.2c0,6.8,5.5,12.2,12.2,12.2S296.9,195.7,296.9,188.9
            z"/>
        <path class="st24" d="M227.4,202.4l8.6-5c1.1-0.6,1.8-2,1.8-3.9l-8.6,5C229.1,200.4,228.5,201.8,227.4,202.4z"/>
        <path class="st24" d="M227.4,202.4l8.6-5c1-0.6,1.6-1.7,1.8-3.3l-8.6,5C229,200.7,228.3,201.8,227.4,202.4z"/>
        <path class="st24" d="M229.1,199.1l8.6-5c0-0.2,0-0.4,0-0.6l-8.6,5C229.1,198.7,229.1,198.9,229.1,199.1z"/>
        <path class="st24" d="M229.1,198.5l8.6-5l0.1-17.7l-8.6,5L229.1,198.5z"/>
        <path class="st5" d="M223.2,170.4l8.6-5l-15.4-8.9l-8.6,5L223.2,170.4z"/>
        <path class="st2" d="M229.2,180.9l8.6-5c0-3.8-2.7-8.5-6-10.4l-8.6,5C226.5,172.3,229.2,177,229.2,180.9z"/>
        <path class="st2" d="M229.2,180.9l8.6-5c0-3.3-2-7.3-4.7-9.5l-8.6,5C227.2,173.6,229.2,177.6,229.2,180.9z"/>
        <path class="st5" d="M224.5,171.3l8.6-5c-0.4-0.4-0.9-0.7-1.3-0.9l-8.6,5C223.6,170.7,224.1,171,224.5,171.3z"/>
        <path class="st7" d="M207.8,161.5c-3.3-1.9-6.1-0.4-6.1,3.5l-0.1,17.7c0,3.8,2.7,8.5,6,10.4l15.4,8.9c3.3,1.9,6.1,0.4,6.1-3.5
            l0.1-17.7c0-3.8-2.7-8.5-6-10.4L207.8,161.5z"/>
        <path class="st3" d="M209.9,167.2c-2.4-1.4-4.4-0.3-4.4,2.5l0,12.7c0,2.8,1.9,6.1,4.3,7.5l11.1,6.4c2.4,1.4,4.4,0.3,4.4-2.5l0-12.7
            c0-2.8-1.9-6.1-4.3-7.5L209.9,167.2z"/>
        <path class="st1" d="M207.2,291.3c18.2-11.2,22.2-25.9,22.3-36.2c0,8.7-5.6,17.4-16.9,24.2c-23.2,14-61.6,14.3-85.7,0.9
            c-12.4-6.9-18.7-16.2-18.7-25.4c0.3,8.6,1.9,15.8,9,25.1c4.8,6.3,14,12.8,22.4,15.9c4.3,1.6,17.3,6.4,34,5.3
            C182.8,300.4,196,298.3,207.2,291.3z"/>
        <path class="st6" d="M229.5,255.1l0.2-58.5c0,8.7-5.6,17.4-16.9,24.2c-23.2,14-61.6,14.3-85.7,0.9c-12.4-6.9-18.7-16.2-18.7-25.4
            l-0.2,58.5c0,9.3,6.2,18.5,18.7,25.4c24.2,13.5,62.6,13.1,85.7-0.9C223.9,272.6,229.5,263.9,229.5,255.1z"/>
        <path class="st25 dicord_face" d="M208.7,231.1l0.8-0.2l0-0.9c0-0.8,0.1-1.7,0.4-2.5c2.9-0.5,5.5-0.5,8.4-0.1c6.3,9.8,7,18.1,7.3,25.8
            c-2.6,4.5-6.9,9.4-10,12.2c-0.9-0.8-1.7-1.6-2.5-2.5c0.9-1,1.8-2.1,2.5-3.2l0.7-1.1l-1.1-0.4c-0.2-0.1-0.5-0.2-0.7-0.3
            c-0.1-0.1-0.3-0.1-0.4-0.2l-0.6-0.3l-0.5,0.6c-5.7,6.8-13.3,9.8-21.4,8.6l-0.7-0.1l-0.3,0.7c-0.2,0.4-0.4,0.8-0.6,1.2l-0.7,1.2
            l1.2,0.3c1.2,0.3,2.4,0.6,3.7,0.7c-0.2,1.3-0.4,2.6-0.6,3.8c-3.6,0-7.3-0.6-11.6-2.2c-1.3-15.7,1.5-24.6,5-31.3
            c3.6-3.5,6.2-6,9-7.2c0.2,0.2,0.3,0.3,0.5,0.4c0,0,0.1,0.1,0.1,0.1c0.3,0.3,0.6,0.5,0.8,0.8l0.5,0.7l0.7-0.5
            C201.7,233.3,205.3,231.8,208.7,231.1z"/>
        <path class="st25 discord_eye" d="M199.4,254.9c-0.2,1.3-0.7,2.4-1.4,3.1c-0.7,0.7-1.5,1-2.2,0.9c-0.7-0.1-1.4-0.6-1.9-1.5
            c-0.5-0.9-0.7-2.1-0.6-3.3c0.2-1.3,0.7-2.4,1.4-3.1c0.7-0.7,1.5-1,2.2-0.9c0.7,0.1,1.4,0.6,1.9,1.5
            C199.3,252.4,199.5,253.6,199.4,254.9z"/>
        <path class="st25 discord_eye" d="M213.6,249.1c-0.2,1.3-0.7,2.4-1.4,3.1c-0.7,0.7-1.5,1-2.2,0.9c-0.7-0.1-1.4-0.6-1.9-1.5
            c-0.5-0.9-0.7-2.1-0.6-3.3c0.2-1.3,0.7-2.4,1.4-3.1c0.7-0.7,1.5-1,2.2-0.9c0.7,0.1,1.4,0.6,1.9,1.5
            C213.5,246.6,213.7,247.8,213.6,249.1z"/>
        <path class="st2" d="M125.3,172.1c-23.2,14-22.4,36.2,1.8,49.7c24.2,13.5,62.6,13.1,85.7-0.9c23.2-14,22.4-36.2-1.8-49.7
            C186.9,157.7,148.5,158.1,125.3,172.1z"/>
        <path class="st6" d="M205,206.6c16-9.8,19.6-22.1,21-26.8c-1.7,6.3-6.7,12.4-14.9,17.3c-21.4,12.9-56.8,13.2-79.1,0.8
            c-9.2-5.1-14.8-11.7-16.6-18.5c0.9,3.1,3.8,12.4,11.7,19.8c6.2,5.7,12.4,10,24.2,13.6C168.5,218.1,190.5,215.5,205,206.6z"/>
        <path class="st2" d="M147.9,101.3c-12.2,7.3-11.8,19,0.9,26.1c12.7,7.1,32.9,6.9,45.1-0.4c12.2-7.3,11.8-19-0.9-26.1
            C180.2,93.8,160.1,94,147.9,101.3z"/>
        <path class="st24" d="M208.6,99c-11.7-6.3-24.7-9.5-38.8-9.3c-14.5,0.2-27.6,3.6-38.7,10.3c4.2-2.5,10.1-2.4,16.8,1.4
            c12.2-7.3,32.4-7.5,45.1-0.4c12.7,7.1,13.1,18.8,0.9,26.1c-12.2,7.3-32.4,7.5-45.1,0.5c-12.7-7.1-13.1-18.8-0.9-26.1
            c-6.6-3.7-12.5-3.9-16.8-1.4c-5.2,3.4-14.9,9.7-20.7,22.6c-5.9,13-3.5,23.8-2.4,28.9c2.1,7.9,8.4,15.3,18.8,21.1
            c25.3,14.1,65.5,13.7,89.8-0.9c9.3-5.6,15-12.5,16.9-19.7c1.2-5.1,2-8.8,1.2-16.6c-0.4-4.3-1.9-9.1-4.2-14.1
            C229,118,222.9,106.7,208.6,99z"/>
        <path class="st3" d="M147.7,165.3c0.3,4.2,2.5,11.4,14.2,13.6c19.7,1.6,40.4-2.1,55.2-11c6.1-3.7,10.6-7.9,13.6-12.4
            c8.1-15-0.7-30.2-9.3-27.1c-0.9,0.3-1.8,1.2-2.5,1.9c-2.4,3.6-6,7-10.9,9.9c-11.9,7.2-28.5,10.1-44.3,8.8
            C151.6,149.4,147.3,159.8,147.7,165.3z"/>
        <path class="st24" d="M226,179.9l7.6-27.9c-2,7.2-7.6,14.1-16.9,19.7c-24.3,14.6-64.5,15-89.8,0.9c-10.5-5.8-16.8-13.2-18.8-21
            l7.4,27.9c1.8,6.8,7.3,13.3,16.6,18.5c22.3,12.4,57.7,12.1,79.1-0.8C219.3,192.3,224.3,186.2,226,179.9z"/>
        <path class="st0 second_eye_blink" d="M222,155.1c0,0.1,0.1,0.2,0.1,0.3c4.2-3.3,7.3-6.9,9.3-10.7c-1.3-5.3-5.6-7.9-8.3-4.9
            C219.6,144.3,222,155,222,155.1z"/>
        <path class="st0 eye_blink" d="M172,170.1c0,0.1,0,0.2,0,0.4c6.8,0,13.5-0.7,19.9-2c-0.4-6.2-5.2-10.9-10.7-10.5
            C175,158.8,171.9,165.6,172,170.1z"/>
        <path class="st0" d="M136.3,173.6c0-7.3-5.2-16.3-11.5-19.9c-6.4-3.7-11.5-0.7-11.5,6.6c0,7.3,5.2,16.3,11.5,19.9
            C131.1,183.9,136.3,181,136.3,173.6z"/>
        <path class="st26" d="M131.2,170.7c0-4.1-2.9-9.1-6.4-11.1c-3.6-2.1-6.4-0.4-6.4,3.7c0,4.1,2.9,9.1,6.4,11.1
            C128.3,176.5,131.2,174.8,131.2,170.7z"/>
        <path class="st27" d="M198.5,99.6c-0.1,0-0.2,0-0.3,0c-1.1-0.2-1.8-1.2-1.6-2.3l7.2-43.2c0.2-1.1,1.2-1.8,2.3-1.6
            c1.1,0.2,1.8,1.2,1.6,2.3l-7.2,43.2C200.2,98.9,199.4,99.6,198.5,99.6z"/>
        <path class="st22" d="M214.4,52.8c0-4.7-3.7-8.5-8.4-8.5c-4.7,0-8.5,3.7-8.5,8.4c0,4.7,3.7,8.4,8.4,8.5
            C210.5,61.2,214.3,57.4,214.4,52.8z"/>
        <path class="st27" d="M141.5,130.3c-0.6,0-1.1-0.2-1.5-0.7l-29.6-33.4c-0.7-0.8-0.6-2.1,0.2-2.8c0.8-0.7,2.1-0.7,2.8,0.2l29.6,33.4
            c0.7,0.8,0.6,2.1-0.2,2.8C142.5,130.2,142,130.3,141.5,130.3z"/>
        <path class="st22" d="M120.4,95c0-4.7-3.7-8.5-8.4-8.5c-4.7,0-8.5,3.7-8.5,8.4c0,4.7,3.7,8.5,8.4,8.5
            C116.6,103.4,120.3,99.7,120.4,95z"/>
        <path class="st23" d="M158.5,278.3c-7.1,0-14.2-1.6-20.6-4.8c-12.3-6.1-21.6-17.7-24.7-31.1c-0.4-1.7,0.6-3.4,2.3-3.8
            c1.7-0.4,3.4,0.6,3.8,2.3c2.7,11.6,10.7,21.6,21.4,26.9c10.7,5.3,23.5,5.5,34.3,0.6c1.6-0.7,3.5,0,4.2,1.6c0.7,1.6,0,3.5-1.6,4.2
            C171.6,277,165.1,278.3,158.5,278.3z"/>
        <path class="st2" d="M190.7,273.1c1.6-6.7-2.6-13.5-9.3-15.1c-6.7-1.6-13.5,2.6-15.1,9.3c-1.6,6.7,2.6,13.5,9.3,15.1
            C182.4,284,189.1,279.9,190.7,273.1z"/>
        <path class="st24" d="M124.8,249.1l8.6-5c1.1-0.6,1.8-2,1.8-3.9l-8.6,5C126.5,247.1,125.9,248.5,124.8,249.1z"/>
        <path class="st24" d="M124.8,249.1l8.6-5c1-0.6,1.6-1.7,1.8-3.3l-8.6,5C126.4,247.4,125.7,248.5,124.8,249.1z"/>
        <path class="st24" d="M126.5,245.8l8.6-5c0-0.2,0-0.4,0-0.6l-8.6,5C126.5,245.4,126.5,245.6,126.5,245.8z"/>
        <path class="st5" d="M109.5,202.8l-8.6,5c1.1-0.6,2.6-0.6,4.3,0.4l8.6-5C112.1,202.3,110.6,202.2,109.5,202.8z"/>
        <path class="st5" d="M105.2,208.2l8.6-5c-1.7-1-3.2-1.1-4.3-0.4l-8.6,5C102,207.2,103.5,207.3,105.2,208.2z"/>
        <path class="st24" d="M126.5,245.2l8.6-5l0.1-17.7l-8.6,5L126.5,245.2z"/>
        <path class="st5" d="M120.6,217.1l8.6-5l-15.4-8.9l-8.6,5L120.6,217.1z"/>
        <path class="st2" d="M126.6,227.6l8.6-5c0-3.8-2.7-8.5-6-10.4l-8.6,5C123.9,219,126.6,223.7,126.6,227.6z"/>
        <path class="st2" d="M126.6,227.6l8.6-5c0-3.3-2-7.3-4.7-9.5l-8.6,5C124.6,220.3,126.6,224.3,126.6,227.6z"/>
        <path class="st5" d="M121.9,218l8.6-5c-0.4-0.4-0.9-0.7-1.3-0.9l-8.6,5C121,217.4,121.5,217.7,121.9,218z"/>
        <path class="st7" d="M105.2,208.2c-3.3-1.9-6.1-0.4-6.1,3.5l0,17.7c0,3.8,2.7,8.5,6,10.4l15.4,8.9c3.3,1.9,6.1,0.4,6.1-3.5
            l0.1-17.7c0-3.8-2.7-8.5-6-10.4L105.2,208.2z"/>
        <path class="st0" d="M107.3,213.9c-2.4-1.4-4.4-0.3-4.4,2.5l0,12.7c0,2.8,1.9,6.1,4.3,7.5l11.1,6.4c2.4,1.4,4.4,0.3,4.4-2.5l0-12.7
            c0-2.8-1.9-6.1-4.3-7.5L107.3,213.9z"/>
    </g>
</g>
</svg>