<svg width="28" height="18" viewBox="0 0 28 18" fill="none" xmlns="http://www.w3.org/2000/svg">
<path d="M27.3369 8.31562C24.7949 3.35578 19.7624 0 14 0C8.23765 0 3.20373 3.35813 0.6631 8.31609C0.555869 8.52821 0.5 8.76256 0.5 9.00023C0.5 9.23791 0.555869 9.47226 0.6631 9.68438C3.20514 14.6442 8.23765 18 14 18C19.7624 18 24.7963 14.6419 27.3369 9.68391C27.4441 9.47179 27.5 9.23744 27.5 8.99977C27.5 8.76209 27.4441 8.52774 27.3369 8.31562ZM14 15.75C12.665 15.75 11.3599 15.3541 10.2499 14.6124C9.13986 13.8707 8.27469 12.8165 7.7638 11.5831C7.25291 10.3497 7.11924 8.99251 7.37969 7.68314C7.64014 6.37377 8.28301 5.17103 9.22702 4.22703C10.171 3.28302 11.3738 2.64015 12.6831 2.3797C13.9925 2.11925 15.3497 2.25292 16.5831 2.76381C17.8165 3.2747 18.8707 4.13987 19.6124 5.2499C20.3541 6.35993 20.75 7.66498 20.75 9C20.7504 9.88654 20.5761 10.7645 20.2371 11.5836C19.898 12.4028 19.4008 13.1471 18.7739 13.7739C18.1471 14.4008 17.4028 14.898 16.5836 15.2371C15.7645 15.5761 14.8865 15.7504 14 15.75ZM14 4.5C13.5983 4.50561 13.1993 4.56537 12.8136 4.67766C13.1315 5.10969 13.2841 5.64135 13.2436 6.17622C13.2031 6.71109 12.9723 7.21376 12.593 7.59305C12.2138 7.97234 11.7111 8.20314 11.1762 8.24361C10.6413 8.28407 10.1097 8.13151 9.67765 7.81359C9.43163 8.71996 9.47604 9.68066 9.80462 10.5605C10.1332 11.4403 10.7294 12.1949 11.5093 12.7181C12.2893 13.2413 13.2136 13.5068 14.1523 13.4771C15.091 13.4475 15.9968 13.1242 16.7421 12.5528C17.4875 11.9814 18.0349 11.1907 18.3073 10.2919C18.5797 9.39308 18.5634 8.43149 18.2606 7.54246C17.9579 6.65342 17.384 5.8817 16.6197 5.33593C15.8554 4.79015 14.9392 4.49779 14 4.5Z" fill="url(#paint0_linear_2568_9813)"/>
<defs>
<linearGradient id="paint0_linear_2568_9813" x1="1.35039" y1="4.02631" x2="27.921" y2="5.72302" gradientUnits="userSpaceOnUse">
<stop stop-color="#EA7A8F"/>
<stop offset="1" stop-color="#E452C8"/>
</linearGradient>
</defs>
</svg>
