<svg width="18" height="18" viewBox="0 0 18 18" fill="none" xmlns="http://www.w3.org/2000/svg">
<path d="M18 2.8125C18 3.44566 17.4973 4.02891 16.65 4.5C15.627 5.06602 14.1047 5.4668 12.3504 5.58633C12.2238 5.52656 12.0902 5.4668 11.9566 5.41055C10.568 4.83047 8.72578 4.5 6.75 4.5C6.4582 4.5 6.17344 4.50703 5.88867 4.52109L5.85 4.5C5.00273 4.02891 4.5 3.44566 4.5 2.8125C4.5 1.2593 7.4918 0 11.25 0C14.9766 0 18 1.2593 18 2.8125ZM5.64961 5.66367C6.0082 5.63906 6.37383 5.625 6.75 5.625C8.93672 5.625 10.8773 6.05742 12.1113 6.72891C12.9832 7.20352 13.5 7.79414 13.5 8.4375C13.5 8.54648 13.4754 8.71523 13.4262 8.84883C13.2645 9.31289 12.8004 9.73828 12.1957 10.1004C12.1922 10.1004 12.1852 10.1039 12.1816 10.1074C12.1711 10.1145 12.1605 10.118 12.15 10.125C10.9195 10.807 8.95781 11.25 6.75 11.25C4.65469 11.25 2.77945 10.8527 1.54125 10.227C1.47551 10.1918 1.41152 10.1285 1.34965 10.125C0.502031 9.65391 0 9.07031 0 8.4375C0 7.21406 1.8784 6.16992 4.5 5.78672C4.86914 5.73047 5.25234 5.68828 5.64961 5.66367ZM13.7777 6.56016C14.7727 6.40547 15.6832 6.15938 16.4566 5.83945C17.0297 5.60039 17.5605 5.30508 18 4.94297V6.1875C18 6.86602 17.4199 7.4918 16.4602 7.97695C15.9434 8.23711 15.3211 8.45508 14.618 8.62383C14.6215 8.56406 14.625 8.50078 14.625 8.4375C14.625 7.66758 14.2523 7.03477 13.7777 6.56016ZM13.5 11.8125C13.5 12.4453 12.9973 13.0289 12.15 13.5C12.0867 13.5035 12.0234 13.5668 11.9602 13.602C10.7191 14.2277 8.84531 14.625 6.75 14.625C4.54219 14.625 2.58117 14.182 1.34965 13.5C0.502031 13.0289 1.05469e-05 12.4453 1.05469e-05 11.8125V10.568C0.437695 10.9301 0.971016 11.2254 1.54441 11.4645C2.93344 12.0445 4.77422 12.375 6.75 12.375C8.72578 12.375 10.568 12.0445 11.9566 11.4645C12.2309 11.352 12.4945 11.2219 12.7441 11.0813C12.9586 10.9617 13.159 10.8281 13.3488 10.6875C13.4016 10.6488 13.4508 10.6066 13.5 10.568V11.8125ZM14.625 9.77695C15.2613 9.60117 15.9082 9.44297 16.4566 9.21445C17.0297 8.97539 17.5605 8.68008 18 8.31797V9.5625C18 9.93164 17.8242 10.3008 17.4762 10.6488C16.9031 11.2219 15.8941 11.693 14.618 11.9988C14.6215 11.9391 14.625 11.8758 14.625 11.8125V9.77695ZM6.75 15.75C8.72578 15.75 10.568 15.4195 11.9566 14.8395C12.5297 14.6004 13.0605 14.3051 13.5 13.943V15.1875C13.5 16.7414 10.4766 18 6.75 18C3.02203 18 1.05469e-05 16.7414 1.05469e-05 15.1875V13.943C0.437695 14.3051 0.971016 14.6004 1.54441 14.8395C2.93344 15.4195 4.77422 15.75 6.75 15.75Z" fill="url(#paint0_linear_4510_28458)"/>
<defs>
<linearGradient id="paint0_linear_4510_28458" x1="-1.63443e-09" y1="9" x2="18.0008" y2="8.99365" gradientUnits="userSpaceOnUse">
<stop stop-color="#E77C8D"/>
<stop offset="0.505208" stop-color="#E251C6"/>
<stop offset="1" stop-color="#A764E5"/>
</linearGradient>
</defs>
</svg>
