<svg width="72" height="72" viewBox="0 0 72 72" fill="none" xmlns="http://www.w3.org/2000/svg">
<mask id="mask0_1299_5800" style="mask-type:alpha" maskUnits="userSpaceOnUse" x="0" y="0" width="73" height="72">
<rect x="0.000488281" width="72" height="72" fill="#C4C4C4"/>
</mask>
<g mask="url(#mask0_1299_5800)">
</g>
<g clip-path="url(#clip0_1299_5800)">
<path d="M29.7893 6.07035C29.6253 6.09378 29.0511 6.17582 28.5003 6.24613C25.8518 6.59769 22.8636 7.86332 20.5315 9.64457C13.8401 14.7071 11.6604 23.8828 15.3518 31.4297C15.9143 32.5782 16.9456 34.1836 17.6253 34.9805L18.012 35.4375L19.3011 34.3008C20.0159 33.668 20.6604 33.0938 20.7542 33.0117C20.8831 32.8828 20.8245 32.7305 20.344 32.086C19.0667 30.375 18.387 28.9453 17.8714 26.9883C17.5081 25.5938 17.3909 23.25 17.5901 21.8203C18.4456 15.9844 22.7932 11.3789 28.5472 10.2071C29.9768 9.9141 32.2034 9.89066 33.6565 10.1485C37.9573 10.9219 41.6487 13.7227 43.5589 17.6602C44.9417 20.4961 45.3284 23.4727 44.7073 26.543C44.6136 27.0469 44.5432 27.4688 44.5667 27.4922C44.5901 27.5157 45.4222 27.7735 46.4065 28.0664L48.1995 28.5938L48.305 28.3243C48.7737 27.0938 49.0315 23.2852 48.7737 21.4805C47.8597 15.0703 43.9104 9.87894 38.0745 7.40628C35.637 6.37503 31.9104 5.77738 29.7893 6.07035Z" fill="#0969DC"/>
<path d="M29.4028 12.6797C25.852 13.2774 22.7349 15.6563 21.1646 18.961C20.3794 20.5899 20.1333 21.7852 20.1333 23.7539C20.1333 25.6289 20.3677 26.7422 21.0708 28.2657C21.5161 29.2266 22.2896 30.4922 22.4419 30.4922C22.5942 30.4922 25.4536 28.2305 25.4536 28.1133C25.4536 28.0547 25.3599 27.8672 25.231 27.7032C24.4575 26.6016 24.0356 25.1953 24.0356 23.7071C24.0356 20.2266 26.4028 17.3086 29.813 16.6172C30.8794 16.3946 31.4888 16.3828 32.438 16.5586C35.9185 17.1914 38.4614 20.2032 38.4614 23.6953V24.5977L40.3716 24.8203L42.27 25.043L42.3403 24.3985C42.4224 23.5782 42.27 21.7969 42.0356 20.8711C40.9927 16.8399 37.4419 13.5235 33.3169 12.75C32.2974 12.5508 30.3638 12.5274 29.4028 12.6797Z" fill="#0969DC"/>
<path d="M29.8481 20.6836C29.52 20.8359 29.0395 21.2109 28.77 21.5156C27.8559 22.5469 27.9145 21.6445 27.9145 35.7305V48.3047H27.2817H26.6371L26.602 43.9336C26.5668 39.668 26.5551 39.5625 26.2973 38.9883C25.2895 36.7969 22.4887 36.3399 20.8481 38.0977C19.8989 39.1055 19.934 38.8477 19.9809 47.2149C20.016 54.3867 20.0278 54.5977 20.2739 55.5703C20.6254 56.8945 20.9184 57.668 21.5043 58.793C23.4731 62.5664 27.1645 65.1914 31.4301 65.836C33.0707 66.082 45.4106 66.0703 47.0629 65.8242C49.8637 65.4024 52.4535 64.0781 54.516 62.0156C56.4379 60.0938 57.6684 57.7735 58.2426 54.9961C58.4184 54.0938 58.4418 53.1445 58.4418 46.0195V38.0508L58.1723 37.5117C57.8442 36.832 57.2348 36.1992 56.5903 35.8594C55.8754 35.4727 54.434 35.4844 53.6957 35.8594C52.6879 36.3867 51.9848 37.3359 51.8559 38.3555L51.7856 38.8125H51.1762H50.5551L50.5082 36.668C50.4731 34.7695 50.4379 34.4766 50.2035 33.9492C49.2426 31.8281 46.477 31.2774 44.8715 32.8828C43.9926 33.7617 43.9106 34.0313 43.8754 36.5508L43.8285 38.8125H43.2075H42.5746L42.5395 35.0274C42.5043 31.3711 42.4926 31.2305 42.2348 30.6563C41.016 27.9727 37.1489 28.0664 36.1176 30.7969C35.895 31.3945 35.8832 31.6992 35.8832 35.1211V38.8125H35.2387H34.6059L34.5707 30.8672C34.5356 23.0859 34.5356 22.9219 34.2895 22.3945C33.7035 21.1289 32.7426 20.4961 31.3129 20.4375C30.5746 20.4141 30.3403 20.4492 29.8481 20.6836Z" fill="#2488FF"/>
</g>
<defs>
<clipPath id="clip0_1299_5800">
<rect width="60" height="60" fill="white" transform="translate(6.00049 6)"/>
</clipPath>
</defs>
</svg>
