<svg width="72" height="72" viewBox="0 0 72 72" fill="none" xmlns="http://www.w3.org/2000/svg">
<mask id="mask0_1299_5837" style="mask-type:alpha" maskUnits="userSpaceOnUse" x="0" y="0" width="72" height="72">
<rect width="72" height="72" fill="#C4C4C4"/>
</mask>
<g mask="url(#mask0_1299_5837)">
<path d="M46.7224 6.28124C46.2537 6.50389 43.8162 8.89452 34.1834 18.539C27.4451 25.289 22.0427 30.6094 21.7967 30.7383C20.6248 31.3476 19.0662 30.5625 18.8201 29.2383C18.7615 28.9219 19.2302 26.8242 20.8357 20.1914C22.3826 13.8516 22.9334 11.3789 22.9334 10.8633C22.9334 9.4453 21.9724 8.21483 20.5545 7.80468C18.9373 7.33593 17.074 8.33202 16.6052 9.91405C16.5115 10.2422 16.1951 11.4844 15.9021 12.6797C14.449 18.7265 12.3396 24.3867 9.199 30.6562C7.52322 34.0078 6.93728 35.5547 6.46853 37.7812C4.46463 47.4961 9.18728 57.2695 18.0115 61.664C18.9138 62.1094 20.2146 62.6719 20.906 62.8945C27.6912 65.1328 35.1092 63.9375 40.8045 59.6836C41.9177 58.8515 64.6404 36.3398 65.0037 35.707C65.5427 34.7695 65.5193 33.8086 64.9451 32.9297C64.2771 31.9219 62.824 31.4883 61.6873 31.957C61.3943 32.0859 59.4256 33.9609 55.4529 37.9336C49.5701 43.8047 49.2537 44.0859 48.4216 44.0859C47.9998 44.0859 47.2966 43.8164 46.9802 43.5234C46.3591 42.9726 46.1365 41.8476 46.4998 41.1211C46.6052 40.9101 50.9763 36.4453 56.2146 31.1953C65.0974 22.289 65.742 21.6094 65.8826 21.0937C66.3045 19.4883 65.156 17.8594 63.5271 17.7422C62.1326 17.6367 62.6013 17.2383 53.2263 26.5781C47.4373 32.3437 44.5779 35.1094 44.2849 35.2383C43.7459 35.4609 43.2537 35.4609 42.7146 35.2383C42.1287 34.9922 41.8709 34.7461 41.6131 34.1836C41.3318 33.5742 41.3318 33.0234 41.6365 32.414C41.8006 32.0625 44.4959 29.3203 50.8826 22.9922C60.5388 13.4297 60.492 13.4766 60.492 12.3398C60.492 11.3086 59.742 10.1953 58.7693 9.78514C58.2654 9.57421 57.3045 9.58593 56.7654 9.80858C56.4607 9.93749 53.6013 12.7266 47.1912 19.125C40.7927 25.5117 37.9217 28.3125 37.617 28.4414C36.7146 28.8047 35.5896 28.5351 35.0857 27.832C34.8279 27.457 34.5701 26.6133 34.6404 26.3789C34.6638 26.2851 34.7224 26.0508 34.7693 25.8633C34.8279 25.5937 36.7381 23.6133 42.4451 17.8945C48.2693 12.0586 50.1091 10.1484 50.2849 9.74999C50.8709 8.44921 50.2849 6.89061 48.9607 6.28124C48.1873 5.91796 47.4841 5.91796 46.7224 6.28124Z" fill="#2488FF"/>
<path d="M57.914 49.5C57.4453 49.7344 57.3164 49.9101 56.7656 50.9414C56.1093 52.1719 55.8515 52.5469 55.0078 53.543C53.9648 54.75 52.1836 55.9922 50.5546 56.6484C49.5937 57.0234 49.207 57.3047 48.9375 57.8203C48.5742 58.5234 48.8671 59.5078 49.582 59.9883C50.2031 60.4102 50.8476 60.3398 52.2656 59.7422C55.4882 58.3594 58.3476 55.6406 59.9531 52.4414C60.6679 51.0117 60.4687 49.957 59.4023 49.4766C58.7695 49.1836 58.5468 49.1836 57.914 49.5Z" fill="#0969DC"/>
<path d="M63.6564 52.6524C63.1525 52.8633 62.8244 53.25 62.2853 54.3281C60.4923 57.8789 57.5626 60.6914 54.1408 62.1445C52.629 62.7891 52.5353 62.8477 52.2658 63.2227C51.504 64.3008 52.1837 65.8242 53.508 65.9648C54.34 66.0586 56.5548 65.0625 58.6759 63.6445C61.4884 61.7578 63.9259 58.9336 65.4962 55.7461C65.9298 54.8555 66.0119 54.6094 65.965 54.1758C65.8478 53.0508 64.6291 52.2422 63.6564 52.6524Z" fill="#0969DC"/>
</g>
</svg>
