<svg width="144" height="43" viewBox="0 0 144 43" fill="none" xmlns="http://www.w3.org/2000/svg">
<mask id="mask0_2393_20551" style="mask-type:alpha" maskUnits="userSpaceOnUse" x="0" y="0" width="144" height="43">
<rect width="144" height="42.0373" fill="#C4C4C4"/>
</mask>
<g mask="url(#mask0_2393_20551)">
<path fill-rule="evenodd" clip-rule="evenodd" d="M39.2498 10.1274C38.8757 10.1015 38.5004 10.1181 38.129 10.1771L33.7747 10.8683L29.4562 10.5641L29.1363 11.0942L28.2103 13.3293L26.0205 8.71901L26.9723 7.14183C27.3781 6.4694 28.0497 6.09076 28.749 6.14002L33.6365 6.48433L37.6336 5.8498C38.2413 5.75333 38.8555 5.72611 39.4676 5.76851L44.7111 6.13171C44.9811 6.15042 45.2449 6.23533 45.4854 6.381L46.9344 7.25846C48.0069 7.90793 48.2057 9.37468 47.7616 10.3653C47.1392 11.7535 46.8989 12.4379 46.7484 12.8967C46.7243 12.9702 46.7006 13.0444 46.6763 13.1203L46.6759 13.1216C46.5421 13.5402 46.3931 14.0067 46.0832 14.6542C45.4469 15.9836 44.0076 18.3461 39.6622 25.2784L34.5258 36.7594C34.2005 37.4865 33.5599 37.9417 32.8619 37.9417L27.4331 37.9417C26.64 37.9417 25.9132 37.4201 25.5498 36.5901L24.125 33.3366L24.0913 33.2365C22.2751 27.8437 20.2371 25.2044 19.8645 24.7218L19.8481 24.7006C19.2515 23.9265 19.2064 22.8384 19.6047 22.0243L21.9068 17.3189L24.015 21.7572L23.4366 22.9394C24.4271 24.4237 26.0406 27.2107 27.5042 31.5256L28.4018 33.5753L31.7589 33.5753L36.5121 22.951L36.5954 22.8181C41.0972 15.6373 42.3562 13.5476 42.8527 12.5103C43.0164 12.1682 43.0691 12.0045 43.1905 11.6278C43.2188 11.5397 43.2509 11.4401 43.2891 11.3237C43.3727 11.0689 43.4715 10.7809 43.6039 10.429L39.2498 10.1274Z" fill="#2E2368"/>
<path fill-rule="evenodd" clip-rule="evenodd" d="M37.5737 5.47258C38.2098 5.3716 38.853 5.34308 39.494 5.38748L44.7375 5.75068C45.0706 5.77375 45.3928 5.87839 45.6833 6.05429L47.1323 6.93175C48.4149 7.70851 48.6094 9.40797 48.1101 10.5216C47.4926 11.8987 47.2573 12.5707 47.1113 13.0157C47.0878 13.0874 47.0645 13.1602 47.0403 13.2361C47.0403 13.2361 47.0403 13.2361 47.0403 13.2361C47.0402 13.2362 47.0402 13.2364 47.0401 13.2365L47.0398 13.2375L47.0393 13.2393C46.9044 13.6614 46.749 14.1479 46.4277 14.8191C45.7801 16.1721 44.327 18.5557 40 25.4587L34.8744 36.9154C34.4985 37.7555 33.7355 38.3237 32.8619 38.3237L27.4332 38.3236C26.4627 38.3236 25.6133 37.6873 25.1999 36.7433L23.7684 33.4744L23.7293 33.3584C21.9336 28.0262 19.924 25.4239 19.5644 24.9581L19.5458 24.934L19.5456 24.9338C18.8515 24.0333 18.806 22.7877 19.2616 21.8564L21.9119 16.4394L24.439 21.7597L23.8757 22.9111C24.888 24.4584 26.4447 27.2176 27.8607 31.3874L28.6515 33.1933L31.5114 33.1933L36.1743 22.7707L36.2718 22.6152C40.7814 15.4219 42.0237 13.3575 42.5081 12.3454C42.6605 12.0272 42.7069 11.8834 42.8269 11.5107C42.8553 11.4227 42.8876 11.3221 42.9261 11.2047C42.9697 11.0718 43.0174 10.93 43.0717 10.775L39.2234 10.5084C38.8782 10.4845 38.5318 10.4999 38.1889 10.5543L33.7915 11.2524L29.6625 10.9615L29.4781 11.267L28.2342 14.2697L25.5874 8.69744L26.6453 6.94448C27.1142 6.16749 27.9133 5.69826 28.7758 5.75902L33.6197 6.10026L37.5737 5.47258ZM39.4412 6.14954C38.858 6.10914 38.2727 6.13507 37.6934 6.22703L33.6532 6.8684L28.7221 6.52102C28.186 6.48325 27.6421 6.77132 27.2994 7.33918L26.4536 8.74059L28.1865 12.3889L28.7944 10.9215L29.25 10.1666L33.758 10.4842L38.0691 9.79985C38.469 9.73638 38.8732 9.71844 39.2762 9.74636L44.1422 10.0834L43.9614 10.5636C43.8312 10.9094 43.7342 11.1921 43.652 11.4428C43.6142 11.558 43.5824 11.6568 43.554 11.7449L43.5534 11.7468C43.4312 12.1263 43.3721 12.3098 43.1972 12.6752C42.6886 13.7377 41.413 15.8526 36.919 23.021L36.8498 23.1313L32.0065 33.9572L28.1521 33.9572L27.1478 31.6638L27.1425 31.6483C25.6905 27.3676 24.0925 24.6104 23.1189 23.1514L22.997 22.9688L23.591 21.7548L21.9017 18.1984L19.9478 22.1922C19.6068 22.8891 19.6514 23.8197 20.1507 24.4675L20.1668 24.4884C20.5585 24.9957 22.6203 27.6721 24.4533 33.1146L24.4816 33.1987L25.8996 36.4369C26.2132 37.153 26.8172 37.5598 27.4332 37.5598L32.8619 37.5598C33.3842 37.5598 33.9024 37.2175 34.1771 36.6034L39.3244 25.0981L39.3386 25.0755C43.6915 18.1314 45.1144 15.7936 45.7387 14.4893C46.0368 13.8663 46.1795 13.4203 46.312 13.0056C46.312 13.0056 46.312 13.0055 46.3121 13.0054L46.3124 13.0044L46.3125 13.004L46.3128 13.003C46.3369 12.9278 46.3609 12.8524 46.3855 12.7776C46.5405 12.305 46.7858 11.6082 47.413 10.2091C47.8021 9.34139 47.5989 8.10735 46.7366 7.58517L45.2876 6.70771C45.097 6.59227 44.8917 6.52708 44.6847 6.51275L39.4412 6.14954Z" fill="#2E2368"/>
<path fill-rule="evenodd" clip-rule="evenodd" d="M10.3859 10.1281C10.5936 10.1007 10.8033 10.1024 11.0107 10.1332L15.1049 10.7404C15.8664 10.8534 16.6352 10.883 17.4014 10.8291L20.4293 10.6158L27.0198 24.2493L26.6529 25.2032L28.779 30.2447L30.7641 25.084C31.0202 24.418 30.9901 23.6479 30.6829 23.0125L23.1324 7.39301C22.7502 6.60256 22.0198 6.13635 21.2487 6.19067L17.1802 6.47722C16.6423 6.51511 16.1025 6.49427 15.5678 6.41496L11.4736 5.80775C10.9759 5.73394 10.4726 5.72982 9.97417 5.79547L4.22616 6.55254C3.86175 6.60053 3.51636 6.76913 3.23003 7.0388L2.00493 8.19259C1.11099 9.0345 1.01484 10.6283 1.85532 11.6026L1.87194 11.6218C3.24557 13.2139 5.29577 15.5901 9.8351 28.6472L9.89052 28.8066L14.0586 36.8792C14.4085 37.5566 15.0397 37.9618 15.713 37.9409L20.0322 37.8071C20.8287 37.7824 21.5458 37.2332 21.8878 36.386L22.7774 34.1825L20.6825 29.2149L18.9611 33.4791L16.6735 33.55L13.2069 26.8362C9.87549 17.2744 7.76511 13.0879 6.14795 10.6863L10.3859 10.1281Z" fill="#2E2368"/>
<path fill-rule="evenodd" clip-rule="evenodd" d="M11.4175 6.18556C10.955 6.11696 10.4873 6.11313 10.024 6.17415L4.27603 6.93121C3.9968 6.96799 3.7242 7.09806 3.4919 7.31684L2.2668 8.47063C1.52308 9.17106 1.43636 10.5322 2.14452 11.3531L2.16113 11.3723C3.58013 13.017 5.64965 15.4449 10.1959 28.5218L10.2424 28.6555L14.398 36.7039C14.6914 37.2722 15.1977 37.5748 15.7011 37.5592L20.0204 37.4253C20.6394 37.4061 21.2379 36.9757 21.5337 36.243L22.3642 34.1857L20.6902 30.2161L19.222 33.8531L16.4446 33.9392L12.8551 26.9874L12.8462 26.9618C9.51772 17.4084 7.4202 13.2595 5.83113 10.8996L5.48672 10.3881L10.3361 9.74941C10.5789 9.71742 10.8243 9.71943 11.0667 9.75538L15.1609 10.3626C15.8951 10.4715 16.6361 10.5001 17.3746 10.4481L20.6606 10.2166L27.4357 24.2321L27.0647 25.1966L28.7627 29.2232L30.4076 24.9469C30.6263 24.3782 30.5997 23.7179 30.339 23.1788L22.7885 7.55924C22.4625 6.88491 21.8653 6.53013 21.2755 6.57167L17.2071 6.85822C16.6414 6.89806 16.0738 6.87614 15.5117 6.79278L11.4175 6.18556ZM9.92429 5.4168C10.4579 5.34651 10.9969 5.35093 11.5296 5.42993L15.6238 6.03715C16.1311 6.1124 16.6431 6.13215 17.1534 6.09621L21.2218 5.80966C22.1744 5.74257 23.038 6.32022 23.4762 7.22678L31.0268 22.8463C31.3805 23.5779 31.4141 24.4579 31.1205 25.2211L28.7952 31.2663L26.2412 25.2097L26.6039 24.2666L20.198 11.015L17.4282 11.2101C16.6343 11.266 15.8377 11.2352 15.0488 11.1182L10.9547 10.511C10.7824 10.4855 10.6083 10.484 10.4358 10.5068L6.79992 10.9856C8.39655 13.5 10.4513 17.7693 13.5587 26.6849L16.9024 33.1608L18.7002 33.1051L20.6748 28.2137L23.1906 34.1793L22.242 36.529C21.8538 37.4906 21.018 38.1586 20.044 38.1888L15.7248 38.3227C14.8817 38.3488 14.1255 37.8411 13.7193 37.0544L9.53868 28.9577L9.47434 28.7726C4.95879 15.784 2.9262 13.4283 1.59765 11.8886L1.56613 11.8521C0.593327 10.7245 0.698899 8.89793 1.74307 7.91454L2.96817 6.76075C3.30852 6.44021 3.72671 6.23308 4.17628 6.17386L9.92429 5.4168Z" fill="#2E2368"/>
<path d="M49.9476 11.5995C49.9476 10.9447 50.2931 10.3809 50.9843 9.90802C51.6754 9.43514 52.2938 9.19869 52.8394 9.19869C53.8216 9.19869 54.3127 9.76252 54.3127 10.8902C54.3127 12.0178 54.0217 13 53.4396 13.8366C52.8576 14.6369 52.0392 15.037 50.9843 15.037C50.2931 15.037 49.9476 13.8912 49.9476 11.5995ZM51.5299 38.554C50.1113 38.554 49.0382 38.2629 48.3107 37.6809C48.056 37.4263 47.9287 36.5169 47.9287 34.9528C47.9287 33.3886 48.0378 30.7877 48.2561 27.1501C48.5107 23.4762 48.729 21.4937 48.9109 21.2027C49.0927 20.9117 49.6566 20.3661 50.6023 19.5658C51.5481 18.7655 52.2756 18.3654 52.7849 18.3654C53.3305 18.3654 53.6033 19.0565 53.6033 20.4388C53.6033 20.8026 53.4942 21.5119 53.276 22.5668C53.0941 23.6217 52.8758 24.3856 52.6212 24.8585C52.1483 26.0589 51.9119 29.2054 51.9119 34.298C51.9119 35.2801 52.021 35.7712 52.2392 35.7712C52.8576 35.7348 53.7125 34.9709 54.8037 33.4795C55.895 31.9517 56.9681 30.0056 58.023 27.6412C59.1143 25.2768 59.769 24.0946 59.9873 24.0946C60.2419 24.0946 60.3692 24.2401 60.3692 24.5311C60.3692 25.5496 59.8418 27.1683 58.7869 29.3873C55.9132 35.4984 53.4942 38.554 51.5299 38.554Z" fill="#2E2368"/>
<path d="M61.7227 35.3347L61.7772 37.0262C61.7772 38.0447 61.4862 38.554 60.9042 38.554C60.0312 38.554 59.1945 38.4448 58.3943 38.2266C57.594 37.9719 57.1939 37.6446 57.1939 37.2444C57.1939 36.8079 57.2848 35.3711 57.4667 32.9339C57.685 30.4603 57.7941 28.6052 57.7941 27.3684V24.1491C57.7941 22.4031 57.976 21.3482 58.3397 20.9845C58.7035 20.6207 59.34 20.0932 60.2494 19.4021C61.1952 18.711 61.8682 18.3654 62.2683 18.3654C62.7048 18.3654 62.9776 18.4381 63.0868 18.5836C63.1959 18.7292 63.2504 19.002 63.2504 19.4021C63.2504 21.33 62.8867 23.1488 62.1592 24.8585C61.9773 26.9319 61.8864 28.3687 61.8864 29.169C62.0319 28.9507 62.7957 27.714 64.178 25.4587C65.5603 23.2034 66.7243 21.5483 67.6701 20.4934C68.6523 19.4385 69.5253 18.911 70.2892 18.911C71.0531 18.911 71.726 19.1657 72.308 19.6749C72.9264 20.1842 73.2356 20.8208 73.2356 21.5847C73.2356 23.1852 73.0537 25.5496 72.69 28.6779C72.3626 31.7699 72.1989 33.7342 72.1989 34.5708C72.1989 35.3711 72.308 35.7712 72.5263 35.7712C73.1447 35.7348 73.9995 34.9709 75.0908 33.4795C76.182 31.9517 77.2551 30.0056 78.31 27.6412C79.4013 25.2768 80.0561 24.0946 80.2743 24.0946C80.5289 24.0946 80.6563 24.2401 80.6563 24.5311C80.6563 25.5496 80.1288 27.1683 79.0739 29.3873C76.2002 35.4984 73.7812 38.554 71.8169 38.554C70.3983 38.554 69.3252 38.2629 68.5977 37.6809C68.3431 37.4263 68.2157 36.7715 68.2157 35.7166C68.2157 34.6254 68.3067 32.8793 68.4886 30.4785C68.7068 28.0414 68.8159 26.2226 68.8159 25.0222C68.8159 23.8218 68.5977 23.2216 68.1612 23.2216C67.761 23.2216 66.6698 24.4765 64.8874 26.9865C63.1049 29.46 62.1592 31.0424 62.05 31.7335C61.8318 33.0066 61.7227 34.207 61.7227 35.3347Z" fill="#2E2368"/>
<path d="M85.7904 21.5847L85.8995 20.7662C85.8995 20.1114 85.5175 19.784 84.7536 19.784C84.0261 19.784 83.3168 20.2751 82.6257 21.2573C81.9345 22.203 81.589 22.9851 81.589 23.6035C81.589 24.2219 81.6253 24.713 81.6981 25.0767C81.7708 25.4405 81.8436 25.7497 81.9163 26.0043C82.0255 26.2226 82.1892 26.4954 82.4074 26.8228C82.6257 27.1501 82.7894 27.3866 82.8985 27.5321L83.4987 28.296C83.7533 28.6597 83.9352 28.8962 84.0443 29.0053C85.9359 27.4412 88.1912 25.6951 90.8102 23.7672C90.9557 23.6581 91.1194 23.6035 91.3013 23.6035C91.665 23.6035 91.8469 23.8036 91.8469 24.2037C91.8469 24.6038 91.6832 24.913 91.3559 25.1313C89.0278 26.6227 86.8271 28.2414 84.7536 29.9875C85.5539 31.1515 85.954 32.4246 85.954 33.8069C85.954 35.1892 85.4266 36.3714 84.3717 37.3536C83.3168 38.3357 81.9709 38.8268 80.334 38.8268C78.6971 38.8268 77.8786 38.0447 77.8786 36.4805C77.8786 35.3529 79.079 33.625 81.4798 31.297C81.2979 31.0787 80.9706 30.7332 80.4977 30.2603C80.0248 29.751 79.661 29.3509 79.4064 29.0599C79.1882 28.7689 78.9153 28.3869 78.588 27.914C78.0059 27.0046 77.7149 26.0225 77.7149 24.9676C77.7149 22.8214 78.4061 21.0936 79.7884 19.784C81.1706 18.4381 82.6439 17.7652 84.208 17.7652C85.1902 17.7652 85.954 18.038 86.4997 18.5836C87.0453 19.0929 87.3181 19.6204 87.3181 20.166C87.3181 21.4028 87.0271 22.0212 86.4451 22.0212C86.0086 22.0212 85.7904 21.8757 85.7904 21.5847ZM82.2983 32.3337C80.8433 33.7887 80.1157 34.9709 80.1157 35.8803C80.1157 36.7534 80.5704 37.1899 81.4798 37.1899C82.0255 37.1899 82.4802 36.9716 82.8439 36.5351C83.6442 35.4438 83.4623 34.0434 82.2983 32.3337Z" fill="#2E2368"/>
<path d="M101.287 29.3873C98.4132 35.4984 95.976 38.554 93.9753 38.554C92.011 38.554 90.847 38.3175 90.4833 37.8446C90.1559 37.3717 89.9922 35.8076 89.9922 33.1522C89.9922 30.4967 90.2468 26.6591 90.7561 21.6392C88.9373 21.2755 87.9733 20.5298 87.8642 19.4021C87.8642 18.8201 88.2461 18.5291 89.01 18.5291C89.7739 18.5291 90.4469 18.6746 91.0289 18.9656C91.3563 16.3465 91.7382 13.6911 92.1747 10.9993C92.2839 10.3082 92.6294 9.65339 93.2114 9.03501C93.7935 8.41662 94.3573 8.10742 94.9029 8.10742C95.3758 8.10742 95.6122 8.85313 95.6122 10.3445C95.6122 11.0357 95.3576 14.2186 94.8484 19.8932C95.8305 19.7113 96.9036 19.3475 98.0676 18.8019C99.268 18.2563 99.9773 17.9834 100.196 17.9834C100.85 17.9834 101.178 18.1835 101.178 18.5836C101.214 18.9474 100.541 19.4567 99.1589 20.1114C97.7766 20.7298 96.2852 21.2027 94.6847 21.5301C94.2482 26.841 94.0299 30.8605 94.0299 33.5887C94.0299 35.0437 94.2482 35.7712 94.6847 35.7712C95.3394 35.7348 96.2124 34.9709 97.3037 33.4795C98.395 31.9881 99.4681 30.0602 100.523 27.6958C101.614 25.295 102.269 24.0946 102.487 24.0946C102.742 24.0946 102.869 24.2401 102.869 24.5311C102.869 25.5496 102.342 27.1683 101.287 29.3873Z" fill="#2E2368"/>
<path d="M117.12 26.4408C118.575 25.9679 119.575 25.5678 120.121 25.2404C120.703 24.8767 121.139 24.6038 121.43 24.422L122.085 24.04C122.267 23.9309 122.412 23.8763 122.522 23.8763C122.813 23.8763 122.958 24.04 122.958 24.3674C122.958 24.6948 122.394 25.2768 121.267 26.1134C120.139 26.9137 118.738 27.6412 117.065 28.296C116.811 31.3515 115.847 33.8251 114.173 35.7166C112.5 37.6082 110.117 38.554 107.025 38.554C104.77 38.554 103.042 37.6627 101.842 35.8803C100.641 34.0615 100.041 31.9517 100.041 29.5509C100.041 27.1138 100.751 24.8221 102.169 22.6759C103.624 20.5298 105.479 19.4567 107.735 19.4567C108.753 18.7292 109.954 18.3654 111.336 18.3654C112.755 18.3654 114.064 19.1111 115.265 20.6025C116.465 22.0939 117.083 24.04 117.12 26.4408ZM113.573 29.2236L111.609 29.3327C109.935 29.3327 108.517 28.8416 107.353 27.8595C106.189 26.841 105.607 25.7315 105.607 24.5311C105.607 23.3307 105.807 22.294 106.207 21.421C104.643 22.6577 103.861 25.0949 103.861 28.7325C103.861 30.4785 104.224 32.1518 104.952 33.7524C105.68 35.3165 106.825 36.0986 108.39 36.0986C109.954 36.0986 111.172 35.4438 112.045 34.1343C112.918 32.7884 113.428 31.1515 113.573 29.2236ZM110.19 20.166C109.608 20.166 109.153 20.4388 108.826 20.9845C108.499 21.4937 108.335 22.0575 108.335 22.6759C108.335 24.0218 108.79 25.1131 109.699 25.9497C110.645 26.7864 111.736 27.2047 112.973 27.2047H113.628C113.555 25.4223 113.246 23.8036 112.7 22.3485C112.191 20.8935 111.354 20.166 110.19 20.166Z" fill="#2E2368"/>
<path d="M124.172 35.3347L124.227 37.0262C124.227 38.0447 123.936 38.554 123.354 38.554C122.481 38.554 121.644 38.4448 120.844 38.2266C120.044 37.9719 119.644 37.6446 119.644 37.2444C119.644 36.8079 119.735 35.3711 119.917 32.9339C120.135 30.4603 120.244 28.6052 120.244 27.3684V24.1491C120.244 22.4031 120.426 21.3482 120.79 20.9845C121.153 20.6207 121.79 20.0932 122.699 19.4021C123.645 18.711 124.318 18.3654 124.718 18.3654C125.155 18.3654 125.427 18.4381 125.537 18.5836C125.646 18.7292 125.7 19.002 125.7 19.4021C125.7 21.33 125.337 23.1488 124.609 24.8585C124.427 26.9319 124.336 28.3687 124.336 29.169C124.482 28.9507 125.246 27.714 126.628 25.4587C128.01 23.2034 129.174 21.5483 130.12 20.4934C131.102 19.4385 131.975 18.911 132.739 18.911C133.503 18.911 134.176 19.1657 134.758 19.6749C135.376 20.1842 135.685 20.8208 135.685 21.5847C135.685 23.1852 135.504 25.5496 135.14 28.6779C134.812 31.7699 134.649 33.7342 134.649 34.5708C134.649 35.3711 134.758 35.7712 134.976 35.7712C135.594 35.7348 136.449 34.9709 137.541 33.4795C138.632 31.9517 139.705 30.0056 140.76 27.6412C141.851 25.2768 142.506 24.0946 142.724 24.0946C142.979 24.0946 143.106 24.2401 143.106 24.5311C143.106 25.5496 142.579 27.1683 141.524 29.3873C138.65 35.4984 136.231 38.554 134.267 38.554C132.848 38.554 131.775 38.2629 131.048 37.6809C130.793 37.4263 130.666 36.7715 130.666 35.7166C130.666 34.6254 130.757 32.8793 130.938 30.4785C131.157 28.0414 131.266 26.2226 131.266 25.0222C131.266 23.8218 131.048 23.2216 130.611 23.2216C130.211 23.2216 129.12 24.4765 127.337 26.9865C125.555 29.46 124.609 31.0424 124.5 31.7335C124.282 33.0066 124.172 34.207 124.172 35.3347Z" fill="#2E2368"/>
</g>
</svg>
