<svg width="161" height="47" viewBox="0 0 161 47" fill="none" xmlns="http://www.w3.org/2000/svg">
<mask id="mask0_876_6034" style="mask-type:alpha" maskUnits="userSpaceOnUse" x="0" y="0" width="161" height="47">
<rect width="161" height="47" fill="#C4C4C4"/>
</mask>
<g mask="url(#mask0_876_6034)">
<path fill-rule="evenodd" clip-rule="evenodd" d="M43.8834 9.32217C43.4651 9.2932 43.0455 9.3118 42.6302 9.37772L37.7619 10.1505L32.9336 9.8104L32.5758 10.4032L31.5406 12.902L29.0922 7.74753L30.1564 5.98415C30.6102 5.23234 31.3609 4.80899 32.1428 4.86407L37.6073 5.24903L42.0763 4.53959C42.7557 4.43173 43.4424 4.40129 44.1268 4.4487L49.9894 4.85478C50.2913 4.8757 50.5861 4.97063 50.8551 5.13349L52.4751 6.11455C53.6742 6.84069 53.8966 8.4806 53.3999 9.58822C52.7041 11.1402 52.4354 11.9054 52.2672 12.4184C52.2402 12.5006 52.2137 12.5836 52.1866 12.6684L52.1861 12.6699C52.0366 13.1379 51.8699 13.6594 51.5234 14.3833C50.812 15.8697 49.2029 18.5112 44.3444 26.2618L38.6016 39.0982C38.2379 39.9112 37.5217 40.4201 36.7413 40.4201L30.6716 40.4201C29.7849 40.4201 28.9723 39.837 28.5659 38.9089L26.973 35.2713L26.9353 35.1594C24.9047 29.13 22.6261 26.1791 22.2095 25.6396L22.1912 25.6159C21.5241 24.7504 21.4736 23.5338 21.919 22.6236L24.4929 17.3627L26.8499 22.325L26.2033 23.6467C27.3108 25.3062 29.1147 28.4223 30.7511 33.2466L31.7546 35.5382L35.5081 35.5382L40.8224 23.6597L40.9156 23.5111C45.9488 15.4825 47.3564 13.1461 47.9115 11.9864C48.0946 11.6039 48.1535 11.4209 48.2892 10.9997C48.3209 10.9013 48.3568 10.7898 48.3995 10.6598C48.4929 10.3748 48.6034 10.0528 48.7515 9.65938L43.8834 9.32217Z" fill="white"/>
<path fill-rule="evenodd" clip-rule="evenodd" d="M42.0093 4.11784C42.7206 4.00493 43.4396 3.97304 44.1563 4.02269L50.0189 4.42877C50.3913 4.45456 50.7515 4.57155 51.0763 4.76821L52.6963 5.74927C54.1305 6.61773 54.3479 8.51782 53.7896 9.76293C53.0993 11.3026 52.8361 12.0539 52.6729 12.5515C52.6466 12.6317 52.6206 12.713 52.5935 12.7979C52.5935 12.7979 52.5935 12.7979 52.5935 12.7979C52.5935 12.798 52.5934 12.7982 52.5934 12.7984L52.593 12.7994L52.5924 12.8014C52.4416 13.2734 52.2678 13.8173 51.9086 14.5677C51.1845 16.0805 49.5599 18.7455 44.7221 26.4634L38.9914 39.2726C38.5711 40.212 37.7181 40.8472 36.7413 40.8472L30.6716 40.8472C29.5867 40.8472 28.6369 40.1357 28.1747 39.0802L26.5743 35.4254L26.5306 35.2957C24.5228 29.3341 22.276 26.4245 21.8739 25.9037L21.8531 25.8768L21.853 25.8766C21.0769 24.8697 21.026 23.4771 21.5354 22.4359L24.4986 16.3794L27.324 22.3277L26.6942 23.615C27.8261 25.345 29.5665 28.4299 31.1496 33.092L32.0338 35.1112L35.2313 35.1112L40.4448 23.4581L40.5537 23.2843C45.5958 15.2418 46.9847 12.9336 47.5263 11.802C47.6966 11.4462 47.7485 11.2854 47.8827 10.8688C47.9144 10.7704 47.9506 10.6579 47.9937 10.5267C48.0424 10.3781 48.0957 10.2195 48.1564 10.0462L43.8538 9.74819C43.4679 9.72145 43.0806 9.73861 42.6972 9.79947L37.7806 10.58L33.1642 10.2547L32.9581 10.5963L31.5672 13.9535L28.608 7.72341L29.7908 5.7635C30.3151 4.89478 31.2085 4.37016 32.1728 4.43809L37.5886 4.81961L42.0093 4.11784ZM44.0973 4.87472C43.4452 4.82955 42.7909 4.85854 42.1432 4.96135L37.626 5.67844L32.1128 5.29005C31.5133 5.24782 30.9052 5.5699 30.5221 6.20479L29.5765 7.77165L31.5139 11.8506L32.1936 10.21L32.703 9.36606L37.7432 9.72113L42.5633 8.95596C43.0103 8.885 43.4623 8.86495 43.9129 8.89616L49.3533 9.273L49.1511 9.80984C49.0056 10.1965 48.8971 10.5125 48.8052 10.7928C48.763 10.9217 48.7274 11.0322 48.6957 11.1306L48.695 11.1328C48.5583 11.5571 48.4922 11.7622 48.2967 12.1708C47.7281 13.3587 46.3019 15.7233 41.2774 23.7379L41.2 23.8613L35.7849 35.9653L31.4755 35.9653L30.3526 33.4011L30.3467 33.3838C28.7233 28.5977 26.9367 25.515 25.8481 23.8837L25.7118 23.6795L26.3759 22.3222L24.4872 18.346L22.3026 22.8112C21.9213 23.5905 21.9712 24.631 22.5294 25.3552L22.5475 25.3786C22.9854 25.9457 25.2907 28.9381 27.34 35.0231L27.3717 35.1172L28.9571 38.7376C29.3077 39.5383 29.983 39.9931 30.6716 39.9931L36.7413 39.9931C37.3253 39.9931 37.9046 39.6104 38.2118 38.9238L43.9668 26.0602L43.9826 26.035C48.8494 18.271 50.4402 15.6573 51.1382 14.199C51.4716 13.5025 51.6311 13.0038 51.7792 12.5402C51.7793 12.5401 51.7793 12.54 51.7793 12.5399L51.7797 12.5389L51.7798 12.5384L51.7802 12.5373C51.8071 12.4532 51.834 12.3689 51.8614 12.2853C52.0347 11.7569 52.3089 10.9778 53.0103 9.41351C53.4453 8.44337 53.218 7.06365 52.2539 6.47983L50.6339 5.49877C50.4208 5.36971 50.1913 5.29683 49.9599 5.2808L44.0973 4.87472Z" fill="white"/>
<path fill-rule="evenodd" clip-rule="evenodd" d="M11.6119 9.32295C11.8441 9.29236 12.0786 9.29428 12.3104 9.32866L16.8879 10.0076C17.7394 10.1338 18.5989 10.167 19.4556 10.1067L22.841 9.86826L30.2095 25.1113L29.7993 26.1777L32.1763 31.8145L34.3958 26.0445C34.6822 25.2999 34.6485 24.4389 34.3051 23.7285L25.8631 6.26498C25.4359 5.38122 24.6193 4.85997 23.757 4.9207L19.2083 5.24107C18.6068 5.28344 18.0033 5.26014 17.4055 5.17147L12.828 4.49257C12.2716 4.41005 11.7088 4.40545 11.1515 4.47885L4.72494 5.32529C4.31752 5.37895 3.93136 5.56745 3.61122 5.86895L2.24149 7.15895C1.24201 8.10025 1.13451 9.88227 2.07421 10.9715L2.0928 10.993C3.62859 12.7731 5.92083 15.4298 10.9961 30.0284L11.058 30.2066L15.7182 39.2321C16.1093 39.9896 16.815 40.4426 17.5678 40.4193L22.397 40.2696C23.2875 40.242 24.0893 39.6279 24.4717 38.6808L25.4662 36.2171L23.1241 30.6631L21.1994 35.4307L18.6417 35.51L14.7659 28.0035C11.0412 17.3129 8.68169 12.6322 6.87361 9.94702L11.6119 9.32295Z" fill="white"/>
<path fill-rule="evenodd" clip-rule="evenodd" d="M12.7653 4.91499C12.2481 4.83828 11.7253 4.83401 11.2073 4.90223L4.78071 5.74867C4.46851 5.78979 4.16373 5.93521 3.904 6.17983L2.53427 7.46983C1.70275 8.25294 1.60579 9.77481 2.39755 10.6925L2.41613 10.7141C4.00265 12.5529 6.31649 15.2674 11.3994 29.8881L11.4514 30.0377L16.0976 39.0362C16.4257 39.6716 16.9917 40.0099 17.5546 39.9924L22.3838 39.8428C23.0758 39.8213 23.745 39.3401 24.0757 38.5209L25.0043 36.2207L23.1327 31.7825L21.4911 35.8489L18.3858 35.9451L14.3726 28.1726L14.3626 28.144C10.6412 17.4627 8.29606 12.8241 6.51939 10.1855L6.13433 9.61367L11.5561 8.89957C11.8277 8.8638 12.102 8.86605 12.3731 8.90625L16.9506 9.58515C17.7714 9.70689 18.5999 9.73887 19.4256 9.68071L23.0995 9.42195L30.6745 25.092L30.2597 26.1704L32.1581 30.6723L33.9972 25.8912C34.2418 25.2553 34.212 24.5171 33.9206 23.9143L25.4786 6.45084C25.1142 5.6969 24.4464 5.30023 23.787 5.34668L19.2383 5.66706C18.6058 5.7116 17.9713 5.68709 17.3428 5.59389L12.7653 4.91499ZM11.0958 4.05547C11.6924 3.97688 12.295 3.98182 12.8906 4.07015L17.4681 4.74906C18.0354 4.83318 18.6078 4.85527 19.1783 4.81509L23.727 4.49471C24.7921 4.4197 25.7576 5.06554 26.2476 6.07913L34.6895 23.5426C35.085 24.3606 35.1226 25.3444 34.7944 26.1978L32.1945 32.9566L29.339 26.185L29.7445 25.1306L22.5824 10.3146L19.4856 10.5327C18.5979 10.5952 17.7073 10.5608 16.8253 10.43L12.2478 9.75108C12.0552 9.72251 11.8605 9.72093 11.6677 9.74633L7.60255 10.2817C9.38767 13.0929 11.685 17.8662 15.1592 27.8344L18.8976 35.0748L20.9077 35.0125L23.1155 29.5436L25.9282 36.2136L24.8677 38.8406C24.4336 39.9158 23.4991 40.6627 22.4102 40.6964L17.5811 40.8461C16.6384 40.8753 15.7929 40.3077 15.3388 39.428L10.6646 30.3755L10.5927 30.1686C5.54406 15.6465 3.27152 13.0128 1.78612 11.2913L1.75089 11.2505C0.663237 9.98974 0.781272 7.94757 1.94871 6.84808L3.31845 5.55808C3.69898 5.1997 4.16653 4.96811 4.66918 4.90191L11.0958 4.05547Z" fill="white"/>
<path d="M55.8436 12.9677C55.8436 12.2356 56.23 11.6052 57.0027 11.0765C57.7755 10.5478 58.4668 10.2835 59.0769 10.2835C60.175 10.2835 60.724 10.9138 60.724 12.1746C60.724 13.4354 60.3987 14.5335 59.748 15.4689C59.0972 16.3636 58.1822 16.811 57.0027 16.811C56.23 16.811 55.8436 15.5299 55.8436 12.9677ZM57.6128 43.1043C56.0266 43.1043 54.8269 42.7789 54.0135 42.1282C53.7288 41.8435 53.5864 40.8267 53.5864 39.0779C53.5864 37.3291 53.7084 34.4212 53.9525 30.3542C54.2371 26.2465 54.4812 24.03 54.6845 23.7046C54.8879 23.3792 55.5183 22.7692 56.5757 21.8745C57.6331 20.9797 58.4465 20.5323 59.0159 20.5323C59.6259 20.5323 59.931 21.3051 59.931 22.8505C59.931 23.2572 59.809 24.0503 59.5649 25.2297C59.3616 26.4092 59.1176 27.2632 58.8329 27.792C58.3042 29.1341 58.0398 32.652 58.0398 38.3459C58.0398 39.444 58.1618 39.993 58.4058 39.993C59.0972 39.9523 60.053 39.0983 61.2731 37.4308C62.4932 35.7226 63.693 33.5468 64.8724 30.9032C66.0925 28.2597 66.8246 26.9379 67.0686 26.9379C67.3533 26.9379 67.4956 27.1006 67.4956 27.4259C67.4956 28.5647 66.9059 30.3745 65.7265 32.8554C62.5135 39.688 59.809 43.1043 57.6128 43.1043Z" fill="white"/>
<path d="M69.0088 39.505L69.0698 41.3961C69.0698 42.5349 68.7445 43.1043 68.0938 43.1043C67.1177 43.1043 66.1823 42.9823 65.2875 42.7382C64.3928 42.4535 63.9454 42.0875 63.9454 41.6401C63.9454 41.1521 64.0471 39.5456 64.2504 36.8207C64.4944 34.0552 64.6165 31.981 64.6165 30.5982V26.9989C64.6165 25.0467 64.8198 23.8673 65.2265 23.4606C65.6332 23.0539 66.3449 22.4642 67.3617 21.6914C68.4191 20.9187 69.1715 20.5323 69.6189 20.5323C70.1069 20.5323 70.412 20.6137 70.534 20.7764C70.656 20.939 70.717 21.2441 70.717 21.6914C70.717 23.847 70.3103 25.8805 69.4969 27.792C69.2935 30.1102 69.1918 31.7166 69.1918 32.6114C69.3545 32.3673 70.2086 30.9846 71.7541 28.463C73.2995 25.9415 74.601 24.091 75.6584 22.9115C76.7565 21.7321 77.7326 21.1424 78.5867 21.1424C79.4407 21.1424 80.1931 21.4271 80.8438 21.9965C81.5352 22.5658 81.8809 23.2776 81.8809 24.1316C81.8809 25.9211 81.6776 28.5647 81.2709 32.0623C80.9048 35.5193 80.7218 37.7155 80.7218 38.6509C80.7218 39.5456 80.8438 39.993 81.0879 39.993C81.7793 39.9523 82.735 39.0983 83.9551 37.4308C85.1752 35.7226 86.375 33.5468 87.5544 30.9032C88.7745 28.2597 89.5066 26.9379 89.7506 26.9379C90.0353 26.9379 90.1776 27.1006 90.1776 27.4259C90.1776 28.5647 89.5879 30.3745 88.4085 32.8554C85.1955 39.688 82.491 43.1043 80.2948 43.1043C78.7087 43.1043 77.5089 42.7789 76.6955 42.1282C76.4108 41.8435 76.2685 41.1114 76.2685 39.932C76.2685 38.7119 76.3701 36.7597 76.5735 34.0755C76.8175 31.3506 76.9395 29.3171 76.9395 27.975C76.9395 26.6329 76.6955 25.9618 76.2074 25.9618C75.7601 25.9618 74.54 27.3649 72.5471 30.1712C70.5543 32.9367 69.4969 34.7059 69.3749 35.4786C69.1308 36.9021 69.0088 38.2442 69.0088 39.505Z" fill="white"/>
<path d="M95.9179 24.1316L96.0399 23.2166C96.0399 22.4845 95.6128 22.1185 94.7588 22.1185C93.9454 22.1185 93.1523 22.6675 92.3796 23.7656C91.6068 24.823 91.2205 25.6974 91.2205 26.3888C91.2205 27.0802 91.2611 27.6293 91.3425 28.036C91.4238 28.4427 91.5051 28.7884 91.5865 29.0731C91.7085 29.3171 91.8915 29.6221 92.1355 29.9881C92.3796 30.3542 92.5626 30.6185 92.6846 30.7812L93.3556 31.6353C93.6403 32.042 93.8437 32.3063 93.9657 32.4284C96.0805 30.6795 98.6021 28.7274 101.53 26.5719C101.693 26.4498 101.876 26.3888 102.079 26.3888C102.486 26.3888 102.689 26.6125 102.689 27.0599C102.689 27.5073 102.506 27.853 102.14 28.097C99.5375 29.7645 97.077 31.5743 94.7588 33.5264C95.6535 34.8279 96.1009 36.2513 96.1009 37.7968C96.1009 39.3423 95.5112 40.6641 94.3317 41.7622C93.1523 42.8602 91.6475 43.4093 89.8173 43.4093C87.9872 43.4093 87.0721 42.5349 87.0721 40.7861C87.0721 39.5253 88.4142 37.5935 91.0984 34.9906C90.8951 34.7466 90.5291 34.3602 90.0003 33.8315C89.4716 33.2621 89.0649 32.8147 88.7802 32.4894C88.5362 32.164 88.2312 31.737 87.8652 31.2083C87.2144 30.1915 86.8891 29.0934 86.8891 27.914C86.8891 25.5144 87.6618 23.5826 89.2073 22.1185C90.7527 20.6137 92.3999 19.8613 94.1487 19.8613C95.2468 19.8613 96.1009 20.1663 96.7109 20.7764C97.321 21.3457 97.626 21.9355 97.626 22.5455C97.626 23.9283 97.3006 24.6197 96.6499 24.6197C96.1619 24.6197 95.9179 24.457 95.9179 24.1316ZM92.0135 36.1497C90.3867 37.7765 89.5733 39.0983 89.5733 40.115C89.5733 41.0911 90.0817 41.5791 91.0984 41.5791C91.7085 41.5791 92.2169 41.3351 92.6236 40.8471C93.5183 39.627 93.315 38.0612 92.0135 36.1497Z" fill="white"/>
<path d="M113.244 32.8554C110.031 39.688 107.306 43.1043 105.069 43.1043C102.873 43.1043 101.571 42.8399 101.165 42.3112C100.799 41.7825 100.616 40.0337 100.616 37.0648C100.616 34.0958 100.9 29.8051 101.47 24.1927C99.4363 23.7859 98.3585 22.9522 98.2365 21.6914C98.2365 21.0407 98.6636 20.7154 99.5176 20.7154C100.372 20.7154 101.124 20.878 101.775 21.2034C102.141 18.2751 102.568 15.3062 103.056 12.2966C103.178 11.5239 103.564 10.7918 104.215 10.1004C104.866 9.40905 105.496 9.06335 106.106 9.06335C106.635 9.06335 106.899 9.89709 106.899 11.5646C106.899 12.3373 106.615 15.8959 106.045 22.2405C107.143 22.0371 108.343 21.6304 109.645 21.0204C110.987 20.4103 111.78 20.1053 112.024 20.1053C112.756 20.1053 113.122 20.329 113.122 20.7764C113.162 21.1831 112.41 21.7524 110.865 22.4845C109.319 23.1759 107.652 23.7046 105.862 24.0706C105.374 30.0085 105.13 34.5025 105.13 37.5528C105.13 39.1796 105.374 39.993 105.862 39.993C106.594 39.9523 107.57 39.0983 108.79 37.4308C110.011 35.7633 111.21 33.6078 112.39 30.9642C113.61 28.28 114.342 26.9379 114.586 26.9379C114.871 26.9379 115.013 27.1006 115.013 27.4259C115.013 28.5647 114.423 30.3745 113.244 32.8554Z" fill="white"/>
<path d="M130.946 29.5611C132.573 29.0324 133.691 28.585 134.301 28.219C134.952 27.8123 135.44 27.5073 135.765 27.3039L136.497 26.8769C136.701 26.7549 136.863 26.6939 136.985 26.6939C137.311 26.6939 137.473 26.8769 137.473 27.2429C137.473 27.6089 136.843 28.2597 135.582 29.1951C134.321 30.0898 132.756 30.9032 130.885 31.6353C130.6 35.0516 129.522 37.8172 127.652 39.932C125.781 42.0468 123.117 43.1043 119.66 43.1043C117.138 43.1043 115.206 42.1078 113.864 40.115C112.522 38.0815 111.851 35.7226 111.851 33.0384C111.851 30.3135 112.644 27.7513 114.23 25.3517C115.857 22.9522 117.931 21.7524 120.453 21.7524C121.592 20.939 122.934 20.5323 124.479 20.5323C126.065 20.5323 127.53 21.3661 128.872 23.0336C130.214 24.701 130.905 26.8769 130.946 29.5611ZM126.98 32.6724L124.784 32.7944C122.913 32.7944 121.327 32.2453 120.026 31.1472C118.724 30.0085 118.074 28.768 118.074 27.4259C118.074 26.0838 118.297 24.9247 118.745 23.9486C116.996 25.3314 116.122 28.0563 116.122 32.1233C116.122 34.0755 116.528 35.9463 117.342 37.7358C118.155 39.4846 119.436 40.359 121.185 40.359C122.934 40.359 124.296 39.627 125.272 38.1628C126.248 36.6581 126.818 34.8279 126.98 32.6724ZM123.198 22.5455C122.547 22.5455 122.039 22.8505 121.673 23.4606C121.307 24.03 121.124 24.6604 121.124 25.3517C121.124 26.8565 121.632 28.0767 122.649 29.0121C123.707 29.9475 124.927 30.4152 126.309 30.4152H127.041C126.96 28.4223 126.614 26.6125 126.004 24.9857C125.435 23.3589 124.5 22.5455 123.198 22.5455Z" fill="white"/>
<path d="M138.831 39.505L138.892 41.3961C138.892 42.5349 138.567 43.1043 137.916 43.1043C136.94 43.1043 136.005 42.9823 135.11 42.7382C134.215 42.4535 133.768 42.0875 133.768 41.6401C133.768 41.1521 133.869 39.5456 134.073 36.8207C134.317 34.0552 134.439 31.981 134.439 30.5982V26.9989C134.439 25.0467 134.642 23.8673 135.049 23.4606C135.456 23.0539 136.167 22.4642 137.184 21.6914C138.241 20.9187 138.994 20.5323 139.441 20.5323C139.929 20.5323 140.234 20.6137 140.356 20.7764C140.478 20.939 140.539 21.2441 140.539 21.6914C140.539 23.847 140.133 25.8805 139.319 27.792C139.116 30.1102 139.014 31.7166 139.014 32.6114C139.177 32.3673 140.031 30.9846 141.576 28.463C143.122 25.9415 144.423 24.091 145.481 22.9115C146.579 21.7321 147.555 21.1424 148.409 21.1424C149.263 21.1424 150.016 21.4271 150.666 21.9965C151.358 22.5658 151.703 23.2776 151.703 24.1316C151.703 25.9211 151.5 28.5647 151.093 32.0623C150.727 35.5193 150.544 37.7155 150.544 38.6509C150.544 39.5456 150.666 39.993 150.91 39.993C151.602 39.9523 152.557 39.0983 153.777 37.4308C154.998 35.7226 156.197 33.5468 157.377 30.9032C158.597 28.2597 159.329 26.9379 159.573 26.9379C159.858 26.9379 160 27.1006 160 27.4259C160 28.5647 159.41 30.3745 158.231 32.8554C155.018 39.688 152.313 43.1043 150.117 43.1043C148.531 43.1043 147.331 42.7789 146.518 42.1282C146.233 41.8435 146.091 41.1114 146.091 39.932C146.091 38.7119 146.193 36.7597 146.396 34.0755C146.64 31.3506 146.762 29.3171 146.762 27.975C146.762 26.6329 146.518 25.9618 146.03 25.9618C145.582 25.9618 144.362 27.3649 142.37 30.1712C140.377 32.9367 139.319 34.7059 139.197 35.4786C138.953 36.9021 138.831 38.2442 138.831 39.505Z" fill="white"/>
</g>
</svg>
