<svg width="386" height="774" viewBox="0 0 386 774" fill="none" xmlns="http://www.w3.org/2000/svg">
<path opacity="0.23" d="M699.305 251.458C667.842 234.269 620.758 255.657 620.758 255.657C620.758 255.657 609.505 260.36 608.33 264.783C601.78 269.038 597.749 272.845 597.077 274.133C594.725 278.78 585.32 285.275 580.225 289.026C575.691 292.329 569.756 301.903 567.573 305.767L567.293 305.711C567.293 305.711 536.725 297.984 526.368 295.409C525.696 295.241 524.968 295.241 524.185 295.241C524.241 295.241 524.353 295.185 524.353 295.185C524.353 295.185 517.97 293.169 458.794 314.445C425.763 326.314 386.406 336.224 366.084 346.974C345.761 357.668 329.526 371.609 331.989 374.184C333.165 375.416 344.474 387.118 357.238 400.331L354.607 401.675C354.607 401.675 287.985 432.356 287.817 433.98C287.705 434.932 291.456 446.129 297.223 455.535C295.487 456.879 293.248 458.671 290.56 460.854C290.448 460.966 290.336 461.022 290.225 461.134C270.462 477.035 228.585 512.587 214.477 538.902C214.477 538.902 150.493 603.785 122.146 644.758L133.735 667.937C155.849 656.628 235.79 579.562 252.995 569.024C262.064 556.818 306.964 532.183 306.964 532.183C306.964 532.183 307.02 532.295 307.076 532.519C307.412 534.087 307.86 541.533 292.184 562.641C274.269 586.828 244.765 627.028 240.454 633.97L186.312 696.297C190.175 692.938 213.393 717.449 214.401 715.882C232.182 702.482 294.087 632.123 307.132 620.925C320.792 609.223 362.389 570.871 378.512 560.401C391.165 552.171 403.593 545.956 413.783 537.502C416.302 537.222 418.709 536.774 420.893 535.991C433.825 531.512 459.186 510.74 479.285 491.816C479.621 491.48 479.957 491.144 480.349 490.808C480.964 490.248 481.58 489.688 482.14 489.072C483.484 487.785 484.827 486.497 486.115 485.209C486.507 484.817 486.955 484.425 487.347 483.977C488.578 482.746 489.754 481.57 490.93 480.394C491.378 479.946 491.825 479.442 492.273 478.994C493.561 477.651 494.793 476.363 495.968 475.131C496.08 474.963 496.248 474.851 496.36 474.739C497.536 473.508 498.6 472.332 499.607 471.212C499.887 470.876 500.167 470.54 500.447 470.26C501.511 469.084 502.463 467.965 503.358 466.901C503.358 466.845 503.414 466.845 503.414 466.789C547.474 456.319 600.268 436.331 613.648 429.613C634.699 419.087 661.627 404.81 654.013 395.684L639.289 352.517C639.289 352.517 646.455 334.489 644.272 330.793C644.104 330.513 643.936 330.289 643.712 330.065V330.009C643.656 329.953 643.544 329.897 643.488 329.786C643.32 329.618 643.208 329.45 643.04 329.338C642.984 329.282 642.928 329.282 642.928 329.226C642.76 329.114 642.648 328.946 642.48 328.834L649.143 325.082C655.021 324.747 657.597 323.571 661.907 321.891C666.218 320.156 667.394 319.932 676.016 316.46C684.637 312.989 682.23 310.19 682.23 310.19C682.23 310.19 685.365 309.574 690.124 307.614C691.188 307.166 692.363 306.606 693.595 306.046C693.763 305.99 693.875 305.934 694.043 305.822C695.163 305.263 696.338 304.591 697.57 303.919C697.85 303.751 698.13 303.583 698.466 303.415C699.585 302.743 700.705 301.959 701.881 301.175C702.329 300.896 702.776 300.616 703.224 300.28C704.288 299.496 705.408 298.6 706.471 297.704C706.919 297.312 707.367 297.032 707.871 296.64H707.815C708.207 296.304 708.599 296.025 708.991 295.689C722.483 283.707 730.769 268.646 699.305 251.458Z" fill="#010022"/>
<path d="M95.5069 652.449C95.5069 652.449 92.4277 655.697 89.1806 659.504C85.9335 663.311 76.9199 668.63 73.113 670.981C69.306 673.333 51.8947 686.546 48.1998 699.591C44.5607 712.581 56.9894 714.316 69.7539 712.077C82.5184 709.837 94.3872 698.08 97.8583 693.825C101.329 689.57 113.366 679.94 129.042 671.821C144.662 663.703 135.2 652.841 135.2 652.841L95.5069 652.449Z" fill="#160A5B"/>
<path d="M211.623 691.082C211.623 691.082 214.198 696.961 214.926 704.463C215.654 711.966 216.717 728.314 217.109 733.073C217.501 737.832 217.669 749.534 209.271 760.732C200.874 771.929 196.507 776.352 185.366 771.929C174.225 767.506 174.449 748.806 176.408 739.176C178.368 729.546 180.215 707.991 179.991 705.695C179.768 703.455 180.607 702 180.607 702L211.623 691.082Z" fill="#160A5B"/>
<path d="M56.9902 431.351C56.9902 431.351 59.3416 517.293 79.3841 562.923C79.3841 562.923 93.7162 603.123 95.6197 650.881C95.6197 650.881 92.3166 659.111 97.0193 665.774C101.722 672.493 131.114 678.595 135.985 656.592C140.855 634.644 138.952 593.493 133.633 576.361C128.315 559.228 135.537 511.974 135.537 511.974C135.537 511.974 143.599 517.125 154.124 551.054C164.649 584.983 172.431 597.972 176.014 607.322C179.653 616.728 182.956 674.228 180.661 702.334C180.661 702.334 204.454 705.694 211.34 694.328C218.226 682.962 220.522 624.063 218.786 605.307C217.051 586.551 209.213 526.363 210.277 507.775C211.34 489.187 215.259 474.07 210.948 455.482C206.693 436.894 81.0637 395.574 81.0637 395.574L56.9902 431.351Z" fill="#4420C3"/>
<path opacity="0.7" d="M56.9902 431.351C56.9902 431.351 59.3416 517.293 79.3841 562.923C79.3841 562.923 93.7162 603.123 95.6197 650.881C95.6197 650.881 92.3166 659.111 97.0193 665.774C101.722 672.493 131.114 678.595 135.985 656.592C140.855 634.644 138.952 593.493 133.633 576.361C128.315 559.228 135.537 511.974 135.537 511.974C135.537 511.974 143.599 517.125 154.124 551.054C164.649 584.983 172.431 597.972 176.014 607.322C179.653 616.728 182.956 674.228 180.661 702.334C180.661 702.334 204.454 705.694 211.34 694.328C218.226 682.962 220.522 624.063 218.786 605.307C217.051 586.551 209.213 526.363 210.277 507.775C211.34 489.187 215.259 474.07 210.948 455.482C206.693 436.894 81.0637 395.574 81.0637 395.574L56.9902 431.351Z" fill="url(#paint0_linear_1882_46926)"/>
<path d="M210.274 507.769C211.338 489.181 215.257 474.064 210.946 455.476C209.322 448.477 190.567 438.287 167.781 428.265C129.32 424.738 80.5572 420.707 77.1981 421.211C74.1749 421.659 66.2251 424.682 59.6189 427.314L56.9316 431.289C56.9316 431.289 57.0996 436.496 57.6035 445.062C66.561 447.749 83.8043 444.95 83.8043 444.95C86.2117 450.997 101.216 472.44 119.859 481.678C138.501 490.916 193.031 487.781 196.166 491.252C199.301 494.78 199.917 541.81 199.581 547.801C199.245 553.791 204.731 591.471 209.77 624.729C214.753 657.482 207.139 697.289 206.915 698.577C208.65 697.457 210.218 696.058 211.282 694.266C218.168 682.9 220.463 624.001 218.728 605.245C217.048 586.544 209.21 526.413 210.274 507.769Z" fill="#160A5B"/>
<path d="M99.0341 150.232C99.0341 150.232 71.1537 156.615 61.8042 158.799C60.2367 159.19 59.005 160.254 58.3892 161.766C55.7019 168.596 48.8717 189.928 54.0223 221.002C60.2926 259.186 58.3332 284.94 58.3332 284.94L45.4567 352.07C45.4567 352.07 29.2211 416.009 30.6207 417.745C32.0203 419.48 67.9626 446.859 79.1595 442.995C90.4124 439.132 86.7175 432.806 86.7175 432.806C86.7175 432.806 95.787 479.108 136.096 478.66C176.349 478.212 209.268 478.324 216.098 462.087C222.928 445.795 214.251 377.377 207.141 350.335C200.031 323.236 183.179 269.264 183.179 269.264L242.131 203.981L191.745 165.517C191.745 165.517 179.708 143.122 174.781 140.322C169.855 137.467 167.224 139.874 167.224 139.874L99.0341 150.232Z" fill="#4420C3"/>
<path d="M99.0341 150.232C99.0341 150.232 71.1537 156.615 61.8042 158.799C60.2367 159.19 59.005 160.254 58.3892 161.766C55.7019 168.596 48.8717 189.928 54.0223 221.002C60.2926 259.186 58.3332 284.94 58.3332 284.94L45.4567 352.07C45.4567 352.07 29.2211 416.009 30.6207 417.745C32.0203 419.48 67.9626 446.859 79.1595 442.995C90.4124 439.132 86.7175 432.806 86.7175 432.806C86.7175 432.806 95.787 479.108 136.096 478.66C176.349 478.212 209.268 478.324 216.098 462.087C222.928 445.795 214.251 377.377 207.141 350.335C200.031 323.236 183.179 269.264 183.179 269.264L242.131 203.981L191.745 165.517C191.745 165.517 179.708 143.122 174.781 140.322C169.855 137.467 167.224 139.874 167.224 139.874L99.0341 150.232Z" fill="#4420C3"/>
<path opacity="0.7" d="M99.0341 150.232C99.0341 150.232 71.1537 156.615 61.8042 158.799C60.2367 159.19 59.005 160.254 58.3892 161.766C55.7019 168.596 48.8717 189.928 54.0223 221.002C60.2926 259.186 58.3332 284.94 58.3332 284.94L45.4567 352.07C45.4567 352.07 29.2211 416.009 30.6207 417.745C32.0203 419.48 67.9626 446.859 79.1595 442.995C90.4124 439.132 86.7175 432.806 86.7175 432.806C86.7175 432.806 95.787 479.108 136.096 478.66C176.349 478.212 209.268 478.324 216.098 462.087C222.928 445.795 214.251 377.377 207.141 350.335C200.031 323.236 183.179 269.264 183.179 269.264L242.131 203.981L191.745 165.517C191.745 165.517 179.708 143.122 174.781 140.322C169.855 137.467 167.224 139.874 167.224 139.874L99.0341 150.232Z" fill="url(#paint1_linear_1882_46926)"/>
<path d="M173.607 139.594C173.607 139.594 183.908 152.023 169.072 168.876C159.946 179.234 144.271 201.517 130.89 224.696C122.549 239.197 114.823 246.868 110.456 259.353C110.456 259.353 109.84 244.572 109.28 221.785C108.72 200.229 108.44 177.89 109.392 172.235C111.352 160.59 162.186 133.939 173.607 139.594Z" fill="#F0F6FF"/>
<path d="M60.1765 159.469C60.1765 159.469 54.0182 160.365 33.9756 210.81C22.7787 238.916 5.53535 268.086 1.89634 288.97C-1.74267 309.853 0.272781 332.249 4.41565 333.816C8.39057 335.328 80.387 362.259 102.893 370.769C104.125 371.217 105.468 370.433 105.748 369.145L111.962 334.376L67.2866 317.132C67.2866 317.132 58.7769 306.718 50.771 302.855C50.771 302.855 59.7286 286.338 59.1688 281.859C58.6089 277.38 59.9525 230.742 54.746 211.762C49.4834 192.726 60.1765 159.469 60.1765 159.469Z" fill="#4420C3"/>
<path opacity="0.7" d="M60.1765 159.469C60.1765 159.469 54.0182 160.365 33.9756 210.81C22.7787 238.916 5.53535 268.086 1.89634 288.97C-1.74267 309.853 0.272781 332.249 4.41565 333.816C8.39057 335.328 80.387 362.259 102.893 370.769C104.125 371.217 105.468 370.433 105.748 369.145L111.962 334.376L67.2866 317.132C67.2866 317.132 58.7769 306.718 50.771 302.855C50.771 302.855 59.7286 286.338 59.1688 281.859C58.6089 277.38 59.9525 230.742 54.746 211.762C49.4834 192.726 60.1765 159.469 60.1765 159.469Z" fill="url(#paint2_linear_1882_46926)"/>
<path d="M86.3698 292.723C86.3698 292.723 80.2115 288.58 78.6999 288.02C77.1883 287.404 68.9585 284.605 67.391 283.933C66.2153 283.429 61.4566 283.821 59.0492 284.045C58.1535 284.157 57.4257 284.661 56.9778 285.389C55.0743 288.86 49.7558 299.162 50.3716 303.081C50.3716 303.081 65.2635 312.487 66.8871 316.686L69.2385 317.19C69.2944 317.19 79.2597 295.803 86.3698 292.723Z" fill="#FCD1C5"/>
<path d="M207.089 350.221C205.354 343.726 203.114 335.608 200.651 327.098L110.18 365.898C110.18 365.898 137.276 399.211 184.751 397.083C197.74 396.523 207.201 391.82 214.143 387.789C212.016 372.952 209.441 359.291 207.089 350.221Z" fill="#4420C3"/>
<path d="M242.067 203.871C242.067 203.871 218.217 207.174 198.902 237.688C179.644 268.258 165.592 303.586 165.592 303.586L164.92 307.562C163.184 317.975 152.099 323.91 142.47 319.599C122.091 310.529 91.9716 296.756 86.3171 292.613C86.3171 292.613 68.29 302.579 63.3634 326.15C59.4444 344.906 60.4522 344.962 60.4522 344.962C60.4522 344.962 140.79 382.474 171.806 382.082C202.821 381.69 242.179 279.679 246.546 258.572C250.912 237.632 255.727 209.806 242.067 203.871Z" fill="#4420C3"/>
<path d="M242.067 203.871C242.067 203.871 218.217 207.174 198.902 237.688C179.644 268.258 165.592 303.586 165.592 303.586L164.92 307.562C163.184 317.975 152.099 323.91 142.47 319.599C122.091 310.529 91.9716 296.756 86.3171 292.613C86.3171 292.613 68.29 302.579 63.3634 326.15C59.4444 344.906 60.4522 344.962 60.4522 344.962C60.4522 344.962 140.79 382.474 171.806 382.082C202.821 381.69 242.179 279.679 246.546 258.572C250.912 237.632 255.727 209.806 242.067 203.871Z" fill="#4420C3"/>
<path opacity="0.7" d="M242.067 203.871C242.067 203.871 218.217 207.174 198.902 237.688C179.644 268.258 165.592 303.586 165.592 303.586L164.92 307.562C163.184 317.975 152.099 323.91 142.47 319.599C122.091 310.529 91.9716 296.756 86.3171 292.613C86.3171 292.613 68.29 302.579 63.3634 326.15C59.4444 344.906 60.4522 344.962 60.4522 344.962C60.4522 344.962 140.79 382.474 171.806 382.082C202.821 381.69 242.179 279.679 246.546 258.572C250.912 237.632 255.727 209.806 242.067 203.871Z" fill="url(#paint3_linear_1882_46926)"/>
<path d="M154.014 324.412C154.014 324.412 164.147 333.874 168.57 328.723C172.993 323.516 171.705 322.956 171.705 322.956C171.705 322.956 180.83 322.9 181.95 317.133C183.07 311.422 187.549 314.446 187.828 308.063C188.108 301.681 180.438 303.024 180.438 303.024L154.014 324.412Z" fill="#4420C3"/>
<path d="M141.811 319.371C141.811 319.371 144.61 316.795 148.193 313.716C151.776 310.693 157.598 298.095 158.606 296.976C159.614 295.856 171.706 286.562 177.585 286.394C183.407 286.226 179.096 292.776 177.753 293.672C176.409 294.568 170.699 297.423 170.699 297.423C170.699 297.423 164.82 302.35 164.148 303.078C163.477 303.806 180.496 301.903 183.183 303.582C185.871 305.262 185.255 309.573 183.351 310.749C181.448 311.924 179.992 311.868 179.992 311.868C179.992 311.868 181.896 316.963 176.801 319.371C171.706 321.722 170.531 320.435 170.531 320.435C170.531 320.435 170.083 329.281 161.685 327.545L141.811 319.371Z" fill="#FCD1C5"/>
<path d="M145.387 198.266L139.789 193.955C139.789 193.955 134.638 198.266 132.623 202.801C130.607 207.336 132.623 221.837 132.623 221.837L130.943 224.749L128.872 220.942L127.08 203.809C127.08 203.809 128.984 191.156 129.152 190.82C129.319 190.484 139.901 191.94 139.901 191.94C139.901 191.94 143.54 194.739 145.387 198.266Z" fill="#C4CCD6"/>
<path d="M118.519 181.246C118.519 181.246 112.529 181.638 109.842 183.878C109.842 183.878 116.112 184.157 117.12 184.325C118.128 184.493 118.519 181.246 118.519 181.246Z" fill="#C4CCD6"/>
<path d="M129.879 182.593L139.901 191.943C139.901 191.943 131.111 195.974 128.648 203.868C128.648 203.868 117.731 205.884 116.779 201.965C115.771 197.989 116.779 188.079 115.491 183.656C114.204 179.233 129.879 182.593 129.879 182.593Z" fill="#4420C3"/>
<path d="M117.167 201.684C117.167 201.684 115.32 209.858 113.248 213.274C111.233 216.633 109.105 220.44 109.105 220.44L109.329 268.478C109.329 268.478 127.021 232.03 130.828 224.639C130.828 224.639 130.268 207.115 128.588 203.756C126.965 200.508 117.167 201.684 117.167 201.684Z" fill="#4420C3"/>
<path d="M191.189 169.887C191.189 169.887 186.598 185.675 186.038 186.291C185.422 186.907 174.505 185.619 174.505 185.619L179.824 195.697C179.824 195.697 124.847 254.653 113.426 286.398C113.426 286.398 139.459 246.199 185.254 198.161L178.76 188.363L190.013 190.546L191.189 169.887Z" fill="#4420C3"/>
<path d="M100.887 155.941L97.9757 159.301L101.391 162.492L91.2016 171.674C91.2016 171.674 88.0664 236.173 100.495 278.892C100.495 278.892 83.6436 239.7 87.4506 169.883L98.4796 162.436L94.8966 158.909L100.887 155.941Z" fill="#4420C3"/>
<path d="M135.527 511.975C135.527 511.975 135.639 512.087 135.918 512.255L121.698 497.082C128.249 506.376 120.691 548.815 119.907 558.557C119.123 568.299 127.521 588.343 130.656 611.858C133.791 635.373 127.353 668.854 127.353 668.966C131.44 666.615 134.687 662.696 136.03 656.593C140.901 634.645 138.998 593.494 133.679 576.362C128.249 559.229 135.527 511.975 135.527 511.975Z" fill="#160A5B"/>
<path d="M131.361 174.566C131.361 174.566 125.537 177.71 123.593 177.283C121.709 176.86 115.856 170.44 115.856 170.44C115.856 170.44 100.346 169.122 99.059 162.344C97.7714 155.566 97.1423 148.772 95.7627 145.215C89.5124 128.395 94.3231 109.271 88.1691 92.5456C85.672 85.9871 85.9332 22.001 147.398 27.8332C208.862 33.6654 185.504 96.3128 185.504 96.3128C185.504 96.3128 189.901 98.5141 186.624 106.546C183.347 114.577 182.694 115.431 181.059 119.387C179.421 123.403 178.535 125.974 174.393 128.989L172.885 136.479C172.885 136.479 175.038 148.274 166.683 159.019C158.26 169.88 131.361 174.566 131.361 174.566Z" fill="#E7C796"/>
<path d="M88.7906 59.8328C88.7906 59.8328 103.861 49.8302 125.46 43.9589C147.06 38.0876 142.236 62.2097 148.595 67.2889C153.422 71.132 152.472 81.9459 151.727 86.9168C151.498 88.5751 151.802 90.3281 152.664 91.7592L158.313 101.274C158.96 102.332 159.298 103.55 159.276 104.803L158.404 125.34C158.418 126.954 159.585 128.286 161.184 128.51L162.608 128.664C164.206 128.888 165.709 127.852 166.112 126.265L169.261 102.89C169.261 102.89 175.085 90.663 185.291 96.2939C185.291 96.2939 192.934 87.2943 191.943 66.9106C190.952 46.527 183.229 24.9241 143.825 18.9282C104.418 12.9918 88.7906 59.8328 88.7906 59.8328Z" fill="#551400"/>
<path d="M165.752 127.28C162.895 170.744 115.653 170.362 115.653 170.362C115.653 170.362 121.446 176.779 123.39 177.205C125.274 177.628 131.157 174.489 131.157 174.489C131.157 174.489 158.057 169.802 166.472 159.061C174.886 148.319 172.674 136.52 172.674 136.52L174.182 129.03C168.591 130.455 165.752 127.28 165.752 127.28Z" fill="#CBA57B"/>
<path d="M166.446 123.392L167.13 112.985L167.454 108.055C167.731 107.193 168.642 104.187 170.845 102.502C177.796 97.1822 179.245 104.429 178.189 107.935C176.745 109.821 175.904 117.595 175.664 121.247C174.266 125.776 168.936 124.564 166.446 123.392Z" fill="#CBA57B"/>
<path d="M193.955 52.6779C191.269 46.1368 185.819 41.0675 179.807 37.3489L179.619 37.054L179.775 36.948C182.678 37.039 185.63 37.2496 188.345 38.2839C191.061 39.3182 193.539 41.3173 194.522 44.0491C193.776 38.9648 189.008 35.2781 184.045 33.9299C179.082 32.5818 173.843 33.0268 168.703 32.9716C168.703 32.9716 168.61 32.7494 168.457 32.4236C169.82 32.2971 171.19 31.6809 172.494 31.1767C175.469 30.0345 178.656 29.4463 181.846 29.4648C179.046 29.206 176.765 27.1284 174.067 26.328C171.182 25.4737 167.875 26.2368 165.655 28.2761C165.849 24.1926 163.568 20.0877 159.984 18.1073C162.483 20.6562 163.393 24.646 162.273 28.0289C161.875 26.0003 160.657 24.1672 159.139 22.738C157.411 21.1038 155.311 19.9272 153.227 18.7683C149.7 16.8 146.174 14.8317 142.647 12.8633C144.141 14.4073 145.65 15.9688 146.691 17.8402C147.716 19.6857 148.235 21.8967 147.678 23.929C145.542 19.6425 141.713 16.2003 137.181 14.6229C133.168 13.2291 128.681 13.2251 124.913 11.2658C121.811 9.6578 119.411 6.74148 118.427 3.37821C118.123 7.11386 119.135 10.9442 121.224 14.0478C121.062 13.979 120.9 13.9185 120.73 13.8575C112.122 10.8157 102.368 12.3267 94.1983 16.4012C86.0288 20.4758 79.2739 26.9199 73.3501 33.8673C78.8084 30.3375 84.5555 26.7103 91.0253 26.1218L92.7756 25.9128C85.4782 27.8428 78.916 32.7458 74.4463 38.933C68.5061 47.1423 65.8668 57.3383 64.979 67.4334C67.3525 62.5459 71.1821 58.3856 75.8143 55.5409L75.7731 55.6628C74.2408 59.002 74.0305 62.8352 74.5474 66.4752C75.056 70.1147 76.2549 73.6167 77.4467 77.1017C78.1784 79.2436 78.9394 81.4456 80.3871 83.1859C80.2843 80.0717 80.7645 76.9375 81.7809 73.9882C82.5696 78.1696 83.9782 82.2753 85.5625 86.2347C85.3962 84.0884 85.5391 81.9126 85.9602 79.8049L85.8422 81.6002C87.2694 84.4109 88.1894 87.4792 88.5233 90.617C89.0772 88.5097 89.6339 86.3611 89.5281 84.1772C89.4681 83.0682 89.2409 81.9731 89.0132 80.8863C88.6581 79.2095 88.3113 77.5332 87.9562 75.8564C87.9562 75.8564 87.8464 75.2509 87.6725 74.4834C88.0991 73.5559 88.5819 72.6571 89.1205 71.7951C93.5028 64.7879 101.259 60.4286 105.807 53.557C105.53 57.8926 106.723 62.3747 108.735 66.2792C111.535 71.7061 115.791 76.2316 120.013 80.6469C118.101 75.0955 119.828 68.9192 122.49 63.6851C125.152 58.451 128.74 53.6765 130.885 48.209L129.545 51.7852C128.863 55.5874 128.847 59.6244 130.307 63.2018C131.767 66.7791 134.924 69.8199 138.742 70.3949C137.566 69.8191 136.795 68.6633 136.233 67.4797C135.065 65.0266 134.582 62.2613 134.834 59.5609L135.532 60.9445C138.705 73.9819 154.713 80.8667 157.633 93.9623L157.173 95.2615C157.892 99.6211 157.067 104.211 154.887 108.048C154.389 108.929 153.784 109.795 152.903 110.294C155.963 110.138 158.908 108.445 160.581 105.872L160.557 105.72L160.582 105.73L160.58 105.88L160.679 105.77L160.736 105.79C161.087 107.143 161.819 108.396 162.854 109.336C162.905 106.789 164.362 104.467 166.113 102.604C167.863 100.75 169.934 99.2159 171.668 97.3441C172.339 96.6238 172.956 95.8251 173.47 94.9698C175.729 94.3539 178.116 94.1867 180.438 94.5055C180.883 92.1667 181.648 89.8822 182.686 87.7402L182.807 86.6514L183.066 86.8845C185.721 85.555 187.633 83.0135 188.728 80.2522C189.824 77.4909 190.186 74.4986 190.398 71.5296C190.633 68.2132 190.685 64.8848 190.571 61.5621C192.865 64.7123 193.169 69.1859 191.324 72.6125C196.089 67.367 196.65 59.2113 193.955 52.6779Z" fill="#734130"/>
<path d="M162.237 19.774C161.566 19.1151 160.805 18.5499 159.988 18.0891C162.487 20.638 163.397 24.6279 162.277 28.0108C161.879 25.9821 160.661 24.149 159.143 22.7198C159.096 22.6752 159.049 22.6388 159.002 22.5942C160.865 26.2313 161.877 30.3109 162.86 34.3057C165.469 29.8906 165.118 23.9766 162.237 19.774ZM146.686 17.8215C147.712 19.667 148.231 21.878 147.674 23.9103C146.691 21.9263 145.338 20.1341 143.734 18.6162C144.558 20.1161 145.279 21.6674 146.102 23.1672C148.237 27.0964 151 30.6929 154.238 33.7722C154.174 30.0623 154.086 26.2261 152.555 22.8435C150.625 18.5788 146.696 15.6452 142.843 12.9575C142.779 12.92 142.715 12.8826 142.643 12.8446C144.137 14.3803 145.646 15.9501 146.686 17.8215ZM169.728 32.9706C169.387 32.9731 169.047 32.9674 168.699 32.9611C168.699 32.9611 168.605 32.7389 168.452 32.4131C169.815 32.2867 171.185 31.6704 172.489 31.1662C174.705 30.3148 177.034 29.7699 179.4 29.5598C178.757 29.3514 178.115 29.1347 177.472 28.9263C176.504 28.6051 175.52 28.2828 174.504 28.1911C170.787 27.8555 167.569 30.5521 164.827 33.0806C166.469 33.2632 168.102 33.1878 169.728 32.9706ZM120.733 13.8393C120.53 13.7678 120.327 13.7045 120.124 13.633C124.725 16.694 128.317 21.3337 131.696 25.8099C132.896 22.208 131.681 17.9322 128.777 15.4812C127.115 14.0842 125.032 13.2909 123.289 12.0047C120.697 10.0896 118.968 7.06786 118.588 3.87719C118.533 3.70738 118.47 3.52875 118.423 3.35948C118.119 7.09513 119.13 10.9255 121.22 14.0291C121.066 13.9608 120.896 13.8998 120.733 13.8393ZM92.7795 25.8946C85.6426 27.7853 79.2076 32.5222 74.7428 38.5103C78.6588 34.8043 83.2595 31.808 88.2531 29.7848C97.2756 26.1319 107.552 25.6523 116.882 28.4424C114.087 24.1957 111.056 19.7424 106.416 17.6593C102.372 15.8398 97.617 16.1339 93.439 17.6291C90.6312 18.6327 88.0482 20.133 85.5923 21.8495C81.0914 25.3508 77.055 29.4976 73.3375 33.8481C78.7958 30.3182 84.5429 26.691 91.0127 26.1025L92.7795 25.8946ZM193.351 60.5215C193.116 59.9245 192.838 59.3495 192.543 58.7817C190.91 53.6724 187.259 49.2947 182.767 46.3324C177.942 43.1487 172.215 41.526 166.457 41.023C168.415 42.4644 169.989 44.4208 170.99 46.6386C168.543 44.6913 165.286 43.796 162.192 44.2241C158.805 44.6911 155.76 46.6347 152.377 47.1685C147.465 47.9425 142.229 45.3134 139.848 40.9609C139.027 38.5307 139.126 35.6374 140.744 33.6499C139.705 33.9056 138.679 34.2121 137.66 34.5523L137.53 34.1366C137.46 34.3148 137.39 34.4847 137.337 34.664C127.307 38.1011 118.64 45.3087 113.206 54.4153C113.392 52.8489 113.71 51.2994 114.183 49.7933C116.265 43.1501 121.212 37.7837 126.596 33.3599C119.409 33.6187 112.348 36.6195 107.168 41.6051C102.715 45.8989 99.7053 51.4924 95.4784 56.0088C93.3781 58.2554 90.9892 60.2172 88.8972 62.4644C87.029 64.4687 85.3953 66.6961 84.0419 69.0832C84.1751 68.1946 84.3243 67.3153 84.5071 66.43C86.6834 55.946 92.9387 46.7354 100.046 38.7274C84.8468 41.2848 71.3214 52.1363 65.5071 66.3944C66.1033 65.287 66.7713 64.2258 67.5115 63.2026C67.5204 63.1949 67.5209 63.1866 67.5297 63.1789C67.7038 62.9328 67.8855 62.6954 68.0756 62.4587C68.0849 62.4427 68.0943 62.4267 68.1119 62.4112C68.2937 62.1739 68.4832 61.9454 68.6727 61.7169C68.6821 61.7009 68.6997 61.6854 68.7091 61.6694C68.8986 61.4409 69.0964 61.2129 69.2936 60.9932C69.3024 60.9855 69.3118 60.9695 69.3289 60.9623C69.5349 60.7349 69.741 60.5075 69.9465 60.2884C69.9465 60.2884 69.947 60.2801 69.9553 60.2806C70.3834 59.8352 70.8192 59.3985 71.2788 58.98C71.2876 58.9723 71.3052 58.9568 71.314 58.9491C71.5262 58.7553 71.7472 58.5538 71.967 58.3689C71.9935 58.3457 72.0111 58.3302 72.0376 58.307C72.2492 58.1215 72.4685 57.9448 72.6884 57.7599C72.7231 57.7372 72.7501 57.7058 72.7848 57.6831C73.0042 57.5064 73.2229 57.338 73.4417 57.1696C73.4765 57.1469 73.5117 57.116 73.5382 57.0928C73.757 56.9244 73.984 56.7565 74.2105 56.5969C74.2453 56.5743 74.2717 56.5511 74.3059 56.5367C74.5412 56.3694 74.776 56.2104 75.0108 56.0513C75.0285 56.0358 75.0544 56.0209 75.072 56.0055C75.3239 55.8392 75.5752 55.6813 75.8266 55.5233L75.7853 55.6452C74.2531 58.9844 74.0427 62.8176 74.5596 66.4576C75.0682 70.0971 76.2672 73.5991 77.459 77.0841C78.1906 79.226 78.9516 81.428 80.3993 83.1683C80.2965 80.054 80.7767 76.9199 81.7931 73.9706C82.5818 78.1519 83.9904 82.2577 85.5748 86.2171C85.4084 84.0708 85.5514 81.895 85.9724 79.7873L85.8544 81.5825C87.2816 84.3933 88.2017 87.4616 88.5355 90.5994C89.0895 88.4921 89.6461 86.3434 89.5404 84.1595C89.4803 83.0505 89.2532 81.9554 89.0255 80.8686C88.6704 79.1918 88.3235 77.5156 87.9684 75.8388C87.9684 75.8388 87.8587 75.2333 87.6848 74.4658C88.1113 73.5383 88.5941 72.6394 89.1327 71.7775C93.515 64.7703 101.271 60.411 105.819 53.5393C105.542 57.875 106.735 62.3571 108.747 66.2615C111.548 71.6885 115.803 76.214 120.025 80.6292C118.113 75.0779 119.84 68.9016 122.502 63.6675C125.164 58.4334 128.752 53.6589 130.898 48.1914L129.558 51.7675C128.876 55.5697 128.86 59.6068 130.319 63.1841C131.779 66.7615 134.936 69.8023 138.754 70.3772C137.579 69.8015 136.807 68.6457 136.245 67.4621C135.077 65.009 134.594 62.2436 134.846 59.5432L135.545 60.9269C138.718 73.9643 154.725 80.8491 157.645 93.9446L157.186 95.2439C157.904 99.6034 157.079 104.194 154.9 108.031C154.401 108.912 153.796 109.778 152.916 110.277C155.975 110.12 158.92 108.428 160.593 105.854L160.57 105.703L160.594 105.713L160.592 105.862L160.691 105.752L160.748 105.773C161.099 107.125 161.831 108.378 162.866 109.319C162.917 106.771 164.374 104.449 166.125 102.586C167.876 100.732 169.946 99.1983 171.681 97.3265C172.351 96.6061 172.969 95.8075 173.482 94.9522C175.741 94.3362 178.128 94.1691 180.45 94.4879C180.895 92.1491 181.66 89.8645 182.698 87.7226L182.819 86.6338L183.078 86.8668C185.733 85.5374 187.645 82.9959 188.74 80.2346C189.836 77.4732 190.199 74.481 190.41 71.512C190.645 68.1956 190.697 64.8672 190.583 61.5444C192.877 64.6947 193.182 69.1682 191.336 72.5948C191.471 72.4458 191.596 72.3045 191.722 72.1549C191.758 72.1157 191.795 72.0683 191.83 72.0291C191.93 71.911 192.021 71.784 192.12 71.6659C192.148 71.6262 192.175 71.5947 192.202 71.555C192.312 71.4043 192.421 71.2536 192.531 71.103C192.567 71.0555 192.604 70.9998 192.632 70.9518C192.706 70.8403 192.779 70.7371 192.845 70.6251C192.882 70.5611 192.919 70.5053 192.965 70.4419C193.049 70.3061 193.133 70.1621 193.217 70.0263C193.263 69.9463 193.302 69.8658 193.348 69.794C193.404 69.698 193.452 69.6097 193.5 69.5132C193.547 69.4249 193.594 69.3449 193.633 69.256C193.671 69.1755 193.709 69.1032 193.748 69.0227C193.834 68.8455 193.921 68.6684 193.999 68.4908C194.019 68.4339 194.047 68.3859 194.067 68.3374C194.116 68.2243 194.165 68.1112 194.206 67.9975C194.226 67.949 194.245 67.9004 194.265 67.8519C194.415 67.4712 194.557 67.0817 194.683 66.6828C194.693 66.6503 194.703 66.626 194.714 66.5934C194.756 66.455 194.798 66.3248 194.832 66.1858C194.519 64.2376 194.079 62.3392 193.351 60.5215ZM190.207 48.9401C191.803 50.7067 193.231 52.6202 194.624 54.5563C194.433 53.9206 194.208 53.291 193.95 52.6758C191.264 46.1346 185.814 41.0654 179.802 37.3467L179.613 37.0518L179.77 36.9458C182.672 37.0368 185.625 37.2474 188.34 38.2817C190.399 39.0651 192.322 40.4046 193.558 42.1975C192.117 38.962 189.024 36.4655 185.598 35.3762C181.284 34.0125 176.578 34.5674 172.246 35.878C178.709 39.5681 185.218 43.4275 190.207 48.9401Z" fill="#734130"/>
<path d="M108.816 13.4397C109.28 13.4536 109.753 13.4681 110.225 13.4908C109.763 13.4438 109.29 13.4294 108.816 13.4397ZM128.189 25.3649C128.612 25.7666 129.061 26.1285 129.564 26.444L128.189 25.3649ZM125.06 22.9159L128.189 25.3649C125.623 22.9446 124.316 19.1944 121.605 16.8227C118.564 14.1635 114.318 13.6601 110.225 13.4908C113.93 13.8756 117.29 16.24 119.928 18.9476C121.462 20.5191 122.957 22.304 125.06 22.9159ZM87.9019 32.0315C77.8881 35.4697 70.1764 44.8421 68.7231 55.3238C71.4643 49.1394 75.1661 43.3837 79.6689 38.337L87.9019 32.0315ZM137.725 20.3581C138.9 21.9393 139.928 23.7434 141.634 24.7114L148.147 31.6868C146.754 28.8699 145.36 26.053 143.958 23.2355C143.239 21.7841 142.498 20.2979 141.344 19.1502C140.166 17.9843 138.636 17.244 137.098 16.6112C135.246 15.8497 133.335 15.209 131.391 14.7073C133.863 16.1494 136.03 18.0782 137.725 20.3581ZM170.398 34.3538C170.245 34.5266 170.256 34.8597 170.476 34.9323L169.14 35.1519C170.67 35.2691 172.241 34.8821 173.549 34.0707C172.715 33.9827 171.867 33.9934 171.037 34.105C170.803 34.1312 170.558 34.1816 170.398 34.3538ZM160.613 33.5529L163.245 35.4707C162.526 34.0276 161.806 32.5844 161.087 31.1412C159.325 27.6105 157.455 23.948 154.286 21.5961C156.134 23.6868 157.55 26.1645 158.415 28.8136C158.952 30.4941 159.33 32.3386 160.613 33.5529ZM171.518 26.9162C169.43 26.4466 167.117 28.1392 166.935 30.271L167.365 29.4267C168.757 28.596 170.133 27.7558 171.518 26.9162ZM148.421 39.2824C148.453 39.2929 148.486 39.3033 148.526 39.3226C147.056 38.0461 145.595 36.7702 144.125 35.4855L148.421 39.2824ZM148.526 39.3226C149.422 40.1043 150.31 40.8773 151.206 41.659C151.944 42.3058 152.707 42.9625 153.642 43.2732C154.74 43.6444 155.93 43.49 157.07 43.3323C159.35 43.0251 161.623 42.7092 163.903 42.402C158.658 42.182 153.451 41.1335 148.526 39.3226ZM119.119 44.0288L118.063 45.5547C122.119 41.7499 126.174 37.9451 130.222 34.1397C125.522 35.9911 121.506 39.5659 119.119 44.0288ZM157.887 32.2853C157.045 33.9831 155.985 35.8162 154.179 36.3705C152.483 36.8906 150.625 36.0871 149.316 34.896C147.998 33.7043 147.061 32.1637 145.92 30.8092C143.584 28.0467 140.332 26.0715 136.804 25.2663C136.769 27.9395 133.306 29.3155 130.725 28.6308C128.145 27.9377 126.085 26.0243 123.678 24.8524C122.824 24.439 121.807 24.1229 120.949 24.5318C119.739 25.1087 119.576 26.7099 119.274 28.0195C118.972 29.329 117.794 30.8137 116.577 30.2435L107.37 28.9903C110.393 31.5404 114.875 30.9874 118.761 30.2624C122.656 29.5379 127.108 28.9248 130.185 31.412C130.737 31.8554 131.258 32.4048 131.944 32.5828C132.835 32.8075 133.738 32.3434 134.591 32.0007C137.783 30.7231 141.477 31.1487 144.628 32.519C147.786 33.8898 150.481 36.1275 152.958 38.5088C153.49 39.0173 154.044 39.5606 154.753 39.7816C156.315 40.2749 157.848 39.0877 159.323 38.3787C161.648 37.2602 164.495 37.3061 166.785 38.5035C165.439 37.1105 163.354 36.8406 161.516 36.2461C159.677 35.6434 157.719 34.2185 157.887 32.2853ZM102.992 29.2261C100.795 28.7743 98.5152 29.2061 96.3638 29.8291C87.4704 32.402 79.6298 38.4258 74.8469 46.3456C79.4934 40.627 86.3613 37.0153 93.5093 35.2084C100.657 33.4098 108.118 33.2853 115.486 33.5701L109.805 33.0223C107.742 31.4161 105.567 29.7526 102.992 29.2261ZM88.9347 59.9341L85.8047 64.3232C93.9126 55.2427 101.629 45.7958 108.909 36.0377C100.204 41.9465 93.1976 50.3184 88.9347 59.9341ZM76.8979 46.8709L71.7038 52.703C78.4619 46.2092 86.5653 41.1167 95.3544 37.8556C88.5751 39.4873 81.3468 41.5049 76.8979 46.8709ZM177.547 40.3657C176.69 39.7444 175.791 39.1369 174.775 38.8042C173.766 38.4721 172.614 38.4378 171.668 38.9241L168.514 38.2349C170.255 38.8063 171.987 39.3771 173.727 39.9485C176.24 40.7783 178.802 41.6197 180.971 43.1332C179.88 42.1559 178.736 41.2332 177.547 40.3657Z" fill="url(#paint4_radial_1882_46926)"/>
<path d="M127.799 29.0811C126.179 27.9526 124.566 26.8246 122.945 25.6961C122.77 25.5766 122.571 25.4472 122.369 25.492C122.141 25.5435 122.018 25.7764 121.913 25.9772C121.567 26.6857 121.23 27.3947 120.884 28.1032L120.475 28.5084C122.925 28.2706 125.414 28.459 127.799 29.0811ZM131.125 29.8148L129.618 28.7104C130.184 29.4539 130.82 30.1438 131.519 30.7713C131.785 31.0131 132.077 31.2566 132.418 31.3787C133.107 31.6318 133.905 31.3768 134.476 30.9075C135.047 30.4381 135.438 29.7991 135.812 29.1673C134.479 30.11 132.676 30.3571 131.125 29.8148ZM138.25 26.9678C137.913 27.0288 137.57 27.189 137.41 27.4859C137.287 27.7022 137.286 27.968 137.262 28.2157C137.19 28.9255 136.921 29.6141 136.5 30.193L136.421 30.3955C139.04 29.7367 141.901 30.0743 144.294 31.3284C143.572 30.558 142.85 29.7877 142.12 29.0168C141.071 27.901 139.747 26.6923 138.25 26.9678ZM140.98 19.4283C139.578 18.1396 137.614 17.6782 135.936 16.7786C139.521 18.6261 140.831 23.091 143.756 25.8673L146.389 30.5521C145.399 28.0525 144.365 25.575 143.28 23.119C142.695 21.7761 142.054 20.4128 140.98 19.4283ZM156.626 35.9858C156.112 36.2262 155.694 36.6391 155.202 36.9142C154.4 37.36 153.407 37.436 152.548 37.1053L151.912 36.5318C153.178 38.0026 155.394 38.5553 157.201 37.8598C158.437 37.3844 159.617 36.3734 160.911 36.6579C159.566 36.0045 157.981 35.3437 156.626 35.9858ZM151.607 40.2923C152.629 42.3203 155.339 43.3044 157.426 42.3947C155.799 42.2462 154.199 41.817 152.716 41.113L151.607 40.2923ZM172.9 39.066L176.925 40.9092C175.845 39.7747 174.373 38.5313 172.9 39.066ZM98.2617 30.8457C95.6843 31.2496 93.2221 32.1763 90.7837 33.1211C87.4671 34.407 84.0689 35.7956 81.505 38.2694L82.6888 37.9566C89.6952 33.8804 97.8064 31.7048 105.914 31.7308C103.563 30.5958 100.839 30.45 98.2617 30.8457ZM84.7129 37.3751L80.913 40.9558C86.7714 35.8901 94.8363 34.4177 102.481 33.142C96.3402 33.1539 90.2038 34.6118 84.7129 37.3751ZM76.7366 48.1177C80.3094 45.3364 84.0512 42.7656 87.9355 40.4285C84.628 41.5738 81.4954 43.2208 78.6675 45.2867L76.7366 48.1177ZM72.5719 44.8611L73.0915 46.69C75.1564 43.336 77.5812 40.1967 80.3035 37.3346C77.3809 39.4524 74.7631 41.989 72.5719 44.8611ZM88.945 60.594C94.5294 54.5133 99.5341 47.896 103.868 40.869C99.0351 45.1213 94.961 50.2211 91.8812 55.8681L88.945 60.594ZM120.519 42.7692L128.407 35.6435C125.255 37.3308 122.525 39.8019 120.519 42.7692ZM116.896 14.6965L124.456 21.6742C122.438 18.8744 119.845 16.4855 116.896 14.6965ZM161.805 34.3071C161.163 31.9384 160.241 29.6511 159.053 27.5041L161.805 34.3071Z" fill="#3E2E29"/>
<path d="M190.211 48.9409C191.806 50.7075 193.234 52.621 194.627 54.5571C194.437 53.9214 194.212 53.2918 193.953 52.6766C191.267 46.1354 185.818 41.0662 179.805 37.3475L179.617 37.0526L179.774 36.9466C182.676 37.0376 185.628 37.2483 188.344 38.2825C190.403 39.0659 192.325 40.4054 193.562 42.1983C192.121 38.9628 189.028 36.4663 185.602 35.377C181.287 34.0133 176.581 34.5682 172.249 35.8788C178.712 39.5689 185.222 43.4283 190.211 48.9409Z" fill="#734130"/>
<path d="M193.352 60.5236C193.117 59.9265 192.839 59.3516 192.544 58.7838C190.911 53.6745 187.26 49.2968 182.769 46.3344C177.943 43.1507 172.217 41.5281 166.458 41.025C168.416 42.4665 169.991 44.4228 170.992 46.6406C168.544 44.6933 165.287 43.798 162.193 44.2261C158.806 44.6932 155.762 46.6368 152.378 47.1705C147.467 47.9445 142.23 45.3155 139.849 40.963C139.028 38.5327 139.127 35.6394 140.745 33.6519C139.706 33.9077 138.681 34.2142 137.661 34.5543L137.531 34.1386C137.461 34.3168 137.392 34.4868 137.338 34.666C127.308 38.1031 118.642 45.3107 113.208 54.4174C113.394 52.8509 113.711 51.3014 114.184 49.7954C116.266 43.1521 121.213 37.7857 126.598 33.3619C119.41 33.6208 112.35 36.6216 107.17 41.6071C102.716 45.901 99.7066 51.4944 95.4797 56.0109C93.3794 58.2575 90.9905 60.2193 88.8985 62.4664C87.0303 64.4707 85.3966 66.6982 84.0432 69.0853C84.1764 68.1966 84.3256 67.3174 84.5084 66.4321C86.6847 55.948 92.94 46.7375 100.047 38.7295C89.8468 40.4521 80.3991 45.8967 73.5362 53.605C79.1871 50.3038 85.3236 47.8322 91.6811 46.2974C85.7155 50.467 81.7401 57.3513 81.1055 64.6048C80.8125 67.9257 81.1929 71.241 81.5892 74.5657C81.6519 74.3704 81.7152 74.1668 81.7861 73.9721C82.2057 76.1849 82.7935 78.3672 83.491 80.5235C84.934 73.8632 88.1544 67.594 92.7559 62.5621C95.4235 59.6465 98.5289 57.1502 101.016 54.0814C104.388 49.9243 106.633 44.7209 110.983 41.6085C109.299 45.619 107.835 49.8102 107.641 54.1596C107.341 61.003 110.184 67.4215 113.574 73.4937C114.474 74.5997 115.408 75.6831 116.368 76.7433C115.449 70.875 117.498 64.4872 120.593 59.24C124.585 52.4731 130.189 46.7343 133.949 39.8358C133.771 47.2273 128.957 54.3474 130.602 61.5595C131.046 63.5247 131.958 65.3377 132.86 67.1585C133.45 67.7872 134.111 68.3541 134.819 68.8244C133.825 66.5074 133.423 63.9052 133.515 61.3687C133.664 57.3238 134.977 53.3969 136.584 49.6805C136.012 56.6223 137.92 63.7438 141.907 69.4564C144.921 73.784 149.044 77.2954 152.332 81.3751C155.714 84.7797 158.67 88.6049 161.107 92.7367C161.181 87.8227 160.001 82.9011 157.702 78.5541C160.681 81.6579 162.57 85.7869 162.978 90.0679C163.388 94.4404 162.311 98.9561 162.057 103.326C162.447 102.563 162.895 101.828 163.381 101.129C165.311 98.3058 167.756 95.8823 169.789 93.1411C174.203 87.1663 176.523 79.6746 176.247 72.2449C178.075 77.0513 177.826 82.3526 177.438 87.4952C178.848 84.497 179.991 81.3898 180.587 78.1387C181.585 72.6872 180.857 66.7068 177.551 62.2603C180.366 64.697 182.712 67.6845 184.413 70.9952C184.019 63.3418 180.444 55.9114 174.713 50.8236C180.993 54.269 184.872 61.1129 186.195 68.1544C186.572 70.14 186.764 72.1468 186.814 74.1608C189.027 67.1689 188.562 59.328 185.417 52.6903C190.353 56.6041 192.845 63.066 192.838 69.3637C192.833 69.812 192.821 70.2599 192.799 70.7072C192.818 70.6752 192.836 70.6514 192.855 70.6194C192.893 70.5554 192.929 70.4997 192.975 70.4362C193.059 70.3005 193.143 70.1564 193.227 70.0207C193.274 69.9407 193.312 69.8601 193.358 69.7884C193.415 69.6924 193.462 69.6041 193.51 69.5075C193.557 69.4192 193.604 69.3392 193.643 69.2504C193.682 69.1698 193.72 69.0975 193.758 69.017C193.844 68.8399 193.931 68.6628 194.009 68.4851C194.029 68.4283 194.057 68.3803 194.077 68.3317C194.126 68.2186 194.175 68.1055 194.216 67.9918C194.236 67.9433 194.256 67.8947 194.275 67.8462C194.425 67.4655 194.567 67.076 194.693 66.6772C194.703 66.6446 194.713 66.6203 194.724 66.5878C194.766 66.4493 194.808 66.3191 194.842 66.1801C194.521 64.2397 194.08 62.3412 193.352 60.5236Z" fill="#734130"/>
<path d="M169.725 32.9719C169.384 32.9744 169.044 32.9687 168.695 32.9624C168.695 32.9624 168.602 32.7402 168.449 32.4144C169.811 32.2879 171.181 31.6717 172.486 31.1675C174.702 30.3161 177.031 29.7712 179.396 29.5611C178.754 29.3526 178.111 29.136 177.469 28.9275C176.501 28.6064 175.517 28.2841 174.501 28.1924C170.784 27.8568 167.566 30.5534 164.824 33.0819C166.465 33.2645 168.099 33.1891 169.725 32.9719Z" fill="#734130"/>
<path d="M103.92 24.8238C95.6914 26.1359 87.6159 28.7792 80.2156 32.655C78.1816 34.3991 76.3398 36.3802 74.7457 38.5106C78.6618 34.8046 83.2624 31.8083 88.2561 29.7851C97.2786 26.1322 107.555 25.6526 116.885 28.4427C114.09 24.196 111.059 19.7426 106.418 17.6596C102.375 15.8401 97.6199 16.1341 93.442 17.6294C90.6341 18.633 88.0512 20.1333 85.5953 21.8497C83.1963 23.7111 80.9343 25.7643 78.7733 27.9239C86.2664 23.5224 95.6149 22.2423 103.92 24.8238Z" fill="#734130"/>
<path d="M162.229 19.773C161.557 19.1141 160.797 18.5489 159.98 18.0881C162.479 20.637 163.389 24.6269 162.269 28.0098C161.87 25.9812 160.653 24.148 159.135 22.7188C159.088 22.6742 159.041 22.6378 158.994 22.5932C160.857 26.2303 161.869 30.3099 162.852 34.3047C165.461 29.8896 165.11 23.9756 162.229 19.773Z" fill="#734130"/>
<path d="M146.696 17.8245C147.721 19.67 148.24 21.8811 147.683 23.9133C146.7 21.9294 145.347 20.1372 143.744 18.6193C144.567 20.1191 145.288 21.6704 146.112 23.1703C148.247 27.0994 151.01 30.696 154.247 33.7753C154.184 30.0653 154.095 26.2291 152.564 22.8465C150.634 18.5819 146.706 15.6482 142.853 12.9605C142.789 12.9231 142.725 12.8856 142.652 12.8477C144.147 14.3833 145.655 15.9531 146.696 17.8245Z" fill="#734130"/>
<path d="M120.738 13.8354C120.535 13.7639 120.332 13.7006 120.129 13.6291C124.73 16.6901 128.322 21.3298 131.701 25.806C132.901 22.2041 131.686 17.9283 128.782 15.4773C127.12 14.0803 125.037 13.287 123.294 12.0009C120.702 10.0857 118.973 7.06397 118.593 3.8733C118.538 3.70349 118.475 3.52486 118.428 3.35559C118.124 7.09125 119.135 10.9216 121.225 14.0252C121.071 13.9569 120.901 13.8959 120.738 13.8354Z" fill="#734130"/>
<path d="M81.0972 64.6015C81.7312 57.3563 85.7071 50.4637 91.6727 46.2942C85.307 47.8284 79.1787 50.3005 73.5278 53.6017C70.1638 57.3772 67.412 61.6997 65.5 66.3932C66.0962 65.2858 66.7642 64.2246 67.5045 63.2014C67.5133 63.1937 67.5138 63.1854 67.5226 63.1777C67.6967 62.9315 67.8785 62.6942 68.0685 62.4574C68.0779 62.4414 68.0872 62.4254 68.1049 62.41C68.2866 62.1727 68.4761 61.9442 68.6656 61.7157C68.675 61.6997 68.6926 61.6842 68.702 61.6682C68.8915 61.4397 69.0893 61.2117 69.2865 60.992C69.2953 60.9843 69.3047 60.9683 69.3218 60.9611C69.5278 60.7337 69.7339 60.5063 69.9394 60.2871C69.9394 60.2871 69.9399 60.2789 69.9482 60.2794C70.3763 59.834 70.8121 59.3973 71.2717 58.9788C71.2805 58.9711 71.2981 58.9556 71.307 58.9479C71.5191 58.7541 71.7401 58.5526 71.9599 58.3677C71.9864 58.3445 72.004 58.329 72.0305 58.3058C72.2421 58.1203 72.4614 57.9436 72.6813 57.7587C72.716 57.736 72.743 57.7046 72.7777 57.6819C72.9971 57.5052 73.2159 57.3368 73.4346 57.1684C73.4694 57.1457 73.5046 57.1148 73.5311 57.0916C73.7499 56.9232 73.9769 56.7553 74.2035 56.5957C74.2382 56.5731 74.2646 56.5499 74.2988 56.5355C74.5342 56.3682 74.7689 56.2091 75.0037 56.0501C75.0214 56.0346 75.0473 56.0197 75.0649 56.0043C75.3168 55.838 75.5681 55.6801 75.8195 55.5221L75.7782 55.644C74.246 58.9832 74.0356 62.8164 74.5525 66.4564C75.0611 70.0959 76.2601 73.5979 77.4519 77.0829C78.1836 79.2248 78.9445 81.4268 80.3922 83.1671C80.3007 80.2613 80.7088 77.3384 81.5891 74.563C81.1845 71.2378 80.8124 67.923 81.0972 64.6015Z" fill="#601900"/>
<path d="M110.964 41.5965C106.614 44.7089 104.361 49.9117 100.997 54.0694C98.51 57.1382 95.4046 59.6345 92.737 62.5501C88.1355 67.5819 84.9151 73.8512 83.4721 80.5115C84.0932 82.4384 84.8076 84.3383 85.5566 86.2154C85.3902 84.0691 85.5332 81.8933 85.9543 79.7856L85.8363 81.5808C87.2635 84.3916 88.1835 87.4599 88.5174 90.5977C89.0713 88.4904 89.628 86.3417 89.5222 84.1579C89.4622 83.0488 89.235 81.9538 89.0073 80.867C88.6522 79.1902 88.3054 77.5139 87.9503 75.8371C87.9503 75.8371 87.8405 75.2316 87.6666 74.4641C88.0932 73.5366 88.576 72.6378 89.1146 71.7758C93.4968 64.7686 101.253 60.4093 105.801 53.5377C105.524 57.8733 106.717 62.3554 108.729 66.2598C110.063 68.8402 111.726 71.2178 113.555 73.4817C110.165 67.4095 107.322 60.991 107.622 54.1476C107.816 49.8065 109.279 45.6153 110.964 41.5965Z" fill="#601900"/>
<path d="M133.95 39.8224C130.19 46.7209 124.586 52.4597 120.594 59.2266C117.499 64.4738 115.45 70.8699 116.369 76.73C117.562 78.0547 118.798 79.349 120.027 80.6262C118.115 75.0749 119.842 68.8986 122.504 63.6645C125.166 58.4303 128.753 53.6558 130.899 48.1884L129.559 51.7645C128.877 55.5667 128.861 59.6038 130.321 63.1811C130.915 64.6327 131.781 65.9941 132.861 67.1369C131.959 65.3161 131.056 63.5036 130.604 61.5379C128.958 54.334 133.772 47.2139 133.95 39.8224Z" fill="#601900"/>
<path d="M192.834 69.3552C192.841 63.0575 190.35 56.5874 185.413 52.6818C188.55 59.319 189.015 67.16 186.811 74.1524C186.76 72.1383 186.568 70.1316 186.192 68.146C184.868 61.1044 180.989 54.2606 174.709 50.8152C180.441 55.8947 184.015 63.3333 184.41 70.9868C182.708 67.6761 180.362 64.6885 177.547 62.2519C180.861 66.6989 181.581 72.6787 180.583 78.1302C179.988 81.3814 178.844 84.4886 177.434 87.4868C177.814 82.3354 178.071 77.0428 176.243 72.2365C176.52 79.6579 174.199 87.1578 169.785 93.1326C167.751 95.8822 165.307 98.3056 163.377 101.12C162.899 101.82 162.451 102.563 162.053 103.318C162.298 98.9471 163.376 94.4314 162.974 90.0594C162.574 85.779 160.685 81.65 157.698 78.5456C159.997 82.8844 161.177 87.8143 161.104 92.7283C158.666 88.5965 155.711 84.7713 152.328 81.3667C149.04 77.287 144.918 73.7673 141.903 69.448C137.924 63.7359 136.008 56.6139 136.58 49.672C134.973 53.3885 133.66 57.3154 133.511 61.3603C133.419 63.8968 133.822 66.4907 134.815 68.816C136.001 69.6168 137.327 70.1692 138.75 70.3874C137.575 69.8116 136.803 68.6558 136.241 67.4723C135.073 65.0192 134.59 62.2538 134.843 59.5534L135.541 60.937C137.163 67.6076 142.148 72.6713 147.022 77.7775C151.29 82.2457 155.464 86.7492 157.228 92.4071C157.385 92.916 157.526 93.4321 157.65 93.9554L157.19 95.2546C157.909 99.6141 157.084 104.205 154.904 108.041C154.406 108.923 153.801 109.788 152.92 110.287C153.595 110.257 154.276 110.144 154.927 109.962C155.012 109.943 155.097 109.915 155.182 109.887C157.377 109.226 159.35 107.785 160.598 105.865L160.696 105.755L160.753 105.775C160.793 105.919 160.834 106.063 160.882 106.207C161.194 107.158 161.692 108.055 162.357 108.805C162.519 108.99 162.691 109.16 162.871 109.329C162.922 106.782 164.379 104.46 166.13 102.597C167.88 100.743 169.95 99.209 171.685 97.3372C172.356 96.6168 172.973 95.8182 173.486 94.9629C173.563 94.943 173.647 94.9236 173.723 94.9037C174.754 94.6391 175.813 94.4594 176.881 94.3883C178.075 94.3006 179.277 94.3381 180.454 94.5069C180.861 92.365 181.538 90.2741 182.441 88.2978C182.528 88.1124 182.607 87.9264 182.702 87.7416L182.774 87.1481L182.903 86.7079L183.099 86.8787C184.216 86.3206 185.198 85.5459 186.047 84.6296C187.219 83.3688 188.125 81.8414 188.762 80.2381C189.858 77.4768 190.22 74.4845 190.432 71.5155C190.667 68.1991 190.719 64.8707 190.605 61.548C192.899 64.6982 193.203 69.1718 191.358 72.5984C191.492 72.4493 191.618 72.308 191.744 72.1585C191.78 72.1193 191.816 72.0718 191.852 72.0326C191.951 71.9145 192.043 71.7876 192.142 71.6694C192.169 71.6297 192.196 71.5982 192.224 71.5585C192.334 71.4078 192.443 71.2572 192.553 71.1065C192.589 71.0591 192.626 71.0033 192.654 70.9553C192.709 70.8758 192.764 70.7964 192.812 70.7081C192.825 70.252 192.838 69.8041 192.834 69.3552Z" fill="#601900"/>
<path d="M92.7834 25.8951C88.1915 27.1138 83.8882 29.5065 80.2165 32.6552C87.608 28.7871 95.684 26.1356 103.921 24.824C95.6158 22.2425 86.2673 23.5226 78.7908 27.9252C76.8959 29.828 75.0955 31.8118 73.3579 33.8496C78.8162 30.3198 84.5633 26.6926 91.0331 26.1041L92.7834 25.8951Z" fill="#601900"/>
<path d="M161.694 73.8006C161.301 69.6702 160.901 65.5061 159.649 61.5519C158.397 57.5976 156.194 53.8219 152.822 51.3984C155.251 55.1475 157.038 59.3113 158.065 63.6579C154.042 57.6106 148.454 52.6153 142.001 49.2914L138.637 40.0469C140.141 46.6183 141.708 53.2355 144.53 59.3618C147.351 65.488 151.539 71.164 157.29 74.691C157.229 72.3356 157.168 69.9719 157.115 67.617C158.835 71.6684 160.546 75.7193 162.266 79.7707C162.072 77.7887 161.879 75.7902 161.694 73.8006Z" fill="#9D6D48"/>
<path d="M172.485 74.6035C173.734 69.6255 173.219 63.9333 169.904 60.018C166.241 55.6976 159.688 54.0206 157.309 48.8789L160.093 56.4568C163.663 64.5848 165.797 73.333 166.386 82.1875C166.524 84.2737 166.564 86.4367 165.732 88.3512C168.468 84.011 171.236 79.5732 172.485 74.6035Z" fill="#9D6D48"/>
<path d="M176.612 62.291C176.074 61.3749 175.345 60.5875 174.623 59.8089C172.521 57.5354 170.419 55.2618 168.316 52.9883L173.97 61.7767C175.983 65.6646 177.6 69.7592 178.786 73.9666C178.829 71.161 178.515 68.3569 177.847 65.6292C177.566 64.4642 177.218 63.3113 176.612 62.291Z" fill="#9D6D48"/>
<path d="M177.641 54.5846C176.522 53.4142 175.145 52.6175 173.848 51.8675C170.694 50.0401 167.917 48.4367 165.451 47.0117L169.376 51.1416C172.123 55.2356 176.217 59.6923 181.978 64.458C180.906 60.5322 179.873 56.9164 177.641 54.5846Z" fill="#9D6D48"/>
<path d="M172.875 43.5898L173.061 45.3054C174.938 48.7357 178.07 51.2763 180.846 54.0345C183.623 56.7927 186.221 60.1291 186.513 64.0286C187.003 59.6072 185.883 55.0219 183.418 51.3203C180.944 47.6264 177.147 44.8344 172.875 43.5898Z" fill="#9D6D48"/>
<path d="M188.805 54.8561C188.007 52.3359 186.368 50.0928 184.2 48.571C183.398 48.0032 182.515 47.5297 181.812 46.8438L188.805 54.8561Z" fill="#9D6D48"/>
<path d="M137.662 42.5352C139.55 50.7271 138.883 59.607 142.583 67.1537C145.462 73.0345 150.66 77.381 155.712 81.5517C149.424 74.0676 144.595 65.3666 141.575 56.0699L137.662 42.5352Z" fill="#9D6D48"/>
<path d="M130.378 40.2778C126.82 44.3479 122.199 47.4093 118.862 51.6602C114.8 56.8272 112.898 63.6402 113.682 70.1643C117.276 57.3224 126.005 46.6375 134.515 36.3703L130.378 40.2778Z" fill="#9D6D48"/>
<path d="M113.981 45.2416L120.407 36.5906C116.961 39.2058 113.418 41.9226 111.284 45.6875C109.142 49.4519 108.612 53.9787 109.152 58.2766C109.693 62.5746 111.234 66.6807 113.027 70.6289C111.544 62.2226 111.876 53.5035 113.981 45.2416Z" fill="#9D6D48"/>
<path d="M82.8432 72.0767C83.6542 65.4248 85.4377 58.8949 88.142 52.7662L92.1679 46.2507C85.1721 52.6956 81.5768 62.646 82.8432 72.0767Z" fill="#9D6D48"/>
<path d="M81.9762 48.1437C85.525 46.7401 89.082 45.337 92.6302 43.9416C94.0972 43.365 95.6612 42.7034 96.4888 41.3619L93.5506 42.1991C89.2746 43.1644 85.2505 45.2264 81.9762 48.1437Z" fill="#9D6D48"/>
<path d="M99.8479 20.08C104.059 20.9799 107.641 24.0154 111.919 24.5375L113.833 26.001C111.232 22.2157 107.545 19.0155 103.123 17.7777C98.7018 16.5316 93.5268 17.5209 90.4052 20.8969C93.4663 19.9597 96.7263 19.4096 99.8479 20.08Z" fill="#9D6D48"/>
<path d="M94.6194 20.6258C92.231 20.8095 89.9187 21.6048 87.8019 22.712C93.8394 21.6215 100.038 22.76 106.07 23.9042L101.525 22.1266C99.4707 20.8948 97.0078 20.4421 94.6194 20.6258Z" fill="#9D6D48"/>
<path d="M131.234 22.6669C131.089 18.9267 128.723 15.3563 125.329 13.7706L119.846 8.83203C122.913 14.0023 128.871 17.1524 131.234 22.6669Z" fill="#9D6D48"/>
<path d="M147.155 15.5853C147.029 15.3787 146.902 15.1721 146.758 14.9727L147.155 15.5853Z" fill="#9D6D48"/>
<path d="M152.308 30.3736C151.975 28.1083 151.591 25.8564 151.157 23.6094C150.872 22.1366 150.54 20.6191 149.655 19.4061L147.156 15.5859C148.996 18.698 148.714 22.7342 149.907 26.2026C150.429 27.7326 151.25 29.1575 152.308 30.3736Z" fill="#9D6D48"/>
<path d="M174.726 28.8714C172.43 28.546 169.993 29.5906 168.656 31.4803L168.806 31.3406C170.983 31.2095 173.102 30.3267 174.726 28.8714Z" fill="#9D6D48"/>
<path d="M176.996 37.4883L184.401 42.8938C182.765 40.2271 180.046 38.2371 176.996 37.4883Z" fill="#9D6D48"/>
<path d="M155.437 46.9788L155.681 46.9948C155.6 46.9813 155.519 46.976 155.437 46.9788Z" fill="#9D6D48"/>
<path d="M167.389 55.0995C166.563 52.6273 165.592 50.2038 164.467 47.8532C164.204 47.2959 163.917 46.7287 163.463 46.3083C163.009 45.8879 162.353 45.6288 161.767 45.8229C161.172 46.0165 160.667 46.6314 160.061 46.4919C161.271 46.7957 162.307 47.7196 162.754 48.8873C161.468 48.0965 160.061 47.5055 158.597 47.1517L155.707 47.0034C156.317 47.0767 156.876 47.4208 157.402 47.7628C160.851 50.0252 164.188 52.4795 167.389 55.0995Z" fill="#9D6D48"/>
<path d="M148.257 50.8822C149.705 51.9828 151.308 52.8775 152.621 54.1353C151.801 52.4446 150.974 50.7534 150.154 49.0627L152.634 47.7466C149.767 49.1452 146.016 48.4417 143.852 46.0977C145.019 47.9358 146.524 49.5636 148.257 50.8822Z" fill="#9D6D48"/>
<path d="M174.057 70.7346C172.842 80.6254 169.591 90.2661 164.562 98.8843C166.933 95.9408 169.107 92.8266 171.048 89.5891C173.417 85.6485 175.51 81.1082 174.61 76.6038L174.057 70.7346Z" fill="#9D6D48"/>
<path d="M131.823 56.1326C133.59 52.5098 135.39 48.7562 135.581 44.7222L136.556 36.5772C134.696 43.0189 133.112 49.5453 131.823 56.1326Z" fill="#9D6D48"/>
<path d="M118.559 49.5447L133.07 37.2208C127.402 40.2716 121.575 43.8519 118.559 49.5447Z" fill="#9D6D48"/>
<path d="M108.076 41.9838L120.417 35.1257C115.777 36.2 111.439 38.607 108.076 41.9838Z" fill="#9D6D48"/>
<path d="M166.702 45.4256L163.918 43.7969C166.361 45.8186 169.038 47.5566 171.888 48.9487C170.38 47.4953 168.615 46.2908 166.702 45.4256Z" fill="#9D6D48"/>
<path d="M130.877 48.1853C127.32 56.784 119.804 63.8095 118.896 73.4546C118.783 74.6769 118.794 75.899 118.947 77.1138C119.076 78.1776 119.361 79.1518 119.703 80.1381C117.255 77.7006 114.965 74.991 112.947 72.1995C110.837 69.2774 108.961 66.221 107.713 62.8238C106.58 59.7166 106.027 56.3733 106.211 53.0702C106.23 53.0299 106.257 52.9902 106.277 52.9499C106.305 52.9019 106.267 52.8495 106.225 52.8468C106.235 52.7062 106.244 52.5572 106.254 52.4166C106.542 49.0455 108.035 45.9115 110.223 43.3549C112.58 40.6017 115.625 38.6498 118.934 37.2304C119.079 37.1652 118.968 36.9668 118.823 37.0154C112.755 39.209 107.531 44.2249 105.975 50.587C105.713 51.6665 105.551 52.7443 105.472 53.8193C102.542 57.6815 98.7505 60.7641 95.2339 64.0809C91.3713 67.7322 88.0021 71.8397 86.4082 77.0028C85.5851 79.6657 85.2094 82.4744 85.3504 85.2588C84.4806 82.817 83.7387 80.3254 83.0558 77.8211C82.3192 75.1222 81.7612 72.3602 81.5208 69.5692C81.0782 64.5465 81.8432 59.3539 84.2237 54.8657C85.5042 52.4489 87.2499 50.287 89.4135 48.5929C89.5012 48.5239 89.3847 48.3999 89.3053 48.4695C81.3041 54.4079 79.7657 65.1748 81.499 74.4534C80.6401 77.1555 80.25 79.93 80.2549 82.7636C79.0542 80.9315 78.3937 78.8441 77.7239 76.7728C76.9855 74.4808 76.2134 72.195 75.6111 69.8539C74.4199 65.2223 74.0375 60.295 75.7898 55.7572C77.6296 54.5653 79.5887 53.5806 81.6071 52.8325C81.6413 52.8182 81.6197 52.7669 81.5861 52.773C77.8975 53.9015 74.5554 55.701 71.647 58.2351C69.003 60.5374 66.8928 63.3152 65.2699 66.3908C66.0686 58.4086 67.9478 50.4227 71.8353 43.358C75.5059 36.6863 81.0311 31.0005 87.982 27.7682C91.8045 25.992 95.919 25.0826 100.131 25.0852C100.24 25.084 100.259 24.9191 100.143 24.9115C92.7192 24.5898 85.4562 27.893 79.9153 32.6804C73.7286 38.0651 69.703 45.4613 67.3957 53.2612C66.0295 57.866 65.2266 62.624 64.796 67.4066C64.7719 67.6459 65.0858 67.6749 65.1815 67.4818C67.4643 62.8376 71.1942 58.8036 75.5881 55.9184C73.5152 60.2773 73.7582 65.3035 74.8352 69.9026C75.4189 72.4004 76.2556 74.84 77.1359 77.2493C77.9177 79.3862 78.747 81.5594 80.3056 83.2572C80.3674 83.3277 80.5273 83.2967 80.5184 83.1798C80.4099 80.4058 80.8104 77.5988 81.6081 74.9425C81.7466 75.6163 81.8939 76.2824 82.0666 76.9418C82.8931 80.1701 84.1545 83.2276 85.4573 86.2878C85.5076 86.4074 85.726 86.3719 85.7181 86.2385C85.6539 84.8134 85.706 83.3877 85.8729 81.9862C86.1073 82.5915 86.2899 83.2267 86.5326 83.8326C86.84 84.5923 87.1049 85.3658 87.361 86.147C87.8378 87.6158 88.1883 89.1095 88.412 90.6364C88.4286 90.7621 88.6349 90.784 88.6684 90.6533C89.2844 88.2343 89.9241 85.8336 89.6327 83.3134C89.4909 82.0578 89.1814 80.8244 88.9134 79.5936C88.6524 78.38 88.5121 76.9749 87.9965 75.8443C87.9893 75.8272 87.9557 75.8333 87.9546 75.8498C87.9364 77.0119 88.3446 78.2601 88.569 79.3965C88.8084 80.5589 89.0643 81.7223 89.2446 82.8974C89.6048 85.2559 89.1867 87.5715 88.5965 89.8509C88.4535 88.4871 88.2189 87.1257 87.857 85.8057C87.6699 85.1121 87.4322 84.4318 87.1685 83.7663C86.8478 82.9559 86.4104 82.2791 85.969 81.5355C85.9536 81.5179 85.9464 81.5008 85.9304 81.4914C86.4908 77.5151 88.0033 73.7176 90.4517 70.4719C93.5363 66.3955 97.5908 63.2387 101.121 59.5822C102.708 57.9416 104.208 56.2372 105.455 54.3333C105.183 60.3643 107.7 66.188 111.309 71.0782C113.887 74.5795 117.051 77.5127 119.93 80.7347C120.016 80.8234 120.195 80.7521 120.162 80.6252C118.881 76.3368 119.817 71.4628 121.34 67.3753C122.945 63.0521 125.484 59.1809 127.701 55.1638C128.945 52.9191 130.027 50.6222 130.941 48.2228C130.952 48.1737 130.895 48.1533 130.877 48.1853Z" fill="#480D00"/>
<path d="M73.4389 33.9987C78.8625 30.4915 84.5105 26.9824 91.0666 26.2168C91.2089 26.2012 91.1646 25.9906 91.0228 25.9979C84.8519 26.4648 79.4083 29.7713 74.2984 33.0581C79.3438 27.4655 84.8666 22.195 91.3758 18.352C98.2658 14.2765 106.256 11.7855 114.319 12.6311C116.563 12.87 118.85 13.336 120.957 14.1558C121.078 14.2053 121.2 14.2548 121.321 14.3044C121.352 14.3396 121.374 14.3826 121.405 14.4179C121.435 14.4614 121.495 14.4404 121.522 14.4007C123.32 15.25 124.772 16.6582 125.816 18.3471C125.876 18.4507 126.039 18.37 125.988 18.267C125.204 16.6617 123.956 15.3001 122.403 14.4004C122.019 14.1757 121.608 13.9826 121.196 13.8059C119.464 10.8338 118.444 7.64265 118.538 4.18405C119.267 6.23442 120.399 8.10352 122.012 9.6054C124.001 11.4478 126.443 12.4724 129.052 13.1174C131.84 13.7992 134.719 14.113 137.431 15.0806C139.834 15.9364 142.086 17.3225 143.94 19.0811C145.442 20.5009 146.679 22.1609 147.613 23.9921C147.613 24.0004 147.612 24.0087 147.612 24.017C147.601 24.0495 147.633 24.0765 147.658 24.0781C148.033 24.8174 148.356 25.5864 148.62 26.3765C148.64 26.4443 148.758 26.4271 148.738 26.351C148.469 25.5107 148.133 24.6827 147.746 23.8762C148.853 19.7946 146.148 16.3265 143.476 13.492C147.226 15.5997 150.965 17.7481 154.66 19.9435C157.994 21.9241 161.155 24.4002 162.156 28.2631C162.144 28.3122 162.133 28.3613 162.113 28.4098C162.102 28.4507 162.151 28.4622 162.17 28.4302C162.179 28.4225 162.18 28.4059 162.188 28.3982C162.235 28.5757 162.273 28.7527 162.303 28.9292C162.321 29.0384 162.496 29.025 162.503 28.9174C162.503 28.5352 162.478 28.1597 162.427 27.799C163.481 24.794 162.749 21.3891 160.854 18.8633C163.779 21.0081 165.593 24.642 165.521 28.2682C165.521 28.3928 165.672 28.4859 165.77 28.3926C167.92 26.3985 171.125 25.6703 173.94 26.4535C176.258 27.096 178.226 28.6296 180.517 29.2953C180.335 29.2833 180.152 29.2796 179.969 29.2842C179.387 29.2958 178.802 29.3405 178.233 29.411C176.927 29.5579 175.637 29.847 174.374 30.221C171.985 30.9281 169.451 32.681 166.881 32.0883C166.611 32.029 166.46 32.4262 166.738 32.5026C169.177 33.1864 171.555 31.7806 173.821 31.0488C175.078 30.6411 176.352 30.3344 177.647 30.112C178.277 30.0039 178.898 29.9035 179.535 29.829C180.289 29.7373 181.105 29.5749 181.861 29.5747C181.986 29.5746 181.998 29.3926 181.874 29.3762C178.723 29.0361 176.336 26.5362 173.241 25.9754C170.597 25.4943 167.902 26.2893 165.84 27.9568C165.944 23.8425 163.713 19.9901 160.107 17.975C159.954 17.8902 159.751 18.0762 159.891 18.2184C162.274 20.6516 163.056 24.1761 162.376 27.4384C161.694 24.0368 158.603 21.5154 155.749 19.8073C151.519 17.2777 147.066 15.1239 142.762 12.7305C142.617 12.6545 142.431 12.8251 142.564 12.9585C145.326 15.8072 148.619 19.4385 147.705 23.7406C145.996 20.2798 143.251 17.291 139.875 15.4406C137.525 14.1561 134.98 13.5569 132.372 13.0448C129.492 12.4816 126.544 11.9472 124.033 10.3365C121.529 8.73448 119.485 6.20719 118.618 3.35009C118.57 3.19737 118.337 3.19042 118.325 3.37243C118.07 6.88688 118.89 10.713 120.897 13.67C119.633 13.1798 118.283 12.8667 116.979 12.6065C112.968 11.8112 108.802 11.8614 104.783 12.586C96.552 14.0558 89.1911 18.2168 82.9411 23.6804C79.4237 26.7562 76.232 30.1857 73.27 33.7882C73.1223 33.8865 73.3 34.0893 73.4389 33.9987Z" fill="#480D00"/>
<path d="M176.963 32.8218C174.209 32.7488 171.465 32.9091 168.712 32.9525C168.704 32.952 168.703 32.9685 168.711 32.9691C176.61 33.2556 186.06 32.2065 191.858 38.8026C192.887 39.967 193.662 41.3141 194.106 42.7807C191.429 37.8687 184.998 36.7398 179.797 36.7304C179.531 36.7295 179.497 37.1261 179.77 37.144C182.881 37.3485 186.014 37.463 188.913 38.7337C191.336 39.7903 193.471 41.5757 194.41 44.0969C194.467 44.2501 194.689 44.1567 194.665 44.0056C194.138 40.5228 191.789 37.7013 188.878 35.8482C185.338 33.5882 181.102 32.9359 176.963 32.8218Z" fill="#480D00"/>
<path d="M195.595 57.6023C194.81 51.9755 191.6 46.9537 187.576 43.0666C185.248 40.8198 182.595 38.967 179.828 37.3228C179.796 37.3041 179.759 37.3516 179.791 37.3703C184.382 40.3474 188.693 44.1537 191.628 48.8084C194.503 53.3595 195.921 58.8286 195.087 64.1911C194.655 66.9711 193.596 69.685 191.815 71.8696C193.292 68.4935 192.86 64.4519 190.724 61.4283C190.632 61.2977 190.386 61.3812 190.392 61.5395C190.471 64.0041 190.358 66.481 190.246 68.9414C190.132 71.3103 189.975 73.7095 189.563 76.0505C188.811 80.2967 186.867 84.4646 183.013 86.7123C182.815 86.8239 182.961 87.1244 183.175 87.0304C187.173 85.2326 189.239 80.9813 190.081 76.8905C191.071 72.0782 190.983 67.0954 190.805 62.2147C192.737 65.3079 192.874 69.2969 191.238 72.5628C191.172 72.6914 191.367 72.7541 191.439 72.6674C195.011 68.5068 196.345 62.9943 195.595 57.6023Z" fill="#480D00"/>
<path d="M182.704 87.7259C182.115 88.7341 181.655 89.784 181.267 90.8802C180.88 91.9764 180.687 93.1353 180.316 94.2244C179.18 93.942 177.966 93.9619 176.814 94.0358C175.871 94.0984 174.876 94.1992 173.96 94.4797C174.596 93.2668 174.966 91.9451 174.841 90.5493C174.842 90.5328 174.817 90.5394 174.817 90.5477C174.654 92.016 174.215 93.3747 173.518 94.6334C173.39 94.6832 173.27 94.7334 173.15 94.792C172.936 94.8943 172.985 95.1468 173.154 95.2409C172.996 95.4964 172.822 95.7426 172.64 95.9799C171.429 97.587 169.889 98.8983 168.389 100.229C167.021 101.443 165.676 102.701 164.606 104.193C164.085 104.915 163.634 105.699 163.297 106.525C163.02 107.204 162.883 107.902 162.728 108.614C162.14 107.828 161.601 107.045 161.274 106.084C160.876 104.928 160.778 103.767 160.999 102.56C161.077 102.133 160.406 102.097 160.329 102.516C160.115 103.623 160.14 104.888 160.436 106.063C158.773 108.238 156.255 109.759 153.534 110.079C154.355 109.468 154.919 108.591 155.419 107.694C156.116 106.443 156.652 105.108 157.034 103.72C157.797 100.954 157.806 98.0378 157.293 95.2289C157.268 95.1026 157.09 95.1491 157.108 95.2666C157.471 97.9493 157.209 100.682 156.505 103.295C156.176 104.511 155.758 105.689 155.226 106.833C154.664 108.043 154.003 109.387 152.856 110.151C152.708 110.249 152.778 110.453 152.953 110.44C155.983 110.223 158.777 108.679 160.44 106.138C160.797 107.524 161.536 108.794 162.698 109.576C162.929 109.733 163.209 109.518 163.168 109.258C162.864 107.302 164.228 105.14 165.395 103.68C166.654 102.109 168.217 100.816 169.702 99.4677C171.01 98.2823 172.465 96.8658 173.493 95.255C174.591 95.1194 175.665 94.8327 176.768 94.739C177.996 94.6369 179.202 94.7494 180.433 94.7223C180.55 94.7216 180.671 94.6382 180.671 94.5136C180.714 93.3532 181.164 92.0782 181.527 90.9721C181.881 89.882 182.301 88.8045 182.712 87.7347C182.738 87.7198 182.714 87.7099 182.704 87.7259Z" fill="#480D00"/>
<path d="M138.823 70.31C137.105 69.3994 136.249 67.3657 135.743 65.5958C135.182 63.6313 134.957 61.6141 135.141 59.5739C135.172 59.227 134.626 59.1911 134.595 59.538C134.411 61.7111 134.657 63.9043 135.429 65.9491C136.023 67.5253 136.818 69.2061 138.241 70.1803C134.897 69.3623 132.178 66.8572 130.712 63.7613C128.945 60.0474 129.002 55.7638 129.58 51.7803C129.581 51.7637 129.556 51.7538 129.547 51.7781C128.713 55.8612 128.719 60.3234 130.612 64.137C132.197 67.3237 135.147 69.9853 138.753 70.4882C138.853 70.4864 138.903 70.3485 138.823 70.31Z" fill="#480D00"/>
<path d="M157.765 93.9383C156.858 88.8934 153.598 84.5164 150.28 80.7671C146.753 76.788 142.804 73.1551 139.656 68.8436C137.918 66.4528 136.364 63.7999 135.581 60.9317C135.575 60.898 135.516 60.9108 135.53 60.9449C136.082 63.424 136.99 65.7853 138.335 67.9509C139.702 70.1595 141.339 72.1864 143.082 74.1122C146.645 78.0439 150.629 81.6542 153.717 85.9949C155.459 88.4442 156.739 91.0875 157.546 93.9821C157.578 94.1255 157.797 94.0817 157.765 93.9383Z" fill="#480D00"/>
<mask id="mask0_1882_46926" style="mask-type:alpha" maskUnits="userSpaceOnUse" x="87" y="27" width="103" height="151">
<path d="M131.359 174.566C131.359 174.566 125.535 177.71 123.591 177.283C121.707 176.86 115.854 170.44 115.854 170.44C115.854 170.44 100.345 169.122 99.057 162.344C97.7695 155.566 97.1404 148.772 95.7607 145.215C89.5104 128.395 94.3212 109.271 88.1671 92.5456C85.6701 85.9871 85.9312 22.001 147.396 27.8332C208.861 33.6654 185.502 96.3128 185.502 96.3128C185.502 96.3128 189.899 98.5141 186.622 106.546C183.345 114.577 182.692 115.431 181.057 119.387C179.419 123.403 178.533 125.974 174.391 128.989L172.883 136.479C172.883 136.479 175.036 148.274 166.681 159.019C158.258 169.88 131.359 174.566 131.359 174.566Z" fill="#E7C796"/>
</mask>
<g mask="url(#mask0_1882_46926)">
<path fill-rule="evenodd" clip-rule="evenodd" d="M107.149 106.112C106.747 113.235 102.418 115.565 96.8308 115.222C91.2491 114.881 88.1755 111.185 88.8721 105.105C89.8425 94.0002 106.652 92.7517 107.149 106.112Z" fill="white"/>
<path fill-rule="evenodd" clip-rule="evenodd" d="M90.815 85.3721C89.6906 87.0673 89.8699 89.1783 90.2822 89.9121C97.4381 87.1193 103.907 89.2531 106.986 89.6159C107.312 89.5972 107.837 89.2972 107.281 87.6639C106.227 84.4814 93.8231 84.1979 90.815 85.3721Z" fill="#734130"/>
<path fill-rule="evenodd" clip-rule="evenodd" d="M90.5274 97.1519C93.7454 95.2293 98.1023 93.9268 102.882 94.792C101.988 93.1034 99.3994 91.427 97.0518 91.7219C92.3766 92.4996 91.3321 95.0151 90.5274 97.1519Z" fill="#BF8C60"/>
<path fill-rule="evenodd" clip-rule="evenodd" d="M98.8267 100.441C101.357 100.596 103.252 103.221 103.059 106.304C102.864 109.39 100.654 111.763 98.124 111.609C95.5916 111.454 93.6975 108.828 93.8915 105.745C94.0857 102.659 96.2952 100.285 98.8267 100.441Z" fill="#240A45" stroke="#0C050D" stroke-width="0.0784519" stroke-miterlimit="22.926"/>
<path fill-rule="evenodd" clip-rule="evenodd" d="M127.836 104.69C127.342 111.807 131.346 114.647 136.93 114.989C142.514 115.331 146.027 112.038 146.1 105.921C146.528 94.7827 130.006 91.4905 127.836 104.69Z" fill="white"/>
<path fill-rule="evenodd" clip-rule="evenodd" d="M144.949 98.428C142.274 96.1684 138.578 94.406 134.086 94.4555C135.14 93.0497 137.952 92.4379 139.621 93.0559C143.791 94.4915 144.516 96.3493 144.949 98.428Z" fill="#BF8C60"/>
<path fill-rule="evenodd" clip-rule="evenodd" d="M144.285 81.3689C145.759 83.0414 145.764 85.5337 145.362 86.493C136.786 85.1174 129.498 89.2756 125.967 90.5009C125.588 90.5616 124.951 90.3509 125.433 88.3119C126.333 84.3458 140.681 80.7918 144.285 81.3689Z" fill="#734130"/>
<path fill-rule="evenodd" clip-rule="evenodd" d="M137.065 100.592C134.545 100.438 132.346 102.801 132.153 105.875C131.958 108.945 133.845 111.561 136.366 111.715C138.887 111.869 141.088 109.504 141.281 106.433C141.474 103.363 139.589 100.747 137.065 100.592Z" fill="#240A45" stroke="#0C050D" stroke-width="0.0784519" stroke-miterlimit="22.926"/>
<path fill-rule="evenodd" clip-rule="evenodd" d="M138.565 103.079C138.326 103.065 138.11 103.388 138.084 103.801C138.058 104.214 138.23 104.56 138.469 104.575C138.709 104.59 138.924 104.266 138.951 103.853C138.977 103.44 138.804 103.094 138.565 103.079Z" fill="white"/>
<path fill-rule="evenodd" clip-rule="evenodd" d="M89.4849 110.749C92.1624 112.155 106.493 110.606 106.23 111.049C103.999 113.595 105.039 115.007 100.138 116.118C96.4655 116.95 90.2497 115.562 89.4849 110.749Z" fill="#EFC791"/>
<path d="M128.379 111.109C132.245 112.635 139.403 111.876 144.16 112.491C141.895 117.523 135.898 117.518 134.365 116.58C132.991 115.739 130.115 115.661 128.379 111.109Z" fill="#EFC791"/>
<path fill-rule="evenodd" clip-rule="evenodd" d="M99.4696 102.064C99.2302 102.049 99.0146 102.372 98.9878 102.785C98.9619 103.198 99.1344 103.545 99.3736 103.56C99.6131 103.574 99.8287 103.251 99.8556 102.837C99.8811 102.425 99.7087 102.079 99.4696 102.064Z" fill="white"/>
<path fill-rule="evenodd" clip-rule="evenodd" d="M107.534 130.584C107.54 130.801 107.768 138.11 104.869 136.574C97.8421 132.848 96.451 143.178 98.3939 147.923C101.681 155.949 128.82 159.29 134.243 153.518C136.729 150.872 146.954 145.522 141.34 137.615C139.726 135.342 135.342 135.942 131.718 135.767C130.69 135.717 130.092 130.43 131.773 130.293C139.506 129.665 145.201 132.512 147.938 140.411C150.844 148.794 142.379 160.952 141.56 162.475C138.492 168.176 129.543 172.008 118.394 170.58C110.837 169.612 98.747 169.288 94.4956 163.127C89.4337 155.791 88.8675 148.208 91.6232 139.317C94.6968 129.399 103.202 129.31 107.534 130.584Z" fill="#6D4526"/>
<path fill-rule="evenodd" clip-rule="evenodd" d="M107.534 130.584C107.54 130.801 107.768 138.11 104.869 136.574C97.8421 132.848 96.451 143.178 98.3939 147.923C101.681 155.949 128.82 159.29 134.243 153.518C136.729 150.872 146.954 145.522 141.34 137.615C139.726 135.342 135.342 135.942 131.718 135.767C130.69 135.717 130.092 130.43 131.773 130.293C139.506 129.665 145.201 132.512 147.938 140.411C150.844 148.794 142.379 160.952 141.56 162.475C138.492 168.176 129.543 172.008 118.394 170.58C110.837 169.612 98.747 169.288 94.4956 163.127C89.4337 155.791 88.8675 148.208 91.6232 139.317C94.6968 129.399 103.202 129.31 107.534 130.584Z" fill="url(#paint5_linear_1882_46926)"/>
<path fill-rule="evenodd" clip-rule="evenodd" d="M109.835 157.545C111.279 156.089 113.16 155.9 111.927 153.468C111.163 151.958 111.256 151.794 117.193 152.929C119.177 153.31 121.224 152.421 123.232 152.569C124.173 153.08 121.161 154.614 122.396 157.229C123.194 158.926 109.668 157.715 109.835 157.545Z" fill="#6D4526"/>
<path fill-rule="evenodd" clip-rule="evenodd" d="M109.835 157.545C111.279 156.089 113.16 155.9 111.927 153.468C111.163 151.958 111.256 151.794 117.193 152.929C119.177 153.31 121.224 152.421 123.232 152.569C124.173 153.08 121.161 154.614 122.396 157.229C123.194 158.926 109.668 157.715 109.835 157.545Z" fill="url(#paint6_linear_1882_46926)"/>
<path fill-rule="evenodd" clip-rule="evenodd" d="M136.228 138.724C136.645 138.398 137.262 138.459 137.605 138.859C137.951 139.259 137.892 139.848 137.474 140.173C133.602 143.215 126.5 145.212 119.499 145.484C113.13 145.733 106.781 144.56 102.894 141.467C102.478 141.135 102.419 140.547 102.76 140.151C103.105 139.755 103.721 139.702 104.139 140.032C107.616 142.804 113.474 143.844 119.405 143.614C126.024 143.357 132.671 141.516 136.228 138.724Z" fill="#B68C67"/>
<path fill-rule="evenodd" clip-rule="evenodd" d="M113.494 147.84C113.545 147.656 115.876 148.655 118.152 148.761C120.283 148.859 122.372 148.058 122.373 148.181C121.779 150.005 119.783 150.873 118.016 150.768C114.879 150.584 113.49 148.798 113.494 147.84Z" fill="#B68C67"/>
<path fill-rule="evenodd" clip-rule="evenodd" d="M138.356 142.71C137.569 139.838 136.109 138.655 133.194 138.152C136.557 135.761 140.791 139.468 138.356 142.71Z" fill="#B68C67"/>
<path fill-rule="evenodd" clip-rule="evenodd" d="M106.724 139.112C103.686 139.708 102.39 141.036 101.743 143.786C99.3776 140.451 103.429 136.615 106.724 139.112Z" fill="#B68C67"/>
</g>
<path fill-rule="evenodd" clip-rule="evenodd" d="M114.403 121.137C115.544 114.863 118.604 109.366 118.421 109.586C117.958 110.14 116.772 113.995 115.265 119.099C114.58 121.422 114.059 124.878 114.096 125.803C114.156 127.307 115.018 129.288 115.284 129.718C116.124 131.074 120.178 130.576 121.532 128.891C121.734 128.64 121.991 129.148 122.09 129.232C122.189 129.315 122.181 130.059 121.763 130.124C119.926 130.409 118.571 131.141 116.998 130.93C115.565 130.738 114.844 130.511 114.184 129.012C114.158 128.96 112.64 128.245 114.403 121.137Z" fill="#B68C67"/>
<defs>
<linearGradient id="paint0_linear_1882_46926" x1="226.887" y1="486.343" x2="8.74957" y2="646.481" gradientUnits="userSpaceOnUse">
<stop stop-color="#4420C3"/>
<stop offset="0.095" stop-color="#4420C3"/>
<stop offset="0.2466" stop-color="#6341DB"/>
<stop offset="0.436" stop-color="#8E72F3"/>
<stop offset="0.6555" stop-color="#BCA9FF"/>
<stop offset="0.8978" stop-color="#D2C6FF"/>
<stop offset="1" stop-color="white"/>
</linearGradient>
<linearGradient id="paint1_linear_1882_46926" x1="218.101" y1="271.866" x2="11.5496" y2="377.893" gradientUnits="userSpaceOnUse">
<stop stop-color="#4420C3"/>
<stop offset="0.095" stop-color="#5E3DCF"/>
<stop offset="0.2466" stop-color="#8F74EF"/>
<stop offset="0.436" stop-color="#8C71ED"/>
<stop offset="0.6555" stop-color="#A891F8"/>
<stop offset="0.8978" stop-color="#BBA9FC"/>
<stop offset="1" stop-color="#D9CEFF"/>
</linearGradient>
<linearGradient id="paint2_linear_1882_46926" x1="151.871" y1="217.04" x2="-3.10336" y2="324.126" gradientUnits="userSpaceOnUse">
<stop stop-color="#4420C3"/>
<stop offset="0.095" stop-color="#4420C3"/>
<stop offset="0.2466" stop-color="#5838C9"/>
<stop offset="0.436" stop-color="#7758E3"/>
<stop offset="0.6555" stop-color="#A28EEC"/>
<stop offset="0.8978" stop-color="#C2B6EC"/>
<stop offset="1" stop-color="#D4C8FF"/>
</linearGradient>
<linearGradient id="paint3_linear_1882_46926" x1="296.354" y1="251.192" x2="72.7166" y2="356.086" gradientUnits="userSpaceOnUse">
<stop stop-color="#4420C3"/>
<stop offset="0.095" stop-color="#4420C3"/>
<stop offset="0.2466" stop-color="#7054D6"/>
<stop offset="0.436" stop-color="#947BEC"/>
<stop offset="0.6555" stop-color="#AE99F7"/>
<stop offset="0.8978" stop-color="#B4A0FB"/>
<stop offset="1" stop-color="#D2C6FF"/>
</linearGradient>
<radialGradient id="paint4_radial_1882_46926" cx="0" cy="0" r="1" gradientUnits="userSpaceOnUse" gradientTransform="translate(126.492 36.9455) rotate(3.75999) scale(65.1522)">
<stop offset="0.00141166" stop-color="#2B2B2B"/>
<stop offset="0.5125" stop-color="#3D3734"/>
<stop offset="1" stop-color="#352F2B"/>
</radialGradient>
<linearGradient id="paint5_linear_1882_46926" x1="35.3539" y1="181.758" x2="118.718" y2="172.192" gradientUnits="userSpaceOnUse">
<stop stop-color="white"/>
<stop offset="1" stop-color="white" stop-opacity="0"/>
</linearGradient>
<linearGradient id="paint6_linear_1882_46926" x1="35.3539" y1="181.758" x2="118.718" y2="172.192" gradientUnits="userSpaceOnUse">
<stop stop-color="white"/>
<stop offset="1" stop-color="white" stop-opacity="0"/>
</linearGradient>
</defs>
</svg>
