<svg width="72" height="72" viewBox="0 0 72 72" fill="none" xmlns="http://www.w3.org/2000/svg">
<mask id="mask0_1410_4370" style="mask-type:alpha" maskUnits="userSpaceOnUse" x="0" y="0" width="72" height="72">
<rect width="72" height="72" fill="#C4C4C4"/>
</mask>
<g mask="url(#mask0_1410_4370)">
<rect y="44.9875" width="57.0255" height="12.0596" rx="6.02982" transform="rotate(-52.083 0 44.9875)" fill="#0969DC"/>
<path d="M27.0615 41.4863C27.0615 37.9661 29.9152 35.1124 33.4354 35.1124H65.4407C68.9609 35.1124 71.8146 37.9661 71.8146 41.4863V49.2164C71.8146 52.7366 68.9609 55.5903 65.4407 55.5903H33.4354C29.9152 55.5903 27.0615 52.7366 27.0615 49.2164V41.4863Z" fill="#2488FF"/>
<path d="M27.0615 57.8959C27.0615 54.3757 29.9152 51.522 33.4354 51.522H65.4407C68.9609 51.522 71.8146 54.3757 71.8146 57.8959V65.626C71.8146 69.1462 68.9609 71.9999 65.4407 71.9999H33.4354C29.9152 71.9999 27.0615 69.1462 27.0615 65.626V57.8959Z" fill="#2488FF"/>
<path d="M31.1318 53.5565C31.1318 52.433 32.0426 51.5222 33.1661 51.5222H65.5782C66.7016 51.5222 67.6124 52.433 67.6124 53.5565C67.6124 54.6799 66.7016 55.5907 65.5782 55.5907H33.1661C32.0426 55.5907 31.1318 54.6799 31.1318 53.5565Z" fill="#BEA2FF"/>
<path d="M55.5426 45.4195C55.5426 46.6179 54.6015 47.5894 53.4406 47.5894C52.2797 47.5894 51.3385 46.6179 51.3385 45.4195C51.3385 44.2212 52.2797 43.2497 53.4406 43.2497C54.6015 43.2497 55.5426 44.2212 55.5426 45.4195Z" fill="#BEA2FF"/>
<path d="M55.5426 61.829C55.5426 63.0274 54.6015 63.9989 53.4406 63.9989C52.2797 63.9989 51.3385 63.0274 51.3385 61.829C51.3385 60.6306 52.2797 59.6592 53.4406 59.6592C54.6015 59.6592 55.5426 60.6306 55.5426 61.829Z" fill="#BEA2FF"/>
<path d="M63.8152 45.4195C63.8152 46.6179 62.874 47.5894 61.7131 47.5894C60.5522 47.5894 59.6111 46.6179 59.6111 45.4195C59.6111 44.2212 60.5522 43.2497 61.7131 43.2497C62.874 43.2497 63.8152 44.2212 63.8152 45.4195Z" fill="#BEA2FF"/>
<path d="M63.8152 61.829C63.8152 63.0274 62.874 63.9989 61.7131 63.9989C60.5522 63.9989 59.6111 63.0274 59.6111 61.829C59.6111 60.6306 60.5522 59.6592 61.7131 59.6592C62.874 59.6592 63.8152 60.6306 63.8152 61.829Z" fill="#BEA2FF"/>
<path d="M46.9796 30.534C44.4681 15.1331 31.1026 3.37836 14.9916 3.37836C14.0727 3.37836 13.1628 3.41659 12.2633 3.49156L46.9796 30.534Z" fill="#2488FF"/>
<path d="M11.1454 7.22137C10.2361 6.51309 10.0732 5.20181 10.7815 4.29255C11.4897 3.38328 12.801 3.22035 13.7103 3.92863L46.186 29.2258C47.0953 29.934 47.2582 31.2453 46.5499 32.1546C45.8417 33.0638 44.5304 33.2268 43.6211 32.5185L11.1454 7.22137Z" fill="#2488FF"/>
</g>
</svg>
