<svg width="489" height="452" viewBox="0 0 489 452" fill="none" xmlns="http://www.w3.org/2000/svg">
<path d="M307.337 306.381L193.606 289.388C192.882 289.388 192.64 290.082 192.64 290.716V387.484C192.64 396.75 128.017 420.807 127.384 419.599L127.293 429.831C127.293 431.733 128.893 433.031 131.096 433.423L227.894 451.141C232.331 451.141 236.678 450.145 240.692 448.485L293.121 426.421C302.568 422.436 308.514 413.925 308.514 404.598V307.739C308.545 307.075 308.092 306.381 307.337 306.381Z" fill="#19123B"/>
<path d="M181.109 283.772V380.571C181.109 390.109 174.982 398.801 165.323 402.937L129.948 418.028C127.624 419.024 128.198 421.68 130.975 422.103L228.135 439.821C232.512 439.821 236.828 438.945 240.782 437.285L279.96 420.775C289.679 416.67 295.867 407.947 295.867 398.379V301.49C295.867 301.098 295.505 300.766 295.052 300.766L181.864 283.048C181.472 283.048 181.109 283.38 181.109 283.772Z" fill="#31256C"/>
<path d="M228.166 440.455C228.136 440.455 228.075 440.455 228.045 440.455L130.884 422.738C129.224 422.496 128.017 421.47 127.866 420.142C127.715 418.965 128.409 417.908 129.707 417.365L165.082 402.273C174.409 398.289 180.446 389.747 180.446 380.541V283.743C180.446 282.958 181.11 282.354 181.925 282.354C181.955 282.354 181.985 282.354 182.045 282.354L295.203 300.042C295.988 300.072 296.622 300.676 296.622 301.43V398.319C296.622 408.129 290.223 417.184 280.293 421.349L241.114 437.86C237.07 439.58 232.603 440.455 228.166 440.455ZM181.804 283.773V380.541C181.804 390.291 175.435 399.315 165.595 403.511L130.22 418.603C129.526 418.904 129.134 419.418 129.194 419.961C129.255 420.504 129.798 421.198 131.096 421.38L228.226 439.067C232.452 439.067 236.708 438.192 240.541 436.592L279.719 420.082C289.136 416.128 295.233 407.556 295.233 398.289V301.4C295.233 301.4 295.113 301.37 294.992 301.37L181.864 283.683C181.834 283.743 181.804 283.773 181.804 283.773Z" fill="#19123B"/>
<path d="M484.152 383.952L471.474 395.784L12.0218 316.28C5.68322 315.194 1.09534 309.64 1.18589 303.181L6.04543 9.82761L21.2579 1.6479C24.065 0.16891 27.2644 -0.344213 30.3733 0.229273L476.908 80.7889C483.608 81.9963 488.468 87.8217 488.468 94.6432L488.558 373.659C488.589 377.583 486.989 381.296 484.152 383.952Z" fill="#19123C"/>
<path d="M461.243 397.323L10.9058 316.009C5.32184 315.013 1.24707 310.123 1.24707 304.449V21.3276C1.24707 13.9931 7.88743 8.43931 15.1013 9.76738L465.439 91.0816C471.023 92.0777 475.097 96.9674 475.097 102.642V385.763C475.067 393.097 468.457 398.651 461.243 397.323Z" fill="#31256C"/>
<path d="M463.326 398.199C462.601 398.199 461.847 398.139 461.092 397.988L10.7849 316.704C4.86898 315.647 0.552734 310.486 0.552734 304.449V21.3284C0.552734 17.6461 2.18265 14.1448 5.01989 11.7905C7.85714 9.40597 11.5697 8.4401 15.2219 9.10414L465.559 90.4184C471.475 91.4748 475.791 96.6362 475.791 102.673V385.794C475.791 389.476 474.161 392.977 471.324 395.332C469.03 397.203 466.223 398.199 463.326 398.199ZM461.364 396.66C464.593 397.233 467.914 396.358 470.449 394.245C472.984 392.132 474.433 389.023 474.433 385.733V102.613C474.433 97.2399 470.6 92.652 465.318 91.7163L14.9804 10.402C11.7508 9.82855 8.43062 10.7039 5.89521 12.8167C3.3598 14.9296 1.91099 18.0384 1.91099 21.3284V304.449C1.91099 309.822 5.74429 314.41 11.0264 315.346L461.364 396.66Z" fill="#19123B"/>
<path d="M422.095 368.197C421.371 368.197 420.616 368.136 419.892 368.016L323.908 351.173C316.815 349.936 311.05 342.993 311.05 335.689V237.05C311.05 233.428 312.439 230.288 314.944 228.176C317.419 226.093 320.679 225.278 324.15 225.882L420.133 242.724C427.226 243.962 432.991 250.904 432.991 258.208V356.848C432.991 360.47 431.603 363.609 429.098 365.722C427.136 367.352 424.721 368.197 422.095 368.197ZM420.103 366.657C423.152 367.201 426.019 366.476 428.192 364.665C430.396 362.824 431.603 360.047 431.603 356.848V258.208C431.603 251.538 426.351 245.199 419.862 244.082L323.878 227.24C320.83 226.697 317.962 227.421 315.789 229.232C313.586 231.073 312.378 233.85 312.378 237.05V335.689C312.378 342.36 317.63 348.698 324.12 349.815L420.103 366.657Z" fill="#483996"/>
<path d="M283.643 343.385C282.919 343.385 282.164 343.325 281.44 343.174L185.456 326.331C178.363 325.094 172.598 318.152 172.598 310.847V212.208C172.598 208.586 173.987 205.447 176.492 203.334C178.967 201.251 182.227 200.436 185.698 201.04L281.681 217.882C288.774 219.12 294.539 226.062 294.539 233.366V332.006C294.539 335.628 293.151 338.767 290.646 340.88C288.684 342.54 286.269 343.385 283.643 343.385ZM183.494 202.247C181.2 202.247 179.057 203.002 177.367 204.39C175.164 206.231 173.956 209.008 173.956 212.208V310.847C173.956 317.518 179.208 323.856 185.698 324.973L281.681 341.815C284.73 342.359 287.597 341.634 289.77 339.823C291.974 337.982 293.181 335.205 293.181 332.006V233.397C293.181 226.726 287.929 220.387 281.44 219.271L185.456 202.428C184.792 202.308 184.128 202.247 183.494 202.247Z" fill="#483996"/>
<path d="M144.709 319.57C143.985 319.57 143.23 319.509 142.506 319.389L46.5222 302.546C39.4291 301.309 33.6641 294.367 33.6641 287.062V188.423C33.6641 184.801 35.0525 181.661 37.5577 179.549C40.0328 177.466 43.2926 176.651 46.7637 177.255L142.747 194.097C149.84 195.335 155.605 202.277 155.605 209.581V308.221C155.605 311.843 154.217 314.982 151.712 317.095C149.75 318.694 147.335 319.57 144.709 319.57ZM142.717 318.03C145.765 318.574 148.633 317.849 150.806 316.038C153.009 314.197 154.217 311.42 154.217 308.221V209.551C154.217 202.88 148.965 196.542 142.475 195.425L46.492 178.583C43.4435 178.039 40.5761 178.764 38.4029 180.575C36.1995 182.416 34.9921 185.193 34.9921 188.392V287.032C34.9921 293.702 40.2441 300.041 46.7335 301.158L142.717 318.03Z" fill="#483996"/>
<path d="M421.642 228.447C420.918 228.447 420.163 228.386 419.439 228.266L323.455 211.423C316.362 210.186 310.597 203.243 310.597 195.939V97.2995C310.597 93.6775 311.986 90.5384 314.491 88.4256C316.966 86.3429 320.226 85.528 323.697 86.1316L419.68 102.974C426.773 104.212 432.538 111.154 432.538 118.458V217.098C432.538 220.72 431.15 223.859 428.645 225.972C426.683 227.602 424.268 228.447 421.642 228.447ZM419.65 226.907C422.699 227.451 425.566 226.726 427.739 224.915C429.943 223.074 431.15 220.297 431.15 217.098V118.458C431.15 111.788 425.898 105.449 419.409 104.332L323.425 87.4899C320.377 86.9466 317.509 87.671 315.336 89.482C313.133 91.3232 311.925 94.1001 311.925 97.2995V195.939C311.925 202.61 317.177 208.948 323.667 210.065L419.65 226.907Z" fill="#483996"/>
<path d="M285.666 204.904C284.941 204.904 284.187 204.843 283.462 204.692L187.479 187.85C180.386 186.612 174.621 179.67 174.621 172.366V73.7263C174.621 70.1043 176.009 66.9652 178.514 64.8523C180.989 62.7697 184.249 61.9547 187.72 62.5584L283.704 79.4008C290.797 80.6383 296.562 87.5805 296.562 94.8849V193.524C296.562 197.146 295.173 200.286 292.668 202.398C290.706 204.028 288.261 204.904 285.666 204.904ZM185.487 63.7356C183.193 63.7356 181.05 64.4901 179.359 65.8786C177.156 67.7198 175.949 70.4967 175.949 73.6961V172.336C175.949 179.006 181.201 185.345 187.69 186.462L283.673 203.304C286.722 203.847 289.589 203.123 291.763 201.312C293.966 199.471 295.173 196.694 295.173 193.494V94.8849C295.173 88.2143 289.921 81.8758 283.432 80.759L187.449 63.9167C186.785 63.7959 186.151 63.7356 185.487 63.7356Z" fill="#483996"/>
<path d="M147.637 182.024C146.912 182.024 146.158 181.963 145.433 181.812L49.4499 164.97C42.3568 163.733 36.5918 156.79 36.5918 149.486V50.8464C36.5918 47.2244 37.9802 44.0853 40.4855 41.9725C42.9605 39.8898 46.2203 39.0748 49.6914 39.6785L145.675 56.5209C152.768 57.7584 158.533 64.7006 158.533 72.005V170.645C158.533 174.267 157.145 177.406 154.639 179.518C152.677 181.179 150.263 182.024 147.637 182.024ZM47.4578 40.8557C45.1639 40.8557 43.0209 41.6103 41.3306 42.9987C39.1272 44.8399 37.9199 47.6168 37.9199 50.8162V149.486C37.9199 156.156 43.1718 162.495 49.6612 163.612L145.645 180.454C148.693 180.997 151.561 180.273 153.734 178.462C155.937 176.621 157.145 173.844 157.145 170.645V72.0352C157.145 65.3646 151.893 59.0261 145.403 57.9093L49.4198 41.0669C48.7859 40.916 48.1219 40.8557 47.4578 40.8557Z" fill="#483996"/>
</svg>
