<svg width="72" height="72" viewBox="0 0 72 72" fill="none" xmlns="http://www.w3.org/2000/svg">
<mask id="mask0_1410_4235" style="mask-type:alpha" maskUnits="userSpaceOnUse" x="0" y="0" width="72" height="72">
<rect width="72" height="72" fill="#C4C4C4"/>
</mask>
<g mask="url(#mask0_1410_4235)">
<path d="M4.5 22.2052H67.5C69.9853 22.2052 72 20.2211 72 17.7736V8.91037C72 6.46287 69.9853 4.47876 67.5 4.47876H4.5C2.01473 4.47876 0 6.46287 0 8.91037V17.7736C0 20.2211 2.01473 22.2052 4.5 22.2052ZM4.5 44.3633H67.5C69.9853 44.3633 72 42.3791 72 39.9316V31.0684C72 28.6209 69.9853 26.6368 67.5 26.6368H4.5C2.01473 26.6368 0 28.6209 0 31.0684V39.9316C0 42.3791 2.01473 44.3633 4.5 44.3633ZM4.5 66.5213H67.5C69.9853 66.5213 72 64.5372 72 62.0897V53.2265C72 50.779 69.9853 48.7949 67.5 48.7949H4.5C2.01473 48.7949 0 50.779 0 53.2265V62.0897C0 64.5372 2.01473 66.5213 4.5 66.5213Z" fill="#2488FF"/>
<mask id="mask1_1410_4235" style="mask-type:alpha" maskUnits="userSpaceOnUse" x="0" y="4" width="72" height="63">
<path d="M4.5 22.2052H67.5C69.9853 22.2052 72 20.2211 72 17.7736V8.91034C72 6.46284 69.9853 4.47873 67.5 4.47873H4.5C2.01473 4.47873 0 6.46284 0 8.91034V17.7736C0 20.2211 2.01473 22.2052 4.5 22.2052ZM4.5 44.3632H67.5C69.9853 44.3632 72 42.3791 72 39.9316V31.0684C72 28.6209 69.9853 26.6368 67.5 26.6368H4.5C2.01473 26.6368 0 28.6209 0 31.0684V39.9316C0 42.3791 2.01473 44.3632 4.5 44.3632ZM4.5 66.5213H67.5C69.9853 66.5213 72 64.5372 72 62.0897V53.2264C72 50.7789 69.9853 48.7948 67.5 48.7948H4.5C2.01473 48.7948 0 50.7789 0 53.2264V62.0897C0 64.5372 2.01473 66.5213 4.5 66.5213Z" fill="#0969DC"/>
</mask>
<g mask="url(#mask1_1410_4235)">
<path d="M2.96826 20.6733H65.9683C68.4535 20.6733 70.4683 18.6891 70.4683 16.2416V7.37842C70.4683 4.93092 68.4535 2.94681 65.9683 2.94681H2.96826C0.482994 2.94681 -1.53174 4.93092 -1.53174 7.37842V16.2416C-1.53174 18.6891 0.482994 20.6733 2.96826 20.6733ZM2.96826 42.8313H65.9683C68.4535 42.8313 70.4683 40.8472 70.4683 38.3997V29.5365C70.4683 27.089 68.4535 25.1049 65.9683 25.1049H2.96826C0.482994 25.1049 -1.53174 27.089 -1.53174 29.5365V38.3997C-1.53174 40.8472 0.482994 42.8313 2.96826 42.8313ZM2.96826 64.9894H65.9683C68.4535 64.9894 70.4683 63.0052 70.4683 60.5577V51.6945C70.4683 49.247 68.4535 47.2629 65.9683 47.2629H2.96826C0.482994 47.2629 -1.53174 49.247 -1.53174 51.6945V60.5577C-1.53174 63.0052 0.482994 64.9894 2.96826 64.9894Z" fill="#0969DC"/>
</g>
<path d="M7.65967 32.0532H14.5533V38.9468H7.65967V32.0532Z" fill="#0969DC"/>
<path d="M17.6171 32.0532H24.5107V38.9468H17.6171V32.0532Z" fill="#0969DC"/>
<path d="M7.65967 32.0532H14.5533V38.9468H7.65967V32.0532Z" stroke="white" stroke-width="2"/>
<path d="M17.6171 32.0532H24.5107V38.9468H17.6171V32.0532Z" stroke="white" stroke-width="2"/>
<path d="M29.8726 34.3511H63.714V35.883H29.8726V34.3511Z" fill="white"/>
<path d="M7.65967 9.84045H14.5533V16.7341H7.65967V9.84045Z" fill="#0969DC"/>
<path d="M17.6171 9.84045H24.5107V16.7341H17.6171V9.84045Z" fill="#0969DC"/>
<path d="M7.65967 9.84045H14.5533V16.7341H7.65967V9.84045Z" stroke="white" stroke-width="2"/>
<path d="M17.6171 9.84045H24.5107V16.7341H17.6171V9.84045Z" stroke="white" stroke-width="2"/>
<path d="M29.8726 12.1383H63.714V13.6703H29.8726V12.1383Z" fill="white"/>
<path d="M7.65967 54.266H14.5533V61.1596H7.65967V54.266Z" fill="#0969DC"/>
<path d="M17.6171 54.266H24.5107V61.1596H17.6171V54.266Z" fill="#0969DC"/>
<path d="M7.65967 54.266H14.5533V61.1596H7.65967V54.266Z" stroke="white" stroke-width="2"/>
<path d="M17.6171 54.266H24.5107V61.1596H17.6171V54.266Z" stroke="white" stroke-width="2"/>
<path d="M29.8726 56.5639H63.714V58.0958H29.8726V56.5639Z" fill="white"/>
</g>
</svg>
