<svg width="72" height="72" viewBox="0 0 72 72" fill="none" xmlns="http://www.w3.org/2000/svg">
<mask id="mask0_1299_5817" style="mask-type:alpha" maskUnits="userSpaceOnUse" x="0" y="0" width="73" height="72">
<rect x="0.000488281" width="72" height="72" fill="#C4C4C4"/>
</mask>
<g mask="url(#mask0_1299_5817)">
<path d="M23.7281 39.2735C24.9605 39.2735 25.9595 38.2745 25.9595 37.0421C25.9595 35.8097 24.9605 34.8106 23.7281 34.8106C22.4956 34.8106 21.4966 35.8097 21.4966 37.0421C21.4966 38.2745 22.4956 39.2735 23.7281 39.2735Z" fill="#0969DC"/>
<path d="M31.9102 39.2736C33.1426 39.2736 34.1416 38.2745 34.1416 37.0421C34.1416 35.8097 33.1426 34.8106 31.9102 34.8106C30.6778 34.8106 29.6787 35.8097 29.6787 37.0421C29.6787 38.2745 30.6778 39.2736 31.9102 39.2736Z" fill="#0969DC"/>
<path d="M40.0923 39.2736C41.3247 39.2736 42.3238 38.2745 42.3238 37.0421C42.3238 35.8097 41.3247 34.8106 40.0923 34.8106C38.8599 34.8106 37.8608 35.8097 37.8608 37.0421C37.8608 38.2745 38.8599 39.2736 40.0923 39.2736Z" fill="#0969DC"/>
<path fill-rule="evenodd" clip-rule="evenodd" d="M10.0915 23.0334C10.0915 22.9649 10.147 22.9094 10.2155 22.9094H53.6051C53.6736 22.9094 53.7291 22.9649 53.7291 23.0334V50.5548C53.7291 50.6233 53.6736 50.6788 53.6051 50.6788H18.0256L10.2899 56.4806C10.2081 56.5419 10.0915 56.4836 10.0915 56.3814V23.0334ZM12.7445 59.7534C12.7445 59.7534 12.7445 59.7534 12.7445 59.7534C9.96571 61.8375 6.00049 59.8547 6.00049 56.3814V23.0334C6.00049 20.7055 7.8876 18.8184 10.2155 18.8184H53.6051C55.933 18.8184 57.8201 20.7055 57.8201 23.0334V50.5548C57.8201 52.8827 55.933 54.7698 53.6051 54.7698H19.3893L12.7445 59.7534Z" fill="#2488FF"/>
<path fill-rule="evenodd" clip-rule="evenodd" d="M61.9096 47.9496V16.091H14.1826C14.2482 13.8205 16.1094 12 18.3958 12H61.7855C64.1133 12 66.0005 13.8871 66.0005 16.215V43.7364C66.0005 46.0228 64.18 47.884 61.9096 47.9496Z" fill="#0969DC"/>
</g>
</svg>
