<svg width="329" height="415" viewBox="0 0 329 415" fill="none" xmlns="http://www.w3.org/2000/svg">
<ellipse cx="163.209" cy="20.5262" rx="12.0153" ry="3.50447" fill="white"/>
<path d="M175.224 25.032C167.359 29.1829 155.927 26.7615 151.193 25.032V29.749C161.243 33.8999 171.401 31.4785 175.224 29.749V25.032Z" fill="white"/>
<path d="M175.224 33.0421C167.359 37.7861 155.927 35.0188 151.193 33.0421V38.433C161.243 43.1769 171.401 40.4096 175.224 38.433V33.0421Z" fill="white"/>
<circle cx="163.208" cy="30.0383" r="28.5383" stroke="white" stroke-width="3"/>
<path d="M179.196 381.62C179.196 381.62 181.72 386.333 183.54 387.154C187.329 388.857 198.252 392.119 199.27 392.492C199.937 392.73 201.057 393.561 201.024 394.788C201.054 395.224 200.934 395.657 200.683 396.015C199.606 397.578 197.356 398.162 195.308 398.656C189.709 400.005 173.34 396.421 172.827 396.024C172.827 396.024 171.152 395.665 170.746 396.491C170.596 396.79 170.685 397.942 170.652 397.956L164.745 396.01C164.451 395.866 163.849 393.033 163.695 391.783L163.929 383.645L179.196 381.62Z" fill="#4C2925"/>
<path d="M200.712 395.339C199.313 397.116 197.189 397.774 195.113 398.19C188.38 399.552 172.632 395.731 172.632 395.731C171.283 395.553 170.723 396.029 170.635 396.832V397.952C170.695 397.952 172.501 396.715 172.501 396.71C172.501 396.706 187.293 400.49 193.923 399.767C196.009 399.524 199.523 398.278 200.764 396.351C200.919 396.091 201.018 395.802 201.055 395.501C201.091 395.2 201.063 394.895 200.974 394.606C200.9 394.855 200.813 395.1 200.712 395.339Z" fill="#261412"/>
<path d="M190.271 227.937L191.624 225.728L190.908 223.568C190.766 223.139 190.693 222.691 190.692 222.24C190.692 222.24 191.09 220.552 190.731 218.975C190.574 218.285 190.887 217.6 190.997 217.092C191.121 216.525 191.17 215.945 191.145 215.365L191.077 213.79C191.063 213.465 191.342 213.204 191.665 213.241C192.334 213.315 192.913 213.738 193.187 214.352C193.601 215.274 193.836 216.265 193.884 217.275L193.905 217.72C193.925 218.162 194.272 218.519 194.714 218.551L196.562 215.463C197.979 212.528 200.932 212.95 199.56 215.821C199.526 215.894 199.563 215.981 199.64 216.007C199.696 216.025 199.758 216.006 199.791 215.959C201.75 213.24 203.041 215.959 202.203 217.403C202.169 217.456 202.177 217.527 202.223 217.571L202.307 217.653C205.873 214.352 204.306 219.278 204.084 219.782C204.054 219.825 204.052 219.881 204.078 219.926L204.152 220.053C207.942 217.275 205.993 221.808 205.182 222.502L200.408 229.029C200.055 229.435 199.601 229.74 199.09 229.909L198.484 230.111L197.156 232.181C196.866 232.763 196.186 233.034 195.577 232.811C193.931 232.21 192.92 230.869 191.624 229.69L190.692 228.822C190.235 228.407 189.948 228.459 190.271 227.937Z" fill="url(#paint0_linear_2137_17049)"/>
<path d="M193.248 227.795C192.021 226.96 191.625 225.728 191.625 225.728L190.928 226.866C191.426 226.753 192.571 227.466 193.248 227.795Z" fill="#F9B489"/>
<path d="M196.354 229.737C196.939 230.163 198.164 230.413 198.021 230.828L198.483 230.108C198.483 230.108 197.668 230.312 196.354 229.737Z" fill="#F9B489"/>
<path d="M197.673 224.709C197.644 225.254 199.565 222.257 198.053 219.807C197.556 219.003 195.959 217.625 195.891 216.584L194.714 218.551C194.551 218.539 194.401 218.482 194.275 218.393C194.897 218.684 197.875 220.908 197.673 224.709Z" fill="#F9B489"/>
<path d="M205.231 222.44C205.393 222.249 205.649 221.942 205.959 221.563C204.657 222.517 204.235 220.312 204.429 219.756L204.148 220.051L204.075 219.924C204.048 219.879 204.05 219.823 204.08 219.78C204.147 219.683 204.281 219.49 204.462 219.227C203.451 219.949 202.262 218.226 202.651 217.198L202.303 217.652L202.219 217.57C202.173 217.526 202.165 217.455 202.199 217.402L202.442 217.018C202.442 217.018 202.12 217.274 201.669 217.214C200.992 217.124 199.995 216.573 200.035 215.62L199.789 215.957C199.754 216.005 199.693 216.025 199.638 216.006C199.56 215.98 199.522 215.893 199.558 215.819L199.749 215.417C199.203 216.012 197.296 215.207 197.082 214.568L196.896 214.885C198.378 215.458 200.616 216.59 202.044 217.98C204.167 220.044 205.227 222.434 205.231 222.44Z" fill="#F9B489"/>
<path d="M160.615 230.151L146.785 216.152C146.785 216.152 142.384 210.24 144.918 201.627C146.785 195.323 159.826 199.219 163.387 204.426C165.197 207.072 174.193 220.641 174.193 220.641C174.193 220.641 170.806 216.768 163.135 223.371C158.786 227.104 160.615 230.151 160.615 230.151Z" fill="#EA7424"/>
<path d="M180.725 235.806C177.714 230.18 175.593 221.108 172.093 217.608L156.229 225.774C159.65 230.906 167.847 242.665 173.26 248.638C178.672 254.61 183.914 251.748 185.858 249.571L197.057 233.939C196.31 229.833 191.302 227.407 188.891 226.707L180.725 235.806Z" fill="#EA7424"/>
<path d="M155.443 252.342L138.542 255.081V264.46C138.542 264.46 138.286 267.26 142.331 266.793C146.377 266.326 151.771 265.197 153.637 264.46C155.504 263.723 155.443 261.105 155.443 261.105V252.342Z" fill="#414042"/>
<path d="M87.9697 168.847L93.1911 165.814C94.2689 179.024 98.7904 193.055 105.696 205.994L100.475 209.027C93.583 196.088 89.0476 182.057 87.9697 168.847Z" fill="#BCBEC0"/>
<path d="M89.7894 166.86L95.0108 163.827C95.0108 164.708 94.6982 165.329 94.1942 165.618L88.9775 168.651C89.4768 168.362 89.7894 167.718 89.7894 166.86Z" fill="#6F7071"/>
<path d="M80.7549 153.393L85.9762 150.36C86.4848 150.062 87.1894 150.104 87.9686 150.552L82.7473 153.589C81.9681 153.123 81.2635 153.095 80.7549 153.393Z" fill="#BCBEC0"/>
<path d="M89.8058 160.887L95.0271 157.854L95.0085 163.826L89.7871 166.859L89.8058 160.887Z" fill="#6F7071"/>
<path d="M88.0068 156.833L93.2282 153.8C94.3077 154.883 94.9491 156.327 95.0293 157.854L89.8079 160.887C89.7269 159.36 89.0856 157.917 88.0068 156.833Z" fill="#6F7071"/>
<path d="M100.709 131.197L105.93 128.164C98.9915 133.114 94.386 141.873 93.2428 153.799L88.0215 156.832C89.1647 144.906 93.7654 136.147 100.709 131.197Z" fill="#BCBEC0"/>
<path d="M94.2871 133.553L99.5085 130.52C101.494 129.38 103.661 128.59 105.915 128.187L100.703 131.197C98.4498 131.603 96.2829 132.392 94.2964 133.53L94.2871 133.553Z" fill="#BCBEC0"/>
<path d="M89.7897 166.86C89.7897 168.236 89.0291 168.973 87.9699 168.824C89.0478 182.034 93.5692 196.065 100.475 209.004C90.9702 196.223 84.3117 180.583 82.7719 166.039C81.9438 165.51 81.2533 164.793 80.7575 163.945C80.2617 163.097 79.975 162.143 79.9209 161.162V155.19C79.9209 153.412 81.1901 152.694 82.7206 153.589C84.3957 140.898 91.1195 132.984 100.666 131.192C93.7232 136.143 89.1224 144.901 87.9792 156.828C89.058 157.912 89.6993 159.355 89.7803 160.882L89.7897 166.86Z" fill="#A5A6A8"/>
<path d="M90.8438 159.613L94.2127 157.654L222.735 231.98L219.362 233.939L90.8438 159.613Z" fill="#C49A6C"/>
<path d="M219.36 233.939L222.734 231.979C223.446 232.442 224.039 233.066 224.463 233.802C224.887 234.538 225.131 235.363 225.174 236.211C225.204 236.513 225.153 236.817 225.028 237.093C224.903 237.369 224.707 237.607 224.46 237.784L221.087 239.744C221.334 239.567 221.531 239.328 221.656 239.051C221.782 238.774 221.832 238.469 221.801 238.166C221.756 237.319 221.512 236.495 221.088 235.76C220.663 235.025 220.072 234.401 219.36 233.939Z" fill="#C49A6C"/>
<path d="M219.36 233.939L90.8418 159.613V165.254L219.346 239.571C220.699 240.355 221.8 239.72 221.8 238.171C221.756 237.323 221.512 236.498 221.088 235.762C220.664 235.027 220.072 234.402 219.36 233.939Z" fill="#AC875F"/>
<path d="M139.691 287.096C144.04 281.148 161.934 276.252 162.243 276.658C168.754 285.686 172.913 292.542 177.238 301.618C179.163 305.631 180.494 309.859 181.801 314.087C183.274 318.816 187.338 326.125 188.193 330.974C188.811 334.509 188.182 336.031 185.858 347.092C182.48 359.14 182.144 366.509 180.185 367.495C179.71 367.758 172.367 371.532 168.659 370.099C164.406 368.45 162.338 366.755 160.152 362.288C156.682 355.266 160.722 346.189 161.34 338.45C161.483 336.611 163.859 335.034 163.978 334.533C162.504 334.342 160.271 334.055 159.463 332.67C158.583 331.141 159.843 330.186 158.179 329.063C156.777 328.107 154.092 326.77 152.809 325.671C146.915 320.679 142.329 315.042 139.667 308.02C137.291 301.69 135.319 293.067 139.691 287.096Z" fill="#EA7424"/>
<path d="M157.63 354.323C159.496 359.176 162.763 376.098 164.162 383.953C169.917 386.286 181.147 389.319 180.027 382.786C178.907 376.254 182.671 359.533 184.693 351.99C177.974 357.029 163.851 355.645 157.63 354.323Z" fill="#4C2925"/>
<path d="M178.943 305.564C167.134 302.724 161.815 309.805 150.396 310.696V315.362C162.672 313.821 168.742 306.671 180.492 310.23L178.943 305.564Z" fill="#FFA93A"/>
<path d="M181.424 313.263C168.791 310.477 162.845 317.377 150.628 318.252V322.828C163.761 321.316 170.487 314.205 183.057 317.695L181.424 313.263Z" fill="#FFA93A"/>
<path d="M128.75 353.473C126.121 350.547 128.558 348.284 130.423 347.286C129.162 344.845 128.749 343.384 127.449 339.563C125.722 334.469 127.174 329.908 128.046 324.743C125.811 317.693 121.928 311.54 121.778 304.105C121.684 299.986 119.315 288.27 120.942 278.003C121.598 273.794 145.308 270.265 146.195 272.901C147.565 276.896 151.02 284.672 152.009 289.232C153.268 295.021 152.331 299.02 151.095 304.864C150.725 306.628 151.81 327.098 152.009 330.646C152.307 336.119 153.388 347.869 149.974 351.526C151.072 352.33 152.114 353.326 152.112 354.573C152.117 355.866 151.245 356.136 150.684 357.052C149.329 359.313 150.792 362.947 150.984 365.757C151.289 369.867 151.729 374.646 148.762 375.788C149.022 379.605 139.37 389.521 128.954 379.324C123.929 374.729 127.909 356.325 128.75 353.473Z" fill="#F48337"/>
<path d="M136.316 398.88C136.316 398.88 135.126 401.568 136.736 405.641C136.736 405.641 138.677 407.153 138.985 407.461C140.795 409.271 147.328 414.74 152.727 414.983C158.62 415.258 161.545 412.234 160.892 409.383C160.575 407.914 150.627 394.83 150.627 394.83L136.316 398.88Z" fill="#4C2925"/>
<path d="M134.763 395.618L127.297 375.321C138.309 378.681 147.905 372.521 151.327 369.022C151.405 375.788 149.461 389.553 149.461 391.652C149.461 393.49 150.316 394.452 150.627 394.919C146.506 396.396 137.594 399.839 136.162 398.885C134.763 397.951 134.763 397.018 134.763 395.618Z" fill="#4C2925"/>
<path d="M111.129 225.512C109.538 215.401 112.921 208.439 119.785 206.134C121.395 205.593 125.893 202.966 131.683 201.613C139.938 199.686 149.625 199.555 149.625 199.555C154.012 203.76 157.332 208.953 159.307 214.701C162.613 219.753 169.261 234.329 162.55 276.097C162.391 280.833 153.894 282.233 142.863 281.846C133.76 281.552 122.225 280.171 121.866 277.11C120.695 267.302 113.327 239.487 111.129 225.512Z" fill="#F48337"/>
<path d="M134.66 189.668C132.091 189.664 127.521 189.783 127.082 192.832C126.614 195.877 130.118 199.798 130.118 199.798C130.118 199.798 134.532 192.897 134.66 189.668Z" fill="#E5650E"/>
<path d="M144.893 194.749C144.893 194.749 146.637 197.24 147.15 199.427C147.704 201.826 146.969 203.961 146.544 204.994C144.845 209.1 140.852 210.162 140.852 210.162C140.852 210.162 141.9 208.77 142.09 206.52C142.236 205.005 141.519 202.657 141.679 201.683C142.133 198.604 140.482 194.768 140.482 194.768L144.893 194.749Z" fill="#E5650E"/>
<path d="M139.115 200.848C139.115 200.848 140.643 200.909 141.141 200.761C141.624 200.616 141.978 199.457 141.978 199.457C141.978 199.457 147.088 198.869 147.326 196.984C147.565 195.098 147.632 193.218 147.939 192.218C149.323 187.491 147.803 182.302 149.164 177.603C149.719 175.759 148.744 158.15 132.873 160.707C117.001 163.264 123.953 180.146 123.953 180.146C123.953 180.146 122.842 180.82 123.807 182.98C124.771 185.14 124.953 185.365 125.433 186.429C125.915 187.509 126.182 188.203 127.3 188.969L127.797 191.007C127.797 191.007 128.315 193.588 129.727 197.115C132.067 199.975 139.115 200.848 139.115 200.848Z" fill="#E7C796"/>
<path d="M147.829 168.823C147.829 168.823 143.776 166.303 138.086 165.021C132.396 163.739 133.99 170.305 132.412 171.801C131.213 172.934 131.613 175.896 131.877 177.252C131.96 177.705 131.906 178.193 131.703 178.6L130.371 181.306C130.218 181.608 130.148 181.948 130.171 182.293L130.688 187.932C130.708 188.377 130.424 188.761 130.012 188.848L129.645 188.912C129.233 188.999 128.828 188.736 128.701 188.306L127.552 181.92C127.552 181.92 125.867 178.645 123.298 180.353C123.298 180.353 121.187 177.994 121.155 172.368C121.123 166.742 122.822 160.676 132.964 158.416C143.109 156.172 147.829 168.823 147.829 168.823Z" fill="#551400"/>
<path d="M128.81 188.579C130.168 200.499 142.425 199.662 142.425 199.662C142.425 199.662 141.88 202.569 141.017 203.005C140.92 203.04 140.799 203.083 140.661 203.132C139.063 203.699 137.488 204.369 135.833 204.722C134.011 205.111 131.609 205.216 130.279 203.607C128.798 193.907 127.794 191.378 127.794 191.378L127.408 189.186C128.879 189.492 128.81 188.579 128.81 188.579Z" fill="#CBA57B"/>
<path d="M126.312 200.566C126.549 200.062 126.846 197.175 127.268 194.602C130.229 199.176 134.326 200.458 137.583 202.822C140.267 204.776 143.672 208.79 143.339 211.898C139.467 211.262 134.948 208.917 131.16 206.692C128.057 204.872 125.808 201.612 126.312 200.566Z" fill="#E5650E"/>
<path d="M128.575 187.521L128.25 184.667L128.096 183.315C128.012 183.082 127.733 182.268 127.137 181.839C125.258 180.482 124.984 182.499 125.308 183.448C125.709 183.945 126.038 186.072 126.152 187.073C126.579 188.298 127.945 187.882 128.575 187.521Z" fill="#CBA57B"/>
<path d="M120.437 168.482C121.042 166.64 122.384 165.16 123.892 164.043L123.937 163.959L123.895 163.932C123.143 164.002 122.379 164.106 121.689 164.433C120.999 164.759 121.304 165.192 121.087 165.959C121.208 164.548 121.474 163.616 122.744 163.168C124.013 162.72 125.379 162.761 126.712 162.666C126.712 162.666 126.733 162.604 126.768 162.512C126.413 162.498 126.049 162.35 125.703 162.231C124.914 161.963 124.079 161.85 123.251 161.905C123.974 161.79 124.537 161.183 125.226 160.921C125.963 160.641 126.832 160.8 127.437 161.327C127.329 160.206 127.863 159.04 128.765 158.44C128.152 159.18 127.973 160.293 128.311 161.206C128.386 160.642 128.676 160.118 129.05 159.701C129.475 159.225 130.003 158.869 130.528 158.517C131.415 157.921 132.303 157.324 133.19 156.728C132.825 157.176 132.455 157.629 132.211 158.161C131.971 158.684 131.868 159.301 132.041 159.852C132.535 158.639 133.48 157.632 134.634 157.128C135.656 156.682 136.821 156.611 137.771 156.014C138.553 155.523 139.135 154.683 139.343 153.742C139.474 154.766 139.266 155.836 138.768 156.722C138.809 156.701 138.85 156.682 138.894 156.662C143.251 154.294 150.017 158.494 146.778 159.578L146.32 159.548C148.242 159.966 148.535 161.293 149.783 162.926C151.442 165.094 150.11 166.227 150.483 168.992C149.798 167.684 152.385 168.152 151.143 167.441L151.155 167.474C151.6 168.369 151.709 169.421 151.627 170.431C151.546 171.441 151.285 172.423 151.025 173.401C150.865 174.002 150.699 174.62 150.348 175.121C150.33 174.262 150.161 173.407 149.856 172.611C149.71 173.774 149.403 174.926 149.048 176.04C149.06 175.447 148.992 174.85 148.853 174.277L148.909 174.769C148.579 175.565 148.383 176.424 148.341 177.293C148.168 176.721 147.993 176.138 147.989 175.535C147.989 175.229 148.032 174.924 148.076 174.622C148.144 174.155 148.211 173.688 148.279 173.221C148.279 173.221 148.299 173.052 148.333 172.838C148.209 172.59 148.071 172.35 147.919 172.121C146.683 170.26 144.608 169.18 143.33 167.359C143.463 168.548 143.217 169.8 142.75 170.906C142.1 172.443 141.059 173.755 140.026 175.036C140.444 173.478 139.908 171.805 139.143 170.405C138.378 169.006 137.379 167.747 136.744 166.275L137.143 167.239C137.374 168.275 137.435 169.386 137.107 170.393C136.779 171.4 136.002 172.286 135.02 172.504C135.317 172.327 135.5 171.997 135.63 171.662C135.898 170.969 135.984 170.2 135.88 169.461L135.719 169.853C135.08 173.49 131.023 175.633 130.45 179.283L130.588 179.634C130.463 180.845 130.742 182.096 131.363 183.118C131.504 183.353 131.674 183.582 131.909 183.705C131.113 183.71 130.325 183.29 129.854 182.607L129.858 182.565L129.852 182.568L129.854 182.609L129.827 182.581L129.813 182.587C129.74 182.965 129.568 183.321 129.313 183.596C129.264 182.895 128.852 182.279 128.372 181.793C127.891 181.31 127.332 180.92 126.855 180.431C126.671 180.243 126.499 180.033 126.354 179.806C125.759 179.671 125.137 179.662 124.538 179.786C124.39 179.149 124.159 178.532 123.859 177.958L123.812 177.661L123.748 177.729C123.04 177.404 122.508 176.734 122.185 175.991C121.861 175.248 121.725 174.43 121.628 173.616C121.52 172.706 121.459 171.791 121.441 170.875C120.891 171.777 120.875 173.013 121.403 173.928C120.091 172.558 119.83 170.322 120.437 168.482Z" fill="#734130"/>
<path d="M128.198 158.934C128.362 158.743 128.552 158.575 128.757 158.436C128.145 159.176 127.965 160.288 128.304 161.202C128.379 160.638 128.669 160.114 129.042 159.697C129.054 159.684 129.066 159.674 129.077 159.661C128.645 160.691 128.44 161.829 128.242 162.944C127.502 161.769 127.509 160.136 128.198 158.934ZM132.206 158.156C131.966 158.68 131.863 159.297 132.036 159.848C132.263 159.286 132.589 158.772 132.984 158.329C132.791 158.755 132.626 159.193 132.434 159.619C131.935 160.733 131.269 161.766 130.472 162.664C130.436 161.642 130.405 160.584 130.754 159.629C131.195 158.426 132.173 157.557 133.135 156.758C133.151 156.747 133.167 156.735 133.185 156.724C132.819 157.17 132.45 157.625 132.206 158.156ZM126.44 162.683C126.529 162.678 126.617 162.671 126.707 162.664C126.707 162.664 126.728 162.602 126.763 162.51C126.408 162.496 126.044 162.348 125.698 162.229C125.111 162.029 124.498 161.915 123.881 161.894C124.045 161.826 124.209 161.757 124.373 161.69C124.619 161.586 124.87 161.482 125.133 161.441C126.093 161.291 126.966 161.984 127.714 162.637C127.29 162.713 126.865 162.717 126.44 162.683ZM138.886 156.658C138.938 156.636 138.99 156.615 139.042 156.592C137.891 157.506 137.024 158.839 136.211 160.123C135.848 159.15 136.103 157.954 136.822 157.235C137.233 156.825 137.763 156.574 138.197 156.193C138.842 155.626 139.248 154.767 139.302 153.883C139.314 153.835 139.328 153.785 139.337 153.738C139.469 154.762 139.261 155.832 138.763 156.718C138.802 156.697 138.845 156.678 138.886 156.658ZM146.313 159.544C148.192 159.954 148.304 160.881 149.548 162.46C148.479 161.5 148.868 161.024 147.543 160.545C145.149 159.679 142.475 159.706 140.093 160.618C140.758 159.406 141.482 158.133 142.657 157.488C143.68 156.925 144.919 156.932 146.025 157.279C147.215 157.56 147.682 158.727 146.313 159.544ZM120.699 170.632C120.752 170.464 120.816 170.302 120.884 170.141C121.236 168.709 122.121 167.448 123.245 166.563C124.453 165.612 125.916 165.076 127.403 164.849C126.916 165.276 126.535 165.839 126.306 166.465C126.914 165.891 127.747 165.594 128.556 165.664C129.442 165.74 130.259 166.228 131.145 166.322C132.431 166.459 133.753 165.655 134.309 164.42C134.488 163.738 134.421 162.943 133.973 162.421C134.246 162.475 134.517 162.544 134.786 162.622L134.814 162.505C134.835 162.553 134.855 162.599 134.872 162.648C137.524 163.438 139.876 165.288 141.415 167.711C141.345 167.282 141.24 166.861 141.096 166.454C140.462 164.657 139.101 163.257 137.641 162.122C139.51 162.082 141.386 162.799 142.801 164.091C144.018 165.204 144.878 166.697 146.039 167.875C146.616 168.461 147.264 168.964 147.839 169.55C148.352 170.073 148.808 170.661 149.193 171.297C149.146 171.054 149.095 170.814 149.035 170.574C148.321 167.721 146.567 165.283 144.609 163.189C148.59 163.657 148.627 163.168 150.338 167.003C150.168 166.707 149.979 166.425 149.773 166.155C149.77 166.153 149.77 166.151 149.768 166.149C149.719 166.084 149.669 166.021 149.616 165.959C149.613 165.955 149.611 165.951 149.606 165.947C149.555 165.884 149.503 165.824 149.45 165.764C149.448 165.76 149.443 165.756 149.44 165.752C149.388 165.692 149.333 165.632 149.279 165.575C149.277 165.573 149.274 165.568 149.269 165.567C149.213 165.507 149.156 165.448 149.099 165.391C149.099 165.391 149.099 165.388 149.097 165.389C148.98 165.273 148.86 165.159 148.735 165.051C148.733 165.049 148.728 165.045 148.726 165.043C148.668 164.993 148.608 164.941 148.548 164.894C148.541 164.888 148.536 164.884 148.529 164.878C148.471 164.83 148.412 164.785 151.98 168.004C151.97 167.998 151.963 167.99 151.953 167.984C151.894 167.939 151.835 167.896 151.776 167.853C151.766 167.848 151.757 167.84 151.75 167.834C151.69 167.791 151.629 167.748 151.568 167.708C151.559 167.702 151.551 167.696 151.542 167.692C151.479 167.65 151.416 167.61 151.353 167.57C151.348 167.566 151.341 167.562 151.336 167.558C151.268 167.516 151.201 167.477 151.133 167.437L151.146 167.47C151.591 168.365 151.7 169.417 151.617 170.427C151.537 171.437 151.275 172.419 151.015 173.397C150.856 173.998 150.689 174.616 150.338 175.117C150.321 174.259 150.152 173.403 149.846 172.607C149.701 173.77 149.393 174.922 149.038 176.037C149.051 175.443 148.983 174.847 148.844 174.273L148.9 174.765C148.569 175.561 148.374 176.42 148.332 177.289C148.158 176.717 147.983 176.134 147.98 175.532C147.979 175.226 148.023 174.921 148.067 174.618C148.135 174.151 148.201 173.684 148.27 173.217C148.27 173.217 148.29 173.049 148.324 172.835C148.2 172.586 148.062 172.346 147.91 172.117C146.673 170.256 144.598 169.176 143.32 167.355C143.453 168.544 143.207 169.797 142.741 170.902C142.091 172.44 141.05 173.751 140.017 175.032C140.434 173.474 139.899 171.801 139.133 170.401C138.368 169.002 137.369 167.743 136.735 166.271L137.133 167.235C137.364 168.271 137.426 169.382 137.097 170.389C136.769 171.397 135.993 172.283 135.01 172.5C135.307 172.323 135.491 171.993 135.62 171.659C135.888 170.965 135.975 170.197 135.871 169.457L135.709 169.849C135.07 173.487 131.013 175.63 130.441 179.279L130.578 179.63C130.454 180.841 130.733 182.092 131.353 183.114C131.495 183.349 131.664 183.578 131.9 183.702C131.103 183.706 130.315 183.286 129.844 182.603L129.848 182.561L129.842 182.564L129.845 182.605L129.818 182.577L129.803 182.583C129.731 182.961 129.559 183.317 129.303 183.592C129.254 182.892 128.843 182.275 128.362 181.789C127.881 181.306 127.322 180.916 126.846 180.428C126.661 180.24 126.49 180.029 126.344 179.802C125.749 179.667 125.127 179.658 124.529 179.782C124.381 179.145 124.15 178.528 123.85 177.955L123.803 177.657L123.739 177.725C123.031 177.4 122.499 176.73 122.175 175.987C121.852 175.244 121.715 174.426 121.618 173.612C121.51 172.703 121.449 171.787 121.432 170.871C120.881 171.774 120.866 173.01 121.393 173.924C121.356 173.885 121.321 173.848 121.287 173.809C121.277 173.799 121.267 173.786 121.257 173.776C121.229 173.745 121.204 173.712 121.176 173.681C121.169 173.67 121.161 173.662 121.154 173.651C121.123 173.612 121.092 173.572 121.062 173.532C121.052 173.52 121.041 173.505 121.033 173.492C121.013 173.463 120.992 173.435 120.974 173.405C120.963 173.388 120.953 173.374 120.94 173.357C120.916 173.321 120.892 173.282 120.869 173.246C120.855 173.225 120.844 173.204 120.831 173.184C120.815 173.159 120.802 173.135 120.788 173.11C120.774 173.086 120.761 173.065 120.75 173.041C120.739 173.019 120.728 173 120.716 172.978C120.692 172.931 120.667 172.884 120.644 172.836C120.638 172.821 120.63 172.808 120.624 172.795C120.61 172.764 120.595 172.734 120.583 172.703C120.577 172.69 120.571 172.677 120.566 172.664C120.521 172.562 120.479 172.457 120.441 172.349C120.438 172.34 120.435 172.333 120.431 172.325C120.418 172.287 120.406 172.252 120.395 172.214C120.448 171.673 120.536 171.144 120.699 170.632ZM121.351 167.396C120.962 167.907 120.618 168.455 120.284 169.01C120.325 168.832 120.374 168.655 120.432 168.482C121.037 166.64 122.38 165.16 123.887 164.043L123.932 163.959L123.89 163.933C123.138 164.003 122.375 164.106 121.684 164.433C121.161 164.68 121.381 164.98 121.085 165.493C121.413 164.58 121.481 163.944 122.355 163.591C123.455 163.149 124.685 163.228 125.828 163.522C124.203 164.638 122.568 165.801 121.351 167.396Z" fill="#734130"/>
<path d="M141.343 156.44C141.222 156.451 141.1 156.463 140.978 156.476C141.097 156.456 141.219 156.445 141.343 156.44ZM136.483 160.023C136.379 160.14 136.267 160.247 136.141 160.341L136.483 160.023ZM137.261 159.3L136.483 160.023C137.115 159.317 137.401 158.264 138.071 157.57C138.822 156.791 139.917 156.586 140.978 156.476C140.021 156.64 139.183 157.342 138.536 158.129C138.16 158.585 137.798 159.099 137.261 159.3ZM147.035 161.234C149.683 162.026 147.916 163.64 148.442 166.503C147.643 164.843 150.501 164.162 149.261 162.842L147.035 161.234ZM133.937 158.792C133.654 159.246 133.413 159.758 132.984 160.051L131.392 162.072C131.714 161.275 132.036 160.478 132.36 159.681C132.526 159.27 132.697 158.85 132.981 158.516C133.27 158.177 133.656 157.949 134.046 157.751C134.516 157.513 135.003 157.307 135.501 157.139C134.88 157.574 134.345 158.139 133.937 158.792ZM125.655 163.151C125.697 163.196 125.698 163.288 125.642 163.311L125.992 163.351C125.597 163.407 125.184 163.325 124.833 163.121C125.048 163.084 125.268 163.074 125.485 163.092C125.546 163.096 125.61 163.106 125.655 163.151ZM128.183 162.779L127.527 163.347C127.693 162.939 127.86 162.531 128.026 162.122C128.433 161.123 128.867 160.086 129.656 159.389C129.206 159.994 128.873 160.697 128.686 161.44C128.571 161.911 128.499 162.425 128.183 162.779ZM125.258 161.121C125.794 160.959 126.418 161.389 126.495 161.973L126.372 161.747C125.999 161.54 125.63 161.33 125.258 161.121ZM131.429 164.167C131.421 164.17 131.412 164.174 131.402 164.18C131.766 163.806 132.127 163.432 132.49 163.055L131.429 164.167ZM131.402 164.18C131.181 164.409 130.961 164.635 130.74 164.864C130.557 165.054 130.368 165.246 130.13 165.346C129.851 165.465 129.539 165.441 129.241 165.416C128.645 165.366 128.051 165.315 127.454 165.265C128.813 165.124 130.15 164.754 131.402 164.18ZM139.102 165.02L139.397 165.424C138.291 164.439 137.184 163.454 136.08 162.47C137.326 162.907 138.419 163.828 139.102 165.02ZM128.872 162.388C129.115 162.842 129.416 163.33 129.893 163.455C130.341 163.572 130.811 163.322 131.134 162.973C131.46 162.625 131.681 162.186 131.958 161.796C132.525 160.999 133.341 160.405 134.246 160.129C134.292 160.864 135.211 161.19 135.871 160.961C136.531 160.73 137.038 160.172 137.647 159.812C137.862 159.685 138.122 159.582 138.351 159.681C138.673 159.822 138.738 160.26 138.835 160.616C138.932 160.971 139.258 161.362 139.566 161.186L141.938 160.699C141.19 161.447 140.019 161.364 139 161.225C137.978 161.086 136.814 160.986 136.051 161.718C135.914 161.849 135.786 162.008 135.611 162.068C135.383 162.143 135.142 162.03 134.915 161.949C134.069 161.646 133.116 161.821 132.318 162.247C131.517 162.673 130.849 163.33 130.24 164.024C130.109 164.173 129.973 164.331 129.792 164.402C129.394 164.562 128.979 164.259 128.586 164.087C127.967 163.815 127.228 163.872 126.651 164.237C126.981 163.833 127.518 163.726 127.987 163.534C128.455 163.34 128.944 162.917 128.872 162.388ZM143.078 160.696C143.642 160.537 144.24 160.621 144.807 160.759C147.152 161.33 149.272 162.866 150.626 164.972C149.339 163.47 147.505 162.582 145.624 162.196C143.743 161.811 141.805 161.892 139.897 162.085L141.363 161.846C141.876 161.372 142.417 160.88 143.078 160.696ZM147.162 168.931L148.037 170.09C145.803 167.716 143.667 165.235 141.639 162.662C143.982 164.154 145.919 166.35 147.162 168.931ZM150.101 165.149L151.532 166.673C149.686 164.991 147.51 163.714 145.183 162.953C146.966 163.297 148.87 163.74 150.101 165.149ZM123.884 164.916C124.098 164.732 124.322 164.551 124.582 164.443C124.839 164.336 125.137 164.309 125.39 164.428L126.199 164.19C125.755 164.374 125.313 164.558 124.87 164.742C124.229 165.009 123.576 165.281 123.035 165.731C123.304 165.445 123.588 165.173 123.884 164.916Z" fill="url(#paint1_radial_2137_17049)"/>
<path d="M137.274 160.963C137.679 160.627 138.082 160.292 138.486 159.956C138.53 159.92 138.58 159.882 138.633 159.891C138.693 159.901 138.728 159.964 138.758 160.017C138.858 160.207 138.956 160.397 139.055 160.587L139.167 160.692C138.528 160.664 137.885 160.755 137.274 160.963ZM136.422 161.216L136.797 160.889C136.66 161.102 136.505 161.302 136.333 161.486C136.267 161.556 136.195 161.628 136.108 161.667C135.933 161.747 135.722 161.689 135.567 161.569C135.412 161.449 135.302 161.279 135.196 161.111C135.555 161.349 136.027 161.389 136.422 161.216ZM134.532 160.543C134.62 160.554 134.711 160.593 134.757 160.672C134.792 160.73 134.796 160.803 134.806 160.871C134.835 161.065 134.914 161.251 135.032 161.404L135.055 161.458C134.366 161.317 133.628 161.454 133.025 161.837C133.201 161.613 133.378 161.39 133.556 161.167C133.813 160.843 134.139 160.49 134.532 160.543ZM133.716 158.51C134.062 158.133 134.565 157.976 134.988 157.702C134.084 158.266 133.807 159.516 133.087 160.325L132.47 161.655C132.692 160.952 132.925 160.254 133.172 159.561C133.304 159.183 133.451 158.797 133.716 158.51ZM129.89 163.31C130.027 163.368 130.141 163.475 130.272 163.543C130.487 163.653 130.746 163.659 130.964 163.555L131.121 163.387C130.813 163.811 130.246 163.998 129.767 163.834C129.44 163.723 129.119 163.463 128.787 163.561C129.127 163.36 129.529 163.154 129.89 163.31ZM131.254 164.417C131.017 164.991 130.328 165.304 129.773 165.086C130.193 165.02 130.602 164.877 130.977 164.66L131.254 164.417ZM125.709 164.409L124.691 164.979C124.955 164.65 125.319 164.285 125.709 164.409ZM144.966 160.991C145.641 161.063 146.293 161.279 146.939 161.502C147.819 161.804 148.72 162.134 149.421 162.775L149.109 162.708C147.233 161.694 145.097 161.221 142.992 161.353C143.587 161.005 144.292 160.922 144.966 160.991ZM148.576 162.579L149.613 163.506C148.02 162.202 145.906 161.921 143.904 161.689C145.498 161.597 147.111 161.903 148.576 162.579ZM150.798 165.412C149.831 164.702 148.824 164.052 147.782 163.469C148.657 163.733 149.494 164.138 150.257 164.663L150.798 165.412ZM150.125 164.573L150.715 165.026C150.131 164.135 150.467 163.245 149.719 162.499C150.508 163.037 149.515 163.817 150.125 164.573ZM147.806 169.035C146.27 167.448 144.878 165.704 143.653 163.837C144.968 164.933 146.098 166.273 146.977 167.78L147.806 169.035ZM139.358 164.618L137.21 162.779C138.052 163.194 138.795 163.832 139.358 164.618ZM139.9 156.835L138.037 158.872C138.521 158.07 139.161 157.373 139.9 156.835ZM128.522 162.928C128.655 162.266 128.862 161.622 129.14 161.013L128.522 162.928Z" fill="#3E2E29"/>
<path d="M121.357 167.395C120.968 167.906 120.625 168.455 120.29 169.01C120.331 168.832 120.38 168.655 120.439 168.481C121.043 166.639 122.386 165.16 123.894 164.043L123.938 163.959L123.896 163.932C123.144 164.002 122.381 164.106 121.691 164.433C121.167 164.68 121.146 164.98 120.85 165.492C121.178 164.58 121.487 163.943 122.361 163.59C123.462 163.148 124.691 163.228 125.834 163.522C124.209 164.638 122.574 165.801 121.357 167.395Z" fill="#734130"/>
<path d="M120.704 170.631C120.757 170.464 120.821 170.301 120.889 170.14C121.241 168.708 122.126 167.447 123.25 166.562C124.458 165.611 125.921 165.076 127.409 164.848C126.921 165.275 126.54 165.838 126.311 166.464C126.919 165.89 127.752 165.593 128.561 165.663C129.447 165.739 130.265 166.227 131.15 166.322C132.436 166.459 133.758 165.654 134.314 164.419C134.493 163.737 134.426 162.942 133.978 162.42C134.252 162.475 134.522 162.543 134.791 162.621L134.819 162.505C134.84 162.553 134.861 162.598 134.877 162.647C137.529 163.438 139.881 165.287 141.42 167.71C141.35 167.282 141.245 166.86 141.101 166.453C140.467 164.657 139.107 163.256 137.646 162.122C139.516 162.082 141.391 162.798 142.806 164.09C144.023 165.203 144.883 166.696 146.044 167.874C146.621 168.46 147.269 168.963 147.844 169.549C148.358 170.072 148.813 170.66 149.198 171.296C149.151 171.053 149.1 170.814 149.04 170.573C148.326 167.721 146.572 165.282 144.614 163.188C147.286 163.504 149.815 164.857 151.706 166.872C150.193 166.051 148.565 165.466 146.893 165.142C148.5 166.197 149.63 168.03 149.897 170.017C150.02 170.927 149.969 171.845 149.913 172.767C149.894 172.714 149.875 172.659 149.853 172.606C149.776 173.222 149.654 173.832 149.504 174.436C149.035 172.625 148.11 170.949 146.844 169.635C146.111 168.874 145.269 168.235 144.58 167.429C143.646 166.337 142.99 164.939 141.816 164.15C142.31 165.228 142.749 166.359 142.862 167.553C143.037 169.432 142.389 171.243 141.596 172.967C141.378 173.285 141.151 173.598 140.916 173.904C141.072 172.275 140.449 170.548 139.572 169.152C138.439 167.351 136.904 165.858 135.83 164.017C135.981 166.049 137.331 167.935 137.007 169.945C136.919 170.493 136.708 171.006 136.5 171.521C136.356 171.704 136.192 171.87 136.015 172.01C136.24 171.357 136.308 170.635 136.248 169.938C136.152 168.827 135.755 167.766 135.285 166.768C135.532 168.67 135.138 170.66 134.184 172.294C133.463 173.532 132.443 174.562 131.647 175.736C130.817 176.726 130.104 177.824 129.53 178.999C129.442 177.648 129.678 176.275 130.213 175.043C129.484 175.943 129.052 177.109 129.007 178.294C128.962 179.504 129.306 180.73 129.434 181.929C129.322 181.725 129.195 181.529 129.059 181.344C128.518 180.597 127.849 179.968 127.283 179.245C126.052 177.669 125.344 175.642 125.31 173.593C124.904 174.944 125.044 176.4 125.217 177.809C124.809 177.006 124.468 176.168 124.267 175.283C123.931 173.797 124.035 172.14 124.83 170.865C124.134 171.579 123.568 172.438 123.173 173.376C123.167 171.263 123.989 169.162 125.405 167.673C123.824 168.719 122.914 170.662 122.67 172.621C122.6 173.174 122.579 173.729 122.594 174.284C121.921 172.394 121.931 170.228 122.653 168.352C121.427 169.506 120.872 171.323 120.963 173.057C120.971 173.18 120.98 173.303 120.992 173.426C120.987 173.418 120.982 173.411 120.976 173.403C120.966 173.386 120.955 173.371 120.943 173.354C120.919 173.318 120.895 173.28 120.871 173.244C120.858 173.222 120.847 173.201 120.834 173.182C120.818 173.156 120.804 173.133 120.791 173.107C120.777 173.083 120.764 173.062 120.752 173.038C120.741 173.017 120.73 172.997 120.719 172.976C120.694 172.928 120.669 172.881 120.647 172.833C120.64 172.818 120.633 172.805 120.627 172.792C120.612 172.762 120.598 172.731 120.586 172.701C120.58 172.688 120.574 172.674 120.568 172.661C120.524 172.559 120.482 172.454 120.443 172.346C120.44 172.337 120.437 172.331 120.434 172.322C120.421 172.284 120.409 172.249 120.398 172.212C120.454 171.672 120.541 171.143 120.704 170.631Z" fill="#734130"/>
<path d="M126.446 162.682C126.535 162.678 126.623 162.671 126.713 162.664C126.713 162.664 126.734 162.601 126.769 162.509C126.414 162.495 126.05 162.347 125.704 162.228C125.117 162.028 124.504 161.914 123.887 161.893C124.051 161.826 124.215 161.756 124.379 161.689C124.625 161.585 124.876 161.481 125.139 161.44C126.099 161.29 126.972 161.983 127.72 162.636C127.296 162.712 126.871 162.717 126.446 162.682Z" fill="#734130"/>
<path d="M128.203 158.934C128.368 158.742 128.557 158.575 128.763 158.435C128.15 159.175 127.971 160.288 128.309 161.202C128.384 160.637 128.674 160.114 129.048 159.697C129.059 159.684 129.071 159.673 129.083 159.66C128.651 160.69 128.446 161.828 128.247 162.943C127.507 161.768 127.515 160.135 128.203 158.934Z" fill="#734130"/>
<path d="M132.209 158.155C131.97 158.678 131.866 159.295 132.04 159.846C132.267 159.285 132.592 158.77 132.987 158.328C132.794 158.753 132.629 159.191 132.437 159.617C131.938 160.732 131.272 161.764 130.476 162.662C130.439 161.64 130.408 160.583 130.757 159.628C131.198 158.424 132.176 157.556 133.138 156.756C133.154 156.745 133.17 156.734 133.188 156.722C132.822 157.168 132.453 157.623 132.209 158.155Z" fill="#734130"/>
<path d="M138.891 156.657C138.943 156.634 138.995 156.614 139.046 156.591C137.895 157.505 137.029 158.838 136.215 160.122C135.853 159.149 136.107 157.953 136.827 157.234C137.238 156.824 137.768 156.573 138.202 156.192C138.847 155.625 139.253 154.766 139.307 153.882C139.319 153.834 139.332 153.784 139.342 153.737C139.474 154.76 139.266 155.83 138.768 156.717C138.806 156.696 138.85 156.676 138.891 156.657Z" fill="#734130"/>
<path d="M149.899 170.017C149.632 168.033 148.502 166.197 146.895 165.142C148.569 165.466 150.195 166.051 151.708 166.872C151.343 166.872 150.59 165.422 151.153 166.684C150.982 166.388 150.794 166.107 150.587 165.837C150.585 165.835 150.585 165.832 150.582 165.83C150.534 165.765 150.483 165.703 150.43 165.64C150.428 165.636 150.425 165.632 150.42 165.628C150.37 165.565 150.317 165.506 150.265 165.446C150.262 165.441 150.257 165.437 150.255 165.433C150.202 165.373 150.148 165.313 150.093 165.256C150.091 165.254 150.088 165.25 150.084 165.248C150.027 165.189 149.97 165.129 149.914 165.072C149.914 165.072 149.914 165.07 149.912 165.07C149.794 164.954 149.675 164.841 149.55 164.733C149.547 164.731 149.542 164.727 149.54 164.725C149.482 164.675 149.422 164.622 149.362 164.575C149.355 164.569 149.35 164.565 149.343 164.559C149.285 164.511 152.046 168.051 151.987 168.003C151.977 167.998 151.97 167.99 151.961 167.984C151.901 167.939 151.842 167.896 151.783 167.853C151.773 167.847 151.764 167.839 151.757 167.833C151.698 167.79 151.636 167.747 151.575 167.707C151.566 167.701 151.559 167.695 151.55 167.692C151.486 167.649 151.423 167.609 151.36 167.569C151.355 167.565 151.348 167.561 151.343 167.557C151.275 167.516 151.208 167.476 151.14 167.436L151.153 167.469C151.598 168.365 151.707 169.417 151.624 170.427C151.544 171.436 151.282 172.419 151.022 173.396C150.863 173.997 150.697 174.615 150.345 175.117C150.328 174.315 150.181 173.517 149.913 172.767C149.971 171.845 150.02 170.927 149.899 170.017Z" fill="#601900"/>
<path d="M141.819 164.148C142.992 164.937 143.651 166.335 144.583 167.427C145.272 168.233 146.113 168.872 146.847 169.634C148.113 170.947 149.038 172.623 149.507 174.434C149.373 174.974 149.214 175.508 149.046 176.036C149.059 175.443 148.991 174.846 148.852 174.273L148.908 174.765C148.577 175.561 148.382 176.42 148.34 177.289C148.166 176.717 147.991 176.134 147.988 175.531C147.988 175.225 148.031 174.92 148.075 174.618C148.143 174.151 148.21 173.684 148.278 173.217C148.278 173.217 148.298 173.048 148.332 172.834C148.208 172.586 148.07 172.346 147.918 172.117C146.681 170.256 144.606 169.176 143.329 167.355C143.462 168.544 143.216 169.796 142.749 170.902C142.439 171.633 142.041 172.313 141.598 172.965C142.392 171.241 143.039 169.43 142.864 167.551C142.753 166.359 142.313 165.228 141.819 164.148Z" fill="#601900"/>
<path d="M135.831 164.016C136.905 165.857 138.441 167.35 139.573 169.151C140.451 170.547 141.073 172.276 140.917 173.903C140.627 174.286 140.324 174.662 140.023 175.032C140.441 173.475 139.905 171.801 139.14 170.402C138.375 169.002 137.376 167.744 136.741 166.272L137.14 167.236C137.371 168.272 137.432 169.383 137.104 170.39C136.97 170.799 136.765 171.187 136.501 171.518C136.709 171.003 136.918 170.49 137.007 169.942C137.332 167.934 135.982 166.048 135.831 164.016Z" fill="#601900"/>
<path d="M120.968 173.058C120.877 171.325 121.432 169.505 122.658 168.354C121.938 170.229 121.928 172.395 122.599 174.285C122.584 173.73 122.605 173.175 122.675 172.622C122.919 170.664 123.828 168.72 125.409 167.674C123.994 169.161 123.171 171.264 123.178 173.377C123.572 172.439 124.139 171.58 124.835 170.866C124.038 172.141 123.936 173.799 124.272 175.284C124.473 176.169 124.813 177.007 125.222 177.81C125.05 176.398 124.909 174.946 125.315 173.594C125.348 175.641 126.057 177.67 127.288 179.246C127.854 179.971 128.523 180.601 129.064 181.346C129.198 181.531 129.325 181.728 129.439 181.93C129.313 180.731 128.969 179.504 129.012 178.295C129.055 177.11 129.487 175.945 130.218 175.044C129.683 176.274 129.446 177.649 129.535 179C130.109 177.825 130.822 176.727 131.652 175.737C132.447 174.563 133.468 173.531 134.189 172.295C135.141 170.661 135.537 168.671 135.29 166.769C135.76 167.767 136.157 168.828 136.253 169.939C136.312 170.636 136.245 171.356 136.02 172.011C135.723 172.25 135.387 172.423 135.021 172.505C135.317 172.328 135.501 171.998 135.63 171.664C135.899 170.97 135.985 170.202 135.881 169.462L135.72 169.854C135.393 171.715 134.171 173.186 132.978 174.667C131.934 175.963 130.914 177.267 130.537 178.852C130.503 178.995 130.474 179.139 130.449 179.285L130.587 179.635C130.462 180.846 130.741 182.097 131.361 183.119C131.503 183.354 131.673 183.583 131.908 183.707C131.732 183.709 131.554 183.688 131.383 183.649C131.36 183.645 131.338 183.638 131.315 183.632C130.736 183.484 130.204 183.118 129.853 182.608L129.826 182.58L129.811 182.586C129.803 182.626 129.794 182.667 129.784 182.707C129.716 182.974 129.6 183.228 129.438 183.445C129.398 183.499 129.356 183.548 129.312 183.597C129.262 182.897 128.851 182.28 128.37 181.795C127.89 181.311 127.331 180.921 126.854 180.433C126.67 180.245 126.498 180.035 126.353 179.807C126.333 179.803 126.31 179.799 126.29 179.795C126.019 179.738 125.742 179.705 125.463 179.702C125.152 179.696 124.841 179.725 124.538 179.79C124.402 179.206 124.196 178.641 123.934 178.111C123.909 178.062 123.886 178.012 123.858 177.962L123.831 177.8L123.791 177.681L123.743 177.731C123.445 177.594 123.179 177.396 122.946 177.157C122.624 176.828 122.367 176.422 122.179 175.991C121.855 175.247 121.719 174.429 121.622 173.615C121.514 172.706 121.453 171.791 121.436 170.874C120.885 171.777 120.869 173.013 121.397 173.928C121.36 173.889 121.325 173.852 121.29 173.813C121.281 173.803 121.27 173.79 121.261 173.78C121.233 173.749 121.208 173.715 121.18 173.684C121.173 173.674 121.165 173.666 121.157 173.655C121.127 173.615 121.096 173.575 121.066 173.536C121.055 173.523 121.045 173.508 121.037 173.496C121.022 173.475 121.006 173.454 120.993 173.43C120.983 173.305 120.973 173.182 120.968 173.058Z" fill="#601900"/>
<path d="M129.108 173.796C129.151 172.653 129.196 171.5 129.465 170.393C129.734 169.285 130.252 168.211 131.093 167.492C130.516 168.562 130.111 169.735 129.906 170.948C130.865 169.221 132.244 167.759 133.872 166.745L134.614 164.148C134.317 165.98 134.004 167.826 133.358 169.556C132.713 171.286 131.706 172.913 130.264 173.973C130.246 173.323 130.228 172.672 130.209 172.023C129.82 173.165 129.433 174.306 129.044 175.448C129.066 174.899 129.088 174.346 129.108 173.796Z" fill="#9D6D48"/>
<path d="M126.323 174.183C125.928 172.832 125.981 171.257 126.786 170.128C127.676 168.882 129.353 168.319 129.897 166.867L129.282 168.996C128.471 171.289 128.041 173.73 128.013 176.176C128.007 176.752 128.027 177.349 128.271 177.863C127.499 176.71 126.717 175.532 126.323 174.183Z" fill="#9D6D48"/>
<path d="M125.071 170.859C125.198 170.598 125.376 170.37 125.552 170.145C126.066 169.486 126.579 168.828 127.093 168.17L125.75 170.676C125.282 171.778 124.921 172.93 124.673 174.106C124.622 173.335 124.663 172.558 124.798 171.797C124.855 171.472 124.929 171.149 125.071 170.859Z" fill="#9D6D48"/>
<path d="M124.697 168.754C124.971 168.414 125.317 168.173 125.643 167.947C126.436 167.395 127.134 166.911 127.754 166.48L126.794 167.678C126.139 168.847 125.139 170.137 123.712 171.538C123.934 170.441 124.151 169.43 124.697 168.754Z" fill="#9D6D48"/>
<path d="M125.78 165.654L125.756 166.129C125.318 167.102 124.541 167.85 123.859 168.652C123.178 169.454 122.551 170.413 122.53 171.491C122.34 170.281 122.566 169.002 123.153 167.945C123.743 166.89 124.689 166.063 125.78 165.654Z" fill="#9D6D48"/>
<path d="M121.8 169.001C121.972 168.295 122.365 167.652 122.907 167.199C123.107 167.031 123.329 166.887 123.502 166.687L121.8 169.001Z" fill="#9D6D48"/>
<path d="M134.902 164.816C134.528 167.101 134.827 169.534 133.974 171.669C133.31 173.332 132.022 174.609 130.77 175.835C132.296 173.678 133.426 171.208 134.079 168.603L134.902 164.816Z" fill="#9D6D48"/>
<path d="M136.761 164.083C137.742 165.149 138.985 165.92 139.911 167.038C141.039 168.398 141.629 170.243 141.518 172.051C140.403 168.572 137.986 165.766 135.631 163.072L136.761 164.083Z" fill="#9D6D48"/>
<path d="M141.089 165.197L139.298 162.915C140.23 163.582 141.188 164.275 141.795 165.278C142.404 166.281 142.606 167.519 142.527 168.71C142.448 169.902 142.106 171.056 141.696 172.17C141.962 169.833 141.752 167.439 141.089 165.197Z" fill="#9D6D48"/>
<path d="M149.553 172.099C149.249 170.281 148.693 168.511 147.904 166.866L146.767 165.135C148.674 166.801 149.748 169.484 149.553 172.099Z" fill="#9D6D48"/>
<path d="M149.439 165.501C148.498 165.169 147.555 164.838 146.614 164.509C146.225 164.373 145.81 164.215 145.576 163.859L146.35 164.044C147.474 164.243 148.548 164.749 149.439 165.501Z" fill="#9D6D48"/>
<path d="M144.403 158.052C143.323 158.365 142.436 159.256 141.333 159.466L140.857 159.899C141.479 158.817 142.39 157.879 143.52 157.469C144.65 157.058 146.008 157.25 146.866 158.131C146.058 157.921 145.204 157.82 144.403 158.052Z" fill="#9D6D48"/>
<path d="M145.767 158.121C146.39 158.135 147.001 158.318 147.566 158.59C145.984 158.383 144.391 158.793 142.842 159.201L143.996 158.641C144.512 158.271 145.145 158.108 145.767 158.121Z" fill="#9D6D48"/>
<path d="M136.292 159.249C136.277 158.218 136.84 157.198 137.698 156.709L139.052 155.265C138.329 156.736 136.827 157.695 136.292 159.249Z" fill="#9D6D48"/>
<path d="M132.061 157.548C132.091 157.489 132.121 157.429 132.156 157.372L132.061 157.548Z" fill="#9D6D48"/>
<path d="M130.926 161.696C130.98 161.068 131.048 160.442 131.129 159.817C131.182 159.407 131.247 158.984 131.459 158.636L132.054 157.546C131.62 158.431 131.751 159.538 131.49 160.511C131.376 160.94 131.184 161.345 130.926 161.696Z" fill="#9D6D48"/>
<path d="M125.088 161.631C125.679 161.505 126.327 161.755 126.701 162.255L126.659 162.219C126.092 162.216 125.53 162.006 125.088 161.631Z" fill="#9D6D48"/>
<path d="M124.621 164.038L122.776 165.64C123.162 164.881 123.84 164.291 124.621 164.038Z" fill="#9D6D48"/>
<path d="M130.352 166.317L130.288 166.325C130.309 166.32 130.33 166.317 130.352 166.317Z" fill="#9D6D48"/>
<path d="M127.367 168.735C127.546 168.041 127.764 167.359 128.023 166.695C128.083 166.537 128.149 166.377 128.261 166.254C128.373 166.131 128.54 166.05 128.695 166.094C128.852 166.138 128.992 166.3 129.147 166.252C128.837 166.354 128.582 166.625 128.482 166.953C128.805 166.715 129.161 166.531 129.536 166.411L130.284 166.325C130.127 166.355 129.987 166.458 129.855 166.561C128.992 167.237 128.161 167.964 127.367 168.735Z" fill="#9D6D48"/>
<path d="M132.274 167.278C131.914 167.604 131.51 167.875 131.187 168.241C131.376 167.763 131.567 167.285 131.756 166.807L131.093 166.483C131.857 166.824 132.821 166.572 133.35 165.893C133.073 166.417 132.705 166.889 132.274 167.278Z" fill="#9D6D48"/>
<path d="M125.858 173.142C126.313 175.846 127.294 178.449 128.721 180.744C128.064 179.97 127.456 179.147 126.906 178.286C126.235 177.238 125.627 176.02 125.797 174.766L125.858 173.142Z" fill="#9D6D48"/>
<path d="M136.612 168.47C136.102 167.5 135.581 166.495 135.475 165.387L135.106 163.161C135.68 164.905 136.184 166.677 136.612 168.47Z" fill="#9D6D48"/>
<path d="M139.959 166.45L136.018 163.283C137.532 164.035 139.095 164.93 139.959 166.45Z" fill="#9D6D48"/>
<path d="M142.576 164.209L139.276 162.512C140.496 162.736 141.656 163.331 142.576 164.209Z" fill="#9D6D48"/>
<path d="M127.411 166.063L128.11 165.572C127.505 166.166 126.835 166.686 126.115 167.113C126.485 166.69 126.927 166.331 127.411 166.063Z" fill="#9D6D48"/>
<path d="M136.751 166.267C137.796 168.579 139.846 170.397 140.219 173.038C140.266 173.372 140.28 173.709 140.258 174.046C140.239 174.34 140.179 174.613 140.104 174.89C140.705 174.181 141.261 173.4 141.745 172.6C142.251 171.763 142.695 170.893 142.971 169.938C143.221 169.065 143.317 168.137 143.223 167.23C143.217 167.219 143.209 167.209 143.204 167.198C143.196 167.185 143.205 167.17 143.216 167.169C143.211 167.13 143.207 167.09 143.202 167.051C143.08 166.127 142.647 165.288 142.044 164.618C141.392 163.897 140.575 163.407 139.696 163.067C139.657 163.051 139.683 162.995 139.721 163.006C141.327 163.516 142.754 164.816 143.249 166.543C143.332 166.836 143.389 167.13 143.425 167.425C144.24 168.443 145.268 169.233 146.228 170.091C147.282 171.036 148.215 172.115 148.702 173.511C148.953 174.232 149.091 174.999 149.093 175.767C149.285 175.082 149.442 174.385 149.584 173.685C149.737 172.93 149.842 172.161 149.865 171.389C149.909 170 149.637 168.583 148.955 167.384C148.588 166.739 148.105 166.171 147.519 165.738C147.495 165.72 147.524 165.684 147.545 165.702C149.706 167.213 150.258 170.153 149.94 172.734C150.201 173.464 150.342 174.222 150.381 175.002C150.666 174.479 150.808 173.894 150.953 173.314C151.112 172.671 151.28 172.03 151.403 171.376C151.647 170.083 151.676 168.721 151.157 167.499C150.662 167.199 150.14 166.959 149.605 166.784C149.596 166.78 149.601 166.766 149.61 166.767C150.583 167.021 148.121 165.774 148.911 166.426C149.63 167.019 150.217 167.751 150.682 168.572C150.362 166.387 149.761 164.218 148.652 162.334C147.604 160.554 149.445 160.766 147.595 159.983C146.578 159.554 145.497 159.367 144.404 159.433C144.376 159.434 144.368 159.389 144.398 159.385C146.321 159.182 148.253 159.979 149.759 161.211C151.441 162.597 149.235 162.88 149.944 164.991C150.364 166.237 150.64 167.535 150.82 168.845C150.829 168.91 150.748 168.923 150.721 168.871C150.062 167.628 152.393 168.266 151.211 167.54C151.811 168.708 151.819 170.095 151.605 171.378C151.489 172.074 151.306 172.759 151.112 173.436C150.939 174.036 150.755 174.647 150.374 175.138C150.359 175.159 150.317 175.153 150.318 175.12C150.307 174.355 150.163 173.589 149.919 172.87C149.892 173.057 149.863 173.243 149.828 173.427C149.659 174.329 149.375 175.19 149.08 176.052C149.069 176.086 149.012 176.08 149.012 176.043C149.008 175.65 148.975 175.258 148.911 174.875C148.859 175.045 148.821 175.223 148.766 175.393C148.697 175.607 148.64 175.824 148.584 176.043C148.481 176.455 148.411 176.871 148.375 177.295C148.372 177.33 148.319 177.339 148.309 177.304C148.114 176.647 147.914 175.996 147.954 175.298C147.973 174.95 148.036 174.606 148.088 174.263C148.139 173.925 148.155 173.536 148.273 173.217C148.275 173.212 148.284 173.213 148.284 173.218C148.305 173.537 148.217 173.887 148.175 174.204C148.129 174.527 148.079 174.852 148.049 175.178C147.989 175.833 148.13 176.463 148.316 177.082C148.334 176.704 148.375 176.326 148.451 175.957C148.489 175.763 148.541 175.572 148.6 175.385C148.672 175.157 148.776 174.964 148.88 174.752C148.884 174.747 148.885 174.742 148.889 174.739C148.688 173.654 148.241 172.632 147.56 171.776C146.701 170.702 145.604 169.896 144.636 168.944C144.201 168.517 143.787 168.071 143.437 167.566C143.593 169.222 143.022 170.864 142.155 172.266C141.535 173.27 140.755 174.126 140.054 175.057C140.033 175.083 139.985 175.066 139.992 175.031C140.263 173.831 139.952 172.504 139.498 171.402C139.02 170.237 138.306 169.211 137.674 168.139C137.319 167.541 137.006 166.925 136.735 166.279C136.731 166.265 136.746 166.259 136.751 166.267Z" fill="#480D00"/>
<path d="M146.769 159.605C146.732 159.602 146.741 159.544 146.778 159.544C151.394 159.638 143.948 157.56 146.578 157.445C144.731 156.429 142.622 155.867 140.541 156.225C139.962 156.325 139.375 156.489 138.84 156.747C138.809 156.763 138.778 156.778 138.748 156.794C138.74 156.804 138.735 156.816 138.727 156.826C138.72 156.839 138.704 156.834 138.697 156.824C138.242 157.085 137.885 157.495 137.638 157.976C137.624 158.006 137.581 157.986 137.592 157.957C137.773 157.503 138.078 157.109 138.468 156.837C138.565 156.769 138.668 156.71 138.773 156.655C139.18 155.81 139.4 154.916 139.326 153.965C139.166 154.541 138.899 155.073 138.502 155.511C138.011 156.049 137.392 156.369 136.724 156.587C136.01 156.818 135.267 156.949 134.577 157.257C133.965 157.53 133.4 157.946 132.944 158.459C132.575 158.873 132.277 159.349 132.06 159.868C132.061 159.87 132.061 159.872 132.061 159.874C132.064 159.883 132.056 159.891 132.05 159.892C131.963 160.101 131.89 160.318 131.833 160.539C131.828 160.558 131.798 160.556 131.802 160.534C131.86 160.299 131.935 160.066 132.024 159.838C131.679 158.731 132.332 157.735 132.985 156.913C132.042 157.552 131.102 158.201 130.174 158.862C129.336 159.459 128.551 160.19 128.346 161.268C128.35 161.282 128.354 161.295 128.359 161.308C128.363 161.319 128.35 161.323 128.345 161.315C128.342 161.313 128.342 161.308 128.34 161.306C128.33 161.356 128.323 161.405 128.317 161.454C128.314 161.484 128.269 161.483 128.265 161.454C128.26 161.349 128.261 161.245 128.269 161.145C127.953 160.334 128.095 159.385 128.551 158.661C127.822 159.296 127.403 160.325 127.473 161.322C127.475 161.356 127.437 161.384 127.41 161.36C126.824 160.844 125.981 160.693 125.262 160.953C124.669 161.165 124.18 161.618 123.595 161.837C123.642 161.831 123.689 161.827 123.737 161.825C123.888 161.819 124.041 161.823 124.189 161.833C124.53 161.853 124.869 161.913 125.202 161.996C125.833 162.154 126.515 162.597 127.174 162.394C127.243 162.374 127.288 162.481 127.217 162.506C126.593 162.732 125.956 162.382 125.358 162.216C125.026 162.123 124.691 162.058 124.351 162.017C124.186 161.997 124.024 161.979 123.857 161.968C123.66 161.955 123.446 161.923 123.25 161.934C123.218 161.936 123.212 161.886 123.244 161.88C124.057 161.738 124.641 161.013 125.437 160.81C126.116 160.637 126.827 160.814 127.385 161.241C127.3 160.11 127.825 159.015 128.732 158.405C128.771 158.379 128.826 158.427 128.792 158.468C128.208 159.175 128.055 160.157 128.277 161.045C128.406 160.098 129.173 159.356 129.889 158.842C130.951 158.08 132.077 157.418 133.16 156.693C133.196 156.669 133.247 156.714 133.215 156.752C132.538 157.579 131.735 158.63 132.033 159.8C132.427 158.821 133.098 157.956 133.948 157.394C134.54 157.004 135.192 156.8 135.861 156.618C136.601 156.419 137.358 156.226 137.987 155.744C138.615 155.264 139.109 154.537 139.294 153.737C139.304 153.694 139.364 153.689 139.37 153.738C139.486 154.702 139.328 155.768 138.848 156.613C139.17 156.458 139.516 156.351 139.85 156.259C140.88 155.978 141.962 155.928 143.016 156.065C145.173 156.342 146.047 157.094 148.147 158.727C146.747 158.96 149.314 159.893 146.769 159.605Z" fill="#480D00"/>
<path d="M125.707 162.586C126.421 162.523 127.135 162.525 127.85 162.494C127.853 162.494 127.853 162.498 127.851 162.499C125.805 162.7 123.337 162.557 121.925 164.463C121.675 164.799 121.493 165.182 121.398 165.592C122.023 164.199 123.677 163.789 125.027 163.705C125.096 163.701 125.11 163.81 125.04 163.819C124.235 163.923 123.423 164.003 122.689 164.398C122.075 164.726 121.546 165.251 121.338 165.959C121.326 166.002 121.267 165.98 121.271 165.938C121.358 164.971 121.928 164.158 122.657 163.603C123.544 162.926 124.634 162.681 125.707 162.586Z" fill="#480D00"/>
<path d="M120.078 169.864C120.202 168.303 120.964 166.871 121.954 165.739C122.526 165.084 123.189 164.533 123.884 164.038C123.892 164.032 123.902 164.044 123.894 164.05C122.744 164.941 121.679 166.055 120.983 167.382C120.302 168.679 120.011 170.206 120.304 171.67C120.455 172.428 120.769 173.159 121.262 173.732C120.831 172.826 120.885 171.707 121.397 170.841C121.419 170.804 121.484 170.823 121.485 170.867C121.499 171.547 121.563 172.227 121.627 172.902C121.691 173.552 121.766 174.21 121.905 174.848C122.161 176.006 122.725 177.123 123.757 177.682C123.81 177.709 123.776 177.794 123.719 177.772C122.656 177.339 122.059 176.201 121.783 175.088C121.458 173.778 121.41 172.405 121.387 171.059C120.929 171.941 120.951 173.041 121.421 173.914C121.44 173.949 121.391 173.969 121.371 173.946C120.384 172.856 119.96 171.36 120.078 169.864Z" fill="#480D00"/>
<path d="M123.856 177.953C124.024 178.222 124.158 178.503 124.274 178.799C124.39 179.095 124.457 179.411 124.568 179.705C124.859 179.61 125.175 179.596 125.475 179.599C125.72 179.601 125.98 179.614 126.222 179.677C126.039 179.353 125.925 178.995 125.937 178.609C125.937 178.604 125.944 178.606 125.944 178.608C126.007 179.009 126.14 179.377 126.339 179.712C126.373 179.724 126.404 179.736 126.437 179.75C126.494 179.775 126.484 179.845 126.442 179.874C126.487 179.942 126.535 180.007 126.586 180.069C126.923 180.493 127.341 180.83 127.749 181.173C128.122 181.486 128.489 181.812 128.788 182.206C128.933 182.396 129.061 182.605 129.16 182.827C129.242 183.01 129.287 183.2 129.338 183.394C129.479 183.168 129.608 182.944 129.679 182.675C129.766 182.35 129.775 182.029 129.701 181.7C129.674 181.584 129.848 181.564 129.874 181.678C129.945 181.979 129.957 182.328 129.896 182.656C130.359 183.229 131.034 183.609 131.745 183.655C131.523 183.499 131.364 183.266 131.222 183.027C131.023 182.694 130.865 182.334 130.746 181.958C130.509 181.209 130.465 180.406 130.559 179.625C130.563 179.59 130.61 179.6 130.607 179.633C130.551 180.377 130.658 181.125 130.877 181.833C130.98 182.163 131.105 182.48 131.26 182.787C131.423 183.112 131.613 183.471 131.922 183.664C131.962 183.689 131.946 183.746 131.901 183.745C131.111 183.732 130.364 183.35 129.896 182.676C129.823 183.064 129.649 183.425 129.359 183.658C129.301 183.705 129.226 183.65 129.233 183.578C129.284 183.035 128.899 182.461 128.575 182.077C128.226 181.664 127.802 181.332 127.398 180.984C127.042 180.678 126.644 180.311 126.354 179.883C126.067 179.863 125.784 179.8 125.497 179.792C125.176 179.783 124.865 179.832 124.545 179.844C124.515 179.845 124.482 179.824 124.48 179.79C124.453 179.471 124.318 179.127 124.208 178.829C124.101 178.534 123.976 178.244 123.855 177.956C123.848 177.952 123.854 177.949 123.856 177.953Z" fill="#480D00"/>
<path d="M135 172.482C135.433 172.205 135.626 171.632 135.733 171.136C135.85 170.587 135.88 170.028 135.803 169.47C135.79 169.375 135.932 169.356 135.945 169.451C136.023 170.047 135.99 170.654 135.819 171.229C135.687 171.672 135.505 172.147 135.149 172.437C136.006 172.16 136.676 171.429 137.013 170.554C137.419 169.504 137.343 168.326 137.137 167.238C137.136 167.234 137.142 167.231 137.145 167.237C137.419 168.348 137.481 169.576 137.044 170.656C136.677 171.557 135.95 172.336 135.021 172.53C134.995 172.531 134.98 172.494 135 172.482Z" fill="#480D00"/>
<path d="M130.418 179.278C130.582 177.875 131.366 176.62 132.174 175.536C133.034 174.387 134.007 173.325 134.763 172.09C135.18 171.405 135.546 170.651 135.709 169.849C135.71 169.84 135.725 169.842 135.722 169.852C135.614 170.543 135.412 171.207 135.093 171.824C134.77 172.453 134.374 173.036 133.949 173.593C133.079 174.731 132.096 175.786 131.356 177.029C130.939 177.73 130.644 178.477 130.476 179.287C130.469 179.326 130.412 179.318 130.418 179.278Z" fill="#480D00"/>
<path fill-rule="evenodd" clip-rule="evenodd" d="M148.323 175.98C148.639 176.429 148.622 177.013 148.526 177.221C146.629 176.563 144.98 177.251 144.186 177.398C144.101 177.398 143.96 177.324 144.082 176.865C144.31 175.973 147.526 175.703 148.323 175.98Z" fill="#734130"/>
<path fill-rule="evenodd" clip-rule="evenodd" d="M138.99 181.871C139.219 183.822 138.22 184.666 136.776 184.847C135.331 185.027 134.372 184.175 134.267 182.493C133.998 179.433 138.24 178.271 138.99 181.871Z" fill="white"/>
<path fill-rule="evenodd" clip-rule="evenodd" d="M134.462 180.412C135.124 179.749 136.059 179.206 137.226 179.15C136.932 178.78 136.193 178.655 135.769 178.851C134.707 179.31 134.545 179.833 134.462 180.412Z" fill="#BF8C60"/>
<path fill-rule="evenodd" clip-rule="evenodd" d="M134.387 175.706C134.028 176.189 134.062 176.876 134.18 177.133C136.387 176.622 138.338 177.654 139.271 177.936C139.371 177.947 139.533 177.879 139.379 177.326C139.089 176.248 135.315 175.492 134.387 175.706Z" fill="#734130"/>
<path fill-rule="evenodd" clip-rule="evenodd" d="M136.538 180.886C137.19 180.805 137.795 181.421 137.888 182.264C137.982 183.106 137.53 183.855 136.877 183.937C136.225 184.018 135.62 183.401 135.527 182.559C135.433 181.717 135.885 180.967 136.538 180.886Z" fill="#240A45" stroke="#0C050D" stroke-width="0.0784519" stroke-miterlimit="22.926"/>
<path fill-rule="evenodd" clip-rule="evenodd" d="M136.181 181.592C136.243 181.585 136.304 181.67 136.316 181.783C136.329 181.897 136.289 181.994 136.227 182.002C136.165 182.01 136.105 181.924 136.092 181.811C136.08 181.698 136.119 181.6 136.181 181.592Z" fill="white"/>
<path d="M138.938 183.646C137.956 184.125 136.087 184.027 134.861 184.27C135.52 185.62 137.077 185.526 137.461 185.244C137.806 184.991 138.551 184.925 138.938 183.646Z" fill="#EFC791"/>
<path fill-rule="evenodd" clip-rule="evenodd" d="M144.061 181.94C144.266 183.895 145.423 184.469 146.868 184.288C148.312 184.108 149.058 183.043 148.791 181.38C148.381 178.339 144.001 178.255 144.061 181.94Z" fill="white"/>
<path fill-rule="evenodd" clip-rule="evenodd" d="M148.248 179.216C147.386 178.737 146.236 178.446 145.008 178.758C145.216 178.279 145.864 177.778 146.478 177.822C147.702 177.964 148.009 178.64 148.248 179.216Z" fill="#BF8C60"/>
<path fill-rule="evenodd" clip-rule="evenodd" d="M146.141 180.251C145.487 180.333 145.032 181.085 145.126 181.93C145.22 182.777 145.827 183.396 146.482 183.314C147.137 183.232 147.591 182.48 147.497 181.635C147.403 180.788 146.796 180.169 146.141 180.251Z" fill="#240A45" stroke="#0C050D" stroke-width="0.0784519" stroke-miterlimit="22.926"/>
<path fill-rule="evenodd" clip-rule="evenodd" d="M148.709 182.944C148.034 183.372 144.293 183.168 144.367 183.286C144.982 183.952 144.732 184.357 146.02 184.586C146.985 184.759 148.579 184.281 148.709 182.944Z" fill="#EFC791"/>
<path fill-rule="evenodd" clip-rule="evenodd" d="M145.998 180.707C146.06 180.7 146.12 180.785 146.133 180.898C146.145 181.012 146.106 181.109 146.044 181.117C145.982 181.125 145.921 181.039 145.909 180.926C145.896 180.813 145.936 180.715 145.998 180.707Z" fill="white"/>
<path fill-rule="evenodd" clip-rule="evenodd" d="M144.579 188.652C144.579 188.712 144.564 190.728 145.308 190.281C147.112 189.199 147.537 192.035 147.061 193.357C146.256 195.595 139.223 196.731 137.778 195.183C137.116 194.474 134.425 193.08 135.836 190.857C136.241 190.218 137.385 190.349 138.325 190.272C138.592 190.25 138.715 188.788 138.277 188.764C136.264 188.652 134.801 189.482 134.138 191.68C133.435 194.013 135.709 197.296 135.932 197.709C136.764 199.256 139.113 200.241 142.002 199.759C143.961 199.433 147.101 199.248 148.168 197.516C149.438 195.455 149.539 193.361 148.768 190.933C147.908 188.224 145.697 188.267 144.579 188.652Z" fill="#6D4526"/>
<path fill-rule="evenodd" clip-rule="evenodd" d="M144.147 196.099C143.762 195.71 143.272 195.673 143.578 194.993C143.767 194.57 143.742 194.526 142.206 194.886C141.693 195.007 141.155 194.778 140.634 194.834C140.393 194.983 141.185 195.381 140.88 196.112C140.683 196.586 144.191 196.145 144.147 196.099Z" fill="#6D4526"/>
<path fill-rule="evenodd" clip-rule="evenodd" d="M137.396 191.407C137.286 191.326 137.13 191.352 137.049 191.465C136.967 191.578 136.99 191.735 137.1 191.816C138.124 192.576 139.953 193.006 141.733 192.973C143.352 192.944 144.946 192.532 145.889 191.641C145.99 191.546 145.997 191.387 145.905 191.285C145.812 191.184 145.655 191.179 145.554 191.274C144.71 192.072 143.239 192.441 141.731 192.468C140.049 192.499 138.337 192.105 137.396 191.407Z" fill="#B68C67"/>
<path fill-rule="evenodd" clip-rule="evenodd" d="M143.322 193.526C143.306 193.476 142.716 193.787 142.126 193.851C141.574 193.911 141.021 193.723 141.022 193.757C141.203 194.25 141.733 194.458 142.19 194.402C143.002 194.302 143.337 193.789 143.322 193.526Z" fill="#B68C67"/>
<path fill-rule="evenodd" clip-rule="evenodd" d="M136.796 192.498C136.96 191.696 137.322 191.347 138.071 191.164C137.165 190.557 136.118 191.644 136.796 192.498Z" fill="#B68C67"/>
<path fill-rule="evenodd" clip-rule="evenodd" d="M144.954 191.019C145.751 191.136 146.107 191.481 146.313 192.228C146.88 191.274 145.774 190.281 144.954 191.019Z" fill="#B68C67"/>
<path fill-rule="evenodd" clip-rule="evenodd" d="M143.456 185.592C142.881 183.937 141.849 182.579 141.906 182.631C142.05 182.761 142.527 183.756 143.143 185.077C143.423 185.678 143.713 186.594 143.745 186.848C143.797 187.259 143.666 187.836 143.617 187.965C143.463 188.371 142.402 188.417 141.979 188.019C141.916 187.96 141.873 188.109 141.852 188.136C141.83 188.164 141.865 188.365 141.976 188.364C142.459 188.36 142.839 188.498 143.232 188.371C143.591 188.255 143.765 188.161 143.867 187.724C143.871 187.709 144.228 187.447 143.456 185.592Z" fill="#B68C67"/>
<path d="M136.259 173.2C136.259 173.2 152.352 171.567 152.518 170.1C152.709 168.373 159.059 173.546 152.029 174.366C144.998 175.186 131.911 174.471 136.259 173.2Z" fill="#D3AB05"/>
<path d="M152.106 166.255C152.283 167.121 152.43 167.948 152.543 168.776C153.596 176.299 141.442 171.262 136.273 173.184C131.263 175.065 121.332 178.161 120.23 172.808C119.391 168.594 120.254 164.219 122.629 160.638C125.004 157.058 128.699 154.562 132.908 153.695C137.117 152.828 141.497 153.661 145.094 156.012C148.691 158.363 151.211 162.041 152.106 166.244L152.106 166.255Z" fill="#FFD400"/>
<path d="M136.958 172.921C136.958 172.921 152.381 171.123 152.562 169.66C152.754 167.925 159.111 173.098 152.073 173.91C145.035 174.723 130.383 174.23 136.958 172.921Z" fill="#FFF35A"/>
<g opacity="0.44">
<path opacity="0.44" d="M123.643 169.253C123.635 169.399 123.596 169.542 123.53 169.672C123.464 169.802 123.372 169.918 123.259 170.011C123.147 170.104 123.016 170.173 122.876 170.214C122.735 170.254 122.588 170.265 122.443 170.246C122.141 170.207 121.865 170.052 121.674 169.815C121.483 169.577 121.391 169.275 121.416 168.971C122.503 159.067 131.249 155.26 131.648 155.079L131.712 155.196C131.637 155.245 124.591 158.852 123.643 169.253Z" fill="white"/>
</g>
<path d="M77.9727 247.652C79.3725 242.053 104.877 214.289 104.877 214.289C105.694 213.534 115.427 205.587 119.725 210.841C123.537 215.507 122.1 227.415 119.463 229.324C118.12 230.289 99.4926 241.306 94.7706 247.652C94.2222 248.383 92.8979 248.818 89.8941 250.82C86.3891 252.322 89.8941 251.321 85.889 252.823C82.3829 252.823 79.3807 252.322 77.9727 247.652Z" fill="#FBD2BB"/>
<path d="M94.6354 224.579L106.459 211.748C111.648 207.413 118.726 204.664 123.024 209.919C126.831 214.585 126.677 221.313 120.887 228.336C120.117 229.269 108.167 239.585 108.167 239.585C108.167 239.585 105.937 240.556 102.647 237.798C93.6742 230.272 94.6354 224.579 94.6354 224.579Z" fill="#EA7424"/>
<path d="M125.264 270.795C125.431 270.796 125.599 270.778 125.903 270.65C126.119 270.558 126.377 270.422 126.521 270.358L126.571 270.421C126.429 270.593 126.194 270.75 125.978 270.834C125.75 270.928 125.476 270.972 125.247 270.874L125.264 270.795Z" fill="#E18B5A"/>
<path d="M125.757 269.223C125.814 269.222 125.905 269.22 126.104 269.153C126.232 269.112 126.376 269.051 126.501 269C126.602 268.959 126.748 268.901 126.856 268.87L126.899 268.938C126.813 269.03 126.692 269.113 126.582 269.172C126.435 269.252 126.276 269.307 126.15 269.33C126.013 269.356 125.867 269.361 125.741 269.302L125.757 269.223Z" fill="#E18B5A"/>
<path d="M126.395 267.27C126.455 267.247 126.629 267.198 126.928 267.11C126.984 267.093 127.397 266.968 127.457 266.958L127.499 267.027C127.363 267.165 127.167 267.248 126.983 267.302C126.948 267.312 126.912 267.32 126.877 267.328C126.724 267.358 126.553 267.373 126.404 267.35L126.395 267.27Z" fill="#E18B5A"/>
<path d="M164.857 232.539C148.245 230.673 123.484 238.638 114.696 243.071C115.194 245.476 116.096 248.671 116.096 248.671C134.294 237.472 157.858 235.806 165.323 238.839L164.857 232.539Z" fill="#FFC273"/>
<path d="M165.324 246.108C149.766 244.248 126.193 252.446 117.963 256.861C118.429 259.257 119.274 262.439 119.274 262.439C138.012 252.498 159.248 250.195 165.076 252.382L165.324 246.108Z" fill="#FFC273"/>
<path d="M141.061 212.942C140.688 210.889 138.261 209.753 137.095 209.442C139.972 207.809 144.794 206.176 144.794 206.176C144.794 206.176 144.483 211.231 144.794 212.942C150.192 234.86 150.264 250.94 150.86 281.767H147.36C149.536 259.145 145.381 214.562 141.061 212.942Z" fill="#E5650E"/>
<path d="M101.631 217.141C108.575 223.365 113.878 230.195 116.329 232.306L113.996 234.639C108.274 227.699 104.905 224.485 99.2979 219.474L101.631 217.141Z" fill="#FFC273"/>
<path d="M166.489 208.976C162.569 208.789 159.412 211.075 158.323 212.242L159.49 215.508C161.965 212.588 164.023 211.692 167.889 211.075L166.489 208.976Z" fill="#FFC273"/>
<path d="M151.222 314.429C141.403 312.556 135.196 313.154 124.068 314.429L125.938 319.095C136.254 317.224 141.966 316.514 151.431 319.095L151.222 314.429Z" fill="#FFC273"/>
<path d="M151.092 306.03C139.519 304.78 133.218 305.467 122.02 306.963C122.311 308.802 122.579 309.837 123.096 311.629C133.971 310.068 140.089 309.528 151.092 310.696V306.03Z" fill="#FFC273"/>
<ellipse cx="128.689" cy="269.988" rx="0.746764" ry="5.06188" transform="rotate(16.3973 128.689 269.988)" fill="#E5650E"/>
<path d="M85.0657 234.457L95.7977 223.492L109.418 238.304C99.3859 249.27 88.8727 257.61 83.6659 255.974C78.4591 254.338 65.0723 233.408 63.8068 216.535C63.7742 216.101 64.1316 216.5 64.6504 216.535C65.2549 216.576 66.226 216.38 66.7595 216.113C67.6032 215.691 70.1341 215.27 70.1341 214.426C73.867 218.936 82.9193 233.897 83.6659 234.457C84.4125 235.017 84.9102 234.69 85.0657 234.457Z" fill="#EA7424"/>
<path d="M91.9939 228.041C94.364 228.575 99.0523 230.77 98.8446 235.28C98.2388 233.755 96.0207 230.173 91.9939 228.041Z" fill="#C44F01"/>
<path d="M78.8302 233.883C79.0483 236.281 78.4051 241.372 74.088 242.55C75.3417 241.514 78.0453 238.331 78.8302 233.883Z" fill="#C44F01"/>
<path d="M84.8318 234.923C84.8643 234.97 84.8977 235.02 84.9318 235.073C86.1273 237.104 84.1675 243.023 85.5318 240.522C86.5996 238.565 85.6309 236.168 84.9318 235.073C84.9007 235.021 84.8674 234.97 84.8318 234.923Z" fill="#C34F01"/>
<path d="M56.2543 197.131C56.6148 196.756 57.2186 196.773 57.5572 197.167L60.0245 203.652C60.1144 203.762 60.2591 203.82 60.3982 203.787C60.6052 203.739 60.7244 203.527 60.6654 203.329L58.0867 195.769C58.0079 195.51 58.0218 195.232 58.1261 194.983C58.2015 194.802 58.3382 194.667 58.5012 194.59C58.9036 194.4 59.2597 194.826 59.429 195.237L62.0444 201.589C62.0898 201.699 62.1972 201.771 62.3164 201.771L62.3308 201.771C62.447 201.771 62.5412 201.677 62.5412 201.561C62.5412 201.421 62.5154 201.283 62.465 201.152L59.4657 193.392C59.3842 193.087 59.4497 192.763 59.6427 192.514L59.6913 192.452C59.8581 192.237 60.1018 192.086 60.3721 192.052C60.8238 191.996 61.2414 192.243 61.4185 192.639L62.9919 196.143L65.0398 201.123C65.1299 201.342 65.3667 201.475 65.5956 201.417C65.8376 201.355 65.9855 201.121 65.9461 200.883L63.5724 192.8C63.4918 192.369 63.7366 191.923 64.1964 191.78C64.3823 191.722 64.5813 191.735 64.7638 191.803C65.1308 191.944 65.4044 192.257 65.494 192.639L68.5896 201.648L69.3857 204.91C69.7876 205.003 70.1956 204.779 70.3361 204.391L70.7189 203.331C70.8791 202.886 71.121 202.477 71.4332 202.122L71.9034 201.588C72.3171 201.116 72.9505 200.9 73.5664 201.018L73.6999 201.042C73.9981 201.1 74.1751 201.409 74.0725 201.694L73.5779 203.08C73.3956 203.59 73.2804 204.12 73.2339 204.659C73.1924 205.143 73.2826 205.84 72.9527 206.412C72.1975 207.72 71.9539 209.309 71.9539 209.309C71.829 209.711 71.6406 210.09 71.396 210.432L70.1622 212.161L70.7173 214.311C70.8057 214.654 70.6394 215.01 70.3207 215.163L69.2166 215.691C67.9413 216.3 66.5611 216.662 65.1511 216.756L64.1573 216.822C63.804 216.845 63.4827 216.615 63.3929 216.271L63.3643 216.16L62.8436 214.173L62.3597 213.827C61.9519 213.534 61.6292 213.138 61.4281 212.678L58.8396 206.784C58.323 205.146 58.136 204.707 57.7762 203.329C57.729 203.149 57.684 202.97 57.6403 202.793C57.2542 201.239 56.6622 199.738 56.1548 198.219C55.9285 197.878 55.9705 197.427 56.2543 197.131Z" fill="#FEC7A8"/>
<path d="M72.5828 203.242C72.4809 203.053 72.6275 202.74 72.7296 202.582C72.9534 202.236 73.3599 201.924 73.79 202.148C73.7993 202.152 73.8084 202.156 73.8171 202.158C73.813 202.191 73.8068 202.224 73.7945 202.256L73.3635 203.462C73.3398 203.53 73.3186 203.599 73.2974 203.667C73.2282 203.639 73.1595 203.609 73.0927 203.577C72.9522 203.508 72.6613 203.387 72.5828 203.242Z" fill="#FCDAC7"/>
<path d="M60.4049 194.064C60.2075 194.083 60.0231 193.964 59.9621 193.775L59.7815 193.218C59.7247 193.007 59.7713 192.777 59.9053 192.603L59.9501 192.545C60.0313 192.439 60.1367 192.35 60.2597 192.301C60.3753 192.255 60.497 192.24 60.6178 192.256C60.8624 192.287 61.0679 192.442 61.1688 192.666L61.4194 193.25C61.5034 193.446 61.429 193.677 61.2426 193.78C60.9881 193.921 60.6805 194.037 60.4049 194.064Z" fill="#FCDAC7"/>
<path d="M56.8342 198.661C56.662 198.684 56.4959 198.587 56.4356 198.424L56.2584 197.942C56.2014 197.758 56.2336 197.555 56.3447 197.398L56.3825 197.346C56.4507 197.251 56.5387 197.169 56.6454 197.121C56.7455 197.077 56.8504 197.059 56.9579 197.069C57.1729 197.089 57.3585 197.216 57.4554 197.41L57.6956 197.913C57.7766 198.082 57.7197 198.287 57.5593 198.384C57.341 198.515 57.0756 198.627 56.8342 198.661Z" fill="#FCDAC7"/>
<path d="M64.3627 193.658C64.1764 193.658 64.015 193.529 63.9757 193.347L63.8597 192.81C63.8263 192.607 63.891 192.397 64.0327 192.248L64.0799 192.198C64.1662 192.108 64.271 192.034 64.3921 191.999C64.5044 191.967 64.6189 191.964 64.7306 191.99C64.9554 192.043 65.133 192.206 65.2068 192.425L65.387 192.993C65.4475 193.184 65.3567 193.393 65.1728 193.471C64.9213 193.579 64.6226 193.659 64.3627 193.658Z" fill="#FCDAC7"/>
<path d="M67.9264 213.693C69.3114 213.28 70.0156 212.52 70.0156 212.52L70.469 214.277C70.0767 213.282 68.4178 213.672 67.9264 213.693Z" fill="#F9B489"/>
<path d="M65.1818 213.526C63.6157 214.002 63.1227 214.53 63.142 215.301L62.6941 213.595C62.6952 213.594 63.8558 213.834 65.1818 213.526Z" fill="#F9B489"/>
<path d="M69.6896 207.006C69.2918 205.743 69.1718 205.291 69.1718 205.291C69.5737 205.384 69.9817 205.16 70.1222 204.772L70.4375 203.898C70.0286 205.43 70.1542 208.488 69.6896 207.006Z" fill="#F9B489"/>
<path d="M59.3281 194.552C59.5182 194.649 59.6642 194.816 59.7333 195.017C60.0925 196.058 61.2346 199.378 61.47 200.257C61.6041 200.757 59.2846 194.529 58.5761 194.543C58.7879 194.426 59.0511 194.409 59.2846 194.529L59.3281 194.552Z" fill="#F9B489"/>
<path opacity="0.55" d="M58.8882 196.356C58.7204 196.381 58.5568 196.287 58.4955 196.128L58.3164 195.659C58.258 195.481 58.2882 195.28 58.3949 195.127L58.4312 195.076C58.4967 194.981 58.5823 194.901 58.6857 194.853C58.7831 194.808 58.8864 194.79 58.991 194.798C59.2016 194.815 59.3844 194.937 59.4814 195.125L59.7228 195.613C59.8041 195.777 59.7508 195.978 59.595 196.074C59.3815 196.207 59.1233 196.321 58.8882 196.356Z" fill="#FCDAC7"/>
<path d="M202.867 224.404C202.536 224.277 202.237 223.997 202.102 223.717C202.016 223.539 202.083 223.339 202.19 223.173L204.101 220.233C204.103 220.137 204.039 220.015 203.929 219.92C203.765 219.779 203.569 219.745 203.497 219.84L200.644 223.618C200.552 223.744 200.387 223.805 200.18 223.792C199.841 223.771 199.427 223.461 199.279 223.118L199.254 222.658L198.754 223.297C198.639 223.436 198.414 223.471 198.149 223.392L198.082 223.372C197.851 223.304 197.607 223.161 197.409 222.97C197.079 222.648 196.941 222.275 197.044 222.041L197.957 219.968L199.377 217.161C199.44 217.038 199.357 216.828 199.173 216.673C198.979 216.509 198.751 216.459 198.644 216.55L196.004 220.168C195.817 220.339 195.406 220.272 195.023 219.968C194.868 219.845 194.743 219.694 194.661 219.54C194.497 219.232 194.49 218.948 194.644 218.782L197.324 214.39L197.533 214.157C198.164 213.456 199.201 213.293 200.02 213.76C202.856 215.379 203.409 215.678 206.097 217.585C206.89 218.148 207.16 219.204 206.737 220.08L206.629 220.304C206.348 220.919 205.989 220.965 205.568 221.809C205.146 222.231 204.501 222.555 204.396 222.97L203.539 224.197C203.498 224.453 203.219 224.538 202.867 224.404Z" fill="#FEC7A8"/>
<path d="M198.578 222.42C198.719 222.562 198.774 222.73 198.71 222.824L198.519 223.102C198.438 223.198 198.279 223.223 198.094 223.169L198.032 223.15C197.92 223.117 197.8 223.062 197.692 222.983C197.59 222.909 197.501 222.823 197.43 222.729C197.286 222.539 197.236 222.347 197.294 222.214L197.454 221.877C197.508 221.764 197.685 221.76 197.866 221.872C198.112 222.024 198.38 222.223 198.578 222.42Z" fill="#FCDAC7"/>
<path d="M203.524 223.342C203.652 223.484 203.7 223.673 203.636 223.797L203.447 224.164C203.368 224.294 203.218 224.354 203.046 224.324L202.987 224.314C202.882 224.295 202.772 224.253 202.672 224.18C202.578 224.111 202.498 224.026 202.433 223.927C202.305 223.728 202.263 223.509 202.322 223.339L202.483 222.908C202.537 222.763 202.704 222.724 202.871 222.823C203.098 222.959 203.343 223.144 203.524 223.342Z" fill="#FCDAC7"/>
<path d="M196.095 219.214C196.218 219.353 196.253 219.506 196.178 219.582L195.955 219.807C195.864 219.884 195.704 219.89 195.528 219.823L195.469 219.801C195.361 219.761 195.251 219.702 195.152 219.621C195.059 219.546 194.982 219.461 194.923 219.372C194.804 219.191 194.777 219.017 194.85 218.906L195.048 218.625C195.114 218.531 195.29 218.545 195.455 218.661C195.682 218.82 195.924 219.021 196.095 219.214Z" fill="#FCDAC7"/>
<path d="M199.263 223.081C199.191 222.915 199.187 222.763 199.254 222.66C199.596 222.125 200.691 220.419 201.025 220.018C201.215 219.789 199.278 223.119 199.755 223.642C199.549 223.515 199.366 223.324 199.278 223.119L199.263 223.081Z" fill="#F9C3A1"/>
<path opacity="0.55" d="M200.433 222.899C200.558 223.018 200.614 223.163 200.566 223.25L200.423 223.504C200.362 223.593 200.231 223.623 200.075 223.583L200.022 223.569C199.926 223.545 199.825 223.502 199.73 223.438C199.64 223.377 199.562 223.305 199.497 223.225C199.367 223.065 199.315 222.897 199.355 222.777L199.468 222.471C199.506 222.369 199.653 222.356 199.809 222.447C200.024 222.571 200.258 222.734 200.433 222.899Z" fill="#FCDAC7"/>
<path d="M263.848 244.839L266.008 241.191L264.228 237.346C264.024 236.908 264.413 236.427 264.885 236.535L269.02 237.46L272.127 234.578C272.482 234.251 273.059 234.47 273.103 234.952L273.501 239.17L277.201 241.234C277.623 241.469 277.592 242.086 277.148 242.277L273.26 243.959L272.439 248.116C272.346 248.588 271.751 248.752 271.43 248.387L268.628 245.209L264.422 245.715C263.941 245.771 263.604 245.252 263.848 244.839Z" fill="#466EB6"/>
<path d="M132.053 123.28L134.778 118.679L132.531 113.828C132.275 113.275 132.766 112.667 133.358 112.803L138.576 113.973L142.496 110.338C142.943 109.924 143.668 110.202 143.727 110.807L144.227 116.13L148.896 118.734C149.426 119.03 149.389 119.808 148.828 120.052L143.921 122.172L142.887 127.418C142.77 128.016 142.017 128.217 141.616 127.76L138.083 123.749L132.775 124.384C132.167 124.455 131.741 123.804 132.053 123.28Z" fill="#F79C8D"/>
<path d="M197.57 116.149L190.377 120.947L194.401 127.93L187.522 132.973L190.544 140.12L186.017 144.733L188.35 147.026L194.407 140.854L191.546 134.081L198.699 128.838L194.743 121.969L201.261 117.621L197.57 116.149Z" fill="#F48C7F"/>
<path d="M266.497 206.99L261.409 199.998L254.595 204.3L249.278 197.634L242.261 200.942L237.469 196.607L235.271 199.032L241.684 204.833L248.334 201.698L253.864 208.632L260.566 204.401L265.176 210.737L266.497 206.99Z" fill="#F48C7F"/>
<path d="M20.8115 131.43L24.1041 137.574L31.2047 137.179L34.4047 144.328L41.8354 141.573L45.8131 149.5L52.9692 147.809L58.0454 154.811L55.3947 156.731L51.5991 151.494L44.048 153.281L40.2246 145.662L32.6705 148.464L29.1372 140.57L22.2032 140.959L19.1544 135.262L14.6553 136.469L13.8066 133.309L20.8115 131.43Z" fill="#F7CC7F"/>
<path d="M52.8565 274.496L50.8969 279.384L42.6824 277.097L38.9331 283.889L32.5083 283.183L32.1504 286.438L40.7445 287.382L44.2994 280.942L52.8441 283.321L55.7942 275.968L52.8565 274.496Z" fill="#50BFA5"/>
<path d="M20.1427 194.483L13.9371 196.39L11.9899 202.587C11.8325 203.087 11.1691 203.192 10.8667 202.76L7.1328 197.446L0.640161 197.507C0.115566 197.514 -0.186849 196.915 0.127908 196.495L4.02843 191.302L1.96399 185.146C1.79736 184.649 2.27258 184.177 2.7694 184.346L8.91333 186.451L14.1315 182.584C14.5543 182.273 15.1498 182.578 15.1406 183.103L15.0326 189.595L20.3217 193.36C20.7507 193.666 20.6427 194.329 20.1427 194.483Z" fill="#FED333"/>
<path d="M249.945 163.674L252.494 167.911C252.768 168.371 253.453 168.312 253.648 167.816L255.459 163.215L260.276 162.097C260.798 161.977 260.955 161.311 260.542 160.968L256.724 157.824L257.15 152.899C257.197 152.365 256.61 152.01 256.16 152.297L251.991 154.954L247.436 153.025C246.942 152.815 246.424 153.263 246.56 153.781L247.8 158.567L244.56 162.301C244.208 162.705 244.474 163.338 245.007 163.369L249.945 163.674Z" fill="#F47458"/>
<path d="M240.992 260.709C240.992 262.342 239.668 263.665 238.035 263.665C236.403 263.665 235.079 262.342 235.079 260.709C235.079 259.077 236.403 257.753 238.035 257.753C239.671 257.756 240.992 259.077 240.992 260.709Z" fill="#50BFA5"/>
<path d="M27.2098 233.25C27.2098 234.883 25.7749 236.207 24.0098 236.207C22.2416 236.207 20.8066 234.883 20.8066 233.25C20.8066 231.618 22.2385 230.294 24.0098 230.294C25.7749 230.294 27.2098 231.618 27.2098 233.25Z" fill="#50BFA5"/>
<ellipse cx="280.505" cy="400.441" rx="48.2074" ry="14.088" fill="#2387FF"/>
<path d="M232.297 372.485H328.712V400.881H280.504H232.297V372.485Z" fill="#2387FF"/>
<ellipse cx="280.505" cy="373.145" rx="48.2074" ry="14.088" fill="#57A3FF"/>
<path d="M232.297 345.189H328.712V373.586H280.504H232.297V345.189Z" fill="#57A3FF"/>
<ellipse cx="280.505" cy="343.649" rx="48.2074" ry="14.088" fill="#99C7FF"/>
<path d="M232.297 315.693H328.712V344.089H280.504H232.297V315.693Z" fill="#99C7FF"/>
<ellipse cx="280.503" cy="315.473" rx="48.2074" ry="14.088" fill="#BDD9FF"/>
<defs>
<linearGradient id="paint0_linear_2137_17049" x1="200.617" y1="214.17" x2="190.723" y2="229.893" gradientUnits="userSpaceOnUse">
<stop stop-color="#E39B72"/>
<stop offset="1" stop-color="#FEC8A9"/>
</linearGradient>
<radialGradient id="paint1_radial_2137_17049" cx="0" cy="0" r="1" gradientUnits="userSpaceOnUse" gradientTransform="translate(137.088 163.184) rotate(172.604) scale(16.9553 17.942)">
<stop offset="0.00141166" stop-color="#2B2B2B"/>
<stop offset="0.5125" stop-color="#3D3734"/>
<stop offset="1" stop-color="#352F2B"/>
</radialGradient>
</defs>
</svg>
