<svg width="293" height="391" viewBox="0 0 293 391" fill="none" xmlns="http://www.w3.org/2000/svg">
<ellipse cx="155.778" cy="20.5" rx="11.9068" ry="3.5" fill="white"/>
<path d="M167.685 25C159.891 29.1457 148.562 26.7274 143.871 25V29.711C153.829 33.8566 163.896 31.4383 167.685 29.711V25Z" fill="white"/>
<path d="M167.685 33C159.891 37.7379 148.562 34.9741 143.871 33V38.384C153.829 43.1219 163.896 40.3581 167.685 38.384V33Z" fill="white"/>
<path d="M184.046 30C184.046 45.7512 171.379 58.5 155.779 58.5C140.178 58.5 127.512 45.7512 127.512 30C127.512 14.2488 140.178 1.5 155.779 1.5C171.379 1.5 184.046 14.2488 184.046 30Z" stroke="white" stroke-width="3"/>
<ellipse cx="96.3929" cy="288.93" rx="47.7718" ry="14.07" fill="#2387FF"/>
<path d="M48.6201 261.01H144.164V289.37H96.3919H48.6201V261.01Z" fill="#2387FF"/>
<ellipse cx="96.3929" cy="261.669" rx="47.7718" ry="14.07" fill="#57A3FF"/>
<path d="M48.6201 233.749H144.164V262.109H96.3919H48.6201V233.749Z" fill="#57A3FF"/>
<ellipse cx="96.3929" cy="232.21" rx="47.7718" ry="14.07" fill="#99C7FF"/>
<path d="M48.6201 204.29H144.164V232.65H96.3919H48.6201V204.29Z" fill="#99C7FF"/>
<ellipse cx="96.3919" cy="205.21" rx="47.7718" ry="14.07" fill="#C1DDFF"/>
<path d="M48.6191 177.29H144.163V205.65H96.391H48.6191V177.29Z" fill="#C1DDFF"/>
<ellipse cx="96.391" cy="176.07" rx="47.7718" ry="14.07" fill="#D7E8FF"/>
<ellipse cx="47.7738" cy="343.93" rx="47.7718" ry="14.07" fill="#2387FF"/>
<path d="M0.000976562 316.01H95.5446V344.37H47.7728H0.000976562V316.01Z" fill="#2387FF"/>
<ellipse cx="47.7738" cy="316.669" rx="47.7718" ry="14.07" fill="#57A3FF"/>
<path d="M0.000976562 288.749H95.5446V317.109H47.7728H0.000976562V288.749Z" fill="#57A3FF"/>
<ellipse cx="47.7738" cy="287.21" rx="47.7718" ry="14.07" fill="#99C7FF"/>
<path d="M0.000976562 259.29H95.5446V287.65H47.7728H0.000976562V259.29Z" fill="#99C7FF"/>
<ellipse cx="47.7718" cy="259.07" rx="47.7718" ry="14.07" fill="#BDD9FF"/>
<ellipse cx="245.229" cy="343.93" rx="47.7718" ry="14.07" fill="#2387FF"/>
<path d="M197.456 316.01H293V344.37H245.228H197.456V316.01Z" fill="#2387FF"/>
<ellipse cx="245.229" cy="316.669" rx="47.7718" ry="14.07" fill="#57A3FF"/>
<path d="M197.456 288.749H293V317.109H245.228H197.456V288.749Z" fill="#57A3FF"/>
<ellipse cx="245.229" cy="287.21" rx="47.7718" ry="14.07" fill="#99C7FF"/>
<path d="M197.456 259.29H293V287.65H245.228H197.456V259.29Z" fill="#99C7FF"/>
<ellipse cx="245.227" cy="259.07" rx="47.7718" ry="14.07" fill="#BDD9FF"/>
<ellipse cx="93.4164" cy="376.93" rx="47.7718" ry="14.07" fill="#2387FF"/>
<path d="M45.6436 349.01H141.187V377.37H93.4154H45.6436V349.01Z" fill="#2387FF"/>
<ellipse cx="93.4164" cy="349.669" rx="47.7718" ry="14.07" fill="#57A3FF"/>
<path d="M45.6436 321.749H141.187V350.109H93.4154H45.6436V321.749Z" fill="#57A3FF"/>
<ellipse cx="93.4144" cy="321.07" rx="47.7718" ry="14.07" fill="#BDD9FF"/>
<path d="M179.737 314.24V321.594H150.499V314.24H179.737ZM169.132 302.668V333.723H161.134V302.668H169.132Z" fill="white"/>
</svg>
