<svg width="164" height="138" viewBox="0 0 164 138" fill="none" xmlns="http://www.w3.org/2000/svg">
<g clip-path="url(#clip0_1882_47055)">
<path fill-rule="evenodd" clip-rule="evenodd" d="M163.702 17.8633C163.694 17.767 163.653 17.6763 163.587 17.6062C163.52 17.536 163.432 17.4906 163.336 17.4774C163.24 17.4642 163.143 17.484 163.06 17.5335C162.976 17.5831 162.913 17.6594 162.879 17.75C157.087 31.9412 152.195 46.4826 148.233 61.2878C142.556 66.0797 135.46 68.9152 128.038 66.5334C127.969 66.5138 127.896 66.5127 127.826 66.5301C127.756 66.5475 127.693 66.5829 127.641 66.6327C126.085 68.5854 123.984 70.0322 121.604 70.7895C119.223 71.5468 116.671 71.5803 114.272 70.8858C114.895 69.8253 115.327 68.6641 115.549 67.4549C115.564 67.3937 115.565 67.33 115.552 67.2684C115.539 67.2068 115.513 67.1489 115.475 67.0987C115.437 67.0485 115.388 67.0074 115.332 66.9783C115.277 66.9492 115.215 66.9328 115.152 66.9304C114.208 66.8769 113.269 67.0974 112.448 67.5653C111.627 68.0332 110.96 68.7285 110.525 69.5673C110.472 69.662 110.457 69.7736 110.483 69.8791C110.51 69.9845 110.576 70.0759 110.667 70.1344C111.399 70.6119 112.179 71.0112 112.995 71.3253C111.972 72.8185 110.56 74.004 108.912 74.7536C107.263 75.5033 105.441 75.7885 103.642 75.5784C101.112 75.104 98.8556 73.6889 97.3281 71.6184C95.8007 69.5479 95.1157 66.976 95.4112 64.421C95.4112 63.9957 94.8294 63.8823 94.6307 64.2083C92.6594 67.5492 90.0161 70.4456 86.8678 72.7146C86.3427 69.624 85.8318 66.5192 85.3067 63.4286C85.3067 63.0033 84.6255 63.0742 84.512 63.4286C80.805 74.8512 73.5338 84.7878 63.7636 91.7828C65.2874 80.2777 67.5582 68.8836 70.5614 57.6727C76.7334 54.138 81.5518 48.6512 84.2565 42.0779C87.3787 33.5716 85.1222 24.4841 80.6234 16.9844C78.1496 12.9342 75.1371 9.23811 71.6684 5.99711C68.7166 3.16169 65.1969 0.326279 60.9536 0.0710913C53.8577 -0.368399 49.6002 6.40825 47.4431 12.2918C46.0362 16.7106 45.0852 21.2614 44.6047 25.8735C43.81 31.3884 43.1855 36.9316 42.5894 42.4748C41.7663 50.5274 41.0709 58.6084 40.2904 66.6752L37.225 67.3273L0.326424 75.4082C0.248286 75.4296 0.178171 75.4735 0.124903 75.5345C0.0716359 75.5955 0.0375867 75.6708 0.0269797 75.751C0.0163727 75.8312 0.0297133 75.9128 0.0653089 75.9855C0.100905 76.0582 0.157161 76.1187 0.227071 76.1596C11.8217 83.3758 24.3531 88.1535 37.2959 92.1798C36.7141 96.036 36.0471 99.8779 35.2665 103.677L25.8858 118.237C23.6861 121.668 21.4438 125.071 19.2724 128.516C17.3388 131.208 16.1139 134.343 15.7103 137.632C15.71 137.695 15.7246 137.758 15.7529 137.816C15.7813 137.873 15.8225 137.923 15.8735 137.961C15.9244 138 15.9836 138.026 16.0465 138.038C16.1093 138.049 16.174 138.046 16.2354 138.029C23.3313 135.292 27.8727 129.069 30.782 122.278C33.1966 116.374 34.9712 110.228 36.0755 103.947C36.7141 102.954 37.3385 101.962 37.9771 100.984L42.6037 93.796C57.7037 98.2901 73.1017 102.061 87.7334 107.732C96.1881 110.948 104.276 115.054 111.859 119.981C112.314 120.279 112.725 119.556 112.285 119.258C91.3382 105.45 66.8716 100.119 43.0153 93.073L61.3652 64.577C62.0748 63.457 62.7843 62.337 63.5223 61.217C64.5157 60.8058 65.5092 60.3805 66.4742 59.9127C67.4392 59.4448 68.5179 58.8778 69.5255 58.2965C66.5283 69.6111 64.2764 81.1098 62.7844 92.7185C62.7839 92.7916 62.803 92.8635 62.8396 92.9268C62.8762 92.9901 62.929 93.0424 62.9926 93.0785C63.0562 93.1146 63.1283 93.1332 63.2015 93.1322C63.2746 93.1312 63.3462 93.1108 63.4088 93.073C73.2557 86.2367 80.7025 76.4815 84.6965 65.1866L86.1156 73.5369C86.1334 73.5977 86.1646 73.6537 86.2069 73.7009C86.2491 73.7481 86.3013 73.7854 86.3598 73.8098C86.4183 73.8343 86.4815 73.8454 86.5448 73.8423C86.6082 73.8392 86.67 73.8221 86.7259 73.7921C89.7791 71.6828 92.4077 69.0184 94.4745 65.9379C94.5623 68.4476 95.5092 70.8512 97.1571 72.7476C98.8049 74.644 101.054 75.9184 103.529 76.3581C105.514 76.5955 107.526 76.2771 109.34 75.4385C111.155 74.5998 112.7 73.2739 113.804 71.6088C115.527 72.1395 117.339 72.3238 119.134 72.151C120.93 71.9782 122.673 71.4518 124.263 70.6022C125.311 70.0337 126.267 69.3122 127.101 68.4615C127.655 67.9086 127.811 67.5258 128.634 67.5967C129.457 67.6676 130.195 67.9795 130.962 68.0787C133.423 68.418 135.927 68.2637 138.327 67.625C141.768 66.697 144.981 65.0706 147.765 62.8473C144.756 74.293 142.32 85.8615 140.456 97.5529C139.264 105.114 138.318 112.675 137.618 120.236C137.618 120.761 138.384 120.761 138.441 120.236C140.319 100.542 143.812 81.0349 148.886 61.9116C154.719 56.5299 158.985 49.6715 161.233 42.0637C163.663 34.2422 164.503 26.0139 163.702 17.8633ZM44.6757 31.4025C45.7401 22.8963 46.3503 13.2983 51.4452 6.09636C53.6591 2.94905 56.9515 0.58145 60.9536 0.850815C66.0201 1.19107 70.1641 5.40167 73.4424 8.87507C79.8571 15.7084 85.1789 24.7393 84.8951 34.3939C84.6254 43.7791 78.5089 51.5482 70.8595 56.4818C72.009 52.2287 73.2437 48.1031 74.5919 43.9634C74.748 43.5098 74.081 43.2687 73.8397 43.6515L62.9405 60.5365C56.0007 63.3719 48.4507 64.903 41.1135 66.4483C42.2631 54.7664 43.1997 43.0561 44.6757 31.4025ZM25.1052 87.1469C16.9003 84.1645 8.99773 80.4096 1.50432 75.9328L35.4368 68.5182C37.0263 68.1638 38.6158 67.8377 40.2052 67.5116C39.9214 70.4321 39.6187 73.3526 39.297 76.2731C38.7436 81.2776 38.1333 86.2963 37.3953 91.3008C33.2513 90.0107 29.1499 88.6497 25.1052 87.1469ZM32.8965 113.445C30.3704 122.689 25.9709 132.925 16.6044 136.909C17.2328 133.669 18.581 130.612 20.5497 127.963C22.4419 124.957 24.3767 121.952 26.3541 118.946C29.1357 114.608 31.9267 110.27 34.7272 105.932C34.1738 108.455 33.5777 110.95 32.8965 113.445ZM36.4445 101.735C36.856 99.5377 37.225 97.3403 37.5798 95.157C37.7359 94.2355 37.8778 93.2998 38.0197 92.3216L41.7522 93.4557L36.4445 101.735ZM42.2205 92.7752L38.1616 91.5418C39.3821 83.5034 40.262 75.4224 41 67.3273C48.2004 66.0143 55.2819 64.1178 62.1741 61.6565L42.2205 92.7752ZM64.3596 59.9694L72.8747 46.6571C71.7961 50.1163 70.779 53.6039 69.8234 57.1198C68.0632 58.1821 66.2384 59.1339 64.3596 59.9694ZM111.505 69.6382C111.847 69.0986 112.312 68.6477 112.862 68.3224C113.412 67.9971 114.031 67.8067 114.669 67.7668C114.435 68.7656 114.048 69.7221 113.52 70.6022C112.805 70.347 112.116 70.0242 111.462 69.6382H111.505ZM155.187 53.3912C153.524 55.9119 151.571 58.2292 149.368 60.2955C151.261 53.3581 153.337 46.487 155.598 39.6819C157.869 32.9336 160.367 26.2562 163.021 19.6497C163.816 31.1898 161.587 43.6515 155.187 53.3912Z" fill="white"/>
<path fill-rule="evenodd" clip-rule="evenodd" d="M117.635 86.5955C116.719 86.2904 115.737 86.2454 114.797 86.4657C113.857 86.686 112.997 87.1629 112.313 87.8431C111.93 88.2117 112.526 88.7929 112.909 88.4243C113.485 87.8453 114.213 87.4408 115.009 87.2577C115.805 87.0746 116.637 87.1202 117.408 87.3894C117.919 87.5595 118.132 86.7514 117.635 86.5955Z" fill="white"/>
</g>
<defs>
<clipPath id="clip0_1882_47055">
<rect width="164" height="138" fill="white"/>
</clipPath>
</defs>
</svg>
