<svg width="61" height="81" viewBox="0 0 61 81" fill="none" xmlns="http://www.w3.org/2000/svg">
<path d="M35.5833 21.5146V-0.000976562H3.8125C1.69974 -0.000976562 0 1.6918 0 3.7959V77.2021C0 79.3063 1.69974 80.999 3.8125 80.999H57.1875C59.3003 80.999 61 79.3063 61 77.2021V25.3115H39.3958C37.299 25.3115 35.5833 23.6029 35.5833 21.5146ZM10.1667 11.3896C10.1667 10.6904 10.7354 10.124 11.4375 10.124H24.1458C24.848 10.124 25.4167 10.6904 25.4167 11.3896V13.9209C25.4167 14.6202 24.848 15.1865 24.1458 15.1865H11.4375C10.7354 15.1865 10.1667 14.6202 10.1667 13.9209V11.3896ZM10.1667 21.5146C10.1667 20.8154 10.7354 20.249 11.4375 20.249H24.1458C24.848 20.249 25.4167 20.8154 25.4167 21.5146V24.0459C25.4167 24.7452 24.848 25.3115 24.1458 25.3115H11.4375C10.7354 25.3115 10.1667 24.7452 10.1667 24.0459V21.5146ZM40.7953 60.749H48.2917C49.6959 60.749 50.8333 61.8818 50.8333 63.2803C50.8333 64.6788 49.6959 65.8115 48.2917 65.8115H40.7953C38.1822 65.8115 35.828 64.3655 34.6572 62.0368C34.1886 61.1002 33.3721 61.0053 33.0417 61.0053C32.7113 61.0053 31.8947 61.0987 31.4499 61.9846L30.2315 64.4114C30.0206 64.8319 29.6961 65.1855 29.2946 65.4325C28.893 65.6795 28.4303 65.8102 27.9583 65.8099C27.898 65.8099 27.8392 65.8068 27.7772 65.802C26.7526 65.7308 25.871 65.0506 25.5485 64.0792L22.875 56.0963L21.1896 61.1398C20.2539 63.9337 17.6344 65.8115 14.6765 65.8115H12.7083C11.3041 65.8115 10.1667 64.6788 10.1667 63.2803C10.1667 61.8818 11.3041 60.749 12.7083 60.749H14.6765C15.4438 60.749 16.1237 60.2618 16.3667 59.5372L19.2563 50.893C19.7805 49.341 21.2324 48.2969 22.875 48.2969C24.5176 48.2969 25.9695 49.3394 26.4921 50.893L28.697 57.4805C31.8376 54.9192 37.2831 55.946 39.1814 59.7207C39.5023 60.363 40.1282 60.749 40.7953 60.749ZM59.888 16.6104L44.3362 1.10645C43.6214 0.394531 42.6523 -0.000976562 41.6357 -0.000976562H40.6667V20.249H61V19.284C61 18.2873 60.6029 17.3223 59.888 16.6104Z" fill="white"/>
</svg>
