<svg width="84" height="84" viewBox="0 0 84 84" fill="none" xmlns="http://www.w3.org/2000/svg">
<rect width="84" height="84" rx="42" fill="#3A2C83"/>
<path d="M35.5593 30.2422C35.4976 30.1803 35.4243 30.1312 35.3436 30.0976C35.2629 30.0641 35.1763 30.0469 35.0889 30.0469C35.0015 30.0469 34.915 30.0641 34.8343 30.0976C34.7535 30.1312 34.6802 30.1803 34.6185 30.2422L31.0946 33.7457L29.8384 32.5216C29.7767 32.4597 29.7034 32.4106 29.6227 32.377C29.5419 32.3435 29.4554 32.3263 29.368 32.3263C29.2806 32.3263 29.1941 32.3435 29.1133 32.377C29.0326 32.4106 28.9593 32.4597 28.8976 32.5216L28.0288 33.3915C27.9669 33.4532 27.9178 33.5265 27.8843 33.6072C27.8507 33.6879 27.8335 33.7745 27.8335 33.8619C27.8335 33.9493 27.8507 34.0358 27.8843 34.1165C27.9178 34.1973 27.9669 34.2706 28.0288 34.3323L30.6624 36.9553C30.7938 37.0803 30.9683 37.15 31.1496 37.15C31.331 37.15 31.5054 37.0803 31.6369 36.9553L32.4996 36.0909L36.4951 32.096C36.6196 31.9714 36.6899 31.8028 36.6908 31.6267C36.6918 31.4506 36.6232 31.2812 36.5 31.1553L35.5593 30.2422ZM35.5593 39.0515C35.4976 38.9896 35.4243 38.9405 35.3436 38.907C35.2629 38.8735 35.1763 38.8562 35.0889 38.8562C35.0015 38.8562 34.915 38.8735 34.8343 38.907C34.7535 38.9405 34.6802 38.9896 34.6185 39.0515L31.0946 42.5777L29.8384 41.3547C29.7767 41.2928 29.7034 41.2437 29.6227 41.2102C29.5419 41.1767 29.4554 41.1594 29.368 41.1594C29.2806 41.1594 29.1941 41.1767 29.1133 41.2102C29.0326 41.2437 28.9593 41.2928 28.8976 41.3547L28.0288 42.223C27.9669 42.2847 27.9178 42.358 27.8843 42.4387C27.8507 42.5194 27.8335 42.606 27.8335 42.6934C27.8335 42.7808 27.8507 42.8673 27.8843 42.948C27.9178 43.0288 27.9669 43.1021 28.0288 43.1638L30.6557 45.7923C30.7871 45.9173 30.9614 45.9869 31.1427 45.9869C31.324 45.9869 31.4983 45.9173 31.6297 45.7923L32.4985 44.9241L36.494 40.9275C36.618 40.8038 36.6881 40.6361 36.689 40.4609C36.6899 40.2858 36.6216 40.1173 36.4989 39.9923L35.5593 39.0515ZM31.3751 48.6423C29.9092 48.6423 28.6862 49.8321 28.6862 51.2985C28.6862 52.765 29.9103 53.9548 31.3751 53.9548C32.0796 53.9548 32.7552 53.6749 33.2534 53.1768C33.7515 52.6786 34.0314 52.003 34.0314 51.2985C34.0314 50.594 33.7515 49.9184 33.2534 49.4203C32.7552 48.9221 32.0796 48.6423 31.3751 48.6423ZM55.2814 49.5277H39.3439C39.1091 49.5277 38.8839 49.621 38.7178 49.787C38.5518 49.9531 38.4585 50.1783 38.4585 50.4131V52.1839C38.4585 52.4188 38.5518 52.644 38.7178 52.81C38.8839 52.9761 39.1091 53.0694 39.3439 53.0694H55.2814C55.5162 53.0694 55.7415 52.9761 55.9075 52.81C56.0735 52.644 56.1668 52.4188 56.1668 52.1839V50.4131C56.1668 50.1783 56.0735 49.9531 55.9075 49.787C55.7415 49.621 55.5162 49.5277 55.2814 49.5277ZM55.2814 31.8193H39.3439C39.1091 31.8193 38.8839 31.9126 38.7178 32.0787C38.5518 32.2447 38.4585 32.4699 38.4585 32.7048V34.4756C38.4585 34.7104 38.5518 34.9356 38.7178 35.1017C38.8839 35.2677 39.1091 35.361 39.3439 35.361H55.2814C55.5162 35.361 55.7415 35.2677 55.9075 35.1017C56.0735 34.9356 56.1668 34.7104 56.1668 34.4756V32.7048C56.1668 32.4699 56.0735 32.2447 55.9075 32.0787C55.7415 31.9126 55.5162 31.8193 55.2814 31.8193V31.8193ZM55.2814 40.6735H39.3439C39.1091 40.6735 38.8839 40.7668 38.7178 40.9329C38.5518 41.0989 38.4585 41.3241 38.4585 41.5589V43.3298C38.4585 43.5646 38.5518 43.7898 38.7178 43.9559C38.8839 44.1219 39.1091 44.2152 39.3439 44.2152H55.2814C55.5162 44.2152 55.7415 44.1219 55.9075 43.9559C56.0735 43.7898 56.1668 43.5646 56.1668 43.3298V41.5589C56.1668 41.3241 56.0735 41.0989 55.9075 40.9329C55.7415 40.7668 55.5162 40.6735 55.2814 40.6735Z" fill="white"/>
</svg>
