<svg width="84" height="84" viewBox="0 0 84 84" fill="none" xmlns="http://www.w3.org/2000/svg">
<rect width="84" height="84" rx="42" fill="#3A2C83"/>
<path d="M54.6679 45.3645L52.3352 43.9758C52.5707 42.6661 52.5707 41.3226 52.3352 40.0129L54.6679 38.6242C54.9362 38.4661 55.0567 38.1387 54.9691 37.8339C54.3613 35.8242 53.3264 34.0065 51.9738 32.4936C51.7658 32.2621 51.4263 32.2057 51.1634 32.3637L48.8308 33.7525C47.8506 32.8831 46.7226 32.2113 45.5015 31.771V28.9992C45.5015 28.6831 45.288 28.4065 44.9868 28.3388C42.9772 27.8759 40.9183 27.8984 39.0073 28.3388C38.7061 28.4065 38.4925 28.6831 38.4925 28.9992V31.7767C37.2769 32.2226 36.1489 32.8944 35.1633 33.7581L32.8361 32.3694C32.5678 32.2113 32.2338 32.2621 32.0257 32.4992C30.6732 34.0065 29.6383 35.8242 29.0305 37.8395C28.9374 38.1444 29.0633 38.4718 29.3316 38.6299L31.6643 40.0186C31.4288 41.3282 31.4288 42.6718 31.6643 43.9814L29.3316 45.3701C29.0633 45.5282 28.9428 45.8556 29.0305 46.1605C29.6383 48.1701 30.6732 49.9879 32.0257 51.5008C32.2338 51.7322 32.5733 51.7887 32.8361 51.6306L35.1688 50.2419C36.1489 51.1113 37.2769 51.783 38.498 52.2233V55.0008C38.498 55.3169 38.7116 55.5935 39.0127 55.6612C41.0223 56.1241 43.0812 56.1016 44.9923 55.6612C45.2934 55.5935 45.507 55.3169 45.507 55.0008V52.2233C46.7226 51.7774 47.8506 51.1056 48.8362 50.2419L51.1689 51.6306C51.4372 51.7887 51.7712 51.7379 51.9793 51.5008C53.3318 49.9935 54.3667 48.1758 54.9746 46.1605C55.0567 45.85 54.9362 45.5226 54.6679 45.3645V45.3645ZM41.997 46.5105C39.5822 46.5105 37.6164 44.4839 37.6164 41.9944C37.6164 39.5048 39.5822 37.4782 41.997 37.4782C44.4118 37.4782 46.3776 39.5048 46.3776 41.9944C46.3776 44.4839 44.4118 46.5105 41.997 46.5105Z" fill="white"/>
</svg>
