<svg width="84" height="84" viewBox="0 0 84 84" fill="none" xmlns="http://www.w3.org/2000/svg">
<rect width="84" height="84" rx="42" fill="#3A2C83"/>
<path d="M56.1663 42.0007C56.1663 49.8264 49.8232 56.1673 41.9997 56.1673C34.1762 56.1673 27.833 49.8264 27.833 42.0007C27.833 34.1795 34.1762 27.834 41.9997 27.834C49.8232 27.834 56.1663 34.1795 56.1663 42.0007ZM41.9997 44.8568C40.5484 44.8568 39.372 46.0333 39.372 47.4845C39.372 48.9357 40.5484 50.1122 41.9997 50.1122C43.4509 50.1122 44.6274 48.9357 44.6274 47.4845C44.6274 46.0333 43.4509 44.8568 41.9997 44.8568ZM39.5049 35.4117L39.9287 43.1805C39.9485 43.544 40.2491 43.8286 40.6131 43.8286H43.3862C43.7503 43.8286 44.0509 43.544 44.0707 43.1805L44.4944 35.4117C44.5159 35.019 44.2032 34.6888 43.81 34.6888H40.1893C39.7961 34.6888 39.4835 35.019 39.5049 35.4117Z" fill="white"/>
</svg>
