<svg width="84" height="84" viewBox="0 0 84 84" fill="none" xmlns="http://www.w3.org/2000/svg">
<rect width="84" height="84" rx="42" fill="#23B000"/>
<rect width="84" height="84" rx="42" fill="url(#paint0_linear_1413_5321)"/>
<mask id="mask0_1413_5321" style="mask-type:alpha" maskUnits="userSpaceOnUse" x="29" y="30" width="25" height="25">
<rect x="29" y="30" width="25" height="25" fill="#C4C4C4"/>
</mask>
<g mask="url(#mask0_1413_5321)">
<path d="M49.3125 32.2012V52.5137C49.3125 53.8081 48.2632 54.8574 46.9688 54.8574H36.0312C34.7368 54.8574 33.6875 53.8081 33.6875 52.5137V32.2012C33.6875 30.9067 34.7368 29.8574 36.0312 29.8574H46.9688C48.2632 29.8574 49.3125 30.9067 49.3125 32.2012ZM54 35.0332V35.6191C54 35.6968 53.9691 35.7714 53.9142 35.8263C53.8592 35.8812 53.7847 35.9121 53.707 35.9121H52.8281V36.2051C52.8281 36.2828 52.7973 36.3573 52.7423 36.4122C52.6874 36.4672 52.6129 36.498 52.5352 36.498H50.4844V34.1543H52.5352C52.6129 34.1543 52.6874 34.1852 52.7423 34.2401C52.7973 34.295 52.8281 34.3696 52.8281 34.4473V34.7402H53.707C53.7847 34.7402 53.8592 34.7711 53.9142 34.826C53.9691 34.881 54 34.9555 54 35.0332ZM54 39.7207V40.3066C54 40.3843 53.9691 40.4589 53.9142 40.5138C53.8592 40.5687 53.7847 40.5996 53.707 40.5996H52.8281V40.8926C52.8281 40.9703 52.7973 41.0448 52.7423 41.0997C52.6874 41.1547 52.6129 41.1855 52.5352 41.1855H50.4844V38.8418H52.5352C52.6129 38.8418 52.6874 38.8727 52.7423 38.9276C52.7973 38.9825 52.8281 39.0571 52.8281 39.1348V39.4277H53.707C53.7847 39.4277 53.8592 39.4586 53.9142 39.5135C53.9691 39.5685 54 39.643 54 39.7207ZM54 44.4082V44.9941C54 45.0718 53.9691 45.1464 53.9142 45.2013C53.8592 45.2562 53.7847 45.2871 53.707 45.2871H52.8281V45.5801C52.8281 45.6578 52.7973 45.7323 52.7423 45.7872C52.6874 45.8422 52.6129 45.873 52.5352 45.873H50.4844V43.5293H52.5352C52.6129 43.5293 52.6874 43.5602 52.7423 43.6151C52.7973 43.67 52.8281 43.7446 52.8281 43.8223V44.1152H53.707C53.7847 44.1152 53.8592 44.1461 53.9142 44.201C53.9691 44.256 54 44.3305 54 44.4082ZM54 49.0957V49.6816C54 49.7593 53.9691 49.8339 53.9142 49.8888C53.8592 49.9437 53.7847 49.9746 53.707 49.9746H52.8281V50.2676C52.8281 50.3453 52.7973 50.4198 52.7423 50.4747C52.6874 50.5297 52.6129 50.5605 52.5352 50.5605H50.4844V48.2168H52.5352C52.6129 48.2168 52.6874 48.2477 52.7423 48.3026C52.7973 48.3575 52.8281 48.4321 52.8281 48.5098V48.8027H53.707C53.7847 48.8027 53.8592 48.8336 53.9142 48.8885C53.9691 48.9435 54 49.018 54 49.0957ZM30.4648 48.2168H32.5156V50.5605H30.4648C30.3871 50.5605 30.3126 50.5297 30.2577 50.4747C30.2027 50.4198 30.1719 50.3453 30.1719 50.2676V49.9746H29.293C29.2153 49.9746 29.1408 49.9437 29.0858 49.8888C29.0309 49.8339 29 49.7593 29 49.6816V49.0957C29 49.018 29.0309 48.9435 29.0858 48.8885C29.1408 48.8336 29.2153 48.8027 29.293 48.8027H30.1719V48.5098C30.1719 48.4321 30.2027 48.3575 30.2577 48.3026C30.3126 48.2477 30.3871 48.2168 30.4648 48.2168ZM30.4648 43.5293H32.5156V45.873H30.4648C30.3871 45.873 30.3126 45.8422 30.2577 45.7872C30.2027 45.7323 30.1719 45.6578 30.1719 45.5801V45.2871H29.293C29.2153 45.2871 29.1408 45.2562 29.0858 45.2013C29.0309 45.1464 29 45.0718 29 44.9941V44.4082C29 44.3305 29.0309 44.256 29.0858 44.201C29.1408 44.1461 29.2153 44.1152 29.293 44.1152H30.1719V43.8223C30.1719 43.7446 30.2027 43.67 30.2577 43.6151C30.3126 43.5602 30.3871 43.5293 30.4648 43.5293ZM30.4648 38.8418H32.5156V41.1855H30.4648C30.3871 41.1855 30.3126 41.1547 30.2577 41.0997C30.2027 41.0448 30.1719 40.9703 30.1719 40.8926V40.5996H29.293C29.2153 40.5996 29.1408 40.5687 29.0858 40.5138C29.0309 40.4589 29 40.3843 29 40.3066V39.7207C29 39.643 29.0309 39.5685 29.0858 39.5135C29.1408 39.4586 29.2153 39.4277 29.293 39.4277H30.1719V39.1348C30.1719 39.0571 30.2027 38.9825 30.2577 38.9276C30.3126 38.8727 30.3871 38.8418 30.4648 38.8418ZM30.4648 34.1543H32.5156V36.498H30.4648C30.3871 36.498 30.3126 36.4672 30.2577 36.4122C30.2027 36.3573 30.1719 36.2828 30.1719 36.2051V35.9121H29.293C29.2153 35.9121 29.1408 35.8812 29.0858 35.8263C29.0309 35.7714 29 35.6968 29 35.6191V35.0332C29 34.9555 29.0309 34.881 29.0858 34.826C29.1408 34.7711 29.2153 34.7402 29.293 34.7402H30.1719V34.4473C30.1719 34.3696 30.2027 34.295 30.2577 34.2401C30.3126 34.1852 30.3871 34.1543 30.4648 34.1543Z" fill="white"/>
</g>
<defs>
<linearGradient id="paint0_linear_1413_5321" x1="-4.61036" y1="-26.7343" x2="45.8865" y2="50.4354" gradientUnits="userSpaceOnUse">
<stop stop-color="#6C73DF"/>
<stop offset="1" stop-color="#3344D4"/>
</linearGradient>
</defs>
</svg>
