<svg width="84" height="84" viewBox="0 0 84 84" fill="none" xmlns="http://www.w3.org/2000/svg">
<rect width="84" height="84" rx="42" fill="#3A2C83"/>
<path d="M37.7497 41.9994C38.8704 41.9994 39.966 41.667 40.8979 41.0443C41.8298 40.4217 42.5561 39.5367 42.985 38.5012C43.4139 37.4658 43.5261 36.3264 43.3075 35.2272C43.0888 34.1279 42.5491 33.1182 41.7566 32.3257C40.9641 31.5332 39.9544 30.9936 38.8552 30.7749C37.756 30.5563 36.6166 30.6685 35.5811 31.0974C34.5457 31.5263 33.6607 32.2526 33.038 33.1845C32.4154 34.1163 32.083 35.2119 32.083 36.3327C32.083 37.8356 32.68 39.2769 33.7427 40.3396C34.8054 41.4023 36.2468 41.9994 37.7497 41.9994ZM41.9997 44.8327C42.0029 44.3595 42.1263 43.8949 42.3583 43.4824C42.1458 43.4603 41.9377 43.416 41.7163 43.416H40.977C39.9651 43.8827 38.864 44.1243 37.7497 44.1243C36.6353 44.1243 35.5343 43.8827 34.5223 43.416H33.783C32.2051 43.4164 30.6919 44.0434 29.5761 45.1591C28.4603 46.2749 27.8334 47.7881 27.833 49.366V51.2077C27.833 51.7713 28.0569 52.3118 28.4554 52.7103C28.8539 53.1088 29.3944 53.3327 29.958 53.3327H42.3937C42.1391 52.9038 42.0031 52.4148 41.9997 51.916V44.8327ZM54.7497 43.416H53.333V39.8744C53.333 38.935 52.9599 38.0342 52.2957 37.37C51.6315 36.7058 50.7306 36.3327 49.7913 36.3327C48.852 36.3327 47.9512 36.7058 47.287 37.37C46.6228 38.0342 46.2497 38.935 46.2497 39.8744V43.416H44.833C44.4573 43.416 44.097 43.5653 43.8313 43.831C43.5656 44.0966 43.4163 44.457 43.4163 44.8327V51.916C43.4163 52.2917 43.5656 52.6521 43.8313 52.9178C44.097 53.1834 44.4573 53.3327 44.833 53.3327H54.7497C55.1254 53.3327 55.4857 53.1834 55.7514 52.9178C56.0171 52.6521 56.1663 52.2917 56.1663 51.916V44.8327C56.1663 44.457 56.0171 44.0966 55.7514 43.831C55.4857 43.5653 55.1254 43.416 54.7497 43.416ZM49.7913 49.791C49.5112 49.791 49.2373 49.7079 49.0043 49.5523C48.7713 49.3966 48.5897 49.1754 48.4825 48.9165C48.3753 48.6576 48.3472 48.3728 48.4019 48.098C48.4566 47.8232 48.5915 47.5707 48.7896 47.3726C48.9877 47.1745 49.2402 47.0396 49.515 46.9849C49.7898 46.9302 50.0746 46.9583 50.3335 47.0655C50.5923 47.1727 50.8136 47.3543 50.9693 47.5873C51.1249 47.8203 51.208 48.0942 51.208 48.3744C51.208 48.7501 51.0588 49.1104 50.7931 49.3761C50.5274 49.6418 50.1671 49.791 49.7913 49.791ZM51.208 43.416H48.3747V39.8744C48.3747 39.4986 48.5239 39.1383 48.7896 38.8726C49.0553 38.6069 49.4156 38.4577 49.7913 38.4577C50.1671 38.4577 50.5274 38.6069 50.7931 38.8726C51.0588 39.1383 51.208 39.4986 51.208 39.8744V43.416Z" fill="white"/>
</svg>
