<svg width="294" height="232" fill="none" xmlns="http://www.w3.org/2000/svg"><path d="m20 84.617 10.3 6.217-2.734-11.717 9.1-7.883-11.983-1.017L20 59.167l-4.684 11.05-11.983 1.017 9.1 7.883L9.7 90.834 20 84.617zM76 67.502l13.39 8.082-3.554-15.232 11.83-10.248-15.578-1.322L76 34.417 69.91 48.782l-15.578 1.322 11.83 10.248-3.553 15.232L76 67.502zM218 67.502l13.39 8.082-3.554-15.232 11.83-10.248-15.578-1.322L218 34.417l-6.089 14.365-15.578 1.322 11.83 10.248-3.553 15.232L218 67.502zM147 51.83l18.025 10.879-4.784-20.505 15.925-13.795-20.97-1.78L147 7.293l-8.196 19.337-20.971 1.78 15.925 13.796-4.783 20.504L147 51.829zM274 84.617l10.3 6.217-2.734-11.717 9.1-7.883-11.983-1.017L274 59.167l-4.684 11.05-11.983 1.017 9.1 7.883-2.733 11.717 10.3-6.217z" fill="#FFD215"/><path d="M190.34 158.209v-2.08a12.501 12.501 0 0 0-12.5-12.5H148.7c.58-2.3 2.29-8.1 5.72-12 4.37-5 9.73-18.85 6.75-31-2.98-12.15-10.52-17.06-14.88-13.49-4.36 3.57-4.17 21.43-13.69 30.36s-20 27-24.6 29.56H86.37v71.43h18.06s4.37 5 19.45 5c.32 0-.83-.07 45.89-.07 11.23 0 15-14.28 8.72-18.56 6.16-3.62 8.68-12.33 2.64-16.83 11.13-6.9 8.49-17.81 3.21-20.48a11.277 11.277 0 0 0 6-9.34z" fill="#FFD9B4" stroke="#E19A57" stroke-width="6.34" stroke-miterlimit="10"/><path d="M78.04 137.429H49.13a7.12 7.12 0 0 0-7.12 7.12v76.92a7.12 7.12 0 0 0 7.12 7.12h28.91a7.12 7.12 0 0 0 7.12-7.12v-76.92a7.12 7.12 0 0 0-7.12-7.12z" fill="#31256C"/><path d="M43 183.119v38.36a7.105 7.105 0 0 0 2.086 5.031 7.106 7.106 0 0 0 5.034 2.079h28.92a7.11 7.11 0 0 0 7.12-7.11v-38.36H43z" fill="#31256C" style="mix-blend-mode:multiply" opacity=".4"/><path d="M79.04 137.429H50.13a7.12 7.12 0 0 0-7.12 7.12v76.92a7.12 7.12 0 0 0 7.12 7.12h28.91a7.12 7.12 0 0 0 7.12-7.12v-76.92a7.12 7.12 0 0 0-7.12-7.12z" stroke="#E19A57" stroke-width="6.34" stroke-miterlimit="10"/><path d="M77.51 208.239a6.002 6.002 0 0 1-7.17 5.885 5.997 5.997 0 0 1-4.715-4.714 6.001 6.001 0 0 1 5.885-7.171 5.947 5.947 0 0 1 4.257 1.743 5.951 5.951 0 0 1 1.743 4.257z" fill="#fff"/></svg>