<svg width="72" height="72" viewBox="0 0 72 72" fill="none" xmlns="http://www.w3.org/2000/svg">
<mask id="mask0_1299_5809" style="mask-type:alpha" maskUnits="userSpaceOnUse" x="0" y="0" width="72" height="72">
<rect width="72" height="72" fill="#C4C4C4"/>
</mask>
<g mask="url(#mask0_1299_5809)">
</g>
<path d="M9 60.375C9 63.4805 11.4955 66 14.5714 66H55.4286C58.5045 66 61 63.4805 61 60.375V28.5H9V60.375ZM16.4286 37.875C16.4286 36.8438 17.2643 36 18.2857 36H29.4286C30.45 36 31.2857 36.8438 31.2857 37.875V49.125C31.2857 50.1562 30.45 51 29.4286 51H18.2857C17.2643 51 16.4286 50.1562 16.4286 49.125V37.875ZM55.4286 13.5H49.8571V7.875C49.8571 6.84375 49.0214 6 48 6H44.2857C43.2643 6 42.4286 6.84375 42.4286 7.875V13.5H27.5714V7.875C27.5714 6.84375 26.7357 6 25.7143 6H22C20.9786 6 20.1429 6.84375 20.1429 7.875V13.5H14.5714C11.4955 13.5 9 16.0195 9 19.125V24.75H61V19.125C61 16.0195 58.5045 13.5 55.4286 13.5Z" fill="#2488FF"/>
</svg>
