<svg width="16" height="16" viewBox="0 0 16 16" fill="none" xmlns="http://www.w3.org/2000/svg">
<path d="M7.49444 1.89416C4.97608 2.11291 2.81592 3.87384 2.12686 6.27736C1.94092 6.91994 1.88897 7.29728 1.8917 8.01369C1.8917 8.69455 1.93545 9.03088 2.10498 9.64884C2.66827 11.6887 4.31163 13.332 6.35147 13.8953C6.96397 14.0621 7.30577 14.1059 7.98663 14.1086C8.64835 14.1113 8.92452 14.0785 9.51514 13.9309C11.2132 13.507 12.6898 12.3121 13.4882 10.7207C13.7343 10.234 13.9558 9.52033 14.0597 8.88869C14.1335 8.44025 14.128 7.50783 14.0487 7.04298C13.8163 5.6758 13.2175 4.53283 12.2468 3.59494C11.2378 2.6215 9.96085 2.03361 8.57452 1.90509C8.28194 1.87775 7.746 1.87228 7.49444 1.89416ZM8.83429 2.81564C9.38663 2.91408 9.78311 3.04259 10.2671 3.27228C11.3581 3.79455 12.203 4.63947 12.7308 5.73595C13.4226 7.1797 13.4226 8.83127 12.728 10.2695C11.4675 12.8863 8.34757 13.9828 5.7335 12.7278C4.63975 12.2028 3.79483 11.3578 3.26983 10.2641C3.04014 9.78283 2.91709 9.39455 2.81319 8.82033C2.74756 8.45666 2.74756 7.54338 2.81319 7.1797C2.91709 6.60548 3.04014 6.2172 3.26983 5.73595C3.60342 5.04142 4.04639 4.46994 4.62335 3.98595C5.41905 3.31877 6.36788 2.90861 7.42608 2.78009C7.71866 2.74181 8.54171 2.76369 8.83429 2.81564Z" fill="#FFC100"/>
<path d="M7.56276 3.6414C6.87643 3.7289 6.23385 3.95038 5.68971 4.28671C4.64244 4.93749 3.91783 6.00937 3.69088 7.24804C3.61432 7.65546 3.61979 8.40194 3.70182 8.80663C3.85494 9.57499 4.16666 10.2285 4.66158 10.8219C5.17565 11.4344 5.87838 11.9074 6.64401 12.1535C7.16354 12.3203 7.4151 12.3586 8.00026 12.3586C8.53619 12.3586 8.77135 12.3285 9.21705 12.1973C10.803 11.7379 11.9678 10.4555 12.2987 8.8121C12.3862 8.38007 12.3862 7.63085 12.2987 7.19335C11.9432 5.4078 10.6061 4.06249 8.83151 3.70702C8.56627 3.65233 7.78971 3.61405 7.56276 3.6414ZM8.24088 5.88632C8.27916 5.91366 8.33658 5.97382 8.36666 6.01483C8.42135 6.08593 8.42408 6.12694 8.42408 6.68749C8.42408 7.34647 8.42135 7.35194 8.23541 7.4914C8.12877 7.57069 7.87174 7.57069 7.7651 7.4914C7.5819 7.35741 7.57643 7.33554 7.56823 6.76132C7.56276 6.47147 7.56549 6.19804 7.57643 6.14882C7.59557 6.03944 7.71041 5.89999 7.82252 5.85077C7.9319 5.79882 8.15065 5.81796 8.24088 5.88632ZM7.36041 7.63358C7.50533 7.74022 7.54908 7.82772 7.54908 7.99999C7.54908 8.17226 7.50533 8.25975 7.36041 8.3664C7.29205 8.41835 7.2401 8.42382 6.74791 8.43202C6.13815 8.44296 6.04791 8.42655 5.92487 8.2871C5.78268 8.12577 5.77721 7.88515 5.91393 7.72382C6.04244 7.57343 6.09713 7.56249 6.72057 7.57069C7.24283 7.57616 7.29205 7.58163 7.36041 7.63358ZM9.98541 7.63358C10.1303 7.74022 10.1741 7.82772 10.1741 7.99999C10.1741 8.17226 10.1303 8.25975 9.98541 8.3664C9.91705 8.41835 9.8651 8.42382 9.37291 8.43202C8.76315 8.44296 8.67291 8.42655 8.54987 8.2871C8.40768 8.12577 8.40221 7.88515 8.53893 7.72382C8.66744 7.57343 8.72213 7.56249 9.34557 7.57069C9.86783 7.57616 9.91705 7.58163 9.98541 7.63358ZM8.24088 8.51132C8.27916 8.53866 8.33658 8.59882 8.36666 8.63983C8.42135 8.71093 8.42408 8.75194 8.42408 9.31249C8.42408 9.97147 8.42135 9.97694 8.23541 10.1164C8.12877 10.1957 7.87174 10.1957 7.7651 10.1164C7.5819 9.98241 7.57643 9.96054 7.56823 9.38632C7.56276 9.09647 7.56549 8.82304 7.57643 8.77382C7.59557 8.66444 7.71041 8.52499 7.82252 8.47577C7.9319 8.42382 8.15065 8.44296 8.24088 8.51132Z" fill="#FFC100"/>
</svg>
