<svg width="29" height="28" viewBox="0 0 29 28" fill="none" xmlns="http://www.w3.org/2000/svg">
<g clip-path="url(#clip0_1904_57761)">
<path d="M25.3302 8.29688C25.3479 8.54559 25.3479 8.79437 25.3479 9.04309C25.3479 16.6293 19.5911 25.3705 9.06938 25.3705C5.82783 25.3705 2.81658 24.4288 0.283569 22.7944C0.744132 22.8476 1.18692 22.8654 1.6652 22.8654C4.33987 22.8654 6.80206 21.9593 8.76825 20.4137C6.25295 20.3603 4.14506 18.7081 3.4188 16.4339C3.7731 16.4872 4.12734 16.5227 4.49935 16.5227C5.01302 16.5227 5.52675 16.4517 6.00498 16.3273C3.38341 15.7943 1.41718 13.4847 1.41718 10.6954V10.6243C2.17882 11.0507 3.06456 11.3172 4.0033 11.3527C2.46223 10.3222 1.45262 8.56337 1.45262 6.57351C1.45262 5.50754 1.73598 4.53039 2.23198 3.67759C5.04841 7.15981 9.28192 9.43388 14.029 9.68266C13.9405 9.25626 13.8873 8.81214 13.8873 8.36797C13.8873 5.2055 16.4381 2.62939 19.6087 2.62939C21.2561 2.62939 22.744 3.32228 23.7891 4.44157C25.0821 4.19285 26.322 3.71314 27.4203 3.05579C26.9951 4.38831 26.0918 5.5076 24.905 6.21821C26.0564 6.0939 27.1723 5.77403 28.1997 5.32992C27.4204 6.46692 26.4461 7.47957 25.3302 8.29688Z" fill="white"/>
</g>
<defs>
<clipPath id="clip0_1904_57761">
<rect width="27.9162" height="28" fill="white" transform="translate(0.283569)"/>
</clipPath>
</defs>
</svg>
