<svg width="162" height="172" fill="none" xmlns="http://www.w3.org/2000/svg"><path d="M101.662 78.84v88.618a4.548 4.548 0 0 1-4.55 4.542H4.557a4.301 4.301 0 0 1-1.468-.252A4.54 4.54 0 0 1 0 167.458V78.841a4.545 4.545 0 0 1 4.55-4.543h92.555c1.238 0 2.354.49 3.182 1.296a4.498 4.498 0 0 1 1.375 3.247z" fill="#fff"/><path d="M94.643 81.757v79.776c0 .007-.007.007-.007.007H6.185V81.757h88.458z" fill="#4C3B9C"/><path d="M94.643 107.703v50.445c0 2.7-1.821 4.334-4.521 4.334H10.706c-2.7 0-4.521.13-4.521-2.57v-35.759c5.838 2.621 17.97 6.559 31 1.433 17.574-6.919 30.835-19.77 57.458-17.883z" fill="#271D5A"/><path d="M34.031 105.348a6.09 6.09 0 1 0 0-12.181 6.09 6.09 0 0 0 0 12.181z" fill="#FFD215"/><path d="M4.442 102.498s1.325-3.585 4.63-3.21c3.304.374 3.398 6.075 3.398 6.075s.619-1.353 2.527-1.166c1.907.187 2.267 2.326 2.267 2.326s4.853-2.319 6.156.986c.396 1.001-.82 1.598-2.794 1.929-5.32.907-16.184-.05-16.184-.05v-6.89zM161.626 84.758 76.868 97.206 71.31 59.337l-1.426-9.705-5.464-37.17L149.164 0l12.462 84.758z" fill="#fff"/><path d="m152.778 80.302-69.33 10.187-4.852-33.016-5.342-36.321 69.337-10.187 1.44 9.798 8.747 59.539z" fill="#4C3B9C"/><path d="m152.778 80.302-69.33 10.187-4.852-33.016c2.67-6.27 7.437-13.679 14.989-14.003 13.211-.583 12.908 18.344 23.693 16.019 10.029-2.167 13.707-32.837 26.753-38.718l8.747 59.531z" fill="#271D5A"/><path d="M112.108 38.358a4.954 4.954 0 1 0 0-9.907 4.954 4.954 0 0 0 0 9.907z" fill="#FFD215"/><path d="M144.901 16.285s-2.822-4.434-5.378-2.555-1.209 5.378-1.209 5.378-3.766-2.283-6.048 0c-2.282 2.282-.273 7.17-.273 7.17s-4.932-.194-4.572 2.174c.403 2.62 18.553-1.879 18.553-1.879l-1.073-10.288z" fill="#fff"/><path opacity=".22" d="m149.164 0-1.591 2.145h-.008l-80.301 12.21 5.19 35.277 1.419 9.705 5.104 34.766-2.11 3.103-5.557-37.869-1.426-9.705-5.464-37.17L149.164 0z" fill="url(#a)"/><defs><linearGradient id="a" x1="9.277" y1="-9.075" x2="150.476" y2="69.43" gradientUnits="userSpaceOnUse"><stop stop-color="#4B596D" stop-opacity="0"/><stop offset="1" stop-color="#B9EFFF"/></linearGradient></defs></svg>