<svg width="26" height="26" viewBox="0 0 26 26" fill="none" xmlns="http://www.w3.org/2000/svg">
<path d="M12.2401 0.888456C12.6392 0.421791 13.3608 0.421792 13.7599 0.888456L15.6635 3.11391C15.9075 3.39927 16.2909 3.52384 16.6561 3.43645L19.5042 2.75488C20.1014 2.61196 20.6852 3.03607 20.7338 3.64823L20.9657 6.56752C20.9954 6.94186 21.2324 7.26798 21.5792 7.41194L24.2839 8.53459C24.8511 8.77 25.0741 9.45624 24.7536 9.98007L23.2253 12.4781C23.0293 12.7984 23.0293 13.2016 23.2253 13.5219L24.7536 16.0199C25.0741 16.5438 24.8511 17.23 24.2839 17.4654L21.5792 18.5881C21.2324 18.732 20.9954 19.0581 20.9657 19.4325L20.7338 22.3518C20.6852 22.9639 20.1014 23.388 19.5042 23.2451L16.6561 22.5636C16.2909 22.4762 15.9075 22.6007 15.6635 22.8861L13.7599 25.1115C13.3608 25.5782 12.6392 25.5782 12.2401 25.1115L10.3365 22.8861C10.0925 22.6007 9.70908 22.4762 9.34388 22.5636L6.49581 23.2451C5.89859 23.388 5.31484 22.9639 5.26621 22.3518L5.03432 19.4325C5.00459 19.0581 4.76764 18.732 4.42082 18.5881L1.71607 17.4654C1.1489 17.23 0.925928 16.5438 1.24641 16.0199L2.77472 13.5219C2.97069 13.2016 2.97069 12.7984 2.77472 12.4781L1.24641 9.98007C0.925927 9.45624 1.1489 8.77 1.71607 8.53459L4.42082 7.41194C4.76764 7.26798 5.00459 6.94186 5.03432 6.56752L5.26621 3.64823C5.31484 3.03607 5.89859 2.61196 6.49581 2.75488L9.34388 3.43645C9.70908 3.52384 10.0925 3.39927 10.3365 3.11391L12.2401 0.888456Z" fill="white"/>
<path d="M18.5364 9.61691C18.8588 9.92075 18.8588 10.4117 18.5364 10.7156L11.9328 16.9382C11.6104 17.242 11.0893 17.242 10.7669 16.9382L7.46441 13.8269C7.14207 13.523 7.14207 13.032 7.46441 12.7282C7.78679 12.4244 8.3094 12.4244 8.63184 12.7282L11.3267 15.2877L17.3704 9.61691C17.6929 9.31259 18.2139 9.31259 18.5364 9.61691Z" fill="#271D5A"/>
</svg>
