<svg width="38" height="38" viewBox="0 0 38 38" fill="none" xmlns="http://www.w3.org/2000/svg">
<path d="M19 0C8.50656 0 0 8.50656 0 19C0 29.4934 8.50656 38 19 38C29.4934 38 38 29.4934 38 19C38 8.50656 29.4934 0 19 0ZM32.3074 9.15976L27.4502 14.0169C26.6084 12.5951 25.4069 11.3928 23.9831 10.5498L28.8402 5.69265C30.1599 6.67182 31.3282 7.84007 32.3074 9.15976ZM19 26.3548C14.9381 26.3548 11.6452 23.0619 11.6452 19C11.6452 14.9381 14.9381 11.6452 19 11.6452C23.0619 11.6452 26.3548 14.9381 26.3548 19C26.3548 23.0619 23.0619 26.3548 19 26.3548ZM9.15976 5.69265L14.0169 10.5498C12.5951 11.3916 11.3928 12.5931 10.5498 14.0169L5.69265 9.15976C6.6718 7.84005 7.84005 6.6718 9.15976 5.69265ZM5.69265 28.8402L10.5498 23.9831C11.3916 25.4049 12.5931 26.6072 14.0169 27.4502L9.15976 32.3074C7.84007 31.3282 6.67182 30.1599 5.69265 28.8402ZM28.8402 32.3074L23.9831 27.4502C25.4049 26.6084 26.6072 25.4069 27.4502 23.9831L32.3074 28.8402C31.3282 30.1599 30.1599 31.3282 28.8402 32.3074Z" fill="#8170D6"/>
</svg>
