<svg width="80" height="80" fill="none" xmlns="http://www.w3.org/2000/svg"><mask id="a" style="mask-type:alpha" maskUnits="userSpaceOnUse" x="0" y="0" width="80" height="80"><path fill="#C4C4C4" d="M0 0h80v80H0z"/></mask><g mask="url(#a)"><path d="M39.887 22.24c6.14 4.787 13.179 4.492 15.19 4.492-.44 27.228-3.792 23.6-15.19 31.235C28.49 50.333 25.158 53.96 24.72 26.732c1.99 0 9.03.295 15.168-4.493z" stroke="#fff" stroke-width="1.225" stroke-miterlimit="10" stroke-linecap="round" stroke-linejoin="round"/><path d="M40.61 24.51c5.346 4.152 11.476 3.896 13.227 3.896-.383 23.608-3.302 20.463-13.227 27.083-9.924-6.62-12.825-3.475-13.208-27.083 1.733 0 7.863.256 13.209-3.895z" stroke="#fff" stroke-width="1.225" stroke-miterlimit="10" stroke-linecap="round" stroke-linejoin="round"/><mask id="b" style="mask-type:alpha" maskUnits="userSpaceOnUse" x="2" y="2" width="76" height="76"><path d="M40 78c20.987 0 38-17.013 38-38S60.987 2 40 2 2 19.013 2 40s17.013 38 38 38z" fill="#C4C4C4"/></mask><g mask="url(#b)"><g filter="url(#c)"><path d="M40.004 77.997c20.987 0 38-17.013 38-38s-17.013-38-38-38-38 17.013-38 38 17.013 38 38 38z" fill="url(#d)"/></g><path opacity=".7" d="M28.642 8.195h-19v5.99h19v-5.99z" fill="#E3C599"/><path opacity=".8" d="M56.317 16.868h-5.989v5.99h5.99v-5.99z" fill="#99BDE3"/><path opacity=".24" d="M28.645 22.443h-5.989v6.196h5.99v-6.196z" fill="#99BDE3"/><path opacity=".24" d="M69.329 8.813h-5.99v5.989h5.99v-5.99z" fill="#E3D399"/><path opacity=".8" d="M56.526-.273h-5.989v5.989h5.99v-5.99z" fill="#99E3AE"/><path opacity=".24" d="M80.48 14.803h-5.99v5.989h5.99v-5.99z" fill="#286FBB"/><path opacity=".8" d="M54.667 9.02h-5.99v2.272h5.99V9.021z" fill="#E399E0"/><path opacity=".24" d="M77.797 1.586h-6.195v2.272h6.195V1.586z" fill="#99BDE3"/><path opacity=".24" d="M32.981 4.27h-5.989v2.272h5.99V4.271zM21.829 16.454h-5.99v2.272h5.99v-2.272z" fill="#C5DAC0"/><path opacity=".24" d="M43.72 65.4h-5.99v6.196h5.99V65.4zM30.917 64.161h-5.99v5.99h5.99v-5.99z" fill="#99BDE3"/><path opacity=".24" d="M71.6 50.324h-5.989v6.196h5.99v-6.196z" fill="#E3D399"/><path opacity=".24" d="M58.798 41.443h-5.99v5.99h5.99v-5.99z" fill="#99E3AE"/><path opacity=".24" d="M82.753 56.52h-5.99v5.99h5.99v-5.99z" fill="#286FBB"/><path opacity=".24" d="M56.938 50.736H50.95v2.272h5.99v-2.272z" fill="#E399E0"/><path opacity=".24" d="M79.86 43.303h-5.989v2.272h5.99v-2.272z" fill="#99BDE3"/><path opacity=".24" d="M44.753 60.236h-5.99v2.272h5.99v-2.272zM24.102 57.966h-6.196v2.478h6.196v-2.478z" fill="#C5DAC0"/><path opacity=".8" d="M14.395 38.346H8.199v2.478h6.196v-2.478z" fill="#C5DAC0"/><path opacity=".24" d="M53.427 60.236h-5.99v-5.989h5.99v5.99zM46.2 63.336h-5.99V57.14h5.99v6.196z" fill="#99BDE3"/><path opacity=".24" d="M77.177 62.509h-5.99v-5.99h5.99v5.99z" fill="#E3D399"/><path opacity=".24" d="M64.372 71.596h-5.99V65.4h5.99v6.196z" fill="#99E3AE"/><path opacity=".8" d="M62.513 62.303h-5.99v-2.478h5.99v2.478z" fill="#E399E0"/><path opacity=".24" d="M40.62 67.052h-5.99V64.78h5.99v2.272zM29.47 54.867h-5.99v-2.271h5.99v2.271zM34.014 13.977h-2.272v2.271h2.272v-2.271z" fill="#C5DAC0"/><path opacity=".24" d="M39.178 6.954h-2.272v2.272h2.272V6.954zM69.122 42.063h-5.99v5.99h5.99v-5.99z" fill="#99BDE3"/><path opacity=".24" d="M63.34 23.89h-5.988v6.196h5.989v-6.195z" fill="#E3D399"/><path opacity=".24" d="M16.25 21.411h-5.988v5.99h5.989v-5.99z" fill="#C5DAC0"/><path opacity=".24" d="M87.298 54.248h-27.88v5.99h27.88v-5.99z" fill="#E399E0"/><path opacity=".24" d="M67.056 36.901H55.078v1.446h11.978v-1.446z" fill="#C5DAC0"/><path opacity=".24" d="M68.914 18.313h-27.88v1.445h27.88v-1.445z" fill="#E399E0"/><path opacity=".24" d="M29.264 49.704H4.068v1.446h25.196v-1.446z" fill="#99E3AE"/><path opacity=".24" d="M31.33 65.4H3.45v1.446h27.88V65.4z" fill="#E3D399"/><path opacity=".24" d="M23.687 56.107h-27.88v1.446h27.88v-1.446z" fill="#99BDE3"/><path opacity=".24" d="M89.568 6.542h-27.88v1.446h27.88V6.542z" fill="#E3D399"/><path opacity=".24" d="M104.644 9.02h-27.88v1.446h27.88V9.021z" fill="#99BDE3"/><path opacity=".3" d="M35.457-.894h-1.445v26.848h1.445V-.894z" fill="#99E3D1"/><path opacity=".24" d="M25.754-.688H24.31V26.16h1.445V-.688z" fill="#C299E3"/><path opacity=".24" d="M42.274-15.35h-1.446v27.055h1.446V-15.35z" fill="#99E3D1"/><path opacity=".24" d="M45.167-15.763h-1.24v26.848h1.24v-26.848zM42.274 12.531h-1.446v13.424h1.446V12.531z" fill="#C299E3"/><path opacity=".24" d="M45.167 12.531h-1.24v14.25h1.24v-14.25z" fill="#E3D399"/><path opacity=".7" d="M66.852 21.206h-1.446v26.848h1.446V21.206z" fill="#E399E0"/><path opacity=".24" d="M70.361 25.334H58.383v14.663H70.36V25.334z" fill="#3375BB" fill-opacity=".1"/><path opacity=".24" d="M59.62 9.433h-2.477v7.228h2.478V9.433zM31.74 18.727h-2.478v7.228h2.478v-7.228z" fill="#3375BB"/><path opacity=".24" d="M62.101 70.77h6.196v-6.195H62.1v6.195zM7.787 80.683h6.195v-5.99H7.787v5.99z" fill="#E3D399"/><path opacity=".24" d="M7.783 50.324h19.62V44.13H7.782v6.195z" fill="#E399E0"/><path opacity=".24" d="M28.026 67.672h27.88v-1.446h-27.88v1.446z" fill="#C5DAC0"/><path opacity=".24" d="M63.133 54.867h27.88v-1.445h-27.88v1.445z" fill="#99E3AE"/><path opacity=".24" d="M63.752 39.172h27.88v-1.446h-27.88v1.446z" fill="#E3D399"/><path opacity=".24" d="M71.393 48.466h27.88V47.02h-27.88v1.446z" fill="#99BDE3"/><path opacity=".24" d="M52.806 92.042h1.446V65.194h-1.446v26.848z" fill="#C299E3"/><path opacity=".24" d="M49.916 92.042h1.445V65.194h-1.445v26.848z" fill="#E3D399"/><path opacity=".3" d="M28.232 83.367h1.446V56.52h-1.446v26.848z" fill="#E399E0"/><path opacity=".24" d="M32.773 82.336h15.489V67.673h-15.49v14.663z" fill="#3375BB"/><path opacity=".7" d="M72.429 29.672h-5.99v5.989h5.99v-5.99z" fill="#E3D399"/><path opacity=".24" d="M40.004 60.03H12.33v6.195h27.674v-6.196z" fill="#E399E0"/><path opacity=".3" d="M19.97 42.683H-7.91v1.445h27.88v-1.445z" fill="#C5DAC0"/><path opacity=".24" d="M21.83 24.097H-6.05v1.445h27.88v-1.445z" fill="#E399E0"/><path opacity=".24" d="M42.48 12.323H14.6v1.446h27.88v-1.446z" fill="#E3D399"/><path opacity=".24" d="M57.558 14.803h-27.88v1.445h27.88v-1.445zM73.46 42.477h27.88V41.03H73.46v1.446z" fill="#99BDE3"/><path opacity=".24" d="M19.764 26.987h-1.446v26.848h1.446V26.987z" fill="#E399E0"/><path opacity=".24" d="M15.22 28.019H-.27v14.663h15.49V28.019zM12.534 15.422H9.85v7.022h2.684v-7.022z" fill="#3375BB"/><path d="M39.988 21.413c6.684 5.148 14.348 4.83 16.538 4.83-.48 29.275-4.129 25.374-16.538 33.583-12.41-8.209-16.036-4.308-16.515-33.583 2.167 0 9.831.318 16.515-4.83z" stroke="#fff" stroke-width="1.471" stroke-miterlimit="10" stroke-linecap="round" stroke-linejoin="round"/></g></g><defs><linearGradient id="d" x1="78.004" y1="83.47" x2="14.252" y2="9.642" gradientUnits="userSpaceOnUse"><stop stop-color="#1972D1"/><stop offset="1" stop-color="#5CA7F6"/></linearGradient><filter id="c" x="2.004" y="1.997" width="76" height="76.952" filterUnits="userSpaceOnUse" color-interpolation-filters="sRGB"><feFlood flood-opacity="0" result="BackgroundImageFix"/><feBlend in="SourceGraphic" in2="BackgroundImageFix" result="shape"/><feColorMatrix in="SourceAlpha" values="0 0 0 0 0 0 0 0 0 0 0 0 0 0 0 0 0 0 127 0" result="hardAlpha"/><feOffset dy=".952"/><feGaussianBlur stdDeviation="1.157"/><feComposite in2="hardAlpha" operator="arithmetic" k2="-1" k3="1"/><feColorMatrix values="0 0 0 0 0.0703457 0 0 0 0 0.496071 0 0 0 0 0.947598 0 0 0 0.4 0"/><feBlend in2="shape" result="effect1_innerShadow_4267_21069"/></filter></defs></svg>