<svg width="200" height="206" fill="none" xmlns="http://www.w3.org/2000/svg"><path d="M17.36 138.968c.2 5.1 1.586 10.226 3.697 15.142 5.756 13.435 16.447 23.792 29.451 29.062l4.57 1.851L88.2 198.449c7.88 3.195 16.252 4.875 24.688 4.745 40.57-.62 56.72-30.262 69.593-75.509.272-.943.539-1.891.806-2.848l-2.972.251-13.136 1.119c1.556-1.051 3.319-1.662 5.184-1.662.534 0 1.081.049 1.632.157 2.289.413 4.315.436 6.108.135 9.898-1.658 12.802-13.197 14.239-23.725 5.722-31.227 4.217-48.576-5.583-63.282-4.302-6.461-10.483-11.255-17.54-13.808L113.812 3.25c-7.766-2.812-16.37-1.559-23.03 3.527-.7.54-1.407 1.128-2.107 1.766l15.396 123.038-86.71 7.387z" fill="#0F4496"/><path opacity=".55" d="m89.682 7.663 5.053 2.152c6.15-3.45 13.454-4.044 20.139-1.622l57.407 20.772c7.057 2.552 13.238 7.346 17.54 13.808 3.133 4.704 5.422 9.678 6.888 15.29-1.297-7.71-3.925-14.194-7.948-20.233-4.302-6.461-10.482-11.255-17.54-13.808L113.814 3.25c-7.766-2.812-16.37-1.559-23.03 3.527-.364.284-.733.576-1.102.886z" fill="#fff"/><path d="M41.158 34.304c-13.195-5.968-28.172 18.295-17.86 30.909l17.86-30.91z" fill="#7F65A5"/><path opacity=".55" d="M22.07 63.461c-3.378-11.826 6.96-27.597 17.51-26.424l1.578-2.732C28.55 28.599 14.318 50.494 22.07 63.461z" fill="#fff"/><path d="m2.139 113.047 2.017 10.11c1.471 7.369 6.486 13.376 13.209 15.816l8.04 2.916c.013.004.03.009.043.018l51.477 18.669c10.088 3.658 21.228-.593 26.798-10.235l47.929-82.945c2.022-3.496 2.704-7.688 1.903-11.7l-3.302-16.549a16.548 16.548 0 0 0-2.344-5.778c-1.81-2.79-4.442-4.952-7.566-6.084L80.053 5.416c-10.728-3.89-22.563.63-28.485 10.879L4.673 97.45c-2.696 4.664-3.603 10.245-2.534 15.596z" fill="#3364B0"/><path opacity=".55" d="m2.132 113.047 2.017 10.11a22.211 22.211 0 0 0 2.374 6.461 21.471 21.471 0 0 1-.487-1.968l-2.018-10.11c-1.068-5.351-.161-10.932 2.535-15.596l46.894-81.156C59.37 10.538 71.204 6.018 81.933 9.91l60.289 21.868c3.124 1.133 5.756 3.294 7.566 6.084.089.14.178.279.259.422a16.392 16.392 0 0 0-2.145-4.915c-1.81-2.79-4.442-4.952-7.566-6.084L80.046 5.416c-10.728-3.89-22.563.63-28.485 10.879L4.666 97.45c-2.695 4.664-3.603 10.245-2.534 15.596z" fill="#fff"/><path d="M84.38 163.725c8.314 0 16.215-4.511 20.784-12.416l47.931-82.945c2.258-3.908 3.008-8.53 2.114-13.013l-3.303-16.55c-1.219-6.112-5.442-11.166-11.019-13.189L80.597 3.745c-11.562-4.194-24.095.591-30.479 11.64L3.225 96.54c-2.934 5.077-3.91 11.083-2.747 16.908l2.016 10.109c1.584 7.944 7.072 14.513 14.32 17.142l59.558 21.604c2.648.96 5.35 1.422 8.009 1.422zM72.13 5.836c2.448 0 4.933.425 7.37 1.308l60.29 21.87c4.453 1.616 7.825 5.651 8.799 10.533l3.303 16.55c.714 3.58.114 7.27-1.689 10.39l-47.931 82.945c-5.194 8.987-15.393 12.882-24.802 9.471l-59.558-21.604c-6.125-2.222-10.762-7.772-12.1-14.486l-2.016-10.109c-.982-4.922-.158-9.996 2.322-14.287L53.01 17.261C57.213 9.987 64.484 5.836 72.13 5.836z" fill="#06214B"/><path d="m17.77 107.764 55.59 20.161c3.75 1.361 7.88-.077 10.147-3.465.114-.17.22-.346.326-.525l5.638-9.733 5.015-8.654 10.326-17.82 23.792-41.072c2.328-4.017.539-9.283-3.67-10.806l-51.41-18.647a10.609 10.609 0 0 0-7.146-.04c-2.459.853-4.633 2.605-6.066 5.077l-5.773 9.966-5.015 8.654-5.951 10.28-28.388 48.999c-1.64 2.83-.382 6.546 2.586 7.625z" fill="#3E3E3E"/><g opacity=".34"><path d="m65.148 36.082 3.531-7.516 11.87 6.265-14.028 29.862-7.9-4.17 10.497-22.345-3.97-2.096zM73.145 60.186c3.465-.755 6.345-1.46 8.642-2.117 2.296-.657 4.355-1.49 6.176-2.5 1.834-1.038 3.09-2.278 3.768-3.722.41-.871.537-1.654.382-2.347-.13-.68-.554-1.21-1.273-1.59-.746-.393-1.484-.358-2.214.106-.719.437-1.365 1.302-1.941 2.595l-7.322-3.865c1.216-2.383 2.657-4.12 4.324-5.212 1.68-1.118 3.437-1.652 5.273-1.6 1.848.024 3.684.517 5.509 1.48 3.16 1.668 5.12 3.74 5.881 6.214.761 2.475.521 5.034-.72 7.675-1.33 2.833-3.477 5.013-6.44 6.542-2.936 1.543-6.201 2.589-9.794 3.14l9.634 5.085-3.051 6.495-19.655-10.374 2.821-6.005z" fill="#fff"/><path d="m51.718 64.688 3.53-7.517 11.87 6.266L53.09 93.298l-7.9-4.17 10.497-22.345-3.97-2.095zM59.715 88.791c3.464-.754 6.345-1.46 8.641-2.117 2.297-.657 4.356-1.49 6.177-2.5 1.834-1.038 3.09-2.278 3.767-3.721.41-.872.537-1.654.382-2.348-.13-.68-.554-1.21-1.273-1.59-.745-.393-1.483-.358-2.214.106-.718.437-1.365 1.302-1.94 2.596l-7.323-3.865c1.216-2.383 2.657-4.12 4.324-5.212 1.68-1.119 3.438-1.652 5.273-1.601 1.848.024 3.685.517 5.509 1.48 3.16 1.668 5.12 3.74 5.882 6.215.76 2.475.52 5.033-.72 7.675-1.33 2.832-3.477 5.013-6.44 6.541-2.937 1.543-6.202 2.59-9.795 3.14l9.634 5.085-3.051 6.496-19.654-10.375 2.82-6.005z" fill="#9D9BFF"/></g><path opacity=".55" d="m19.463 113.236 55.588 20.161c3.752 1.362 7.88-.076 10.148-3.464.115-.171.22-.346.327-.526l5.637-9.732 5.015-8.654 10.326-17.82 23.793-41.072c1.661-2.867 1.225-6.376-.696-8.7a7.674 7.674 0 0 1-1 3.16L104.808 87.66l-10.326 17.82-5.014 8.654-5.638 9.732c-.106.18-.212.355-.326.526-2.268 3.388-6.397 4.826-10.148 3.464l-55.589-20.161a4.85 4.85 0 0 1-1.42-.813c-.712 2.579.577 5.432 3.116 6.353z" fill="#fff"/><path d="M23.312 66.998c.393 0 .789-.145 1.11-.44.706-.65.784-1.784.17-2.535-5.131-6.275-3.02-15.598 1.112-21.605 3.187-4.632 8.975-9.106 14.8-6.473.864.39 1.858-.035 2.225-.947.368-.913-.033-1.969-.893-2.359-6.304-2.851-13.71.157-18.872 7.661-4.898 7.12-7.279 18.318-.935 26.079.336.409.808.619 1.283.619zM126.344 163.715c1.376 0 2.794-.073 4.25-.222 13.282-1.358 20.195-11.578 31.648-28.513.912-1.348 1.855-2.742 2.833-4.179 2.251-3.308 5.472-4.922 8.618-4.315 5.181.936 9.54.066 12.976-2.585 6.211-4.791 8.259-14.519 9.345-22.473 5.844-31.914 4.252-49.43-5.869-64.622-4.492-6.742-10.848-11.747-18.38-14.472L114.359 1.562c-8.343-3.019-17.526-1.609-24.566 3.773a33.697 33.697 0 0 0-2.223 1.857c-.71.647-.79 1.782-.18 2.535.61.752 1.681.838 2.39.19a30.38 30.38 0 0 1 1.995-1.667c6.15-4.701 14.184-5.93 21.488-3.287l57.406 20.773c6.852 2.48 12.629 7.025 16.706 13.145 9.517 14.286 10.955 31.064 5.303 61.905-.006.029-.01.057-.014.086-.99 7.263-2.793 16.114-7.99 20.124-2.707 2.087-6.108 2.725-10.393 1.951-4.446-.855-8.92 1.292-11.956 5.752-.98 1.44-1.925 2.837-2.839 4.189-11.264 16.653-17.468 25.827-29.217 27.028-7.757.791-14.216-.695-18.189-4.189-2.622-2.305-4.121-5.46-4.454-9.378-.084-.988-.907-1.722-1.84-1.628-.933.089-1.621.962-1.536 1.951.417 4.906 2.323 8.884 5.665 11.822 3.888 3.418 9.625 5.221 16.429 5.221z" fill="#06214B"/><path d="M178.269 113.433c2.168 0 4.149-1.021 5.475-2.838 2.315-3.173 3.894-9.068 4.971-18.553 1.767-13.135 2.16-21.897 1.355-30.203a3.921 3.921 0 0 0-.014-.108c-1.535-9.887-6.725-17.101-14.24-19.79-7.827-2.804-16.958-.018-24.423 7.449a1.875 1.875 0 0 0-.069 2.54 1.628 1.628 0 0 0 2.396.074c6.635-6.636 14.293-9.063 21.011-6.658 6.275 2.247 10.636 8.41 11.97 16.915.769 7.98.378 16.478-1.348 29.314-.991 8.731-2.393 14.22-4.291 16.821-.711.974-1.804 1.498-2.986 1.438-1.229-.063-2.352-.756-3.004-1.854a4.618 4.618 0 0 0-2.473-2.032l-36.543-12.393c-.893-.303-1.846.219-2.131 1.163-.286.946.206 1.958 1.098 2.26l36.541 12.394c.263.089.49.275.636.523 1.241 2.09 3.376 3.409 5.711 3.529.119.006.239.009.358.009zM111.972 205.003c.314 0 .627-.002.941-.007 41.705-.639 58.47-30.949 72.002-79.648.265-.952-.249-1.951-1.148-2.231-.897-.281-1.841.264-2.105 1.217-13.096 47.13-29.173 76.462-68.797 77.068-8.079.134-16.176-1.433-24.057-4.627l-37.694-15.277c-12.842-5.205-22.968-15.194-28.513-28.126-2.175-5.074-3.367-9.944-3.543-14.475-.038-.992-.84-1.746-1.764-1.723-.936.041-1.662.878-1.625 1.871.194 4.996 1.487 10.317 3.844 15.815 5.916 13.798 16.708 24.451 30.39 29.996l37.693 15.277c7.98 3.233 16.176 4.87 24.376 4.87z" fill="#06214B"/><path d="M115.037 193.755c20.739 0 46.864-17.871 60.591-68.543.258-.955-.262-1.95-1.162-2.224-.902-.273-1.839.277-2.098 1.231-13.69 50.533-39.692 67.166-59.441 65.872-15.486-1.01-27.51-12.543-29.918-28.699-.146-.98-1.016-1.65-1.94-1.495-.924.154-1.556 1.075-1.41 2.056 1.31 8.789 5.212 16.476 11.283 22.23 5.985 5.674 13.515 8.956 21.776 9.495.765.053 1.539.077 2.319.077z" fill="#06214B"/><path d="M112.702 147.561c-.606-3.719 3.644-7.602 9.492-8.673 5.848-1.071 11.081 1.076 11.687 4.796.606 3.719-3.644 7.602-9.492 8.673-5.849 1.071-11.081-1.077-11.687-4.796zM110.797 173.433c-2.211 0-4.004-1.14-4.004-2.546 0-1.407 1.793-2.547 4.004-2.547 2.211 0 4.004 1.14 4.004 2.547 0 1.406-1.793 2.546-4.004 2.546zM94.062 171.76c-1.633-.421-2.763-1.604-2.525-2.642.238-1.038 1.755-1.539 3.387-1.118 1.633.421 2.763 1.603 2.525 2.642-.239 1.038-1.755 1.539-3.387 1.118zM175.727 112.828c.785 0 1.489-.58 1.657-1.427 6.935-34.861 7.001-51.834.237-60.536-3.756-4.83-9.772-7.106-18.442-6.964-.936.015-1.683.832-1.669 1.825.015.983.771 1.77 1.696 1.77h.027c7.65-.136 12.671 1.67 15.772 5.656 5.939 7.64 5.668 24.301-.938 57.508-.193.971.393 1.925 1.309 2.13.118.025.236.038.351.038z" fill="#06214B"/><path opacity=".25" d="m54.538 32.164 39.947 73.343 10.326-17.82-38.434-70.566c-2.458.854-4.633 2.606-6.065 5.077l-5.774 9.966zM43.573 51.109l39.934 73.32c.115-.171.22-.346.327-.526l5.638-9.732-39.948-73.343-5.951 10.28z" fill="#fff"/><path opacity=".71" d="M55.197 110.144c.705-.031 1.344-.529 1.555-1.286.267-.951-.245-1.951-1.143-2.234l-11.39-3.58c-.9-.283-1.841.261-2.108 1.212-.266.952.246 1.952 1.144 2.235l11.39 3.58c.184.058.37.081.552.073z" fill="#fff"/><path d="M76.283 130.207c3.597 0 7.018-1.949 8.998-5.368l44.769-77.276a9.582 9.582 0 0 0 .767-7.886c-.892-2.63-2.835-4.659-5.331-5.563L74.075 15.47c-5.764-2.091-12.016.293-15.204 5.796L13.743 99.163a7.31 7.31 0 0 0-.586 6.019c.681 2.008 2.164 3.556 4.069 4.246l55.587 20.163c1.147.416 2.318.616 3.47.616zm-6.425-111.89c1.037 0 2.088.18 3.12.553l51.411 18.644c1.516.55 2.696 1.78 3.237 3.378a5.825 5.825 0 0 1-.465 4.79l-44.77 77.276c-1.779 3.069-5.265 4.397-8.479 3.232l-55.588-20.163c-.925-.336-1.644-1.086-1.975-2.061a3.551 3.551 0 0 1 .284-2.922l45.128-77.898c1.782-3.074 4.861-4.83 8.097-4.83z" fill="#06214B"/><path opacity=".3" d="M25.4 141.895c.013.005.03.009.043.018l51.476 18.669c10.089 3.658 21.229-.593 26.798-10.235l47.929-82.945c2.022-3.496 2.705-7.688 1.904-11.7l-5.647-22.327-57.105 98.284c-3.477 5.985-10.403 8.615-16.675 6.332l-62.439-22.723c-1.278-.465-2.598.602-2.498 2.03.424 6.074 2.884 19.762 16.214 24.597z" fill="#000"/><path opacity=".3" d="M179.166 84.292h.005v-.023c0 .006 0 .012-.005.023z" fill="#06214B"/><path opacity=".3" d="M179.166 84.292h.005v-.023c0 .006 0 .012-.005.023zM51.785 182.944c1.064.692 2.162 1.398 3.29 2.103l33.122 13.426c7.88 3.194 16.252 4.875 24.687 4.745 40.571-.621 56.721-30.262 69.594-75.509l-2.166-2.597-.212-.252-10.012-.426s-3.709-5.293-10.881 1.671c0 0-15.226 26.959-27.095 28.083-11.869 1.123-24.047-7.118-17.324-22.992l-8.008 16.252v3.289s16.218 27.242 44.407 11.192c0 0-6.456 29.48-36.399 30.038 0 0-12.162 1.231-22.746-9.14 0 0-9.453-13.061-11.432-21.751l-53.681-18.611s-3.12 22.205 24.856 40.479z" fill="#06214B"/><path d="M178.994 64.255c-2.142-17.027-13.464-16.704-19.584-16.704l-.181.101a20.292 20.292 0 0 0-4.868 3.792l.459 2.108c1.714 6.487 0 11.785-1.071 13.623l-15.605 27.083 33.812 11.514c1.469.39 2.448 1.244 2.754 1.622 4.284-19.072 5.049-36.976 4.284-43.139zM158.033 159.756c-3.825 6.649-14.228 22.12-29.222 27.57-5.355 1.946-9.486 3.243-16.37 2.757-21.267-2.271-27.234-18.488-29.07-26.435 11.016.649 19.125-7.298 21.726-12.325 1.53 4.378 7.65 14.758 27.692 11.838 13.207-1.923 20.195-14.92 30.752-30.002 3.213-5.676 6.528-6.703 8.262-6.811-5.049 17.515-11.271 29.516-13.77 33.408z" fill="#0B3069"/></svg>