<svg width="220" height="247" fill="none" xmlns="http://www.w3.org/2000/svg"><circle cx="123.999" cy="102" r="96" fill="url(#a)"/><g clip-path="url(#b)"><path d="M15.579 156.719c.178 4.551 1.422 9.125 3.317 13.511 5.165 11.988 14.759 21.229 26.429 25.931l4.1 1.652 29.724 11.98c7.07 2.85 14.584 4.35 22.153 4.233 36.407-.553 50.899-27.001 62.452-67.374.243-.842.483-1.688.722-2.542l-2.666.225-11.788.998c1.396-.938 2.978-1.483 4.652-1.483.479 0 .97.044 1.464.14 2.054.369 3.873.389 5.482.12 8.882-1.479 11.487-11.775 12.777-21.168 5.135-27.864 3.785-43.344-5.01-56.466a31.986 31.986 0 0 0-15.74-12.32l-51.516-18.534c-6.968-2.51-14.69-1.392-20.666 3.147a29.838 29.838 0 0 0-1.89 1.575L93.39 150.129l-77.811 6.591z" fill="#0F4496"/><path opacity=".55" d="m80.478 39.559 4.534 1.92c5.52-3.079 12.074-3.608 18.072-1.447L154.6 58.566a31.986 31.986 0 0 1 15.74 12.32c2.811 4.198 4.865 8.636 6.181 13.644-1.164-6.88-3.522-12.665-7.132-18.054a31.986 31.986 0 0 0-15.74-12.32l-51.516-18.534c-6.968-2.51-14.69-1.392-20.666 3.147-.327.252-.658.513-.989.79z" fill="#fff"/><path d="M36.934 63.33c-11.84-5.325-25.28 16.324-16.027 27.579l16.027-27.58z" fill="#7F65A5"/><path opacity=".55" d="M19.805 89.346c-3.032-10.552 6.246-24.624 15.714-23.578l1.415-2.437C25.62 58.239 12.848 77.776 19.805 89.346z" fill="#fff"/><path d="m1.92 133.591 1.81 9.021c1.32 6.575 5.82 11.935 11.852 14.112l7.216 2.602c.012.004.027.008.038.016L69.03 176c9.053 3.264 19.05-.529 24.048-9.132l43.01-74.01c1.815-3.12 2.427-6.86 1.708-10.44l-2.963-14.766a14.73 14.73 0 0 0-2.104-5.156c-1.624-2.49-3.986-4.418-6.789-5.428L71.838 37.555c-9.628-3.472-20.248.562-25.562 9.706L4.194 119.675c-2.42 4.162-3.233 9.141-2.275 13.916z" fill="#3364B0"/><path opacity=".55" d="m1.913 133.591 1.81 9.021a19.739 19.739 0 0 0 2.13 5.765 19.004 19.004 0 0 1-.437-1.756l-1.81-9.021c-.959-4.774-.145-9.754 2.274-13.915l42.082-72.414c5.314-9.145 15.934-13.178 25.562-9.707l54.102 19.513c2.803 1.01 5.166 2.939 6.79 5.429.08.124.16.248.232.376a14.569 14.569 0 0 0-1.925-4.386c-1.624-2.49-3.986-4.418-6.79-5.428L71.831 37.555c-9.627-3.472-20.248.562-25.562 9.706L4.188 119.675c-2.42 4.162-3.234 9.141-2.275 13.916z" fill="#fff"/><path d="M75.721 178.808c7.46 0 14.55-4.026 18.65-11.079l43.012-74.01c2.027-3.486 2.7-7.61 1.897-11.61l-2.964-14.767c-1.094-5.454-4.883-9.964-9.888-11.769L72.326 36.06c-10.376-3.742-21.623.528-27.351 10.386L2.895 118.86c-2.634 4.53-3.51 9.889-2.466 15.086l1.809 9.02c1.422 7.089 6.346 12.951 12.85 15.296l53.446 19.277a21.173 21.173 0 0 0 7.187 1.269zM64.728 37.928c2.196 0 4.426.379 6.613 1.167l54.102 19.513c3.997 1.442 7.022 5.043 7.896 9.399l2.964 14.766a13.246 13.246 0 0 1-1.515 9.272l-43.012 74.009c-4.66 8.02-13.813 11.495-22.257 8.451l-53.445-19.277c-5.497-1.982-9.657-6.934-10.859-12.925l-1.809-9.02c-.88-4.392-.141-8.919 2.084-12.748l42.08-72.414c3.772-6.49 10.296-10.194 17.158-10.194z" fill="#06214B"/><path d="m15.947 128.875 49.883 17.989c3.367 1.215 7.072-.068 9.107-3.091.103-.153.198-.309.293-.469l5.059-8.684 4.5-7.722 9.266-15.9 21.351-36.648c2.088-3.585.483-8.283-3.294-9.642L65.979 48.069a9.572 9.572 0 0 0-6.413-.036c-2.207.762-4.158 2.326-5.444 4.53l-5.18 8.893-4.5 7.722L39.1 78.35l-25.474 43.72c-1.473 2.526-.343 5.841 2.32 6.804z" fill="#3E3E3E"/><g opacity=".34"><path d="m58.482 64.926 3.175-6.714 10.643 5.58-12.615 26.674-7.084-3.714 9.44-19.96-3.559-1.866zM65.632 86.435c3.11-.677 5.694-1.31 7.755-1.9 2.061-.588 3.909-1.335 5.544-2.239 1.646-.928 2.774-2.036 3.384-3.326.368-.778.483-1.477.344-2.096-.115-.607-.495-1.08-1.14-1.417-.668-.35-1.33-.319-1.987.096-.644.391-1.225 1.164-1.743 2.32l-6.565-3.443c1.093-2.129 2.388-3.681 3.884-4.657 1.508-1 3.085-1.48 4.732-1.435 1.658.019 3.305.457 4.94 1.315 2.834 1.486 4.591 3.333 5.271 5.541.68 2.209.463 4.493-.653 6.853-1.197 2.53-3.125 4.479-5.784 5.847-2.636 1.38-5.567 2.319-8.79 2.814l8.638 4.53-2.744 5.801-17.622-9.24 2.536-5.364z" fill="#fff"/><path d="m46.43 90.447 3.175-6.714 10.642 5.58-12.615 26.674-7.083-3.714 9.44-19.96-3.56-1.866zM53.58 111.956c3.109-.677 5.694-1.31 7.755-1.899 2.06-.589 3.908-1.336 5.543-2.24 1.647-.928 2.775-2.036 3.384-3.326.368-.778.483-1.477.345-2.096-.115-.607-.496-1.079-1.14-1.418-.669-.35-1.33-.318-1.987.097-.645.391-1.226 1.164-1.744 2.319l-6.565-3.442c1.093-2.129 2.388-3.681 3.885-4.657 1.508-1 3.085-1.48 4.732-1.435 1.658.019 3.305.457 4.94 1.315 2.834 1.485 4.59 3.333 5.27 5.541.681 2.209.463 4.493-.653 6.853-1.196 2.53-3.124 4.479-5.783 5.847-2.637 1.381-5.567 2.318-8.791 2.814l8.638 4.529-2.744 5.802-17.622-9.24 2.537-5.364z" fill="#9D9BFF"/></g><path opacity=".55" d="m17.465 133.758 49.884 17.989c3.366 1.215 7.071-.068 9.106-3.091a9.09 9.09 0 0 0 .293-.469l5.06-8.684 4.5-7.721 9.265-15.901 21.351-36.648c1.491-2.558 1.1-5.689-.623-7.762a6.833 6.833 0 0 1-.898 2.819l-21.351 36.648-9.266 15.9-4.5 7.722-5.06 8.684c-.094.16-.19.317-.292.469-2.035 3.023-5.74 4.306-9.107 3.091l-49.883-17.989a4.362 4.362 0 0 1-1.275-.726c-.639 2.301.518 4.847 2.796 5.669z" fill="#fff"/><path d="M20.92 92.503c.352 0 .707-.13.995-.392.634-.58.704-1.593.153-2.262-4.604-5.6-2.71-13.918.998-19.278 2.86-4.133 8.054-8.125 13.281-5.775.775.347 1.667-.032 1.997-.846.33-.814-.03-1.757-.802-2.105-5.656-2.544-12.302.14-16.935 6.836-4.395 6.353-6.532 16.345-.839 23.27a1.49 1.49 0 0 0 1.151.552zM113.378 178.8c1.235 0 2.507-.066 3.814-.199 11.918-1.211 18.122-10.331 28.399-25.441.819-1.203 1.665-2.447 2.542-3.729 2.02-2.952 4.911-4.392 7.734-3.85 4.65.835 8.561.059 11.645-2.306 5.573-4.276 7.41-12.956 8.386-20.053 5.244-28.475 3.815-44.104-5.267-57.66-4.031-6.016-9.735-10.482-16.494-12.913l-51.514-18.535c-7.487-2.693-15.728-1.435-22.046 3.367a30.156 30.156 0 0 0-1.994 1.657c-.637.577-.71 1.59-.162 2.262a1.468 1.468 0 0 0 2.146.17 27.217 27.217 0 0 1 1.79-1.488c5.518-4.195 12.727-5.291 19.282-2.933l51.515 18.535c6.148 2.213 11.332 6.268 14.991 11.73 8.54 12.746 9.83 27.717 4.758 55.236l-.012.076c-.888 6.481-2.506 14.378-7.17 17.956-2.429 1.863-5.481 2.432-9.326 1.741-3.99-.763-8.005 1.153-10.729 5.133-.88 1.285-1.727 2.531-2.548 3.737-10.108 14.86-15.675 23.045-26.219 24.117-6.96.705-12.756-.62-16.322-3.738-2.353-2.056-3.697-4.872-3.996-8.368-.076-.882-.814-1.537-1.652-1.452-.837.079-1.454.858-1.378 1.74.374 4.378 2.084 7.927 5.084 10.549 3.489 3.05 8.637 4.659 14.743 4.659z" fill="#06214B"/><path d="M159.973 133.934c1.946 0 3.723-.911 4.913-2.532 2.078-2.831 3.495-8.091 4.461-16.554 1.586-11.721 1.939-19.538 1.216-26.95l-.012-.096c-1.378-8.822-6.035-15.259-12.779-17.659-7.024-2.5-15.217-.015-21.916 6.647a1.665 1.665 0 0 0-.062 2.267 1.466 1.466 0 0 0 2.15.066c5.954-5.922 12.826-8.087 18.854-5.94 5.632 2.004 9.545 7.503 10.743 15.092.69 7.12.338 14.703-1.21 26.156-.889 7.791-2.148 12.688-3.851 15.009a3.092 3.092 0 0 1-2.68 1.283c-1.103-.056-2.111-.675-2.696-1.654a4.132 4.132 0 0 0-2.219-1.813l-32.792-11.059c-.802-.27-1.657.196-1.913 1.039s.185 1.746.986 2.016l32.79 11.059c.237.08.44.245.572.466 1.113 1.865 3.029 3.042 5.124 3.149.107.006.215.008.321.008zM100.48 215.64c.282 0 .563-.002.845-.007 37.425-.57 52.469-27.615 64.613-71.067.237-.85-.224-1.741-1.03-1.991-.806-.251-1.653.235-1.889 1.085-11.753 42.054-26.18 68.226-61.737 68.767-7.25.119-14.516-1.279-21.588-4.129l-33.825-13.631c-11.525-4.644-20.612-13.558-25.587-25.097-1.952-4.527-3.022-8.872-3.18-12.915-.034-.885-.754-1.558-1.583-1.537-.84.036-1.492.783-1.458 1.668.174 4.459 1.334 9.206 3.45 14.112 5.308 12.312 14.993 21.817 27.27 26.765l33.825 13.632c7.162 2.884 14.516 4.345 21.874 4.345z" fill="#06214B"/><path d="M103.231 205.604c18.611 0 42.054-15.946 54.372-61.159.232-.852-.235-1.74-1.042-1.985-.809-.243-1.65.248-1.883 1.099-12.285 45.09-35.618 59.931-53.34 58.776-13.897-.901-24.686-11.192-26.848-25.607-.131-.875-.912-1.472-1.74-1.335-.83.138-1.397.96-1.266 1.835 1.175 7.842 4.677 14.701 10.125 19.836 5.37 5.062 12.128 7.991 19.541 8.472.687.047 1.381.068 2.081.068z" fill="#06214B"/><path d="M101.135 164.386c-.543-3.318 3.27-6.783 8.518-7.739 5.249-.955 9.944.961 10.488 4.279.544 3.319-3.27 6.784-8.518 7.739-5.248.956-9.944-.96-10.488-4.279zM99.426 187.471c-1.984 0-3.593-1.017-3.593-2.272s1.609-2.272 3.593-2.272c1.985 0 3.593 1.017 3.593 2.272s-1.608 2.272-3.593 2.272zM84.408 185.977c-1.465-.376-2.479-1.431-2.265-2.358.214-.926 1.574-1.373 3.04-.997 1.464.375 2.478 1.43 2.265 2.357-.214.926-1.575 1.373-3.04.998zM157.692 133.394c.705 0 1.336-.518 1.488-1.273 6.223-31.107 6.282-46.25.212-54.015-3.37-4.31-8.769-6.341-16.549-6.214-.841.013-1.511.742-1.498 1.628.013.877.692 1.579 1.522 1.579h.024c6.865-.121 11.371 1.49 14.153 5.048 5.33 6.816 5.087 21.683-.841 51.312-.174.867.352 1.718 1.175 1.901.105.022.211.034.314.034z" fill="#06214B"/><path opacity=".25" d="m48.941 61.42 35.847 65.442 9.267-15.901-34.49-62.964c-2.206.762-4.157 2.325-5.443 4.53l-5.18 8.893zM39.101 78.322l35.836 65.422c.103-.152.198-.309.293-.469l5.06-8.684-35.848-65.442-5.34 9.173z" fill="#fff"/><path opacity=".71" d="M49.533 130.999c.632-.028 1.205-.472 1.395-1.147.24-.849-.22-1.742-1.026-1.994l-10.22-3.194c-.808-.253-1.653.233-1.892 1.082-.24.849.22 1.741 1.026 1.993l10.22 3.195c.166.052.333.072.497.065z" fill="#fff"/><path d="M68.454 148.901c3.229 0 6.298-1.739 8.075-4.789l40.174-68.952a8.506 8.506 0 0 0 .689-7.037c-.801-2.347-2.544-4.157-4.784-4.963L66.473 46.524c-5.173-1.866-10.783.261-13.644 5.172L12.333 121.2a6.492 6.492 0 0 0-.526 5.371c.61 1.791 1.941 3.173 3.65 3.789l49.884 17.991c1.029.371 2.08.549 3.114.549zM62.69 49.064c.93 0 1.873.16 2.8.494l46.135 16.636c1.36.49 2.418 1.588 2.904 3.014a5.173 5.173 0 0 1-.417 4.274l-40.176 68.951c-1.596 2.739-4.724 3.924-7.608 2.884l-49.883-17.991c-.83-.3-1.476-.97-1.773-1.84a3.15 3.15 0 0 1 .255-2.606l40.497-69.507c1.599-2.743 4.362-4.309 7.266-4.309z" fill="#06214B"/><path opacity=".3" d="M22.793 159.331c.012.004.027.008.038.016l46.194 16.658c9.053 3.263 19.05-.529 24.048-9.133l43.01-74.01c1.815-3.119 2.427-6.86 1.708-10.44l-5.067-19.921-51.244 87.696c-3.12 5.34-9.336 7.687-14.964 5.651l-56.031-20.276c-1.147-.415-2.331.538-2.241 1.812.38 5.419 2.587 17.632 14.55 21.947z" fill="#000"/><path opacity=".3" d="M160.778 107.933h.005v-.021c0 .005 0 .01-.005.021z" fill="#06214B"/><path opacity=".3" d="M160.778 107.933h.005v-.021c0 .005 0 .01-.005.021zM46.47 195.958c.955.617 1.94 1.247 2.952 1.876l29.724 11.98c7.071 2.85 14.584 4.35 22.153 4.233 36.407-.553 50.899-27.001 62.452-67.374l-1.944-2.317-.19-.225-8.985-.381s-3.328-4.722-9.764 1.492c0 0-13.664 24.055-24.315 25.057-10.65 1.003-21.579-6.35-15.546-20.515l-7.185 14.501v2.935s14.553 24.308 39.849 9.987c0 0-5.794 26.304-32.664 26.802 0 0-10.913 1.098-20.411-8.155 0 0-8.483-11.655-10.26-19.409l-48.171-16.606s-2.8 19.814 22.306 36.119z" fill="#06214B"/><path d="M160.624 90.054c-1.922-15.193-12.082-14.905-17.574-14.905l-.166.093a18.13 18.13 0 0 0-4.364 3.38l.411 1.882c1.538 5.788 0 10.515-.961 12.155l-14.004 24.166 30.342 10.274c1.318.347 2.197 1.109 2.472 1.447 3.844-17.018 4.53-32.993 3.844-38.492zM141.814 175.267c-3.432 5.933-12.768 19.738-26.223 24.6-4.805 1.736-8.512 2.894-14.69 2.46-19.084-2.026-24.438-16.497-26.086-23.587 9.885.579 17.162-6.512 19.496-10.998 1.373 3.907 6.865 13.168 24.85 10.564 11.851-1.717 18.123-13.313 27.596-26.771 2.883-5.064 5.858-5.981 7.414-6.077-4.531 15.628-10.114 26.336-12.357 29.809z" fill="#0B3069"/></g><defs><linearGradient id="a" x1="123.999" y1="6" x2="123.999" y2="198" gradientUnits="userSpaceOnUse"><stop stop-color="#EA7A8F"/><stop offset="1" stop-color="#E452C8"/></linearGradient><clipPath id="b"><path fill="#fff" d="M0 0h180v247H0z"/></clipPath></defs></svg>