<svg width="496" height="573" fill="none" xmlns="http://www.w3.org/2000/svg"><circle cx="248" cy="248" r="248" fill="#3D3372"/><mask id="a" style="mask-type:alpha" maskUnits="userSpaceOnUse" x="66" y="69" width="378" height="504"><path fill="#C4C4C4" d="M66 69h378v504H66z"/></mask><g mask="url(#a)"><path fill-rule="evenodd" clip-rule="evenodd" d="M216.486 333.797c6.776 16.965 19.754 46.691 39.281 45.303 16.947-1.205 26.556-27.355 30.004-50.157.743-4.913-55.174-.631-69.285 4.854z" fill="#B68C67"/><path fill-rule="evenodd" clip-rule="evenodd" d="m213.015 335.402-25.328 38.443-7.285 99.256 23.347 57.677 92.475 22.791 5.852-36.65 3.413-99.256-12.191-50.986-20.422-1.764-22.89-1.344h-10.21l-26.761-28.167z" fill="#EEF3ED"/><path fill-rule="evenodd" clip-rule="evenodd" d="M262.899 384.32c0 8.922.283 19.431 2.294 25.479 2.469 7.475 4.146 21.223 8.138 36.538 10.302 39.591 24.018 93.292 17.221 103.176-4.572-14.755-5.303-29.287-5.547-27.439-1.067 8.12-2.835 19.655-7.62 27.971-.884 1.568 11.43-1.54 10.302-.252-1.006 1.148-13.441 7-16.642 7.588l-2.408-84.221c-21.914-37.602-17.525-41.97-23.194-85.088 0 25.987-1.707 46.479 5.212 73.246l.853 48.465 15.057 37.098-1.646 11.564-12.923-1.344-9.327-6.076-12.801-.756-4.511 2.044-2.256-9.604c-.731-18.927-17.982-47.346-20.451-66.161l-2.225-77.837 1.006-53.282 6.431-15.287-.305 12.851.548 12.992 4.664 16.939c-5.182 37.547 10.119 128.823 38.831 168.581-10.882-26.487-18.344-36.304-13.686-75.686-3.017-36.035 0-47.822 1.341-79.035l-1.341-13.916c-6.492 5.292-17.282 19.151-20.756 22.287-4.663 4.2-5.273-8.399-5.791-10.835l14.904-11.172 12.923-12.319 11.461 2.184 3.383.056 6.553-5.18 15.331 10.443c25.054.42 26.852 57.605-2.591 61.105 1.951-16.156 4.786-23.558 9.083-34.534-4.998-3.164-6.02-7.662-15.994-17.414-.793-.448.319 1.483-3.521 6.831z" fill="#DADEDA"/><path d="M285.459 496.61c-25.686-74.509-29.947-104.93-28.861-110.829l-7.881 33.317a1.912 1.912 0 0 0-.022.804c3.326 17.728 17.669 60.596 24.528 80.109.038.106.082.205.139.303 1.946 3.371 5.594 5.429 8.014 6.364.785.304 1.66-.016 2.022-.776 1.206-2.535 1.901-6.312 2.158-8.426a1.96 1.96 0 0 0-.097-.866z" fill="#0F4EAD"/><mask id="b" style="mask-type:alpha" maskUnits="userSpaceOnUse" x="248" y="385" width="38" height="122"><path d="M285.459 496.614c-25.686-74.509-29.947-104.93-28.861-110.829l-7.881 33.317a1.912 1.912 0 0 0-.023.804c3.326 17.728 17.669 60.596 24.529 80.109.037.106.082.205.138.302 1.947 3.372 5.595 5.43 8.014 6.365.786.304 1.66-.016 2.022-.777 1.207-2.534 1.902-6.312 2.159-8.425a1.96 1.96 0 0 0-.097-.866z" fill="#5C5C5C"/></mask><g mask="url(#b)"><path d="M278.932 496.614c-25.689-74.509-30.672-104.93-29.586-110.829l-7.881 33.317a1.929 1.929 0 0 0-.023.804c3.326 17.728 17.669 60.596 24.529 80.109.038.106.082.205.138.302 1.947 3.372 5.595 5.43 8.014 6.365a1.639 1.639 0 0 0 2.053-.759c1.352-2.535 2.524-6.326 2.846-8.444a1.832 1.832 0 0 0-.09-.865z" fill="url(#c)"/></g><g filter="url(#d)"><path d="m274.863 501.043-.135.173.474.353a43.549 43.549 0 0 0 5.873 3.693l.246.128a.69.69 0 0 0 .955-.337 31.762 31.762 0 0 0 2.168-7.239l.074-.423-.803-.171a26.128 26.128 0 0 1-4.775-1.51l-.949-.405a19.93 19.93 0 0 1-3.128 5.738z" fill="#316DCA"/></g><path d="m241.98 535.271 1.804-150.193c4.641-1.391 12.087.116 15.229 1.043l1.805 149.15a2 2 0 0 1-.419 1.249l-7.419 9.577a2 2 0 0 1-3.162 0l-7.42-9.577a1.999 1.999 0 0 1-.418-1.249z" fill="url(#e)"/><mask id="f" style="mask-type:alpha" maskUnits="userSpaceOnUse" x="241" y="384" width="20" height="164"><path d="m241.98 535.489 1.804-150.193c4.641-1.391 12.087.115 15.229 1.043l1.805 149.15c.005.451-.142.892-.419 1.249l-7.419 9.576a2 2 0 0 1-3.162 0l-7.42-9.576a1.999 1.999 0 0 1-.418-1.249z" fill="#636363"/></mask><g filter="url(#g)" mask="url(#f)"><path d="m261.088 384.937 2.954-10.04c.245-.831-.071-1.735-.82-2.172-7.397-4.317-16.651-3.587-21.747-2.352-.973.235-1.547 1.203-1.369 2.188l1.947 10.804c.239 1.329 1.742 2.106 3.075 1.894 3.961-.633 9.695.236 13.52 1.087 1.058.236 2.134-.369 2.44-1.409z" fill="#000"/></g><path d="m260.525 384.947 2.954-10.04c.245-.832-.071-1.736-.82-2.173-7.397-4.317-16.651-3.586-21.747-2.352-.973.235-1.547 1.204-1.369 2.189l1.947 10.804c.239 1.328 1.742 2.106 3.075 1.893 3.961-.633 9.695.236 13.52 1.088 1.058.235 2.134-.37 2.44-1.409z" fill="url(#h)"/><mask id="n" style="mask-type:alpha" maskUnits="userSpaceOnUse" x="239" y="369" width="47" height="178"><path d="M285.459 496.617c-25.686-74.509-29.947-104.93-28.861-110.83l-7.881 33.318a1.912 1.912 0 0 0-.022.804c3.326 17.728 17.669 60.596 24.528 80.108.038.107.082.205.138.303 1.947 3.372 5.595 5.43 8.014 6.365.786.304 1.661-.016 2.023-.777 1.206-2.534 1.901-6.312 2.158-8.425a1.96 1.96 0 0 0-.097-.866z" fill="#0F4EAD"/><mask id="i" style="mask-type:alpha" maskUnits="userSpaceOnUse" x="248" y="385" width="38" height="122"><path d="M285.459 496.62c-25.686-74.509-29.947-104.93-28.861-110.829l-7.881 33.318a1.912 1.912 0 0 0-.023.804c3.326 17.728 17.669 60.596 24.529 80.108.037.107.082.205.138.303 1.947 3.372 5.595 5.43 8.014 6.365.786.303 1.66-.016 2.022-.777 1.207-2.534 1.902-6.312 2.159-8.425a1.965 1.965 0 0 0-.097-.867z" fill="#5C5C5C"/></mask><g mask="url(#i)"><path d="M278.932 496.621c-25.689-74.509-30.672-104.93-29.586-110.83l-7.881 33.318a1.912 1.912 0 0 0-.023.804c3.326 17.728 17.669 60.596 24.529 80.108.037.107.082.205.138.303 1.947 3.372 5.595 5.43 8.014 6.365a1.64 1.64 0 0 0 2.053-.76c1.352-2.534 2.524-6.325 2.846-8.443a1.832 1.832 0 0 0-.09-.865z" fill="url(#j)"/></g><path d="m274.862 501.05-.134.172.474.354a43.749 43.749 0 0 0 5.873 3.693l.246.128a.691.691 0 0 0 .955-.337 31.777 31.777 0 0 0 2.168-7.239l.074-.423-.803-.171a26.055 26.055 0 0 1-4.775-1.511l-.949-.404a19.91 19.91 0 0 1-3.129 5.738z" fill="#316DCA"/><path d="m241.98 535.278 1.804-150.193c4.641-1.391 12.087.116 15.229 1.043l1.805 149.15a2 2 0 0 1-.419 1.249l-7.419 9.577a2 2 0 0 1-3.162 0l-7.42-9.577a1.999 1.999 0 0 1-.418-1.249z" fill="url(#k)"/><mask id="l" style="mask-type:alpha" maskUnits="userSpaceOnUse" x="241" y="384" width="20" height="164"><path d="m241.98 535.496 1.804-150.194c4.641-1.39 12.087.116 15.229 1.043l1.805 149.151c.005.451-.142.892-.419 1.249l-7.419 9.576a2 2 0 0 1-3.162 0l-7.42-9.576a2.001 2.001 0 0 1-.418-1.249z" fill="#636363"/></mask><g mask="url(#l)"><path d="m261.088 384.944 2.954-10.04c.245-.832-.071-1.735-.82-2.172-7.397-4.317-16.651-3.587-21.747-2.353-.973.236-1.547 1.204-1.369 2.189l1.947 10.804c.239 1.329 1.742 2.106 3.075 1.893 3.961-.632 9.695.236 13.52 1.088 1.058.236 2.134-.37 2.44-1.409z" fill="#000"/></g><path d="m260.525 384.953 2.954-10.039c.245-.832-.071-1.736-.82-2.173-7.397-4.317-16.651-3.587-21.747-2.352-.973.235-1.547 1.203-1.369 2.188l1.947 10.804c.239 1.329 1.742 2.106 3.075 1.894 3.961-.633 9.695.236 13.52 1.087 1.058.236 2.134-.369 2.44-1.409z" fill="url(#m)"/></mask><g filter="url(#o)" mask="url(#n)"><path fill="#000" d="m284.901 388.188 74.96 20.39-64.052 216.5-74.96-20.39z"/></g><path fill-rule="evenodd" clip-rule="evenodd" d="M213.021 323.571c-4.816 4.312-5.304 6.048-6.188 13.663-2.377 20.355 3.353 44.014 8.321 57.202 11.216-12.824 19.995-25.395 35.539-31.527-12.466-8.931-37.672-28.811-37.672-39.338z" fill="#EEF3ED"/><path fill-rule="evenodd" clip-rule="evenodd" d="M215.733 391.323c9.296-10.864 18.074-22.427 31.79-28.727-12.162-8.736-30.175-22.343-35.448-35.643-2.743 3.052-3.444 8.092-3.84 12.88-1.402 16.771 2.255 36.454 7.498 51.49z" fill="url(#p)"/><path fill-rule="evenodd" clip-rule="evenodd" d="M288.854 320.69c4.755 4.564 5.426 6.86 6.096 13.999 2.012 20.971-5.943 47.234-10.851 60.198-10.484-13.272-17.8-24.975-33.344-31.975 12.466-8.931 34.167-27.775 38.099-42.222z" fill="#EEF3ED"/><path fill-rule="evenodd" clip-rule="evenodd" d="M289.634 323.587c-5.303 13.635-23.56 29.931-35.844 39.058 13.564 6.86 21.031 17.64 29.779 28.951 2.956-8.343 9.753-31.75 10.241-49.362.244-8.035-1.341-15.707-4.176-18.647z" fill="url(#q)"/><path fill-rule="evenodd" clip-rule="evenodd" d="M213.033 323.571c-4.694 4.2-5.273 5.936-6.096 12.991l.214-.168c1.097-5.879 3.992-10.107 4.907-8.427 3.627 6.747 9.57 13.355 16.276 19.739 4.846 4.648 10.728 9.491 15.483 12.767 4.267 2.94-.396 3.556-4.724 8.988 3.475-2.576 7.315-4.788 11.643-6.496-12.497-8.987-37.703-28.867-37.703-39.394zM288.702 320.657c4.694 4.2 6.218 8.512 6.522 17.78-.487-4.284-3.901-13.804-5.638-10.612-3.627 6.748-9.571 13.356-16.276 19.739-4.847 4.62-10.729 9.492-15.484 12.768-4.267 2.94.64 4.564 4.968 10.023-3.474-2.575-7.741-5.599-12.1-7.307 6.37-4.592 15.819-12.236 23.682-20.439 7.529-7.812 13.381-16.268 14.326-21.952z" fill="#DADEDA"/><path fill-rule="evenodd" clip-rule="evenodd" d="M207.148 330.11c-10.607 33.626-4.541 94.748.213 122.859 3.658 21.727 15.545 40.906 30.327 75.988-.457 59.106-2.529 113.844-28.894 169.645-9.083 19.264-20.696 44.435-31.302 57.146-30.785 36.819-64.038-3.248-74.218-48.438-4.297-19.095-3.17-38.638 1.86-54.43-16.55 19.74-10.942 46.926-9.845 55.606-5.06-4.228-6.675-8.568-7.59-12.655-1.493-6.636-2.011-15.96-3.535-22.568-1.097-4.759-3.871-9.491-5.608-14.083-2.378-6.272-1.28-10.052-2.073-14.531-.64-3.584-3.87-6.216-4.877-9.716-1.371-4.9 1.28-9.8.122-14.755-.853-3.64-2.59-8.204-3.535-11.844-1.403-5.544-2.622-11.955-2.622-17.611 0-4.34 1.006-8.12 1.768-11.228.732-3.136 3.75-2.408 3.78-5.655.03-3.248-4.39-5.964-4.816-8.092-.884-4.424 3.718-5.348 4.572-8.204 3.261-11.171 6.705-24.723 9.784-37.966 2.773-11.816 6.126-23.715 7.62-33.963 2.407-16.631 4.358-33.934 6.735-50.398 1.616-11.171 3.536-21.475 5.456-32.758l3.262-19.936c1.645-8.959 2.59-13.691 8.656-14.307 8.9-1.344 17.678-4.2 26.12-7.084 36.088-12.347 39.045-10.247 68.64-31.022zm-61.904 174.628c-.64 2.716.58 14 0 17.668-.67 4.2-2.468 8.091-2.712 10.807-.457 5.04 1.95 8.456 1.95 12.404 0 3.948-1.95 7.503-1.95 11.059 0 3.556 1.554 7.616 1.463 10.276-.214 6.496-7.651 9.435-9.175 14.055-.975 2.94 4.207 7 2.744 9.66-3.323 6.02 1.92 10.303-.61 18.311.853-.476 9.692-8.848 14.417-18.815 4.389-9.268 3.535-16.743 4.755-20.663 1.645-5.32 7.406-10.836 6.705-15.624-.975-6.691-13.807-14.951-12.07-22.371.823-3.5 1.097-11.843-.213-14.559l-5.304-12.208z" fill="#0F4496"/><path fill-rule="evenodd" clip-rule="evenodd" d="M205.766 331.55c-3.108 32.983-6.705 92.844-1.95 120.983 3.657 21.727 18.348 43.93 33.131 79.013l.03 17.639c-4.206-7.476-13.776-22.287-23.347-37.238-28.041-43.903-43.738-82.933-55.808-133.443-.67-2.884-.975-4.34-.731-5.572.609-3.164 13.258-6.187 17.922-9.631-2.134-1.008-12.497-7-14.478-9.324 13.472-2.016 36.545-14.811 45.231-22.427z" fill="#316DCA"/><path fill-rule="evenodd" clip-rule="evenodd" d="M207.798 330.239c-20.025 33.851-5.181 94.636-.427 122.775 3.658 21.727 15.545 40.906 30.327 75.989-.457 59.105-2.529 113.843-28.894 169.645-9.083 19.263-20.695 44.434-31.302 57.146-24.871 29.734-51.754 7.335-66.201-24.639 28.406 40.178 60.989 5.991 78.85-35.811 25.724-60.141-.031-50.342 6.339-88.252 1.86-11.032 8.687-20.299 13.99-27.495.366-.476 9.845-12.656 14.661-19.543 4.511-6.468 1.89-5.46-3.475-2.464-6.583 3.668-11.003 8.231-15.91 14.559-8.839 11.424-17.404 23.519-23.347 14.532-3.78-5.712-2.987-16.688 2.377-23.128 2.622-3.135 7.651-5.991 9.845-9.631 3.231-5.292 2.774-8.54-4.663-16.435-5.09-5.404-9.693-11.312-10.119-18.284-.153-2.744 0-5.599-.183-8.679-.427-7.084-5.944-11.116 3.2-7.588 3.2 1.232 9.266 4.312 13.167 7.42 6.888 5.487 11.857 13.131 18.684 18.507 6.279 4.956 6.004.476.945-4.508-7.102-6.916-12.588-13.859-20.086-20.271-6.065-5.18-10.485-13.44-6.888-12.572 3.81.924 11.277 8.316 19.689 15.176 4.298 3.5-5.516-11.284-5.516-11.284-6.31-10.583-9.601-19.431-13.046-28.195-4.693-12.011-7.589-23.939-11.155-40.15l9.57-47.15 1.707-23.687s.336-4.536.884-13.103l16.977-12.88z" fill="#316DCA"/><path fill-rule="evenodd" clip-rule="evenodd" d="M187.269 456.013c10.576 22.259 20.086 44.266 33.375 66.162 1.676 2.771 5.882 9.155 5.456 11.983-.458 3.052-9.906-.644-11.826-1.26-.153-.056-12.802-4.312-22.921-8.316-5.76-2.267-8.747.672.366 5.096 2.194 1.064 29.595 8.54 29.992 8.596 1.432.224 1.889 1.092 1.158 2.66-.793 1.708-19.781 19.235-31.15 37.154 17.312-21.391 38.77-36.09 40.842-38.75 1.616-2.044 3.17-3.724.976-6.524-18.166-23.295-22.342-59.077-46.268-76.801z" fill="#0C54BF"/><path fill-rule="evenodd" clip-rule="evenodd" d="M204.843 332.861c-11.095 36.651-1.189 91.556 3.566 119.695 3.657 21.727 12.954 42.614 27.736 77.725l.518 15.259c-1.371-7.923-10.271-18.619-19.811-33.57-28.072-43.93-42.367-82.961-54.406-133.471-.671-2.884-.975-4.34-.732-5.572.61-3.163 13.259-6.187 17.922-9.631-2.133-1.008-12.496-7-14.477-9.324 13.472-1.988 30.997-13.495 39.684-21.111z" fill="#0C54BF"/><path fill-rule="evenodd" clip-rule="evenodd" d="M237.525 546.585c-.884 52.442-4.969 101.832-28.682 152.062-9.082 19.263-20.695 44.434-31.302 57.146-9.327 11.171-18.806 15.875-27.827 15.399-3.536-.196-17.831-4.536-30.663-24.079-4.907-7.476-8.991-17.415-13.075-29.847 57.514 134.871 116.187-54.71 113.017-76.885-1.036-4.592-6.949-2.884-9.753-10.891 5.059 5.04 9.357 4.424 10.972-.28 1.86-5.404 6.096-51.77 3.353-54.626-2.073-2.156-9.449 5.516-14.752 8.148-1.128.56 10.485-14.56 14.6-20.972 2.621-4.087 7.65-10.471 8.412-12.095l5.7-3.08zM208.768 328.443c-9.387 28.754-13.746 99.199 28.956 200.527l-.092 11.116c-27.98-38.919-60.806-102.084-72.083-160.77-1.28-6.635-2.713-5.851 3.505-8.875 3.81-1.848 7.162-3.444 12.618-7.448-1.981-.868-19.689-9.436-16.489-10.639 21.305-7.924 28.498-12.292 43.585-23.911z" fill="#0F4496"/><path fill-rule="evenodd" clip-rule="evenodd" d="M202.623 334.722c-9.388 28.755-7.65 92.929 35.051 194.284l-.091 7.224c-24.201-39.394-57.271-96.288-68.579-154.974-1.28-6.635-2.713-5.851 3.505-8.875 3.81-1.848 9.053-5.6 14.508-9.632-1.981-.868-19.689-9.211-16.489-10.415 21.336-7.896 17.008-6.02 32.095-17.612z" fill="#0F4EAD"/><path fill-rule="evenodd" clip-rule="evenodd" d="M208.709 328.443c-9.387 28.754-13.746 99.199 28.956 200.527l-.061 7.084c-6.035-18.087-20.787-51.126-27.401-70.501-11.308-33.179-16.855-64.901-12.74-111.044.274-2.939 1.585-15.231-5.212-11.955-7.133 3.444-26.456 10.248-27.432 10.248l-.091-.168a.531.531 0 0 1 .366-.28c21.335-7.924 28.528-12.292 43.615-23.911z" fill="#316DCA"/><path fill-rule="evenodd" clip-rule="evenodd" d="M103.076 704.159c-5.974-37.266 3.139-53.534 14.051-67.897 5.608-7.392 12.253-16.155 20.482-26.515v-1.176c2.286-1.4 7.65-7.812 12.741-18.451 3.2-6.664 3.23-15.092 5.364-21.671 2.438-7.56 7.894-12.936 7.772-13.916-.975-6.692-14.051-14.083-12.283-21.531.823-3.5 1.341-12.711.03-15.427l-6.034-11.984c.609-2.268 2.956 4.172 2.56-1.036-.244-3.024-2.469-5.404-3.048-8.371-.793-4.032-.762-6.244-.488-8.036.396-2.464-20.695-30.407-29.077-72.013-3.109-15.484-7.742-35.419-7.559-44.49.061-2.828 1.524-2.24 2.987-3.08.579 1.484 23.774-6.412 51.998-15.036l6.096 4.48c-16.002 8.708-46.329 12.936-48.219 21.643-7.193 33.235 28.194 89.989 34.168 101.496 4.572 8.82 25.602 32.311 24.993 33.543-3.201 5.376-24.323-15.484-29.443-17.919.64 1.623 4.236 4.787 5.852 7.643 1.615 2.856 4.419 5.04 4.419 6.244 0 1.708-4.023.56-4.054 2.268-.061 3.836 4.176 6.356 6.736 9.52 9.479 11.675 17.892 21.251 18.776 24.358 1.158 4.004-10.455.448-23.835-15.427-9.754-11.563 17.19 25.451 21.244 31.583 10.028 15.147-12.222 1.652-13.441 1.316-1.463-.392.701 8.595 1.097 13.327.152 2.016-6.675 1.344-5.761 3.08 2.164 4.088 5.608 8.456 6.614 11.536.64 1.988-5.517 1.204-9.113 3.891-4.42 3.276-6.645 9.968-7.529 11.844-3.627 7.672 1.616 10.332 8.078 11.424 2.407.419 10.911.979 17.159 1.931 4.633.7-.335 32.899-2.987 33.179-2.225.224.915-29.483-2.011-30.099-7.102-.028-21.884-3.808-28.895-2.8-1.006.14-1.249 4.34.579 4.788 1.86.476 25.908 2.212 27.158 2.996 1.249.784-22.677.168-22.494.868 2.164 7.868-1.707 18.031 2.255 20.075 3.109 1.624 14.387 2.464 22.189 4.2-9.814 1.456-15.849.616-22.067.252-.945-.056 4.054 3.5 13.32 4.116 11.216.756 16.154-2.912 26.7-6.216 6.857-2.156 5.669 5.796 3.2 8.736-5.243 6.16-16.093 12.039-22.341 17.779-4.511 4.144-11.004 8.288-16.124 13.468-5.822 5.879-10.333 12.683-16.459 14.811-14.264 4.928-11.003-26.599-29.595-28.699-4.328-.476-1.585 22.735-5.761 25.395z" fill="#316DCA"/><path fill-rule="evenodd" clip-rule="evenodd" d="M104.839 711.938c-8.778-22.763-3.901-50.818 3.231-64.23 9.235-17.387 21.183-26.207 28.651-37.966 3.17-5.012 14.234-13.972 14.386-20.411.091-3.472 1.615-2.688 2.012-5.18.762-4.788 3.627-9.436 4.023-14.42.427-5.515 7.041-10.415 6.34-15.203-.671-4.592-8.016-10.052-11.643-16.491-1.646-2.94-.976-8.428-.427-10.752.823-3.5-.671-9.995-1.981-12.711l-4.968-7.448c.609-2.268 3.657 2.66 3.261-2.548-.244-3.024-2.469-5.404-3.048-8.372-.793-4.031-.762-6.243-.488-8.035 1.219-7.672-2.164-8.54-5.425-15.12-3.231-6.467-5.364-12.599-7.132-18.899 6.004 12.936 10.546 22.679 19.964 33.879 2.286 2.716 7.345 9.967 19.994 20.075 11.399 9.128-9.296-2.324-25.298-18.199.671 6.355 2.439 10.807 4.42 16.995.335 1.036-.549 2.352.122 3.276 2.011 2.744 2.56 4.9 4.358 7.56 5.029 7.475 14.691 18.563 21.458 25.394-5.73-4.591-15.24-13.663-18.806-18.647a281.387 281.387 0 0 1-7.102-10.359c1.524 4.395 4.511 4.787 2.713 10.975-.701 2.408 4.054 8.428 4.816 11.592 8.016 12.403 10.21 17.891 20.482 30.659 2.926 3.639-6.492-4.032-11.826-12.544-.244 4.648-2.682 3.556-4.755 7.756-1.006 2.044-.64 6.943-.945 9.911-.366 3.612-5.364 2.24-4.541 3.92 2.347 4.844 5.547 11.144 6.461 12.852-1.95 2.016-6.857-2.184-7.558-1.372-.61.672-2.195 6.271-4.298 10.723-.793 1.708-8.687 15.12-8.717 15.652-.122 2.156 4.206 3.219 3.81 4.955-.427 1.736-7.254.364-7.041 1.932.274 1.876.64 3.584 1.036 5.152.122.448 8.961 1.848 27.462 2.828.488.028-27.065-1.008-26.944-.588 1.281 4.564 2.805 8.512 2.774 12.432-.03 2.043.092 4.927-.091 8.035-.244 4.256-1.311 3.164 3.931 3.864 4.603.616 18.319 1.96 22.189 1.316 2.347-.392 2.957-.728 3.506-3.724 1.249-6.636 2.621-23.771 2.743-25.059-.061 6.44-.031 16.463-.701 23.715-.579 6.188-1.86 6.86-6.462 6.664-7.102-.308-14.173-.364-21.275-.672 1.25 5.376 1.86 10.08 1.799 15.007-.183 11.032-.64 7.952-1.859-.028-.884-5.795-2.286-11.843-5.944-13.971-2.316 11.591-5.334 14.559-11.582 13.271-1.707-.364-3.444-1.12-5.608-2.044-4.146-1.791-6.797-1.428-2.469-4.031 14.782-8.932 1.493-11.312 3.383-19.768 1.798-8.119 5.212-6.327 6.126-19.487l-8.503 9.492-12.68 15.959c-10.18 14.98-9.723 42.222-5.334 62.438z" fill="#0C54BF"/><path fill-rule="evenodd" clip-rule="evenodd" d="M144.231 488.148c.396-2.464-20.696-30.407-29.078-72.013-3.109-15.484-7.742-35.419-7.559-44.49.061-2.828 1.524-2.24 2.987-3.08.579 1.484 23.774-6.412 51.998-15.036l1.372 1.68c-13.045 4.424-29.413 9.184-40.66 13.16-5.486 1.932-9.997 2.632-10.607 5.488-2.347 10.863 2.5 28.418 6.858 43.118 8.931 30.267 23.988 59.049 28.041 66.777l-3.352 4.396z" fill="#0C54BF"/><path fill-rule="evenodd" clip-rule="evenodd" d="M97.222 420.901c1.036-6.076 2.103-12.096 3.17-18.48l3.261-19.935c1.616-8.707 2.53-13.411 8.138-14.251 1.494 9.743 6.218 18.955 6.584 29.007.305 8.259 3.474 16.995 5.608 25.031 5.456 20.579 6.675 34.466 14.782 50.705 3.292 6.58 6.645 7.448 5.426 15.12-.275 1.82-.305 4.004.487 8.035.58 2.968 2.805 5.376 3.048 8.372.397 5.208-.762 6.104-1.371 8.372l-.427-.868c-.64 2.716-.122 6.664-.701 10.331-.67 4.2-2.469 8.092-2.713 10.808-.457 5.04 1.951 8.456 1.951 12.403 0 3.948-1.951 7.504-1.951 11.06 0 3.556 1.555 7.616 1.463 10.276-.213 6.495-7.65 9.435-9.174 14.055-.975 2.94 4.206 7 2.743 9.66-2.56 4.647 0 8.259.092 13.383l-.031.336v1.036a13.227 13.227 0 0 1-.701 3.556c.244-.14-.03.168.183.028-3.566 6.58-14.782 20.411-19.994 27.271-12.253 16.127-17.861 25.339-20.056 33.766-1.615 6.104-5.73 16.632-3.87 29.819-5.761-12.431 1.005-35.194 2.194-46.562 1.371-13.327 3.78-10.668 11.704-19.067 4.237-4.48 6.096-8.064 6.004-9.772-.274-4.424-12.405-1.148-21.457-2.996-3.505-.728-1.677-2.184-4.237-3.388-4.389-2.071-11.704-4.171-8.991-6.495 4.145-3.528 21.396-5.404 21.457-5.432 1.25-1.176-4.389-2.968-16.062-7.728-7.407-3.024-9.662-5.907-8.474-8.427 1.311-2.716 6.92-7.028 19.172-4.592 6.736 1.344 10.973 3.64 12.801 4.312 5.334 1.932 11.095 4.283 12.497 4.087 2.042-.28-.122-2.967-1.707-4.199-3.2-2.52-7.163-3.64-10.942-5.32-2.53-1.12-7.468-3.192-8.29-5.236-.55-1.344 1.371-2.744 4.754-4.172 2.652-1.12 7.315-1.484 10.79-1.54 7.193-.112 6.614.812 7.955.476 3.536-.896-9.388-2.408-20.573-3.92-8.047-1.091-15.636-.616-13.38-7.251.7-2.016 8.107-3.164 13.44-2.884 9.358.476 43.251-2.492 8.931-13.076-5.486-1.708 13.441-4.591 13.563-15.231.061-4.984-7.924-8.036-6.4-14.587 1.066-4.62 5.73-10.78 12.069-18.62 2.225-2.743-.518-8.567-6.614-4.535-6.888 4.563-29.595 16.323-10.271-.392 2.286-1.96 4.511-4.536 7.894-7.28 5.669-4.564 16.337-18.647-2.835-3.612-8.625 6.776-30.205 30.267-26.15 22.259 3.2-6.384 6.004-10.331 9.295-13.607 3.505-3.5 7.864-7.224 13.655-11.312 9.205-6.524 14.996-10.863 13.198-22.147-1.372-8.624-4.146-16.407-7.559-24.835-9.876-24.387-8.778-52.022-13.685-49.026-2.896 1.848-4.877 19.739-9.693 37.211z" fill="#316DCA"/><path fill-rule="evenodd" clip-rule="evenodd" d="M107.661 370.311c1.006-1.092 2.347-1.792 4.176-2.044 1.493 9.744 6.218 18.955 6.583 29.007.305 8.26 3.475 16.995 5.609 25.031 5.455 20.579 6.675 34.466 14.782 50.706 3.292 6.579 6.645 7.447 5.425 15.119-.274 1.82-.304 4.004.488 8.036.579 2.968 2.804 5.376 3.048 8.371.396 5.208-.762 6.104-1.372 8.372l-.426-.868c-.64 2.716-.122 6.664-.701 10.332-.671 4.2-2.469 8.091-2.713 10.807-.457 5.04 1.951 8.456 1.951 12.404 0 3.948-1.951 7.503-1.951 11.059 0 3.556 1.555 7.616 1.463 10.276-.213 6.496-7.65 9.436-9.174 14.055-.976 2.94 4.206 7 2.743 9.66-1.585 2.884-1.219 5.348-.671 8.036.762 3.751 1.22 6.579.061 10.275.244-.14-14.843 20.747-19.811 27.299-27.28 35.923-22.89 54.29-22.098 72.041-7.467-19.599 2.286-41.018 4.359-55.886.792-5.655 1.036-10.667 5.425-12.403 7.894-3.164 10.576-5.488 11.43-6.888 3.84-6.496-4.572-3.976-1.433-7.811 3.018-3.696 5.365-4.48 3.993-6.384-18.288-4.2-28.894-2.548-27.431-3.5 6.065-3.948 32.277 2.156 31.089-.588-3.079-7.168-18.075-4.2-16.825-8.82.244-.896 1.829-.224 1.829-.224 6.827 1.596 12.435.896 15.422-.868-6.4-1.008-15.636-4.115-16.733-4.703-1.036-.532-2.164-.812-2.316-2.044-.336-2.716 20.025 5.263 21.701 2.38 1.219-2.128-.427-2.968-2.438-5.516 2.103.784 3.535 1.344 3.962 1.484 2.682.98 7.528-.196 7.742-2.1.213-1.876-8.077-1.232-6.218-2.968 1.036-.924 1.737-1.876 2.195-2.828-4.42-3.276-8.748-4.844-13.015-5.124-5.121-.336-6.523-3.332-.854-3.108 5.944.224 11.095 3.64 14.265 7.196 1.615-5.796-6.462-11.087-16.307-10.723-8.077.307-12.71 2.743-13.654 2.071-3.323-2.379 9.418-4.199 13.197-4.255 7.193-.084 8.717-.42 10.058-.756 2.042-.504-1.341-1.932-4.572-2.856-1.432-.42-7.498-1.288-13.38-2.436-7.894-1.512-16.58-3.108-17.495-3.164 1.28-.84 2.865-.952 4.206-.84 8.869.7 21.823 3.556 31.028 5.6 2.408.532 3.566 1.652 2.956 2.912-.883 1.792-1.158 2.744-.213 3.416 2.591 1.819 5.517.559 6.553-.756 2.438-3.136-1.189-6.244-4.115-8.204-2.164-1.428-2.712-.812-4.297-2.856 6.187-1.708 9.662-7.784 6.522-12.487-4.998-7.504-12.649-6.888-2.56-11.872 4.633-2.296 7.711-6.496 4.724-9.464-1.158-1.148-1.859-2.268-2.499-3.163-3.932-5.432-.762-5.096 4.42-12.264 1.463-2.016-1.707-3.808-1.707-3.808-2.439-1.204-6.309-1.204-7.315-3.584-.793-1.904 10.576-13.999 6.096-13.859-.579.028-1.159.084-1.738.168 1.067-3.78.884-10.36-4.45-6.832-7.955 5.292-8.199 4.956-7.528 3.92.762-1.176 3.078-3.024 5.486-4.956 8.047-6.999 14.783-21.139 1.677-11.619-2.104 1.512-4.786 4.004-8.169 6.803 5.578-8.987 14.295-11.059 12.771-20.579-1.372-8.623-5.608-23.687-9.022-32.086-4.267-10.5-7.315-25.367-8.687-36.007-1.737-13.103-.243-18.955-5.547-22.735z" fill="#0C54BF"/><path fill-rule="evenodd" clip-rule="evenodd" d="M81.25 547.926c2.378 1.232 4.755 2.52 6.37 4.48 1.403 1.68 1.098 4.2.976 6.328-.122 2.771-2.408 3.667-5.212 3.667-4.999.028-11.704-2.715-10.972-2.547 2.346.532 11.43 2.715 12.039-1.12.305-1.932-.427-4.088-1.707-5.628-.58-.728-2.59-1.064-4.115-1.736-1.188-.504-2.072-1.232-1.767-2.436.914-3.78 1.584-2.464 4.389-1.008zM84.978 567.924c-1.523 1.708-3.2 3.359-3.718 5.459-.335 1.372.58 1.932 2.073 2.268 2.987.644 8.32-.364 8.656 2.436.335 2.856-7.56 4.816-10.363 5.684-21.671 6.804-3.018 12.851 7.132 17.583 4.816 2.24 6.431 5.824 1.981 7.504-4.572 1.736-13.198-.056-13.838 3.108-1.066 5.152 2.805 3.556 8.779 7.223 5.425 3.304 7.375 6.02 7.497 8.4.305 6.048-11.399 9.912-7.985 16.211 1.707 3.164 6.126 4.284 6.126 4.284.58-1.064 1.128-2.128 1.707-3.164 2.255-4.003 3.17-5.655 6.248-8.399 7.193-6.412 6.706-4.116-.792 4.788-4.694 5.571-6.797 28.698-9.144 38.582-2.195-6.384-4.48-11.984-5.852-17.891-.945-4.06-1.463-8.26-1.28-13.02.03-.728-.213-1.428-.549-2.1-.335-.672-.792-1.316-1.188-1.96-.945-1.54-3.75-2.519-3.445-4.283.427-2.436 3.14-4.032 5.151-5.628 5.426-4.34 5.791-6.44 5.791-7.924 0-2.464-4.175-2.828-10.454-6.048-1.86-.952-3.292-2.603-4.42-4.283-.731-1.12-1.28-2.548-.975-3.836.335-1.484 1.28-3.052 2.713-3.836 1.097-.616 8.23-1.4 10.515-3.472 1.037-.952 1.067-2.156-.945-3.724-4.724-3.724-12.496-2.492-15.818-8.455-1.067-1.932-.671-3.556.579-4.956 2.773-3.08 9.052-5.208 13.624-7.084 5.608-2.296 4.176-2.968.183-3.22-3.75-.224-8.748.532-8.016-4.956.366-2.66 5.578-4.955 7.467-7.027 2.042-2.24 5.06-1.064 2.56 1.736zM103.347 514.537c-3.108.784-5.181 1.568-7.193 2.688-11.49 6.356-11.612 3.724-4.084-3.78 2.682-2.688 3.444-4.396 4.907-7.224 1.89-3.639 6.401-8.567 10.607-12.599 8.565-8.232 19.659-15.959 19.05-15.063-6.066 8.903-18.715 13.915-22.921 22.735-.579 1.176 2.378 1.568 3.048 2.688 13.868-7.784 21.183-9.044 16.794-2.94-3.444 4.843-9.966 11.115-17.068 16.883-2.682 2.184-11.674 7.168-18.288 10.583-13.167 6.804-4.876.84 3.78-5.347 5.181-3.724 10.485-7.504 11.368-8.624z" fill="#0F4EAD"/><path fill-rule="evenodd" clip-rule="evenodd" d="M95.103 708.88c-4.176-3.976-6.523-8.96-7.437-13.048-1.494-6.635-2.012-15.959-3.536-22.567-1.097-4.76-3.87-9.491-5.608-14.083-2.377-6.272-1.28-10.052-2.073-14.532-.64-3.583-3.87-6.215-4.876-9.715-1.372-4.9 1.28-9.8.122-14.756-.854-3.639-2.591-8.203-3.536-11.843-1.372-5.572-2.59-11.984-2.59-17.639 0-4.34 1.005-8.12 1.767-11.228.732-3.136 3.749-2.408 3.78-5.656.03-3.248-4.39-5.963-4.816-8.091-.884-4.424 3.718-5.348 4.572-8.204 3.261-11.172 6.705-24.723 9.784-37.966 2.773-11.816 6.126-23.716 7.62-33.963 2.407-16.631 4.358-33.935 6.735-50.398 1.616-11.172 3.536-21.475 5.456-32.759l2.347-14.419c1.402 11.171-.914 20.439-2.987 30.127-.427 1.96-2.377 25.899-4.572 31.862 3.932-2.324 2.743 1.568 2.164 3.556-.67 2.24-3.718 7.448-2.53 12.572 1.83-1.148 3.963-3.136 5.792-4.2 6.796-4.06 3.809 4.144-1.555 9.743-2.195 2.296-3.688 4.424-4.846 6.608-2.652 5.096-3.719 10.612-4.42 16.184-1.92 15.147-3.657 18.395 1.738 12.151 3.596-4.172 6.43-7.308 11.277-10.136l-11.003 13.384c-2.469 2.996-4.663 5.46-6.31 8.344-1.676 2.911-3.017 4.871-1.828 5.151 1.372.336 5.212-1.484 7.01-1.484-5.79 4.48-11.826 7.616-10.424 12.516.061.84 3.17.756 4.755.364 3.261-.784 5.364-2.52 8.748-2.184 0 0 3.444 1.12 1.95 2.94-1.706 2.1-5.364 2.156-8.29 2.996-5.425 1.596-10.241 6.775-11.247 9.911-.67 1.792-.152 3.136 1.707 4.284 3.932 2.464 9.266 7.868.335 6.692-.427-.028-3.048-.896-5.669-.448-2.042.336-2.835 1.428-1.585 2.744.488.504 2.317.224 3.871.392 4.45.448 6.035 1.428 5.608 1.96-.518.616-3.566.812-6.462 1.148-.975.112-2.407.672-2.438 1.568 0 .14 1.89 1.428 2.317 4.255.396 2.688-1.341 5.012-.732 6.412 1.006 2.38 12.68 2.1 6.645 3.668-6.828 1.792-10.973 2.996-12.1 5.824-1.83 4.648-.519 8.399 1.645 10.583 2.256 2.24 4.054 3.108 5.151 4.144 3.323 3.192.427 2.184-3.078 6.132-2.164 2.436-.793 6.776 1.676 10.415.823 1.204 1.768 2.352 2.743 3.304 3.079 3.024 9.693 7.224 3.11 11.844-6.005 4.228-3.049 8.54-.275 11.983 2.743 3.388 2.347 5.964 1.92 8.512-.67 4.116 1.615 9.184 3.962 15.623 1.89 5.236 5.151 17.696 6.767 22.651-.061.224-.153.448-.244.672-1.067 3.248-1.341 10.108 4.602 15.12.244.252.183.812-.61.98z" fill="#316DCA"/><path fill-rule="evenodd" clip-rule="evenodd" d="M91.211 502.162c9.967-15.035 16.398-21.083 28.681-32.758 7.589-7.196 5.182-17.36-.213-30.435-3.383-8.148-7.102-16.183-7.651-19.739-3.718-24.891-4.419-35.419-9.479-2.632-1.31 8.567-5.12 16.743-2.865 22.791 1.25 3.36 6.675-.168.762 11.507-2.316 4.536-4.541 10.472-1.493 8.792 8.808-4.844 15.849-3.192 5.974 11.816-7.346 11.199-12.588 16.771-13.716 30.658z" fill="#0F4EAD"/><path fill-rule="evenodd" clip-rule="evenodd" d="M267.731 781.898c-10.698-7.364-15.392-23.491-21.732-47.29-10.21-38.246-22.341-146.406-18.013-188.46 1.25-11.984 3.018-5.684 7.803-14.756 21.213-40.374 65.53-180.844 56.448-208.339 2.987 2.604 23.956 17.079 27.736 19.459 4.846 3.052 3.657 2.38 13.624 6.272 9.997 3.864 30.998 10.919 46.237 16.995l18.501 7.392c2.774 3.36 5.243 2.408 8.26 10.051 2.286 5.768 4.694 15.344 7.224 25.311-4.145 10.388-7.559 22.091-10.15 27.579-7.284 15.456-15.788 25.871-21.274 36.483-26.365 51.154-26.213 79.152-26.761 102.14-3.079 129.746 27.553 182.328 9.814 201.227-4.816 5.124-15.88 7.224-29.169 9.828-23.499 4.592-53.918 6.16-68.548-3.892z" fill="#0F4496"/><path fill-rule="evenodd" clip-rule="evenodd" d="M320.754 787.49c-23.469 1.904-40.964 2.744-53.065-5.543-10.698-7.364-15.392-23.491-21.731-47.29-10.211-38.247-22.342-146.406-18.014-188.461 1.25-11.983 2.835-5.767 7.803-14.755 21.397-38.835 64.952-182.609 56.448-208.34 2.987 2.604 9.54 9.94 13.594 13.216l30.631 14.027c2.195 4.172 6.279 7.896 6.797 12.404.183.448-12.1 3.08-19.628 5.404 5.029 2.547 21.579 9.239 20.36 12.683-16.124 45.498-29.108 67.673-88.207 148.422-6.462 8.82-15.423 13.019-15.423 23.547 0 14.083 17.068 36.651 26.456 47.43 5.852 6.72 17.099 12.768 12.771 20.635-6.157 9.38-36.149-6.439-30.083 6.58 1.158 2.464 29.931 27.831 40.385 38.246 21.549 21.504 16.063 29.287 7.285 30.323-13.289 1.568-40.233-11.787-40.264-11.787-3.078.896-4.053 13.131-3.048 29.062 1.402 22.176 11.948 46.927 23.073 59.918 10.302 11.984 20.147 13.047 43.86 14.279z" fill="#316DCA"/><path fill-rule="evenodd" clip-rule="evenodd" d="M232.855 546.397c1.25-12.011 3.658-5.431 7.803-14.755 4.145-9.324 12.344-27.103 17.038-41.13 10.119-30.295 43.098-149.094 38.465-163.121 2.987 2.603 16.916 11.591 20.695 13.943 2.987 1.876 12.253 6.216 14.661 7.196 1.372 2.576 1.89 3.164 2.804 6.831 1.798 7.448 2.804 6.72-3.779 9.072-3.262 1.176-6.401 2.352-9.815 3.78 3.018 1.932 8.687 4.956 11.643 6.972 5.121 3.471 6.005 3.527 1.372 9.575-9.113 11.956-16.063 27.635-22.89 40.878-7.041 12.656-13.259 25.227-20.299 37.715-11.735 20.803-40.324 63.417-56.966 80.861l-.732 2.183z" fill="#0C54BF"/><path fill-rule="evenodd" clip-rule="evenodd" d="M227.934 546.196c1.25-12.011 3.658-5.432 7.803-14.755 4.145-9.324 12.344-27.103 17.038-41.13 10.119-30.295 44.042-153.182 39.41-167.21 2.987 2.604 23.956 17.08 27.736 19.46 2.987 1.876 3.688 2.352 6.065 3.332 1.372 2.575 2.469 5.655 3.383 9.323 1.799 7.448 2.804 6.72-3.779 9.072-3.261 1.176-6.401 2.352-9.814 3.78 3.017 1.932 8.686 4.955 11.643 6.971 5.12 3.472 6.004 3.528 1.371 9.604-9.113 11.955-16.062 27.635-22.89 40.878-7.04 12.656-13.258 25.227-20.329 37.743-11.735 20.803-40.325 63.417-56.966 80.86l-.671 2.072z" fill="#0F4496"/><path fill-rule="evenodd" clip-rule="evenodd" d="M241.038 528.189c4.146-9.324 12.223-23.659 16.916-37.687 10.12-30.267 47.579-145.734 42.946-159.761 8.443 7.335 16.398 10.667 21.335 16.631 4.115 4.956 7.712 8.988 6.706 11.452-.366.868-9.51 6.327-17.739 9.743 3.017 1.932 8.687 4.956 11.643 6.972 5.121 3.472 6.949 3.528 2.316 9.604-8.778 11.507-15.544 27.13-22.89 41.522-20.421 39.954-41.97 81.057-71.26 117.651 1.798-5.012 8.869-13.495 10.027-16.127z" fill="#0F4EAD"/><path fill-rule="evenodd" clip-rule="evenodd" d="M244.902 510.582c2.865-6.776 5.73-13.916 7.863-20.299 10.12-30.267 44.043-153.154 39.41-167.182 2.987 2.604 23.957 17.08 27.737 19.46 2.987 1.876 3.688 2.352 6.065 3.332.244.447.457.923.701 1.427-15.697-6.383-29.138-16.715-28.925-11.423.183 4.2-.396 14.027-7.681 41.466-10.485 39.423-25.054 91.64-42.183 127.535a68.212 68.212 0 0 1-2.987 5.684zM324.137 786.476c-8.474-20.075-3.841-41.438.883-61.597 1.921-8.148 6.828-13.104 10.211-19.683 5.425-10.416 10.18-27.439 10.851-40.515l-37.124.616c-7.864.14-6.706 1.428-7.285-5.6l-1.829-28.166 3.78 21.811c.731 5.767-.213 4.704 6.309 4.48l35.539-1.232c-5.334-15.064-18.623-18.508-2.774-28.587l-42.945-.84 36.514-3.36c-.609-5.712-2.987-12.572-3.291-17.415-1.006-16.8 20.512-17.192-12.223-29.371-8.229-3.052-10.972-6.888-10.119-12.404 1.158-7.503 9.693-4.003 21.976-5.403 11.673-1.344 6.126-4.396 6.34-10.724.152-4.844 5.76-11.088 3.596-15.735-3.109-6.748-7.894-7.812-7.467-9.8.64-2.996 4.236-10.387 8.107-13.775 6.157-5.376 19.507-53.114 24.475-65.994l12.893-5.375s10.546-3.724 26.212-9.632c-9.448 22.875-30.754 52.078-41.269 81.337-12.253 34.046-13.472 79.376-9.845 127.87 3.079 41.327 10.698 78.173 14.021 105.304 2.987 24.135 6.553 39.646-45.536 43.79z" fill="#316DCA"/><path fill-rule="evenodd" clip-rule="evenodd" d="M329.615 785.905c46.846-15.092 39.806-25.899 22.097-125.379l-41.787.784c-7.864.14-6.949.196-7.529-5.376l-2.072-25.031 2.591 24.191c.731 5.768.274 5.376 6.796 5.152l38.984-.924c7.101-15.064-13.99-24.219 1.859-34.299l-43.372 1.428 37.642-2.128c1.585-13.747-4.115-14.447-4.572-19.291-1.981-21.055 23.408-30.211-3.81-34.663-8.748-1.428-21.366 1.064-18.745-3.947 1.036-2.016 15.118.028 27.431-1.4 11.674-1.344.945-14.868 1.159-21.224.152-4.815 10.302-11.535 8.168-16.183-3.109-6.748-5.669-8.036-6.461-9.128-2.012-2.743 16.062-16.519 19.842-26.374 7.65-19.992 15.026-53.702 38.952-63.922-1.127 3.192-2.042 5.992-3.078 7.896-21.701 39.982-37.612 69.129-43.799 97.716-12.771 58.993-5.669 114.039 2.164 158.725 7.406 42.167 18.471 70.249.305 84.053-6.553 4.956-17.282 8.064-32.765 9.324z" fill="#0C54BF"/><path fill-rule="evenodd" clip-rule="evenodd" d="M399.946 374.764c2.133 1.708 4.206 2.352 6.614 8.456 3.048 7.644 6.278 22.007 9.722 35.11 3.445 13.076 8.108 32.535 10.943 43.371 2.834 10.835 3.931 12.291 6.095 21.671 2.164 9.407 5.426 22.595 6.828 34.662 1.371 12.068.884 24.807 1.463 37.547.579 12.739 2.591 25.927 1.95 38.89-.975 19.515-1.005 39.115-2.926 58.574-.853 8.764-4.053 17.219-5.364 25.927l-7.559 50.958-2.438 9.827c.762-9.407-9.997-14.503-22.646-17.723-15.209-3.864-32.887-4.452-33.101.728 3.475-34.187 3.658-25.647 1.463-61.261-.823-13.188-1.615-33.235-1.95-43.819-.336-10.583 0-14.895 0-19.683 0-4.76-.092-3.808 0-8.931.091-5.152 3.657-15.204.487-21.896l-7.772-16.547c-2.256-4.004-3.17-5.516-3.81-10.024-1.28-9.155-.274-19.571-.274-28.418 0-6.916 1.707-13.356 1.493-20.132-.213-6.887-1.097-14.923 1.067-24.135 2.042-8.623 5.456-16.911 7.803-25.479 3.596-13.271 7.315-34.774 14.142-49.278 4.389-9.183 9.479-13.943 17.77-18.395z" fill="#0F4496"/><path fill-rule="evenodd" clip-rule="evenodd" d="M399.918 374.764c.305.252.61.476.914.672-5.699 5.292-9.174 12.824-11.887 18.423-10.302 21.28-12.466 41.859-18.501 66.19-1.646 6.663-3.718 17.247-.548 15.231 3.81-2.436 4.937-5.656 7.376-10.527 7.65-15.204 14.782-22.68 7.406-.812-1.432 4.255-5.943 10.247-9.936 15.791-5.029 7-4.724 7.896-.671 8.428 1.738.224 19.964.392 17.069 5.963-3.14 6.02-19.416.168-23.744.588-4.053.392-4.572 3.528 7.163 9.408 5.791 2.884 5.791 5.516 3.322 8.54-4.633 5.683-5.821 8.427-4.694 10.919 2.896 6.412 12.863 6.384 17.679 7.784 3.2.924 6.034 5.124 3.87 6.72-3.718 2.743-12.496-3.052-21.518-5.88-5.06-1.596-7.163 6.831.975 11.311 3.323 1.82 6.98 1.372 15.24 2.128 0 0 2.56 2.352 1.097 3.696-2.164 1.988-8.808 3.836-8.839 8.652-.03 2.268.244 8.511 5.212 9.659 2.286.308 4.633.224 6.828.896 2.834.84 5.364 2.38 8.016 3.584 0 0 4.145 4.48 5.364 5.376 1.219.896 13.624 6.048 13.624 6.048 1.22 1.204 4.085 1.988 3.658 3.583-.671 2.548-4.054 3.724-6.096 5.6 0 0-7.071 2.016-8.26 2.24-1.219.224-8.565.476-9.967.672-1.432.196-5.242-1.344-8.503 1.12-1.524 1.148-7.437 7.868-10.973 13.72-7.62 12.627 1.097 13.775 12.588 14.139 7.315.224 8.443 8.4 4.907 15.455-2.316 4.592-4.511 6.356-6.766 7.364-12.466 5.516-11.826 7.784-4.267 13.355 7.589 5.572 11.429 9.1 12.588 12.432 1.036 3.024-9.967 5.6-8.23 23.771 1.555 16.603 31.851 9.072 35.874 34.887l-1.981 8.007c1.28-15.595-14.264-17.667-24.719-21.027-14.843-4.788-30.753-2.744-30.997 4.06 3.475-34.187 3.657-25.647 1.463-61.262-.823-13.187-1.615-33.234-1.951-43.818-.335-10.583 0-14.895 0-19.683 0-4.76-.091-3.808 0-8.932.092-5.151 3.658-15.203.488-21.895l-7.772-16.547c-2.713-6.468-3.688-9.268-3.81-10.024-1.28-9.155-.275-19.571-.275-28.418 0-6.916 1.707-13.356 1.494-20.132-.213-6.887-1.097-14.923 1.067-24.135 2.042-8.623 5.456-16.911 7.802-25.479 3.597-13.271 7.315-34.774 14.143-49.278 4.297-9.351 9.388-14.111 17.678-18.563z" fill="#316DCA"/><path fill-rule="evenodd" clip-rule="evenodd" d="M399.926 374.764c.336.28.671.532 1.037.756-6.98 2.716-10.79 8.512-13.472 14.112-10.302 21.279-12.954 45.442-18.989 69.745-1.646 6.663-5.181 23.939-2.012 21.923 3.81-2.436 9.784-9.016 12.253-13.888 7.65-15.203 10.881-23.575 3.505-1.707-1.432 4.255-6.675 9.351-10.668 14.895-5.029 7-3.017 7.028 1.037 7.532 1.737.224 12.1 5.739 11.948 6.635-.732 4.648-14.295-2.968-18.623-2.548-4.054.392-4.328 5.992 7.406 11.872 5.944 2.968 2.408 4.48-2.56 3.332-3.444-.812-8.321-4.312-8.077-3.78 1.158 2.576 1.92 4.928 2.682 6.972 2.378 6.579 7.711 8.287 3.627 12.543-2.042 2.128-4.511 4.34-4.511 6.972-.03 4.9-1.828 13.327 6.34 17.779 3.231 1.764-4.328 6.356-2.956 8.456.761 1.176 1.523.112 5.15.952 7.376 4.536-2.164 9.183 0 9.827 2.835.84-3.169 11.116-.487 12.292 6.187-.476 42.671-.504 41.391 7.392-.122.756-40.111-8.932-42.427-3.92-5.182 11.311 18.592 4.172 14.782 12.095-2.774 5.74-9.54 8.96-12.771 14.252-4.206 6.859 1.433 10.499 2.499 16.379 2.317 12.907-4.724 23.183-1.28 44.378.762 4.676-1.371 13.216 3.536 18.367.457 4.788-1.585 7.924-2.987 12.908-1.158 4.144-2.408 10.163-1.524 13.691 13.563-2.24 40.019 6.216 46.085 13.244-6.858-5.208-49.255-16.184-50.291-5.432 3.474-34.187 3.657-25.647 1.463-61.261-.823-13.188-1.616-33.235-1.951-43.819-.335-10.583 0-14.895 0-19.683 0-4.76-.091-3.808 0-8.932.092-5.151 3.658-15.203.488-21.895l-7.772-16.547c-2.926-6.692-3.688-9.268-3.81-10.024-1.28-9.155-.275-19.571-.275-28.418 0-6.916 1.707-13.356 1.494-20.132-.213-6.887-1.097-14.923 1.067-24.135 2.042-8.623 5.455-16.911 7.802-25.479 3.597-13.271 7.315-34.774 14.143-49.278 4.328-9.211 9.418-13.971 17.708-18.423z" fill="#0C54BF"/><path fill-rule="evenodd" clip-rule="evenodd" d="M400.001 374.829c2.103 1.68 4.176 2.352 6.584 8.4 3.048 7.643 6.278 22.007 9.723 35.11 3.444 13.076 8.107 32.535 10.942 43.37 2.651 10.136 3.779 12.068 5.669 19.964l-.274.028c-4.481.392-4.694 7.755-6.828 10.723-2.103 2.996-3.596 4.872-4.998 7.364-2.622 4.676-13.991 22.259-13.991 9.603 0-11.479 5.913-42.082 5.913-57.145 0-11.564-4.937-81.617-28.254-49.838 2.926-15.176 7.163-20.047 15.514-27.579zm40.721 149.682c.67 10.107.426 20.579.883 31.051.58 12.739 2.591 25.926 1.951 38.89-.975 19.515-1.006 39.114-2.926 58.574-.853 8.763-4.054 17.219-5.364 25.926l-7.559 50.958-2.438 9.828c.213-2.688-.854-16.323-5.243-27.803-2.896-7.532 6.431-12.739 5.791-13.915-1.371-2.548-15.666-1.736-16.063-4.48-.518-3.388 17.221-19.487 18.989-24.807 2.774-8.456-16.245-11.956-15.453-14.811 3.719-13.468 45.323-30.659 1.372-40.795-10.912-2.52-25.115-3.36.152-5.208 11.796-.868 19.019 2.52 19.385.308.549-3.303-3.536-1.736-6.797-8.819-4.694-10.276 9.418-16.856 10.089-24.331.762-8.232-8.199-12.46-5.608-20.579.975-3.024 7.345-19.712 8.016-25.927.731-6.188.457-2.604.823-4.06z" fill="#316DCA"/><path fill-rule="evenodd" clip-rule="evenodd" d="M422.577 578.317c9.418 12.515 1.585 17.667-8.29 18.675-3.841.392-17.13 2.38-24.749 6.916-4.633 2.772-11.278 13.523-5.67 16.687 3.109 1.736 9.358.896 13.137 1.12 18.257 1.092 21.793 5.376 18.623 10.584-3.414 5.599-14.63 12.263-23.744 17.163-4.785 2.576-7.345 1.876-7.071 4.704 1.067 10.863 26.548 3.667 26.67 15.651 0 .252-7.193 5.46-12.436 11.648-3.17 3.751-5.456 9.575-5.456 10.023 0 6.972 8.047 16.491 14.356 16.995 1.433.112 6.553 1.596 8.504.672 2.255-1.064-2.56-5.095-6.218-9.071-3.657-3.976-6.187-7.924-6.187-7.924-.671-2.296 1.402-4.088 3.17-5.824 1.828-1.792 4.602-3.22 7.345-4.843 4.755-2.828 9.327-6.3 8.321-13.44-1.493-10.667-21.366-13.243-21.488-13.691-.762-2.492 9.571-8.064 17.221-13.16 14.02-9.323 8.961-23.603-8.961-25.955-4.328-.56-20.543.896-14.112-5.823 5.547-5.824 13.533-4.816 20.452-6.048 8.595-1.54 12.679-5.712 14.935-11.06 1.645-3.92 1.615-8.651-3.506-12.403-1.188-.924-14.233-14.14-4.846-1.596z" fill="#0F4EAD"/><path fill-rule="evenodd" clip-rule="evenodd" d="M431.103 492.003c-8.412-3.723-3.597 17.164-8.26 24.583-2.926 4.676-9.875 6.132-13.624 10.276-3.658 4.06-5.09 9.492-8.26 13.859-3.139 4.312-9.235 7.056-10.698 12.068-.854 2.828 1.859 6.58 4.876 7.588 2.042.7 3.018-2.912 4.389-4.48 2.378-2.744 4.603-5.628 6.828-8.484 2.651-3.388 4.785-7.14 7.802-10.275 1.616-1.68 5.121-6.16 5.852-4.032 1.677 5.011.244 10.807-1.95 15.651-1.585 3.5-6.98 4.62-8.748 8.036-1.524 2.968-1.89 6.831-.487 9.827 2.377 5.068 6.187 9.94 11.185 12.964 1.829 1.092 4.725-.952 5.852-2.688 3.353-5.208 5.365-11.116 6.828-16.995 1.493-5.992 1.554-12.208 1.95-18.34.427-6.551.945-13.131.488-19.683-.823-9.967 5.852-25.535-4.023-29.875z" fill="#0F4EAD"/><path fill-rule="evenodd" clip-rule="evenodd" d="M400.011 374.829c2.103 1.68 4.176 2.352 6.584 8.4 3.048 7.643 6.278 22.007 9.722 35.11 3.445 13.076 8.108 32.535 10.943 43.37.396 1.512 3.23 10.864 2.59 10.92-7.376 6.804-20.207 39.086-19.842 31.863.671-13.748 12.588-26.095 9.175-49.39l-5.517-37.799-4.877-24.135-8.778-18.339zm40.72 149.682c.671 10.107.427 20.579.884 31.051.579 12.739 2.591 25.926 1.951 38.89-.975 19.515-1.006 39.114-2.926 58.574-.853 8.763-4.054 17.219-5.364 25.926l-7.559 50.958-2.439 9.828c.275-3.416-.243-6.188-1.371-8.456.091-2.24.091-4.619-.214-6.831-.64-4.648-3.444-8.456-3.23-9.212.518-1.932 4.053-2.156 4.633-4.704.579-2.548 2.103-9.967.731-12.515-1.372-2.548-8.107.952-8.504-1.792-.396-2.744 6.249-8.148 8.748-12.74 2.499-4.592 4.084-7.979 6.34-14.755 2.773-8.456-10.15-5.264-9.358-8.12 1.585-5.796 11.583-13.859 11.796-17.807.122-2.352 6.37-22.791.335-20.187-3.322 1.428-7.01 1.092-9.814-.84 10.363-4.48 14.203-7.14 14.691-10.192.549-3.304-2.804-7.111-6.065-14.195-2.957-6.412-1.128-6.608 4.267-15.4 1.432-2.323 3.139-3.723 3.413-6.495.244-2.744-.945-5.74-1.95-9.156-1.006-3.444-3.688-8.428-4.146-11.395-.457-2.968.488-2.8 1.463-5.824.976-3.024 1.707-9.38 2.926-20.579.153-1.204.397-2.576.762-4.032zM229.76 607.424c3.658 35.195 3.353 65.125 9.54 97.856 7.224 38.022 14.691 63.277 26.182 73.581 8.869 7.952 22.219 11.815 47.182 9.632-22.89.364-35.813-2.548-45.689-13.552-12.1-13.467-17.922-37.854-22.737-68.597-2.439-15.539-6.096-53.17-2.987-52.302 26.852 24.891 49.254 32.927 48.401 24.807-25.42-20.887-58.398-44.462-54.467-81.448 0-.112 20.696 16.407 16.551 1.623-1.585-5.683-8.474-8.847-16.52-24.471-5.944-11.535-6.279-23.827 3.871-37.938-4.115 2.016-6.98 5.656-8.778 9.912-6.706 15.791-1.341 44.882-.549 60.897z" fill="#0C54BF"/><path fill-rule="evenodd" clip-rule="evenodd" d="m309.469 181.088 6.109-40.21c13.81 18.513 14.679 40.483 6.264 64.285.046-9.856-6.09-18.288-12.373-24.075zM186.42 177.995l5.066-40.451c-17.922 11.163-23.471 57.904-13.302 89.234 1.61-5.746 16.555-.47 18.034-12.706.907-7.485-12.62-35.089-9.798-36.077z" fill="#834E21"/><path fill-rule="evenodd" clip-rule="evenodd" d="m312.775 195.796-9.586-32.955c11.829 4.611 23.801 24.091 22.617 50.2-2.328-9.237-6.489-14.696-13.031-17.245z" fill="#734130"/><path fill-rule="evenodd" clip-rule="evenodd" d="m284.949 173.037-19.067-54.883c14.999 3.733 22.607 6.366 25.728 6.816 41.747 5.963 45.699 135.351 15.467 158.305l-22.128-110.238z" fill="#734130"/><path fill-rule="evenodd" clip-rule="evenodd" d="M196.841 217.237c-1.089-4.649-12.942-13.276-19.091-4.259-8.309 25.245 13.411 37.663 15.616 29.528l.208-.776c1.935-7.117 3.575-8.758 4.306-16.274.47-4.814.089-3.397-1.039-8.219zM323.497 219.041c.029 16.846-12.262 23.285-15.389 17.934l-1.408-2.407c-1.242-6.665-1.411-8.066-1.634-15.005-.338-10.366 8.017-16.246 13.746-13.468 4.249 2.054 4.671 7.682 4.685 12.946z" fill="#E7C796"/><path fill-rule="evenodd" clip-rule="evenodd" d="M315.48 218.524c2.721 11.524-5.132 16.3-6.903 13.267l-.682-1.17c-.604-3.235-.687-3.915-.797-7.283-.2-6.247 6.09-9.136 8.382-4.814zM180.565 221.451c-2.721 11.523 5.132 16.3 6.903 13.267l.682-1.17c.604-3.235.687-3.915.797-7.283.2-6.248-6.09-9.136-8.382-4.814z" fill="#000" fill-opacity=".11"/><path fill-rule="evenodd" clip-rule="evenodd" d="m218.702 150.676 15.686-38.148c-42.353-10.63-50.243 41.671-51.353 78.519-.423 14.055 1.114 56.132 8.446 76.478l27.221-116.849z" fill="#734130"/><path fill-rule="evenodd" clip-rule="evenodd" d="M298.052 313.401c-1.823 5.636-24.054 32.235-43.373 32.9-26.285.905-48.873-22.414-49.159-28.736-2.898-3.583-11.797-32.384-14.898-64.095-5.073-51.868 9.612-110.504 12.958-116.038 7.977-26.165 66.91-22.922 93.111-2.418 5.228 4.089 5.564 16.971 7.18 32.777 1.913 18.708 3.53 49.519 5.094 77.594 2.073 37.203-9.599 64.281-10.913 68.016z" fill="#E7C796"/><path fill-rule="evenodd" clip-rule="evenodd" d="M232.273 253.525c.036.487 1.315 16.933-3.696 13.952-12.149-7.232-13.192 16.3-9.376 26.675 6.455 17.553 52.014 20.563 60.326 6.641 3.811-6.383 20.162-20.154 9.85-37.051-2.965-4.857-10.184-2.771-16.235-2.563-1.716.06-3.362-11.766-.581-12.355 12.786-2.705 22.611 2.767 28.136 20.124 5.865 18.422-6.721 47.254-7.896 50.825-4.402 13.369-18.819 23.502-37.541 22.142-12.691-.923-32.843.364-40.674-12.822-9.323-15.7-11.198-32.709-7.708-53.221 3.893-22.879 18.031-24.499 25.395-22.347z" fill="#6D4526"/><path fill-rule="evenodd" clip-rule="evenodd" d="M239.413 313.934c2.223-3.524 5.329-4.262 2.977-9.543-1.456-3.278-1.321-3.664 8.694-2.093 3.349.529 6.644-1.819 10.003-1.819 1.628.995-3.194 4.956-.818 10.648 1.538 3.696-21.114 3.219-20.856 2.807z" fill="#6D4526"/><path fill-rule="evenodd" clip-rule="evenodd" d="M189.874 217.74c4.078-26.336 14.294-55.351 31.793-54.536 6.033.28 39.022 2.542 48.059-2.49 13.605-6.434 18.56-25.214 33.934 6.175-.544-5.425-.956-10.484-1.479-14.942l-4.001-15.103c-.498-.721-1.049-1.332-1.68-1.815-5.675-4.398-12.887-8.003-20.776-10.692l-68.847 5.475c-2.045 2.193-3.575 4.729-4.47 7.634-3.758 5.022-15.506 44.051-12.533 80.294z" fill="#834E21"/><path fill-rule="evenodd" clip-rule="evenodd" d="M229.825 220.885c.124 13.628-7.758 18.612-18.346 18.658-10.578.048-16.838-6.61-16.277-18.286.454-21.289 32.027-25.775 34.623-.372z" fill="#fff"/><path fill-rule="evenodd" clip-rule="evenodd" d="M196.432 183.396c-1.912 3.372-1.312 7.373-.442 8.72 13.16-6.219 25.635-2.962 31.492-2.656.614-.077 1.568-.715.315-3.758-2.384-5.934-25.833-4.921-31.365-2.306zM284.097 108.326c-11.161-20.396-37.355-26.145-61.856-19.151-14.579 4.16-34.907 46.482-26.614 67.862 15.325-16.795 49.923-1.531 65.113-4.029 9.798-1.609 35.94-21.672 23.357-44.682z" fill="#734130"/><path fill-rule="evenodd" clip-rule="evenodd" d="M197.309 205.868c5.836-4.068 13.898-7.096 23.028-6.046-1.898-3.106-6.991-5.977-11.386-5.121-8.728 2.068-10.388 6.994-11.642 11.167z" fill="#BF8C60"/><path fill-rule="evenodd" clip-rule="evenodd" d="m257.52 104.044 33.897 16.974c-7.038-26.585-28.728-57.89-53.662-51.07 9.422 3.928 15.876 19.41 19.765 34.096z" fill="#734130"/><path fill-rule="evenodd" clip-rule="evenodd" d="m238.391 109.81 35.251 1.06c-13.188-21.261-38.227-42.883-61.741-27.631 9.601-.429 19.203 14.822 26.49 26.571zM192.667 117.62l26.273 1.949c-6.231 24.313-31.345 61.335-62.336 51.641-2.076-3.159 3.306-4.878 6.434-7.388 9.251-7.448 26.526-31.707 29.629-46.202z" fill="#734130"/><path fill-rule="evenodd" clip-rule="evenodd" d="m212.246 104.364 12.252-14.68c-9.907-1.598-24.275 3.67-27.125 18.359 3.152-4.239 9.398-4.566 14.873-3.679z" fill="#734130"/><path fill-rule="evenodd" clip-rule="evenodd" d="M185.324 145.088c9.189-28.336 58.902-34.349 74.572-13.035 1.987-.199-46.693-17.737-74.572 13.035zM254.492 91.664c13.006-.742 20.028 18.661 15.526 33.684-.666 1.964-1.253-20.558-15.526-33.684z" fill="#9D6D48"/><path fill-rule="evenodd" clip-rule="evenodd" d="M223.672 96.792c14.085-16.521 42.611 2.935 39.224 30.172 7.17 4.445-13.805-41.55-39.224-30.172z" fill="#834E21"/><path fill-rule="evenodd" clip-rule="evenodd" d="M213.412 211.121c4.795-.021 8.697 4.746 8.715 10.646.015 5.906-3.861 10.706-8.656 10.73-4.8.021-8.701-4.746-8.717-10.648-.016-5.905 3.86-10.707 8.658-10.728z" fill="#240A45" stroke="#0C050D" stroke-width=".078" stroke-miterlimit="22.926"/><path fill-rule="evenodd" clip-rule="evenodd" d="M268.745 215.569c-.05 13.627 7.861 18.539 18.442 18.492 10.583-.047 16.806-6.765 16.186-18.433-.574-21.285-32.17-25.49-34.628-.059z" fill="#fff"/><path fill-rule="evenodd" clip-rule="evenodd" d="M300.198 201.516c-5.329-3.972-12.524-6.869-20.998-6.212 1.816-2.811 7.047-4.33 10.274-3.361 8.05 2.214 9.649 5.664 10.724 9.573z" fill="#BF8C60"/><path fill-rule="evenodd" clip-rule="evenodd" d="M296.866 169.075c2.99 3.003 3.309 7.753 2.669 9.632-16.358-1.548-29.6 7.291-36.113 10.069-.707.163-1.935-.159-1.279-4.106 1.207-7.672 27.849-16.244 34.723-15.595z" fill="#734130"/><path fill-rule="evenodd" clip-rule="evenodd" d="M285.591 206.606c-4.775.023-8.634 4.803-8.617 10.685.013 5.877 3.9 10.627 8.678 10.604 4.778-.021 8.638-4.806 8.621-10.684-.016-5.876-3.899-10.626-8.682-10.605z" fill="#240A45" stroke="#0C050D" stroke-width=".078" stroke-miterlimit="22.926"/><path fill-rule="evenodd" clip-rule="evenodd" d="M288.74 211.154c-.454.002-.822.644-.821 1.436.002.79.372 1.428.825 1.427.455-.003.822-.645.822-1.437-.003-.79-.372-1.427-.826-1.426z" fill="#C8BFFF"/><path fill-rule="evenodd" clip-rule="evenodd" d="m281.806 117.019.935-.636c9.205-6.23 26.247-1.811 36.658 9.301 5.057 5.403 9.368 22.39 6.398 32.569-.664 2.277-19.461 16.361-20.928 17.75-4.557-39.299-16.661-49.029-22.445-39.906-2.298 3.626-9.844-12.833-.618-19.078z" fill="#734130"/><path fill-rule="evenodd" clip-rule="evenodd" d="m299.71 121.621-19.447-2.613c8.406-10.499 24.723-18.613 35.368-7.45-5.255-1.107-11.281 4.262-15.921 10.063z" fill="#734130"/><path fill-rule="evenodd" clip-rule="evenodd" d="m307.777 130.442-17.079-10.66c10.345-5.999 26.426-8.421 34.795 6.33-4.516-3.245-11.998 1.015-17.716 4.33zM326.055 157.198l-10.794-15.964c-1.488 12.527 2.103 30.909 13.168 34.939-3.131-4.122-3.197-12.053-2.374-18.975z" fill="#734130"/><path fill-rule="evenodd" clip-rule="evenodd" d="m321.316 136.122-3.089-10.911c5.05 2.371 10.933 9.447 9.514 17.383-.706-3.03-3.637-5.16-6.425-6.472z" fill="#734130"/><path fill-rule="evenodd" clip-rule="evenodd" d="M318.326 155.028c.968-16.477-13.535-25.993-25.075-20.75-1.509.782 15.565 2.233 25.075 20.75z" fill="#9D6D48"/><path fill-rule="evenodd" clip-rule="evenodd" d="M303.473 116.626c-6.087-4.475-13.124 2.591-13.815 11.209-.054 1.152 4.495-9.445 13.815-11.209z" fill="#834E21"/><path fill-rule="evenodd" clip-rule="evenodd" d="M317.303 128.883c-3.047-9.632-13.288-9.699-18.641-2.544-.678.992 9.249-4.411 18.641 2.544z" fill="#9D6D48"/><path fill-rule="evenodd" clip-rule="evenodd" d="M234.173 237.13c-.613-17.69 10.908-37.756 10.493-37.028-1.048 1.84-5.827 14.086-8.703 30.444-1.308 7.443.456 18.538.697 21.439.391 4.714 2.829 10.766 3.551 12.06 2.281 4.091 12.16 1.69 15.215-3.889.455-.832 1.171.714 1.426.956.256.243.358 2.581-.659 2.872-4.467 1.276-7.679 3.857-11.575 3.519-3.552-.308-5.359-.871-7.223-5.449-.071-.157-2.855-14.211-3.222-24.924zM280.981 267.072c.653-.804 1.687-.77 2.308.076.624.844.598 2.183-.057 2.986-6.067 7.504-17.636 13.195-29.249 14.975-10.565 1.625-21.271.038-28.118-6.289-.733-.68-.904-1.996-.384-2.948.524-.949 1.543-1.171 2.279-.497 6.124 5.671 15.997 7.041 25.835 5.531 10.98-1.683 21.812-6.942 27.386-13.834zM244.268 291.438c.062-.424 4.063 1.44 7.862 1.298 3.559-.134 6.935-2.285 6.951-2.008-.764 4.206-3.978 6.493-6.929 6.552-5.241.106-7.773-3.684-7.884-5.842z" fill="#B68C67"/><path fill-rule="evenodd" clip-rule="evenodd" d="M285.061 275.703c-1.663-6.344-4.237-8.77-9.147-9.417 5.3-5.955 12.8 1.7 9.147 9.417zM231.965 272.879c-4.98 1.852-6.974 5.062-7.711 11.374-4.346-7.128 1.923-16.455 7.711-11.374zM222.189 327.279c.24.772 15.681-5.205 30.354-4.947 13.729.237 27.414 4.186 27.465 3.675-2.94-7.636-16.002-9.233-27.408-9.339-20.21-.197-29.992 6.691-30.411 10.611zM251.263 335.234c1.408 0 2.561-1.274 2.561-2.835s-1.153-2.835-2.561-2.835c-1.412 0-2.563 1.274-2.563 2.835s1.151 2.835 2.563 2.835z" fill="#B68C67"/><path fill-rule="evenodd" clip-rule="evenodd" d="m202.719 117.326 12.056-27.043c-11.624 2.677-22.648 14.026-34.879 31.648-1.912 2.751-11.06 11.469-11.092 12.448-.182 5.637 9.354 1.935 12.339.149 5.09-3.047 16.23-15.972 21.576-17.202z" fill="#734130"/><path fill-rule="evenodd" clip-rule="evenodd" d="M197.075 231.936c5.229 2.346 32.086-2.403 31.645-1.526-3.895 5.134-1.757 7.694-10.871 10.425-6.828 2.046-18.733.18-20.774-8.899z" fill="#EFC791"/><path d="M270.547 227.743c7.488 2.423 20.904.081 29.959.658-3.651 9.875-14.971 10.616-17.982 9.02-2.697-1.431-8.135-1.22-11.977-9.678z" fill="#EFC791"/><path fill-rule="evenodd" clip-rule="evenodd" d="M313.94 197.199c.061.31-1.792 6.218-2.744 20.269-.075 1.122.827 20.159.47 27.004-.125 2.479-1.666.06-1.676.118-1.886.845-5.46-48.579-5.123-64.726.037-1.779 6.435 15.892 8.027 16.119l1.046 1.216z" fill="#734130"/><path fill-rule="evenodd" clip-rule="evenodd" d="M185.926 122.602c21.794-29.366 41.457-18.121 68.99-2.963 2.37 1.304-49.405-23.817-68.99 2.963z" fill="#9D6D48"/><path fill-rule="evenodd" clip-rule="evenodd" d="M214.823 214.099c-.454.002-.822.645-.821 1.436.002.791.371 1.429.825 1.428.455-.003.822-.646.821-1.437-.003-.79-.371-1.428-.825-1.427z" fill="#C8BFFF"/><path fill-rule="evenodd" clip-rule="evenodd" d="M285.673 138.382c23.572-12.078 40.19 34.612 20.838 68.798 4.439 11.136 10.858-65.804-20.838-68.798zM176.618 165.513c13.425-27.021 77.777-42.082 79.235-21.843-17.687-3.95-52.722-5.027-79.235 21.843z" fill="#834E21"/><path fill-rule="evenodd" clip-rule="evenodd" d="M294.118 114.72c-14.151 8.471-18.921 11.019-28.511 26.715 4.19-12.943 19.074-27.482 28.511-26.715z" fill="#9D6D48"/></g><defs><radialGradient id="h" cx="0" cy="0" r="1" gradientUnits="userSpaceOnUse" gradientTransform="matrix(0 8.69191 -12.3283 0 251.561 378.122)"><stop stop-color="#316DCA"/><stop offset="1" stop-color="#0F4496"/></radialGradient><radialGradient id="e" cx="0" cy="0" r="1" gradientUnits="userSpaceOnUse" gradientTransform="matrix(0 93.6325 -10.7897 0 251.399 466.326)"><stop stop-color="#316DCA"/><stop offset=".61" stop-color="#0F4EAD"/><stop offset="1" stop-color="#0F4496"/></radialGradient><radialGradient id="m" cx="0" cy="0" r="1" gradientUnits="userSpaceOnUse" gradientTransform="matrix(0 8.69183 -12.3283 0 251.561 378.129)"><stop stop-color="#316DCA"/><stop offset="1" stop-color="#0F4496"/></radialGradient><radialGradient id="k" cx="0" cy="0" r="1" gradientUnits="userSpaceOnUse" gradientTransform="matrix(0 93.6325 -10.7897 0 251.399 466.333)"><stop stop-color="#316DCA"/><stop offset=".61" stop-color="#0F4EAD"/><stop offset="1" stop-color="#0F4496"/></radialGradient><linearGradient id="q" x1="298.321" y1="366.3" x2="270.435" y2="341.718" gradientUnits="userSpaceOnUse"><stop stop-color="#fff"/><stop offset="1" stop-color="#EBEFE8"/></linearGradient><linearGradient id="p" x1="199.672" y1="372.442" x2="216.967" y2="353.615" gradientUnits="userSpaceOnUse"><stop stop-color="#fff"/><stop offset="1" stop-color="#EBEFE8"/></linearGradient><linearGradient id="j" x1="267.113" y1="459.151" x2="263.149" y2="460.278" gradientUnits="userSpaceOnUse"><stop stop-color="#0F4496"/><stop offset="1" stop-color="#0F4496" stop-opacity="0"/></linearGradient><linearGradient id="c" x1="267.113" y1="459.144" x2="263.149" y2="460.272" gradientUnits="userSpaceOnUse"><stop stop-color="#0F4496"/><stop offset="1" stop-color="#0F4496" stop-opacity="0"/></linearGradient><filter id="g" x="228.074" y="357.421" width="48.05" height="40.976" filterUnits="userSpaceOnUse" color-interpolation-filters="sRGB"><feFlood flood-opacity="0" result="BackgroundImageFix"/><feBlend in="SourceGraphic" in2="BackgroundImageFix" result="shape"/><feGaussianBlur stdDeviation="6" result="effect1_foregroundBlur_4784_31874"/></filter><filter id="o" x="36.848" y="204.188" width="507.013" height="604.89" filterUnits="userSpaceOnUse" color-interpolation-filters="sRGB"><feFlood flood-opacity="0" result="BackgroundImageFix"/><feBlend in="SourceGraphic" in2="BackgroundImageFix" result="shape"/><feGaussianBlur stdDeviation="92" result="effect1_foregroundBlur_4784_31874"/></filter><filter id="d" x="274.728" y="495.305" width="9.79" height="11.165" filterUnits="userSpaceOnUse" color-interpolation-filters="sRGB"><feFlood flood-opacity="0" result="BackgroundImageFix"/><feBlend in="SourceGraphic" in2="BackgroundImageFix" result="shape"/><feColorMatrix in="SourceAlpha" values="0 0 0 0 0 0 0 0 0 0 0 0 0 0 0 0 0 0 127 0" result="hardAlpha"/><feOffset dy="1"/><feGaussianBlur stdDeviation="1.5"/><feComposite in2="hardAlpha" operator="arithmetic" k2="-1" k3="1"/><feColorMatrix values="0 0 0 0 0 0 0 0 0 0 0 0 0 0 0 0 0 0 0.55 0"/><feBlend in2="shape" result="effect1_innerShadow_4784_31874"/></filter></defs></svg>