<svg width="80" height="80" fill="none" xmlns="http://www.w3.org/2000/svg"><mask id="a" style="mask-type:alpha" maskUnits="userSpaceOnUse" x="0" y="0" width="80" height="80"><path fill="#C4C4C4" d="M0 0h80v80H0z"/></mask><g mask="url(#a)"><mask id="b" style="mask-type:alpha" maskUnits="userSpaceOnUse" x="2" y="2" width="76" height="76"><path fill="#C4C4C4" d="M2 2h76v76H2z"/></mask><g mask="url(#b)" fill-rule="evenodd" clip-rule="evenodd"><path d="M63.095 22.662a7.637 7.637 0 0 0-1.728.076l-6.711 1.066-6.657-.47-.493.818-1.428 3.445-3.375-7.106 1.467-2.431c.625-1.037 1.66-1.62 2.739-1.544l7.533.53 6.162-.978c.936-.149 1.883-.19 2.827-.125l8.082.56c.416.029.823.16 1.194.384l2.233 1.352c1.654 1.002 1.96 3.262 1.275 4.79-.959 2.14-1.33 3.194-1.561 3.901-.038.114-.074.228-.111.345l-.001.002c-.206.645-.436 1.364-.914 2.363-.98 2.049-3.2 5.69-9.897 16.376l-7.918 17.697c-.501 1.121-1.489 1.823-2.565 1.823H44.88c-1.222 0-2.343-.804-2.903-2.084l-2.196-5.015-.052-.154c-2.8-8.313-5.94-12.38-6.515-13.125l-.026-.032c-.92-1.194-.989-2.871-.375-4.126l3.549-7.253 3.25 6.842-.892 1.822c1.527 2.288 4.014 6.584 6.27 13.235l1.383 3.16h5.175l7.327-16.377.128-.205c6.94-11.07 8.88-14.29 9.645-15.89.253-.526.334-.779.521-1.36l.152-.468c.13-.393.281-.837.486-1.38l-6.712-.464z" fill="#fff"/><path d="M60.511 15.487c.98-.156 1.972-.2 2.96-.132l8.083.56c.513.036 1.01.197 1.458.468l2.233 1.353c1.977 1.197 2.277 3.817 1.507 5.533-.951 2.123-1.314 3.159-1.539 3.845l-.11.34v.002l-.001.003c-.208.65-.448 1.4-.943 2.435-.998 2.085-3.238 5.76-9.908 16.4l-7.9 17.66c-.58 1.295-1.756 2.17-3.103 2.17H44.88c-1.495 0-2.805-.98-3.442-2.435l-2.207-5.04-.06-.178c-2.768-8.22-5.865-12.23-6.42-12.949l-.029-.037c-1.07-1.388-1.14-3.308-.438-4.744l4.086-8.35 3.895 8.201-.868 1.775c1.56 2.385 3.96 6.638 6.142 13.066l1.22 2.784h4.408l7.187-16.066.15-.24c6.952-11.088 8.867-14.27 9.614-15.83.234-.49.306-.712.49-1.287l.154-.472c.067-.204.14-.423.224-.662l-5.932-.41a7.057 7.057 0 0 0-1.594.07l-6.779 1.076-6.364-.448-.285.47-1.917 4.629-4.08-8.59 1.63-2.701c.724-1.198 1.956-1.921 3.285-1.828l7.466.526 6.095-.967zm2.879 1.043c-.9-.062-1.801-.022-2.694.12l-6.228.988-7.6-.535c-.827-.058-1.666.386-2.194 1.26l-1.304 2.161 2.672 5.624.937-2.262.702-1.164 6.949.49 6.645-1.055a8.234 8.234 0 0 1 1.86-.083l7.501.52-.278.74c-.201.533-.35.969-.477 1.355-.059.178-.108.33-.151.466l-.001.003c-.189.585-.28.868-.55 1.431-.783 1.638-2.75 4.898-9.677 15.947l-.106.17-7.466 16.688h-5.941l-1.549-3.535-.008-.024c-2.238-6.599-4.701-10.849-6.202-13.098l-.188-.281.916-1.871-2.604-5.482-3.012 6.156c-.526 1.074-.457 2.509.313 3.507l.025.032c.603.782 3.782 4.908 6.607 13.297l.044.13 2.185 4.991c.484 1.104 1.415 1.731 2.364 1.731h8.368c.806 0 1.604-.527 2.028-1.474l7.934-17.735.022-.035c6.71-10.704 8.903-14.307 9.865-16.318.46-.96.68-1.648.884-2.287v-.002l.001-.002.112-.347c.24-.729.617-1.803 1.584-3.96.6-1.337.287-3.239-1.043-4.044l-2.233-1.352a2.066 2.066 0 0 0-.93-.301l-8.082-.56z" fill="#fff"/><path d="M18.603 22.663c.32-.042.643-.04.963.008l6.311.936c1.174.174 2.359.22 3.54.136l4.667-.328 10.16 21.015-.566 1.47 3.277 7.771 3.06-7.954a4.077 4.077 0 0 0-.125-3.194L38.25 18.447c-.588-1.218-1.714-1.937-2.903-1.853l-6.271.441a11.45 11.45 0 0 1-2.486-.096l-6.31-.936a8.322 8.322 0 0 0-2.312-.019l-8.86 1.167a2.77 2.77 0 0 0-1.535.75l-1.889 1.778c-1.378 1.298-1.526 3.755-.23 5.257l.025.03c2.118 2.453 5.278 6.116 12.275 26.243l.085.246 6.425 12.443c.54 1.044 1.512 1.669 2.55 1.637l6.658-.207c1.228-.038 2.333-.884 2.86-2.19l1.372-3.397-3.23-7.657-2.653 6.573-3.526.11-5.344-10.35c-5.135-14.739-8.388-21.192-10.88-24.894l6.532-.86z" fill="#fff"/><path d="M20.193 16.586a7.732 7.732 0 0 0-2.148-.018l-8.86 1.167c-.43.057-.85.257-1.209.595l-1.888 1.778c-1.146 1.08-1.28 3.178-.189 4.443l.026.03c2.187 2.535 5.377 6.277 12.385 26.435l.072.206 6.405 12.406c.453.876 1.233 1.342 2.01 1.318l6.657-.206c.954-.03 1.877-.693 2.333-1.823l1.28-3.17-2.58-6.12-2.264 5.607-4.28.132-5.534-10.716-.014-.039c-5.13-14.726-8.363-21.121-10.813-24.759l-.53-.788 7.474-.985c.375-.05.753-.046 1.127.01l6.31.935c1.132.168 2.274.212 3.413.132l5.065-.357 10.443 21.604-.572 1.487 2.618 6.207 2.535-6.592a3.49 3.49 0 0 0-.105-2.725L37.72 18.703c-.502-1.04-1.422-1.586-2.331-1.522l-6.272.442c-.872.061-1.746.027-2.613-.101l-6.31-.936zM17.891 15.4a8.914 8.914 0 0 1 2.475.02l6.31.936c.783.116 1.572.146 2.359.091l6.27-.442c1.47-.103 2.8.787 3.476 2.185L50.42 42.267a4.667 4.667 0 0 1 .144 3.66l-3.584 9.32-3.937-9.337.56-1.453-9.875-20.427-4.27.3a16.895 16.895 0 0 1-3.667-.14l-6.311-.937a2.876 2.876 0 0 0-.8-.006l-5.605.738c2.462 3.875 5.629 10.456 10.419 24.2l5.154 9.981 2.771-.085 3.044-7.54 3.878 9.195-1.462 3.622c-.599 1.483-1.887 2.512-3.389 2.559l-6.657.206c-1.3.04-2.466-.742-3.092-1.955l-6.444-12.48-.1-.286C10.238 31.381 7.105 27.75 5.058 25.377l-.05-.057c-1.499-1.738-1.336-4.553.274-6.07l1.888-1.778a3.359 3.359 0 0 1 1.862-.904l8.86-1.167z" fill="#fff"/><path d="M62.388 21.592a7.729 7.729 0 0 0-1.748.078l-6.51 1.033-.278.044-.28-.02-6.452-.454-.5.826-1.443 3.485-3.413-7.188.007-.012 1.477-2.446c.632-1.048 1.679-1.639 2.77-1.562l7.618.537 6.232-.99c.947-.15 1.905-.192 2.859-.126l8.174.566c.421.03.833.162 1.208.389l2.258 1.368c1.672 1.012 1.982 3.299 1.29 4.843-.97 2.164-1.345 3.231-1.58 3.946l-.112.349v.002c-.21.653-.442 1.38-.925 2.39-.992 2.072-3.235 5.755-10.01 16.562L55.023 63.11c-.507 1.134-1.506 1.843-2.594 1.843h-8.463c-1.237 0-2.37-.813-2.936-2.107l-2.156-4.923-.065-.149-.053-.156c-2.831-8.407-6.008-12.522-6.59-13.274l-.025-.033c-.93-1.207-1-2.903-.38-4.172l3.59-7.336 3.286 6.92-.902 1.842c1.545 2.314 4.06 6.66 6.342 13.386l1.399 3.195h5.233l7.308-16.335.102-.227.13-.208c7.018-11.194 8.981-14.452 9.755-16.07.255-.532.338-.788.527-1.375l.153-.474c.13-.397.285-.846.491-1.395l-6.787-.47z" fill="#493799"/><path d="M59.774 14.336a13.24 13.24 0 0 1 2.994-.133l8.174.567c.52.036 1.022.199 1.475.473l2.258 1.368c2 1.21 2.303 3.86 1.525 5.596-.963 2.147-1.33 3.195-1.557 3.889-.037.111-.073.225-.111.343v.002l-.002.003c-.21.658-.452 1.417-.953 2.463-1.01 2.11-3.275 5.825-10.02 16.586l-7.991 17.861c-.586 1.31-1.775 2.195-3.137 2.195h-8.464c-1.512 0-2.837-.992-3.481-2.463l-2.232-5.096-.06-.181c-2.8-8.313-5.933-12.37-6.494-13.096l-.003-.004-.026-.033c-1.082-1.405-1.153-3.346-.443-4.798l4.132-8.445 3.94 8.294-.879 1.795c1.579 2.412 4.006 6.714 6.213 13.214l1.233 2.816h4.458l7.27-16.249.151-.242c7.03-11.214 8.967-14.433 9.723-16.01.237-.496.31-.72.497-1.302l.154-.477c.068-.207.143-.428.227-.67l-6-.415a7.136 7.136 0 0 0-1.612.071l-6.855 1.089-6.437-.454-.288.476-1.939 4.681-4.126-8.686.173-.287 1.476-2.446c.731-1.212 1.977-1.943 3.322-1.848l7.551.532 6.164-.979zm2.911 1.056a12.054 12.054 0 0 0-2.724.12l-6.299 1-7.687-.541c-.836-.06-1.684.39-2.218 1.275l-1.319 2.185 2.702 5.687.948-2.287.71-1.177 7.028.495 6.72-1.067A8.322 8.322 0 0 1 62.428 21l7.586.525-.282.749a32.772 32.772 0 0 0-.635 1.841v.003c-.191.592-.284.878-.556 1.448-.793 1.656-2.782 4.953-9.788 16.128l-.107.172-.085.19-7.466 16.687h-6.009l-1.565-3.575-.009-.024c-2.263-6.674-4.754-10.972-6.272-13.246l-.19-.285.926-1.893-2.634-5.544-3.046 6.226c-.531 1.087-.462 2.537.316 3.547l.026.033c.61.79 3.825 4.963 6.682 13.448l.044.13.055.126 2.156 4.923c.489 1.116 1.43 1.75 2.39 1.75h8.464c.814 0 1.622-.533 2.05-1.49l8.024-17.937.022-.035c6.786-10.825 9.005-14.47 9.978-16.503.465-.971.687-1.667.894-2.313v-.004l.114-.352c.242-.736.624-1.823 1.602-4.004.607-1.352.29-3.276-1.055-4.09L71.8 16.262a2.09 2.09 0 0 0-.94-.304l-8.175-.566z" fill="#F69E16"/><path d="M17.39 21.593c.325-.043.651-.04.975.008l6.382.947c1.188.176 2.386.222 3.58.138l4.72-.332 10.275 21.254-.572 1.486 3.315 7.86 3.094-8.045a4.124 4.124 0 0 0-.126-3.23L37.262 17.33c-.596-1.232-1.735-1.959-2.937-1.874l-6.342.447c-.839.059-1.68.026-2.514-.097l-6.383-.947a8.419 8.419 0 0 0-2.337-.02L7.788 16.02a2.802 2.802 0 0 0-1.553.758l-1.91 1.799c-1.394 1.312-1.543 3.797-.233 5.316l.026.03c2.141 2.482 5.337 6.186 12.414 26.542l.086.248.119.23 6.38 12.355c.545 1.056 1.529 1.688 2.578 1.655l6.734-.209c1.241-.038 2.36-.894 2.893-2.215l1.386-3.435-3.265-7.744-2.684 6.647-3.566.11-5.405-10.466c-5.193-14.906-8.483-21.433-11.004-25.177l6.607-.87z" fill="#F69E16"/><path d="M18.999 15.448a7.822 7.822 0 0 0-2.173-.018l-8.96 1.18c-.436.058-.86.26-1.223.601l-1.91 1.799c-1.16 1.092-1.295 3.214-.19 4.494l.025.03c2.212 2.564 5.439 6.349 12.526 26.735l.073.208 6.478 12.547c.457.886 1.247 1.358 2.032 1.334l6.733-.21c.965-.029 1.898-.7 2.36-1.842l1.294-3.207-2.61-6.189-2.289 5.67-4.33.134-5.595-10.837-.014-.04c-5.19-14.894-8.459-21.361-10.936-25.04l-.537-.798 7.56-.995c.378-.05.76-.047 1.139.009l6.382.946c1.145.17 2.3.215 3.451.134l5.123-.361 10.562 21.85-.578 1.503 2.647 6.277 2.564-6.666c.341-.887.3-1.916-.107-2.757l-11.77-24.35c-.509-1.051-1.44-1.604-2.36-1.54l-6.342.447a12.17 12.17 0 0 1-2.643-.102L19 15.448zm-2.328-1.199a9.012 9.012 0 0 1 2.502.02l6.383.947c.79.118 1.59.148 2.384.092l6.343-.446c1.485-.105 2.831.796 3.514 2.209L49.57 41.42a4.72 4.72 0 0 1 .146 3.702l-3.625 9.424-3.982-9.442.566-1.47-9.987-20.658-4.318.304c-1.238.087-2.48.039-3.71-.143l-6.382-.947a2.91 2.91 0 0 0-.809-.007l-5.668.747c2.489 3.92 5.692 10.575 10.537 24.474l5.212 10.096 2.803-.087 3.078-7.626 3.922 9.3-1.479 3.664c-.605 1.499-1.908 2.54-3.426 2.587l-6.734.209c-1.314.04-2.493-.75-3.126-1.977L16.07 50.948l-.1-.288C8.93 30.41 5.76 26.739 3.69 24.338l-.023-.027-.026-.03c-1.517-1.757-1.352-4.605.276-6.138l1.91-1.799c.53-.5 1.182-.822 1.883-.915l8.96-1.18z" fill="#493799"/></g></g></svg>