<svg width="43" height="43" viewBox="0 0 43 43" fill="none" xmlns="http://www.w3.org/2000/svg">
<mask id="mask0_4288_26510" style="mask-type:alpha" maskUnits="userSpaceOnUse" x="0" y="0" width="43" height="43">
<rect width="43" height="43" fill="#C4C4C4"/>
</mask>
<g mask="url(#mask0_4288_26510)">
<path d="M41.1433 11.5375C40.6717 9.75145 39.2824 8.3448 37.5184 7.86743C34.3211 7 21.5 7 21.5 7C21.5 7 8.67901 7 5.48157 7.86743C3.71757 8.34488 2.32827 9.75145 1.85673 11.5375C1 14.7749 1 21.5293 1 21.5293C1 21.5293 1 28.2837 1.85673 31.5211C2.32827 33.3072 3.71757 34.6552 5.48157 35.1326C8.67901 36 21.5 36 21.5 36C21.5 36 34.321 36 37.5184 35.1326C39.2824 34.6552 40.6717 33.3072 41.1433 31.5211C42 28.2837 42 21.5293 42 21.5293C42 21.5293 42 14.7749 41.1433 11.5375V11.5375ZM17.3068 27.6618V15.3968L28.0227 21.5295L17.3068 27.6618V27.6618Z" fill="white"/>
</g>
</svg>
