<svg width="32" height="28" viewBox="0 0 32 28" fill="none" xmlns="http://www.w3.org/2000/svg">
<path d="M30.182 6.78579C29.8418 5.49243 28.8393 4.47382 27.5666 4.12814C25.2596 3.5 16.0088 3.5 16.0088 3.5C16.0088 3.5 6.75804 3.5 4.45099 4.12814C3.17822 4.47387 2.17579 5.49243 1.83557 6.78579C1.21741 9.13008 1.21741 14.0212 1.21741 14.0212C1.21741 14.0212 1.21741 18.9124 1.83557 21.2566C2.17579 22.55 3.17822 23.5262 4.45099 23.8719C6.75804 24.5 16.0088 24.5 16.0088 24.5C16.0088 24.5 25.2595 24.5 27.5666 23.8719C28.8393 23.5262 29.8418 22.55 30.182 21.2566C30.8001 18.9124 30.8001 14.0212 30.8001 14.0212C30.8001 14.0212 30.8001 9.13008 30.182 6.78579ZM12.9832 18.462V9.58043L20.7151 14.0213L12.9832 18.462Z" fill="white"/>
</svg>
